<?xml version="1.0" encoding="UTF-8"?>
<!DOCTYPE svg PUBLIC "-//W3C//DTD SVG 1.1//EN" "http://www.w3.org/Graphics/SVG/1.1/DTD/svg11.dtd">
<!-- Creator: CorelDRAW 2020 (64 Bit) -->
<svg xmlns="http://www.w3.org/2000/svg" xml:space="preserve" width="512px" height="512px" version="1.1" style="shape-rendering:geometricPrecision; text-rendering:geometricPrecision; image-rendering:optimizeQuality; fill-rule:evenodd; clip-rule:evenodd"
viewBox="0 0 512 512"
 xmlns:xlink="http://www.w3.org/1999/xlink"
 xmlns:xodm="http://www.corel.com/coreldraw/odm/2003">
 <defs>
  <style type="text/css">
   <![CDATA[
    .fil0 {fill:black}
   ]]>
  </style>
 </defs>
 <g id="Camada_x0020_1">
  <metadata id="CorelCorpID_0Corel-Layer"/>
  <path class="fil0" d="M242.46 427.6c2.62,2.55 2.33,2.52 6.69,2.88 -2.81,-8.14 -6.63,-2.92 -6.69,-2.88zm-88.6 52.67l5.06 0.39c0.24,1.95 1.19,0.83 0.93,5.23 -6.06,1.82 -4.83,0.27 -5.61,-0.23l-0.38 -5.39zm18.2 4.87c3.26,-1.26 2.05,-1.23 5.49,-0.43 0.26,0.42 1.97,-0.19 0.92,6.08l-5.83 0.01 -0.58 -5.66zm18.62 6.98c5.76,-1.77 7.68,-0.26 6.71,5.56l-5.16 0.5c-1.83,-2.67 -2.12,-2.69 -1.55,-6.06zm10.56 -12.86l5.05 0.38c0.25,1.95 1.2,0.83 0.94,5.23 -6.07,1.82 -4.83,0.27 -5.62,-0.23l-0.37 -5.38zm17.18 5.98l5.06 0.39c0.25,1.95 1.19,0.83 0.93,5.23 -6.06,1.82 -4.83,0.27 -5.61,-0.23l-0.38 -5.39zm17.31 2.71c5.76,-1.76 7.68,-0.26 6.71,5.57l-5.16 0.5c-1.82,-2.67 -2.12,-2.69 -1.55,-6.07zm41.67 -8.33c5.76,-1.76 7.68,-0.26 6.7,5.57l-5.15 0.5c-1.83,-2.67 -2.12,-2.7 -1.55,-6.07zm13.8 5.2c5.76,-1.76 7.68,-0.26 6.71,5.57l-5.16 0.5c-1.82,-2.67 -2.12,-2.69 -1.55,-6.07zm-81.12 12.04c3.26,-1.26 2.05,-1.23 5.49,-0.43 0.26,0.42 1.97,-0.19 0.93,6.08l-5.84 0.01 -0.58 -5.66zm40.63 2.35c3.25,-1.27 2.05,-1.23 5.49,-0.44 0.26,0.42 1.97,-0.19 0.92,6.09l-5.83 0 -0.58 -5.65zm3.12 -21.36c3.26,-1.26 2.05,-1.23 5.49,-0.43 0.26,0.42 1.97,-0.19 0.93,6.08l-5.84 0.01 -0.58 -5.66zm56.25 3.13c3.26,-1.27 2.05,-1.23 5.49,-0.44 0.26,0.43 1.97,-0.19 0.93,6.09l-5.84 0.01 -0.58 -5.66zm43.88 -0.58c5.76,-1.76 7.68,-0.26 6.71,5.57l-5.16 0.5c-1.82,-2.67 -2.12,-2.69 -1.55,-6.07zm-70.05 17.44c5.76,-1.76 7.68,-0.26 6.7,5.57l-5.15 0.5c-1.83,-2.67 -2.12,-2.69 -1.55,-6.07zm23.44 -3.64c5.76,-1.76 7.68,-0.26 6.7,5.57l-5.15 0.5c-1.83,-2.67 -2.13,-2.69 -1.55,-6.07zm19.54 -5.44l5.06 0.39c0.24,1.95 1.19,0.82 0.93,5.22 -6.07,1.83 -4.83,0.27 -5.62,-0.22l-0.37 -5.39zm-96.49 10.81l5.06 0.39c0.25,1.95 1.19,0.82 0.93,5.22 -6.06,1.83 -4.83,0.27 -5.61,-0.22l-0.38 -5.39zm-92.19 -24.48l5.06 0.39c0.25,1.95 1.2,0.82 0.94,5.22 -6.07,1.83 -4.83,0.27 -5.62,-0.22l-0.38 -5.39zm204.04 8.33l5.06 0.39c0.25,1.95 1.19,0.82 0.93,5.23 -6.06,1.82 -4.83,0.26 -5.61,-0.23l-0.38 -5.39zm-156.78 -2.24c5.76,-1.76 7.68,-0.26 6.71,5.57l-5.16 0.5c-1.82,-2.67 -2.12,-2.69 -1.55,-6.07zm82.81 17.19c5.76,-1.77 7.69,-0.26 6.71,5.56l-5.16 0.51c-1.82,-2.68 -2.12,-2.7 -1.55,-6.07zm-32.81 -23.96c5.76,-1.76 7.68,-0.26 6.71,5.57l-5.16 0.5c-1.82,-2.67 -2.12,-2.7 -1.55,-6.07zm27.6 13.54c5.76,-1.76 7.69,-0.26 6.71,5.57l-5.16 0.5c-1.82,-2.67 -2.12,-2.69 -1.55,-6.07zm220.76 -240.62c-1.76,-5.76 -0.26,-7.69 5.57,-6.71l0.5 5.16c-2.67,1.82 -2.69,2.12 -6.07,1.55zm-4.17 23.17c-1.76,-5.76 -0.25,-7.68 5.57,-6.7l0.5 5.15c-2.67,1.83 -2.69,2.12 -6.07,1.55zm20.58 -28.12c-1.76,-5.76 -0.26,-7.68 5.57,-6.71l0.5 5.16c-2.67,1.82 -2.69,2.12 -6.07,1.55zm-20.83 88.02c-1.77,-5.76 -0.26,-7.68 5.56,-6.71l0.5 5.16c-2.67,1.82 -2.69,2.12 -6.06,1.55zm-2.71 -157.3l0.39 -5.06c1.95,-0.25 0.82,-1.19 5.23,-0.93 1.82,6.06 0.26,4.83 -0.23,5.61l-5.39 0.38zm0.26 199.35l0.39 -5.06c1.95,-0.25 0.82,-1.19 5.23,-0.93 1.82,6.06 0.26,4.83 -0.23,5.61l-5.39 0.38zm24.48 -92.19l0.39 -5.06c1.95,-0.24 0.82,-1.19 5.22,-0.93 1.83,6.06 0.27,4.83 -0.22,5.61l-5.39 0.38zm-10.81 -96.49l0.39 -5.05c1.95,-0.25 0.82,-1.2 5.23,-0.94 1.82,6.07 0.26,4.83 -0.23,5.62l-5.39 0.37zm5.44 19.55c-1.76,-5.76 -0.26,-7.69 5.57,-6.71l0.5 5.16c-2.67,1.82 -2.69,2.12 -6.07,1.55zm3.65 23.43c-1.77,-5.76 -0.26,-7.68 5.56,-6.7l0.51 5.15c-2.68,1.83 -2.7,2.13 -6.07,1.55zm-17.45 -70.05c-1.76,-5.76 -0.26,-7.68 5.57,-6.71l0.5 5.16c-2.67,1.82 -2.69,2.12 -6.07,1.55zm0.06 39.45c-1.27,-3.25 -1.23,-2.05 -0.44,-5.49 0.43,-0.26 -0.19,-1.97 6.09,-0.92l0.01 5.83 -5.66 0.58zm4.16 64.59c-1.26,-3.26 -1.22,-2.05 -0.43,-5.49 0.42,-0.26 -0.19,-1.97 6.08,-0.93l0.01 5.84 -5.66 0.58zm14.59 -0.79c-1.27,-3.25 -1.23,-2.04 -0.44,-5.49 0.43,-0.26 -0.19,-1.96 6.09,-0.92l0.01 5.83 -5.66 0.58zm-2.35 40.63c-1.26,-3.26 -1.23,-2.05 -0.43,-5.49 0.42,-0.26 -0.19,-1.97 6.08,-0.92l0.01 5.83 -5.66 0.58zm-12.03 -81.12c-1.77,-5.76 -0.26,-7.68 5.56,-6.71l0.5 5.16c-2.67,1.83 -2.69,2.12 -6.06,1.55zm-5.21 13.8c-1.76,-5.76 -0.26,-7.68 5.57,-6.7l0.5 5.15c-2.67,1.83 -2.69,2.13 -6.07,1.55zm8.59 45.84c-1.76,-5.76 -0.26,-7.69 5.57,-6.71l0.5 5.16c-2.67,1.82 -2.69,2.12 -6.07,1.55zm-2.96 13.14l0.39 -5.06c1.94,-0.25 0.82,-1.19 5.22,-0.93 1.83,6.06 0.27,4.83 -0.23,5.61l-5.38 0.38zm-5.99 17.19l0.39 -5.06c1.94,-0.25 0.82,-1.2 5.22,-0.94 1.83,6.07 0.27,4.84 -0.22,5.62l-5.39 0.38zm10.51 11.6c-1.76,-5.76 -0.26,-7.69 5.57,-6.71l0.5 5.15c-2.67,1.83 -2.69,2.13 -6.07,1.56zm-4.63 17.57c-1.26,-3.25 -1.22,-2.05 -0.43,-5.49 0.42,-0.26 -0.19,-1.97 6.09,-0.92l0 5.83 -5.66 0.58zm-4.86 18.2l0.38 -5.06c1.95,-0.24 0.83,-1.19 5.23,-0.93 1.82,6.07 0.27,4.83 -0.23,5.62l-5.38 0.37zm-453.45 -152.19c5.76,-1.76 7.68,-0.26 6.71,5.57l-5.16 0.5c-1.82,-2.67 -2.12,-2.69 -1.55,-6.07zm0.21 42.72c1.76,-5.76 0.26,-7.69 -5.57,-6.71l-0.5 5.16c2.67,1.82 2.69,2.12 6.07,1.55zm4.17 23.17c1.76,-5.76 0.26,-7.68 -5.57,-6.7l-0.5 5.15c2.67,1.83 2.69,2.12 6.07,1.55zm-20.58 -28.12c1.76,-5.76 0.26,-7.68 -5.57,-6.71l-0.5 5.16c2.67,1.82 2.7,2.12 6.07,1.55zm20.84 88.02c1.76,-5.76 0.26,-7.68 -5.57,-6.71l-0.5 5.16c2.67,1.82 2.69,2.12 6.07,1.55zm2.7 -157.3l-0.39 -5.06c-1.95,-0.25 -0.82,-1.19 -5.22,-0.93 -1.83,6.06 -0.27,4.83 0.22,5.61l5.39 0.38zm-0.26 199.35l-0.39 -5.06c-1.95,-0.25 -0.82,-1.19 -5.22,-0.93 -1.83,6.06 -0.27,4.83 0.22,5.61l5.39 0.38zm-24.48 -92.19l-0.39 -5.06c-1.95,-0.24 -0.82,-1.19 -5.22,-0.93 -1.83,6.06 -0.27,4.83 0.22,5.61l5.39 0.38zm10.81 -96.49l-0.39 -5.05c-1.95,-0.25 -0.82,-1.2 -5.23,-0.94 -1.82,6.07 -0.26,4.83 0.23,5.62l5.39 0.37zm-5.44 19.55c1.76,-5.76 0.26,-7.69 -5.57,-6.71l-0.5 5.16c2.67,1.82 2.69,2.12 6.07,1.55zm-3.65 23.43c1.77,-5.76 0.26,-7.68 -5.56,-6.7l-0.5 5.15c2.67,1.83 2.69,2.13 6.06,1.55zm17.45 -70.05c1.76,-5.76 0.26,-7.68 -5.57,-6.71l-0.5 5.16c2.67,1.82 2.69,2.12 6.07,1.55zm-0.06 39.45c1.27,-3.25 1.23,-2.05 0.44,-5.49 -0.43,-0.26 0.19,-1.97 -6.09,-0.92l-0.01 5.83 5.66 0.58zm-4.16 64.59c1.26,-3.26 1.22,-2.05 0.43,-5.49 -0.42,-0.26 0.19,-1.97 -6.08,-0.93l-0.01 5.84 5.66 0.58zm-14.59 -0.79c1.27,-3.25 1.23,-2.04 0.44,-5.49 -0.43,-0.26 0.19,-1.96 -6.09,-0.92l-0.01 5.83 5.66 0.58zm2.35 40.63c1.26,-3.26 1.23,-2.05 0.43,-5.49 -0.42,-0.26 0.19,-1.97 -6.08,-0.92l-0.01 5.83 5.66 0.58zm12.03 -81.12c1.77,-5.76 0.26,-7.68 -5.56,-6.71l-0.5 5.16c2.67,1.83 2.69,2.12 6.06,1.55zm5.21 13.8c1.76,-5.76 0.26,-7.68 -5.57,-6.7l-0.5 5.15c2.67,1.83 2.69,2.13 6.07,1.55zm-8.59 45.84c1.76,-5.76 0.26,-7.69 -5.57,-6.71l-0.5 5.16c2.67,1.82 2.69,2.12 6.07,1.55zm2.96 13.14l-0.38 -5.06c-1.95,-0.25 -0.83,-1.19 -5.23,-0.93 -1.82,6.06 -0.27,4.83 0.23,5.61l5.38 0.38zm5.99 17.19l-0.39 -5.06c-1.94,-0.25 -0.82,-1.2 -5.22,-0.94 -1.83,6.07 -0.27,4.84 0.23,5.62l5.38 0.38zm-10.51 11.6c1.76,-5.76 0.26,-7.69 -5.57,-6.71l-0.5 5.15c2.67,1.83 2.69,2.13 6.07,1.56zm4.63 17.57c1.26,-3.25 1.22,-2.05 0.43,-5.49 -0.42,-0.26 0.19,-1.97 -6.08,-0.92l-0.01 5.83 5.66 0.58zm4.86 18.2l-0.38 -5.06c-1.95,-0.24 -0.83,-1.19 -5.23,-0.93 -1.82,6.07 -0.27,4.83 0.23,5.62l5.38 0.37zm232.22 -335.31c5.76,1.76 7.69,0.26 6.71,-5.57l-5.16 -0.5c-1.82,2.67 -2.12,2.69 -1.55,6.07zm-27.6 13.54c5.76,1.77 7.68,0.26 6.71,-5.56l-5.16 -0.5c-1.82,2.67 -2.12,2.69 -1.55,6.06zm32.81 -23.95c5.76,1.76 7.69,0.26 6.71,-5.57l-5.16 -0.5c-1.82,2.67 -2.12,2.69 -1.55,6.07zm-82.81 17.18c5.76,1.76 7.68,0.26 6.71,-5.57l-5.16 -0.5c-1.82,2.67 -2.12,2.7 -1.55,6.07zm156.78 -2.24l5.06 -0.39c0.24,-1.95 1.19,-0.82 0.93,-5.23 -6.06,-1.82 -4.83,-0.26 -5.61,0.23l-0.38 5.39zm-111.85 -16.15l5.06 -0.38c0.25,-1.95 1.19,-0.83 0.93,-5.23 -6.06,-1.82 -4.83,-0.27 -5.61,0.23l-0.38 5.38zm96.49 10.81l5.05 -0.39c0.25,-1.95 1.2,-0.82 0.94,-5.22 -6.07,-1.83 -4.83,-0.27 -5.62,0.22l-0.37 5.39zm-19.55 -5.44c5.76,1.76 7.69,0.26 6.71,-5.57l-5.16 -0.5c-1.82,2.67 -2.12,2.7 -1.55,6.07zm-23.43 -3.64c5.76,1.76 7.68,0.26 6.7,-5.57l-5.15 -0.5c-1.83,2.67 -2.12,2.69 -1.55,6.07zm70.05 17.44c5.76,1.77 7.68,0.26 6.71,-5.56l-5.16 -0.51c-1.82,2.68 -2.12,2.7 -1.55,6.07zm-43.88 -0.57c3.26,1.26 2.05,1.22 5.49,0.43 0.26,-0.42 1.97,0.19 0.93,-6.08l-5.84 -0.01 -0.58 5.66zm-56.25 3.12c3.26,1.26 2.05,1.23 5.49,0.43 0.26,-0.42 1.97,0.2 0.93,-6.08l-5.84 -0.01 -0.58 5.66zm-3.12 -21.35c3.25,1.26 2.04,1.22 5.49,0.43 0.26,-0.42 1.97,0.19 0.92,-6.08l-5.83 -0.01 -0.58 5.66zm-40.63 2.34c3.26,1.26 2.05,1.23 5.49,0.43 0.26,-0.42 1.97,0.2 0.92,-6.08l-5.83 -0.01 -0.58 5.66zm81.12 12.04c5.76,1.76 7.68,0.26 6.71,-5.57l-5.16 -0.5c-1.82,2.67 -2.12,2.69 -1.55,6.07zm-13.8 5.2c5.76,1.77 7.68,0.26 6.7,-5.56l-5.15 -0.5c-1.83,2.67 -2.12,2.69 -1.55,6.06zm-41.67 -8.33c5.76,1.76 7.68,0.26 6.71,-5.57l-5.16 -0.5c-1.82,2.67 -2.12,2.69 -1.55,6.07zm-17.31 2.71l5.06 -0.39c0.25,-1.95 1.19,-0.83 0.93,-5.23 -6.06,-1.82 -4.83,-0.26 -5.61,0.23l-0.38 5.39zm-17.19 5.99l5.06 -0.39c0.25,-1.95 1.2,-0.83 0.94,-5.23 -6.07,-1.82 -4.83,-0.27 -5.62,0.23l-0.38 5.39zm-10.55 -12.86c5.76,1.76 7.68,0.26 6.7,-5.57l-5.15 -0.5c-1.83,2.67 -2.12,2.69 -1.55,6.07zm-18.62 6.97c3.26,1.26 2.05,1.23 5.49,0.43 0.26,-0.42 1.97,0.19 0.92,-6.08l-5.83 -0.01 -0.58 5.66zm-18.2 4.87l5.06 -0.39c0.24,-1.95 1.19,-0.83 0.93,-5.23 -6.07,-1.82 -4.83,-0.26 -5.62,0.23l-0.37 5.39zm173.54 1.18c5.76,1.76 7.68,0.26 6.7,-5.57l-5.15 -0.5c-1.83,2.67 -2.12,2.69 -1.55,6.07zm-327.07 230.97l-0.01 -10.4c0.83,-42.45 11.99,-82.36 31.06,-117.33l0 -0.02c7.57,-13.86 16.38,-26.95 26.29,-39.11l-0.06 3.42c5.39,1.27 5.47,1.1 6.02,-2.97 -3.21,-2.05 -2.19,-1.69 -5.67,-0.82 1.54,-1.88 3.1,-3.75 4.69,-5.58 0.13,0.16 0.29,0.33 0.46,0.52 0.44,0.46 3.89,2.91 4.77,3.67 0.82,6.28 -0.18,7.21 2.21,12.07 8.84,18.01 -6.84,41.65 14.67,76.77 1.29,2.1 1.9,3.46 2.93,4.84 6,8.11 7.08,12.09 15.45,22.41 5.57,6.86 16.63,16.55 25.01,20.65 4.28,2.1 5.13,4.02 8.9,6.34l29.43 16.23c4.85,2.87 3.39,5.62 8.87,5.66 2.83,-5.55 1.12,-5.86 -3.26,-8.01 -3.11,-1.53 -6.07,-3.78 -9.12,-5.04 -10.22,-4.21 -27.01,-15.93 -36.04,-22.64 -3.96,-2.94 -13.14,-11.73 -16.08,-11.83 -2.74,-16.64 -13.91,-19.8 -12.27,-41.34 1.29,-16.81 5.68,-27.33 23.62,-26.12 -0.4,-9.98 -13.16,-8.19 -19.22,-5.24 -2.71,1.32 -2.72,2.2 -4.5,4.17 -3.87,4.29 -4.33,2.42 -5.5,1.17 -3.31,-6.73 2.85,-8.83 -7.08,-10.31 -1.34,7.88 -2.24,6.99 -4.25,13.03 -2.62,7.86 3.05,7.15 0.58,13.25l-2.17 0.25c-1.3,-1.47 -0.43,2.2 -1.7,-3.49 -0.37,-1.64 -0.53,-4.5 -0.61,-6.23 -0.26,-5.94 0.28,-33.83 1.66,-36.99l3.81 -4.26c1.99,-4.44 -2.24,-3.49 7.24,-16.83 2.82,-3.97 8.14,-9.65 11.65,-12.3 4.74,-3.58 9.56,-5.78 14.8,-9.02 5.78,-3.58 10.76,-5.97 18.76,-6.6 21,-1.65 23.79,2.99 36.84,10.95 10.8,6.59 13.8,19.85 12.92,35.89 -1.77,1.83 -2.5,1.45 -3.59,3.81 -1.14,2.45 -0.25,3.08 -1.99,5.81 -4.09,6.41 -16.2,10.71 -22.57,5.55 -4.14,-3.36 -3.85,-6.13 -4.29,-12.3 -3.98,-3.36 -4.79,-6.76 -8.79,-9.38 -2.07,0.64 -2.41,0.84 -3.67,1.71l-0.41 8.07c-3.07,2.04 -2.17,1.69 -5.81,1.94 -5.85,-5.56 -2.16,-13.6 1.37,-18.97l17.18 -0.37c-0.99,-4.69 -3.63,-5 -7.83,-6.26 -8.22,-2.48 -9.33,-9.41 -21.88,4.81 -2.72,3.09 -2.44,4.03 -3.28,7.89 -1.05,4.8 -2.02,3.54 -3.85,7.71 1.04,0.65 2.45,1.31 3.69,2.15 0.83,11.46 1.01,9.83 6.7,16.71 4.41,5.34 8.15,5.22 13.44,10.2 14.6,2.22 10.65,5.63 25.3,-0.52 9.66,-4.06 11.33,-11.25 18.42,-13.6 0.38,10.6 2.57,11.36 5.79,19.13 2.6,6.28 1.15,4.06 5.83,7.33 3.46,2.4 4,3.84 6.77,6.02 3.18,0.12 13.7,-1.79 15.8,-3.23 1.33,-0.91 8.09,-9.96 8.7,-12.04 2.53,-8.58 -13.9,-22.98 -21.98,-10.43l1.34 7.72c6.57,-0.59 10.97,-6.94 9.82,6.34 -2.52,2.26 -5.11,4.92 -10.55,4.62 -2.56,-1.36 -9.15,-4.95 -10.27,-7.28 -7.57,-15.76 -4.59,-32.61 -4.16,-50.54 3.98,-2.25 1.56,0.44 3.65,-3.26 -2.48,-3.41 -5.99,-5.19 -8.69,-8.77 -2.97,-3.93 -6.88,-5.37 -7.98,-9.86 7.68,0.57 14.18,3.26 24.03,1.88 4.67,-0.66 4.41,-2.34 10.64,-1.38 11.58,1.78 22.83,2.07 33.81,-1.69 6.13,-2.1 12.92,-7.55 9.18,-15.23 -6.65,-1.86 -2.72,3.73 -11.98,3.28 -1.91,-10.76 -0.12,-14.97 12.8,-17.18 24.8,-4.23 34.42,12.26 26.07,24.76l-3.45 -0.08c-3.5,-4.44 0.57,-8.39 -6.32,-9.3 -6.3,-0.84 -8.04,1.27 -10.23,5.3 2.44,8.63 10.24,12.64 21.44,11.84 3.3,-3.22 9.01,-9.71 9.26,-15.07 0.53,-11.31 -5.34,-8.79 -7.2,-18.76 -5.96,-1.32 -9.17,-4.55 -13.19,-5.06 -24.69,-3.11 -31.28,4.57 -48.98,18.29 -3.32,2.57 -2.72,3.26 -6.69,5.23 -15.4,7.65 -8.83,8.27 -29.14,8.64 -3.25,-2.64 -26.51,-9.16 -32.64,-9.26 -7.72,-0.12 -4.96,4.24 -11.7,0.74 -0.6,-7.17 6.66,-9.06 3.18,-19.42l-4.91 0.64c-1.49,2.74 -1,4.58 -2.86,7.04 -7.4,-1.28 -3.22,-4.49 -13.23,-4.48 -1.88,24.48 -2.5,16.68 -18.6,26.94 -6.45,4.11 -13.12,9.79 -17.46,16.37 -3.33,5.05 1.21,6.08 -5.07,6.73 -2.12,-3.73 0.88,-6.67 1.55,-11.39 1.05,-7.31 1.08,-11.82 0.2,-15.51 6.38,-5.67 13.04,-11.04 19.97,-16.06l-0.31 8.04c7.19,0.07 7.37,-2.3 6.03,-8.6l-4.96 0c2.34,-1.68 4.7,-3.32 7.1,-4.93l5.39 0.36c0,0 1.57,-2.56 0.9,-4.43 2.94,-1.85 5.92,-3.65 8.95,-5.38l-0.02 0c3.22,-1.84 6.48,-3.62 9.78,-5.32 -0.11,0.21 -0.17,0.43 -0.39,0.58l-0.38 5.38 5.06 -0.38c0.25,-1.95 1.19,-0.83 0.93,-5.23 -2.27,-0.68 -3.51,-0.89 -4.23,-0.86 34.9,-17.83 74.42,-27.88 116.29,-27.88 42.19,0 82,10.22 117.09,28.3l0.02 0c5.79,2.99 11.45,6.19 16.97,9.59 -0.78,1.21 -0.75,3.15 0.66,6.02 3.49,2.32 5.71,1.34 8.27,-0.27 1.17,0.79 2.32,1.6 3.47,2.4 -0.78,1.79 -1.28,3.59 -1.36,5.32 -1.41,31.31 4.81,29.53 7.98,38.24 3.78,10.39 18.85,16.27 20.59,24.53 -6.04,-1.09 -9.34,-5.22 -15.81,-7.6 -17.67,-6.49 -20.06,-8.45 -39.48,-10.57 -13.22,-1.44 -29.89,-3.55 -39.09,-10.86 -15.5,-12.32 -15.19,-17.61 -14.48,-33.68 0.46,-10.32 6.79,-8.04 8.62,-16.04 -14.3,-3.75 -19,16.44 -18.1,26.85l5.36 20.72c-14.57,13.28 -25.61,-1.85 -43.71,2.02 2.34,9.5 7.29,2.55 13.76,4.15 6.39,1.59 7.76,2.26 15.83,3.57 6.56,1.06 9.02,3.17 14.04,5.73 8.39,4.26 10.94,-1.75 10.87,9.6 5.58,-0.8 39.25,-17.61 41.11,-6.03 -10.95,0.95 -17.59,3.98 -26.63,7.26 -14.06,5.11 -14.78,2.22 -29.52,3.89 -3.05,3.2 -5.56,4.91 -6.96,9.58 3.69,1.07 7.3,2.22 9.15,5.06 -15.82,6.14 -15.9,-6.89 -18.5,-10.84 -13.21,-0.41 -4.72,13.92 -0.99,18.11 4.82,5.41 8.77,3.14 16.32,4.29 -1.01,6.21 -4.84,11.07 -6.23,19.83 -2.45,15.31 0.13,30.79 8.05,43.58 3.44,5.55 9.33,8.39 13.83,12.34 11.72,10.32 42.5,12.63 51.69,4.91 7.65,-6.42 22.19,1.36 23.81,10.97 -8.08,0.19 -1.62,-2.13 -10.14,-2.6 -8.07,19.43 12.91,13.48 13.47,13.2 8.06,-4.02 4.38,-16.2 -0.48,-21.16 -4.82,-4.92 -15.56,-9.64 -21.76,-4.66 -1.32,-6.89 5.62,-10.82 7.35,-17.05 5.21,-18.7 -7.65,-21.79 13.72,-37.54 9.52,-7.02 10.74,-22.76 2.17,-15.28 -2.77,2.42 -6.43,5.59 -6.58,-0.96 -0.05,-2.62 0.65,-2.8 1.24,-4.39 1.22,-3.28 0.77,-5.38 2.27,-8.59 4.32,-9.26 10.41,-1.7 9.6,-10.94l-7.44 -0.94c-7.56,7.61 -14.95,12.29 -19.73,22.64 -7.58,16.43 0.1,24.82 -2.18,39.13 -4.62,-4.68 -5.63,-10.23 -10.71,-15.27 -5.35,-5.3 -8.7,-5.92 -13.96,-11.77 -6.37,-0.54 -15.93,-3.03 -20.75,-2.27 -5.84,0.93 -13.03,5.56 -12.77,10.33 7.24,-0.23 19.58,-2.81 23.23,5.99 -1.86,2.54 -2.77,2.33 -6.02,3.35 -12.44,3.89 8.33,12.12 15.31,10.05 4.38,-1.3 7.66,-2.41 13.29,-0.78 7.28,2.1 15.15,8.16 11.32,16.64 -0.88,1.93 -3.9,9.52 -4.69,10.58 -5.63,7.55 -17.33,6.09 -22.13,7.22 -8.72,2.06 -13.49,1.2 -22.26,-3.39 -0.91,-0.47 -15.01,-13.83 -15.21,-14.13 -2.36,-3.56 -7.82,-17.22 -7.85,-21.91 -0.11,-15.51 3.01,-34.73 13.27,-45.89 24.46,-26.6 12.64,-10.49 36.9,-21.68 3.45,-1.59 19.92,-4.16 24.37,-3.01 7.72,2 15.73,2.44 22.83,6.22 12.2,6.51 -1.39,-5.97 20.18,9.19 5.23,3.67 11.38,9.55 14.68,14.74 7.48,11.75 15.19,32.71 13.14,45.86l-1.78 21.66c-0.59,4.43 -0.17,3.16 -2.9,4.7 -1.36,-1.44 -1.34,-0.03 -1.73,-3.61 -0.25,-2.29 0.3,-2.33 -0.39,-5.21 -0.67,-2.83 -1.66,-5.38 -4.41,-7.01 -0.92,0.98 -0.65,0.34 -1.54,1.99 -1.63,3.03 -2.55,5.77 -6.8,3.49 -3.33,-1.8 -6.96,-4.99 -8.96,-7.34 -8.03,-0.19 -11.64,-1.38 -16.27,3.27 1.45,5.76 4.63,3.82 10.74,4.34 4.18,4.33 9.67,8.84 9.91,17.36 0.54,18.51 -2.48,26.22 -11.19,41.2 -4.16,7.15 -10.28,10.76 -10.59,17.53l7.99 0.37c2.97,-4.12 6.56,-6.8 9.72,-10.8l22.02 -29.06c2.22,-3.14 12,-35.13 12.71,-39.15 2.35,-13.16 -1.79,-30.35 -1.13,-38.75 -5.3,-5.45 -2.44,-5.57 -5.53,-12.1 -1.63,-3.46 -4.34,-6.87 -6.21,-11.17 -2.05,-4.71 -1.18,-8.98 -3.76,-13.67 -2.92,-5.33 -6.24,-4.45 -10.29,-8.24 -5.77,-5.42 -3.17,-4.36 -5,-12.3 -1.51,-6.53 -4.95,-4.33 -2.5,-13.49 3.15,-11.77 -1.31,-22.67 -10.29,-24.39l-0.82 7.82c-13.19,4.19 -10.47,-10.03 -6.72,-17.39 18.01,13.66 34.14,29.65 47.97,47.52 -1.15,-0.86 -2.8,-0.48 -4.93,0.77 -2.53,6.03 2.53,5.63 6.77,4.46 -0.14,-1.74 -0.43,-3.04 -0.86,-3.96 3.19,4.17 6.26,8.44 9.19,12.81l0.05 0.12 0.04 0.02c4.57,6.83 8.83,13.89 12.74,21.16l0 -0.01c19.41,36.07 30.44,77.32 30.44,121.16 0,43.64 -10.93,84.73 -30.19,120.68l-0.17 0.31 -0.5 0.94 -0.17 0.31 -0.17 0.31 -0.17 0.31 -0.17 0.31 -0.02 0.04 0 0c-2.73,4.96 -5.61,9.82 -8.65,14.57l0.01 -0.51c-5.55,-1.51 -6.27,-1.8 -7.33,3.15 2.61,1.18 2.96,1.63 4.91,1.03 -5.18,7.8 -10.77,15.31 -16.76,22.48 1.03,-31.78 5.5,-17.7 6.58,-28.17 1.98,-19.21 -6.32,-39.87 -19.77,-48.77 -18.24,-12.07 -27.97,-11.32 -32.37,-13.13 0.81,-2.38 -2.07,-1.54 2.41,-2.9 6.13,-1.85 31.3,11.2 47.48,8.91 2.2,-0.31 12.33,-4.7 13.9,-6.12 -1.91,-5.78 -5.89,-2.8 -11.46,-4.48 -0.24,-5.58 2.18,-4.55 5.12,-8.74 2.28,-3.25 1.74,-5.41 4.65,-9.5 2.32,-3.25 2.92,-6.89 2.1,-12.12 -0.71,-4.54 -2.01,-5.78 -6.35,-6.17 -1.15,4.55 0.72,6.57 0.82,10.57 -4.05,7.32 -16.83,16.93 -27.38,18.88 -9.19,1.7 -8.57,3.51 -19.34,3.72 -19.57,0.39 -23.75,-1.99 -26.74,5.37 -4.8,0.02 -33.39,-0.08 -33.21,7.89 0.11,4.43 3.81,4.18 8.27,4.96 30.78,5.32 18.31,25.92 18.2,27.4l5.79 0.59c1.24,-1.56 3.88,-7.11 4.33,-8.64 1.28,-4.28 -0.73,-5.4 -0.51,-10.16 6.53,-5.82 5.22,-1.13 13.85,-2.25 -0.46,-5.82 -12.73,-10.2 -18.67,-11.46 -2.16,-0.46 -3.13,-0.15 -5.04,-0.38 -5.23,-0.64 -1.31,0.05 -3.34,-1.13 3.91,-2.42 18.03,-1.55 22.07,0.01l24.87 10.77c10.49,6.89 10.19,6.55 17.91,17.95 14.05,20.78 1.88,44.69 -16.89,42.61 -7.09,-0.79 -10.01,-5.38 -14.16,-9.1l0.02 -10.4c9.38,-0.9 15.84,5.39 20.74,-0.75 2.38,-4.83 -0.76,-9 -3.43,-11.87 -3.48,-3.72 -5.84,-5.12 -12.97,-4.92 -3.33,2.32 -1.48,1.39 -4.35,4.53 -7.24,-0.48 -3.87,-1.2 -10.78,1.38 -0.79,23.57 -0.24,34.71 23.12,38.7 9.64,1.65 8.99,-2.56 15.56,-2.6 0.27,4.54 -5.17,9.82 -10.01,16.59 -3.32,4.64 -5.34,11.61 -5.66,18.62 -2.33,2.12 -4.71,4.18 -7.12,6.21 -0.87,-0.22 -1.89,-0.35 -3.08,-0.35 -0.14,1.27 -0.17,2.21 -0.11,3 -5.93,4.84 -12.08,9.43 -18.44,13.73 -0.49,-0.06 -1.03,-0.09 -1.62,-0.07l0.05 1.11c-2.36,1.56 -4.74,3.1 -7.15,4.59 0.9,-5.68 -1.04,-7.13 -6.74,-5.39 -0.57,3.38 -0.27,3.4 1.55,6.07l4.84 -0.47c-2.43,1.5 -4.88,2.96 -7.36,4.38l0 0 -0.21 0.12 -0.18 0.11 -0.19 0.1 -0.18 0.1 -0.18 0.11 -0.18 0.1 -0.19 0.1 -0.18 0.11 -0.18 0.1 -0.09 0.05 -0.1 0.05 -0.18 0.1 -1.28 0.72 -0.19 0.1 -0.01 0.01 -0.17 0.09 -0.55 0.3 -0.01 0c-36.4,19.89 -78.15,31.2 -122.55,31.2 -43.68,0 -84.79,-10.95 -120.77,-30.24l-0.01 0c-6.22,-3.34 -12.3,-6.92 -18.2,-10.75 1.78,-4.94 1.67,-8 -5.7,-7.47 -0.75,1.06 -1.19,1.84 -1.45,2.66 -2.86,-1.99 -5.67,-4.03 -8.44,-6.13 2.58,-0.8 2.93,-2.93 2.54,-7.93l-6.46 0.88c-0.74,1.38 -1.16,2.23 -1.35,2.94 -1.64,-1.31 -3.26,-2.64 -4.87,-3.99 2.43,-6.94 3.89,-15.56 -3.89,-14.53 -1.06,3.58 -1.19,6.62 -1.75,9.64 -1.94,-1.73 -3.85,-3.48 -5.74,-5.27l0.15 -4.69 -5.05 -0.07c-7.06,-7.06 -13.71,-14.53 -19.91,-22.38l0.44 -2.99c-1.27,-0.42 -2.42,-0.72 -3.42,-0.86 -3.09,-4.06 -6.06,-8.21 -8.91,-12.46l1.04 -4.06c-2.63,-1.37 -3.08,-1.6 -4.52,-1.28 -3.1,-4.89 -6.06,-9.88 -8.83,-14.99l0 -0.03c-18.91,-34.81 -29.97,-74.49 -30.83,-116.68zm441.38 -26.05c2.92,-1.31 2.26,0.2 3.68,-4.32 3.07,-9.76 5.71,-10.73 5.91,-13.75 -4.93,-0.49 -4.39,2.89 -6.27,7.75 -1.79,4.65 -4.21,4.76 -3.32,10.32zm-173.67 36.69c-0.53,3.93 -0.07,0.59 -2.07,1.62 -1.28,-1.77 -1.4,2.04 -0.7,-2.29 0.51,-3.2 0.03,-0.51 1.79,-1.67 1.46,2.25 1.64,-2.48 0.98,2.34zm-9.75 -3.02l-1.02 4.54 -3.51 -0.06 -0.05 -4.87 4.58 0.39zm-38.89 -1.16c4.24,-1.67 5.53,0.88 4.97,5.56l-5.85 -0.43c-0.55,-4.18 -0.94,-2.17 0.88,-5.13zm45.43 -5.5c-4.93,0.09 -5.65,-1.26 -4.68,-5.49 1.02,-0.53 -0.67,-0.25 2.5,-0.93 1.31,-0.29 0.77,0 2.23,0.13l-0.05 6.29zm-14.08 -6.08c-0.73,-1.12 -1.87,0.83 -1.14,-6.93 7.09,0.13 7.97,6.27 1.14,6.93zm3.9 -16.1c4.77,-1.66 6.66,0.65 5.2,5.24 -3.64,2.38 -6.75,-0.21 -5.2,-5.24zm-13.37 -10.58c2.69,-2.47 2.47,-5.78 8.18,-4.9 0.84,6.02 -3.5,5.89 -5.6,10.11 -6.74,13.52 -0.62,34.88 -1.06,40.37 -9.33,0.94 -9.39,-9.39 -19.5,-16.85l0.12 -11.37c6.86,-0.31 7.72,1.03 11.07,-6.22 5.12,-11.06 0.21,-4.28 -0.05,-13.26 6.45,0 2.07,0.16 6.84,2.12zm3.2 -13.48c-6.21,1.65 -6.06,-2.15 -3.88,-5.98l4.6 0.31c0.74,3.63 0.92,2.91 -0.72,5.67zm-38.22 66.67c27.01,-3.23 20.15,-1.52 45.57,-2.03l26.91 -1.07c0.44,-6.72 0.06,0.95 -4.02,-10.84 -7.12,-20.59 -27.3,-65.72 -29.13,-80.36 -5.39,0.47 -2.89,-1.4 -4.45,3.26l-17.11 42.87c-4.73,9.09 -11.56,30.76 -14.46,36.65 -2,4.07 -4.98,6.23 -3.31,11.52zm126.33 191.12l3.31 0.05 0.44 3.38 -2.96 0.16 -0.79 -3.59zm37.96 1.61c0.65,-3.95 1.41,-4.21 5.24,-2.18 -0.77,4.02 -1.36,4.17 -5.24,2.18zm-40.87 5.46l0.44 -0.02 -0.04 0.07 -0.4 -0.05zm17.56 -1.82c1.4,-0.2 2.45,-0.21 3.35,-0.11 -1.21,0.04 -2.33,0.07 -3.35,0.11zm-157.62 -4.73l-6.99 0.22c0.33,-3.07 0.25,-3.91 2.98,-4.2 3.77,-0.41 3.89,1.04 4.01,3.98zm108.19 0.87c0.01,-4.62 0.97,-5.3 5.72,-4.6 0.24,4.42 -0.97,5.45 -5.72,4.6zm-28.23 -7.49c3.26,-1.26 2.05,-1.23 5.49,-0.43 0.26,0.42 1.97,-0.19 0.92,6.08l-5.83 0.01 -0.58 -5.66zm-121.19 -1.06c1.89,-1.09 -2.18,-0.64 2.34,-0.99 1.83,-0.14 1.37,0.07 2.96,0.33 2.08,6.36 1.08,7.42 -5.03,7.22 -1.05,-3.32 -1.72,-3.66 -0.27,-6.56zm169.54 -1.08l5.09 -0.66c1.73,4.23 1.07,4.35 0.74,8.77 -4.05,-1.07 -4.03,-1.47 -6.5,-3.61l0.67 -4.5zm-85.18 5.08c-0.21,-3.9 -0.12,-4.5 1.69,-7.27 9.63,-0.43 7.27,9.06 -1.69,7.27zm-106.73 -4.02c1.25,-0.57 -0.95,-1.26 3.99,-1.56 2.17,-0.13 2.28,0.26 4.25,0.74 1.08,6.02 -0.11,7.11 -7.26,6.11l-0.98 -5.29zm41.35 1.25c1.7,-3.03 1.1,-2.57 4.01,-4.2 3.32,1.35 4.39,2.47 4.54,6.69 -2.19,1.44 -2.36,1.72 -6.13,2.13l-2.42 -4.62zm82.15 -4.29l3.18 -4.49c6.42,2.07 7.85,9.66 -1.04,9.67l-2.14 -5.18zm-27.04 -3.29c9.96,1.32 2.86,10.6 -1.28,5.52 -1.08,-2.99 -1.06,-2.66 1.28,-5.52zm81.91 3.16c1.1,-4.07 0.2,-3.13 3.98,-4.77 2.86,1.58 1.23,-0.72 3.06,2.84 0.91,1.76 0.93,3.07 1.06,5.07 -6.17,1.35 -5.64,0.55 -8.1,-3.14zm87.26 -6.53c1.7,-3.18 0.74,-2.26 3.7,-4.21 2.43,1.02 4.47,2.03 4.43,5.29 -0.05,5.28 0.21,0.24 -0.88,2.52 -5.77,2.73 -5.23,0.58 -7.25,-3.6zm-132.18 -1.11c4.65,-1.19 5.46,-1.41 7.64,2.2 -1.51,3.45 -0.81,2.77 -4.7,4.26 -2.56,-2.56 -2.81,-1.69 -2.94,-6.46zm96.99 -2.4l0.89 5.28 -4.64 -0.48c-1.15,-3.55 -0.33,-3.91 3.75,-4.8zm-177.83 -1.78l4.87 -0.17c1.83,2.92 2.06,2.63 1.58,7.22l-6.09 0.77 -0.36 -7.82zm-21.38 7.18c-3.19,-9.16 8.83,-8.86 5.73,-0.61 -2.4,1.47 2.8,0.84 -2.47,1.13 -2.88,0.15 -1.34,-0.07 -3.26,-0.52zm56.09 -7.41l5.05 0.39c0.25,1.94 1.2,0.82 0.94,5.22 -6.07,1.83 -4.83,0.27 -5.62,-0.22l-0.37 -5.39zm-80.06 1.05l7.86 0.81c0.05,5.91 -0.61,6.25 -6.48,6.62 -1.63,-2.44 -2.35,-4.25 -1.38,-7.43zm116.71 0.13c-0.38,4.01 2.1,2.14 -1.93,3.82 -1.84,0.77 -3.57,-0.08 -4.21,-1.23 -1.8,-3.22 2.43,-4.53 6.14,-2.59zm114.92 -3.35c3.83,0.67 2.98,-0.02 4.69,3.35 -1.64,2.89 -1.16,2.74 -4.69,2.92 -2.74,-3.35 -2.28,-3.58 0,-6.27zm-253.68 -1.49c3.99,-0.96 3.48,-0.5 5.94,1.57l-0.27 5.06c-6.22,0.61 -6.61,-0.87 -5.67,-6.63zm295.58 -2.9l5.93 -0.09 0.6 8.21 -5.94 -0.38 -0.59 -7.74zm-48.66 -5.11l0.27 5.93c-10.42,1.13 -8.25,-9.17 -0.27,-5.93zm59.72 -1.25l5.72 -0.53 0.16 5.92 -5.22 -0.11 -0.66 -5.28zm-26.03 7.05l-0.13 -4.91c0.98,-0.35 -0.57,-0.93 2.67,-0.9 5.39,0.06 1.63,0.14 3.09,1.11 2.16,4.57 -1.05,4.57 -5.63,4.7zm-24.24 -3.83c5.16,-14.57 25.52,8.08 15.54,17.17l-7.26 5.78c-2.08,1.82 -8.09,6.77 -10.09,7.24 -6.12,1.44 -25.98,-1.36 -31.22,-3.03 -7.87,-2.51 -5.98,-2.31 -10.5,-6.99 -6.45,-6.68 -15.72,-11.36 -24.99,-6.67 -3.51,1.77 -3.53,5.71 -9.42,8.75 -0.66,-16.18 12.58,-18.76 24.93,-22.35 9.5,-2.77 19.04,-1.64 27.93,2.86 3.67,1.85 5.07,2.5 5.06,7.03 -6.13,2.71 -9,0.55 -8.48,8.68 4.16,10.38 37.63,4.1 36.95,-8.68 -0.17,-3.16 -4.38,-5.02 -8.45,-9.79zm-237.88 -2.93c3.42,10.58 -7.01,8.65 -7.09,4 -0.06,-3.37 3.19,-4.51 7.09,-4zm51.77 4.81l-0.55 -7.15c10.98,-1.87 9.09,8.79 0.55,7.15zm-37.29 2.44c-3.2,-11.12 3.85,-9.04 5.4,-7.63 0.03,0.03 3.37,1.34 0.03,5.46 -1.25,1.54 -3.02,1.84 -5.43,2.17zm24.92 -9.75c1.9,3.36 1.3,3.42 0.32,6.79 -10.01,-0.42 -5.16,-8.36 -0.32,-6.79zm123.13 2.01c-2.89,-9.45 2.82,-11.68 5.01,-3.1 -1.63,2.28 -1.43,2.66 -5.01,3.1zm-99.9 -7.66l-0.87 -5.49 7.1 0.09c-0.16,5.14 -1.11,5.93 -6.23,5.4zm66.99 -14.79c5.74,0.03 8.62,1.24 5.64,6.46 -3.23,1.46 -2.25,1.04 -5.48,-0.11l-0.16 -6.35zm164.88 5.22c0.76,-2.21 -0.41,-3.1 3.64,-2.94 3.25,0.12 2.97,1.25 2.78,3.31 -1.07,0.63 1.96,1.39 -2.7,1.26 -6.37,-0.18 -1.87,-0.26 -3.72,-1.63zm-348.52 -5.45c1.61,1.86 1.96,2.04 1.93,5.22 -3.2,1.45 -3.74,2.15 -7.36,0.13 -2.25,-4.75 0.9,-5.86 5.43,-5.35zm222.91 5.56l-0.05 -5.41 5.66 0.61c-0.78,4.09 -1.42,4.59 -5.61,4.8zm-96.16 -6.81c4.93,0.31 4.78,-0.13 6.33,3.43 -4.41,4.82 -4.63,1.62 -5.14,1.41l-1.19 -4.84zm206.28 2.69c4.66,-2.68 14.56,-6.04 9.74,2.93 -5.47,0.35 -5.86,-1.29 -9.74,-2.93zm-218.75 -4.68l6.12 -0.25c-0.02,8.82 -5.68,7.29 -6.12,0.25zm121.2 -7.13c0.74,4 1.05,2.08 -0.64,4.95l-3.17 0.05c0.54,-3.7 0.89,-4.13 3.81,-5zm-134.34 2.77l-0.02 -4.4c5.35,-0.87 8.5,-1.18 8.14,4.95 -3.95,1.93 -4.76,2 -8.12,-0.55zm-79.91 -2.17c2.19,-2.28 1.84,-2.12 5.43,-1.74 -0.05,2.5 -0.07,3.77 -2.08,4.36 -3.76,1.09 -2.58,-1.57 -3.35,-2.62zm304.89 -4.35l1.11 5.11 -6.46 0.54c-1.33,-4.85 -1,-8.51 5.35,-5.65zm-148.56 2.17l2.65 -4.19c4.58,1.42 5.51,3.44 3.94,7.89 -6.82,1.75 -4.04,-0.36 -6.59,-3.7zm-203.31 -7.28c4.49,-1.96 6.16,-0.62 7.04,4.02 -4.14,5.91 -8.05,5.1 -7.04,-4.02zm192.48 5.85c-1.32,-4.77 -1.51,-4.21 0.13,-8.92l5.75 1.7c0.68,5.95 -0.03,8.29 -5.88,7.22zm-34.82 -9.12c3.21,0 5.86,0.9 6.24,4.15 0.53,4.64 -0.82,2.99 -1.03,3.36 -4.11,1.13 -6.35,-2.59 -5.21,-7.51zm231.23 0.07l2.78 -0.04 0.24 4.5c-3.7,-0.09 -5.32,-0.82 -3.02,-4.46zm-338.79 -0.81l0.47 4.38c-10.04,4.47 -10.71,-8.21 -0.47,-4.38zm324.36 0.13c5.29,-0.3 7.54,-0.97 6.34,4.1 -0.02,0.01 -1.7,2.12 -4.56,0.39 -2.17,-1.31 -1.42,-1.88 -1.78,-4.49zm-251.8 3.58c-1.31,-17.65 15.3,4.58 0,0zm218.16 -9.97l6.84 0.71c2.45,5.81 -0.96,9.36 -4.85,5.38 -1.6,-1.64 -1.95,-3.2 -1.99,-6.09zm-279.19 7.74c-4.5,-1.98 -6.41,-8.35 -1.08,-8.74 4.41,-0.33 7.6,5.68 1.08,8.74zm133.75 -10.91c4.87,-1.92 5.88,0.84 5.01,6.2l-5.72 0.28c-0.74,-4.66 -1.16,-3.53 0.71,-6.48zm-46.12 7.37l-0.77 -6.1c4.54,-0.63 2.66,-0.99 5.91,0.59l0.64 4.51 -5.78 1zm12.82 -5.92c3.23,-1.65 1.85,-1.82 5.23,-0.58 0.19,0.41 1.89,-0.42 0.27,5.02 -0.02,0.01 -5.14,3.72 -5.5,-4.44zm232.38 2.87l-0.37 -5.47 6.28 0.33c-0.01,4.58 -1.27,5.32 -5.91,5.14zm-195.91 31.45c-6.59,0.26 -12.29,-3.74 -17.88,-5.77 -4.69,-1.7 -7.37,-0.43 -12.6,-11.45 7,-7.41 4.24,3 9.05,-12.8 1.46,-4.8 5.74,-9.1 12.57,-6.77 -0.59,7.88 -10.87,7.01 -3.8,20.34 1.7,3.21 3.02,5.68 5.78,8.36 3.28,3.19 6.05,3.46 6.88,8.09zm-145.77 -42.11l0.2 8.11c-9.91,0.56 -8.7,-8.62 -0.2,-8.11zm-18.34 0.97c4.77,-2.25 6.39,1.74 5.2,6.23 -5.5,0.83 -7.93,-1.37 -5.2,-6.23zm295.67 3.34c-0.21,-2.85 -2.08,-4.17 5.5,-7.98 5.82,3.5 0.41,2.57 9.27,4.11 -0.24,3.73 -0.46,3.1 -4.68,3.65 -4.26,0.56 -5.66,0.9 -10.09,0.22zm-333.12 -0.66l-0.2 -4.87c3.46,-1.79 3.59,-1.28 5.76,-0.8 0.71,5.06 -0.45,6.49 -5.56,5.67zm173.7 -0.8l-0.21 -4.01c3.6,-1.15 5.47,-1.57 5.95,2.81 -1.74,1.16 -2.66,1.52 -5.74,1.2zm-28.02 -3.54l5.74 -0.81c-0.07,7.09 -5.34,6.14 -5.74,0.81zm-82.68 3.35c-0.25,-3.25 1.18,-5.99 4.26,-6.74 7.32,-1.81 5.1,11.95 -4.26,6.74zm355.26 -0.88c-0.62,-6.18 1.23,-7.2 6.05,-4.99 0.25,4.79 -1.25,5.6 -6.05,4.99zm-180.1 -4.76c0.75,13.17 -14.18,-3.19 0,0zm-240.87 -1.05l-0.24 6.44c-2.44,-0.52 -4.3,-1.06 -5.77,-1.96 -0.43,-5.43 1.45,-5.52 6.01,-4.48zm33.65 -0.33l0.67 4.72c-8.06,2.13 -8.04,-8.78 -0.67,-4.72zm315.38 -0.27c-0.62,-3.78 -0.77,-0.76 -0.23,-2.83 0.06,-0.25 0.25,-0.8 0.32,-1.03l4.25 -1.61c0.3,0.02 2.92,0.72 3.58,0.9 5.72,1.58 3.92,-0.04 4.24,5.18l-12.16 -0.61zm-157.67 0.11c0.18,-6.14 2.99,-7.18 6.57,-3.21 -1.58,3.52 -2.18,3.18 -6.57,3.21zm201.04 -5.33l7.26 -0.13c0.48,4.58 0.6,2.08 -0.65,4.49 -3.84,1.91 -6.16,0.17 -6.61,-4.36zm-313.47 -2.55c3.21,-1.44 1.63,-1.08 5.71,-0.7l0.04 6.31c-5.44,0.92 -7.6,-1.17 -5.75,-5.61zm163.06 -6.62c5.58,1.06 6.55,2.14 5.64,8.96 -9.61,1.83 -7.78,-3.39 -5.64,-8.96zm-57.32 2.67c8.5,-0.04 6.03,7.07 0.94,5.73 -1.1,-1.76 -0.69,2.16 -1.21,-2.53 -0.24,-2.14 -0.08,-1.2 0.27,-3.2zm147.41 -0.57l6.73 -0.44 0.27 5.07c-4.17,1.77 -8.98,1.92 -7,-4.63zm94.5 -0.32c4.58,-2.65 6.06,-1.28 6.16,4.4 -4.23,-0.22 -5.58,-0.22 -6.16,-4.4zm-426.18 -4.18c4.22,0.12 6.14,2.3 5.87,6.99 -3.03,1.28 -2.03,1.67 -5.41,0.47 -1.52,-3.18 -1.29,-3.24 -0.46,-7.46zm415.47 1.53c0.37,-0.04 1.82,-2.11 4.52,-0.63 2.02,1.11 1.43,2.96 1.38,5.41l-5.78 -0.78 -0.12 -4zm-36.88 0.2c2.24,-3.6 2.96,-4.78 7.53,-1.76l0.56 4.84c-7.67,3.2 -6.82,-0.92 -8.09,-3.08zm-10.47 -6.16c9.46,0.53 6.78,11.45 -2.88,5.84 -0.26,-3.9 0.68,-4.12 2.88,-5.84zm-318.31 2.9c2.24,-3.36 2.32,-4.3 6.84,-2.69 1.6,3.41 1.58,3.33 0.08,7.59 -4.84,0.5 -6.46,-0.44 -6.92,-4.9zm203.26 -3.94l5.39 -0.88 0.15 7.08 -5.14 -0.49 -0.4 -5.71zm-217.2 2.19l4.66 -1.54 0.45 6.33c-4.54,-0.35 -4.77,-0.74 -5.11,-4.79zm51.37 4.31c-0.49,-4.39 0.04,-7.23 4.49,-7.58 1.65,3.34 1.34,8.96 -4.49,7.58zm235.17 -3.78l-0.28 -5.34c3.94,0.35 4.23,-0.1 5.53,3.3 -2.31,2.74 -0.38,2.02 -5.25,2.04zm-87.73 -1.09c-0.81,-7.35 2.11,-7.4 8.9,-7.98l-0.41 6.17c-2.81,1.94 -4.01,2.66 -8.49,1.81zm182.68 -0.17c-2.23,-4.49 -0.96,-1.3 0.75,-3.96l1.14 -2.18c2.09,-4.91 -0.14,-1.76 2.13,-4.06 1.52,0.12 7.23,2.88 5.15,7.7 -13.99,2.13 -3.62,0.47 -9.17,2.5zm-236.37 -8.29l5.78 -0.18 -0.15 6.44 -4.69 -0.11c-1.43,-2.84 -0.55,1.99 -1.16,-2.99 -0.24,-2.03 -0.04,-1.32 0.22,-3.16zm-118.46 -1.29c2.34,-0.15 2.97,-1.22 4.85,0.88 0.63,0.71 0.81,1.83 0.85,2.66 0.28,5.14 0.04,0.49 -0.74,2.53 -0.21,0.08 -1.49,2.4 -3.98,-0.05 -1.85,-1.82 -1.21,-3.6 -0.98,-6.02zm347.99 -1.09c4.38,1.64 4.63,1.49 4.62,6.81l-8.5 -1.36c0.19,-4.35 1.02,-4.09 3.88,-5.45zm-314.21 -5.12c4.1,6.45 0.64,5.75 0,6.58 -2.71,-0.84 -3.16,0.95 -3.03,-3.31 0.08,-2.67 1.06,-2.53 3.03,-3.27zm149.58 -0.4c5.18,0.03 5.92,1.38 5.82,6.1l-6.13 -0.47 0.31 -5.63zm-251.5 0.61c1.73,0.02 2.49,-0.66 4.12,0.75 0.88,0.75 0.86,-0.77 1.17,2.13 0.49,4.51 -3.03,3.78 -5.93,2.39 -0.89,-3.24 -0.85,-2.12 0.64,-5.27zm151.66 -2.32c5.87,-1.1 7.2,0.93 7.55,5.94l-7.11 0.48 -0.44 -6.42zm40.45 -2.38c1.52,5.37 0.35,9.1 -6.09,6.05 -1.39,-5.88 0.43,-6.79 6.09,-6.05zm-25.15 -1.22c6.27,-0.04 7.82,2.92 4.84,8.01 -6.86,3.12 -6.51,-3.15 -4.84,-8.01zm33.08 7.28c0.29,-4.29 4.9,-10.9 8.23,-5.77 3.36,5.15 -2.17,9.11 -8.23,5.77zm39.21 -9.27c1.88,2.03 2.32,2.25 3.08,5.31 -1.77,1.52 -5.95,5.38 -8.38,1.66 -3.63,-5.55 1.14,-6.89 5.3,-6.97zm-167.43 1.33c5.09,-0.95 6.03,-0.42 5.6,4.58 -4.45,1.44 -6.18,0.33 -5.6,-4.58zm-5.04 -7.84c0.72,8.93 -1.53,16.96 -9.65,20.3 -4.06,1.67 -2.93,1.78 -6.31,4.07 -6.02,2.07 -16.94,-1.69 -21.61,-6.03l0.01 -6.07c7.03,-0.68 17.67,14.56 19.58,-4.1 -5.95,0.94 -8.13,1.67 -14.21,0.32 -1.76,-8.73 0.11,-4.31 5.12,-7.72 2.96,-2.02 2.91,-4.93 6.95,-6.17 8.7,-2.66 16.72,1.1 20.12,5.4zm156.72 2.04c2.83,-2.24 2.71,-0.77 3.7,0 -2.81,1.98 4.04,1.37 -1.49,0.89 -2.3,-0.2 -0.75,0.1 -2.21,-0.89zm-28.87 1.81l-0.19 -4.51c7.65,0.02 4.8,4.29 2.95,4.52 -1.72,0.21 -0.9,0.19 -2.76,-0.01zm-15.83 -5.42c9.6,-4.37 7.71,9.86 0.71,5.56 -0.32,-0.2 -1.43,-1.63 -1.56,-2.15 -1.15,-4.41 0.81,-3.33 0.85,-3.41zm66.2 -1.12c4.04,0.85 4.29,0.89 4.89,4.89l-5.13 0.56 0.24 -5.45zm-37.19 0.76c5.02,-0.77 6.32,1.87 8.46,4.9 3.17,4.47 2.67,4.03 6.34,7.76 0.93,7.23 -0.33,4.08 2.82,10.13 1.96,3.78 0.09,5.67 3.46,16.27 1.94,6.11 5.5,32.76 4.98,41.01 -0.45,7.13 -1.88,18.57 1.78,23.65 3.7,-2.15 2.98,-7.1 3.94,-16.1 1.08,-10.12 19.84,-39.39 22.15,-40.08l5.5 0.29c1.73,4 1.09,6.3 -3.83,11.08 -3.32,3.22 -5.84,6.3 -3.06,12.74 6.01,4.24 3.89,-2.91 12.06,-3.75 0.59,8.63 0.27,10.91 -9.97,19.42 -16.47,13.7 -7.92,1.89 -15.01,14.3 -7.43,13 -3.96,6.88 -3.7,25.21 0.23,15.71 5,17.09 5.37,25.31 -5.24,-0.29 -4.41,-0.29 -6.72,-3.76l-14.49 -18.16c-12.18,-7.96 -30.44,-3.7 -31.79,3.13l1.06 6.54c-16.01,-1.76 -7.45,-19.66 -7.84,-21.93 -1.07,-0.57 1.35,-2.62 -5.99,-0.03 -2.38,0.84 -4.38,0.96 -6.93,1.87 -7.51,2.69 -15.13,10.11 -9.15,21.08 3.47,6.36 6.28,5.15 8.47,8.91 -9.81,8.24 -28.86,-6.05 -20.3,-26.01 1.82,-4.26 2.67,-5.93 5.61,-8.52 2.24,-1.98 4.89,-5.09 7.39,-6.75 7.14,-4.75 17.95,-3.66 22.1,-5.93 -3.4,-3.32 -22.68,-8.56 -29.37,-12.15 -40.68,-21.8 -16.64,-84.37 17.77,-56.06l0.4 14.35c-3.95,3.17 -3.97,5.11 -6.91,6.52 -5.29,1.98 -8.54,-0.26 -10.91,-3.44l0.12 -6.61 10.08 -0.83c-0.84,-7.07 -5.23,-9.52 -13.14,-8.6 -6.31,0.73 -8.61,5.6 -10.31,12.62 -2.06,8.51 -3.01,9.71 0.6,18.54 5.32,13.04 5.07,7.33 14.92,18.75 3.86,4.47 15.07,3.16 24.9,9.85 11.32,7.71 28.26,9.05 27.54,18.23 3.55,-1.38 0.86,-1.24 5.74,-1.11 4.55,5.38 11.68,15.18 15.08,16.43 0.26,-6.09 -2.46,-7.83 -3.76,-12.81 -1.44,-5.5 -0.08,-8.95 -3.02,-13.36 -6.67,-10.03 1.22,-18.19 -7.56,-25.83 -0.65,-12.01 -3.43,-12.61 -12.97,-26.56l-7.96 -11.6c-1.14,-2.12 -2.15,-5.68 -2.3,-7.79 -0.16,-2.26 -0.22,-3.2 0.58,-5 1.18,-2.64 2.06,-2.34 2.99,-3.03 5.15,3.86 4.91,10.24 11.96,11.13 6.76,-6.24 1.91,-10.8 -0.17,-16.99 -4.14,-12.37 -7.26,-9.3 -7.01,-17.23zm-47.12 5.05l-0.03 -5.1c3.63,-0.89 5.22,-0.44 7.52,0.66 -0.14,4.75 -2.38,6.39 -7.49,4.44zm269.65 -1.72c-0.35,-3.5 -1.07,0.49 -0.07,-2.55l5.26 -1.39 0.04 3.49 -5.23 0.45zm-194.93 -1.81l-6.25 0.54c-0.38,-3.66 -1.08,-5.74 3.03,-5.4 3.05,0.25 3.26,1.73 3.22,4.86zm-126.46 1.92c-2.53,0.46 -13.19,2.34 -14.16,2.26 -2.38,-4.15 -2.77,-5.89 2.79,-7.11 7.56,-1.67 3.45,-3.29 9.77,-3.58 3.52,3.25 3.53,3.4 1.6,8.43zm235.42 -6.05c0.1,0.15 4.49,1.15 -1.09,3.49 0,-0.01 -4.17,-1.1 1.09,-3.49zm-337.87 -5.64l-0.92 7.8 -6.07 0.45c-0.16,-6.98 0.1,-8.66 6.99,-8.25zm21.91 -0.29c4.33,-0.11 5.67,1.31 5.66,5.61 -5.76,2.48 -8.34,0.2 -5.66,-5.61zm323.73 0.77l5.8 -0.13c1.16,8.64 -7.11,6.94 -5.8,0.13zm20.68 -5l-0.01 4.75c-3.55,1.36 -4.17,2.36 -7.78,0.25 -3.74,-7.41 3.53,-7.42 7.79,-5zm-221.28 8.62c-0.85,11.99 -5.97,17.68 -9.95,27.16 -1.82,4.37 -2.58,9.04 -4.78,13.77 -2.09,4.5 -3.55,8.86 -5.02,13.94l-0.7 -0.15c-1.76,6.17 -3.89,11.29 -5.59,17.67 -1.91,7.19 -1.17,13.43 -0.76,21.61 1.89,4.36 8.22,8.41 10.34,10.3 3.15,2.79 10.45,6.5 11.68,11.57 -15.22,1.96 -71.35,-3.48 -79.67,1.53 -0.17,7.15 0.17,0.25 2.81,7.05 -1.8,2.94 -1.95,3.59 -5.65,3.94 -2.91,-4.72 -0.33,-6.18 -1.58,-12.32 -10.68,-1.62 -13.7,5.21 -22.86,-1.41 3.31,-10.84 13.01,-2.85 38.12,-29.4 12.53,-13.27 13.94,-27.19 23.7,-43.7l24.71 -59.01c2.99,-9.68 15.68,-36.08 16.7,-41.96 0.98,-5.71 -0.51,-2.05 2.39,-6.38 5,-7.44 20.61,-49.15 25.07,-59.81 1.63,-3.9 3.45,-7.38 5.15,-11.08l16.2 -34.74c4.28,-11.73 4.18,-7.31 6.99,-18.21 0.79,-3.09 1.66,-2.62 3.03,-5.56 1.13,-2.41 0.92,-3.8 1.87,-5.73 1.39,-2.81 2.12,-1.86 3.71,-5.04 2.27,-4.51 1.92,-7.47 4.88,-12.48 5.65,-9.55 5.58,-25.41 7.01,-27.6 2.53,3.35 0.84,3.24 1.45,9.55 0.37,3.75 1.49,4.34 3.43,6.5 0.27,13.98 -0.43,16.06 5.68,26.43 5.85,9.95 12.77,34.36 16.29,46.84 1.29,4.56 2.9,4.92 4.68,10.36l13.28 34.63c1.66,3.89 4.43,7.06 5.22,10.17 1.29,5.13 0.6,7.86 3.53,12.65 3.16,5.17 30.98,79.76 34.67,91.47 1.3,4.14 2.03,6.58 4.25,11.05l13.95 33.77c1.23,2.87 2.87,8.46 3.96,11.45 5.78,15.83 6.32,18.47 16.23,31.42 9.9,12.94 2.43,5.46 16.32,15.15 14.16,9.88 19.79,2.55 20.31,11.44 -7.64,4.04 -34.18,0.74 -43.84,-0.45 -5.31,-0.66 -9.23,0.87 -15.03,0.81 -6.29,-0.06 -56.72,2.44 -62.56,-1.45 2.2,-6.41 0.09,0.75 7.74,-9.14 4.78,-6.18 18.61,-13.14 9.51,-37.11l-23.09 -63.76c-1.56,-5.39 -1.59,-9.63 -6.79,-10.24l-33.54 1.05c-12.03,0.04 -20.48,0.39 -32.61,-0.56 -5.26,-0.42 -11.87,0.68 -17.4,0.79 -7.94,0.17 -9.52,-1.43 -13.44,3.22zm248.38 -5.03l-0.46 -4.23c4.22,-1.86 5.4,-1.48 8.01,1.07 -1.52,3.96 -2.86,3.67 -7.55,3.16zm-69.7 -5.34c2.04,0.24 2.5,-1.38 3.59,1.39 1.81,4.6 -1.3,3.34 -1.4,3.46 -2.68,-1.77 -2.78,0.9 -2.19,-4.85zm102.56 2.18c3.22,-2.19 3.15,-1.29 4.66,1.09 -3.02,2.2 -3.01,1.06 -4.66,-1.09zm-45.34 0.72c-3.9,1.96 -3.39,1.88 -7.49,0.68 -0.94,-3.06 -2.04,-5.55 2.45,-6.27 4.99,-0.79 5.41,1.6 5.04,5.59zm-289.96 -7.14c5.55,0.11 7.73,2.45 6.38,8.25l-6.44 0.56c-2.84,-4.58 -2.62,-4.19 0.06,-8.81zm223.05 24.96l14.28 -15.04c4.94,-3.77 1.24,0.25 6.43,-7.7 7.56,-11.59 13.25,-3.14 12.86,-0.15 -2.75,6.19 -10.69,6.98 -15.57,12.72 -4.28,5.03 -12.67,9.08 -18,10.17zm-208.02 -26.48c4.78,-2.21 4.26,-1.53 5.8,0.42 1.23,2.88 0.7,2.27 -0.15,5.31l-5.45 0.27c-1.03,-2.71 -0.74,-0.12 -0.92,-2.67 0,0 -0.94,-0.31 0.72,-3.33zm278.72 0.07l-0.41 -7.36c6.68,-0.52 7.07,0.91 6.91,7.07l-6.5 0.29zm23.41 -5.18l3.57 -3.25c3.83,0.85 4.11,1.06 5.73,4.34 -2.51,4.39 -7.29,6.22 -9.3,-1.09zm-381 -2.26c4.63,-2.66 5.73,-1.81 11.95,-2.09 2,-4.24 1.47,-7.38 5.23,-10.72 4.33,3.59 4.47,8.75 6.89,14.71 1.27,3.12 6.68,13.71 6.69,14.92 -6.75,1.59 -9.5,0.17 -15.8,0.41 -6.39,0.25 -7.72,3.5 -13.57,-0.26 -0.38,-3.82 1.09,-3.85 2.4,-7.1 -1.44,-4.71 -3.24,-4.11 -3.79,-9.87zm304.38 -1.88l5.08 -0.18c0.69,8.98 -8.87,8.42 -5.08,0.18zm-231.33 5.65c-7,1.34 -6.37,-3.33 -3.68,-7.18l4.56 -0.05c1.13,4.78 0.94,3.24 -0.88,7.23zm327.38 -5.86c1.84,-1.03 -2.38,-1.52 2.75,-1.15 3.83,0.28 3.27,2.16 2.12,5.29 -5.34,-0.68 -4.02,0.21 -4.87,-4.14zm-31.15 -1.07c7.06,-0.09 7.86,0.09 7.71,6.73l-6.8 -0.63 -0.91 -6.1zm-400.96 2.16c2.47,-2.74 2.95,-3.55 7.13,-2.83 1.55,3.17 1.37,5.34 0.07,7.88 -6.87,0.82 -5.4,-1.58 -7.2,-5.05zm119.53 -10.93c2.76,2.54 2.61,2.24 1.7,7.27 -2.77,0.29 -4.02,0.35 -4.59,-1.97 -0.81,-3.29 1.74,-4.57 2.89,-5.3zm262.02 0.09c3.57,1.08 3.9,1 4.15,5.3 -3.38,0.66 -4.64,0.35 -7.11,-1.15 1.14,-4.2 0.07,-2.2 2.96,-4.15zm41.37 2.14c0.19,-6.81 5.24,-5.15 7.17,0 -3.47,2.72 -4.47,2.32 -7.17,0zm-316.36 3.23l-0.27 -6.29 6.02 0.09c1.17,5.1 -0.24,6.68 -5.75,6.2zm-11.15 -5.4c0.19,-0.07 -0.09,-2.03 3.43,-1.23 3.3,0.76 1.8,0.64 2.24,3.4 -2.96,1.92 -1.43,1.34 -5.44,1.17l-0.23 -3.34zm243.03 1.89c-0.65,-2.49 -1.81,-3.49 0.39,-5.52 2.46,-2.28 3.62,0.3 3.64,0.31 1.76,3.89 0.7,5.61 -4.03,5.21zm63.56 -5.03c1,4.66 -4.75,2.94 -7.36,2.02 -0.33,-4.12 -0.79,-1.66 0.81,-4.57 0.4,-0.18 -1.36,-1.54 3.15,-0.63l3.4 3.18zm-104.71 -4.05c2.89,0.55 4.36,0.01 5.22,3.01 1.03,3.61 -1.12,4.29 -1.25,4.48 -5.56,1.8 -4.69,-3.09 -3.97,-7.49zm118.61 5.85c-2.74,1.6 -4.24,-0.45 -4.75,-0.37l-0.82 -5.35 7.06 0.53c0,2.35 0.47,4.04 -1.49,5.19zm-351.82 -6.2c5.02,0.12 5.36,1.28 5.05,6.31l-5.21 -0.74c-1.53,-3.35 -1.17,-2.27 0.16,-5.57zm-55.4 -0.13c6.53,-3.5 8.51,6.8 0.07,6.41 -3.05,-6.49 -0.12,-6.32 -0.07,-6.41zm357.44 -4.17c0.36,2.12 1.6,8 2.73,9.35 3.47,4.15 4.42,-1.42 6.18,5.98 -7.23,0.42 -11.34,-0.07 -13.83,-5.01 -3.24,-6.42 0.94,-8.49 4.92,-10.32zm-314.98 3.22c4.92,-0.68 7.33,-0.18 6.92,5.08l-7.16 -0.46c-0.71,-1.64 -0.97,-1.67 0.24,-4.62zm-49.4 1.47c1.44,4.7 -0.48,2.83 -0.72,3.37l-4.09 -0.29 1.89 -5.76c1.55,0.79 2.34,0.78 2.92,2.68zm123.73 -4.12c1.23,6.99 -0.75,7.88 -5.74,4.73l0.67 -5.11 5.07 0.38zm255.42 20.87c-2.62,8.45 -5.85,9.82 -15.71,9.26 -18.32,-1.03 -32.89,-35.26 -5.17,-35.06 0.17,12.29 -8.42,10.92 0.03,20.31 5.25,5.83 11.45,4.62 20.85,5.49zm-275.42 -17.03c-3.75,-0.27 -1.68,-0.56 -2.56,-1.01 -1.5,-3.06 -1.15,-1.56 -0.57,-5.64l6.71 0.58c0.28,0.86 0.71,2.06 0.78,2.77 0.16,1.86 -0.39,2.16 -0.58,2.71 -1.22,0.33 -1.98,0.71 -3.78,0.59zm-32.45 -6.46c12.33,-1.09 17.67,19.8 17.36,22.59 -1.56,3.38 -6.32,11.5 -8.58,13.38 -2.1,1.74 -4.61,2.42 -6.85,3.95 -2.9,1.98 -5.77,6.02 -9.13,1.6 -0.93,-1.22 -0.72,-1.52 -1.37,-3.06 -3.92,-9.31 -1.65,-19.95 1.81,-21.48 5.97,-0.15 3.59,0.61 7.6,2.27 13.08,-8.54 -0.12,-12.99 -0.84,-19.25zm19.4 -2.42c1.64,3.29 1.23,3.08 -0.24,6.33 -4.09,-0.3 -6.4,-2.32 -4.18,-6.42 2.92,-1.7 1.41,-1.56 4.42,0.09zm-71.24 -1.51c0.13,-0.07 -0.46,-1.9 5.99,-0.57 0.27,5.35 -1.21,7.35 -5.85,5.78 -2.99,-2.52 -0.19,-5.1 -0.14,-5.21zm272.88 2.09c-1.77,-4.12 -1.99,-3.89 0.51,-7.12 2.36,0.43 4.31,-0.12 3.64,4.31 -0.45,2.92 -1.61,2.9 -4.15,2.81zm-291.96 -6.96c6.66,-1.24 8.37,3.06 4.84,6.92 -4.41,0.95 -5.64,-1.31 -4.84,-6.92zm364.75 3.71c-1.7,-5.03 -0.82,-8.91 4.19,-7.56 1.7,4.22 1.13,7.92 -4.19,7.56zm-63.06 -6.03c1.12,-2.68 2.62,-2.88 4.92,-3.84 4.54,2.74 3.74,3.39 2.57,8.54 -4.31,1.23 -6.65,0.52 -7.49,-4.7zm56.01 -5.44c2.03,3.24 1.37,3.53 1,7.77 -6.2,0.4 -7.98,-2.78 -5.36,-7.77 2.8,-1.26 1.26,-1.36 4.36,0zm-18.36 5.44c-0.11,1.83 -0.58,2.05 -0.76,2.53 -3.99,1.31 -5.3,-1.89 -4.77,-6.8l5.15 0.14c0.27,1.9 0.49,2.03 0.38,4.13zm40.03 -11.96c0.45,4.48 -0.09,4.67 -3.18,6.16 -3.76,-1.52 -3.6,-1.3 -3.37,-6.72l6.55 0.56zm-36.4 -1.75c2.01,0.83 5.58,6.96 -0.49,7.23 -5.23,0.24 -0.35,0.19 -3,-0.9l0.46 -5.95c0.96,-0.43 -1.96,-2.44 3.03,-0.38zm44.72 27.45c1.5,-4.02 21.12,-29.94 34.95,-30.3l-2.63 14.38c2.79,3.36 1.87,2.72 7.13,3.32 1.81,4.64 9.5,11.39 4.96,23.26 -5.95,-5.83 -6.63,-13.96 -16.71,-14.85 -16.1,-1.43 -15.3,2.04 -27.7,4.19zm42.86 -21.39c-8.07,-5.12 -3.15,-8.21 4.26,-9.88 0.31,6.36 1.45,8.43 -4.26,9.88zm-120.54 21.51c2.3,1.09 1.12,2.72 6.76,3.62 3,-5 2.08,-11.49 -0.62,-18.32 -3.76,-9.49 -11.17,-4.83 -11.63,-12.25 24.68,-3.9 28.54,29.12 26.54,37.51 -3.24,13.59 2.52,2.31 -8.45,24.15 -2.72,5.42 -4.82,12.25 -9.42,15.71 -8.09,6.07 -4.23,-5.61 -5.56,-18.67 -0.72,-7.09 -4.35,-8.78 -5.63,-15.79 4.7,0.11 7.65,1.22 6.26,-5.42 -0.5,-2.43 -4.68,-13.59 1.75,-10.54zm16.72 -31.17c4.68,-0.6 2.36,-0.58 5.85,1.01l-1.15 5.12c-5.98,0.93 -7.85,-1.26 -4.7,-6.13zm-43.89 6.73c0.18,-4.21 -0.23,-3.63 2.02,-6.76 12.37,-2.31 5.9,6.55 5.36,12.87 -2.88,-1.37 -4.21,-3.35 -7.38,-6.11zm-193.68 -0.38c-5.71,-0.91 -6.9,-6.65 2.28,-6.53 0.09,5.07 0.52,3.66 -2.28,6.53zm-34.65 -8.92c-0.3,4.7 -0.27,5.08 -3.4,6.44 -2.89,-2.78 -2.31,-1.94 -2.53,-6.31l5.93 -0.13zm-56.96 -2.05c4.23,1.26 3.63,0.61 3.64,5.75l-3.36 0.05c-1.26,-1.84 -2.94,0.19 -0.28,-5.8zm62.26 0.14c5.37,0.52 5.14,3.6 2.17,6.32 -3.37,-1.56 -3.63,-3.15 -2.17,-6.32zm13.04 5.21c-3.31,-2.66 -3.81,-2.57 -1.93,-7.04 9.7,-1.44 10.74,6.94 1.93,7.04zm238.17 -4.08c0.5,-4.81 2.09,-3.7 7.49,-3.08 -0.77,4.79 -2.89,5.88 -7.49,3.08zm-177.11 -4.38c2.6,-1.98 5.72,0.06 7.23,1.14 -0.22,4.56 -0.47,4.82 -4.14,6.6 -3.59,-2.11 -3.78,-2.19 -3.09,-7.74zm194.48 -3.09c5.06,-0.41 6.25,1.05 5.25,6.59l-7.19 -0.08 1.94 -6.51zm-293.28 3.12c2.38,-2.63 2.85,-2.43 7.21,-3.3 0.29,12.18 -7.31,10.32 -7.21,3.3zm385.2 1.56c-1.06,-5.98 1.45,-8.64 5.04,-5.05 3.74,3.74 0.14,6.69 -5.04,5.05zm-36.74 -4.58c2.96,5.78 -2.23,8.36 -5.35,6.41 -4.18,-2.6 -2.04,-8.32 5.35,-6.41zm-41.84 -4.17c2.99,-0.21 4.71,-0.3 4.8,2.86 0.1,3.53 -1.64,3.45 -5.11,2.86l0.31 -5.72zm-41.55 12l-4.27 0.3 -1.83 -5.41c-2.11,-3.27 -3.78,-0.45 -1.61,-5.06 1.97,0.49 7.79,5.96 8.37,4.92 0.13,-0.23 0.5,0.3 0.99,0.52l-1.65 4.73zm-21.26 -4.93c-3.87,-4.04 -2.64,-4.64 -2.33,-11.53 4.65,0.74 7.79,4.49 8.54,9.48 -2.54,2.3 -2.01,2.36 -6.21,2.05zm-224.85 -2.3c-2.95,1.41 -2.04,1.76 -5.26,0.37 -1.3,-2.83 -1.33,-2.4 0.12,-5.66 4.26,-0.08 5.11,0.97 5.14,5.29zm374.03 -10.95c4.41,1.76 7.34,3.38 6.66,8.92l-5.57 -0.05 -3.13 -4.25 2.04 -4.62zm-364.9 3.53l-0.64 5.03c-4.06,1.13 -5.96,0.12 -5.88,-5l6.52 -0.03zm-66.45 -0.67c1.5,2.67 1.28,1.44 0,3.59 -4.07,-1.95 -1.71,-2.68 0,-3.59zm143.08 -2.94c8.77,-3.68 10.04,9.73 -1.52,7.71 -0.04,-1.64 -0.11,-3.28 0.17,-4.71 1.04,-5.21 0.28,-1.2 1.35,-3zm-108.31 4.76c-8.7,3.33 -11.32,-9.11 -0.4,-8.29 1.18,4.04 2.24,4.7 0.4,8.29zm344.79 -3.33c-0.6,-4.75 -0.86,-4.65 2.05,-7.41 3.48,1.54 4.37,3.06 3.96,7.45l-6.01 -0.04zm-246.5 -10.43c3.45,1.58 7.68,5.38 8.68,9.41 -3.48,2.29 -4.9,1.61 -9.92,1.62l1.24 -11.03zm-88.85 10.04c-3.77,1.16 -2.76,-0.63 -3.34,-0.62l-0.29 -3.05c1.82,-2.14 4.66,-0.35 5.93,0.86 -0.7,1.75 -0.49,2.25 -2.3,2.81zm47.4 -7.48c1.77,3.27 1.32,1.4 0.73,5.75 -4.99,1.65 -7.79,-0.27 -5.62,-5.64 3.02,-1.46 1.65,-1.48 4.89,-0.11zm337.93 2.5c-3.16,1.7 -0.55,1.66 -3.29,0 0.86,-0.81 0.59,-5.45 3.29,0zm-57.19 -1.61c-2.18,0.17 -3.36,-0.01 -4.78,-0.06 -0.13,-4.15 -0.84,-1.95 0.81,-4.98 1.36,-0.76 -1.37,-1.66 4.64,-1.65l-0.67 6.69zm-62.58 -6.2l7.01 0.12 -0.6 6.74 -6.53 -1.14 0.12 -5.72zm-254.64 7.68l-5.54 0.38 -1.44 -5.71 7.43 0.1 -0.45 5.23zm101.1 -9.38c0.43,2.22 1.42,3.43 -0.54,5.48 -3.47,3.63 -4.92,0.02 -4.93,0.02 -3.03,-5.45 0.09,-8.21 5.47,-5.5zm207.17 1.1c0.46,2.36 -0.11,2.73 -1.4,5.57 -4.43,-1.72 -6,-2.61 -5.4,-8.23 0.99,-0.62 5.85,-2.2 6.8,2.66zm-62.09 -1.4c4.71,10.21 -6.06,7.99 -5.03,0.49l5.03 -0.49zm-223.11 2.26c-1.24,-3.77 -1.77,-5.36 1.17,-8.47 4.03,2.52 6.62,7.54 -1.17,8.47zm352.57 -9.66c7.88,-1.24 8.45,1.48 7.27,7.37 -3.16,1.04 -4.4,1.54 -7.91,-1.06l0.64 -6.31zm-105.78 4.16c2.95,-2.6 3.9,-2.77 8.92,-2.04l-0.29 9.44c-6.36,0.46 -8.22,-2.02 -8.63,-7.4zm-12.81 -7.53l5.31 0.03c1.31,2.31 1.74,3.83 0.83,7.56l-6.6 0.02 0.46 -7.61zm-290.05 5.36c3.09,-2.9 5.58,-3.56 8.98,-1.79 0.52,4.16 -1.3,6.46 -2.64,9.54 -4.29,-0.77 -3.15,-0.6 -6.33,-2.73l-0.01 -5.02zm-24.17 -1.09c2.94,-1.15 6.7,-0.39 4.59,3.59 -1.8,3.4 -5.61,2.28 -4.59,-3.59zm42.26 1.18c-1.19,-2.97 -0.44,-3.01 0.65,-5.86 4.88,0.32 6.81,0.87 5.6,6.82l-6.25 -0.96zm97.81 -4.44c-0.13,7.05 -6.22,7.95 -7.42,4.17 -1.6,-5.03 2.62,-8.04 7.42,-4.17zm162.88 -4.65c5.23,-1.98 6.64,1.8 5.23,7.74l-5.92 -1c-0.88,-4.5 -1.33,-3.22 0.69,-6.74zm-12.12 9.56c-4.33,-2.14 -1.52,-7.1 -0.96,-8.37l4.54 0.4c1.59,3.32 2.27,3.76 0.27,7.42 0,0 0.55,2.71 -3.85,0.55zm70.74 -9.57c3.47,-2.15 5.5,0.71 7.1,3.57 -1.51,3.39 -1.08,3.15 -4.66,4.18l-3.39 -2.01 0.95 -5.74zm-267.9 0.09c2.28,2.39 0.29,4.04 -0.1,4.83 -5.31,2.4 -7.1,0.32 -6.64,-5.6 2.47,-0.31 4.91,-1.15 6.74,0.77zm233.16 5.65c-2.11,-5.02 -2.05,-6.17 2.46,-8.67 4.21,1.16 2.5,0.28 4.59,3.24 -0.15,5.55 -1,6.08 -7.05,5.43zm-167.81 -0.38c-1.16,-5.31 -0.08,-8.12 5.79,-6.99 0.7,4.2 0.73,5.13 -1.93,8.37l-3.86 -1.38zm-5.88 -5.02c-0.3,4.62 -0.18,4.03 -3.24,6.08 -4.51,-0.62 -5.22,-1.57 -4.91,-7.01l8.15 0.93zm244.59 -3.29c2.19,-2.35 3.38,-2.22 5.52,-1.29 0.16,0.14 4.76,8.28 -5.6,5.73l0.08 -4.44zm-384.86 57.59c0.65,-9.65 -4.03,-13 -4.88,-15.62 -0.12,-0.4 -2.24,-17.72 -2.22,-17.85 1.4,-10.77 6.48,-22.92 16.06,-24.1 -0.97,10.78 -9,5.83 -3.17,30.27 1.13,4.75 3.68,9.71 6.4,13 1.43,1.73 7.65,8.19 9.19,9.29 9.39,6.69 16.87,7.97 29.8,8.37 4.32,0.13 4.92,1.16 8.61,1.53 3,0.3 5.66,-0.26 8.61,-0.11 19.63,0.98 10.49,5.91 19.7,0.58 7.23,3.08 12.14,2.8 18.77,5.25 5.27,1.95 10.23,4.86 16.11,6.6 -0.06,9.35 -3.2,6.27 -8.89,3.58 -16.86,-7.95 -16.3,-2.35 -28.8,-5.64 -3.68,-0.97 -33.58,4.44 -38.43,5.51 -4.47,0.99 -15.74,12.25 -19.62,15.28 -15.02,11.77 -25.25,38.99 -16.68,57.92 8.42,18.58 20.07,27.97 41.71,26.68 10.4,-0.62 21.33,-19.72 21.94,-23.7 2.68,-17.69 -17.83,-23.79 -19.46,-26.14 1.54,-2.77 -1.46,-2.44 4.09,-2.87 2.67,-0.21 11.72,3.23 13.45,4.49 5.87,4.26 5.46,7.18 9.1,13.78 3.77,6.84 -0.4,13.41 -2.35,18.01 -7.04,16.59 -21.82,26.95 -43.41,21.34 -9.21,-2.39 -9.54,-0.76 -16.1,-6.83 -2.84,-2.63 -8.01,-9.52 -11.64,-10.51 -2.33,5.03 9.27,25.29 12.3,30.5 2.17,3.74 8.31,10.43 9.61,13.18 1.65,3.49 0.74,5.42 2.98,7.91 1.49,1.66 3.94,2.74 5.92,4.78 0.39,3.91 0.88,4.38 -0.58,7.31 -5.53,5.83 -1.9,-7.06 -17.3,-6.22 -2.2,3.03 -2.99,3.58 -3.93,9.08l-3.24 -0.4c-2.92,-4.59 -0.94,-9.21 -1.94,-14.95 -2.37,-13.51 -5.76,-40.32 -11.53,-51.86 -2.35,-4.68 -3.38,-22.31 -2.52,-28.06 0.91,-6.03 2.71,-3.53 3.01,-11.92 0.33,-9.39 4.67,-16.73 8.53,-23.47 5.43,-9.51 4.39,-6.69 15.34,-16.19 10.19,-8.86 33.93,-18.85 46.08,-15.47l-0.12 -4.39c-0.59,0.25 -16.98,3.07 -19.66,3.6l-20.31 4.18c-0.67,0.06 -20.93,-2.56 -21.53,-2.76 -2.28,-0.76 -5.12,-3.13 -7.74,-4.34l-8.28 -2.72c-1.47,-3.78 -2.91,-4.34 7.02,-5.9zm68.59 -54.33c-4.3,1.75 -0.6,2.01 -7.16,2.58 -1.22,-3.43 -1.72,-4.25 -0.6,-8.15 4.72,-3.61 8.09,-0.95 7.76,5.57zm356.89 -8.73l0.53 6.23c-5.58,0.42 -8.53,0.73 -6.6,-5.22 0.86,-0.56 0.62,-0.82 2.48,-1.22 1.8,-0.38 1.63,0.04 3.59,0.21zm-302.69 4.38c-5.55,8.22 -12.22,-2.13 -3.16,-4.49 3.1,1.94 2.2,0.15 3.16,4.49zm235.57 -0.58c-0.48,-4.57 1.31,-5.88 5.74,-5.74 1.85,5.53 0.95,9.82 -5.74,5.74zm-367.5 3.16c-2.06,-4.95 -2.91,-5.15 1.57,-10 2.94,0.43 4.06,1.5 5.7,2.67 0.12,6.05 -1.24,7.28 -7.27,7.33zm382.5 -7.74c5.48,-3.51 6.79,1.19 4.79,5.97 -6.23,0.7 -8.58,-3.53 -4.79,-5.97zm-90.14 4.57c-4.95,-1.11 -1.84,0.78 -2.8,-2.67 2.92,1.12 1.46,-0.62 2.8,2.67zm-15.47 -3.76c0.26,-4.33 0.68,-5.16 5.06,-5.2 3.42,6.38 -0.51,11.38 -5.06,5.2zm-167.45 -2.93c10.02,-0.88 6.53,6.43 -0.11,5.76l0.11 -5.76zm-23.35 -1.73c3.15,-1.43 1.26,-1.25 5.3,-0.36 0.66,3.43 1.32,5.58 -2.84,6.36 -1.59,0.3 -1.76,-0.04 -3.29,-0.19 -0.4,-4.32 -0.9,-2.55 0.83,-5.81zm-62.18 2.49c3.93,-6.38 10.21,-2.31 8.98,4.15 -3.38,0.82 -6.63,2 -8.98,-4.15zm381.02 2.33c-5.63,-5.49 -0.25,-12.63 4.1,-10.96 2.5,0.95 2.56,3.88 1.35,6.45 -1.86,3.94 -3.4,4.04 -5.45,4.51zm-245.31 -4.51c-1.01,1.32 1.11,1.87 -5.84,3.34 -2.41,-2.66 -2.99,-3.34 -3.39,-7.83 5.58,-0.54 6.95,0.72 9.23,4.49zm-21.36 -5.71c1.95,-0.83 -2.41,-1.47 2.23,-0.59 3.11,0.58 6.38,7.59 -2.78,8.29 -1.09,-4.57 -1.53,-4.16 0.55,-7.7zm148.86 -0.34l6.72 0.94 -0.88 5.34 -5.67 0.02 -0.17 -6.3zm-275.5 4.78c-2.95,-10.54 9.91,-9.89 5.17,1.32 -2.85,0.1 -3.44,-0.19 -5.17,-1.32zm384.03 -0.42c-3.22,0.47 -4.02,-0.25 -6.14,-1.23 -0.23,-4.3 -0.8,-1.9 0.88,-5.08 3.42,-1.82 1.23,-1.59 5.97,-0.43l-0.71 6.74zm-34.33 -1.5c0.97,-7.73 7.11,-9.37 6.26,-0.17l-6.26 0.17zm-293.95 0.49c-0.51,-4.06 0.1,-4.86 1.61,-7.18 4.93,-0.21 5.71,0.23 6.55,4.45 -2.58,3.01 -3.35,3.69 -8.16,2.73zm309.33 -8.28c5.07,-0.39 5.44,0.41 7.45,3.37 -1.23,3.8 -2.26,4.82 -7.62,4.16l0.17 -7.53zm-215.63 -2.27c4.38,-0.23 3.41,-1.01 6.9,1.29 0.65,5.45 -1.04,5.36 -6.53,5.03l-0.37 -6.32zm-81.28 1.21c0.22,-0.12 4.51,-4.78 4.57,3.67l-5.2 0.37c-0.59,-4.11 -0.78,-1.53 0.63,-4.04zm53.09 -1.07c-1.03,-3.6 1.2,-4.41 1.33,-4.61 4.38,1.03 5.07,2.38 2.18,6.83 -2.58,-0.41 -2.59,1 -3.51,-2.22zm-40.91 -2.94c5.62,-0.42 6.11,-0.29 6.27,5.44l-7.76 2.77 1.49 -8.21zm38.66 87.34c-1.97,-1.1 -4.56,-1.49 -6.36,-2.58l-14.55 -14.86c-1.66,-1.88 -2.05,-3.45 -3.99,-5.83 -1.44,-1.75 -3.69,-3.5 -4.87,-4.91 -5.25,-6.24 -7.59,-31.84 -1.87,-46.72 7.31,-19.03 33.08,-20.38 29.58,0.17 -12.29,4.04 -8.45,-2.62 -13.11,-8.01 -9.9,0.71 -14.12,16.77 -13.31,28.93 0.42,6.32 2.35,5.8 8.25,5.25 3.16,-6.38 0.97,-6.48 4.24,-9.93 3.29,2.07 7.46,7.03 8.74,12.33 3.15,13.1 -5.67,9.75 0.95,33.5 1.27,4.53 5.19,7.48 6.3,12.66zm122.41 -89.43c4.37,0.21 5.69,0.5 5.82,5.16l-6.01 0.39 0.19 -5.55zm153.56 4.64c-5.9,1.5 -6.28,-0.74 -6.2,-6.6l6.54 0.71 -0.34 5.89zm-254 -1.72c-4.31,6.68 -8.95,2.49 -6.22,-5.22 4.23,0.51 5.28,1.42 6.22,5.22zm-124.2 1.98c-3.95,0.93 -7.15,0.41 -7.24,-3.01 -0.18,-5.96 6.73,-4.37 6.73,-4.37l0.51 7.38zm-30.27 -0.52c-0.09,-5.64 1.61,-6.67 6.77,-7.72l3.64 3.13 -2.21 6.02 -8.2 -1.43zm438.77 -2.25c-0.78,0.77 -0.39,0.85 -1.87,1.54 -2.17,1 -1.37,0.28 -2.92,0.4 -10.17,-7.82 6.76,-11.09 4.79,-1.94zm-47.48 -7.67c-0.18,4.3 -1.5,5.12 -6.26,5.04l0.15 -5.59 6.11 0.55zm-316.61 -2.95c3.97,-0.48 5.41,0.43 6.88,3.8 -1.49,4.08 -2.35,4.23 -7.77,4.1l0.89 -7.9zm208.49 4.75c-1.21,-7.8 2.51,-9.5 6.12,-4.21 -0.9,3.63 -1.75,4.55 -6.12,4.21zm-179.24 0.75c-1.34,-7.28 0.11,-8.85 6.62,-7.48l0.4 4.96c-2.4,1.78 -3.67,2.61 -7.02,2.52zm-16.14 -4.48c-1.03,-6.94 4.55,-7.74 7.14,-4.97 3.56,3.81 -1.52,6.47 -7.14,4.97zm-77.23 -5.31c4.02,-1.92 2.25,-1.73 6.85,-0.32l-0.39 6.81c-5.51,1.68 -7.54,-1.13 -6.46,-6.49zm375.51 -1.67c0.46,8.14 -6.76,8.53 -6.63,-0.51l6.63 0.51zm-85.24 -0.75l5.01 -0.21 0.52 6.16 -5.96 -1.13 0.43 -4.82zm-52.34 1.07c3.41,-0.92 5.89,-0.2 8.65,0.54 -0.68,3.33 -1.19,5.3 -5.75,4.65 -3.52,-0.5 -3.51,-1.83 -2.9,-5.19zm-108.36 -2.11c2.54,-0.16 5.43,0.87 5.5,4.03 0.07,3.87 -2.16,3.27 -6.25,2.73l0.75 -6.76zm-15.56 5.74c0.47,-5.62 7.21,-7.44 6.74,-0.04 -3.9,2.14 -2.88,2.23 -6.74,0.04zm275.29 0.37c-2.63,1.3 -3.78,0.11 -6.21,-0.99l0.25 -5.94 5.16 0.25c0.16,0.26 0.43,0.54 0.51,0.75 0.08,0.21 0.34,0.55 0.41,0.83l-0.12 5.1zm30.88 -3.24c0.52,4.5 -0.28,1.27 -0.88,2.48 -4.98,1.67 -6.9,-0.64 -7.54,-5.51 3.45,-0.56 7.88,-1.56 8.42,3.03zm-143.4 -6.55c6.87,-1.2 4.62,0.04 6.04,0.82l0.53 4.96c-6.11,0.33 -7.12,0.44 -6.57,-5.78zm-124.8 5.65c-3.8,-0.99 -2.78,0.1 -3.56,-3.61 4.91,0.76 2.68,-1.18 3.56,3.61zm208.76 -7.03c3.66,3.65 -1.54,3.72 -3.74,3.75 0.06,-2.05 0.49,-6.99 3.74,-3.75zm-370.89 -3.37l5.88 1.1 0.03 5.74 -6.2 0.13 0.29 -6.97zm432.04 1.13c6.92,-4.03 11.19,5.48 1.17,6l-1.17 -6zm-402.45 -1.16c1.83,5.85 -0.41,6.93 -5.86,6.83 -1.25,-2.04 -1.98,-2.79 -2.12,-6.65l7.98 -0.18zm352.83 1.58c-1.38,-4.32 -1.26,-6.44 2.22,-8.69 5.54,2.66 5.62,8.69 -2.22,8.69zm-78.18 -5.55c-0.35,6.72 -5.31,6.89 -6.48,2.21 -0.29,-1.15 -0.04,-0.82 0.02,-2.46l6.46 0.25zm-56.47 -0.13l-0.09 3.45c-3.83,2.42 -5.74,1.39 -6.29,-3.23l6.38 -0.22zm-236.24 -3.86c3.21,0.31 10.37,7.77 0.2,9.73 -3.21,-3.05 -4.27,-4.52 -2.46,-9.11 2.14,-0.87 -2.45,-1.07 2.26,-0.62zm408.42 0.44l8.49 0.08c-0.21,3.72 -0.04,4.18 -2.51,5.75 -1.91,1.21 -3.5,1.48 -6.42,1.2l0.44 -7.03zm-70.33 -2.53l-0.23 3.61 -3.35 -0.26 -0.12 -3.4 3.7 0.05zm-11.56 39.11c-5.8,-0.39 -6.54,-2.18 -9.44,-5.2 -10.22,-10.61 -20.34,-14.51 -21.04,-20.83l8.96 -2.1c0.56,-3.53 -4.56,-17.56 2.21,-15.04 1.54,0.57 7.73,7.91 11.53,9.83 4.59,-2.19 2.59,-3.55 8.98,-4.24 0.01,3.58 0.02,7.64 -0.17,11.2 -0.23,4.31 -1.14,4.65 -1.61,7.72 -0.88,5.79 0.79,12.35 0.58,18.66zm-148.98 -39.71c-0.91,12.42 -11.52,-3.39 0,0zm-124.56 6.2c-9.91,1.17 -5.88,-8 -4.42,-8.76 2.13,-1.11 5.11,0.62 5.83,2.04 1.8,3.52 0.24,3.97 -1.41,6.72zm-19.01 -8.07c4.46,-0.8 3.39,-1.13 6.9,0.63 3.03,7.72 -8.39,10.09 -6.9,-0.63zm264.84 6.08c-6.39,-0.09 -9.57,-8.8 0.05,-7.77l-0.05 7.77zm-310.54 -2.76c-0.01,-7.18 3.25,-9 6.65,-3.41 -1.93,3.34 -1.6,3.43 -6.65,3.41zm158.27 -7.76c4.33,-4.95 7.34,-4.27 7.22,2.13 -0.03,1.85 -0.38,2.31 -0.78,3.92 -4.93,0.3 -6.11,-1.08 -6.44,-6.05zm202.85 -1.48c-0.79,4.78 -0.79,4.82 -6.47,3.44l-0.08 -3.04c3.08,-1.67 3.45,-1.13 6.55,-0.4zm-29.97 2.57c-3.09,1.87 -2.25,1.58 -4.92,0l0.21 -3.15 4.73 0.43 -0.02 2.72zm-150.19 2.3c-6.77,0.55 -4.19,1.54 -6.51,-2.3 1.37,-0.91 -1.23,-2.79 5.74,-1.95l0.77 4.25zm-57.32 -4.81c4.59,-2.3 7.89,-0.96 6.63,3.28 -1.25,4.19 -6.38,2.36 -7.2,2.19 -0.1,-0.35 -0.62,-2.07 -0.59,-2.85 0.24,-5.37 -0.35,-0.21 1.16,-2.62zm292.79 2.51c-4.05,-0.12 -2.99,-1.56 -3.47,-3.26 0.93,-0.7 -1.53,-1.44 3.41,-1.56 4.43,-0.11 3.15,1.26 3.59,1.56 -0.54,2.16 0.72,3.38 -3.53,3.26zm-70.81 -2.17c-2.94,1.8 -2.15,1.33 -6.11,0.78 0.14,-4.69 5.1,-6.37 6.11,-0.78zm-80.26 -1.09c-2.56,1.66 -1.03,2.35 -4.33,0 0.79,-0.82 1.33,-5.72 4.33,0zm-13.67 -1.62c-4.15,1.27 -3.85,1.55 -7.24,-0.55 -0.14,-2.55 1.52,-3.34 4.29,-2.94 2.56,0.38 2.76,1 2.95,3.49zm-65.88 4.9c-1.95,-6.07 1.21,-10.33 7.67,-7.82 -0.78,7.95 -3.52,8.41 -7.67,7.82zm-119.39 -10.69c4.37,-0.11 6.09,0.95 6.43,5.24 -4.87,5.2 -6.73,1.27 -6.8,1.23 -1.28,-3.4 -0.88,-3.43 0.37,-6.47zm68.29 5.36c0.25,-4.61 0.78,-5.4 5.55,-5.42l0.64 5.17 -6.19 0.25zm-85.71 -0.21c-0.19,-3.47 0.5,-5.41 2.06,-8.44 13.35,-2.7 12.42,18.04 -2.06,8.44zm-42.77 0.09c1.08,-3.95 1.38,-4.55 12.94,-5.04 1.33,8.28 1.58,2.08 7.02,7.22l-0.3 5.38c-9.24,1.4 -6.71,-3.48 -9.63,-8.16 -6.53,0.36 -3.9,6.6 -10.03,0.6zm395.11 -5.65l9.36 0.43c0.53,8.43 -8.28,6.53 -9.36,-0.43zm-224.42 -0.72c-0.06,5.36 -0.49,6.78 -6.14,6.23 -1.45,-3.65 -1.75,-4.13 -0.39,-7.68 3.76,-1.58 3.71,-0.64 6.53,1.45zm97.68 -0.8c3.6,1.71 1.42,-0.12 1.67,4.53l-6.47 -0.7 -0.15 -3.34c0.53,-0.36 3.8,-1.04 4.95,-0.49zm-115.62 0.91c4.99,-0.42 3.22,-1.03 5.33,1.91 -1.87,2.88 0.47,2.44 -5.34,2.11l0.01 -4.02zm-34.61 5.63c-5.09,4.81 -6.33,-4.01 -5.82,-7.87 5.2,0.24 9.26,4.64 5.82,7.87zm136.06 -7.43c-2.18,0.29 -3.33,1.13 -5.05,-0.61 -2.39,-2.42 -0.05,-4.13 0.12,-4.43 2.61,-1.11 2.05,-1.14 5.82,0.11l-0.89 4.93zm-63.81 -5.05c2.89,-1.58 1.44,-1.11 5.97,-0.8l-1.01 6.77c-3.1,0.94 -2.38,1.26 -5.3,-0.25 -0.76,-3.28 -0.87,-2.98 0.34,-5.72zm34.24 2.97c-0.59,-6.49 0.78,-6.32 6.23,-5.3 0.14,4.98 -0.51,3.14 -0.87,5.47l-5.36 -0.17zm-96.88 -1.05c-1.65,-3.9 -2.52,-7.25 1.88,-9.32 4.72,1.68 5.05,3.99 4.13,9.99l-6.01 -0.67zm28.79 -8.57c6.09,-0.49 7.3,-0.48 7.85,3.68 0.04,0.32 -0.21,1.43 -0.33,1.94 -4.07,3.85 -12.51,3.68 -7.52,-5.62zm-42.92 -0.79c9.94,0.43 9.73,9.29 -0.21,7.33l0.21 -7.33zm-46.56 9.08c-4.42,0.74 -4.84,-0.19 -7.01,-2.32l-7.52 -0.25 0.32 -5.76 15.33 0.13 -1.12 8.2zm169.7 -2.01c-1.5,-1.05 -1.21,-1.91 -1.45,-3.82 0.85,-0.84 9.09,-2.44 6.53,3.28 -0.05,0.06 -0.84,3.51 -5.08,0.54zm155.56 -7.51c3.91,-0.55 5.56,0.02 7.87,1.42 -0.69,8.08 -8.79,4.95 -7.87,-1.42zm-35.42 3.55c-7.01,0.76 -4.84,-0.23 -6.21,-0.91l0.52 -5.22 4.87 0.31c1.26,2.15 0.25,-2.22 1.13,2.58 0.31,1.67 -0.08,1.66 -0.31,3.24zm-184.58 1.28c-1.85,-6.99 -1,0.12 -3.59,-5.87l7.51 1.54c0.94,1.01 0.08,0.21 1.6,1.58 2.69,2.42 2.11,0.65 3.33,4.77 -1.88,2.83 -1.92,3.19 -5.88,3.96 -3.19,-2.9 -1.76,-1.39 -2.97,-5.98zm144.31 -14.59c0.62,0.76 1.61,0.89 1.78,3.57 0.13,2.05 -0.13,1.24 -0.78,3.07 -7.42,0.1 -6.87,-4.94 -1,-6.64zm-252.33 5.94c-0.42,-0.68 -1.54,1.7 -1.09,-3.34 0.34,-3.82 3.1,-4.49 6.75,-4.45 2.16,5.82 1.41,10.84 -5.66,7.79zm125.67 0.31l4.9 2.56c-1.14,0.75 2.13,1.32 -3.14,1.11l-8.13 -4.18c-2.16,-7.54 0.8,-8.3 6.66,-6.3l-0.29 6.81zm143.77 -6.77c1.28,7.64 -5.05,9.5 -8.2,5.99 -4.87,-5.42 3.07,-6.97 8.2,-5.99zm-161.83 4.91c-1.12,1.4 -1.67,1.77 -4.23,2.71 -2.31,-3.14 -2.33,-4.5 -1.22,-9.54l6.44 0.74c0.63,3.13 0.57,4.15 -0.99,6.09zm-48.84 -5.15c4.25,0.3 3.9,-0.15 5.39,3.24 -2.47,2.41 -0.63,1.94 -5.18,1.74l-0.21 -4.98zm-18.48 4.45c-7.45,-0.36 -7.58,-4.95 0.18,-5.52l-0.18 5.52zm289.37 -5.56c-0.12,4.96 -0.03,2.26 -1.22,3.84 -4.01,-1.78 -2.7,0.5 -2.92,-5.08l4.14 1.24zm-94.94 -2.55l3.97 1.05c1.41,3.71 1.33,5.65 -4.13,5.61l0.16 -6.66zm-101.98 0.37c1.99,-0.75 -0.75,-1.07 3.19,-0.9 4.81,0.21 0,-0.41 2.73,1.1l-0.05 4.65c-3.88,3.77 -8.82,2.5 -5.87,-4.85zm-41.86 0.49c0.57,4.66 0.19,8.12 -4.83,6.04 -2.08,-3.16 -1.99,-1.97 -0.65,-6.14l5.48 0.1zm91.2 2.37c-0.94,-3.56 0.8,-7.21 3.24,-10.06l2.12 10.81 -5.36 -0.75zm-15.01 -1.77c-2.27,3.33 -3.34,3.08 -6.77,0.85 0.22,-3.24 4.35,-4.13 6.77,-0.85zm111.74 -4.93c6.94,-1.09 9.42,-0.37 7.4,6.15 -4.67,1.42 -8.66,-0.05 -7.4,-6.15zm-263.61 5.08c-0.06,-0.1 -1.71,0.91 -1.18,-3.35 0.52,-4.28 4.23,-2.98 6.86,-2.31 0.31,5.22 -0.98,7.98 -5.68,5.66zm17.66 -1.18c-3.63,-0.83 -3.59,-6.09 -1.49,-7.89 2.67,-2.28 7.92,1.29 4.87,6.95 -0.03,0.01 0.34,1.79 -3.38,0.94zm10.63 -6.5c4.24,-0.32 5.33,0.24 8.07,1.59l-0.51 4.72c-5.36,2.37 -7.66,-0.24 -7.56,-6.31zm207.44 2.87c-4.02,1.78 -5.12,1.97 -9.11,0 -1.23,-4.32 -1.6,-3.02 0.5,-6.36 0.1,-0.05 0.26,-3.39 6.12,0.77 2.91,2.06 2.73,1.85 2.49,5.59zm-59.03 -3.5c6.24,-0.79 10.64,-0.13 6.07,5.96 -4.81,0.47 -6.68,-1.21 -6.07,-5.96zm32.17 -3.7c6.26,-1.2 7.62,-0.63 7.76,5.84l-8.11 0.46 0.35 -6.3zm35.49 5.76c-1.72,-3.19 -1.69,-2.86 -0.4,-7.66 4.42,-0.51 5.05,0.54 9.1,2.89 0.13,5.9 -3.54,6.97 -8.7,4.77zm-277.89 -6.2l5.09 0.68c0.58,4.33 -0.34,5.14 -4.17,5.96l-0.92 -6.64zm297.3 -2.43c-10.01,2.53 -9.1,-3.76 -6.41,-9.6 4.25,1.37 8.13,3.9 6.41,9.6zm-287.57 -5.96c1.94,2.8 1.79,0.47 0.6,5.04 -1.91,-0.02 -3.49,0.17 -3.87,-1.75 -0.93,-4.7 0.76,-2.94 3.27,-3.29zm258.58 -6.75c6.81,-0.43 10.87,0.44 9.99,8.15l-7.61 0.61c-2.21,-2.82 -2.88,-3.55 -2.38,-8.76zm-54.74 1.97c2.14,2.09 2.27,1.34 2.31,5.84l-6.37 1.14c-1.86,-4.14 -3.3,-7.83 4.06,-6.98zm-107.01 6.99c-2.04,-3.41 -1.8,-2.94 -0.77,-7.8l7.08 0.36c1.68,4.84 -0.09,9.75 -6.31,7.44zm-18.59 -2.24c0.34,-4.81 0.44,-4.56 4.39,-5.77 2.57,1.87 3.58,1.91 2.74,6.54l-7.13 -0.77zm152.25 -6.13c2.48,3.1 1.93,3.95 1.12,7.54 -3.34,-0.31 -3.67,-0.86 -5.48,-2.27 0.68,-3.45 0.77,-4.23 4.36,-5.27zm8.52 -2.65c5.31,-0.29 8.95,0.01 10.84,4.5 -2.84,4.42 -6.23,4.9 -11.13,1.08l0.29 -5.58zm-178.54 5.92c-1.5,-4.31 0.07,-5.44 3.67,-6.95 3.57,2.32 3.56,2.98 2.22,7.64 -5.53,0.69 -4.56,-0.01 -5.89,-0.69zm115.86 -2.17c-5.14,-0.61 -3.9,0.56 -4.64,-3.6 4.36,-2.05 4.32,-0.97 4.64,3.6zm-18.37 -2.85c-1.33,-5.5 2.44,-8.07 5.23,-5.26 3.35,3.38 0.13,6.16 -5.23,5.26zm113.65 -11.74c7.31,0.01 10.18,0.35 8.57,8.63l-8.73 0.15 0.16 -8.78zm-219.43 8.62c-3,-8.15 8.45,-9.56 7.38,-0.13 -4.51,1.06 -3.01,1.2 -7.38,0.13zm18.02 1.62c-1.77,-4.17 -1.38,-3.98 0.77,-7.74 8.11,-1.26 8.53,5.98 4.61,8.07 -4.97,2.64 -5.27,-0.28 -5.38,-0.33zm31.78 -7.2c1.83,-1.79 3.12,-2.35 6.74,-1.81 4.61,5.29 0.58,9.34 -5.9,7.93l-0.84 -6.12zm87.28 -1.83c4.93,-0.8 6.84,-0.77 7.2,3.99 -5.8,1.55 -6.96,1.77 -7.2,-3.99zm50.98 3.47c-2.74,2.1 -10.04,5.09 -8.41,-3.24 0.96,-4.91 8.69,-6.02 8.41,3.24zm-36.96 -3.64c5.21,-4.4 11.29,5.82 -0.21,4.55l0.21 -4.55zm-82.74 3.79c-0.43,-0.68 -2.45,1.07 -0.79,-7.76 4.91,0.84 6.77,1.88 6.66,7.92l-5.87 -0.16zm-32.95 1.13c-1.49,-4.63 -0.67,-7.24 4.82,-7.1 1.97,3.66 1.37,4.54 0.1,8.18l-4.92 -1.08zm162.6 -5.87c13.75,-2.38 14.54,7.34 3.13,6.48 -3.1,-2.39 -3.17,-1.73 -3.13,-6.48z"/>
 </g>
</svg>
