<?xml version="1.0" encoding="UTF-8"?>
<!DOCTYPE svg PUBLIC "-//W3C//DTD SVG 1.1//EN" "http://www.w3.org/Graphics/SVG/1.1/DTD/svg11.dtd">
<!-- Creator: CorelDRAW 2020 (64 Bit) -->
<svg xmlns="http://www.w3.org/2000/svg" xml:space="preserve" width="512px" height="512px" version="1.1" style="shape-rendering:geometricPrecision; text-rendering:geometricPrecision; image-rendering:optimizeQuality; fill-rule:evenodd; clip-rule:evenodd"
viewBox="0 0 512 512"
 xmlns:xlink="http://www.w3.org/1999/xlink"
 xmlns:xodm="http://www.corel.com/coreldraw/odm/2003">
 <defs>
  <style type="text/css">
   <![CDATA[
    .fil1 {fill:black}
    .fil0 {fill:#B8B87B}
   ]]>
  </style>
 </defs>
 <g id="Camada_x0020_1">
  <metadata id="CorelCorpID_0Corel-Layer"/>
  <path class="fil0" d="M253.97 98.49c4.41,0.93 3.19,2.9 5.09,12.44l25.62 130.32c3.35,17.42 2.88,12.28 -4.93,25.74l-19.33 32.93c-3.06,5.22 -3.22,6.81 -8.63,9.25 -0.11,-0.13 -0.28,-0.53 -0.31,-0.42 -0.04,0.11 -0.25,-0.34 -0.31,-0.44l-2.46 -4.64c-1.2,-1.95 -1.9,-3.28 -3.28,-5.27 -1.13,-1.63 -2.33,-2.86 -3.67,-4.9l-10.84 -16.44c-2.66,-3.63 -4.78,-6.89 -7.32,-10.65 -8.06,-11.89 -8.48,-9.34 -4.82,-24.41 2.31,-9.52 5.19,-19.29 7.55,-28.26 2.43,-9.18 3.98,-19.35 6.73,-28.55l5.23 -21.06c2.46,-15 9.98,-53.93 15.68,-65.64zm-23.15 -50.1c0.2,5.7 -3.31,18.1 -4.54,23.8l-36.72 164.68c-6.92,31.16 -14.49,62.71 -20.81,93.9 -1.64,8.08 -3.6,15.63 -5.16,23.72 -5.03,26.08 3.78,16.82 -29.9,41.85 -3.07,2.29 -6.46,3.52 -6.3,7.65 4.59,1.45 29.21,-0.08 36.24,0.04l55.19 1.17c-1.31,-5.36 -22.12,-21.16 -26.58,-23.9 -0.41,-3.79 14.39,-72.39 16.23,-81.79 0.42,-2.16 0.67,-3.99 0.96,-6 0.55,-3.84 0.1,-4.18 3.35,-4.81 3.5,4.27 -1.63,5.26 5.01,10.08 5.57,4.04 21.98,35.31 26,42.64 3.8,6.95 4.84,10.3 10.34,14.44 2.45,-1.43 17.84,-28.42 22,-34.93 0.43,-0.69 0.59,-1.05 1.07,-1.85l12.06 -19.07c1.95,-3.31 0.16,-2.08 3.1,-3.56 3.76,1.51 2.71,5.01 4.2,15.51l10.15 49.97c5.32,21.08 9.09,17.01 -17.17,34.21 -3.58,2.34 -9.31,4.94 -11.09,9.06 0.98,1.01 -0.91,0.35 1.76,1.38l53.5 0.91c6.56,-0.01 33.72,1.3 37.01,-1.51 -2.58,-4.56 -12.45,-11.14 -16.37,-14.44 -9.34,-7.86 -9.35,-5.21 -12.22,-19.42l-20.23 -106.39c-1.98,-9.15 -2.47,-18.72 -4.31,-27.16 -0.91,-4.16 -0.83,-9.23 -1.95,-13.76l-12.4 -67.06c-1.01,-4.85 -2.27,-6.37 -2.8,-12.35l-12.77 -66.35c-4.21,-28.62 -10.62,-23.87 15.22,-40.15 8.37,-5.27 17.74,-8.38 17.66,-14.68 -4.96,-2.05 -51.98,-1.16 -63.3,-1.2l-64.83 -0.27 19.21 13.01c6.58,4.43 13.46,8.44 19.19,12.63z"/>
  <path class="fil1" d="M230.82 48.39c-5.73,-4.19 -12.61,-8.2 -19.19,-12.63l-19.21 -13.01 64.83 0.27c11.32,0.04 58.34,-0.85 63.3,1.2 0.08,6.3 -9.29,9.41 -17.66,14.68 -25.84,16.28 -19.43,11.53 -15.22,40.15l12.77 66.35c0.53,5.98 1.79,7.5 2.8,12.35l12.4 67.06c1.12,4.53 1.04,9.6 1.95,13.76 1.84,8.44 2.33,18.01 4.31,27.16l20.23 106.39c2.87,14.21 2.88,11.56 12.22,19.42 3.92,3.3 13.79,9.88 16.37,14.44 -3.29,2.81 -30.45,1.5 -37.01,1.51l-53.5 -0.91c-2.67,-1.03 -0.78,-0.37 -1.76,-1.38 1.78,-4.12 7.51,-6.72 11.09,-9.06 26.26,-17.2 22.49,-13.13 17.17,-34.21l-10.15 -49.97c-1.49,-10.5 -0.44,-14 -4.2,-15.51 -2.94,1.48 -1.15,0.25 -3.1,3.56l-12.06 19.07c-0.48,0.8 -0.64,1.16 -1.07,1.85 -4.16,6.51 -19.55,33.5 -22,34.93 -5.5,-4.14 -6.54,-7.49 -10.34,-14.44 -4.02,-7.33 -20.43,-38.6 -26,-42.64 -6.64,-4.82 -1.51,-5.81 -5.01,-10.08 -3.25,0.63 -2.8,0.97 -3.35,4.81 -0.29,2.01 -0.54,3.84 -0.96,6 -1.84,9.4 -16.64,78 -16.23,81.79 4.46,2.74 25.27,18.54 26.58,23.9l-55.19 -1.17c-7.03,-0.12 -31.65,1.41 -36.24,-0.04 -0.16,-4.13 3.23,-5.36 6.3,-7.65 33.68,-25.03 24.87,-15.77 29.9,-41.85 1.56,-8.09 3.52,-15.64 5.16,-23.72 6.32,-31.19 13.89,-62.74 20.81,-93.9l36.72 -164.68c1.23,-5.7 4.74,-18.1 4.54,-23.8zm38.33 435.61c4.72,5.52 9.49,1.27 8.16,-2.82 -1.14,-3.51 -8.94,-4.93 -8.16,2.82zm-30.02 -6.15c-2.88,3.52 -3.77,4.57 -0.09,8.48 4.28,0.03 2.77,-0.01 5.75,-2 0.46,-5.45 -0.39,-6.51 -5.66,-6.48zm-87.42 -20.12c3.01,0.33 1.49,-1.26 3.75,-4.51 1.25,-1.8 0.16,-0.16 1.15,-1.2 2.68,0.03 6.83,1.19 8.7,2.24 3.04,1.72 2.94,3.17 6.18,3.89l1.5 -1.29c-2.94,-8.57 -26.55,-12.84 -21.28,0.87zm186.71 2.96c6.15,2.62 8.05,-6.55 17.14,0.56 -0.04,4.36 0.03,2.77 -1.31,6.14 2.4,2.31 0.22,1.04 3.1,1.78 3.06,-4.98 1.7,-12.92 -4.21,-13.95 -4.7,-0.81 -13.91,0.21 -14.72,5.47zm-194.52 -323.31c-1.19,4.52 11.88,10.36 18.95,10.36 6.07,0 7.63,0.46 12.94,-1.11 4.17,-1.24 4.29,-0.33 5.01,-3.85 -5.87,0.33 -18.26,5.97 -30.07,-1.62 -2.69,-1.73 -4.05,-4.68 -6.83,-3.78zm194.5 9.58c1.14,3.82 8.5,3.91 12.48,3.9 11.46,-0.01 21.56,-3.48 28.52,-12.13 2.04,-2.53 1.39,-6.2 -3.75,-0.56 -3.77,4.13 -8.45,7.15 -15.12,9.05 -9.61,2.75 -18.28,-1.07 -19.8,-1.05 -3.68,0.04 -1.4,0.22 -2.33,0.79zm6.23 27.3c8.13,0 13.86,-3.02 19.08,-8.24 1.7,-1.7 16.2,-16.31 16.49,-17.72 0.63,-3.05 0.18,-0.23 -0.37,-1.47 -1.88,-1.84 -4.74,2.78 -7.94,6.36 -4.43,4.97 -10.94,12.32 -16.48,15.47 -1.11,0.64 -4.42,2.05 -5.53,2.27 -4.4,0.9 -4.88,-1.44 -5.25,3.33zm3.78 30.6c4.76,1.57 22.58,-22.43 24.75,-26.19l4.83 -8.6c1.92,-3.88 0.14,-4.86 -1.93,-2.76l-4.79 8.61c-2.94,4.89 -4.32,6.84 -7.31,10.66 -2.55,3.27 -5.25,6.3 -7.94,9.22 -2.78,3.01 -7.59,6.08 -7.95,7.56 -0.7,2.94 -0.07,0.49 0.34,1.5zm-173.86 -32.16c-0.28,-4.86 -0.69,-2.52 -5.32,-3.3 -1.75,-0.29 -4.67,-1.47 -6.34,-2.2 -18.55,-8.13 -23.8,-28.34 -26.87,-25.24 -2.23,2.26 10.78,17.48 13.97,20.16 6.03,5.07 13.15,10.54 24.56,10.58zm-36.96 -11.98c-1.05,3.92 11.96,19.99 13.8,22.62 3.57,5.13 8.09,11.59 10.48,17.64 2.84,7.21 1.35,5.55 4.1,5.9 3.23,-5.53 -17.74,-31.87 -23.66,-41.72 -3.66,-6.09 -1.58,-5.3 -4.72,-4.44zm122.65 304.77c-4.33,-0.23 -3.75,2.02 -3.68,6.01l0.45 19.74c0.17,3.92 -1.48,2.93 -1.46,7.83 11.12,5.82 5.78,-6.64 5.77,-6.68 -1.13,-4.42 1.35,-21.57 -1.08,-26.9zm-95.03 -389.53c-1.43,-5.42 -14.55,-5.59 -19.16,-20.62 -1.45,-4.75 0.62,-11.68 5.04,-10.54 3.09,0.8 4.09,2.97 3.06,6.84 -0.79,2.96 -2.71,1.73 -1.4,5.53 3.53,-0.9 4.63,-3.68 4.64,-7.74 0.01,-15.75 -24.64,-6.4 -11.54,13.88 1.93,2.99 13.94,14.99 19.36,12.65zm56.93 399.46c7.75,0 18.24,-5.11 22.63,-8.57 11.72,-9.25 10.07,-12.18 14.17,-16.12 1.6,1.54 6.53,8.34 11.09,12.64 1.34,1.26 2.86,2.32 4.37,3.5 2.72,2.13 16.22,11.61 20.18,9.33 -0.4,-4.6 -8.14,-2.27 -20.76,-13.44 -10.33,-9.14 -12.27,-16.58 -16.56,-18.18 -0.75,10.3 -14.9,22.45 -25.92,26.02 -13.75,4.45 -12.05,-0.92 -13.09,4.04l3.89 0.78zm154.29 -190.37c-7.85,11.08 -17.14,9.94 -20.6,13.13 14.64,10.25 28.7,24.08 20.82,42.3 -4.89,11.29 -9.11,2.65 -10.04,-1.77 2.05,-2.15 2.76,-1.19 2.77,-4.31 -9.1,0.41 -4.86,9.85 -1.34,13.03 1.89,1.7 2.78,1.61 6.31,1.6 11.09,-13.13 9.51,-27.72 -1.95,-40.24 -3,-3.29 -7.33,-6.68 -9.79,-9.69 1.1,-1.24 16.91,-7.4 19.39,-17.97 -5.26,0.06 -8.69,0.64 -13.32,-1.42 -5.96,-2.64 -5.32,-5.02 -9.02,-5.38 -0.46,4.7 7.88,8.42 11.49,9.17 0.79,0.16 1.7,0.21 2.66,0.43 2.86,0.68 1.28,0.11 2.62,1.12zm-242.27 142.78c5.17,3.83 90.51,-4.14 103.42,3.14 -0.8,3.28 -5.53,4.98 0.95,7.76 3.69,-1.75 4.03,-4.06 3.82,-8.82 -6.88,-5.79 -13.95,-4.83 -24.11,-4.97l-73.34 0.19c-7.76,0.08 -9.76,-0.91 -10.74,2.7zm253.4 -1.71c-16.05,0.19 -97.62,-3.16 -102.05,0.15 0.55,0.77 -0.48,1.35 1.55,2.16l54.45 0.55c9.43,0.03 18.69,0.13 28.09,0.2 7.37,0.06 22.16,-1.91 24.15,4.89 -4.01,2.3 -5.21,0.75 -5.3,6.44l2.81 2.78c10.21,-0.21 10.85,-17.35 -3.7,-17.17zm-131.09 -152.84c2.92,-0.02 2.14,1.45 2.8,-2.31l-0.15 -16.28c-0.66,-7.14 0.4,-3.04 1.56,-8.55 2.19,-10.35 10.77,-40.23 8.96,-43.56 -4.02,1.55 -9.63,32.01 -12.14,40.29 -1.47,-8.02 -2.84,-15.79 -4.69,-23.68 -8.47,-36.02 -1.5,-3.7 3.5,-44.18 0.61,-4.92 4.96,-21.35 3.28,-24.24 -3.31,0.41 -2.59,1.08 -3.37,5.24 -1.83,9.76 -5.1,32.43 -8.21,38.67 -3.59,7.22 -3.82,4.76 -1.4,13.59 3.7,13.53 7.66,33.07 8.98,47.29 0.43,4.68 -1.23,14.28 0.88,17.72zm-136.53 -142.71c-0.02,25.3 7.96,35.73 19.14,58.08 8.43,16.85 18.2,30.49 22.56,49.2 2.83,12.12 -0.18,30.52 -14.4,33.08 0.32,-12.6 -13.26,-6.11 -6.7,1.34 2.45,2.78 4.66,1.84 10.05,1.48l0.8 4.68c-2.41,0.86 -5.11,1.73 -7.57,3.21 -1.35,0.8 -2.13,1.37 -3.38,2.06 -3.01,1.67 -6.65,2.58 -0.18,10.7 3.67,4.61 11.5,3.96 5.69,9.58 -2.72,2.63 -13.52,25.1 -13.53,32.57 -0.01,10.02 0.9,12.51 11.1,12.48 4.26,-5.27 4.51,-2.62 4.5,-10.92 0,-2.4 -0.33,-2.65 -1.23,-4.22 -1.63,-2.87 0.37,-1.74 -3.58,-2.23 0.65,6.61 2.18,-0.72 1.69,12.22 -3.76,2.46 0.16,1.98 -7.02,2.02l-2.28 -2.28c-3.15,-6.54 6.86,-29.98 11.08,-35.75 1.1,-1.51 5.03,-1.78 4.94,-10.14 -4.76,-4.02 -9.3,-2.89 -10.84,-10.62l14.49 -6.58c-0.02,-4.73 -1.21,-4.93 -2.04,-8.74 10.39,-8.83 11.97,-10.5 11.96,-26.53 0,-18.01 -9.73,-31.76 -15.93,-43.34 -8,-14.95 -22.93,-42.79 -25.89,-57.56 -4.12,-20.54 6.5,-35.22 6.34,-39.93 -5.93,-0.63 -9.75,22.21 -9.77,26.14zm239.74 -74.15c0.5,-4.35 -3.74,-0.08 -2.55,-11.66 2.5,-1.9 5.23,-2.67 7.61,-0.6 4.04,3.5 4.82,12.1 1.7,17.66 -3.7,6.6 -18.76,13.07 -27.19,17.32 -3.56,1.79 -5.05,3.67 -8.87,5.95 -4.69,2.8 -14.72,8.96 -15.31,14.09 4.17,0.14 4.14,-2.24 6.85,-4.58 1.24,-1.08 5.51,-3.11 7.44,-4.27 5.54,-3.35 8.69,-6.17 16.81,-6.62 8.72,-0.48 13.81,-0.43 20.85,2.58 2.97,1.27 5.17,2.44 7.08,4.68 0.61,0.7 0.67,0.9 1.28,1.83 0.1,0.14 0.21,0.34 0.3,0.48 10.31,15.82 -0.99,34.79 -12.39,37.19 -18.82,3.96 -28.07,-14.15 -17.09,-21.17 0.9,0.81 0.37,0.08 1.19,1.33 0.78,1.17 1.12,2.9 3.28,3.8 8.26,3.41 10.73,-11.34 -2.48,-9.18 -14.08,2.3 -12.6,28.46 8.15,28.45 8.44,-0.01 14,-1.33 19.38,-7.89 3.82,-4.67 5.17,-8.96 6.32,-14.76l0.82 -2.62c7.45,15.1 6.89,47.51 1.8,64.53 -2.76,9.22 -6.12,17.89 -10.29,24.82 -2.11,3.49 -4.08,7.15 -6.03,11.07 -4.83,9.72 -22.73,60.76 -0.3,60.6l3.1 -0.02c2.54,-3.51 3.64,-2.57 3.07,-9.27 -1.85,-0.67 -2.19,-1.05 -4.51,-0.76 -0.17,5.22 3.38,1 0.94,6.41 -6.39,2.55 -10.11,-2.19 -10.52,-8.02 -1.03,-14.69 5.37,-36.9 11.18,-48.28 14.63,-28.63 20.15,-36.38 20.15,-71.14 0.01,-14.4 -4.01,-28.98 -10.63,-41.64l-0.52 -1.07c-0.08,-0.16 -0.19,-0.35 -0.27,-0.51 -0.08,-0.16 -0.2,-0.35 -0.28,-0.5 -0.5,-0.96 -0.49,-1.06 -1.01,-2.1 -2.03,-4.04 -6.66,-7.25 -11.04,-9.22 -7.98,-3.58 -14.61,-2.48 -23.96,-2.76 7.47,-7.92 27.43,-7.04 27.43,-27.24 -0.01,-16.03 -17.47,-17.72 -17.24,-4.68 0.05,3.14 1.54,7 3.13,7.96 2.87,1.74 2.59,-0.17 2.62,-0.19zm21.49 326.16c-2.09,-7.59 -7.32,-4.06 -12.35,-3.22 -6.85,-6 -10.02,-28.77 -11.31,-39.74 -1.82,-15.52 -5.13,-29.69 -7.93,-44.82 -5.4,-29.24 -11.42,-58.5 -16.6,-87.88l-24.28 -132.5c-2.19,-11.37 -2.24,-11.66 4.18,-18.52 2.25,-2.41 11.97,-10.3 15.37,-11.39 1.09,0.08 8.97,10.18 11.51,4.14 2.2,-5.22 -8.42,-11.38 -13.32,-8.65 -4.32,5.09 -10.53,8.2 -15.32,12.58 -9.93,9.08 -7.37,12.37 -6.2,20.26 2.26,15.37 5.55,32.16 8.68,47.48 12.47,61.21 23.06,128.07 35.55,190.73 1.53,7.69 3.3,15.79 4.22,23.91 1.41,12.49 4.22,34.88 11.11,44.93 5.96,8.7 13.76,10.02 16.69,2.69zm-127.56 23.4c0.02,-7.33 -0.08,-8.29 4.42,-11.35 3.7,2.58 2.8,8.28 2.91,13.69 0.12,6.64 1.33,9.36 -2.41,13.69 -5.65,-4.22 -4.95,-6.54 -4.92,-16.03zm-39.9 -33.55c0.15,-4.56 4.13,-10.86 5.11,-17.95 0.39,-2.83 2.53,-17.08 4.22,-19.54l17.36 27.05c24.35,39.9 12.66,25.96 10.13,35.62 -0.3,1.13 -0.72,18.88 0.27,21.11 2.5,5.62 13.49,7.53 -0.39,21 -11.93,11.57 -25.37,21.09 -43.87,21.88 -7.45,0.31 -13.24,0.14 -19.52,-2.53 -6.46,-2.74 -8.15,-5.77 -7.79,-14.45 4.44,-2.33 0.13,-2.41 10.81,-4.37 14.35,-2.65 18.75,6.08 10.98,10.22 -4.79,2.54 -6.81,0.17 -8.66,0.04 -4.32,-0.31 -0.88,-0.19 -2.32,0.73 0.86,1.89 -0.43,1.21 2.43,2.38 5.69,2.33 16.01,0.55 14.85,-12.08 -5.09,-4.15 -10.29,-5.34 -17.81,-4.17 -6.47,1.01 -11.86,2.99 -13.4,8.4 -2.92,20.94 28.91,20.86 44.06,16.74 16.58,-4.5 27.67,-17.2 37.86,-26.05 18.53,18.6 29.72,27.97 56.18,28.05 14.89,0.04 25.99,-8.71 22.21,-19.1 -1.51,-4.14 -7.74,-6.46 -13.75,-7.1 -8.3,-0.88 -11.03,1.39 -15.48,4.35 -0.38,15.58 14.1,13.87 16.47,9.36 -2.4,-2.76 -0.85,-1.25 -3.5,-0.41 -2.07,0.65 -4.07,0.41 -6.34,0.41 -2.47,-3.9 -4.61,-1.35 -3.5,-8.64 8.33,-3.45 18.81,-3.27 23.41,3.17 0.66,7.68 -2.36,10.79 -8.16,12.95 -6.37,2.37 -11.57,2.24 -19.17,1.96 -14.29,-0.52 -27.14,-8.81 -35.63,-16.72 -7.02,-6.55 -13.34,-11 -9.73,-19.4 1.2,-2.8 2.92,-3.85 3.17,-7.62 0.22,-3.11 -0.02,-6.98 -0.03,-10.18 -0.01,-17.97 -3.7,-13.11 -3.46,-17.16l16.03 -28.88c2.85,-4.6 5.87,-9.09 8.9,-13.73 2.82,-4.34 8.17,-10.64 6.89,-13.71 -2.62,-0.86 -2.63,0.89 -5.11,4.58 -11.83,17.54 -18.24,28.06 -28.67,47.72 -2.65,-3.48 -6.07,-10.97 -8.78,-15.24l-22.94 -36.36c-1.97,-2.95 -2.12,-4.62 -6.18,-4.9 -3.69,4.1 -4.41,24.55 -7.22,31.77 -1.81,4.62 -4.99,8.82 -3.27,14.82 1.55,5.39 3.65,10.17 10.44,9.26 4.07,-7.55 -0.67,-6.68 -7.1,-13.28zm-36.91 -328.97c9.52,8.34 9.94,-1.94 10.15,-2.57 0.45,-1.38 0.27,-0.82 0.86,-1.69 5.88,-0.28 26.47,15.68 26.47,15.69 1.7,3.5 -7.91,46.35 -9.3,48.17 -5.75,-4.22 -20.03,-22.43 -38.99,-23.96 -19.72,-1.59 -35.51,7.95 -35.13,28.87 0.33,18.72 22.85,29.88 36.75,21.88 14.37,-8.26 9.66,-26.65 -3.16,-27.41 -7.37,-0.44 -7.44,1.46 -11.73,4.51 -0.38,5.01 0.92,6.95 5.65,7.15 3.66,-4.52 1.3,-3.7 3.88,-8.32 16.19,-1.42 16.18,24.17 -7.22,23.38 -14.52,-0.5 -26.44,-16.69 -19.66,-32.32 5.43,-12.54 20.15,-18.04 37.52,-12.99 10.26,2.99 26.95,16.23 31.16,23.32 0.9,3.39 -41.24,186.1 -44.05,200.02l-11.87 49c-2.21,6.48 -0.49,10.44 -5.52,15.21 -3.32,-2.98 -7.55,-7.56 -12.06,-1.31 1.49,8.18 11.64,9.91 17.07,0.38 4.96,-8.73 25.79,-106.65 29.21,-122.86 3.52,-16.65 7.29,-33.92 11.28,-50.38 8.06,-33.24 13.86,-66.57 22.12,-99.75l7.65 -37.47c1.65,-10.37 -4.61,-9.21 -22.81,-22.52 -10.32,-7.55 -19.11,-2.41 -18.27,5.97zm53.92 214.05c-4.57,-3.69 -4.43,-8.28 -3,-14.55l20.5 -88.71c1.37,-6.48 5.81,-31.49 9,-34.49 6.39,31.32 12.48,62.96 18.6,94.41l7.07 35.19c1.05,5.54 -0.99,7.66 -3.26,11.26 -25.41,40.26 -18.68,45.03 -35.39,19.5 -17.06,-26.05 -10.13,-15.89 -6.37,-27.72 1.57,-4.94 7.33,-31.26 5.34,-34.58 -2.97,0.96 -2.33,1.73 -3.64,9.09 -1.55,8.71 -3.74,26.28 -8.85,30.6zm23.25 -159.02c-5.7,11.71 -13.22,50.64 -15.68,65.64l-5.23 21.06c-2.75,9.2 -4.3,19.37 -6.73,28.55 -2.36,8.97 -5.24,18.74 -7.55,28.26 -3.66,15.07 -3.24,12.52 4.82,24.41 2.54,3.76 4.66,7.02 7.32,10.65l10.84 16.44c1.34,2.04 2.54,3.27 3.67,4.9 1.38,1.99 2.08,3.32 3.28,5.27l2.46 4.64c0.06,0.1 0.27,0.55 0.31,0.44 0.03,-0.11 0.2,0.29 0.31,0.42 5.41,-2.44 5.57,-4.03 8.63,-9.25l19.33 -32.93c7.81,-13.46 8.28,-8.32 4.93,-25.74l-25.62 -130.32c-1.9,-9.54 -0.68,-11.51 -5.09,-12.44zm-27 -48.28c0.22,4.46 -42.79,195.25 -42.8,195.3 -7.68,32.36 -13.96,65.16 -21.71,97.65 -2.08,8.73 -3.12,16.42 -4.4,25.33 -1.14,7.9 -3.6,7.33 -13.97,15.61 -5.62,4.49 -21.5,13.95 -22.38,22 -0.6,5.43 2.88,7.11 5.06,9.99l109.31 -0.06c0.16,-4 -2.07,-3.19 -9.88,-10.22l-10.35 -9.94c-19.08,-17.08 -17.69,-7.03 -5.83,-58.21 1.61,-6.97 4.83,-29.29 8.22,-32.82 5.93,5.63 21.58,38.42 28.07,48.09 2.16,3.21 7.12,7.06 8.74,10.02 1.86,3.42 0.15,2.5 2.98,4.09 2.09,-1.25 18.6,-27.33 21.78,-32.12 2.69,-4.06 8.98,-18.78 13.33,-19.58l13.86 63.99c-2.27,2.26 -6.44,5.07 -9.23,7.11 -3.44,2.49 -6.45,4.37 -10.28,6.88 -4.52,2.95 -18.75,10.75 -16.08,17.34l5.21 6.13 114.56 1.9c0.18,-7.97 0.98,-3.69 -7.8,-10.9l-24.08 -18.81c-3.64,-2.61 -3.95,-3.08 -5.59,-8.38 -4,-12.94 -4.98,-22.87 -7.25,-36.05l-18.4 -95.35c-8.38,-48.07 -17.58,-95.39 -27.06,-143.62l-9.38 -48.35c0.95,-3.3 33.88,-23.39 37.11,-25.74 -9.27,-13.72 -0.37,-12.09 -30.91,-12.1l-102.98 -0.22c-2.43,0 -7.05,-0.58 -8.13,1.14 -1.84,2.93 2.02,4.78 3.48,5.68l36.78 24.22z"/>
 </g>
</svg>
