<?xml version="1.0" encoding="UTF-8"?>
<!DOCTYPE svg PUBLIC "-//W3C//DTD SVG 1.1//EN" "http://www.w3.org/Graphics/SVG/1.1/DTD/svg11.dtd">
<!-- Creator: CorelDRAW 2020 (64 Bit) -->
<svg xmlns="http://www.w3.org/2000/svg" xml:space="preserve" width="512px" height="512px" version="1.1" style="shape-rendering:geometricPrecision; text-rendering:geometricPrecision; image-rendering:optimizeQuality; fill-rule:evenodd; clip-rule:evenodd"
viewBox="0 0 512 512"
 xmlns:xlink="http://www.w3.org/1999/xlink"
 xmlns:xodm="http://www.corel.com/coreldraw/odm/2003">
 <defs>
  <style type="text/css">
   <![CDATA[
    .fil1 {fill:black}
    .fil0 {fill:#BDAE74}
   ]]>
  </style>
 </defs>
 <g id="Camada_x0020_1">
  <metadata id="CorelCorpID_0Corel-Layer"/>
  <path class="fil0" d="M512 215.95l0 64.32 -1.6 0c-0.84,-4.82 -2.06,-8.87 -3.78,-11.76l-23.58 -38.14c-3.5,-4.81 -0.54,-0.37 -3.49,-4.14 -5.79,-7.41 -11.24,-16.11 -16.56,-23.92 -8.28,-11.69 -20.65,-18.86 -30.49,-28.64l-65.19 -44.82c-40.68,-20.79 -61.11,-11.04 -91.72,-9.9 5.15,-12.19 10.69,-18.81 21.52,-24.84 25.43,-14.14 67.23,-5.86 91.22,8.26 6.79,4.29 13.4,8.2 19.76,13.09 41.12,32.27 31.92,29.09 63.44,67.36 0.34,0.34 3.79,4.14 4.02,3.67 0.19,-0.43 1.02,0.64 1.52,0.99 -0.42,-9.24 -3.78,-12.07 -8.67,-19.16l-79 -98.96c-1.55,-26.27 4.88,-50.04 31.73,-58.97l21.71 0c-3.98,25.38 -17.48,51.34 0.68,80.34 4.18,6.62 6.76,13.76 10.74,20.44l29.72 47.1c4.73,9.37 7.56,8.08 11.84,18.76l9.61 25.34c2.54,11.57 -0.95,6.21 6.08,13.92l0 -1.07 0.49 0.73zm-294.6 -129.37c26.68,-8.41 13.89,-9.42 39.4,-27.4 25.1,-17.69 49.93,-9.3 52.29,-21.62 0.16,-0.86 0.71,-1.06 1.12,-1.56 2.34,4.01 1.18,8.38 10.5,9.85 7.03,1.1 10.83,0.22 19.25,1.92 -20.51,6.25 -26.87,-6.86 -60.49,8.3 -16.98,7.67 -20.77,10.88 -33.11,21.16l-21.16 11.96c-6.77,2.88 1.78,1.52 -7.09,2.32 -6.34,0.56 -2.27,0.38 -7.84,-1.43l7.13 -3.5zm69.75 -57.99c-0.4,12.62 2.59,5.77 -2.66,12.18 -9.53,-7.43 -7.74,-8.15 2.66,-12.18zm-28.15 0.2c2.97,4.21 6.66,3.43 0,12.8l-4.22 -5.24c-0.08,-0.43 -0.17,-1.33 -0.14,-1.76 0.46,-8.8 1.8,-3.88 4.36,-5.8zm-29.19 -2.8l11.26 0.26c-3.05,14.04 3.31,14.4 -10.2,18.51l-1.06 -18.77zm-109.07 31.06c-6.41,12.38 -25.22,14.8 -37.11,20.74 -9.89,4.94 -26.03,14.8 -29.63,29.98 10.26,4.35 6.37,-0.86 23.55,-0.73 37.04,0.26 42.42,5.34 68.98,-14.53l25.75 -30.35c9.23,-11.69 17.54,-23.66 34.51,-23.92 -7.73,15.86 -36.73,28.21 -28.63,71.33 11.82,1.05 13.36,-3.41 23.53,-6.44 9.81,-2.92 19.64,-0.27 29.51,-2.66 32.49,-7.86 27.69,-43.5 94.58,-39.36 23.76,1.48 35.15,11.94 53.9,14 -2.94,-18.4 -1.28,-26.17 -10.7,-32.9 -2.54,-1.82 -2.25,-1.06 -4.94,-2.68l-14.43 -8.08c-5.4,-2.14 -1.33,-0.22 -5.44,-2.19l-17.09 -6.56c-10.9,-3.34 -3.19,-1.86 -10.71,-4.49l-49.12 -10.53c-14.77,-1.76 -31.38,-1.81 -45.77,0.93 -7.78,1.49 -3.93,0.46 -13.18,1.26 -15,1.29 -61.74,18.76 -83.58,22.63 -15.15,2.68 -46.82,1.8 -62.14,-3.57 -0.59,-0.2 -1.26,-0.44 -1.83,-0.67 -11.5,-4.39 -16.77,-10.15 -25.26,-15.7 -4.68,-3.06 0.92,0.38 -4.74,-3.1 -10.48,-6.45 1.17,-3.66 -11.62,-3.39 -1.49,6.21 -2.78,1.55 -0.16,12.78 0.2,0.86 0.52,1.4 0.76,2.22 0.26,0.89 1.15,3.25 1.44,4.04 9.09,24.16 39.61,37.07 63.63,37.44 21.14,0.32 20.79,-2.61 35.94,-5.5zm197.13 412.95l55.43 -32.51c17.82,-6.9 57.84,-14 79.2,-3.55 -10.7,4.35 -46.3,-3.24 -90.28,17.01l-28.43 15.44c-7.7,4.16 -8.46,5.48 -15.92,3.61zm79.98 -55.15c12.2,-8.83 18.05,-11.61 25.99,-24.56 8.93,-14.55 11.45,-18.04 8.72,-41.23 -8.82,3.31 -17.4,8.19 -26.5,12.84 -23.75,12.14 -24.58,21.37 -34.11,33.01l-6.34 6.21c-4.45,4.57 -5.72,7.4 -9.05,11.44 -3.69,4.49 -4.83,5.12 -8.87,9.4 -27.08,28.69 -58.15,56.55 -101.56,54.44l4.76 -5.87c3.26,-2.7 17.89,-7.03 29.29,-16.78 12.94,-11.04 9.76,-19.99 13.29,-39.41 -14.34,4.5 -27.65,31.12 -57.43,38.66 -75.25,19.08 -102.42,-5.9 -133.82,-10.82 0.39,13.64 2.85,10.4 13.33,15.22 25.82,11.85 17.5,13.64 52.78,23.37 6.19,1.7 13.84,3.29 21.51,4.49l48.72 0.69c2.05,-0.05 4.65,-0.2 6.7,-0.42 17.27,-1.75 9.57,-0.92 13.62,3.67 -26.45,1.93 -60.19,8.3 -85.61,-0.32l-27.78 -9.97c-14.18,-6.21 -25.09,-14.64 -41.38,-16.25 -1.67,11.28 -4.12,7.23 4.66,13.87 3.32,2.52 0.32,0.35 4.59,3.02 3.46,2.17 0.59,0.8 5.03,2.97 53.76,26.31 132.26,31.38 184.64,9.08 53.11,-22.61 105.66,-56.01 158.36,-37.28 0.59,0.22 1.29,0.43 1.88,0.64l3.78 1.26c14.93,5.88 -2.98,-2.23 4.96,2.26 9.24,5.24 6.2,7.72 17.4,13.77 4.22,-8.06 3.64,-24.33 0.4,-32.81 -5.76,-15.11 -15.95,-23.12 -29,-29.76 -0.53,-0.26 -1.15,-0.6 -1.71,-0.86 -28.27,-13.19 -34.8,7.19 -61.25,6.03zm-397.85 -143.24c0.01,22.77 9.01,67.51 18.21,86.02l18.39 37.6c0.3,0.52 0.66,1.2 0.95,1.72l5.63 9.92c0.26,0.53 0.58,1.2 0.84,1.73l10.45 35.85c4.55,26.68 -1.49,47.24 -12.36,62.29 37.43,0.9 56.21,-34.78 49.53,-69.08l-5.86 -17.1c-0.29,-0.5 -0.75,-1.06 -1.06,-1.55 -0.43,-0.67 -1.72,-2.51 -2.15,-3.17l-22.42 -28.7c-13.14,-17.14 -10.86,-10.17 -18.69,-23.19 8.24,3.33 17.96,13.55 31.15,23.02 2.94,2.12 10.92,8.02 12.45,8.86 6.19,3.43 19.31,8.64 28.26,8.85 11.65,0.27 29.9,0.4 36.73,-1.43 1.59,-12.35 2.42,-5.61 -2.68,-8.53 -0.41,-0.24 -1.22,-0.4 -1.7,-0.61l-56.45 -23.63 -32.21 -34.12c-2.81,-4.1 -5.13,-7.45 -6.27,-9.21 -0.26,-0.41 -0.69,-1.01 -0.95,-1.42 -26.03,-42.22 -20.54,-102.3 -5.4,-143.15 7.95,-21.44 28.55,-54.17 30.28,-59.46 -7.2,-0.08 -14.03,0.64 -21.07,4.54 -11.36,6.32 -33.84,42.03 -36.07,48.51 -10.62,30.74 -17.54,56.47 -17.53,95.44zm329.61 -115.28c-16.68,-9.13 -46.3,-25.9 -69.52,-15.28 4.6,6.72 -3.06,5.32 7.95,9.67 4.36,1.73 9.17,2.13 12.32,2.48 17.39,1.96 5.84,0.18 20.15,6.72 24.47,11.19 43.95,37.25 58.43,58.9l18.02 40.78c0.17,0.62 0.34,1.32 0.5,1.93 0.1,0.37 1.53,5.71 1.55,5.77 4.76,20.54 2.38,56.56 -2.86,73.19 -8.09,25.65 -18.58,41.45 -34.93,61.74 -4.14,5.12 -10.11,13.63 -14.99,18.81l-15.81 17.18c-4.9,5.84 -8.56,5.75 -14.79,14.51 6.19,-0.08 2.61,1.47 9.33,-2.13 0.11,-0.05 3.83,-2.81 4.55,-3.34 13.91,-10.21 28.42,-22.46 39.76,-36.42 15.68,-19.29 13.11,-27.29 46.52,-51.23 8.93,-6.4 24.35,-12.85 29.59,-18.92 5.44,-6.29 11.65,-24.75 12.26,-35.37 4.31,-75.86 17.98,-58 21.86,-74.68 -2.97,-2.61 3.55,-7.2 -12.07,-1.85 -4.82,1.65 -8.74,2.89 -13.02,5.18 -27.19,14.57 -21.91,49.39 -33.05,65.66 -6.81,-31.25 11.99,-46.95 -25.7,-97.61l-13.85 -16.5c-10.77,-12.48 -19.1,-22.01 -32.2,-29.19z"/>
  <path class="fil1" d="M167.01 251.8l19.99 0 0 120 -21 0 0.01 30 129.99 0.01 0 -30.01 -19.01 0 0.01 -150 -110 0 0 3 0.01 27zm63.26 -149.83c-12.2,1.24 -23.17,5.11 -31.01,14.09 -5.98,6.86 -13.27,18.33 -12.08,32.63 0.96,11.51 5.43,23.43 14.07,30.83 7,6.01 18.39,13.28 32.66,12.11 7.09,-0.58 12.63,-1.87 17.88,-4.56 14.16,-7.27 26.74,-23.05 25.05,-42.13 -0.99,-11.17 -5.4,-23.66 -14.12,-30.85 -4.54,-3.75 -7.61,-6.52 -13.65,-8.87 -4.86,-1.88 -12.85,-3.86 -18.8,-3.25z"/>
 </g>
</svg>
