<?xml version="1.0" encoding="UTF-8"?>
<!DOCTYPE svg PUBLIC "-//W3C//DTD SVG 1.1//EN" "http://www.w3.org/Graphics/SVG/1.1/DTD/svg11.dtd">
<!-- Creator: CorelDRAW 2020 (64 Bit) -->
<svg xmlns="http://www.w3.org/2000/svg" xml:space="preserve" width="512px" height="512px" version="1.1" style="shape-rendering:geometricPrecision; text-rendering:geometricPrecision; image-rendering:optimizeQuality; fill-rule:evenodd; clip-rule:evenodd"
viewBox="0 0 512 512"
 xmlns:xlink="http://www.w3.org/1999/xlink"
 xmlns:xodm="http://www.corel.com/coreldraw/odm/2003">
 <defs>
  <style type="text/css">
   <![CDATA[
    .fil2 {fill:black}
    .fil1 {fill:#BDAE74}
    .fil0 {fill:white}
   ]]>
  </style>
 </defs>
 <g id="Camada_x0020_1">
  <metadata id="CorelCorpID_0Corel-Layer"/>
  <circle class="fil0" cx="256" cy="256" r="256"/>
  <path class="fil1" d="M468.07 224.78l0 50.14 -1.25 0c-0.65,-3.75 -1.6,-6.91 -2.95,-9.17l-18.38 -29.73c-2.72,-3.75 -0.42,-0.29 -2.72,-3.23 -4.51,-5.77 -8.76,-12.56 -12.91,-18.64 -6.45,-9.12 -16.1,-14.71 -23.77,-22.33l-50.82 -34.94c-31.71,-16.21 -47.64,-8.61 -71.5,-7.72 4.01,-9.5 8.33,-14.66 16.78,-19.36 19.82,-11.03 52.4,-4.57 71.11,6.43 5.29,3.35 10.44,6.4 15.4,10.21 32.06,25.16 24.88,22.68 49.46,52.51 0.26,0.27 2.96,3.23 3.13,2.86 0.15,-0.34 0.8,0.5 1.18,0.78 -0.32,-7.21 -2.94,-9.41 -6.75,-14.94l-61.59 -77.15c-1.21,-20.48 3.81,-39 24.74,-45.97l16.93 0c-3.11,19.79 -13.63,40.03 0.52,62.63 3.26,5.17 5.27,10.73 8.38,15.93l23.16 36.73c3.69,7.3 5.89,6.29 9.24,14.62l7.49 19.75c1.97,9.02 -0.74,4.84 4.74,10.85l-0.01 -0.83 0.39 0.57zm-229.66 -100.85c20.8,-6.56 10.82,-7.35 30.71,-21.36 19.57,-13.8 38.93,-7.25 40.76,-16.86 0.13,-0.66 0.56,-0.83 0.88,-1.21 1.83,3.12 0.92,6.53 8.19,7.67 5.47,0.86 8.43,0.17 15,1.5 -15.99,4.88 -20.95,-5.35 -47.16,6.47 -13.23,5.98 -16.19,8.48 -25.81,16.5l-16.49 9.32c-5.28,2.25 1.39,1.19 -5.53,1.81 -4.94,0.43 -1.77,0.29 -6.11,-1.12l5.56 -2.72zm54.38 -45.21c-0.32,9.84 2.01,4.5 -2.08,9.5 -7.43,-5.8 -6.03,-6.36 2.08,-9.5zm-21.95 0.16c2.32,3.28 5.19,2.67 0,9.97l-3.29 -4.08c-0.07,-0.34 -0.13,-1.04 -0.11,-1.37 0.36,-6.86 1.4,-3.03 3.4,-4.52zm-22.75 -2.18l8.77 0.19c-2.37,10.95 2.58,11.23 -7.95,14.43l-0.82 -14.62zm-85.04 24.2c-4.99,9.65 -19.66,11.54 -28.92,16.17 -7.72,3.86 -20.3,11.54 -23.1,23.38 8,3.38 4.96,-0.68 18.35,-0.58 28.88,0.21 33.08,4.16 53.78,-11.32l20.08 -23.66c7.19,-9.12 13.67,-18.44 26.9,-18.65 -6.03,12.37 -28.64,21.99 -22.32,55.61 9.22,0.81 10.41,-2.66 18.34,-5.02 7.65,-2.27 15.31,-0.21 23,-2.07 25.33,-6.13 21.6,-33.92 73.74,-30.69 18.52,1.15 27.4,9.31 42.02,10.92 -2.3,-14.35 -1,-20.4 -8.35,-25.65 -1.97,-1.42 -1.75,-0.83 -3.85,-2.09l-11.25 -6.3c-4.21,-1.67 -1.03,-0.17 -4.24,-1.71l-13.32 -5.11c-8.5,-2.61 -2.49,-1.45 -8.34,-3.5l-38.3 -8.21c-11.51,-1.37 -24.47,-1.41 -35.68,0.73 -6.07,1.15 -3.06,0.35 -10.27,0.97 -11.7,1.01 -48.13,14.63 -65.16,17.65 -11.81,2.09 -36.5,1.4 -48.44,-2.78 -0.46,-0.16 -0.99,-0.35 -1.43,-0.53 -8.97,-3.42 -13.08,-7.91 -19.69,-12.23 -3.65,-2.39 0.71,0.29 -3.7,-2.42 -8.17,-5.03 0.91,-2.86 -9.05,-2.65 -1.17,4.85 -2.17,1.21 -0.13,9.97 0.16,0.66 0.41,1.09 0.59,1.73 0.2,0.69 0.9,2.53 1.13,3.14 7.08,18.84 30.87,28.91 49.6,29.19 16.48,0.25 16.2,-2.03 28.01,-4.29zm153.68 321.93l43.21 -25.35c13.89,-5.37 45.09,-10.91 61.74,-2.76 -8.34,3.38 -36.09,-2.53 -70.38,13.26l-22.16 12.04c-6,3.24 -6.59,4.27 -12.41,2.81zm62.35 -42.99c9.51,-6.89 14.07,-9.06 20.26,-19.15 6.96,-11.35 8.93,-14.07 6.8,-32.15 -6.88,2.58 -13.57,6.39 -20.66,10.02 -18.52,9.46 -19.16,16.66 -26.59,25.73l-4.94 4.84c-3.48,3.56 -4.47,5.77 -7.06,8.92 -2.87,3.5 -3.76,3.99 -6.91,7.32 -21.11,22.37 -45.34,44.09 -79.17,42.45l3.71 -4.58c2.54,-2.1 13.94,-5.48 22.83,-13.08 10.08,-8.61 7.61,-15.58 10.36,-30.72 -11.17,3.51 -21.55,24.25 -44.77,30.14 -58.66,14.87 -79.84,-4.6 -104.32,-8.44 0.3,10.63 2.22,8.11 10.39,11.86 20.13,9.25 13.64,10.64 41.14,18.22 4.83,1.33 10.79,2.57 16.77,3.5l37.99 0.54c1.59,-0.04 3.62,-0.16 5.22,-0.32 13.46,-1.37 7.46,-0.73 10.62,2.86 -20.63,1.5 -46.93,6.46 -66.74,-0.26l-21.66 -7.77c-11.06,-4.84 -19.56,-11.41 -32.26,-12.66 -1.3,8.78 -3.21,5.63 3.63,10.81 2.59,1.96 0.25,0.27 3.59,2.35 2.69,1.7 0.45,0.62 3.91,2.31 41.91,20.52 103.11,24.47 143.95,7.08 41.39,-17.62 82.36,-43.66 123.44,-29.05 0.46,0.16 1.01,0.33 1.47,0.49l2.95 0.98c11.64,4.59 -2.33,-1.74 3.86,1.77 7.21,4.08 4.84,6.01 13.57,10.73 3.29,-6.29 2.83,-18.97 0.31,-25.58 -4.49,-11.78 -12.43,-18.02 -22.61,-23.2 -0.41,-0.2 -0.89,-0.47 -1.33,-0.67 -22.04,-10.28 -27.13,5.61 -47.75,4.71zm-310.15 -111.67c0.01,17.75 7.03,52.62 14.2,67.06l14.34 29.31c0.22,0.41 0.51,0.93 0.74,1.34l4.38 7.73c0.21,0.41 0.45,0.94 0.66,1.35l8.15 27.95c3.54,20.8 -1.17,36.83 -9.64,48.56 29.18,0.7 43.82,-27.12 38.61,-53.86l-4.57 -13.33c-0.23,-0.39 -0.58,-0.82 -0.83,-1.21 -0.33,-0.51 -1.33,-1.95 -1.67,-2.47l-17.47 -22.37c-10.25,-13.36 -8.48,-7.93 -14.58,-18.08 6.43,2.6 14,10.57 24.29,17.95 2.29,1.65 8.51,6.25 9.7,6.91 4.83,2.67 15.06,6.73 22.03,6.9 9.08,0.21 23.31,0.31 28.64,-1.12 1.24,-9.63 1.88,-4.37 -2.1,-6.65 -0.32,-0.18 -0.95,-0.31 -1.32,-0.48l-44 -18.42 -25.12 -26.59c-2.18,-3.2 -3.99,-5.81 -4.89,-7.19 -0.2,-0.31 -0.53,-0.78 -0.73,-1.1 -20.3,-32.91 -16.02,-79.75 -4.21,-111.6 6.19,-16.71 22.26,-42.23 23.6,-46.35 -5.61,-0.06 -10.94,0.5 -16.42,3.54 -8.86,4.93 -26.38,32.77 -28.13,37.82 -8.27,23.96 -13.66,44.02 -13.66,74.4zm256.95 -89.87c-13,-7.12 -36.09,-20.19 -54.19,-11.91 3.58,5.24 -2.39,4.15 6.19,7.54 3.4,1.34 7.16,1.66 9.61,1.93 13.56,1.53 4.55,0.14 15.7,5.24 19.08,8.72 34.27,29.04 45.55,45.91l14.06 31.8c0.13,0.48 0.26,1.03 0.39,1.5 0.07,0.29 1.19,4.45 1.21,4.5 3.71,16.02 1.85,44.09 -2.24,57.05 -6.31,20 -14.48,32.32 -27.23,48.13 -3.22,4 -7.88,10.63 -11.68,14.67l-12.33 13.39c-3.81,4.56 -6.67,4.49 -11.52,11.32 4.82,-0.07 2.03,1.14 7.26,-1.66 0.09,-0.05 2.99,-2.2 3.56,-2.61 10.84,-7.96 22.15,-17.51 30.99,-28.39 12.22,-15.04 10.22,-21.28 36.26,-39.94 6.97,-4.99 18.99,-10.02 23.07,-14.75 4.24,-4.9 9.09,-19.3 9.56,-27.57 3.36,-59.14 14.01,-45.22 17.04,-58.22 -2.31,-2.03 2.77,-5.61 -9.41,-1.44 -3.75,1.29 -6.81,2.25 -10.15,4.04 -21.19,11.36 -17.08,38.5 -25.76,51.18 -5.31,-24.36 9.34,-36.6 -20.04,-76.1l-10.8 -12.86c-8.39,-9.73 -14.88,-17.16 -25.1,-22.75z"/>
  <path class="fil2" d="M199.12 252.73l15.59 0 0 93.54 -16.37 0.01 0 23.38 101.34 0.01 0 -23.39 -14.81 0 0 -116.94 -85.75 0 0 2.34 0 21.05zm49.32 -116.81c-9.51,0.97 -18.06,3.99 -24.17,10.99 -4.66,5.34 -10.34,14.28 -9.42,25.44 0.75,8.97 4.24,18.26 10.97,24.03 5.46,4.68 14.33,10.35 25.46,9.44 5.53,-0.46 9.84,-1.45 13.94,-3.56 11.03,-5.66 20.84,-17.96 19.52,-32.84 -0.77,-8.71 -4.2,-18.44 -11,-24.05 -3.54,-2.92 -5.93,-5.08 -10.64,-6.91 -3.79,-1.47 -10.02,-3.01 -14.66,-2.54z"/>
 </g>
</svg>
