<?xml version="1.0" encoding="UTF-8"?>
<!DOCTYPE svg PUBLIC "-//W3C//DTD SVG 1.1//EN" "http://www.w3.org/Graphics/SVG/1.1/DTD/svg11.dtd">
<!-- Creator: CorelDRAW 2020 (64 Bit) -->
<svg xmlns="http://www.w3.org/2000/svg" xml:space="preserve" width="512px" height="512px" version="1.1" style="shape-rendering:geometricPrecision; text-rendering:geometricPrecision; image-rendering:optimizeQuality; fill-rule:evenodd; clip-rule:evenodd"
viewBox="0 0 512 512"
 xmlns:xlink="http://www.w3.org/1999/xlink"
 xmlns:xodm="http://www.corel.com/coreldraw/odm/2003">
 <defs>
  <style type="text/css">
   <![CDATA[
    .fil2 {fill:black}
    .fil1 {fill:#FC1216}
    .fil0 {fill:white}
   ]]>
  </style>
 </defs>
 <g id="Camada_x0020_1">
  <metadata id="CorelCorpID_0Corel-Layer"/>
  <path id="fundo" class="fil0" d="M240.36 0.47c-135.99,8.06 -248.44,124.5 -239.84,271.7 7.87,134.74 124.39,248 271.51,239.37 38.13,-2.24 72.51,-13.13 100.59,-27.41 39.36,-20.03 76.85,-53.85 100.07,-91.84 8.7,-14.22 15.07,-26.21 21.62,-42.37 12.47,-30.73 19.37,-70.49 17.26,-109.77 -7.28,-135.16 -125.09,-248.35 -271.21,-239.68z"/>
  <path id="marcador" class="fil1" d="M119.92 301.59c15.95,-4.1 27.37,7.47 30.39,18.42 4.02,14.6 -6.96,27.81 -18.64,30.5 -15.03,3.45 -27.6,-6.52 -30.5,-18.07 -1.87,-7.45 -0.24,-15.17 3.62,-20.63 3.45,-4.91 7.47,-8.25 15.13,-10.22zm-0.68 -28.75c-16.87,2.83 -30.95,10.69 -39.4,25.32 -10.41,18.02 -9.68,31.55 -1.93,50.81 8.71,21.64 28.17,51.25 42.27,70.84 6.96,9.69 11.49,-0.56 16.83,-8.2 14.53,-20.81 32.29,-48.74 40.18,-72.92 5.84,-17.89 -1.55,-38.38 -11.48,-48.33 -5.8,-5.81 -9.85,-9.67 -18.8,-13.52 -7.41,-3.19 -18.03,-5.61 -27.67,-4z"/>
  <path id="bandeira" class="fil1" d="M440.02 160.36l0.01 -57.83c-2.63,-3.09 -3.52,-4.1 -6.98,-6.34 -18.32,-11.81 -34.78,0.35 -51.86,6.87 -6.44,2.47 -16.52,4.39 -21.43,-0.89 -0.13,-3.17 0.33,-9.23 -0.71,-11.8 -0.87,-2.19 -4.98,-6.02 -9.39,-4.01 -0.14,0.07 -0.59,0.23 -0.74,0.3 -1.53,0.71 -0.18,-0.37 -1.79,1.28 -3.9,3.99 -2.33,7.4 -2.32,16.64l0 139.21c-0.01,3.07 0.14,7.14 4.25,8.58 4.09,1.43 6.55,0.14 8.88,-2.13 2.3,-2.23 1.78,-7.27 1.77,-11.06l0.02 -63.46c-0.09,-8.77 0.13,-2.42 11.74,-3.07 2.43,-0.14 2.13,-0.79 5.1,-1.02 2.3,-0.17 7.66,-2.04 9.83,-2.97l2.08 -0.97c0.51,-0.21 0.59,-0.18 1.15,-0.4 0.13,-0.06 0.92,-0.43 1.07,-0.49 13.27,-5.44 24.37,-13.71 37.56,-4.92 1.23,0.83 2.15,2.16 3.96,2.72 1.67,0.52 3.21,0.4 4.94,-0.43 1.68,-0.81 2.42,-2.51 2.86,-3.81z"/>
  <path id="contas" class="fil2" d="M308.31 377.59c-9.89,3.12 -5.25,18.29 4.8,15.11 9.88,-3.13 5.46,-18.36 -4.8,-15.11zm-75.48 -99.61c-10.73,3.05 -6.01,17.6 3.8,15.22 9.34,-2.27 6.25,-18.07 -3.8,-15.22zm38.91 116.18c-10.06,4.04 -4.07,17.96 5.27,14.71 9.36,-3.27 4.8,-18.74 -5.27,-14.71zm55.28 -48.65c-10.01,2.69 -7.31,17.24 4.01,15.11 3.35,-0.64 6.68,-4.86 5.35,-9.62 -1.01,-3.6 -4.52,-6.8 -9.36,-5.49zm-98.48 68.19c1.31,9.89 16.92,8.64 15.44,-2.56 -1.24,-9.37 -16.9,-8.39 -15.44,2.56zm72.02 -97.16c-10.89,4.35 -4,17.89 4.96,14.82 9.87,-3.37 4.56,-18.63 -4.96,-14.82zm25.25 -78.08c-9.9,3.82 -3.7,18.43 5.8,14.61 9.47,-3.82 4.24,-18.48 -5.8,-14.61zm-38.59 0.35c-9.69,2.83 -5.05,18.14 4.97,14.78 9.28,-3.11 6.31,-18.08 -4.97,-14.78zm-123.54 182.06c3.68,-10.39 -12.12,-14.34 -14.82,-5.45 -3.44,11.3 11.58,14.58 14.82,5.45zm101.06 -122.33c-2.81,1.06 -3.03,1.04 -4.3,3.65 -3.39,6.98 3.91,13.96 10.58,10.67 9.17,-4.52 3.17,-17.9 -6.28,-14.32zm-75.65 120.8c1.64,10.58 16.9,8.18 15.72,-2.08 -1.16,-10 -17.35,-8.45 -15.72,2.08zm58.84 -173.26c-9.79,3.8 -3.77,18.79 5.91,14.7 3.29,-1.39 6.17,-5.32 4.58,-9.87 -1.3,-3.72 -5.44,-6.78 -10.49,-4.83z"/>
 </g>
</svg>
