<?xml version="1.0" encoding="UTF-8"?>
<!DOCTYPE svg PUBLIC "-//W3C//DTD SVG 1.1//EN" "http://www.w3.org/Graphics/SVG/1.1/DTD/svg11.dtd">
<!-- Creator: CorelDRAW 2020 (64 Bit) -->
<svg xmlns="http://www.w3.org/2000/svg" xml:space="preserve" width="512px" height="512px" version="1.1" style="shape-rendering:geometricPrecision; text-rendering:geometricPrecision; image-rendering:optimizeQuality; fill-rule:evenodd; clip-rule:evenodd"
viewBox="0 0 512 512"
 xmlns:xlink="http://www.w3.org/1999/xlink"
 xmlns:xodm="http://www.corel.com/coreldraw/odm/2003">
 <defs>
  <style type="text/css">
   <![CDATA[
    .fil0 {fill:black;fill-rule:nonzero}
   ]]>
  </style>
 </defs>
 <g id="Camada_x0020_1">
  <metadata id="CorelCorpID_0Corel-Layer"/>
  <g>
   <path id="Bombing" class="fil0" d="M8.09 410.14l9.44 8.45c0.34,0.24 0.62,0.55 0.85,0.9 0.19,-0.38 0.44,-0.71 0.75,-0.99l8.44 -9.45c1.04,-1.16 1.46,-0.7 1.53,0.48 0.08,1.18 0.8,13.05 0.87,14.05 0,0.09 0.01,0.17 0.01,0.25 0,0.78 -0.35,1.5 -0.95,1.99l-5.85 6.54c5.88,1.46 10.12,6.59 10.47,12.63 0.18,3.28 1.18,21.17 1.36,24.45 0.43,7.63 -5.41,14.16 -13.04,14.59 -7.62,0.43 -14.16,-5.41 -14.58,-13.04 -0.18,-3.28 -1.18,-21.17 -1.37,-24.44 -0.01,-0.27 -0.02,-0.53 -0.02,-0.8 0,-5.79 3.6,-10.96 9.02,-12.98l-6.54 -5.84c-0.72,-0.46 -1.16,-1.26 -1.16,-2.12 0,0 0,0 0,-0.01 -0.06,-0.98 -0.66,-12.87 -0.72,-14.04 -0.06,-1.18 0.3,-1.69 1.49,-0.62l0 0zm85.47 -35.44c0.45,1.09 5.02,12.07 5.41,12.98 0.29,0.81 0.98,1.41 1.82,1.6l8.12 3.31c-3.13,2.62 -4.93,6.5 -4.93,10.59 0,1.85 0.36,3.67 1.09,5.38 1.27,3.02 8.25,19.52 9.52,22.56 2.97,7.03 11.09,10.33 18.12,7.36 7.04,-2.97 10.34,-11.08 7.37,-18.12 -1.27,-3.03 -6.3,-24.42 -7.57,-27.45 -2.35,-5.61 -10.05,-4.14 -16.1,-3.54l3.31 -8.13c0.23,-0.4 0.36,-0.87 0.36,-1.33 0,-0.38 -0.08,-0.75 -0.24,-1.09 -0.39,-0.92 -5.07,-11.8 -5.55,-12.94 -0.48,-1.13 -0.98,-1.38 -1.61,0.06l-4.77 11.74c-0.18,0.38 -0.31,0.79 -0.36,1.2 -0.33,-0.25 -0.7,-0.44 -1.09,-0.57l-11.74 -4.77c-1.4,-0.56 -1.61,0.09 -1.16,1.15l0 0.01zm89.19 -59.11c0.69,0.92 7.7,10.57 8.3,11.35 0.46,0.71 1.25,1.15 2.1,1.15l8.68 1.3c-1.74,2.37 -2.68,5.23 -2.68,8.18 0,2.97 0.95,5.86 2.72,8.24 1.94,2.64 12.59,17.06 14.54,19.7 4.47,6.34 13.28,7.76 19.52,3.16 6.24,-4.61 7.47,-13.45 2.73,-19.59 -1.94,-2.65 -12.59,-17.06 -14.54,-19.7 -2.61,-3.53 -6.74,-5.61 -11.13,-5.61 -1.55,0 -3.1,0.26 -4.56,0.77l1.3 -8.67c0.07,-0.25 0.12,-0.51 0.12,-0.78 0,-0.58 -0.21,-1.15 -0.57,-1.6 -0.6,-0.8 -7.71,-10.32 -8.42,-11.27 -0.7,-0.96 -1.31,-1.11 -1.54,0.42l-1.89 12.53c-0.06,0.27 -0.09,0.54 -0.09,0.82 0,0.14 0.01,0.29 0.02,0.44 -0.38,-0.17 -0.79,-0.27 -1.21,-0.3l-12.52 -1.89c-1.57,-0.24 -1.59,0.39 -0.88,1.34l0 0.01zm65.94 -90.32c0.88,0.79 9.67,8.8 10.4,9.46 0.47,0.48 1.12,0.75 1.79,0.75 0.18,0 0.36,-0.02 0.53,-0.06l8.76 -0.45c-0.85,1.82 -1.29,3.81 -1.29,5.82 0,3.92 1.67,7.66 4.59,10.28 2.43,2.2 15.73,14.19 18.19,16.39 5.68,4.98 14.32,4.47 19.39,-1.14 5.06,-5.63 4.67,-14.27 -0.88,-19.41 -2.44,-2.2 -15.74,-14.19 -18.19,-16.4 -2.55,-2.3 -5.86,-3.58 -9.3,-3.58 -2.51,0 -4.96,0.67 -7.11,1.96l-0.46 -8.76c0.01,-0.1 0.01,-0.19 0.01,-0.28 0,-0.76 -0.33,-1.48 -0.92,-1.97l-10.43 -9.36c-0.89,-0.78 -1.51,-0.82 -1.43,0.74l0.66 12.65c-0.01,0.42 0.05,0.84 0.18,1.24 -0.21,-0.03 -0.42,-0.05 -0.62,-0.05 -0.21,0 -0.42,0.02 -0.62,0.05l-12.66 0.66c-1.59,0.03 -1.48,0.65 -0.6,1.45l0.01 0.01zm84.65 -114.35c10.82,-2.46 18.42,-8.73 23.13,-19.01 -26.19,-19.67 -75.47,-54.39 -108.2,-62.83 -4.73,-1.24 -15.55,-1.13 -19.31,-1.13 0,0 36.22,43.58 43.71,70.96 17.65,8.4 41.98,16.27 60.65,12.01l0.02 0zm-228.96 -39.34c-4.11,-1.65 -10.06,0 -12.44,0 0,0 6.72,13.33 11.38,25.21 9.3,-2.04 22.4,-4.05 34.87,-5.7 -11.71,-7.93 -24.36,-15.72 -33.83,-19.51l0.02 0zm401.51 48.9c-4.81,-33.75 -86.69,-32.56 -132.34,-29.23 -7.71,23.76 -25.78,36.61 -51.74,36.61 -1.25,0 -2.51,0 -3.79,-0.09 -21.56,-0.98 -42.91,-10.07 -53.72,-15.38 -6.52,-3.15 -12.83,-6.84 -18.8,-10.93 -0.99,-0.66 -1.81,-1.3 -2.61,-1.92 -32.36,0.98 -61.61,2.71 -85.67,5.07 -15.91,1.75 -37.06,4.68 -49.57,7.33 -11.81,2.81 -18.35,5.9 -18.35,9.21 0,12.39 93.28,22.43 208.35,22.43 115.07,0 208.35,-10.04 208.35,-22.43 -0.01,-0.22 -0.05,-0.45 -0.13,-0.67l0.02 0z"/>
  </g>
 </g>
</svg>
