<?xml version="1.0" encoding="UTF-8"?>
<!DOCTYPE svg PUBLIC "-//W3C//DTD SVG 1.1//EN" "http://www.w3.org/Graphics/SVG/1.1/DTD/svg11.dtd">
<!-- Creator: CorelDRAW 2020 (64 Bit) -->
<svg xmlns="http://www.w3.org/2000/svg" xml:space="preserve" width="512px" height="512px" version="1.1" style="shape-rendering:geometricPrecision; text-rendering:geometricPrecision; image-rendering:optimizeQuality; fill-rule:evenodd; clip-rule:evenodd"
viewBox="0 0 512 512"
 xmlns:xlink="http://www.w3.org/1999/xlink"
 xmlns:xodm="http://www.corel.com/coreldraw/odm/2003">
 <defs>
  <style type="text/css">
   <![CDATA[
    .fil0 {fill:red;fill-rule:nonzero}
   ]]>
  </style>
 </defs>
 <g id="Camada_x0020_1">
  <metadata id="CorelCorpID_0Corel-Layer"/>
  <path id="bomber-red-1" class="fil0" d="M2.14 413.84l9.67 8.65c0.34,0.25 0.63,0.57 0.87,0.92 0.19,-0.39 0.45,-0.72 0.76,-1.01l8.65 -9.68c1.06,-1.18 1.49,-0.71 1.56,0.5 0.09,1.2 0.82,13.36 0.9,14.38 0,0.1 0.01,0.18 0.01,0.26 0,0.8 -0.36,1.53 -0.98,2.04l-5.99 6.69c6.02,1.5 10.36,6.75 10.72,12.94 0.19,3.36 1.21,21.67 1.4,25.03 0.44,7.82 -5.54,14.5 -13.36,14.94 -7.8,0.44 -14.5,-5.54 -14.93,-13.35 -0.18,-3.36 -1.21,-21.68 -1.4,-25.03 -0.01,-0.27 -0.02,-0.54 -0.02,-0.82 0,-5.92 3.69,-11.22 9.24,-13.29l-6.7 -5.98c-0.74,-0.47 -1.19,-1.29 -1.19,-2.17 0,0 0,0 0,-0.01 -0.06,-1 -0.67,-13.18 -0.74,-14.38 -0.06,-1.2 0.31,-1.73 1.53,-0.63l0 0 0 0zm87.52 -36.29c0.46,1.11 5.14,12.36 5.54,13.29 0.3,0.83 1.01,1.44 1.87,1.64l8.31 3.39c-3.2,2.68 -5.05,6.65 -5.05,10.84 0,1.9 0.37,3.76 1.12,5.51 1.3,3.09 8.45,19.99 9.75,23.1 3.04,7.2 11.35,10.58 18.55,7.54 7.21,-3.04 10.59,-11.35 7.55,-18.55 -1.3,-3.11 -6.45,-25.01 -7.75,-28.11 -2.41,-5.75 -10.29,-4.24 -16.49,-3.63l3.39 -8.32c0.24,-0.41 0.37,-0.89 0.37,-1.37 0,-0.38 -0.08,-0.76 -0.25,-1.11 -0.4,-0.94 -5.19,-12.09 -5.68,-13.25 -0.49,-1.16 -1,-1.42 -1.65,0.06l-4.88 12.02c-0.19,0.39 -0.32,0.81 -0.37,1.23 -0.34,-0.26 -0.72,-0.45 -1.12,-0.58l-12.02 -4.89c-1.43,-0.57 -1.65,0.09 -1.19,1.18l0 0.01 0 0zm91.33 -60.53c0.71,0.94 7.89,10.82 8.5,11.62 0.47,0.73 1.28,1.18 2.15,1.18l8.89 1.33c-1.78,2.43 -2.74,5.36 -2.74,8.38 0,3.04 0.97,6 2.78,8.44 1.99,2.7 12.89,17.47 14.89,20.17 4.58,6.49 13.6,7.95 19.99,3.24 6.39,-4.73 7.65,-13.78 2.79,-20.07 -1.98,-2.71 -12.89,-17.46 -14.88,-20.17 -2.68,-3.61 -6.91,-5.74 -11.4,-5.74 -1.59,0 -3.18,0.26 -4.67,0.79l1.33 -8.88c0.07,-0.26 0.12,-0.52 0.12,-0.8 0,-0.59 -0.21,-1.18 -0.58,-1.64 -0.61,-0.82 -7.9,-10.57 -8.62,-11.54 -0.72,-0.98 -1.34,-1.14 -1.58,0.43l-1.94 12.83c-0.06,0.28 -0.09,0.55 -0.09,0.84 0,0.14 0.01,0.3 0.02,0.45 -0.39,-0.17 -0.81,-0.28 -1.24,-0.31l-12.82 -1.93c-1.6,-0.25 -1.62,0.4 -0.9,1.37l0 0.01 0 0zm67.53 -92.49c0.9,0.81 9.9,9.01 10.65,9.69 0.48,0.49 1.14,0.77 1.83,0.77 0.18,0 0.37,-0.02 0.54,-0.06l8.97 -0.47c-0.87,1.87 -1.32,3.91 -1.32,5.96 0,4.02 1.71,7.85 4.7,10.53 2.49,2.25 16.11,14.53 18.63,16.79 5.81,5.09 14.66,4.57 19.85,-1.17 5.18,-5.77 4.78,-14.62 -0.9,-19.88 -2.5,-2.25 -16.12,-14.53 -18.63,-16.79 -2.61,-2.36 -6,-3.67 -9.52,-3.67 -2.57,0 -5.08,0.69 -7.28,2.01l-0.47 -8.97c0.01,-0.1 0.01,-0.2 0.01,-0.29 0,-0.78 -0.34,-1.51 -0.94,-2.02l-10.68 -9.58c-0.91,-0.8 -1.55,-0.84 -1.47,0.76l0.68 12.95c-0.01,0.43 0.05,0.86 0.18,1.27 -0.21,-0.03 -0.43,-0.05 -0.63,-0.05 -0.22,0 -0.43,0.02 -0.64,0.05l-12.96 0.68c-1.63,0.03 -1.52,0.66 -0.62,1.48l0.02 0.01 0 0zm86.68 -117.09c11.08,-2.52 18.86,-8.94 23.68,-19.47 -26.82,-20.14 -77.28,-55.7 -110.79,-64.34 -4.85,-1.27 -15.93,-1.15 -19.78,-1.15 0,0 37.09,44.62 44.76,72.66 18.07,8.6 42.99,16.66 62.11,12.3l0.02 0 0 0zm-234.46 -40.29c-4.21,-1.69 -10.3,0 -12.74,0 0,0 6.88,13.65 11.66,25.82 9.52,-2.09 22.93,-4.15 35.7,-5.84 -11.99,-8.12 -24.94,-16.1 -34.64,-19.98l0.02 0zm411.15 50.08c-4.93,-34.56 -88.77,-33.34 -135.52,-29.93 -7.89,24.33 -26.4,37.48 -52.98,37.48 -1.28,0 -2.57,0 -3.88,-0.09 -22.08,-1 -43.94,-10.31 -55.01,-15.75 -6.68,-3.22 -13.14,-7 -19.25,-11.19 -1.01,-0.67 -1.85,-1.33 -2.67,-1.97 -33.14,1.01 -63.09,2.78 -87.73,5.2 -16.29,1.79 -37.95,4.79 -50.76,7.5 -12.09,2.88 -18.79,6.04 -18.79,9.43 0,12.69 95.52,22.97 213.35,22.97 117.83,0 213.35,-10.28 213.35,-22.97 -0.01,-0.22 -0.05,-0.46 -0.13,-0.68l0.02 0 0 0z"/>
 </g>
</svg>
