<?xml version="1.0" encoding="UTF-8"?>
<!DOCTYPE svg PUBLIC "-//W3C//DTD SVG 1.1//EN" "http://www.w3.org/Graphics/SVG/1.1/DTD/svg11.dtd">
<!-- Creator: CorelDRAW 2020 (64 Bit) -->
<svg xmlns="http://www.w3.org/2000/svg" xml:space="preserve" width="512px" height="512px" version="1.1" style="shape-rendering:geometricPrecision; text-rendering:geometricPrecision; image-rendering:optimizeQuality; fill-rule:evenodd; clip-rule:evenodd"
viewBox="0 0 512 512"
 xmlns:xlink="http://www.w3.org/1999/xlink"
 xmlns:xodm="http://www.corel.com/coreldraw/odm/2003">
 <defs>
  <style type="text/css">
   <![CDATA[
    .fil1 {fill:black}
    .fil0 {fill:white}
   ]]>
  </style>
 </defs>
 <g id="Camada_x0020_1">
  <metadata id="CorelCorpID_0Corel-Layer"/>
  <path id="circulo" class="fil0" d="M256 0c141.38,0 256,114.61 256,256 0,141.39 -114.62,256 -256,256 -141.39,0 -256,-114.61 -256,-256 0,-141.39 114.61,-256 256,-256z"/>
  <path id="camera-1" class="fil1" d="M221.09 369.12c14.81,8.38 31.84,13.22 50.01,13.22 18.24,0 35.24,-4.8 50.08,-13.22l131.31 0 0 33 -395.71 0 0 -33 40.5 0c7.5,0 14.14,-3.25 18.78,-8.42 4.72,5.1 11.28,8.42 18.78,8.42 28.75,0 57.5,0 86.25,0zm-30.76 -151.64c-0.92,1.24 -1.77,2.55 -2.7,3.79 -0.54,0.77 -1.08,1.47 -1.62,2.24 -3.56,5.33 -6.65,10.9 -9.12,16.77 -0.08,0.16 -0.16,0.31 -0.16,0.47 -1.16,2.7 -2.16,5.48 -3.01,8.34 -0.23,0.62 -0.39,1.24 -0.54,1.86 -0.7,2.39 -1.32,4.79 -1.86,7.26 -0.15,0.85 -0.38,1.7 -0.54,2.55 -0.46,2.32 -0.77,4.72 -1.08,7.11 -0.08,0.85 -0.23,1.7 -0.31,2.55 -0.31,3.25 -0.46,6.42 -0.46,9.74 0,3.63 0.23,7.27 0.61,10.75 -0.07,0.15 -0.07,0.31 -0.07,0.38 1.54,14.38 6.18,27.9 13.13,39.88l0.08 0.08c1.7,2.94 3.56,5.8 5.57,8.58 0.15,0.23 0.38,0.46 0.54,0.69 1.85,2.56 3.79,4.95 5.87,7.27 0.31,0.39 0.7,0.77 1.08,1.16 2.01,2.16 4.02,4.25 6.19,6.18 0.23,0.23 0.46,0.47 0.77,0.78l-72.96 0 3.73 0c-6.07,-0.68 -10.76,-5.8 -10.76,-12.06l0 -114.23c0,-6.41 5.1,-11.74 11.35,-12.05l0.01 -0.09 56.26 0zm-60.59 138.43l-31.01 0c6.08,-0.69 10.84,-5.87 10.84,-12.06l0 -114.23c0,-6.61 -5.23,-11.95 -11.79,-12.13l0 -0.01 -41 0 0 138.42 41.95 0.01 31.01 0zm-33.39 -243.92l-6.57 0c-3.63,0 -6.57,2.93 -6.57,6.56 0,3.64 2.86,6.58 6.57,6.58l6.57 -0.01c3.64,0 6.57,-2.93 6.57,-6.57 0,-3.63 -2.93,-6.56 -6.57,-6.56zm263.78 72.57l46.14 0 0 -33 -46.14 0 0 33zm-158.28 -66.01l0 26.36 -13.22 0 0 -19.79 -59.28 0 0 19.79 -13.21 0 0 -19.79 -13.22 0c-3.63,0 -6.57,2.94 -6.57,6.57 0,3.64 2.94,6.57 6.57,6.57l0 6.57 -19.78 0 0 -6.57c3.63,0 6.57,-2.93 6.57,-6.57 0,-3.63 -2.94,-6.57 -6.57,-6.57l-13.14 0 0 19.79 -13.22 0 0 59.36 40.58 0c7.5,0 14.06,3.32 18.78,8.42 4.64,-5.18 11.28,-8.42 18.78,-8.42l67.93 0c11.83,-10.67 26.13,-18.63 41.97,-22.8 -2.16,-4.18 -3.4,-8.74 -3.4,-13.45 0,-16.39 13.29,-29.68 29.68,-29.68 16.38,0 29.68,13.29 29.68,29.68 0,4.71 -1.24,9.27 -3.4,13.45 15.84,4.25 30.14,12.13 41.96,22.8l113.15 0 0 -85.72 -250.64 0zm-72.42 72.58l-0.08 0c0,3.63 -2.93,6.57 -6.56,6.57 -3.64,0 -6.58,-2.94 -6.58,-6.57l0 -9.12 -3.55 1.77c-0.15,0.08 -0.23,0.08 -0.39,0.16 -0.85,0.39 -1.77,0.54 -2.62,0.54 -0.85,0 -1.78,-0.15 -2.63,-0.54 -0.16,-0.08 -0.31,-0.16 -0.39,-0.16l-3.55 -1.77 0 9.12c0,3.63 -2.94,6.57 -6.57,6.57 -3.64,0 -6.57,-2.94 -6.57,-6.57l0 -19.63c0,-0.54 0.07,-1.08 0.15,-1.63 0.15,-0.77 0.46,-1.46 0.93,-2.16 0.54,-0.77 1.24,-1.47 2.01,-1.93 0.77,-0.47 1.7,-0.85 2.63,-0.93 0.77,-0.08 1.54,-0.08 2.31,0.15 0.54,0.16 1.09,0.31 1.55,0.62l10.12 5.03 10.13 -5.03c0.46,-0.23 1,-0.46 1.54,-0.62 0.78,-0.15 1.55,-0.23 2.32,-0.15 0.93,0.15 1.86,0.46 2.63,0.93 0.77,0.46 1.55,1.16 2.09,2.01 0.38,0.61 0.77,1.39 0.92,2.16 0.16,0.54 0.16,1.08 0.16,1.62l0 19.56zm13.06 -52.79l33.01 0 0 6.57 -33.01 0 0 -6.57zm59.36 59.36l-33 0 0 -33.01 33 0.01 0 33zm217.64 -12.52c0,6.87 -5.64,12.52 -12.52,12.52l-47.53 0c-6.88,0 -12.52,-5.65 -12.52,-12.52l0 -34.4c0,-6.88 5.64,-12.52 12.52,-12.52l47.53 0c6.88,0 12.52,5.65 12.52,12.52l0 34.4zm-67.63 32.3c0.93,1.24 1.78,2.55 2.71,3.79 0.54,0.77 1.08,1.47 1.62,2.24 3.56,5.33 6.65,10.9 9.12,16.77 0.08,0.16 0.16,0.31 0.16,0.47 1.16,2.7 2.16,5.48 3.01,8.34 0.23,0.62 0.39,1.24 0.54,1.86 0.7,2.39 1.32,4.79 1.86,7.26 0.15,0.85 0.38,1.7 0.54,2.55 0.46,2.32 0.77,4.72 1.08,7.11 0.08,0.85 0.23,1.7 0.31,2.55 0.31,3.25 0.46,6.42 0.46,9.74 0,3.63 -0.23,7.27 -0.61,10.75 0.07,0.15 0.07,0.31 0.07,0.38 -1.54,14.38 -6.18,27.9 -13.14,39.88l-0.07 0.08c-1.7,2.94 -3.56,5.8 -5.57,8.58 -0.15,0.23 -0.38,0.46 -0.54,0.69 -1.85,2.56 -3.79,4.95 -5.87,7.27 -0.31,0.39 -0.7,0.77 -1.08,1.16 -2.01,2.16 -4.02,4.25 -6.19,6.18 -0.23,0.23 -0.46,0.47 -0.77,0.78l112.99 -0.01 0 -138.42 -100.63 0zm-80.76 -0.08c-34.55,0 -62.68,28.14 -62.68,62.69 0.08,34.62 28.13,62.67 62.68,62.67 34.55,0 62.68,-28.13 62.68,-62.67 0,-34.55 -28.13,-62.69 -62.68,-62.69zm0 105.66c-23.65,0 -42.89,-19.25 -42.89,-42.9 0.07,-23.65 19.24,-42.89 42.89,-42.89 23.65,0 42.89,19.24 42.89,42.89 0,23.65 -19.24,42.9 -42.89,42.9zm0 -72.58c-16.39,0 -29.68,13.3 -29.68,29.68 0,16.39 13.37,29.68 29.68,29.68 16.38,0 29.68,-13.29 29.68,-29.68 0,-16.38 -13.3,-29.68 -29.68,-29.68zm-7.88 24.43c-2.63,-2.55 -2.63,-6.73 -0.08,-9.35l6.57 -6.58c2.55,-2.55 6.72,-2.55 9.35,0 2.55,2.56 2.55,6.73 0,9.36l-6.57 6.57c-1.31,1.31 -2.94,1.93 -4.64,1.93 -1.7,0 -3.4,-0.62 -4.63,-1.93zm15.84 19.86c-1.31,1.31 -2.94,1.93 -4.64,1.93 -1.7,0 -3.4,-0.62 -4.63,-1.93 -2.56,-2.55 -2.56,-6.72 0,-9.35l13.21 -13.22c2.55,-2.63 6.73,-2.63 9.28,0 2.55,2.55 2.55,6.73 0,9.35l-13.22 13.22zm71.1 -55.49c-0.3,-0.62 -0.54,-1.24 -0.92,-1.86 -0.7,-1.31 -1.55,-2.55 -2.4,-3.86 -0.77,-1.24 -1.54,-2.55 -2.4,-3.79 -0.54,-0.77 -1.16,-1.54 -1.7,-2.32 -1.23,-1.7 -2.47,-3.32 -3.86,-4.94 -0.39,-0.47 -0.85,-0.93 -1.24,-1.32 -1.62,-1.77 -3.24,-3.55 -5.02,-5.25 -12.21,-11.75 -27.75,-20.02 -45.06,-23.34l-2.94 -0.47c-2.24,-0.38 -4.32,-0.61 -6.33,-0.77 -2.4,-0.23 -4.8,-0.39 -7.27,-0.39 -2.47,0 -4.87,0.16 -7.26,0.39 -2.01,0.15 -4.1,0.46 -6.34,0.77l-2.94 0.47c-17.23,3.4 -32.77,11.67 -44.98,23.41 -1.78,1.71 -3.4,3.48 -5.02,5.26 -0.39,0.46 -0.85,0.85 -1.24,1.31 -1.39,1.63 -2.63,3.25 -3.86,4.95 -0.55,0.77 -1.16,1.55 -1.71,2.32 -0.85,1.24 -1.62,2.55 -2.39,3.79 -0.77,1.31 -1.62,2.55 -2.4,3.86 -0.31,0.62 -0.62,1.24 -0.93,1.86 -6.33,12.21 -9.97,26.04 -9.97,40.73 0,2.86 0.16,5.71 0.47,8.57 0.15,1.32 0.38,2.63 0.54,3.87 0.23,1.47 0.39,2.94 0.7,4.33 0.31,1.7 0.77,3.4 1.23,5.1 0.23,0.93 0.47,1.93 0.78,2.86 0.54,1.93 1.23,3.78 1.85,5.64 0.23,0.54 0.39,1.08 0.62,1.62 2.7,6.96 6.26,13.45 10.51,19.48 0.46,0.62 0.85,1.16 1.31,1.78 1.63,2.24 3.4,4.32 5.26,6.41 0.62,0.7 1.31,1.47 1.93,2.16 2.32,2.4 4.79,4.72 7.42,6.88 15.38,12.68 35.09,20.25 56.5,20.25 15.22,0 29.6,-3.86 42.2,-10.66l1.31 -0.78c0.93,-0.54 1.78,-1.08 2.7,-1.62 2.48,-1.54 4.87,-3.17 7.19,-4.87 0.54,-0.38 1.08,-0.77 1.55,-1.16 1.23,-1 2.47,-2.01 3.63,-3.01 0.54,-0.46 1,-0.93 1.55,-1.39 2.55,-2.32 4.94,-4.72 7.11,-7.35 1.15,-1.31 2.24,-2.7 3.32,-4.09 0.23,-0.31 0.46,-0.62 0.7,-0.93 3.24,-4.33 6.02,-8.89 8.42,-13.68l0.46 -1c1.39,-2.86 2.63,-5.88 3.71,-8.89 0.16,-0.46 0.31,-0.85 0.47,-1.32 0.46,-1.39 0.85,-2.78 1.31,-4.17 0.31,-1.16 0.62,-2.39 0.93,-3.55 0.31,-1.32 0.62,-2.55 0.85,-3.87 0.38,-2.08 0.69,-4.25 1,-6.41 0.08,-0.78 0.16,-1.55 0.23,-2.4 0.24,-2.63 0.39,-5.18 0.39,-7.88 0,-14.69 -3.63,-28.52 -9.97,-40.73zm-79.06 116.62c-41.81,0 -75.82,-34 -75.82,-75.81 0,-41.82 34.01,-75.82 75.82,-75.82 41.81,0 75.82,34 75.82,75.82 0,41.81 -34.01,75.81 -75.82,75.81z"/>
 </g>
</svg>
