<?xml version="1.0" encoding="UTF-8"?>
<!DOCTYPE svg PUBLIC "-//W3C//DTD SVG 1.1//EN" "http://www.w3.org/Graphics/SVG/1.1/DTD/svg11.dtd">
<!-- Creator: CorelDRAW 2020 (64 Bit) -->
<svg xmlns="http://www.w3.org/2000/svg" xml:space="preserve" width="512px" height="512px" version="1.1" style="shape-rendering:geometricPrecision; text-rendering:geometricPrecision; image-rendering:optimizeQuality; fill-rule:evenodd; clip-rule:evenodd"
viewBox="0 0 512 512"
 xmlns:xlink="http://www.w3.org/1999/xlink"
 xmlns:xodm="http://www.corel.com/coreldraw/odm/2003">
 <defs>
  <style type="text/css">
   <![CDATA[
    .fil0 {fill:white}
    .fil1 {fill:black;fill-rule:nonzero}
   ]]>
  </style>
 </defs>
 <g id="Camada_x0020_1">
  <metadata id="CorelCorpID_0Corel-Layer"/>
  <circle id="circulo" class="fil0" cx="256" cy="256" r="256"/>
  <path id="camera-2" class="fil1" d="M320.91 352.21l-4.74 -4.74c-2.77,-2.77 -2.77,-7.25 0,-10.03 2.77,-2.76 7.26,-2.76 10.02,0l4.75 4.75c13.66,-15.75 22.41,-35.78 23.97,-57.82l-6.72 0c-3.92,0 -7.1,-3.18 -7.1,-7.09 0,-3.92 3.18,-7.1 7.1,-7.1l6.72 0c-1.56,-22.04 -10.31,-42.07 -23.97,-57.82l-4.75 4.75c-1.38,1.38 -3.19,2.07 -5.01,2.07 -1.81,0 -3.62,-0.69 -5.01,-2.07 -2.77,-2.78 -2.77,-7.26 0,-10.03l4.74 -4.74c-15.74,-13.66 -35.78,-22.41 -57.82,-23.98l0 6.73c0,3.91 -3.18,7.09 -7.09,7.09 -3.91,0 -7.09,-3.18 -7.09,-7.09l0 -6.73c-22.04,1.57 -42.08,10.32 -57.82,23.98l4.74 4.74c2.77,2.77 2.77,7.26 0,10.03 -1.39,1.38 -3.2,2.07 -5.01,2.07 -1.82,0 -3.63,-0.69 -5.01,-2.07l-4.75 -4.75c-13.66,15.75 -22.41,35.78 -23.97,57.82l6.73 0c3.91,0 7.09,3.18 7.09,7.1 0,3.91 -3.18,7.09 -7.09,7.09l-6.73 0c1.56,22.04 10.31,42.07 23.97,57.82l4.75 -4.75c2.76,-2.76 7.25,-2.76 10.02,0 2.77,2.78 2.77,7.26 0,10.03l-4.74 4.74c15.74,13.66 35.78,22.41 57.82,23.98l0 -6.73c0,-3.91 3.18,-7.09 7.09,-7.09 3.91,0 7.09,3.18 7.09,7.09l0 6.73c22.04,-1.57 42.08,-10.32 57.82,-23.98zm84 -138.75l0 14.18 14.19 0 0 -14.18 -14.19 0zm14.19 -56.73l-75.52 0 -30.85 -24.68 0 -53.33c0,-11.73 -9.54,-21.27 -21.27,-21.27l-14.19 0 0 21.27c0,3.92 -3.17,7.09 -7.09,7.09 -3.91,0 -7.09,-3.17 -7.09,-7.09l0 -21.27 -14.18 0 0 21.27c0,3.92 -3.18,7.09 -7.09,7.09 -3.91,0 -7.09,-3.17 -7.09,-7.09l0 -21.27 -14.18 0c-11.73,0 -21.28,9.54 -21.28,21.27l0 53.33 -30.84 24.68 -18.8 0 0 -14.19c0,-7.82 -6.36,-14.18 -14.18,-14.18l-28.36 0c-7.82,0 -14.19,6.36 -14.19,14.18l0 14.19c-27.37,0 -49.63,22.26 -49.63,49.63l0 127.64c0,27.38 22.26,49.64 49.63,49.64l123.99 0c-15.44,-5.7 -29.37,-14.56 -40.83,-25.95 -0.09,-0.08 -0.2,-0.11 -0.28,-0.19 -0.09,-0.08 -0.12,-0.19 -0.19,-0.29 -20.41,-20.52 -33.05,-48.78 -33.05,-79.93 0,-31.16 12.64,-59.42 33.05,-79.94 0.08,-0.1 0.1,-0.21 0.19,-0.29 0.08,-0.08 0.19,-0.11 0.28,-0.19 11.46,-11.4 25.4,-20.25 40.85,-25.95l78.18 0c15.45,5.7 29.39,14.55 40.85,25.95 0.09,0.08 0.2,0.11 0.28,0.19 0.09,0.08 0.12,0.19 0.19,0.29 20.41,20.52 33.05,48.78 33.05,79.94 0,31.15 -12.64,59.41 -33.05,79.93 -0.08,0.1 -0.1,0.21 -0.19,0.29 -0.08,0.08 -0.19,0.11 -0.28,0.19 -11.46,11.39 -25.39,20.25 -40.83,25.95l123.99 0c27.36,0 49.63,-22.27 49.63,-49.64l0 -127.64c0,-27.37 -22.27,-49.63 -49.63,-49.63zm-297.83 78l-28.37 0c-11.72,0 -21.27,-9.55 -21.27,-21.27 0,-11.73 9.55,-21.28 21.27,-21.28l28.37 0c11.73,0 21.27,9.55 21.27,21.28 0,11.72 -9.54,21.27 -21.27,21.27zm156 -141.82l7.1 0c3.91,0 7.09,3.17 7.09,7.09 0,3.91 -3.18,7.09 -7.09,7.09l-7.1 0c-3.91,0 -7.09,-3.18 -7.09,-7.09 0,-3.92 3.18,-7.09 7.09,-7.09zm-7.09 21.27c3.92,0 7.09,3.18 7.09,7.09l0 7.09 -14.18 0 0 -7.09c0,-3.91 3.18,-7.09 7.09,-7.09zm-14.18 -21.27c3.91,0 7.09,3.17 7.09,7.09 0,3.91 -3.18,7.09 -7.09,7.09 -3.91,0 -7.09,-3.18 -7.09,-7.09 0,-3.92 3.18,-7.09 7.09,-7.09zm-7.09 28.36l0 7.09 -14.18 0 0 -7.09c0,-3.91 3.17,-7.09 7.09,-7.09 3.91,0 7.09,3.18 7.09,7.09zm-21.27 -28.36l7.09 0c3.91,0 7.09,3.17 7.09,7.09 0,3.91 -3.18,7.09 -7.09,7.09l-7.09 0c-3.92,0 -7.09,-3.18 -7.09,-7.09 -0.01,-3.92 3.17,-7.09 7.09,-7.09zm-36.52 63.82l17.73 -14.19 32.97 0 28.36 0 32.97 0 17.73 14.19 -129.76 0zm220.89 198.55l-42.55 0c-3.92,0 -7.09,-3.18 -7.09,-7.09 0,-3.92 3.17,-7.09 7.09,-7.09l42.55 0c3.92,0 7.09,3.17 7.09,7.09 0,3.91 -3.17,7.09 -7.09,7.09zm14.18 -28.37l-42.55 0c-3.92,0 -7.09,-3.17 -7.09,-7.09 0,-3.91 3.17,-7.09 7.09,-7.09l42.55 0c3.92,0 7.09,3.18 7.09,7.09 0,3.92 -3.17,7.09 -7.09,7.09zm7.09 -99.27c0,7.82 -6.36,14.18 -14.18,14.18l-14.19 0c-7.82,0 -14.18,-6.36 -14.18,-14.18l0 -14.19c0,-7.82 6.36,-14.18 14.18,-14.18l14.19 0c7.82,0 14.18,6.36 14.18,14.18l0 14.19 0 0zm-177.28 -7.09c-31.28,0 -56.73,25.45 -56.73,56.73 0,31.27 25.45,56.72 56.73,56.72 31.28,0 56.73,-25.44 56.73,-56.72 0,-31.28 -25.45,-56.73 -56.73,-56.73zm-28.36 78c-3.92,0 -7.09,-3.18 -7.09,-7.09 0,-3.92 3.17,-7.09 7.09,-7.09 3.91,0 7.09,3.17 7.09,7.09 0,3.91 -3.18,7.09 -7.09,7.09zm21.27 -42.55c-7.82,0 -14.18,6.36 -14.18,14.18 0,3.92 -3.18,7.1 -7.09,7.1 -3.92,0 -7.09,-3.18 -7.09,-7.1 0,-15.64 12.72,-28.36 28.36,-28.36 3.91,0 7.09,3.18 7.09,7.09 0,3.92 -3.18,7.09 -7.09,7.09zm-127.64 -49.64l-28.37 0c-3.9,0 -7.09,3.19 -7.09,7.09 0,3.91 3.19,7.09 7.09,7.09l28.37 0.01c3.91,0 7.09,-3.19 7.09,-7.1 0,-3.9 -3.18,-7.09 -7.09,-7.09zm134.73 141.83c-39.1,0 -70.91,-31.82 -70.91,-70.91 0,-39.1 31.81,-70.92 70.91,-70.92 39.1,0 70.91,31.82 70.91,70.92 0,39.09 -31.81,70.91 -70.91,70.91z"/>
 </g>
</svg>
