<?xml version="1.0" encoding="UTF-8"?>
<!DOCTYPE svg PUBLIC "-//W3C//DTD SVG 1.1//EN" "http://www.w3.org/Graphics/SVG/1.1/DTD/svg11.dtd">
<!-- Creator: CorelDRAW 2020 (64 Bit) -->
<svg xmlns="http://www.w3.org/2000/svg" xml:space="preserve" width="512px" height="512px" version="1.1" style="shape-rendering:geometricPrecision; text-rendering:geometricPrecision; image-rendering:optimizeQuality; fill-rule:evenodd; clip-rule:evenodd"
viewBox="0 0 512 512"
 xmlns:xlink="http://www.w3.org/1999/xlink"
 xmlns:xodm="http://www.corel.com/coreldraw/odm/2003">
 <defs>
  <style type="text/css">
   <![CDATA[
    .fil1 {fill:black}
    .fil0 {fill:white}
   ]]>
  </style>
 </defs>
 <g id="Camada_x0020_1">
  <metadata id="CorelCorpID_0Corel-Layer"/>
  <path id="fundo" class="fil0" d="M256 0c141.39,0 256,114.61 256,256 0,141.39 -114.61,256 -256,256 -141.39,0 -256,-114.61 -256,-256 0,-141.39 114.61,-256 256,-256zm96.94 384.73c0.55,-9.7 0.1,-20.79 0.1,-30.67l0 -61.32c0,-22.13 3.95,-45.29 -17.63,-59.26 -2.75,-1.78 -5.07,0.44 -10.71,2.82 -23.99,10.11 -58.35,7.57 -80.66,-7.37 -2.59,-1.73 -2.33,-1.46 -6,-1.43l-46 0c-8.48,0 -4.51,0.11 -11.55,3.75 -3.59,1.85 -6.5,3.32 -10.43,4.91 -16.56,6.69 -33.87,7.79 -53.11,4.28 -3.93,-0.72 -8.12,-2.11 -11.9,-3.42 -2.1,-0.73 -9.27,-4.64 -10.75,-4.3 -1.88,0.44 -7.47,5.66 -8.49,6.86 -10.21,12.02 -10.01,19.72 -10.01,36.25l0 91.99c0,16.87 -1.12,29.7 11.54,42.58 14.48,14.74 34.59,11.65 57.13,11.65 51.24,0 102.47,0 153.71,0 10.76,0 18.6,0.77 28.34,-2.31 13.35,-4.21 25.44,-17.8 26.42,-35.01zm13.65 -21.23c6.42,3.87 13.49,7.87 20.37,11.87l50.45 29.34c7.51,3.21 17.38,0.46 21.38,-7.98 2.11,-4.45 1.66,-8.87 1.66,-14.36l0.28 -95.53c0.04,-6.52 0.95,-26.19 -0.58,-31.07 -2.26,-7.21 -11.36,-13.24 -20.36,-10.53 -4.56,1.37 -35.91,20.15 -40.78,22.93l-30.55 17.79c-1.57,0.87 -1.66,0.33 -1.89,2.03 -0.11,0.83 0.01,2.99 0.01,3.96l0.01 71.55zm-261.98 -210.72c-1.16,-10.59 3,-18.71 7.62,-23.99 8.32,-9.51 21.58,-12.75 34.96,-8.6 17.49,5.43 29.65,30.95 12.94,51.02 -2.07,2.49 -5.74,5.4 -8.77,6.93 -20.76,10.54 -44.22,-2.34 -46.75,-25.36zm155.64 -1.57c-2.03,-24.67 29.31,-45.28 53.67,-24.36 5.81,4.99 9.4,13.65 9.96,21.99 1.77,26.31 -31.31,45.16 -53.79,24.16 -6.15,-5.74 -9.13,-13.12 -9.84,-21.79zm-45.85 2.6c0.73,24.68 14.97,48.55 34.79,61.32 12.85,8.28 28.63,13.57 45.06,12.78 11.93,-0.57 22.15,-2.99 31.12,-7.44 13.04,-6.46 23.05,-14.64 31.19,-26.6 33.12,-48.63 1.78,-119.85 -63.52,-121.6 -18.57,-0.5 -36.2,6.4 -49.87,17.25 -9.13,7.26 -16.1,16.55 -21.32,27.03 -4.8,9.65 -6.77,18.98 -7.53,31.02 -2.02,-11.81 -1.51,-18.33 -7.66,-30.63 -4.83,-9.67 -9.19,-15.95 -16.02,-22.53 -11.67,-11.26 -30.68,-22.53 -54.82,-22.15 -74.7,1.18 -106.47,95.85 -45.19,141.04 12.04,8.88 26.98,13.81 43.22,14.6 11.39,0.56 23.52,-2.13 32.59,-5.97 16.81,-7.11 31.79,-20.77 39.67,-37.36 8.61,-18.14 6.62,-27.02 8.29,-30.76z"/>
  <path id="camera" class="fil1" d="M352.94 384.73c0.55,-9.7 0.1,-20.79 0.1,-30.67l0 -61.32c0,-22.13 3.95,-45.29 -17.63,-59.26 -2.75,-1.78 -5.07,0.44 -10.71,2.82 -23.99,10.11 -58.35,7.57 -80.66,-7.37 -2.59,-1.73 -2.33,-1.46 -6,-1.43l-46 0c-8.48,0 -4.51,0.11 -11.55,3.75 -3.59,1.85 -6.5,3.32 -10.43,4.91 -16.56,6.69 -33.87,7.79 -53.11,4.28 -3.93,-0.72 -8.12,-2.11 -11.9,-3.42 -2.1,-0.73 -9.27,-4.64 -10.75,-4.3 -1.88,0.44 -7.47,5.66 -8.49,6.86 -10.21,12.02 -10.01,19.72 -10.01,36.25l0 91.99c0,16.87 -1.12,29.7 11.54,42.58 14.48,14.74 34.59,11.65 57.13,11.65 51.24,0 102.47,0 153.71,0 10.76,0 18.6,0.77 28.34,-2.31 13.35,-4.21 25.44,-17.8 26.42,-35.01zm13.65 -21.23c6.42,3.87 13.49,7.87 20.37,11.87l50.45 29.34c7.51,3.21 17.38,0.46 21.38,-7.98 2.11,-4.45 1.66,-8.87 1.66,-14.36l0.28 -95.53c0.04,-6.52 0.95,-26.19 -0.58,-31.07 -2.26,-7.21 -11.36,-13.24 -20.36,-10.53 -4.56,1.37 -35.91,20.15 -40.78,22.93l-30.55 17.79c-1.57,0.87 -1.66,0.33 -1.89,2.03 -0.11,0.83 0.01,2.99 0.01,3.96l0.01 71.55zm-261.98 -210.72c-1.16,-10.59 3,-18.71 7.62,-23.99 8.32,-9.51 21.58,-12.75 34.96,-8.6 17.49,5.43 29.65,30.95 12.94,51.02 -2.07,2.49 -5.74,5.4 -8.77,6.93 -20.76,10.54 -44.22,-2.34 -46.75,-25.36zm155.64 -1.57c-2.03,-24.67 29.31,-45.28 53.67,-24.36 5.81,4.99 9.4,13.65 9.96,21.99 1.77,26.31 -31.31,45.16 -53.79,24.16 -6.15,-5.74 -9.13,-13.12 -9.84,-21.79zm-45.85 2.6c0.73,24.68 14.97,48.55 34.79,61.32 12.85,8.28 28.63,13.57 45.06,12.78 11.93,-0.57 22.15,-2.99 31.12,-7.44 13.04,-6.46 23.05,-14.64 31.19,-26.6 33.12,-48.63 1.78,-119.85 -63.52,-121.6 -18.57,-0.5 -36.2,6.4 -49.87,17.25 -9.13,7.26 -16.1,16.55 -21.32,27.03 -4.8,9.65 -6.77,18.98 -7.53,31.02 -2.02,-11.81 -1.51,-18.33 -7.66,-30.63 -4.83,-9.67 -9.19,-15.95 -16.02,-22.53 -11.67,-11.26 -30.68,-22.53 -54.82,-22.15 -74.7,1.18 -106.47,95.85 -45.19,141.04 12.04,8.88 26.98,13.81 43.22,14.6 11.39,0.56 23.52,-2.13 32.59,-5.97 16.81,-7.11 31.79,-20.77 39.67,-37.36 8.61,-18.14 6.62,-27.02 8.29,-30.76z"/>
 </g>
</svg>
