<?xml version="1.0" encoding="UTF-8"?>
<!DOCTYPE svg PUBLIC "-//W3C//DTD SVG 1.1//EN" "http://www.w3.org/Graphics/SVG/1.1/DTD/svg11.dtd">
<!-- Creator: CorelDRAW 2020 (64 Bit) -->
<svg xmlns="http://www.w3.org/2000/svg" xml:space="preserve" width="512px" height="512px" version="1.1" style="shape-rendering:geometricPrecision; text-rendering:geometricPrecision; image-rendering:optimizeQuality; fill-rule:evenodd; clip-rule:evenodd"
viewBox="0 0 512 512"
 xmlns:xlink="http://www.w3.org/1999/xlink"
 xmlns:xodm="http://www.corel.com/coreldraw/odm/2003">
 <defs>
  <style type="text/css">
   <![CDATA[
    .fil1 {fill:#1A1A1A}
    .fil0 {fill:white}
   ]]>
  </style>
 </defs>
 <g id="Camada_x0020_1">
  <metadata id="CorelCorpID_0Corel-Layer"/>
  <path class="fil0" d="M256 0c141.39,0 256,114.61 256,256 0,141.39 -114.61,256 -256,256 -141.39,0 -256,-114.61 -256,-256 0,-141.39 114.61,-256 256,-256z"/>
  <path id="carruagem" class="fil1" d="M233.79 164.02c3.62,-1.27 6.79,0.81 7.87,3.34 2.74,6.4 -6.69,10 -7.03,26.48 -0.3,14.46 6.99,24.13 7.45,27.38 0.52,3.73 -1.6,6.35 -4.34,7.12 -6.61,1.87 -9.14,-5.73 -11.31,-11.34 -5,-12.93 -6.26,-25.58 -1.69,-38.88 0.98,-2.84 2.16,-5.5 3.55,-7.95 1.66,-2.91 2.39,-5.07 5.5,-6.15zm243.75 189.93c2.91,-1.17 9.47,-7.74 9.89,-12.21 0.28,-2.9 -4.34,-13.03 -5.53,-16.3 -1.9,-5.24 -3.93,-11.15 -6.24,-16.02 -2.51,-5.3 -5.05,-9.71 -10.47,-11.39 -11.23,-3.49 -22.3,-7.08 -33.62,-10.51 -3.09,-0.93 -6.17,-1.5 -6.64,-4.48 -0.54,-3.34 2.61,-4.91 4.39,-6.39 3.85,-3.21 7.21,-7.4 10.26,-11.61 3.07,-4.23 6.35,-8.83 9.56,-12.71 7.55,-9.15 7.56,-3.17 12.63,0.06 3.75,2.39 11.11,-3.19 18.26,-2.63 5.8,0.45 12.94,6.51 15.72,-0.3 2.73,-6.69 -6.34,-8.73 -10.91,-10.66 -5.25,-2.21 -10.21,-4.02 -15.64,-6.21 -17.26,-6.95 -16.82,-4.52 -24.9,-19.13 -1.28,0.68 -1.86,2.84 -2.81,4.84 -3.6,7.57 -2.57,6.75 -8.07,12.96 -2.53,2.85 -4.32,4.94 -6.41,7.62 -2.21,2.85 -3.77,5.32 -5.8,8.22 -5.12,7.34 -24.32,17.8 -37.27,18.74 -9.83,0.71 -16.32,-2.55 -25.19,-3.19 -18.68,-1.37 -25.41,12.87 -30.94,9.49 -3.64,-2.23 -10.87,-16.3 -27.18,-13.22l-15.33 3.54 -7.46 2.01c0.08,-2.83 0.43,-3.05 1.91,-6.4 0.73,-1.65 2.88,-5.98 2.92,-7.4l-236.04 -0.16c0.72,5.21 8.48,16.75 8.56,22.13 0.16,10.25 -0.19,20.62 -0.04,30.87 0.86,-0.75 4.28,-5.89 7.73,-9.25 5.46,-5.31 8.53,-8.26 17.13,-12.2 24.22,-11.06 51.38,-3.9 67.83,15.51 3.23,3.81 6.53,9.17 8.73,14.66 4.34,10.78 3.17,14.99 4.52,18.82 17.86,1.17 7.42,0.31 15.26,-18.76 12.2,-29.7 46.81,-43.7 76.55,-30.28 17.13,7.73 23.16,20.59 25.04,21.41 -0.1,-1.42 -0.41,-1.79 0.17,-3.1l45.14 -0.13 -12.93 0.04c-0.44,1.65 -0.69,3.42 -0.62,5.34l2.21 8.29c0.02,2.95 3.47,9.9 1.77,19.9 -0.58,3.4 -1.53,6.16 -2.99,8.58 -2.65,4.44 -3.15,1.39 -1.17,7.04 1.99,5.69 3.96,11.06 6,16.67 1.01,2.77 2.17,5.61 2.93,8.64 0.72,2.88 1.22,6.44 2.2,8.91 1.74,0.76 10.24,2.02 11.84,1.18 2.19,-4.75 -4,-9.82 -5.81,-12.15 -5.61,-7.22 -10.05,-20.43 -3.82,-27.59 3.51,-4.05 4.44,-6.21 12.69,-5.52 2.5,-2.58 3.2,-7.69 5.04,-10.99 5.58,-10 34.47,0.29 55.01,-3.58 1.91,-0.35 7.23,-1.37 8.51,-2.97 -4,-2.37 -5.33,-1.74 -8.56,-5.86 -1.89,-2.42 -3.64,-6.13 -4.42,-10.01 -1.29,-6.37 5.17,-7.06 7.11,-4.2 2.16,3.2 1.26,15.14 15.73,11.76 3.85,-0.89 8.28,-1.42 12.17,-2.25 15.13,-3.26 20,-6.4 34.74,-3.71 3.7,0.67 4.31,0.99 5.69,3.78 2.17,4.37 4.02,8.14 6.14,12.43 10.57,21.42 8.89,16 1.94,23.63 0.08,1.34 2.03,5.33 2.89,6.4zm-190.9 -66.1c1.29,-0.02 2.66,-0.04 4.06,-0.07l11.17 -17.2c4.93,-3.4 8.99,-2.8 14.78,-0.11 10.06,4.68 5.86,9.26 0.42,17.07 -8.14,0.01 -21.61,0.37 -30.43,0.31zm145.65 30.83c6.65,5.8 5.21,-3.63 8.19,22.66 0.41,3.62 1.62,10.32 1.53,13.64 -0.12,4.51 -5.65,4.85 -8.55,6.67l0.74 6.54c3.73,-0.61 9.9,-3.93 12.31,-5.89 4.63,-3.76 2.33,-6.83 1.65,-13.48 -0.72,-7.04 0.28,-29.58 -2.69,-33.19 -0.73,-0.43 -12.33,2.4 -13.18,3.05zm-53.53 -61.23c10.83,1.78 27.84,-7.96 32.8,-12.17 4.18,-3.52 6.27,-8.47 9.99,-12.69l7.76 -9.16c1.32,-1.38 1.85,-1.65 2.23,-3.76 -19.79,1.53 -22.95,22.55 -39.04,29.22 -5.23,2.17 -15.98,1.23 -13.74,8.56zm-18.72 75.18c-2.16,-0.18 -4.43,-0.48 -6.63,-0.46 0.13,3.27 0.76,6.41 0.7,10.01 -0.05,3.25 -0.72,6.49 -0.74,9.49 2.45,2.06 5.9,4.17 8.8,6.09l17.48 11.8c1.26,0.85 3.51,2.2 4.12,3.31 1.05,1.89 -0.03,4.17 0.56,5.58 1.47,0.89 7.27,1.15 8.81,0.52 2.03,-5.94 0.39,-10.85 -3.55,-13.17 -10.22,-6.04 -10.58,-4.07 -21.77,-14.09 -2.66,-2.38 -8.32,-6.96 -1.65,-10.37 -1.47,-4.29 0.51,-5.96 0.12,-7.8 -1.38,-0.81 -4.61,-0.78 -6.25,-0.91zm-193.42 -168.75c3.6,-1.01 6.81,1 7.76,3.81 1.23,3.62 -0.85,6.07 -2.23,8.5 -12.22,21.62 1.95,40.97 2.54,45.09 0.5,3.54 -1.71,6.34 -4.35,7.05 -6.73,1.8 -9.25,-5.91 -11.51,-11.84 -4.81,-12.59 -6.06,-25.76 -1.36,-38.72 1.49,-4.09 4.86,-12.67 9.15,-13.89zm-67.57 0.1c3.75,-1.34 6.8,0.9 7.84,3.51 2.58,6.49 -6.63,9.52 -7.06,26.35 -0.18,6.98 1.67,13.92 4.03,19.42 0.8,1.87 3.17,6.26 3.43,8.06 0.52,3.48 -1.75,6.16 -4.25,6.98 -6.73,2.18 -9.45,-6.27 -11.37,-11.19 -2.23,-5.71 -3.9,-11.73 -4.42,-18.5 -0.55,-7.22 0.57,-14.49 2.72,-20.62 0.98,-2.77 2.25,-5.5 3.59,-7.9 1.48,-2.64 2.4,-5.01 5.49,-6.11zm-54.9 80.03l241.08 0.09c2.9,-11.49 4.59,-13.22 6.79,-27.64 4.62,-30.27 -1.94,-59.54 -17.53,-83.94 -6.21,-9.71 -7.26,-4.81 -22.99,0.26 -50.47,16.26 -80.52,-5.56 -86.66,-5.78 -2.15,-0.08 -9.82,3.58 -12.39,4.56 -29.85,11.42 -57.88,8.72 -86.67,-3.39 -6.52,-2.74 -8.09,-0.26 -10.84,4.08 -15.4,24.35 -22.37,53.64 -17.72,83.92 1.08,7.02 4.29,22.72 6.93,27.84zm31.08 114.98c1.39,-1.37 13.44,-8 16,-9.47 2.48,-1.43 3.06,-2.6 6.05,-1.41l0.21 23.4c-6.27,-0.05 -15.28,-5.31 -20.16,-10.15 -0.5,-0.49 -1.78,-2.11 -2.1,-2.37zm35.01 12.61l-0.16 -23.35c3.56,-1.32 2.08,-1.17 5.64,0.85 3.03,1.73 15.63,8.72 16.65,9.89 -0.72,2.2 -6.55,6.36 -9.4,8.02 -3.14,1.82 -8.4,4.09 -12.73,4.59zm9.26 -34.61c-0.19,-4.96 0.15,-3.86 3.59,-5.91 2.81,-1.67 15.32,-9.07 16.82,-9.32 2.2,6.62 3.07,20.46 -0.89,26.31l-19.52 -11.08zm-50.89 10.99c-0.26,-0.3 -0.25,-0.26 -0.52,-0.74 -0.04,-0.08 -0.1,-0.18 -0.14,-0.27 -1.27,-2.5 -2.18,-9.06 -2.25,-11.74 -0.1,-3.7 0.44,-10.71 2.12,-13.48 1.72,0.34 9.47,5.15 11.49,6.34 8.75,5.14 8.98,3.7 8.75,8.75l-19.45 11.14zm33.92 -16.47c3.46,-1.86 5.57,3.61 2.62,5.04 -3.68,1.78 -5.76,-3.35 -2.62,-5.04zm7.71 -34.99c9.56,0.85 20.05,8.81 23.27,13.76 -1.01,1.08 -18.2,11.14 -19.75,11.56 -1.32,-0.63 -1.92,-1.34 -3.67,-2.01l0.15 -23.31zm-36.16 13.76c2.09,-4.66 16.12,-13.88 23.41,-13.61l-0.18 22.86c-0.75,0.9 -2.51,1.83 -3.75,2.29 -3.22,-1.75 -6.71,-3.77 -9.85,-5.65 -2.79,-1.68 -7.67,-3.97 -9.63,-5.89zm80.33 26.53c1.97,-28.69 -21.07,-51.79 -47.39,-53.39 -29,-1.77 -52.21,20.63 -53.85,47.43 -1.77,28.9 20.74,52.34 47.51,53.82 29.46,1.63 51.86,-20.61 53.73,-47.86zm46.28 22.18c1.03,-1.23 9.55,-5.79 10.99,-6.64 1.95,-1.16 3.5,-1.98 5.53,-3.18 2.54,-1.51 3.38,-2.8 5.63,-0.67l0.07 22.94c-4.57,0.36 -14.2,-4.76 -17.88,-7.89 -2.08,-1.75 -2.65,-2.62 -4.34,-4.56zm34.82 12.55c0.07,-5.25 -0.66,-19.12 0.23,-23.24 1.66,-2.59 7.29,1.84 11.03,4.01 2.01,1.17 10.12,5.49 11.01,6.68 -2.09,4.65 -14.5,11.71 -22.27,12.55zm9.17 -35.12l0.13 -3.33c4.87,-2.29 17.69,-10.55 20.23,-11.35 1.94,2.53 2.3,9.34 2.23,13.09 -0.09,5.93 -1.3,8.35 -2.53,13.19 -1.5,-0.34 -18.59,-10.23 -20.06,-11.6zm-51.04 11.58c-1.25,-4.23 -2.34,-7.61 -2.49,-12.77 -0.1,-3.52 0.33,-11.03 2.21,-13.47 1.77,0.43 17.26,9.78 20.2,11.41l0.26 3.25c-1.72,1.63 -7.56,4.56 -9.83,5.88 -2.21,1.29 -8.25,5.21 -10.35,5.7zm32.66 -13.57c-0.47,-4.08 5.44,-4.54 5.84,-0.72 0.42,3.99 -5.43,4.42 -5.84,0.72zm9.2 -37.88c10.26,0.85 17.62,7.4 23.53,13.73 -0.96,1.1 -17.37,10.47 -19.73,11.58 -1.43,-0.45 -2.09,-1.27 -3.76,-1.88l-0.04 -23.43zm-35.97 13.73c4.49,-6.25 16.66,-14.12 23.38,-13.64l-0.06 22.95c-0.9,0.87 -2.42,1.88 -3.75,2.26l-19.36 -11.34c-0.04,-0.14 -0.14,-0.15 -0.21,-0.23zm80.22 28.12c2.8,-29.12 -19.89,-52.35 -45.68,-54.86 -29.42,-2.85 -53.05,19.72 -55.37,45.73 -2.63,29.61 19.58,52.88 46.14,55.3 29.58,2.69 52.38,-19.91 54.91,-46.17z"/>
 </g>
</svg>
