<?xml version="1.0" encoding="UTF-8"?>
<!DOCTYPE svg PUBLIC "-//W3C//DTD SVG 1.1//EN" "http://www.w3.org/Graphics/SVG/1.1/DTD/svg11.dtd">
<!-- Creator: CorelDRAW 2020 (64 Bit) -->
<svg xmlns="http://www.w3.org/2000/svg" xml:space="preserve" width="512px" height="512px" version="1.1" style="shape-rendering:geometricPrecision; text-rendering:geometricPrecision; image-rendering:optimizeQuality; fill-rule:evenodd; clip-rule:evenodd"
viewBox="0 0 512 512"
 xmlns:xlink="http://www.w3.org/1999/xlink"
 xmlns:xodm="http://www.corel.com/coreldraw/odm/2003">
 <defs>
  <style type="text/css">
   <![CDATA[
    .fil0 {fill:black}
   ]]>
  </style>
 </defs>
 <g id="Camada_x0020_1">
  <metadata id="CorelCorpID_0Corel-Layer"/>
  <path class="fil0" d="M41.55 282.36c-1.31,0.54 -0.64,-0.95 -0.92,1.71l0.05 81.86c0,28.14 0,56.29 0,84.43 6.02,0 2.45,0.96 12.26,0.86l3.49 0.46c0.1,0.03 0.2,0.1 0.3,0.13l51.74 0.28c3.19,-0.46 -0.52,-0.36 2.67,-0.83 3.34,-0.49 8.21,0.78 11.48,-0.32 1.87,-0.63 5.11,-0.43 7.78,-0.54 2.6,-0.12 2.89,-0.97 5.64,-0.92 4.95,0.09 3.81,-0.89 9.23,-0.84 2.9,0.02 2.96,-0.91 5.64,-0.92l3.52 -0.42c0.1,-0.03 0.2,-0.1 0.3,-0.13 0.11,-0.04 0.21,-0.09 0.32,-0.12 0.85,-0.23 0.66,-0.16 1.56,-0.19 0.56,-0.02 1.16,0.05 1.73,-0.03 2.93,-0.38 -0.25,-0.42 2.68,-0.81l4.53 -0.72c1.2,-0.33 1.7,-0.1 2.88,-0.18 1.93,-0.15 0.92,-0.41 2.73,-0.78l16.62 -3.5c1.1,-0.21 1.63,0 2.77,-0.29l14.96 -3.85c0.11,-0.04 0.22,-0.09 0.32,-0.12 0.11,-0.04 0.22,-0.08 0.33,-0.11l6.79 -1.96c0.11,-0.03 0.23,-0.07 0.34,-0.1 0.1,-0.04 0.21,-0.08 0.32,-0.12 0.4,-0.13 0.24,-0.09 0.64,-0.23l1.65 -0.53c0.11,-0.04 0.22,-0.09 0.32,-0.12 0.13,-0.05 0.5,-0.2 0.64,-0.24l18.39 -6.11c0.11,-0.03 0.22,-0.08 0.33,-0.11 0.55,-0.18 0.8,-0.21 1.35,-0.4l16.47 -6.72c0.11,-0.03 0.23,-0.06 0.34,-0.09l2.78 -1.16c1.33,-0.69 -0.77,0.38 0.58,-0.3 0.35,-0.18 0.81,-0.4 1.16,-0.58 0.09,-0.05 0.2,-0.1 0.29,-0.15l1.45 -0.74c0.09,-0.05 0.2,-0.1 0.29,-0.14 0.1,-0.04 0.22,-0.09 0.32,-0.13l1.35 -0.39c0.11,-0.04 0.23,-0.07 0.34,-0.1 0.11,-0.04 0.22,-0.08 0.32,-0.12l3.81 -1.88c0.09,-0.04 0.2,-0.1 0.29,-0.14l7.88 -3.94c0.09,-0.04 0.2,-0.1 0.29,-0.14l12.23 -7.02c0.1,-0.04 0.21,-0.1 0.3,-0.14l2.06 -1c0.12,-0.06 0.47,-0.23 0.59,-0.29l20.68 -13.44c1.41,-0.91 -0.73,0.63 0.52,-0.36 0.89,-0.71 0.75,-0.97 1.84,-1.66 0.66,-0.42 0.47,-0.19 1.14,-0.61l1.84 -1.66c1.21,-0.96 -0.86,0.52 0.52,-0.36l3.78 -2.78c1.62,-0.95 2.56,-2.38 4.09,-3.34 0.57,-0.36 0.36,-0.16 0.86,-0.46 0.09,-0.04 0.2,-0.1 0.29,-0.15l0.75 -0.56c0.52,-0.44 0.36,-0.35 0.87,-0.88 0.28,-0.29 0.58,-0.6 0.86,-0.89 0.51,-0.52 0.35,-0.43 0.87,-0.88 0.09,-0.08 0.38,-0.32 0.48,-0.39l5.87 -5.07c3.69,-3.69 5.48,-4.56 7.01,-6.12l21.52 -23.98c0.01,-0.01 0.76,-0.96 0.77,-0.97l4.58 -5.49c0.05,-0.08 0.11,-0.19 0.16,-0.27 0.06,-0.08 0.11,-0.2 0.16,-0.28l4.84 -6.97c2.23,-3.46 4.54,-6.54 6.38,-10.25l12.35 -28.33c0.3,-1.12 0.18,-1.46 0.52,-2.55l0.57 -2.92c0.2,-1.88 0.39,-0.9 0.78,-2.73 0.33,-1.61 -0.13,-3.31 0.39,-4.86l0.38 -0.93c0.29,-1 0.21,-2.21 0.2,-3.3 -0.05,-4.63 0.81,-11.44 -0.58,-15.63l-0.61 -4.64c-0.4,-1.22 -0.05,0.81 -0.47,-1.28l-12.74 -34.07c-0.06,-0.08 -0.13,-0.18 -0.18,-0.26l-4.7 -8.43c-0.06,-0.12 -0.22,-0.47 -0.28,-0.59l-5.53 -9.35c-0.04,-0.09 -0.09,-0.21 -0.14,-0.3 -0.06,-0.12 -0.23,-0.46 -0.29,-0.58l-1.92 -2.9c-0.17,-0.36 -0.1,-0.23 -0.27,-0.6 -0.06,-0.12 -0.22,-0.47 -0.28,-0.59l-1.93 -2.88c-0.05,-0.09 -0.1,-0.21 -0.14,-0.3l-0.42 -0.9c-0.3,-0.6 -0.15,-0.36 -0.46,-0.85l-8.77 -17.48c-0.03,-0.1 -0.08,-0.22 -0.11,-0.32l-3.1 -12.22c-0.01,-1.15 0.04,-2.36 0.03,-3.53l0.43 -4.38c0.04,-0.11 0.09,-0.21 0.13,-0.31 0.76,-2.38 0.73,-3.88 1.75,-6.13 0.79,-1.76 1.33,-1.98 2.22,-3.47l3.78 -4.09c0.49,-0.51 0.9,-0.98 1.62,-1.44 0.64,-0.41 0.49,-0.21 1.13,-0.62 0.23,-0.15 0.57,-0.45 0.99,-0.76l3.65 -2.04c0.11,-0.08 0.37,-0.33 0.47,-0.4 1.05,-0.78 0.01,-0.24 1.08,-0.68 0.59,-0.24 0.71,-0.16 1.37,-0.38l25.57 -7.68c1.98,-0.17 3.64,-0.85 5.7,-0.85l2.92 -0.59c2.04,-0.69 4.11,-0.02 6.23,-0.33 2.4,-0.35 1.08,-0.91 6.15,-0.85l4.51 -0.3c3.88,-1.31 16.47,-0.58 21.3,-0.58 9.05,0 18.09,0 27.13,0l0 -41.12c0.02,-3.64 0.78,-4.58 -0.88,-5.25 -0.49,-1.22 -1.09,-0.7 -2.49,-1.01l-1.97 -0.65c-0.56,-0.11 -0.67,-0.07 -1.22,-0.1l-8.62 -1.44c-1.96,-0.65 -4.84,-0.08 -6.7,-0.74 -0.1,-0.03 -0.2,-0.1 -0.3,-0.13 -2,-0.67 -4.1,-0.19 -6.13,-0.88 -0.43,-0.14 0.21,-0.1 -1.02,-0.28l-5.27 0.01c-2.06,-0.09 -2.24,-0.85 -4.31,-0.94 -3.6,-0.15 -3.65,0.36 -7.21,-0.66 -2.97,-0.84 -7.17,0.48 -10.14,-0.36 -4.06,-1.16 -5.22,-0.7 -9.8,-0.7 -6.27,0 -34.11,-0.63 -36.89,0.31l-4.23 0.58c-1.66,-0.02 -3.67,-0.11 -5.29,-0.04 -3.78,0.16 -0.53,0.78 -4.31,0.94 -2.18,0.08 -4.01,-0.14 -6.03,0.54l-3.65 0.28c-3.84,0.12 -0.49,0.8 -4.33,0.92 -3.2,0.1 -6.04,0.76 -8.97,1.53l-4.05 0.76c-0.11,0.04 -0.21,0.09 -0.32,0.12l-14.58 3.36c-0.1,0.03 -0.21,0.08 -0.32,0.12l-4.9 1.66c-0.7,0.21 -0.23,0.09 -1.06,0.25 -0.46,0.09 -0.64,0.05 -1.15,0.16 -0.12,0.03 -0.23,0.06 -0.35,0.09l-2.62 0.88c-0.1,0.04 -0.22,0.08 -0.32,0.12l-21.92 9.14c-0.59,0.3 -0.36,0.14 -0.85,0.46l-2.33 1.61c-0.08,0.05 -0.2,0.1 -0.29,0.14 -0.12,0.06 -0.47,0.23 -0.6,0.29 -0.22,0.1 -0.55,0.27 -0.87,0.43 -0.09,0.04 -0.21,0.1 -0.3,0.14 -0.12,0.06 -0.47,0.23 -0.59,0.29l-5.52 3.23c-0.07,0.05 -0.18,0.12 -0.26,0.18l-11.2 8.48c-0.37,0.38 -0.42,0.43 -0.65,0.66 -0.44,0.44 -0.88,0.87 -1.32,1.31 -2.55,2.55 -7.83,6.93 -9.62,10.06l-12.69 22.75c-0.03,0.11 -0.08,0.22 -0.12,0.33l-0.53 1.65c-0.04,0.1 -0.08,0.21 -0.12,0.32 -0.04,0.13 -0.2,0.5 -0.24,0.63l-1.62 7.57c-0.11,0.34 -0.07,-0.31 -0.34,0.97l-0.06 3.88c-0.12,3.14 -0.83,0.18 -0.91,9.16 -0.01,0.72 -0.07,1.97 -0.01,2.64 0.29,3.3 0.8,1.11 0.86,7.01 0.01,1.36 -0.02,1.23 0.33,2.29l3.1 12.66c0.17,0.9 0.02,1.51 0.2,2.42 0.28,1.38 0.75,2.34 0.76,4.49 0.01,3.02 0.82,0.44 0.91,9.63 0,0.77 0.05,1.78 -0.11,2.52 -0.55,2.55 -0.16,-0.64 -0.7,1.92 -0.4,1.9 0,3.49 -0.64,5.49l-1.63 5.81c-0.04,0.09 -0.09,0.2 -0.14,0.3l-5.84 11.65c-0.41,0.63 -0.72,0.82 -1.25,1.38 -0.22,0.23 -0.53,0.57 -0.61,0.7l-0.95 1.68c-1.8,2.59 -4.96,5.03 -7.18,7.25 -1.57,1.57 -2.98,3.18 -4.88,4.3l-2.13 1.82c-0.63,0.5 -0.14,0.12 -0.8,0.51l-3.47 2.22c-0.08,0.05 -0.19,0.12 -0.26,0.17 -0.08,0.05 -0.18,0.13 -0.25,0.19l-12.64 7.49c-1.09,0.55 0.5,-0.26 -0.58,0.29l-7.58 3.35c-0.09,0.05 -0.21,0.11 -0.29,0.15l-21.35 7.96c-0.68,0.18 -0.51,0.1 -1.12,0.21l-11.13 3.3c-0.68,0.17 -0.52,0.09 -1.12,0.19 -0.61,0.12 -0.41,0.03 -1.1,0.21 -0.11,0.03 -0.22,0.08 -0.33,0.11l-24.51 5.24c-2.27,0.73 -2.7,0.28 -4.59,0.66 -2.6,0.53 0.67,0.17 -1.93,0.69 -0.91,0.19 -1.65,0.03 -2.54,0.09 -2.99,0.23 -1.7,0.89 -4.35,0.9 -2.4,0.01 -2.98,0.45 -4.48,0.77 -1.79,0.37 -3.01,-0.23 -4.86,0.39 -0.93,0.31 0.51,0.37 -2.04,0.59 -0.76,0.06 -1.88,-0.05 -2.67,-0.05 -2.63,0.01 -1.37,0.66 -4.33,0.92 -2.96,0.26 -4.55,-0.38 -7.32,0.56 -1.07,0.36 -0.93,0.31 -2.29,0.33 -3.06,0.04 -4.8,-0.31 -7.33,0.54 -3.06,1.03 -6.92,-0.3 -10.11,0.39 -2.55,0.55 0.62,0.15 -1.93,0.7 -5.2,1.12 -12.82,-0.53 -18.34,0.04 -2.65,0.28 -1.16,-0.39 -1.7,0.92z"/>
 </g>
</svg>
