<?xml version="1.0" encoding="UTF-8"?>
<!DOCTYPE svg PUBLIC "-//W3C//DTD SVG 1.1//EN" "http://www.w3.org/Graphics/SVG/1.1/DTD/svg11.dtd">
<!-- Creator: CorelDRAW 2020 (64 Bit) -->
<svg xmlns="http://www.w3.org/2000/svg" xml:space="preserve" width="512px" height="512px" version="1.1" style="shape-rendering:geometricPrecision; text-rendering:geometricPrecision; image-rendering:optimizeQuality; fill-rule:evenodd; clip-rule:evenodd"
viewBox="0 0 512 512"
 xmlns:xlink="http://www.w3.org/1999/xlink"
 xmlns:xodm="http://www.corel.com/coreldraw/odm/2003">
 <defs>
  <style type="text/css">
   <![CDATA[
    .fil0 {fill:black}
   ]]>
  </style>
 </defs>
 <g id="Camada_x0020_1">
  <metadata id="CorelCorpID_0Corel-Layer"/>
  <path class="fil0" d="M1.1 287.34c-1.57,0.63 -0.77,-1.14 -1.1,2.02l0.06 97.3c0,33.46 0,66.92 0,100.37 7.15,0 2.91,1.14 14.58,1.02l4.14 0.54c0.12,0.04 0.24,0.12 0.36,0.16l61.5 0.34c3.79,-0.56 -0.62,-0.44 3.17,-0.99 3.97,-0.58 9.76,0.92 13.65,-0.39 2.22,-0.75 6.07,-0.5 9.24,-0.64 3.1,-0.13 3.44,-1.15 6.71,-1.09 5.88,0.11 4.53,-1.06 10.97,-1 3.45,0.03 3.52,-1.08 6.71,-1.09l4.18 -0.5c0.12,-0.04 0.24,-0.12 0.36,-0.16 0.13,-0.04 0.25,-0.1 0.38,-0.14 1,-0.27 0.78,-0.18 1.85,-0.23 0.67,-0.02 1.38,0.06 2.05,-0.02 3.49,-0.46 -0.3,-0.51 3.19,-0.97l5.39 -0.86c1.42,-0.39 2.01,-0.11 3.42,-0.22 2.29,-0.17 1.09,-0.48 3.24,-0.92l19.76 -4.16c1.31,-0.25 1.94,0 3.29,-0.35l17.79 -4.57c0.12,-0.05 0.25,-0.1 0.37,-0.15 0.13,-0.04 0.27,-0.08 0.39,-0.13l8.08 -2.32c0.13,-0.04 0.27,-0.08 0.4,-0.12 0.12,-0.05 0.26,-0.1 0.38,-0.14 0.48,-0.16 0.29,-0.12 0.76,-0.28l1.97 -0.63c0.12,-0.04 0.25,-0.1 0.38,-0.15 0.16,-0.05 0.59,-0.23 0.75,-0.28l21.86 -7.26c0.13,-0.04 0.26,-0.09 0.39,-0.13 0.66,-0.22 0.96,-0.25 1.61,-0.48l19.57 -7.98c0.14,-0.04 0.28,-0.07 0.41,-0.11l3.3 -1.38c1.59,-0.82 -0.91,0.46 0.69,-0.35 0.42,-0.22 0.97,-0.48 1.39,-0.7 0.1,-0.05 0.24,-0.12 0.34,-0.17l1.72 -0.89c0.11,-0.05 0.24,-0.11 0.36,-0.16 0.11,-0.05 0.25,-0.11 0.37,-0.15l1.61 -0.47c0.13,-0.04 0.27,-0.08 0.4,-0.12 0.12,-0.04 0.26,-0.09 0.38,-0.13l4.53 -2.24c0.1,-0.05 0.24,-0.12 0.34,-0.17l9.37 -4.68c0.1,-0.05 0.24,-0.12 0.34,-0.17l14.55 -8.34c0.1,-0.06 0.24,-0.12 0.35,-0.17l2.45 -1.19c0.14,-0.07 0.56,-0.27 0.7,-0.34l24.58 -15.99c1.68,-1.07 -0.86,0.76 0.61,-0.42 1.06,-0.85 0.89,-1.15 2.19,-1.97 0.79,-0.5 0.57,-0.22 1.36,-0.73l2.19 -1.97c1.43,-1.14 -1.03,0.62 0.61,-0.42l4.5 -3.31c1.92,-1.13 3.03,-2.83 4.86,-3.97 0.68,-0.43 0.43,-0.19 1.02,-0.54 0.1,-0.06 0.24,-0.12 0.34,-0.19l0.9 -0.66c0.61,-0.53 0.42,-0.42 1.03,-1.05 0.33,-0.34 0.69,-0.71 1.02,-1.05 0.61,-0.63 0.42,-0.52 1.04,-1.05 0.11,-0.1 0.45,-0.38 0.57,-0.46l6.98 -6.03c4.38,-4.38 6.51,-5.42 8.33,-7.27l25.58 -28.51c0.01,-0.01 0.9,-1.15 0.91,-1.16l5.44 -6.52c0.06,-0.09 0.14,-0.23 0.2,-0.32 0.06,-0.1 0.13,-0.24 0.19,-0.34l5.75 -8.28c2.65,-4.11 5.4,-7.77 7.58,-12.18l14.69 -33.68c0.35,-1.32 0.21,-1.73 0.62,-3.02l0.67 -3.48c0.24,-2.23 0.47,-1.07 0.92,-3.25 0.4,-1.9 -0.15,-3.93 0.47,-5.77l0.46 -1.1c0.34,-1.19 0.24,-2.63 0.23,-3.93 -0.06,-5.5 0.96,-13.59 -0.69,-18.58l-0.73 -5.51c-0.47,-1.45 -0.05,0.97 -0.55,-1.53l-15.15 -40.49c-0.06,-0.09 -0.15,-0.22 -0.21,-0.31l-5.58 -10.02c-0.08,-0.14 -0.27,-0.56 -0.34,-0.7l-6.57 -11.11c-0.05,-0.11 -0.11,-0.25 -0.16,-0.36 -0.08,-0.14 -0.28,-0.55 -0.36,-0.69l-2.27 -3.44c-0.21,-0.43 -0.12,-0.28 -0.33,-0.72 -0.07,-0.14 -0.26,-0.56 -0.34,-0.7l-2.29 -3.43c-0.05,-0.11 -0.11,-0.24 -0.16,-0.35l-0.49 -1.07c-0.37,-0.72 -0.19,-0.43 -0.56,-1.01l-10.42 -20.78c-0.04,-0.12 -0.1,-0.26 -0.14,-0.38l-3.68 -14.52c-0.01,-1.37 0.05,-2.81 0.04,-4.21l0.51 -5.2c0.04,-0.13 0.11,-0.25 0.15,-0.37 0.91,-2.83 0.87,-4.6 2.08,-7.28 0.95,-2.09 1.58,-2.35 2.64,-4.13l4.5 -4.86c0.58,-0.61 1.07,-1.17 1.92,-1.71 0.76,-0.48 0.59,-0.26 1.35,-0.74 0.26,-0.17 0.67,-0.53 1.18,-0.9l4.33 -2.43c0.13,-0.09 0.44,-0.38 0.56,-0.47 1.24,-0.93 0.01,-0.28 1.28,-0.81 0.71,-0.29 0.85,-0.19 1.63,-0.45l30.4 -9.12c2.35,-0.22 4.32,-1.02 6.78,-1.03l3.46 -0.69c2.42,-0.82 4.89,-0.02 7.41,-0.39 2.85,-0.42 1.28,-1.09 7.31,-1.02l5.36 -0.36c4.61,-1.55 19.58,-0.68 25.32,-0.68 10.75,0 21.49,0 32.24,0l0 -48.88c0.02,-4.32 0.93,-5.44 -1.04,-6.24 -0.58,-1.45 -1.3,-0.83 -2.96,-1.2l-2.35 -0.77c-0.66,-0.13 -0.79,-0.09 -1.44,-0.12l-10.25 -1.71c-2.32,-0.78 -5.76,-0.1 -7.96,-0.88 -0.12,-0.04 -0.24,-0.12 -0.36,-0.16 -2.38,-0.79 -4.87,-0.23 -7.28,-1.04 -0.52,-0.17 0.24,-0.12 -1.22,-0.33l-6.26 0.01c-2.45,-0.11 -2.67,-1.01 -5.12,-1.12 -4.29,-0.18 -4.34,0.42 -8.58,-0.78 -3.52,-1 -8.52,0.57 -12.04,-0.44 -4.84,-1.37 -6.22,-0.82 -11.66,-0.82 -7.45,0 -40.54,-0.75 -43.84,0.36l-5.04 0.69c-1.97,-0.02 -4.36,-0.13 -6.28,-0.05 -4.5,0.2 -0.64,0.93 -5.13,1.12 -2.58,0.1 -4.76,-0.16 -7.16,0.64l-4.34 0.33c-4.57,0.15 -0.59,0.96 -5.15,1.1 -3.81,0.12 -7.18,0.9 -10.66,1.82l-4.81 0.91c-0.13,0.04 -0.26,0.1 -0.39,0.13l-17.33 4c-0.12,0.04 -0.25,0.1 -0.37,0.14l-5.83 1.97c-0.83,0.25 -0.27,0.11 -1.26,0.3 -0.55,0.11 -0.76,0.06 -1.36,0.2 -0.15,0.03 -0.28,0.06 -0.42,0.1l-3.12 1.05c-0.12,0.04 -0.26,0.09 -0.38,0.13l-26.06 10.87c-0.7,0.36 -0.42,0.17 -1,0.55l-2.77 1.92c-0.11,0.05 -0.25,0.11 -0.35,0.16 -0.14,0.07 -0.56,0.27 -0.71,0.34 -0.26,0.13 -0.65,0.33 -1.04,0.52 -0.11,0.05 -0.24,0.11 -0.35,0.17 -0.14,0.07 -0.56,0.26 -0.7,0.33l-6.56 3.85c-0.1,0.05 -0.22,0.14 -0.31,0.21l-13.32 10.08c-0.44,0.45 -0.5,0.51 -0.78,0.78 -0.51,0.52 -1.03,1.04 -1.56,1.56 -3.03,3.04 -9.31,8.23 -11.44,11.96l-15.08 27.05c-0.04,0.12 -0.09,0.25 -0.14,0.38l-0.63 1.96c-0.04,0.13 -0.1,0.26 -0.14,0.38 -0.06,0.16 -0.24,0.59 -0.28,0.76l-1.93 9c-0.14,0.4 -0.09,-0.38 -0.41,1.14l-0.07 4.61c-0.14,3.74 -0.99,0.22 -1.08,10.89 -0.01,0.86 -0.08,2.35 -0.02,3.14 0.35,3.93 0.95,1.32 1.02,8.34 0.02,1.62 -0.01,1.45 0.4,2.72l3.68 15.04c0.21,1.08 0.03,1.81 0.25,2.88 0.33,1.64 0.88,2.79 0.89,5.34 0.02,3.59 0.98,0.52 1.08,11.44 0.01,0.92 0.07,2.12 -0.12,3 -0.65,3.03 -0.19,-0.76 -0.83,2.29 -0.48,2.26 -0.01,4.14 -0.76,6.51l-1.94 6.91c-0.05,0.11 -0.11,0.25 -0.16,0.36l-6.95 13.85c-0.49,0.75 -0.85,0.97 -1.48,1.64 -0.27,0.28 -0.63,0.68 -0.73,0.83l-1.13 1.99c-2.14,3.08 -5.89,5.98 -8.54,8.63 -1.86,1.86 -3.54,3.78 -5.8,5.11l-2.52 2.16c-0.76,0.6 -0.18,0.15 -0.95,0.61l-4.13 2.63c-0.1,0.06 -0.22,0.14 -0.32,0.21 -0.09,0.06 -0.2,0.16 -0.29,0.22l-15.02 8.9c-1.3,0.66 0.59,-0.31 -0.69,0.35l-9.02 3.99c-0.1,0.05 -0.24,0.12 -0.34,0.17l-25.38 9.47c-0.81,0.21 -0.6,0.11 -1.32,0.24l-13.24 3.92c-0.81,0.21 -0.61,0.11 -1.32,0.24 -0.74,0.13 -0.5,0.02 -1.32,0.24 -0.13,0.04 -0.26,0.09 -0.39,0.13l-29.13 6.23c-2.7,0.87 -3.21,0.33 -5.46,0.79 -3.09,0.62 0.79,0.19 -2.29,0.82 -1.08,0.22 -1.97,0.03 -3.02,0.11 -3.55,0.27 -2.02,1.05 -5.18,1.06 -2.84,0.01 -3.54,0.54 -5.32,0.91 -2.12,0.45 -3.58,-0.27 -5.78,0.47 -1.1,0.37 0.62,0.44 -2.42,0.7 -0.9,0.07 -2.23,-0.06 -3.17,-0.06 -3.13,0.02 -1.63,0.79 -5.15,1.1 -3.52,0.3 -5.41,-0.45 -8.7,0.66 -1.27,0.43 -1.1,0.37 -2.72,0.4 -3.64,0.05 -5.71,-0.38 -8.72,0.64 -3.63,1.22 -8.22,-0.36 -12.02,0.46 -3.03,0.65 0.74,0.18 -2.28,0.83 -6.18,1.34 -15.24,-0.63 -21.8,0.05 -3.16,0.33 -1.39,-0.47 -2.02,1.1z"/>
 </g>
</svg>
