<?xml version="1.0" encoding="UTF-8"?>
<!DOCTYPE svg PUBLIC "-//W3C//DTD SVG 1.1//EN" "http://www.w3.org/Graphics/SVG/1.1/DTD/svg11.dtd">
<!-- Creator: CorelDRAW 2020 (64 Bit) -->
<svg xmlns="http://www.w3.org/2000/svg" xml:space="preserve" width="512px" height="512px" version="1.1" style="shape-rendering:geometricPrecision; text-rendering:geometricPrecision; image-rendering:optimizeQuality; fill-rule:evenodd; clip-rule:evenodd"
viewBox="0 0 512 512"
 xmlns:xlink="http://www.w3.org/1999/xlink"
 xmlns:xodm="http://www.corel.com/coreldraw/odm/2003">
 <defs>
  <style type="text/css">
   <![CDATA[
    .fil1 {fill:#666666}
    .fil0 {fill:#B3B3B3}
    .fil4 {fill:black;fill-rule:nonzero}
    .fil3 {fill:#CCCCCC;fill-rule:nonzero}
    .fil2 {fill:white;fill-rule:nonzero}
   ]]>
  </style>
 </defs>
 <g id="Camada_x0020_1">
  <metadata id="CorelCorpID_0Corel-Layer"/>
  <path id="cinza_x0020_3" class="fil0" d="M256 37.14c120.87,0 218.86,97.99 218.86,218.86 0,120.87 -97.99,218.86 -218.86,218.86 -120.87,0 -218.86,-97.99 -218.86,-218.86 0,-120.87 97.99,-218.86 218.86,-218.86zm-4.13 356.52c78.31,0 141.79,-63.48 141.79,-141.79 0,-78.3 -63.48,-141.78 -141.79,-141.78 -78.3,0 -141.78,63.48 -141.78,141.78 0,78.31 63.48,141.79 141.78,141.79z"/>
  <circle id="cinza_x0020_2" class="fil1" cx="251.87" cy="251.87" r="141.79"/>
  <path id="branco" class="fil2" d="M251.87 4.13c-136.82,0 -247.74,110.92 -247.74,247.74 0,136.82 110.92,247.74 247.74,247.74 136.82,0 247.74,-110.92 247.74,-247.74 0,-136.82 -110.92,-247.74 -247.74,-247.74zm-195.56 184.2c10.99,-33.84 47.33,-52.35 81.16,-41.36 33.84,11 52.35,47.33 41.36,81.17 -10.99,33.83 -47.33,52.35 -81.17,41.36 -33.83,-11 -52.34,-47.34 -41.35,-81.17zm164.67 215.65c-20.91,28.78 -61.19,35.16 -89.97,14.25 -28.78,-20.91 -35.16,-61.2 -14.25,-89.98 20.91,-28.78 61.19,-35.16 89.97,-14.25 28.78,20.92 35.16,61.2 14.25,89.98zm-33.52 -293.32c0,-35.58 28.84,-64.41 64.41,-64.41 35.58,0 64.41,28.83 64.41,64.41 0,35.57 -28.83,64.41 -64.41,64.41 -35.57,0 -64.41,-28.84 -64.41,-64.41zm185.28 307.57c-28.79,20.91 -69.07,14.53 -89.98,-14.25 -20.91,-28.78 -14.53,-69.07 14.25,-89.98 28.78,-20.91 69.07,-14.53 89.98,14.25 20.9,28.78 14.53,69.07 -14.25,89.98zm33.34 -148.73c-33.84,10.99 -70.17,-7.53 -81.17,-41.36 -10.99,-33.84 7.53,-70.17 41.36,-81.17 33.83,-10.99 70.17,7.53 81.16,41.36 11,33.83 -7.52,70.17 -41.35,81.17z"/>
  <circle id="cinza_x0020_1" class="fil3" cx="251.87" cy="251.87" r="34.68"/>
  <path id="contorno" class="fil4" d="M503.74 495.48c-34.39,0 -62.52,-27.25 -63.96,-61.29 46.6,-48.02 72.22,-111.13 72.22,-178.19 0,-68.38 -26.63,-132.67 -74.98,-181.02 -48.35,-48.35 -112.64,-74.98 -181.02,-74.98 -68.38,0 -132.67,26.63 -181.02,74.98 -48.35,48.35 -74.98,112.64 -74.98,181.02 0,68.38 26.63,132.67 74.98,181.02 48.35,48.35 112.64,74.98 181.02,74.98 62.85,0 122.24,-22.51 168.98,-63.7 7.77,36.35 40.13,63.7 78.76,63.7 4.56,0 8.26,-3.7 8.26,-8.26 0,-4.56 -3.7,-8.26 -8.26,-8.26zm-387.96 -210.68c1.96,0.16 3.92,0.24 5.87,0.24 30.63,0 59.2,-19.55 69.16,-50.22 6,-18.46 4.45,-38.15 -4.36,-55.45 -6.21,-12.18 -15.5,-22.12 -26.89,-29.05 -0.09,-0.06 -0.19,-0.11 -0.28,-0.16 -4.71,-2.84 -9.77,-5.17 -15.12,-6.91l0 0c-38.11,-12.38 -79.19,8.55 -91.58,46.66 -12.38,38.11 8.55,79.19 46.66,91.57 5.28,1.71 10.62,2.78 15.93,3.26 0.2,0.02 0.4,0.04 0.61,0.06zm59.32 -55.08c-7.48,23.04 -28.54,37.95 -51.45,38.77 -0.39,-4.15 -0.6,-8.32 -0.6,-12.49 0,-32.66 11.74,-63.62 33.22,-87.92 6.39,4.98 11.67,11.35 15.46,18.79 6.81,13.36 8.01,28.58 3.37,42.85zm-106.81 -34.71c7.7,-23.71 29.77,-38.81 53.45,-38.81 5.73,0 11.57,0.89 17.31,2.76l0 0c0.85,0.27 1.68,0.57 2.51,0.88 -22.67,26.9 -35.03,60.64 -35.03,96.16 0,3.51 0.13,7.03 0.37,10.53 -0.85,-0.23 -1.7,-0.48 -2.56,-0.76 -29.44,-9.57 -45.62,-41.31 -36.05,-70.76zm117.09 -63.13c7.7,31.85 36.44,55.58 70.62,55.58 34.19,0 62.92,-23.74 70.63,-55.6 0.12,-0.39 0.21,-0.79 0.27,-1.2 1.15,-5.11 1.77,-10.42 1.77,-15.87 0,-40.07 -32.6,-72.67 -72.67,-72.67 -40.07,0 -72.67,32.6 -72.67,72.67 0,5.45 0.62,10.76 1.76,15.87 0.07,0.41 0.16,0.81 0.29,1.22zm70.62 39.06c-24.24,0 -44.94,-15.44 -52.79,-37 16.65,-7.23 34.37,-10.9 52.79,-10.9 18.42,0 36.14,3.67 52.79,10.9 -7.85,21.56 -28.55,37 -52.79,37zm0 -112.31c30.96,0 56.15,25.19 56.15,56.16 0,0.88 -0.02,1.76 -0.06,2.63 -17.77,-7.22 -36.59,-10.89 -56.09,-10.89 -19.5,0 -38.32,3.67 -56.09,10.89 -0.04,-0.87 -0.06,-1.75 -0.06,-2.63 0,-30.97 25.19,-56.16 56.15,-56.16zm42.94 197.37c0,-23.68 -19.26,-42.94 -42.94,-42.94 -23.68,0 -42.94,19.26 -42.94,42.94 0,23.68 19.26,42.94 42.94,42.94 23.68,0 42.94,-19.26 42.94,-42.94zm-42.94 26.43c-14.57,0 -26.43,-11.86 -26.43,-26.43 0,-14.57 11.86,-26.43 26.43,-26.43 14.57,0 26.43,11.86 26.43,26.43 0,14.57 -11.86,26.43 -26.43,26.43zm-40.29 29.02c-27.65,-20.09 -64.84,-17.78 -89.79,3.45 -0.35,0.26 -0.67,0.53 -0.96,0.83 -3.93,3.47 -7.55,7.39 -10.75,11.8 -11.41,15.7 -16.03,34.91 -12.99,54.08 3.04,19.17 13.36,36.02 29.06,47.43 12.55,9.11 27.34,13.89 42.56,13.89 3.83,0 7.68,-0.3 11.53,-0.91 19.17,-3.04 36.01,-13.36 47.42,-29.06 3.22,-4.43 5.84,-9.11 7.92,-13.94 0.19,-0.36 0.35,-0.74 0.49,-1.13 12.45,-30.29 3.16,-66.35 -24.49,-86.44zm-42.64 2.66c11.44,0 22.99,3.48 32.93,10.7 19.61,14.25 27.28,38.9 20.96,60.95 -35.54,-7.95 -66.71,-30.6 -85.39,-62.04 9.37,-6.31 20.38,-9.61 31.5,-9.61zm8.71 111.6c-14.81,2.35 -29.65,-1.22 -41.79,-10.04 -12.14,-8.81 -20.11,-21.83 -22.46,-36.64 -2.34,-14.82 1.22,-29.66 10.04,-41.79l0 0c0.52,-0.72 1.07,-1.42 1.63,-2.11 20.53,32.78 53.32,56.61 90.73,65.93 -0.48,0.74 -0.98,1.47 -1.5,2.19 -8.82,12.14 -21.83,20.11 -36.65,22.46zm205.25 -109.99c-0.28,-0.29 -0.59,-0.55 -0.92,-0.8 -24.96,-21.25 -62.16,-23.57 -89.82,-3.47 -27.64,20.08 -36.94,56.14 -24.49,86.43 0.14,0.4 0.3,0.78 0.49,1.15 2.08,4.83 4.71,9.5 7.92,13.93l0 0c11.41,15.7 28.25,26.02 47.43,29.06 3.84,0.61 7.69,0.91 11.52,0.91 15.22,0 30.01,-4.78 42.56,-13.89 15.7,-11.41 26.02,-28.26 29.06,-47.43 3.04,-19.17 -1.58,-38.38 -12.98,-54.08 -3.21,-4.41 -6.84,-8.34 -10.77,-11.81zm-81.03 9.09c9.94,-7.22 21.49,-10.7 32.93,-10.7 11.11,0 22.13,3.29 31.5,9.61 -18.68,31.44 -49.85,54.09 -85.4,62.04 -6.31,-22.05 1.36,-46.7 20.97,-60.95zm88.47 54.22c-2.35,14.81 -10.33,27.83 -22.46,36.64 -12.13,8.82 -26.97,12.38 -41.79,10.04 -14.82,-2.35 -27.83,-10.33 -36.65,-22.46l0 0c-0.52,-0.72 -1.02,-1.45 -1.5,-2.19 37.41,-9.32 70.2,-33.15 90.74,-65.93 0.55,0.69 1.1,1.38 1.63,2.11 8.81,12.13 12.37,26.97 10.03,41.79zm64.95 -189.12c-12.39,-38.11 -53.47,-59.05 -91.58,-46.66 -5.44,1.77 -10.57,4.14 -15.34,7.04 -0.01,0 -0.02,0.01 -0.03,0.02 -11.41,6.92 -20.71,16.87 -26.92,29.06 -8.81,17.3 -10.36,36.99 -4.36,55.45 9.96,30.68 38.52,50.22 69.16,50.22 1.94,0 3.88,-0.08 5.83,-0.24 0.24,-0.01 0.47,-0.04 0.71,-0.07 5.29,-0.48 10.61,-1.54 15.87,-3.25l0 0c38.11,-12.39 59.04,-53.46 46.66,-91.57zm-51.77 75.86c-0.85,0.28 -1.7,0.53 -2.55,0.76 0.24,-3.5 0.37,-7.02 0.37,-10.53 0,-13.34 -1.76,-26.57 -5.23,-39.33 -1.2,-4.4 -5.74,-7 -10.14,-5.8 -4.4,1.2 -6.99,5.73 -5.8,10.13 3.09,11.35 4.65,23.12 4.65,35 0,4.16 -0.21,8.34 -0.6,12.48 -22.91,-0.81 -43.97,-15.73 -51.46,-38.77 -4.63,-14.26 -3.43,-29.48 3.38,-42.84 3.78,-7.44 9.06,-13.8 15.45,-18.79 5.95,6.74 11.21,14.06 15.68,21.84 1.53,2.66 4.31,4.15 7.17,4.15 1.39,0 2.81,-0.35 4.1,-1.1 3.96,-2.27 5.33,-7.32 3.05,-11.27 -4.43,-7.72 -9.56,-15.03 -15.3,-21.86 0.83,-0.31 1.68,-0.61 2.53,-0.89 5.74,-1.86 11.57,-2.75 17.31,-2.75 23.68,0 45.75,15.1 53.45,38.81 9.57,29.45 -6.61,61.19 -36.06,70.76zm-391.13 -9.77c0,-132.05 107.43,-239.48 239.48,-239.48 132.05,0 239.48,107.43 239.48,239.48 0,132.05 -107.43,239.48 -239.48,239.48 -132.05,0 -239.48,-107.43 -239.48,-239.48z"/>
 </g>
</svg>
