<?xml version="1.0" encoding="UTF-8"?>
<!DOCTYPE svg PUBLIC "-//W3C//DTD SVG 1.1//EN" "http://www.w3.org/Graphics/SVG/1.1/DTD/svg11.dtd">
<!-- Creator: CorelDRAW 2020 (64 Bit) -->
<svg xmlns="http://www.w3.org/2000/svg" xml:space="preserve" width="512px" height="512px" version="1.1" style="shape-rendering:geometricPrecision; text-rendering:geometricPrecision; image-rendering:optimizeQuality; fill-rule:evenodd; clip-rule:evenodd"
viewBox="0 0 512 512"
 xmlns:xlink="http://www.w3.org/1999/xlink"
 xmlns:xodm="http://www.corel.com/coreldraw/odm/2003">
 <defs>
  <style type="text/css">
   <![CDATA[
    .fil1 {fill:#47412B}
    .fil0 {fill:#FFEB9C}
   ]]>
  </style>
 </defs>
 <g id="Camada_x0020_1">
  <metadata id="CorelCorpID_0Corel-Layer"/>
  <path class="fil0" d="M196.13 284.8c2.65,3.91 -0.14,2.06 6,3.12 -0.5,-5.78 -1.22,-5.18 -1.85,-6.22 -8.76,1.79 -1.85,1.06 -4.15,3.1zm80.6 203.41l0.01 0.02 0.02 0.05 0.02 0.02 0.02 0.04 0.02 0.03 0.01 0.04 0.02 0.04 0.02 0.03 0.03 0.04 0.01 0.02c1.79,2.99 5.38,1.37 7.76,0.16 16.14,-8.36 -3.58,-30.95 -23.36,-20.81 -8.25,4.23 -14.47,11.43 -21.24,17.33 -31.73,27.68 -85.96,24.59 -114.97,-7.03 -5.23,-5.69 -15.09,-20.14 -18.22,-30.64 -6.19,-20.75 -6.42,-43.72 0.99,-64.95 1.16,-3.34 2.28,-5.8 4.03,-8.95 2.74,-4.92 3.17,-4.09 -0.47,-6.43 -4.82,8.94 -9.57,20.41 -12.81,31.65 -7.29,25.3 7.57,64.16 -0.8,80.23 -5.93,11.38 -13.08,18.26 -26.47,18.2 2.27,-8.12 7.2,-9.93 9.53,-17.14 5.13,-15.88 1.99,-50.75 3.7,-70.79 2.09,-24.61 20.53,-54.19 33.47,-65.3l7.48 -0.54c6.22,-8.9 22.44,-21.94 33.71,-27.86 11.56,-6.06 38.07,-12.42 52.44,-8.7 -0.73,2.82 -1.2,3.04 -2.5,5.27 -8.12,-1.3 -19,0.01 -26.62,2.4l-0.15 0.05 -0.15 0.05 -0.02 0 -0.13 0.04 -0.15 0.05 -0.05 0.01 -0.1 0.04c-4.27,1.32 -8.81,2.55 -13.09,4.16l-0.03 0.01c-2.27,0.8 -4.03,1.57 -6.35,2.85l-0.16 0.09 -0.03 0.02 -0.13 0.07 -0.16 0.09c-6.99,3.95 -10.51,7.76 -16.85,12.68 -9.32,7.25 -15.11,11.99 -21.21,22.47 -10.22,17.53 -5.25,5.34 -12.23,30.17 -1.93,6.85 -5.4,44.76 2.32,49.7 1.7,-6.46 -3.11,-24.71 1.85,-48.08 0.61,-2.82 1.25,-5.65 2.03,-8.43 1.06,-3.88 2.29,-7.52 3.89,-11.55l0.04 -0.09 0.01 -0.04c2.67,-6.35 6.06,-11.98 10.64,-17.37l0.25 -0.29 0.14 -0.16c3.24,-3.72 6.81,-7.1 10.52,-10.19l0.44 -0.37 0.12 -0.09 0.33 -0.27 0.45 -0.36 0.05 -0.05 0.4 -0.32 0.45 -0.35 14.16 -11.48c6.85,-5.58 31.18,-12.71 42.59,-10.36 -2.02,4.66 -6.5,5.28 -11.4,6.69 -22.27,6.4 -33.87,12.49 -48.82,28.4 -1.56,1.66 -2.49,1.92 -4.1,3.6 -22.7,23.7 -27.16,73.74 -10.58,104.46 11.1,20.57 46.72,35.32 70.66,23.71 51.41,-24.94 19.97,-83.31 -12.38,-63.76 -6.19,3.74 -12.86,13.53 -5.9,22.36 10,12.67 15.22,2.01 23.94,4.01 -4.09,24.92 -46.36,21.91 -53.87,0.24 -10.33,-29.81 4.42,-32.43 4.96,-39.62 -10.91,-1.61 -21.69,-6.17 -18.4,-19.38 29.12,0.45 26.49,-6.77 40.79,-6.62 12.37,0.13 7.04,2.43 17.04,5.66 6.52,2.11 10.64,7.5 18.03,3.3 2.81,-3.3 0.99,-7.49 -3.23,-8.8 -0.57,-0.17 -2.53,-0.42 -3.29,-0.55 -13.78,-2.5 -17.87,-9.11 -19.9,-22.97 -1.07,-7.24 -3.12,-5.63 -5.32,-11.97 14.15,-2.19 15.41,3.97 20.2,2.15l0.63 -1.86c0.2,-5.57 -7.01,-16.64 4.86,-27.42 7.45,-6.78 8.77,-16.65 23.51,-14.84 -2.2,8.78 -9.17,14.35 -9.84,25.59 -2.08,34.78 23.51,50.94 31.77,74.65 7.25,20.78 1.53,42.25 -9.02,56.33 -6.92,9.23 -17.03,21.42 -27.69,26.54 -4.93,2.37 -5.85,2.48 -10.2,5.67 8.2,2.99 22.52,-9.38 28.81,-14.25 7.72,-5.98 13.64,-15.07 22.19,-21.51l0.25 -0.19 0.22 -0.16 0.04 -0.03c5.35,-3.83 13.87,-7.1 22.44,-6.47 16.05,1.17 27.95,19.83 19.35,33.89l-0.03 0.05c-8.63,13.47 -23.29,16.02 -31.81,1.2l-0.03 -0.06c3.27,1.78 7.34,2.7 10.6,2.83zm-12.69 -391.48c1.41,0.37 4.09,0.71 7.93,-0.24l-0.14 0.31c16.59,-2.41 25.6,-17.3 39.86,-10.92 -1.67,3.65 0.56,0.94 -3.32,3.79 -10.15,7.46 -22.28,15.59 -35.37,18.49 -25.3,5.61 -46.72,-21.36 -33.02,-21.32 7.84,0.03 15.16,10.53 24.16,10.15l-0.1 -0.26zm29.95 234.46c7.25,-0.9 3.54,-2.19 8.76,-3.58 -1.61,4.57 -1.6,-0.23 -6.19,9.86l3.96 1.87c0.23,0.09 0.71,0.26 0.9,0.34 0.18,0.08 0.57,0.21 0.83,0.36l-3.55 9.06c5.82,-0.05 4.32,-0.38 8.52,-2.72 -1.21,5.9 -2.1,3.8 -2.71,10.35l6.55 -0.6 -1.49 7 3.98 2.23c0.11,9.4 3.97,11.64 1.62,19.01 -6.45,-2.33 -3.67,-0.77 -6.2,-6.68 -2,-4.68 -2.5,-2.13 -4.49,-7 -2.31,-5.65 -3.5,-11.24 -8.79,-14.16 -1.29,-17 -18.13,-17.82 -1.74,-31.88 0.23,-3.98 0.95,-7.75 1.84,-9.76l4.28 -0.03 1.52 4.56c-0.99,1.87 0.96,-0.44 -1.32,2.56 -3.45,4.55 -0.05,0.65 -2.8,2.34 -4.34,2.67 -3.62,-0.71 -3.48,6.87zm18.46 -18.83c10.89,-0.21 14.83,25.44 14.85,32.82 0.06,27.59 -2.88,61.53 14.72,84.34 4.31,5.59 1.41,13.39 3.29,20.89 1.26,5.04 4.36,14.74 6.14,19.09 -14.56,-2 -4.37,-28.19 -13.9,-33.24l-0.94 20.66c-0.61,2.77 -0.6,1.45 -1.45,2.5 -7.93,-21.21 7.18,-24.18 -0.63,-35.23 -21.4,-30.25 -4.31,-66.69 -14.81,-96.91 -3.23,-9.29 -9.48,-7.55 -7.27,-14.92zm49.66 7.47c0.95,-3.9 5.24,-12.68 9.55,-14.95 -0.87,4.71 -1.3,5.81 -3.23,9.34 -2.6,4.77 -1.31,4.38 -6.32,5.61zm-9.3 -26.67c8.51,1.92 -0.09,-0.09 5.11,2.54 3.7,1.87 1.82,1.44 6.3,0.17l1.2 -9.17c6.13,1.26 4.6,9.86 1.31,12.91 -3.11,2.88 -13.53,5.99 -13.92,-6.45zm22.69 -5.55c-5.93,-2.91 -4.73,-7.89 -7.53,-15.05 -2.64,-6.77 -5.23,-8.39 -6.59,-12.86 5.06,0.18 8.2,5.72 10.32,10.37 1.96,4.3 3.66,11.89 3.8,17.54zm-150.47 -46.49c1.87,-6.82 20.71,-18.95 28.65,-12.84 -5.2,3.6 -11.23,3.18 -16.42,6.04 -5.57,3.08 -7.44,8.71 -12.23,6.8zm-16.03 -3.85c4.55,-7.48 14.26,-12.77 22.78,-17.33 5.79,-3.1 25.24,-9.19 31.33,-5.8 -1.52,3.84 -0.52,2.3 -6.51,3.68 -14.69,3.39 -18.35,2.33 -35.75,14.32 -2.26,1.56 -3.52,2.79 -5.77,4.52 -1,0.76 -2.17,1.63 -3.12,1.74 -6.54,0.78 0.05,0.48 -2.96,-1.13zm-31.79 7.64c2.11,-5.58 29.19,-24.75 35.34,-27.47 9.9,-4.4 37.9,-16.72 49.28,-9.72 -4.87,4.11 -10.82,-0.66 -25.96,4.71 -13.19,4.67 -28.95,13.14 -40.43,21.29 -5.67,4.02 -9.8,10.59 -18.23,11.19zm-35.9 15.52c1.04,-5.95 16.45,-20.08 21.68,-24.49 28.67,-24.15 39.26,-29.85 78.02,-37.59 12.38,-2.47 16.67,-3.26 18.1,1.66 -7.31,2.61 -17.02,-0.7 -37.8,6.85 -25.95,9.43 -48.88,25.45 -68.25,43.77 -4.26,4.04 -7.07,7.95 -11.75,9.8zm24.31 -38.63c2.37,-9.43 38.38,-27.89 47.45,-24.36 -1.08,1.74 1.33,0.68 -2.46,2.62l-9.81 3.01c-4.78,2.37 -8.59,3.29 -12.15,5.87 -4.51,3.25 -18.15,12.87 -23.03,12.86zm9.02 -15.53c1.54,-6.45 7.79,-9.35 14.24,-12.49 2.91,-1.41 6.22,-2.89 9.15,-3.62 4.74,-1.17 8.11,-1.61 11.41,0.86 -3.82,2.29 -5.97,1.74 -9.91,2.98 -11.52,3.62 -20.32,11.43 -24.89,12.27zm7.35 -16.53c1.42,-4.81 5.94,-6.67 10.55,-5.14 -1.15,2.57 -2.17,3.61 -4.2,4.76 -3.84,2.17 -3.41,1.72 -6.35,0.38zm-0.88 -21.59c-6.58,0.42 -10.32,1.7 -12.95,-4.25 1.69,-1.26 5.43,-1.16 8.15,-0.29 4.85,1.55 3.46,1.46 4.8,4.54zm202.82 12.25c1.03,-9.28 5.03,-1.86 8.77,-18.2 1.22,-5.31 -0.3,-3.74 4.13,-4.22 2.07,4.75 -3.83,19.7 -12.9,22.42zm-217.1 -25.36c0.92,-1.28 -0.83,-5.31 7.12,-1.97 3.03,1.27 3.38,2.29 4.67,4.71 -5.9,0.99 -8.23,-0.47 -11.79,-2.74zm209.45 38.58c6.7,0.04 26.76,-14.71 26.81,-34.72 0.04,-12.23 6.04,-11.02 10.81,-20.19 4.56,-8.75 3.38,-17.24 4.6,-22.14 0.64,-2.59 0.88,-1.82 1.45,-2.55 2.84,5.35 2.34,15.5 1.08,21.63 -1.25,6.07 -4.79,9.35 -8.05,13.68 -5.75,7.64 -3.12,6.02 -5.77,16.2 -6.61,25.42 -25.36,29.33 -26.65,38.51 -0.43,3.08 1.21,12.9 0.29,20.25 -0.39,3.06 -3.39,14.58 -4.57,16.45 -2.29,-3.73 0.41,-21.13 0.17,-27.89 -0.49,-13.55 -6.3,-15.14 -5.21,-24.46 4.44,1.83 2.16,1.02 5.04,5.23zm-225.39 -45.68c-9.05,-8.65 -26.63,-12.26 -29.17,-16.01 2.42,-1.31 -3.07,-1.38 3.83,-1.02l19.63 7.3c6.35,4.02 13.33,8.78 15.36,15.9 -5.87,-0.65 -5.93,-2.6 -9.65,-6.17zm-18 -20.6c-14.71,-5.32 -9.16,-1.45 -11.19,-5.69 7.29,-3.49 41.77,14.45 44.14,25.92 -6.11,-0.6 -6.4,-3.35 -11.22,-7.23 -5.04,-4.06 -15.16,-10.62 -21.73,-13zm56.64 -1.34c3.68,5.04 9.92,9.17 11.07,16.46 -5.65,-1.38 -3.85,-2.28 -8.02,-6.66 -4.17,-4.4 -16.51,-19.26 -16.79,-24.1 4.92,1.01 9.29,8.23 13.74,14.3zm111.11 -8.61c3.17,-4.21 2.93,-4.17 8.32,-6.51 4.2,-1.82 6.78,-3.32 11.84,-3.21 -2.41,3.88 -14.11,9.07 -20.16,9.72zm58.78 -12.28c-8.31,-3.93 -11.28,-1.35 -16.37,-4.02 0.06,-3.88 9.76,-1.78 12.61,-1.19 12.47,2.57 9.02,5.33 8.93,7.49l-5.17 -2.28zm11.03 -12.37c9.24,13.34 9.06,29.23 0.68,37.86 -0.96,-1.56 -2.98,3.78 0.76,-9.49 1.26,-4.47 1.7,-7.69 1.18,-12.36 -1.12,-9.97 -6.7,-12.24 -7.33,-19.52 4.6,1.47 1.16,-1.61 4.71,3.51zm17.62 8.37c0.74,7.28 0.8,21.75 -7.87,25.53 0.72,-9.24 6.37,-12 3.26,-25.91 -4.71,-20.97 -9.79,-12.13 -9.28,-21.07 6.12,0.81 13.11,13.72 13.89,21.45zm-53.18 -24.42c2.18,-1.55 -3.16,-0.98 4.08,-1.75l10.71 2.66c1.09,0.67 4.74,3.41 5.2,3.86 5.01,4.89 0.98,5.17 0.6,5.48 -4.43,2.06 -4.86,-1.92 -8.85,-5.02 -4.16,-3.24 -6.04,-2.51 -9.02,-3.59 -2.19,-0.78 -1.51,-0.74 -2.72,-1.64zm65.65 29.54c0.4,14.96 -8.41,36.47 -18.39,36.67 3.09,-2.32 6.6,-10.42 9.04,-15.35 7.68,-15.56 5.64,-35.36 -4.52,-50.92 -2.62,-4.01 -4.05,-3.18 -4.39,-6.79 4.52,-0.5 0.88,-1.43 4.27,1.73 9.21,8.58 13.65,22.05 13.99,34.66zm-263.87 -44.96c4.56,-2.64 4.36,-1.41 9.01,1.94 38.66,27.85 47.31,55.3 61.63,68.08 11.36,10.14 15.38,12.31 28.31,10.37l5.79 0.04c-2.99,5.63 -10.2,7.88 -18.82,5.18 -18.47,-5.79 -37.47,-37.87 -47.55,-50.12 -2.72,-3.31 -3.06,-4.58 -5.49,-7.33 -2.1,-2.38 -3.62,-3.59 -5.8,-5.77l-20.24 -17.01c-1.11,-0.77 -2.59,-1.52 -3.92,-2.47 -2.46,-1.75 -1.09,-0.53 -2.92,-2.91zm202.51 -6.6c-3.15,-5.03 -0.28,-5.21 -0.28,-5.22 9.98,-4.12 6.26,14.78 0.28,5.22zm61.25 -2.48c-12.49,1.02 -7.73,-16.13 -5.06,-21.94 2.01,-4.38 0.39,-3.79 4.92,-4.57 1.3,4.72 0.13,20.07 0.14,26.51zm-166.44 84.8c-20.87,2.97 -34.47,-25.75 -50.65,-44.67l-12.56 -14.39c-2.63,-2.75 -3.31,-4.23 -5.99,-6.86 -4.24,-4.18 -8.96,-8.55 -14.1,-12.85 -4.69,-3.91 -10.54,-8.12 -15.24,-11.82 -5.16,-4.06 -12.91,-5.61 -14.82,-11.82 8.25,0.36 27.13,16.08 33.09,20.59l26.46 27.44c7.74,9.93 15.64,19.43 23.9,30.05 18.74,24.07 16.78,18.11 33.6,19.67l-3.69 4.66zm82.08 -87.59l-11.32 1.27c1.07,-6.2 3.06,-1.9 7.17,-7.38 -1.03,-0.78 -0.42,-0.68 -2.31,-1.43 -2.25,-0.91 -2.66,0.01 -6.4,-2.54 5.52,-3.85 7.24,0.95 10.17,-5.03 -3.03,-3.93 -3.01,-1.89 -7.93,-3.86 1.92,-2.69 -2.19,-4.15 6.29,-2.29 2.44,0.54 0.45,1.41 5.21,0.79 1.17,-0.15 28.59,-7.46 34.83,2.8 -1.26,0.79 0.54,1.77 -4.6,0.9 -4.85,-0.82 -23.02,-7.31 -26.91,6.11 14.67,-0.22 21.79,-2.06 33.92,4.55 -5.82,4.42 -14.49,-3.14 -28.51,2.43l1.12 10.82c-7.79,-0.79 -7.71,-1.61 -10.73,-7.14zm-93.19 74.55c-6.87,3.11 -26.7,-30.08 -31.7,-35.6 -2.87,-3.17 -3.26,-3.83 -6.17,-7.93 -3.67,-5.15 -8.63,-10.65 -12.76,-15.51 -33.66,-39.63 -58.64,-37.86 -65.14,-45.51 10.62,-0.7 31.67,11.22 39.06,16.32l29.05 26.18 36.55 46.93c2.05,2.42 9.79,12.35 11.11,15.12zm-82.89 -17.74c-5.51,-1.1 -14.05,-7.61 -21.61,-10.6 -6.46,-2.55 -4.02,-2.81 -11.1,-0.15 -4.36,1.64 -9.27,2.22 -12.59,4.35 2.55,16.19 10.46,12.63 14.3,21.83 -12.7,0.63 -20.12,-4.2 -34.3,5.15 1.84,8.15 12.46,19.18 17.76,23.04 11.59,8.46 31.07,-2.45 30.61,9.88 -6.83,0.67 -20.29,1.52 -25.46,4.41 -4.37,2.44 -11.44,12.26 -12.81,17.91 24.97,20.15 75.98,-15.46 79.75,7.71 -7.12,13.38 -15.92,6.07 -27.91,13.38l-21.17 20.02c0.23,0.2 0.57,0.23 0.68,0.62 1.11,3.75 18.46,6.07 21.43,5.84 12.49,-0.97 17.16,-13.37 22.71,-5.18 -8.92,9.97 -29.31,12.5 -35.67,47.76 9.07,-0.25 24.48,-2.09 33.55,-3.64 10.81,-1.85 14.26,-13.23 23.4,-16.35 -1.85,12.93 -9.16,10.26 -10.46,18.57 5.7,6.67 19.32,4.1 24.67,-2.03 5.02,-5.75 8.64,-18.47 18.12,-16.91 -0.34,7.3 -10.93,9.34 -12.76,25.92 31.79,-1.69 41.69,-33.64 55.06,-43.68 3.53,-2.65 6.86,-3.77 11.54,-5.2 6.81,-2.07 8.26,-3.08 11.24,2.71 -5.89,1.72 -14.73,1.6 -20.17,6.4 -12.36,10.89 -18.49,25.31 -32.2,35.89 -3.06,2.37 -4.69,2.36 -8.22,5.8 1.86,15.19 12.64,-0.07 17.3,-1.68 -2.16,8.93 -5.54,18.22 -1.22,27.85 1.91,4.25 1.52,3.96 6.51,4.2 1.21,-8.95 -0.08,-20.27 4.55,-28.81l6.14 -6.68c-0.71,4.4 -4.53,12.83 -5.72,18.63 -0.95,4.67 0.1,6.15 1.22,10.23 1.64,5.99 0.15,7.28 5.79,8.79 5.18,-8.36 -2.88,-21.97 8.99,-29.59 2.28,4.77 -8.53,14.94 -0.24,33.07 15.44,-1.45 6.92,-11.18 16.2,-8.33 0.12,5 -3.64,8.66 -7,12.11 -5.34,5.49 -8.27,4.91 -8.57,12.88l4.17 0.23c2.19,8.58 4.18,6.72 2.96,13.94 -0.89,5.23 -1.59,1.27 1.47,3.27 0.07,-0.32 2.14,-3.32 2.82,-4.26 2.99,-4.19 0.72,-3.14 6.39,-4.57l-1.82 10.66c5.96,10.77 0.21,7.05 2.55,14.38 0.28,0.11 0.72,0.06 0.83,0.35 0.58,1.45 5.09,-1.67 7.46,-2.27 -0.79,34.81 9.04,28.31 12.87,42.6 3.79,14.14 -0.11,35.39 8.43,47.73 9.92,1.32 6.77,-2.41 14.43,-2.91 3.37,1.92 7.4,5.57 7.03,11.26 -4.94,-0.36 -2.37,-2.15 -7.87,-2.93 0.98,7.59 6.61,8.61 7.52,17.65 1.23,12.32 -5.64,8.92 -5.08,20.8 3.78,8.98 20.35,3.86 29.23,3.84 8.07,-0.01 17.48,1.18 24.42,1.04 -0.18,-3.62 1.18,-1.63 -1.3,-5.05 -1.6,-2.2 -0.71,-0.59 -2.1,-1.86l-1.44 -1.31c-0.16,-0.15 -0.47,-0.47 -0.7,-0.71l8.55 -0.01c4.08,4.81 2.77,6.49 8.54,6.56 4.31,-8.22 -4.52,-11.98 -12.82,-11.89 -6.94,0.07 -18.89,0.81 -21.47,-5.98 2.41,-0.18 24.67,1.78 27.74,2.42 11.62,2.44 9.94,8.2 14.26,16.91 13.09,-2.32 0.69,-17.35 -6.83,-20.49 -19.6,-8.18 -36.71,6.06 -40.45,-36.37 -0.72,-8.15 -7.86,-20.24 -11.1,-27.66 -13.88,-31.77 0.09,-69.96 -12.98,-102.47 -3.5,-8.71 -13.52,-17.38 -12.77,-24.63 4.39,0.24 7.74,5 10.02,9.2 1.67,3.08 2.37,7.69 4.69,10.73 6.71,8.78 13.8,-3.16 22.13,-4.11 -1.11,5.15 -2.34,5.11 -7.5,8.36 -4.52,2.84 -7.34,2.35 -10.22,5.99 2.17,4.74 -0.15,1.88 3.35,3.9 0.23,-0.18 0.59,-0.74 0.69,-0.53l18.58 -12.81c0.06,0.14 5.2,0.68 -0.7,6.16l-12.16 7.13c-3.68,1.19 -5.32,0.71 -6.98,3.86 1.96,0.88 -1.84,2.1 4.88,0.57 3.9,-0.87 5.19,-3.35 9.01,-4.05 5.43,-1.01 4.08,0.79 4.54,1.1 -4.84,5.31 -15.6,5.09 -15.58,14.31 8.07,1.37 23.67,-11.73 28.77,-16.84 23.21,-23.3 15.15,-63 -11.55,-80.15 -4.02,-2.59 -10.79,-6.38 -12.37,-10.79 7.92,-0.83 8.68,7.29 19.25,7.4 1.39,-16.98 -10.16,-22.73 -10.58,-27.89 5.8,2.58 13,8.41 13.9,17.38 1.32,13.08 -2.29,16.99 7.55,23.91 3.82,-2.44 11.49,-14.62 12.49,-20.13 1.72,-9.44 -1.75,-23.83 2.8,-30.76 3.6,-5.5 10.94,-9.37 16.49,-17 5.24,-7.21 6.96,-14.68 8.58,-25.17 1.24,-7.96 7.59,-11.84 11.55,-21.47 4.14,-10.07 2.75,-19.32 -1.21,-28.15 -3.06,-6.82 2.48,-17.95 0.68,-28.88 -1.45,-8.86 -5.73,-19.21 -15.88,-19.64 1.05,6.58 6.43,11.02 8.55,21.86 1.06,5.39 0.5,21.37 -1.22,26.33 -1.9,0.51 -2.73,2.39 -4.13,-1.76 -0.94,-2.77 0.09,-5.75 0.69,-8 3.29,-12.44 -1.36,-28.86 -10.94,-36.49 -0.25,-8.19 6.13,-14.99 6.49,-24.75 0.3,-7.88 -5.45,-18.92 -7.47,-24.86 -19.21,4.53 -13.79,24.09 -14.7,36.79 -17.56,-2.87 -1.01,-29.79 -0.44,-33.45 -10.4,-9.83 -32.18,-14.3 -52.16,-13.78 -18.12,0.47 -43.19,5.32 -41.04,25.04 1.16,4.02 5.28,5.44 6.13,8.99 -6.92,2.99 -8.07,-8.56 -43.29,7.82 -6.5,3.02 -7.86,0.94 -12.47,6.31l3.06 4.76c7.29,-1.02 7.94,-6.07 16,-5.02 -0.77,8.24 -4.11,6.21 -8.03,11.82 0.06,27.41 22.28,13.04 41.11,13.02 10.92,-0.01 15.13,3.55 25.27,5.51 6.65,1.28 21.82,1.97 22.21,9.73 -6.68,2.95 -10.68,1.89 -17.75,5.42 -7.55,3.77 -42.66,20.29 -45.81,25.42 0.32,0.21 0.76,0.21 0.94,0.68 0.17,0.45 0.69,0.5 0.92,0.6l9.31 1.25c3.2,-0.21 6.63,-1.62 9.7,-2.87 6.59,-2.68 12.24,-5.44 18.59,-8.4 34.19,-15.89 59.82,-7.23 28.01,30.57 -8.11,9.64 -18.22,9.65 -32.92,13.33 0.28,4.6 1.05,5.08 5.92,5.83 11.78,1.82 22.64,-1.77 32.29,-6.14 5.52,-2.5 15.45,-13.46 19.04,-19.5 2.76,-4.63 -0.37,-5.51 6.2,-5.86 1.19,10.17 -18.22,17.77 -8.95,34.17 7.1,-1.17 10.14,-8.82 15.14,-13.36 7.68,-6.97 16.94,-20.33 19.68,-30.55 2.95,-11.02 1.33,-23.77 -1.73,-35.18 -4.13,-15.43 -7.53,-14.67 -13.15,-25.85 5.95,0.38 9.5,6.79 12.08,11.42 12.87,23.1 6.21,32.38 9.14,39.79 2.77,7.02 4.1,13.07 -0.31,18.45 -1.2,-7.31 4.14,-8.02 -3.35,-9.91 -3.3,6.01 -1.98,9.45 -0.38,15.65 -10.87,10.55 -24.58,31.98 -40.95,34.56 -4.43,-12.71 -12.44,-3.4 -24.14,-2.75 -36.25,2.02 -12.33,-7.64 -37.99,8.61 -5.08,3.22 -12.87,4.75 -17.02,8.4 3.04,3.41 3.85,2.57 7.74,4.85 6.46,3.79 16.52,14.58 16.36,23.25 -8.62,-0.31 -9.55,-16.26 -23.77,-22.31 -26.65,-11.33 -64.21,4.29 -95.06,-20.51 -5.96,-4.78 -6.48,-8.42 -6.92,-17.65 -4.03,-2.22 -9.92,-8.8 -14.13,-12.67 -29.95,-27.53 -47.02,-24.12 -52.64,-31.9 20.14,-0.07 40.39,15.42 55.18,26.82 6.72,5.18 5.49,9.73 15.81,12.92 -3.02,-10.26 -14.26,-15.52 -17.93,-24.06 6.42,-0.49 9.95,6.91 14.11,10.65 5.41,4.85 8.69,8.17 14.24,12.78 10.28,8.52 25.19,15.14 38.67,5.23 21.17,-15.55 -10.19,-63.08 -20.56,-72.2l-19.34 -19.16c-10.05,-9.68 -28.3,-20.18 -40.69,-27.47 -16.62,-9.79 -58.24,-29.62 -77.31,-28 1.25,4.66 5.58,7.43 9.31,11.25 7.64,7.83 10.58,19.33 20.13,24.87 3.15,1.83 4.76,3.74 7.17,4.62 4.55,1.65 5.22,-0.39 5.95,4.77 -13.96,-0.22 -9.53,-6.97 -36.24,-0.15 0.65,8.93 6.38,10.25 9.93,16.75 6.47,11.86 9.69,14.82 26.96,18.08 8.52,1.61 19.79,4.19 26.22,8.37 8.19,5.33 16.46,10.39 13.62,20.63 -6.96,1.43 -12.99,-1.71 -18.72,-5.27l-4.72 -4.16c6.53,1.91 6.6,5.77 13.61,5.11 -1.5,-5.29 -7.21,-9.75 -14.03,-10.27l0.42 5.16zm-3.95 185.69c-3.16,-2.76 -4.19,-7.36 1.83,-7.64 2.04,5.49 1.74,5.25 -1.83,7.64zm-66.8 27.5c-0.54,9.42 1.62,14.45 10.28,15.85 2.67,-1.89 3.31,-2.59 5.71,-4.91 4.79,-4.63 13.1,-12.89 19.2,-13.62 -2.07,6.25 -12.13,13.83 -15.92,20.75l-6.2 11.78c-2.28,4.01 -2.93,9.59 -4.87,14.44 -7.71,19.32 -9.06,43.13 -1.42,62.09 5.73,-8.44 -3.9,-25.63 27.76,-71.76 13.4,-19.51 13.54,-11.54 19.42,-13.84 0.97,-0.38 17.86,-20.91 24.58,-23.27l0.08 -9.89c4.4,0.43 1.53,-0.85 3.59,2.06 3.65,5.19 -1.72,2.45 5.14,3.96l2.36 -10.11c3.61,1.05 2.32,-0.33 4.16,4.97 5.06,-0.27 6.72,-0.98 10.5,-3.83 -0.31,-4.94 -1.58,-6.5 -2.09,-11.51 -1.02,-9.92 2.99,-15.2 -5.96,-16.5 -2.57,5.06 -2.83,14.33 -5.11,18.62 -5.41,-4.87 -0.79,-6.99 -1.97,-18.21 -11.75,-3.46 -4.7,8.47 -8.3,17.42 -5.75,-3.44 -1.38,-10.4 -5.84,-17.29 -12.17,-2.56 -14.7,1.81 -20.6,7.5 -9.88,9.54 -19.68,20.62 -32.43,26.61 -11.07,5.2 -7.06,6.02 -22.07,8.69zm298.59 25.71c-2.33,3.29 -22.04,15.56 -28.92,17.69l0.38 6.51 20.8 -13.32c9.97,-5.81 6.18,-2.27 7.18,-1.82 -4.23,3.49 -11.09,6.42 -15.98,9.71 -14.45,9.67 -12.17,6.8 -12.3,12.25 8.89,-1.91 19.69,-12.84 28.4,-15.45 -2.3,4.66 -8.94,7.41 -14.77,10.92 -15.08,9.09 -12.73,5.11 -12.95,12.56 9.95,-2 19.12,-14.74 27.19,-15.52 -1.38,3.43 -10.05,7.79 -13.36,10.26l-13.83 8.68 0.22 4.37c7.81,1.23 17.29,-10.49 25.68,-14.19 -0.81,4.12 -8.04,7.92 -11.61,10.58 -14.72,10.95 -12.75,1.96 -12.37,10.79 7.46,4.04 8.95,-5.72 18.73,-7.42 -1.26,2.88 -6.15,5.67 -8.58,7.27 -5.72,3.77 -8.81,1.91 -7.09,8.84 7.19,-0.37 12.11,-10.19 23.08,-11.05 -1.92,-11.55 13.49,-49.63 0.84,-64.63 -5.12,1.12 -11.56,6 -15.78,8.82 -5.72,3.82 -12.05,4.9 -12.32,11.61 8.11,-1.82 15.34,-11.23 23.07,-11.86 -2.43,4.7 -20.77,13.48 -23.84,15.36l0.6 4.12c3.12,-0.7 -1.45,1.64 4.18,-1.74 7.22,-4.33 15.12,-12.13 23.35,-13.34zm19.23 -99.7c6,3.37 9.51,7.07 13.12,14.21 2.8,5.55 7.03,15.59 3.07,21.3 -3.95,-2.25 -1.69,-4.19 -2.84,-9.99 -0.74,-3.72 -2.69,-6.34 -4.15,-8.7 -3.4,-5.5 -7.55,-13.14 -12.45,-12.46 -0.02,0.03 -4.05,0.32 0.69,6.17 6.1,7.5 15.59,14.58 13.32,35.34l-3.54 11.51c-1.71,2.72 -0.95,1.34 -2.59,2.44 -3.28,-5.68 5.67,-9.07 1.19,-26.73 -2.65,-10.43 -5.27,-17.63 -14.3,-20.45 2.29,9 17.69,23.9 5.13,56.02 -3.37,8.63 -9.05,5.86 -8.31,15.38 6.11,0.4 21.77,-14.72 21.77,-14.72 1.55,-2.83 1.16,-3.59 2.94,-6.1 6.47,-9.15 6.6,-6.91 8.96,-19.62 2.16,-11.61 3.25,-19.95 -2.62,-30.51 -4.01,-7.2 -8.81,-17.82 -17.29,-20.97l-2.1 7.88zm-20.11 178.02c-4.74,8.07 -10.97,1.04 -9.94,13.44 7.24,-1.96 7.34,-5.49 14.22,-6.97 -3.43,6.79 -16.88,7.6 -12.94,16.13 4.66,-0.75 11.8,-8.31 16.79,-10.75 -2.16,8.63 -15.95,8.51 -16.11,17.2 7.22,1.79 10.01,-7.16 19.86,-10.81 -4.5,9.88 -22.9,10.73 -15.57,20.38l4.86 -3c4.18,-3.96 7.78,-8.2 13.6,-10.23l-4.53 5.2c-1.83,1.4 -2.15,1.71 -4.21,3.46 -3.4,2.9 -6.63,3.49 -7.01,9.53 4.42,-0.31 18.05,-9.96 18,-20.34 -0.05,-12.2 -8.41,-16.53 -13.11,-24.41 -0.31,-4.69 0.25,-8.43 -0.27,-13.28 -0.61,-5.7 -1.96,-7.88 -2.61,-11.49 -5.85,1.37 -8.53,4.76 -13.57,8.02 -10.44,6.76 -10.3,4.07 -8.44,11.05 5.77,-0.91 10.51,-7.52 17.97,-10.11 -4.22,8.52 -13.49,6.24 -14.74,14.73 4.44,1.8 5.51,-0.15 9.1,-2.77 3.52,-2.56 4.6,-4.39 8.56,-4.92 -3.98,7.97 -14.21,5.99 -12.13,14.89 6.34,-1.2 5.21,-4.12 12.22,-4.95zm68.22 60.69c-6.55,-8.61 -26.08,-6.75 -31.74,-9.41 -5.28,-2.48 -7.71,-5.35 -13.21,-6.2 -4.44,9.75 -1.71,5.28 -1.11,6.75 9.24,2.96 11.27,2.67 17.95,8.73 9.69,8.8 3.28,8 7.28,18.49 6.88,1.88 12.09,-7.52 8.36,-12.18 -0.13,-0.17 -0.44,-0.48 -0.58,-0.66l-0.33 -3.88c12.68,-1.77 6.75,11.88 5.63,16.38 1.83,-0.1 4.92,-0.1 6.62,-0.36 10.25,-1.54 3.42,-14.66 1.13,-17.66zm-159.54 -367.62c11.82,0.7 20.24,-7.96 27.73,-11.11 6.71,-2.81 21.23,-10.14 25.03,-14.39 -13.09,-7.55 -27.29,12.31 -47.17,19.01 -6.57,2.21 -4.71,1.15 -5.59,6.49zm30.46 33.41c8.07,12.24 51.49,-8.43 47.84,-25.13 -5.89,3.87 -11.86,16.9 -32.2,21.82 -6.94,1.69 -11.51,-0.61 -15.64,3.31zm109.01 -119.19c-1.06,13.93 15.21,4.46 20.69,2.82 -4.35,9.61 -10.54,6.21 -19.25,10.07l-0.37 5.71c12.88,-0.53 25.22,-10.03 25.14,-22.39 -4.84,-0.06 -6.31,2.05 -11.42,3.03 -5.56,1.06 -9.25,-0.06 -14.79,0.76zm-189.1 286.2c3.03,5.19 -2.56,1.4 14.66,4.79 6.57,1.29 8.3,3.96 15.32,4.64 -0.5,-5.26 0.1,-4.35 -4.58,-6.6 -2.99,-1.44 -5.19,-2.44 -8.75,-3.04 -5.46,-0.93 -13.36,-3.79 -16.65,0.21zm-40.51 -35.56l1.94 20.48c6.26,-1.49 4.55,-3.35 4.13,-10.64 -0.38,-6.81 1.25,-7.98 1.27,-13.98 -3.76,0.98 -5.31,2.41 -7.34,4.14zm-8.71 -0.04c-1.73,5.9 -3.33,21.52 4.89,22.1l-0.65 -21.62 -4.24 -0.48zm68.21 -216.21c-0.01,7.26 2.91,11.72 9.29,13.26 -1.82,-10.73 0.73,-15.79 -9.29,-13.26zm130 406.43c4.07,-2.7 8.29,-9.77 8.55,-14.5 -4.72,3.5 -10.09,7.52 -12.8,13.07l4.25 1.43zm10.28 3.24c2.87,-5.92 2.74,-6.81 0.43,-11.52 -4.49,2.65 -5.92,5.7 -7.54,11.1l7.11 0.42zm-179.92 -191.26l0.6 4.13c6.6,2.69 9.25,0.77 10.15,-7.38 -3.86,0.51 -8.67,0.84 -10.75,3.25zm1.01 15.34l7.37 1.26c1.01,-4.35 0.52,-6.25 -0.67,-8.89l-6.03 -0.04 -0.67 7.67zm14.35 -7.64l-0.64 6.87 7.36 -0.01 0.84 -6.78c-4.78,-2.08 -2.87,-2.46 -7.56,-0.08zm-23.54 8.24l3.88 0.34c3.03,-10.78 -6.22,-10.92 -3.88,-0.34z"/>
  <path class="fil1" d="M390.22 468.51c5.5,0.85 7.93,3.72 13.21,6.2 5.66,2.66 25.19,0.8 31.74,9.41 2.29,3 9.12,16.12 -1.13,17.66 -1.7,0.26 -4.79,0.26 -6.62,0.36 1.12,-4.5 7.05,-18.15 -5.63,-16.38l0.33 3.88c0.14,0.18 0.45,0.49 0.58,0.66 3.73,4.66 -1.48,14.06 -8.36,12.18 -4,-10.49 2.41,-9.69 -7.28,-18.49 -6.68,-6.06 -8.71,-5.77 -17.95,-8.73 -0.6,-1.47 -3.33,3 1.11,-6.75zm-254.18 -176.61c3.57,-2.39 3.87,-2.15 1.83,-7.64 -6.02,0.28 -4.99,4.88 -1.83,7.64zm45.95 -102.16c2.94,1.34 2.51,1.79 6.35,-0.38 2.03,-1.15 3.05,-2.19 4.2,-4.76 -4.61,-1.53 -9.13,0.33 -10.55,5.14zm156.91 -140.29c0,0.01 -2.87,0.19 0.28,5.22 5.98,9.56 9.7,-9.34 -0.28,-5.22zm-172.07 105.59c3.56,2.27 5.89,3.73 11.79,2.74 -1.29,-2.42 -1.64,-3.44 -4.67,-4.71 -7.95,-3.34 -6.2,0.69 -7.12,1.97zm195.28 164.79c5.01,-1.23 3.72,-0.84 6.32,-5.61 1.93,-3.53 2.36,-4.63 3.23,-9.34 -4.31,2.27 -8.6,11.05 -9.55,14.95zm-193.95 -155.93c2.63,5.95 6.37,4.67 12.95,4.25 -1.34,-3.08 0.05,-2.99 -4.8,-4.54 -2.72,-0.87 -6.46,-0.97 -8.15,0.29zm132.48 -46.51c6.05,-0.65 17.75,-5.84 20.16,-9.72 -5.06,-0.11 -7.64,1.39 -11.84,3.21 -5.39,2.34 -5.15,2.3 -8.32,6.51zm42.41 -16.3c5.09,2.67 8.06,0.09 16.37,4.02l5.17 2.28c0.09,-2.16 3.54,-4.92 -8.93,-7.49 -2.85,-0.59 -12.55,-2.69 -12.61,1.19zm-111.91 331.07c1.92,9.08 13.69,7.21 13.44,-6.38 -6.06,1.77 -6.06,4.04 -13.44,6.38zm152.79 -251.76c9.07,-2.72 14.97,-17.67 12.9,-22.42 -4.43,0.48 -2.91,-1.09 -4.13,4.22 -3.74,16.34 -7.74,8.92 -8.77,18.2zm-161 232.05c10.46,3.3 20.48,-11.53 11.15,-17.83 -1.44,3.49 -1.83,7.41 -3.44,10.49 -3.55,6.81 -3.64,0.7 -7.71,7.34zm5.84 7.14c2.33,14.21 22.19,-6.92 10.05,-11.06 -5.42,9.49 3.06,5.82 -10.05,11.06zm106.12 -342.9c1.21,0.9 0.53,0.86 2.72,1.64 2.98,1.08 4.86,0.35 9.02,3.59 3.99,3.1 4.42,7.08 8.85,5.02 0.38,-0.31 4.41,-0.59 -0.6,-5.48 -0.46,-0.45 -4.11,-3.19 -5.2,-3.86l-10.71 -2.66c-7.24,0.77 -1.9,0.2 -4.08,1.75zm40.61 210.92c-0.14,-5.65 -1.84,-13.24 -3.8,-17.54 -2.12,-4.65 -5.26,-10.19 -10.32,-10.37 1.36,4.47 3.95,6.09 6.59,12.86 2.8,7.16 1.6,12.14 7.53,15.05zm-22.69 5.55c0.39,12.44 10.81,9.33 13.92,6.45 3.29,-3.05 4.82,-11.65 -1.31,-12.91l-1.2 9.17c-4.48,1.27 -2.6,1.7 -6.3,-0.17 -5.2,-2.63 3.4,-0.62 -5.11,-2.54zm-127.78 -52.04c4.79,1.91 6.66,-3.72 12.23,-6.8 5.19,-2.86 11.22,-2.44 16.42,-6.04 -7.94,-6.11 -26.78,6.02 -28.65,12.84zm-24.43 -98.66c-1.15,-7.29 -7.39,-11.42 -11.07,-16.46 -4.45,-6.07 -8.82,-13.29 -13.74,-14.3 0.28,4.84 12.62,19.7 16.79,24.1 4.17,4.38 2.37,5.28 8.02,6.66zm-25.96 63.81c4.57,-0.84 13.37,-8.65 24.89,-12.27 3.94,-1.24 6.09,-0.69 9.91,-2.98 -3.3,-2.47 -6.67,-2.03 -11.41,-0.86 -2.93,0.73 -6.24,2.21 -9.15,3.62 -6.45,3.14 -12.7,6.04 -14.24,12.49zm196.49 -75.67c8.38,-8.63 8.56,-24.52 -0.68,-37.86 -3.55,-5.12 -0.11,-2.04 -4.71,-3.51 0.63,7.28 6.21,9.55 7.33,19.52 0.52,4.67 0.08,7.89 -1.18,12.36 -3.74,13.27 -1.72,7.93 -0.76,9.49zm-249.41 1.33c2.54,3.75 20.12,7.36 29.17,16.01 3.72,3.57 3.78,5.52 9.65,6.17 -2.03,-7.12 -9.01,-11.88 -15.36,-15.9l-19.63 -7.3c-6.9,-0.36 -1.41,-0.29 -3.83,1.02zm278.71 -79.74c-0.01,-6.44 1.16,-21.79 -0.14,-26.51 -4.53,0.78 -2.91,0.19 -4.92,4.57 -2.67,5.81 -7.43,22.96 5.06,21.94zm-20.23 74.45c8.67,-3.78 8.61,-18.25 7.87,-25.53 -0.78,-7.73 -7.77,-20.64 -13.89,-21.45 -0.51,8.94 4.57,0.1 9.28,21.07 3.11,13.91 -2.54,16.67 -3.26,25.91zm-258.5 -4.99c2.03,4.24 -3.52,0.37 11.19,5.69 6.57,2.38 16.69,8.94 21.73,13 4.82,3.88 5.11,6.63 11.22,7.23 -2.37,-11.47 -36.85,-29.41 -44.14,-25.92zm98.22 280.49c12.51,-3.41 13.35,-21.83 -0.97,-22.26l2.72 12.68c-5.22,5.38 -6.84,2.68 -12.39,6.57 2.11,4.87 5.4,4.44 10.64,3.01zm-54.3 -180.34c4.88,0.01 18.52,-9.61 23.03,-12.86 3.56,-2.58 7.37,-3.5 12.15,-5.87l9.81 -3.01c3.79,-1.94 1.38,-0.88 2.46,-2.62 -9.07,-3.53 -45.08,14.93 -47.45,24.36zm43.38 15.47c3.01,1.61 -3.58,1.91 2.96,1.13 0.95,-0.11 2.12,-0.98 3.12,-1.74 2.25,-1.73 3.51,-2.96 5.77,-4.52 17.4,-11.99 21.06,-10.93 35.75,-14.32 5.99,-1.38 4.99,0.16 6.51,-3.68 -6.09,-3.39 -25.54,2.7 -31.33,5.8 -8.52,4.56 -18.23,9.85 -22.78,17.33zm-27.17 217.1c-2.57,-5.13 -16.74,-5.69 -15.04,-21.78 1.4,-13.22 11.88,-14.28 14.79,-23.37 -11.19,1.81 -20.98,11.57 -21.33,24.59 -0.29,10.87 12.78,24.6 21.58,20.56zm200.32 -311.47c9.98,-0.2 18.79,-21.71 18.39,-36.67 -0.34,-12.61 -4.78,-26.08 -13.99,-34.66 -3.39,-3.16 0.25,-2.23 -4.27,-1.73 0.34,3.61 1.77,2.78 4.39,6.79 10.16,15.56 12.2,35.36 4.52,50.92 -2.44,4.93 -5.95,13.03 -9.04,15.35zm-204.94 102.01c8.43,-0.6 12.56,-7.17 18.23,-11.19 11.48,-8.15 27.24,-16.62 40.43,-21.29 15.14,-5.37 21.09,-0.6 25.96,-4.71 -11.38,-7 -39.38,5.32 -49.28,9.72 -6.15,2.72 -33.23,21.89 -35.34,27.47zm45.67 -120.96c-1.32,-2.77 -9.06,-12.7 -11.11,-15.12l-36.55 -46.93 -29.05 -26.18c-7.39,-5.1 -28.44,-17.02 -39.06,-16.32 6.5,7.65 31.48,5.88 65.14,45.51 4.13,4.86 9.09,10.36 12.76,15.51 2.91,4.1 3.3,4.76 6.17,7.93 5,5.52 24.83,38.71 31.7,35.6zm71.11 207.24c-0.14,-7.58 -0.86,-4.2 3.48,-6.87 2.75,-1.69 -0.65,2.21 2.8,-2.34 2.28,-3 0.33,-0.69 1.32,-2.56l-1.52 -4.56 -4.28 0.03c-0.89,2.01 -1.61,5.78 -1.84,9.76 -16.39,14.06 0.45,14.88 1.74,31.88 5.29,2.92 6.48,8.51 8.79,14.16 1.99,4.87 2.49,2.32 4.49,7 2.53,5.91 -0.25,4.35 6.2,6.68 2.35,-7.37 -1.51,-9.61 -1.62,-19.01l-3.98 -2.23 1.49 -7 -6.55 0.6c0.61,-6.55 1.5,-4.45 2.71,-10.35 -4.2,2.34 -2.7,2.67 -8.52,2.72l3.55 -9.06c-0.26,-0.15 -0.65,-0.28 -0.83,-0.36 -0.19,-0.08 -0.67,-0.25 -0.9,-0.34l-3.96 -1.87c4.59,-10.09 4.58,-5.29 6.19,-9.86 -5.22,1.39 -1.51,2.68 -8.76,3.58zm-152.68 -70.76c4.68,-1.85 7.49,-5.76 11.75,-9.8 19.37,-18.32 42.3,-34.34 68.25,-43.77 20.78,-7.55 30.49,-4.24 37.8,-6.85 -1.43,-4.92 -5.72,-4.13 -18.1,-1.66 -38.76,7.74 -49.35,13.44 -78.02,37.59 -5.23,4.41 -20.64,18.54 -21.68,24.49zm92.68 -123.44l3.69 -4.66c-16.82,-1.56 -14.86,4.4 -33.6,-19.67 -8.26,-10.62 -16.16,-20.12 -23.9,-30.05l-26.46 -27.44c-5.96,-4.51 -24.84,-20.23 -33.09,-20.59 1.91,6.21 9.66,7.76 14.82,11.82 4.7,3.7 10.55,7.91 15.24,11.82 5.14,4.3 9.86,8.67 14.1,12.85 2.68,2.63 3.36,4.11 5.99,6.86l12.56 14.39c16.18,18.92 29.78,47.64 50.65,44.67zm-97.32 -75.72c1.83,2.38 0.46,1.16 2.92,2.91 1.33,0.95 2.81,1.7 3.92,2.47l20.24 17.01c2.18,2.18 3.7,3.39 5.8,5.77 2.43,2.75 2.77,4.02 5.49,7.33 10.08,12.25 29.08,44.33 47.55,50.12 8.62,2.7 15.83,0.45 18.82,-5.18l-5.79 -0.04c-12.93,1.94 -16.95,-0.23 -28.31,-10.37 -14.32,-12.78 -22.97,-40.23 -61.63,-68.08 -4.65,-3.35 -4.45,-4.58 -9.01,-1.94zm168.78 -30.84c4.92,1.97 4.9,-0.07 7.93,3.86 -2.93,5.98 -4.65,1.18 -10.17,5.03 3.74,2.55 4.15,1.63 6.4,2.54 1.89,0.75 1.28,0.65 2.31,1.43 -4.11,5.48 -6.1,1.18 -7.17,7.38l11.32 -1.27c3.02,5.53 2.94,6.35 10.73,7.14l-1.12 -10.82c14.02,-5.57 22.69,1.99 28.51,-2.43 -12.13,-6.61 -19.25,-4.77 -33.92,-4.55 3.89,-13.42 22.06,-6.93 26.91,-6.11 5.14,0.87 3.34,-0.11 4.6,-0.9 -6.24,-10.26 -33.66,-2.95 -34.83,-2.8 -4.76,0.62 -2.77,-0.25 -5.21,-0.79 -8.48,-1.86 -4.37,-0.4 -6.29,2.29zm70.83 163.19c-2.88,-4.21 -0.6,-3.4 -5.04,-5.23 -1.09,9.32 4.72,10.91 5.21,24.46 0.24,6.76 -2.46,24.16 -0.17,27.89 1.18,-1.87 4.18,-13.39 4.57,-16.45 0.92,-7.35 -0.72,-17.17 -0.29,-20.25 1.29,-9.18 20.04,-13.09 26.65,-38.51 2.65,-10.18 0.02,-8.56 5.77,-16.2 3.26,-4.33 6.8,-7.61 8.05,-13.68 1.26,-6.13 1.76,-16.28 -1.08,-21.63 -0.57,0.73 -0.81,-0.04 -1.45,2.55 -1.22,4.9 -0.04,13.39 -4.6,22.14 -4.77,9.17 -10.77,7.96 -10.81,20.19 -0.05,20.01 -20.11,34.76 -26.81,34.72zm-48.98 151.56c-0.02,-7.38 -3.96,-33.03 -14.85,-32.82 -2.21,7.37 4.04,5.63 7.27,14.92 10.5,30.22 -6.59,66.66 14.81,96.91 7.81,11.05 -7.3,14.02 0.63,35.23 0.85,-1.05 0.84,0.27 1.45,-2.5l0.94 -20.66c9.53,5.05 -0.66,31.24 13.9,33.24 -1.78,-4.35 -4.88,-14.05 -6.14,-19.09 -1.88,-7.5 1.02,-15.3 -3.29,-20.89 -17.6,-22.81 -14.66,-56.75 -14.72,-84.34zm57.97 129.6l-7.11 -0.42c1.62,-5.4 3.05,-8.45 7.54,-11.1 2.31,4.71 2.44,5.6 -0.43,11.52zm-10.28 -3.24l-4.25 -1.43c2.71,-5.55 8.08,-9.57 12.8,-13.07 -0.26,4.73 -4.48,11.8 -8.55,14.5zm-164.27 -35.52c-9.11,0.75 -7.35,7.11 -13.01,7.95 -15.6,-2.58 -12.93,-16.72 -0.17,-19.4 18.38,-3.87 34.91,21.18 15.17,43.47 -4.76,5.37 -16.12,13.17 -26.52,13.79 -60.63,3.59 -69.36,-71.05 -55.38,-94.33 0.78,4.32 1.42,4.98 1.91,8.24 1.04,7.11 0.19,11.85 10.83,21.09 -0.38,12.62 -3.24,22.06 3.11,33.36 15.63,27.82 68.54,31.66 64.06,-14.17zm135.25 -19.46c-1.86,-6.98 -2,-4.29 8.44,-11.05 5.04,-3.26 7.72,-6.65 13.57,-8.02 0.65,3.61 2,5.79 2.61,11.49 0.52,4.85 -0.04,8.59 0.27,13.28 4.7,7.88 13.06,12.21 13.11,24.41 0.05,10.38 -13.58,20.03 -18,20.34 0.38,-6.04 3.61,-6.63 7.01,-9.53 2.06,-1.75 2.38,-2.06 4.21,-3.46l4.53 -5.2c-5.82,2.03 -9.42,6.27 -13.6,10.23l-4.86 3c-7.33,-9.65 11.07,-10.5 15.57,-20.38 -9.85,3.65 -12.64,12.6 -19.86,10.81 0.16,-8.69 13.95,-8.57 16.11,-17.2 -4.99,2.44 -12.13,10 -16.79,10.75 -3.94,-8.53 9.51,-9.34 12.94,-16.13 -6.88,1.48 -6.98,5.01 -14.22,6.97 -1.03,-12.4 5.2,-5.37 9.94,-13.44 -7.01,0.83 -5.88,3.75 -12.22,4.95 -2.08,-8.9 8.15,-6.92 12.13,-14.89 -3.96,0.53 -5.04,2.36 -8.56,4.92 -3.59,2.62 -4.66,4.57 -9.1,2.77 1.25,-8.49 10.52,-6.21 14.74,-14.73 -7.46,2.59 -12.2,9.2 -17.97,10.11zm-5.5 -63.99c0.27,-6.71 6.6,-7.79 12.32,-11.61 4.22,-2.82 10.66,-7.7 15.78,-8.82 12.65,15 -2.76,53.08 -0.84,64.63 -10.97,0.86 -15.89,10.68 -23.08,11.05 -1.72,-6.93 1.37,-5.07 7.09,-8.84 2.43,-1.6 7.32,-4.39 8.58,-7.27 -9.78,1.7 -11.27,11.46 -18.73,7.42 -0.38,-8.83 -2.35,0.16 12.37,-10.79 3.57,-2.66 10.8,-6.46 11.61,-10.58 -8.39,3.7 -17.87,15.42 -25.68,14.19l-0.22 -4.37 13.83 -8.68c3.31,-2.47 11.98,-6.83 13.36,-10.26 -8.07,0.78 -17.24,13.52 -27.19,15.52 0.22,-7.45 -2.13,-3.47 12.95,-12.56 5.83,-3.51 12.47,-6.26 14.77,-10.92 -8.71,2.61 -19.51,13.54 -28.4,15.45 0.13,-5.45 -2.15,-2.58 12.3,-12.25 4.89,-3.29 11.75,-6.22 15.98,-9.71 -1,-0.45 2.79,-3.99 -7.18,1.82l-20.8 13.32 -0.38 -6.51c6.88,-2.13 26.59,-14.4 28.92,-17.69 -8.23,1.21 -16.13,9.01 -23.35,13.34 -5.63,3.38 -1.06,1.04 -4.18,1.74l-0.6 -4.12c3.07,-1.88 21.41,-10.66 23.84,-15.36 -7.73,0.63 -14.96,10.04 -23.07,11.86zm-167.59 -7.39c1.85,5.26 1.12,2.35 4.95,5.76 7.22,6.45 3.55,13.66 6.54,26.56 -27.01,0.48 -37.5,12.51 -51.66,4.93 2.36,-10.36 5.33,-11.28 10.24,-17.5 3.9,-4.94 2.33,-6.58 12.88,-15.41 4.99,-4.17 8.08,-8.5 15.38,-11.59 6.71,-2.84 14.65,-6.49 22.62,-5.56l0.64 5.08 -15.36 5.78c-4.52,1.07 -2.41,-0.34 -6.23,1.95zm67.78 -23.47c-17.22,-3.39 -11.63,0.4 -14.66,-4.79 3.29,-4 11.19,-1.14 16.65,-0.21 3.56,0.6 5.76,1.6 8.75,3.04 4.68,2.25 4.08,1.34 4.58,6.6 -7.02,-0.68 -8.75,-3.35 -15.32,-4.64zm-43.49 -22.25c-2.34,-10.58 6.91,-10.44 3.88,0.34l-3.88 -0.34zm15.89 -8.23c1.19,2.64 1.68,4.54 0.67,8.89l-7.37 -1.26 0.67 -7.67 6.03 0.04zm-32.04 -9.43l0.65 21.62c-8.22,-0.58 -6.62,-16.2 -4.89,-22.1l4.24 0.48zm39.69 9.42c4.69,-2.38 2.78,-2 7.56,0.08l-0.84 6.78 -7.36 0.01 0.64 -6.87zm-18.58 -3.3c-6.14,-1.06 -3.35,0.79 -6,-3.12 2.3,-2.04 -4.61,-1.31 4.15,-3.1 0.63,1.04 1.35,0.44 1.85,6.22zm3.22 -4.4c2.08,-2.41 6.89,-2.74 10.75,-3.25 -0.9,8.15 -3.55,10.07 -10.15,7.38l-0.6 -4.13zm-19.86 -2.16c2.03,-1.73 3.58,-3.16 7.34,-4.14 -0.02,6 -1.65,7.17 -1.27,13.98 0.42,7.29 2.13,9.15 -4.13,10.64l-1.94 -20.48zm-116.25 38.04c15.01,-2.67 11,-3.49 22.07,-8.69 12.75,-5.99 22.55,-17.07 32.43,-26.61 5.9,-5.69 8.43,-10.06 20.6,-7.5 4.46,6.89 0.09,13.85 5.84,17.29 3.6,-8.95 -3.45,-20.88 8.3,-17.42 1.18,11.22 -3.44,13.34 1.97,18.21 2.28,-4.29 2.54,-13.56 5.11,-18.62 8.95,1.3 4.94,6.58 5.96,16.5 0.51,5.01 1.78,6.57 2.09,11.51 -3.78,2.85 -5.44,3.56 -10.5,3.83 -1.84,-5.3 -0.55,-3.92 -4.16,-4.97l-2.36 10.11c-6.86,-1.51 -1.49,1.23 -5.14,-3.96 -2.06,-2.91 0.81,-1.63 -3.59,-2.06l-0.08 9.89c-6.72,2.36 -23.61,22.89 -24.58,23.27 -5.88,2.3 -6.02,-5.67 -19.42,13.84 -31.66,46.13 -22.03,63.32 -27.76,71.76 -7.64,-18.96 -6.29,-42.77 1.42,-62.09 1.94,-4.85 2.59,-10.43 4.87,-14.44l6.2 -11.78c3.79,-6.92 13.85,-14.5 15.92,-20.75 -6.1,0.73 -14.41,8.99 -19.2,13.62 -2.4,2.32 -3.04,3.02 -5.71,4.91 -8.66,-1.4 -10.82,-6.43 -10.28,-15.85zm334.01 -38.48c3.96,-5.71 -0.27,-15.75 -3.07,-21.3 -3.61,-7.14 -7.12,-10.84 -13.12,-14.21l2.1 -7.88c8.48,3.15 13.28,13.77 17.29,20.97 5.87,10.56 4.78,18.9 2.62,30.51 -2.36,12.71 -2.49,10.47 -8.96,19.62 -1.78,2.51 -1.39,3.27 -2.94,6.1 0,0 -15.66,15.12 -21.77,14.72 -0.74,-9.52 4.94,-6.75 8.31,-15.38 12.56,-32.12 -2.84,-47.02 -5.13,-56.02 9.03,2.82 11.65,10.02 14.3,20.45 4.48,17.66 -4.47,21.05 -1.19,26.73 1.64,-1.1 0.88,0.28 2.59,-2.44l3.54 -11.51c2.27,-20.76 -7.22,-27.84 -13.32,-35.34 -4.74,-5.85 -0.71,-6.14 -0.69,-6.17 4.9,-0.68 9.05,6.96 12.45,12.46 1.46,2.36 3.41,4.98 4.15,8.7 1.15,5.8 -1.11,7.74 2.84,9.99zm-97.16 -131.01c4.13,-3.92 8.7,-1.62 15.64,-3.31 20.34,-4.92 26.31,-17.95 32.2,-21.82 3.65,16.7 -39.77,37.37 -47.84,25.13zm-18.32 31.01c-10.86,5.12 -93.52,7.86 -92.62,-24.78 7.89,-0.61 25.24,18.73 49.14,3.1 16.73,-10.95 3.77,-43.75 2.97,-49.5 14.54,2.22 27.64,12.91 29.68,13.74 5.81,2.39 4.13,2.05 8.12,5.44 14.52,1.3 22.16,-0.36 34.44,-5.01 9.65,-3.66 18.28,-9.06 28.5,-5.15 -0.73,8.62 -1.95,8.94 -6.95,12.67 -4.05,3.02 -5.69,5.2 -10.31,7.66 -10.48,5.58 -23.2,3.1 -28.78,6.97 -1.09,8.7 2.03,3.4 10.18,17.98 -2.57,5.36 -18.5,14.11 -24.37,16.88zm-147.78 -74.71l-0.42 -5.16c6.82,0.52 12.53,4.98 14.03,10.27 -7.01,0.66 -7.08,-3.2 -13.61,-5.11zm135.64 10.29c0.88,-5.34 -0.98,-4.28 5.59,-6.49 19.88,-6.7 34.08,-26.56 47.17,-19.01 -3.8,4.25 -18.32,11.58 -25.03,14.39 -7.49,3.15 -15.91,11.81 -27.73,11.11zm-30.64 -51.39c10.02,-2.53 7.47,2.53 9.29,13.26 -6.38,-1.54 -9.3,-6 -9.29,-13.26zm170.11 -34.39c5.54,-0.82 9.23,0.3 14.79,-0.76 5.11,-0.98 6.58,-3.09 11.42,-3.03 0.08,12.36 -12.26,21.86 -25.14,22.39l0.37 -5.71c8.71,-3.86 14.9,-0.46 19.25,-10.07 -5.48,1.64 -21.75,11.11 -20.69,-2.82zm-275.11 75.49l4.72 4.16c5.73,3.56 11.76,6.7 18.72,5.27 2.84,-10.24 -5.43,-15.3 -13.62,-20.63 -6.43,-4.18 -17.7,-6.76 -26.22,-8.37 -17.27,-3.26 -20.49,-6.22 -26.96,-18.08 -3.55,-6.5 -9.28,-7.82 -9.93,-16.75 26.71,-6.82 22.28,-0.07 36.24,0.15 -0.73,-5.16 -1.4,-3.12 -5.95,-4.77 -2.41,-0.88 -4.02,-2.79 -7.17,-4.62 -9.55,-5.54 -12.49,-17.04 -20.13,-24.87 -3.73,-3.82 -8.06,-6.59 -9.31,-11.25 19.07,-1.62 60.69,18.21 77.31,28 12.39,7.29 30.64,17.79 40.69,27.47l19.34 19.16c10.37,9.12 41.73,56.65 20.56,72.2 -13.48,9.91 -28.39,3.29 -38.67,-5.23 -5.55,-4.61 -8.83,-7.93 -14.24,-12.78 -4.16,-3.74 -7.69,-11.14 -14.11,-10.65 3.67,8.54 14.91,13.8 17.93,24.06 -10.32,-3.19 -9.09,-7.74 -15.81,-12.92 -14.79,-11.4 -35.04,-26.89 -55.18,-26.82 5.62,7.78 22.69,4.37 52.64,31.9 4.21,3.87 10.1,10.45 14.13,12.67 0.44,9.23 0.96,12.87 6.92,17.65 30.85,24.8 68.41,9.18 95.06,20.51 14.22,6.05 15.15,22 23.77,22.31 0.16,-8.67 -9.9,-19.46 -16.36,-23.25 -3.89,-2.28 -4.7,-1.44 -7.74,-4.85 4.15,-3.65 11.94,-5.18 17.02,-8.4 25.66,-16.25 1.74,-6.59 37.99,-8.61 11.7,-0.65 19.71,-9.96 24.14,2.75 16.37,-2.58 30.08,-24.01 40.95,-34.56 -1.6,-6.2 -2.92,-9.64 0.38,-15.65 7.49,1.89 2.15,2.6 3.35,9.91 4.41,-5.38 3.08,-11.43 0.31,-18.45 -2.93,-7.41 3.73,-16.69 -9.14,-39.79 -2.58,-4.63 -6.13,-11.04 -12.08,-11.42 5.62,11.18 9.02,10.42 13.15,25.85 3.06,11.41 4.68,24.16 1.73,35.18 -2.74,10.22 -12,23.58 -19.68,30.55 -5,4.54 -8.04,12.19 -15.14,13.36 -9.27,-16.4 10.14,-24 8.95,-34.17 -6.57,0.35 -3.44,1.23 -6.2,5.86 -3.59,6.04 -13.52,17 -19.04,19.5 -9.65,4.37 -20.51,7.96 -32.29,6.14 -4.87,-0.75 -5.64,-1.23 -5.92,-5.83 14.7,-3.68 24.81,-3.69 32.92,-13.33 31.81,-37.8 6.18,-46.46 -28.01,-30.57 -6.35,2.96 -12,5.72 -18.59,8.4 -3.07,1.25 -6.5,2.66 -9.7,2.87l-9.31 -1.25c-0.23,-0.1 -0.75,-0.15 -0.92,-0.6 -0.18,-0.47 -0.62,-0.47 -0.94,-0.68 3.15,-5.13 38.26,-21.65 45.81,-25.42 7.07,-3.53 11.07,-2.47 17.75,-5.42 -0.39,-7.76 -15.56,-8.45 -22.21,-9.73 -10.14,-1.96 -14.35,-5.52 -25.27,-5.51 -18.83,0.02 -41.05,14.39 -41.11,-13.02 3.92,-5.61 7.26,-3.58 8.03,-11.82 -8.06,-1.05 -8.71,4 -16,5.02l-3.06 -4.76c4.61,-5.37 5.97,-3.29 12.47,-6.31 35.22,-16.38 36.37,-4.83 43.29,-7.82 -0.85,-3.55 -4.97,-4.97 -6.13,-8.99 -2.15,-19.72 22.92,-24.57 41.04,-25.04 19.98,-0.52 41.76,3.95 52.16,13.78 -0.57,3.66 -17.12,30.58 0.44,33.45 0.91,-12.7 -4.51,-32.26 14.7,-36.79 2.02,5.94 7.77,16.98 7.47,24.86 -0.36,9.76 -6.74,16.56 -6.49,24.75 9.58,7.63 14.23,24.05 10.94,36.49 -0.6,2.25 -1.63,5.23 -0.69,8 1.4,4.15 2.23,2.27 4.13,1.76 1.72,-4.96 2.28,-20.94 1.22,-26.33 -2.12,-10.84 -7.5,-15.28 -8.55,-21.86 10.15,0.43 14.43,10.78 15.88,19.64 1.8,10.93 -3.74,22.06 -0.68,28.88 3.96,8.83 5.35,18.08 1.21,28.15 -3.96,9.63 -10.31,13.51 -11.55,21.47 -1.62,10.49 -3.34,17.96 -8.58,25.17 -5.55,7.63 -12.89,11.5 -16.49,17 -4.55,6.93 -1.08,21.32 -2.8,30.76 -1,5.51 -8.67,17.69 -12.49,20.13 -9.84,-6.92 -6.23,-10.83 -7.55,-23.91 -0.9,-8.97 -8.1,-14.8 -13.9,-17.38 0.42,5.16 11.97,10.91 10.58,27.89 -10.57,-0.11 -11.33,-8.23 -19.25,-7.4 1.58,4.41 8.35,8.2 12.37,10.79 26.7,17.15 34.76,56.85 11.55,80.15 -5.1,5.11 -20.7,18.21 -28.77,16.84 -0.02,-9.22 10.74,-9 15.58,-14.31 -0.46,-0.31 0.89,-2.11 -4.54,-1.1 -3.82,0.7 -5.11,3.18 -9.01,4.05 -6.72,1.53 -2.92,0.31 -4.88,-0.57 1.66,-3.15 3.3,-2.67 6.98,-3.86l12.16 -7.13c5.9,-5.48 0.76,-6.02 0.7,-6.16l-18.58 12.81c-0.1,-0.21 -0.46,0.35 -0.69,0.53 -3.5,-2.02 -1.18,0.84 -3.35,-3.9 2.88,-3.64 5.7,-3.15 10.22,-5.99 5.16,-3.25 6.39,-3.21 7.5,-8.36 -8.33,0.95 -15.42,12.89 -22.13,4.11 -2.32,-3.04 -3.02,-7.65 -4.69,-10.73 -2.28,-4.2 -5.63,-8.96 -10.02,-9.2 -0.75,7.25 9.27,15.92 12.77,24.63 13.07,32.51 -0.9,70.7 12.98,102.47 3.24,7.42 10.38,19.51 11.1,27.66 3.74,42.43 20.85,28.19 40.45,36.37 7.52,3.14 19.92,18.17 6.83,20.49 -4.32,-8.71 -2.64,-14.47 -14.26,-16.91 -3.07,-0.64 -25.33,-2.6 -27.74,-2.42 2.58,6.79 14.53,6.05 21.47,5.98 8.3,-0.09 17.13,3.67 12.82,11.89 -5.77,-0.07 -4.46,-1.75 -8.54,-6.56l-8.55 0.01c0.23,0.24 0.54,0.56 0.7,0.71l1.44 1.31c1.39,1.27 0.5,-0.34 2.1,1.86 2.48,3.42 1.12,1.43 1.3,5.05 -6.94,0.14 -16.35,-1.05 -24.42,-1.04 -8.88,0.02 -25.45,5.14 -29.23,-3.84 -0.56,-11.88 6.31,-8.48 5.08,-20.8 -0.91,-9.04 -6.54,-10.06 -7.52,-17.65 5.5,0.78 2.93,2.57 7.87,2.93 0.37,-5.69 -3.66,-9.34 -7.03,-11.26 -7.66,0.5 -4.51,4.23 -14.43,2.91 -8.54,-12.34 -4.64,-33.59 -8.43,-47.73 -3.83,-14.29 -13.66,-7.79 -12.87,-42.6 -2.37,0.6 -6.88,3.72 -7.46,2.27 -0.11,-0.29 -0.55,-0.24 -0.83,-0.35 -2.34,-7.33 3.41,-3.61 -2.55,-14.38l1.82 -10.66c-5.67,1.43 -3.4,0.38 -6.39,4.57 -0.68,0.94 -2.75,3.94 -2.82,4.26 -3.06,-2 -2.36,1.96 -1.47,-3.27 1.22,-7.22 -0.77,-5.36 -2.96,-13.94l-4.17 -0.23c0.3,-7.97 3.23,-7.39 8.57,-12.88 3.36,-3.45 7.12,-7.11 7,-12.11 -9.28,-2.85 -0.76,6.88 -16.2,8.33 -8.29,-18.13 2.52,-28.3 0.24,-33.07 -11.87,7.62 -3.81,21.23 -8.99,29.59 -5.64,-1.51 -4.15,-2.8 -5.79,-8.79 -1.12,-4.08 -2.17,-5.56 -1.22,-10.23 1.19,-5.8 5.01,-14.23 5.72,-18.63l-6.14 6.68c-4.63,8.54 -3.34,19.86 -4.55,28.81 -4.99,-0.24 -4.6,0.05 -6.51,-4.2 -4.32,-9.63 -0.94,-18.92 1.22,-27.85 -4.66,1.61 -15.44,16.87 -17.3,1.68 3.53,-3.44 5.16,-3.43 8.22,-5.8 13.71,-10.58 19.84,-25 32.2,-35.89 5.44,-4.8 14.28,-4.68 20.17,-6.4 -2.98,-5.79 -4.43,-4.78 -11.24,-2.71 -4.68,1.43 -8.01,2.55 -11.54,5.2 -13.37,10.04 -23.27,41.99 -55.06,43.68 1.83,-16.58 12.42,-18.62 12.76,-25.92 -9.48,-1.56 -13.1,11.16 -18.12,16.91 -5.35,6.13 -18.97,8.7 -24.67,2.03 1.3,-8.31 8.61,-5.64 10.46,-18.57 -9.14,3.12 -12.59,14.5 -23.4,16.35 -9.07,1.55 -24.48,3.39 -33.55,3.64 6.36,-35.26 26.75,-37.79 35.67,-47.76 -5.55,-8.19 -10.22,4.21 -22.71,5.18 -2.97,0.23 -20.32,-2.09 -21.43,-5.84 -0.11,-0.39 -0.45,-0.42 -0.68,-0.62l21.17 -20.02c11.99,-7.31 20.79,0 27.91,-13.38 -3.77,-23.17 -54.78,12.44 -79.75,-7.71 1.37,-5.65 8.44,-15.47 12.81,-17.91 5.17,-2.89 18.63,-3.74 25.46,-4.41 0.46,-12.33 -19.02,-1.42 -30.61,-9.88 -5.3,-3.86 -15.92,-14.89 -17.76,-23.04 14.18,-9.35 21.6,-4.52 34.3,-5.15 -3.84,-9.2 -11.75,-5.64 -14.3,-21.83 3.32,-2.13 8.23,-2.71 12.59,-4.35 7.08,-2.66 4.64,-2.4 11.1,0.15 7.56,2.99 16.1,9.5 21.61,10.6zm-69.59 -102.75c0.1,4.4 12.02,10.07 16.17,18.65l12 21.1c-7.04,3.23 -15.36,5.01 -17.83,11.64 3.25,6.99 9.4,11.54 13.53,18.67 3.85,6.65 11.39,11.26 10.76,19.99 -6.56,1.39 -16.23,0.06 -14.69,8.27 0.95,5.11 4.07,9.04 4.28,14.39 -7.95,2.49 -17.89,4.14 -24.69,8.05 0.76,12.22 11.31,20.06 17.61,29.23 2.4,3.48 4.2,4.3 6.28,8.02 -3.38,7.06 -13.74,14.35 -14.2,21.84 11.05,11.89 40.52,14.66 56.5,10.3 8.67,-2.36 14.99,-6.34 16.77,1.65 -12.22,2.98 -16.11,1.56 -25.19,10.54 -3.46,3.41 -5.41,5.99 -8.51,9.47 -3.48,3.91 -6.81,3.74 -10.18,7.87 3.65,9.3 18,11 25.56,16.7 -2.12,11.87 -12.49,9.98 -13.74,43.67 -3.47,2 -8.62,6.4 -12.43,9.61 -29.66,24.95 -29.27,17.4 -40.4,22.55 -7.15,3.32 -2.88,14.57 0.45,20.04 4.9,8.07 6.94,4.68 12.38,9.47 -3.71,15.77 -23.75,41.9 -8.75,80.71 21.44,55.51 -12.37,68.26 -5.76,77.43 5.15,7.16 24.48,-3.4 29.16,-7.29 10.99,-9.15 8.76,-19.14 15.2,-22.2 13.75,17.79 10.83,17.49 31.7,28.16 17.62,9 28.16,9.96 50.19,10.01 20.75,0.04 32.48,-4.66 46.22,-13.96 3.67,-2.48 5.49,-2.73 9.06,-6.34l16.88 -14.13c8.53,-7.51 10.74,-10.43 21.46,-0.45 -0.03,4.45 -0.94,6.2 -2.63,9.08l-7.07 1.58c0.72,1.19 1.51,4.38 8.18,0.92 16.14,-8.36 -3.58,-30.95 -23.36,-20.81 -8.25,4.23 -14.47,11.43 -21.24,17.33 -31.73,27.68 -85.96,24.59 -114.97,-7.03 -5.23,-5.69 -15.09,-20.14 -18.22,-30.64 -6.19,-20.75 -6.42,-43.72 0.99,-64.95 1.16,-3.34 2.28,-5.8 4.03,-8.95 2.74,-4.92 3.17,-4.09 -0.47,-6.43 -4.82,8.94 -9.57,20.41 -12.81,31.65 -7.29,25.3 7.57,64.16 -0.8,80.23 -5.93,11.38 -13.08,18.26 -26.47,18.2 2.27,-8.12 7.2,-9.93 9.53,-17.14 5.13,-15.88 1.99,-50.75 3.7,-70.79 2.09,-24.61 20.53,-54.19 33.47,-65.3l7.48 -0.54c6.22,-8.9 22.44,-21.94 33.71,-27.86 11.56,-6.06 38.07,-12.42 52.44,-8.7 -0.73,2.82 -1.2,3.04 -2.5,5.27 -8.12,-1.3 -19,0.01 -26.62,2.4 -3.13,0.99 -6.99,2.17 -10.9,3.42 -4.14,1.33 -6.3,2.13 -9.8,4.11 -6.99,3.95 -10.51,7.76 -16.85,12.68 -9.32,7.25 -15.11,11.99 -21.21,22.47 -10.22,17.53 -5.25,5.34 -12.23,30.17 -1.93,6.85 -5.4,44.76 2.32,49.7 1.7,-6.46 -3.11,-24.71 1.85,-48.08 1.66,-7.81 3.34,-13.61 6.22,-20.74 4.91,-12.13 13.93,-21.58 23.54,-29.19l14.16 -11.48c6.85,-5.58 31.18,-12.71 42.59,-10.36 -2.02,4.66 -6.5,5.28 -11.4,6.69 -22.27,6.4 -33.87,12.49 -48.82,28.4 -1.56,1.66 -2.49,1.92 -4.1,3.6 -22.7,23.7 -27.16,73.74 -10.58,104.46 11.1,20.57 46.72,35.32 70.66,23.71 51.41,-24.94 19.97,-83.31 -12.38,-63.76 -6.19,3.74 -12.86,13.53 -5.9,22.36 10,12.67 15.22,2.01 23.94,4.01 -4.09,24.92 -46.36,21.91 -53.87,0.24 -10.33,-29.81 4.42,-32.43 4.96,-39.62 -10.91,-1.61 -21.69,-6.17 -18.4,-19.38 29.12,0.45 26.49,-6.77 40.79,-6.62 12.37,0.13 7.04,2.43 17.04,5.66 6.52,2.11 10.64,7.5 18.03,3.3 2.81,-3.3 0.99,-7.49 -3.23,-8.8 -0.57,-0.17 -2.53,-0.42 -3.29,-0.55 -13.78,-2.5 -17.87,-9.11 -19.9,-22.97 -1.07,-7.24 -3.12,-5.63 -5.32,-11.97 14.15,-2.19 15.41,3.97 20.2,2.15l0.63 -1.86c0.2,-5.57 -7.01,-16.64 4.86,-27.42 7.45,-6.78 8.77,-16.65 23.51,-14.84 -2.2,8.78 -9.17,14.35 -9.84,25.59 -2.08,34.78 23.51,50.94 31.77,74.65 7.25,20.78 1.53,42.25 -9.02,56.33 -6.92,9.23 -17.03,21.42 -27.69,26.54 -4.93,2.37 -5.85,2.48 -10.2,5.67 8.2,2.99 22.52,-9.38 28.81,-14.25 7.72,-5.98 13.64,-15.07 22.19,-21.51 5.31,-4 14.11,-7.5 22.95,-6.85 16.3,1.19 28.33,20.43 18.92,34.56 -8.89,13.36 -23.68,14.91 -31.64,0.17 -2.48,-4.6 -0.42,-1.48 -2.6,-3.34 -0.37,13.78 7.28,22.21 20.44,22.72 10.66,0.42 21.84,-11.02 22.91,-20.53 1.11,-9.72 -0.94,-19.25 -7.62,-25.53 -15.37,-14.43 -15.83,-13.49 -38.58,-9.09 0.19,-5.64 2.14,-11.45 3.16,-17.68 7,-42.88 -44.33,-79.22 -33.47,-103.97 5.9,-1.52 20.78,3.03 25.57,5.75 1.57,0.89 6.55,7.08 7.63,9.13 2.9,5.5 1.72,10.43 7.1,13.53 1.94,1.13 -2.83,-2.76 2.53,1.39 11.69,9.05 -6.61,14.28 11.31,18.01 3.35,26.83 11.92,22.27 14.05,41.67 1.65,14.94 2.82,32.58 10.68,43.94 11.16,0.83 8.25,-1.08 13.85,6.91 3.7,5.28 4.94,8.28 2.35,16.39 -2.13,6.7 -5.26,8.99 -1.46,16.13 2.75,5.15 4.35,7.57 8.81,10.33 10.05,3 67.84,-3.19 86.26,-1.57 5.96,0.53 21.44,1.36 25.84,0.51 8.04,-17.14 -1.27,-27.71 -14.6,-33.4 -10.71,-4.57 -31.65,-2.93 -36.69,-15.94 -7.17,-18.54 3.04,-19.14 -11.66,-41.02 -7.06,-10.51 -2.61,-9.3 -3.73,-21.61 -1.34,-14.81 -5.82,1.31 0.44,-19.52 4.85,-16.1 -1.17,-35.55 8.57,-44.19 6.4,-5.67 14.69,-11.32 19.91,-18.6 1.54,-2.16 3.66,-5.77 4.98,-7.88 7.33,-11.73 8.72,-29.62 6.12,-45.58 -2.21,-13.56 -19.79,-27.95 -20.61,-30.15l0.79 -24.12c5.05,-5.12 9.72,-7.62 14.26,-12.64 11.35,-12.58 8.02,-27.26 14.08,-37.28 3.02,-5 7.52,-9.68 9.64,-16 8.89,-26.46 -3.06,-30.24 -1.39,-43.93 3.27,-26.85 -8.78,-29.57 -8.41,-41.93 18.91,-10.78 25.48,-7.82 19.17,-36.82 -10.13,0.38 -9.52,9.89 -26.87,8.38 -7.73,-0.67 -6.68,-2.35 -9.72,-7.93 -2.13,-3.89 -4.31,-7.34 -7.18,-10.04l-14.61 3.71c-1.13,-0.57 -2.24,-1.22 -3.43,-1.84 -24,-12.42 -58.41,-16.31 -82.65,-3.45 -13.33,7.07 -8.67,8.7 -13.47,22.37 -7.84,4.04 -20.08,7.01 -28.84,11.16 -10.66,5.05 -19.19,6.01 -18.53,19.78 0.53,11.07 3.56,20.38 14.03,24.34 24.33,9.2 21.99,-1.88 30.7,2.65 -6.46,6.54 -9.2,0.15 -13.16,8.55 16.59,-2.41 25.6,-17.3 39.86,-10.92 -1.67,3.65 0.56,0.94 -3.32,3.79 -10.15,7.46 -22.28,15.59 -35.37,18.49 -25.3,5.61 -46.72,-21.36 -33.02,-21.32 7.84,0.03 15.16,10.53 24.16,10.15 -1.8,-4.9 -8.88,-7.16 -14.7,-10.39 -10.02,-5.54 -8.31,-2.45 -18.33,-1.4 -3.46,-2.7 -4.53,-4.26 -7.69,-7.24 -3.17,-2.97 -5.04,-3.62 -8.46,-6.94 -2.66,-2.58 -4.25,-4.9 -7.47,-7.98 -7.62,-7.27 -37.24,-26.87 -46.07,-30.95 -15,-6.93 -71.72,-37.36 -91.02,-28.63z"/>
 </g>
</svg>
