<?xml version="1.0" encoding="UTF-8"?>
<!DOCTYPE svg PUBLIC "-//W3C//DTD SVG 1.1//EN" "http://www.w3.org/Graphics/SVG/1.1/DTD/svg11.dtd">
<!-- Creator: CorelDRAW 2020 (64 Bit) -->
<svg xmlns="http://www.w3.org/2000/svg" xml:space="preserve" width="256px" height="256px" version="1.1" style="shape-rendering:geometricPrecision; text-rendering:geometricPrecision; image-rendering:optimizeQuality; fill-rule:evenodd; clip-rule:evenodd"
viewBox="0 0 256 256"
 xmlns:xlink="http://www.w3.org/1999/xlink"
 xmlns:xodm="http://www.corel.com/coreldraw/odm/2003">
 <defs>
  <style type="text/css">
   <![CDATA[
    .fil2 {fill:#1A1A1A}
    .fil1 {fill:#99CC66}
    .fil0 {fill:#FFEB9C}
    .fil3 {fill:#1A1A1A;fill-rule:nonzero}
   ]]>
  </style>
 </defs>
 <g id="Camada_x0020_1">
  <metadata id="CorelCorpID_0Corel-Layer"/>
  <path id="amarelos-2" class="fil0" d="M9.99 128.34c-1.55,0.11 -1.82,-1.07 -1.41,-2.34l2.22 -6.04c0.73,-1.27 0.37,-1.84 0.98,-3.18 1.52,-3.42 0.98,-3.45 1.6,-4.96 1.07,-2.63 0.63,-2.47 1.66,-4.42 0.72,-1.35 -0.18,-2.35 1.86,-2.33 0,1 -1.31,4.91 -1.68,6 -0.83,2.45 -1.02,1.85 -1.23,2.54 -0.32,1.09 -0.05,1.75 -0.66,3.04 -0.55,1.15 -3.26,9.92 -3.34,11.69zm-9.28 -1.94c2.12,0.15 1.08,1.36 6.33,2.34 -0.03,0.68 1.06,1.45 1.62,1.88 0.15,1.39 0.15,2.09 -0.65,3.11l-1.85 4.06c-0.38,1.41 -0.98,2.92 -1.96,4.05 -2.56,0.07 0.27,-3.75 0.48,-4.57 0.72,-2.87 0.59,-1.13 1.13,-2.62 0.43,-1.22 0.23,-1.63 1.23,-2.28l0.05 -1.98c-0.84,-0.23 -1.05,-0.35 -2.01,-0.3 -2.77,0.12 -0.76,1.95 -2.68,3.97 -1.12,1.19 0.24,2.37 -1.69,2.82l0 4.61c0.08,0.85 0.18,1.7 0.29,2.54 0.78,-0.3 0.63,-0.86 1.46,-0.83 1.04,0.03 0.73,1 0.78,2.06 0.94,0.79 1.93,0.65 3.5,0.54 1.32,-1.06 0.24,-1.52 1.12,-2.99 0.78,-1.29 0.72,-1.38 0.93,-3.01 0.18,-1.35 0.98,-1.54 1.22,-2.92 0.35,-1.98 0.5,-1.59 1.06,-2.98 0,-1.5 -0.41,-1.05 -0.67,-2.18 0.15,-1.79 2.45,-0.41 3.17,-0.02 0.3,1.82 -0.1,1.84 -0.91,2.56 -0.24,2.79 0.35,2.55 -1.47,3.98 -0.21,3.2 -0.27,2.1 -1.11,4.41 -0.29,0.79 -0.22,1.9 -0.45,2.36 -0.44,0.91 -1.03,0.27 -0.84,1.78 0.53,0.36 1.9,0.56 2.65,0.54l0.58 -0.11c0.04,-0.07 0.12,-0.05 0.18,-0.08 0.78,-0.87 0.36,-0.64 0.5,-1.88 0.11,-1.01 0.43,-0.86 0.84,-1.61 0.28,-0.51 0.35,-1.23 0.54,-1.85 0.24,-0.75 0.45,-0.77 0.77,-1.44 0.41,-0.84 0.55,-2.37 1.15,-3.62 0.88,-1.81 0.39,-1.89 0.74,-3.84 1.64,-0.3 2.47,0.6 3.67,0.98 1.27,0.4 2.6,0.08 3.55,1.11 -0.1,1.56 -0.83,1.17 -1.08,2.25 -0.34,1.42 0.34,1.45 0.56,2.56 -0.63,0.65 -1.14,0.42 -1.57,1.06 -0.37,0.56 -0.25,1.26 -0.49,1.92 -0.3,0.83 -0.44,0.63 -0.68,1.7 -0.65,2.86 -1.34,2.07 -1.75,3.28 -1,3.02 3.06,4.44 3.94,2.64 0.13,-0.27 0.18,-0.51 0.21,-0.8 0.08,-0.74 -0.06,-1.35 0.23,-2.04 0.53,-1.26 0.75,-0.15 1.11,-3.19 0.2,-1.75 0.83,-1.8 1.25,-3.2 0.97,-3.2 1.57,-2.86 0.16,-4.18 -0.65,-0.61 -0.5,-0.2 -0.54,-1.43 2.36,-0.29 0.04,0.27 4.26,0.98 3.88,0.65 1.3,0.6 4.16,1.31 1.55,0.39 2.5,1.24 4.36,1.19 5.7,-0.15 2.09,-0.09 4.96,-0.62l9.22 -1.6c2.75,-0.29 7.59,-1.74 8.93,-1.86 4.14,-0.37 1.69,-1.09 7.22,-0.97 2.08,0.04 1.67,-0.33 2.07,-0.64 0.83,-0.64 5.23,-1.27 6.68,-1.32 1.13,-0.03 1.21,-0.45 2.19,-0.62 1.34,-0.23 4.13,0.33 5.06,-0.27 2.46,-1.59 1.33,-0.71 4.19,-1.29 0.94,-0.19 1.19,-0.55 2.11,-0.76 3.39,-0.78 2.64,0.63 5.78,-2.03 0.03,-2.56 -0.89,-1.69 -1.25,-3.61 -0.08,-0.42 -0.09,-0.61 -0.18,-0.92 -0.18,-0.61 0.09,0.03 -0.34,-0.78l-1.86 -4.7c-0.61,-1.69 -0.67,-1.62 -0.77,-3.68 -0.86,-0.77 -2.15,-1.33 -3.34,-2.01 -1.9,-1.08 -1.44,-0.88 -3.96,-1.28 -1.86,-0.3 -2.46,-1 -3.91,-1.32 -1.73,-0.38 -2.17,-1.28 -3,-2.19 -2.37,-0.1 -0.4,0.97 -3.23,-0.33 -2.78,-1.29 -4.83,-1.19 -6.18,-2.1 -1.07,-0.72 -1.98,-0.41 -3.29,-0.85l-3.24 -1.15c-1.35,-0.42 0.04,-0.51 -3.01,-1.19l-9.4 -3.21c-1.85,-1.14 -2.07,-0.23 -3.43,-0.74 -1.31,-0.5 -0.35,-1.29 -2.81,-1.27 -2.55,0.02 -1.78,-0.5 -3.27,-0.98 -0.67,-0.22 -1.21,-0.14 -1.87,-0.3 -0.49,-0.11 -0.94,-0.5 -1.45,-0.73 -1.58,-0.7 -2.79,0.17 -5.79,-2.48 -1.59,-1.41 -2.57,-0.17 -3.13,-0.14l-2.78 -0.77c-0.98,-0.23 -0.96,-0.7 -2.46,-0.87 -1.2,-0.13 -1.66,-0.36 -2.48,-0.92 -1.48,-1.02 -1.98,-0.34 -3.05,-1.05 -2.22,-1.47 -2.67,-0.51 -4.41,-1.56 -1.47,-0.89 -1.17,-0.44 -2.87,-0.68 -0.82,-0.12 -1.33,-0.88 -1.83,-1.28l-0.13 -0.01c-3.55,9.69 -5.96,19.93 -7.07,30.55l0 11.89zm70.54 81.95c-0.84,-1.3 -1,-2.5 -0.83,-4.58l1.66 -1.54c2.95,0.86 2.1,6.51 -0.83,6.12zm21.51 -11.27c0.94,-0.73 2.17,-0.99 2.18,1.25 0,1.14 0.1,2.45 -0.11,3.49 -1.33,0.51 -2.2,0.51 -2.25,-1.07 -0.04,-1.01 -0.05,-2.73 0.18,-3.67zm-0.05 -6.97l1.82 -0.07c0.37,0.99 0.78,0.83 0.65,2.47 -1.32,0.07 -1.48,-0.24 -2.47,-0.92l0 -1.48zm-6.43 0.8c1.82,-2.36 3.47,1.09 3.2,2.04 -0.02,0.06 -0.09,0.21 -0.12,0.26 -0.52,0.9 -1.02,0.77 -1.85,0.67 -0.8,-3.12 -1.04,-1.72 -1.23,-2.97zm-15.03 -1.04c0.05,-0.98 -0.26,-3.27 0.37,-3.87 0.78,-0.74 1.95,0.43 2.42,0.97 0.06,0.85 -0.07,1.71 0.01,2.42 0.07,0.64 0.32,0.94 0.39,1.64 -1.2,0.66 -3.26,0.36 -4.8,1.05 -0.12,-1.09 0.43,-1.5 1.61,-2.21zm6.86 0.73l-0.37 0.24c-0.35,0.17 -0.8,0.21 -1.36,0.19 0.04,-0.73 0.38,-1.3 0.99,-1.66 0.79,-0.46 1.14,-0.11 1.84,-0.77 0.99,-1.46 -0.79,-3.03 -0.08,-4.24 0.89,-1.51 2.49,0.91 2.91,1.3l-0.27 3.88c-0.39,1.23 -2.3,0.23 -3.66,1.06zm9.85 -2.42c-0.24,0.29 -0.25,0.26 -0.53,0.63 -1.11,0.03 -1.7,0.18 -2.55,-0.15 0.05,-0.83 0.58,-1.1 1.3,-1.59l-0.01 -4c2.92,-1.67 2.09,1.68 2.22,2.36 0.24,1.29 2.96,0.87 3.74,0.53l0.14 -1.39c-0.21,-0.28 -0.09,-0.17 -0.41,-0.5 -1.58,-1.62 0.52,-3.06 2.12,-2.64 0.25,0.88 0.39,1.92 0.74,2.68 0.65,1.45 1.97,1.02 0.13,3.25 -1.52,0.08 -2.51,-0.33 -3.65,0.31 -1.25,0.7 -1.58,0.43 -3.24,0.51zm4.33 -11.1c0.32,-2.83 -0.91,-2.56 0.55,-4.96 0.57,0.04 1.54,-0.02 1.88,0.54 0.8,1.31 -0.7,2.27 0.01,4.21 0.47,1.3 0.03,1.26 0.03,1.27 -0.44,1.35 -6,1.77 -6.07,1.81 -0.55,0.27 -0.47,0.72 -1.3,0.86 -0.55,0.1 -1.22,-0.06 -1.89,0.1 -1.24,0.31 -0.91,1.2 -2.66,1.2 -7.7,0.03 -3.7,0.53 -8.09,1.14 -2.83,0.4 -5.44,0.95 -4.77,-0.58 0.95,-2.18 0.4,-0.71 0.42,-3.13 0.01,-0.85 0.89,-2.48 1.95,-2.66 1.93,1.47 0.35,3.57 0.69,4.23 1.01,0.91 1.31,0.94 2.63,0.26 0.7,-0.35 2.13,-0.31 3.02,-0.53 0.13,-1.62 -0.8,-3.11 -0.32,-5.57 0.67,-1.32 3.02,0.01 3.73,0.57 0.16,2.21 -1.28,0.88 -1.03,3.31 0.65,0.45 1.05,0.74 2.17,0.61 0.71,-0.08 1.72,-0.21 2.21,-0.65 1.09,-1.01 0.4,-3.57 0.55,-5.24 0.45,-1 1.43,-0.78 2.3,-0.76 1.37,1.45 -0.29,1.72 0.27,4.86 2.25,1.11 2.34,-0.32 3.72,-0.89zm5.2 -19.19c-1.72,-1.45 -2.03,0.18 -4.53,0.54 -1.79,0.26 -2.12,0.91 -3.81,1.22 -0.66,0.12 -1.63,0.21 -2.23,0.37 -0.63,0.16 -1.1,0.51 -1.69,0.73 -1.3,0.48 -2.8,0.32 -4.02,0.78 -1.44,0.55 -2.48,0.67 -3.88,1.16 -0.58,0.2 -1.01,0.53 -1.66,0.74 -1.32,0.41 -2.99,0.3 -4.27,0.74 -1.25,0.44 -3.73,2 -3.77,3.3 1.51,0.97 1.59,-0.25 3.76,-0.65 1.57,-0.29 2.39,-0.94 3.79,-1.25 1.68,-0.37 2.47,-0.52 3.99,-1.02 1.44,-0.47 2.21,-0.86 4.06,-0.61l-0.08 1.07c-1.09,0.9 -3.53,-0.21 -3.15,1.44 0.01,0.06 0.04,0.12 0.06,0.17 0.02,0.05 0.07,0.1 0.1,0.15 1.18,2.08 0.43,1.07 0.73,3.58 0.78,-0.04 1.1,-0.32 1.63,-0.45 0.63,-0.15 1.14,-0.03 1.88,-0.13 0.55,-0.92 0.34,-1.57 0.76,-2.55l1.08 -1.96c1.4,0 1.24,0.15 2.01,0.57l0.15 3.12c-0.42,0.31 -0.54,0.52 -0.94,0.83 -0.85,0.69 -2.41,0.46 -3.32,0.96 -1.26,0.7 -5.12,1.66 -6.34,1.16 -0.96,-2.42 0,-3.24 0.28,-4.3 0.33,-1.23 -2.07,-1.07 -3.89,-0.22 -1.26,0.59 -1.85,0.84 -1.38,2.58 0.35,1.29 1.16,1.99 0.6,3.21 -0.52,1.12 -1.64,1.49 -3.16,1.05 -0.48,-1.19 0.01,-1.17 0.13,-2.31 0.18,-1.55 0.54,-3.43 -1.69,-2.89 -0.43,0.1 -0.79,0.33 -1.04,0.58 -3.1,3.14 0.39,2.69 -0.37,7.33 -0.18,1.07 0.01,5.15 0.02,6.55l-0.08 16.17c0.02,1.15 0.34,1.79 0.28,3.06l-0.14 9.61c-0.01,0.98 -0.45,1.62 -0.35,2.61 1.62,1.29 2.23,0.56 4.48,0.33 1.63,-0.17 0.69,-0.62 2.17,-0.74 1.6,-0.13 1.08,-0.08 2.38,-0.5 0.47,-0.15 0.67,-0.18 1.11,-0.38 1.89,-0.83 0.72,-0.89 3.5,-0.87 3.09,0.02 2.3,-0.94 4.18,-1.33 0.1,-1.02 0.3,-1.51 -0.7,-1.61 -1.15,-0.13 -1.46,1.43 -2.82,0.99 -2.13,-1.33 -0.64,-1.73 -1.04,-3.29 -0.19,-0.76 -0.76,-0.84 -0.44,-1.93 0.33,-1.12 0.68,-0.23 0.79,-1.59 -0.5,-0.6 -1.59,-1.18 -2.55,-0.42 -0.85,0.68 -0.11,4.96 -0.2,6.34 -0.07,1.04 -0.64,1.25 -1.58,1.13 -1.61,-0.2 -0.37,-2.74 -0.33,-3.54 0.07,-1.3 -0.18,-2.64 0.1,-3.9 0.45,-2.05 -0.45,-1.03 -0.45,-3.1 0,-1.58 -0.01,-2.09 -0.47,-3.43 -1.29,0.04 -1.73,0.51 -3.05,0.92 -1.03,0.32 -1.41,0.93 -2.67,0.62l-0.03 -0.95c0.61,-0.6 1.26,-0.76 2,-1.39 0.17,-1.3 -0.17,-2.47 1.59,-2.1 0.79,0.16 1.49,1.29 1.91,1.82 1.56,0.11 1.92,-0.03 2.92,-0.73 1.84,-1.29 1.72,-1.33 1.84,-3.45 0.85,-0.26 0.95,-0.2 2.01,-0.07l0.63 2.09c0.1,0.05 0.07,0.11 0.54,0.2 1.09,0.19 2.47,-0.45 3.05,0.79 -0.17,0.32 -0.25,0.48 -0.48,0.87 -0.97,-0.42 -7.51,1.03 -7.9,1.66 -0.48,1.64 1.31,2.6 2.89,1.81 5.78,-2.9 3.5,-0.37 4.93,1.03 0.6,0.58 1.84,0.52 2.3,-0.17 0.59,-0.86 0.05,-1.84 0.41,-2.9 0.27,-0.81 0.75,-1.3 1.37,-1.67l1 0.31c0.21,1.84 -1.14,3.73 0,5.93 0.64,1.23 0.5,1.02 0.48,2.74 -0.02,1.18 0.16,2.1 -0.04,3.28 -0.45,0.6 -1.07,1.11 -2.12,0.61l-0.14 -5.28c-0.48,-0.28 -0.31,-0.26 -0.93,-0.34 -0.67,1.3 -0.68,1.93 -0.68,3.91 0,1.2 -0.24,2.71 0.06,3.88l0.17 0.28c1.19,0.76 1.52,-0.23 2.12,-0.47 0.42,-0.16 0.9,-0.05 1.38,-0.1 1.13,-0.12 2.59,-0.9 3.42,-1.22 0.83,-0.32 1.97,-0.07 2.79,-0.37 1.59,-0.58 0.94,-3.64 0.94,-5.05 0.01,-1.85 -0.24,-4.22 0.37,-5.58 2.2,-0.02 1.43,0.59 2.33,1.25 1.31,0.96 1.29,-0.71 1.22,-1.53 -0.28,-3.36 0.87,-6.55 -1.02,-7.12 -2.62,2.23 -0.5,5.12 -2.4,6.29 -0.61,-0.28 -0.19,-0.02 -0.44,-0.26 -0.37,-0.37 -0.38,-0.85 -0.4,-1.34l0.08 -7.01c0,-3.12 -0.52,-10.99 -0.32,-13.76 0.05,-0.69 0.31,-1.36 0.38,-2 0.3,-2.58 -0.39,-4.92 -0.26,-6.51l-0.01 -3.48c-0.2,-1.93 -3.32,-1.23 -3.49,0.64 -0.19,2.15 0.69,2.61 0.61,4.58 -1.43,1.53 -1.64,0.81 -3.78,1.38l0.43 -0.7c0.52,-1.3 0.34,-2.76 0.74,-4.08 0.02,-0.05 0.04,-0.11 0.05,-0.16l0.13 -1.13c-1.16,-0.16 -1.65,-0.33 -2.54,0.27 -0.03,0.03 -0.08,0.07 -0.12,0.09 -0.72,0.48 -2.75,1.03 -3.47,0.88 -0.53,-0.11 -1.28,-0.45 -1.46,-0.91 0.94,-0.72 1.64,-0.54 2.89,-0.89 1.06,-0.3 1.67,-0.74 2.93,-0.95 2.03,-0.35 1.67,0.08 3.16,-0.84 0.84,-0.53 1.98,-0.59 3.14,-0.74l0.89 -2.08zm-52.29 38.6l-1.02 0.04c-1.7,-2 -0.87,-1.67 -0.64,-3.01 0.07,-0.4 0.06,-1.02 0.08,-1.45 0.77,-0.6 2.72,-1.63 2.71,0.79 -0.01,2.7 0.5,1.83 -1.13,3.63zm11.65 -1.51c-1.26,0.65 -0.84,0.38 -2.16,0.18l-0.08 -2.29c-0.04,-2.66 -0.22,-2.8 2.32,-2.22l-0.08 4.33zm-5.19 0.95c0.59,0.65 1.12,1.08 1.16,1.57 0.09,1 -0.78,0.82 -1.62,0.76 -0.51,-0.57 -0.63,-0.77 -1.14,-1.43 -0.62,-0.81 -0.68,-0.69 -0.77,-1.99 -0.14,-2.07 -0.79,-3.19 0.42,-4.68 0.89,-0.06 1.54,-0.04 2.2,0.31l-0.25 5.46zm-8.71 -7.15c-0.05,-1.71 1.32,-2.25 2.97,-2.37 1.34,-0.09 3.77,-0.67 4.78,-0.17l0.05 1.26 -5.73 0.98c-0.81,0.27 -1.31,0.13 -2.07,0.3zm9.47 -3.23c1.07,-0.48 3.62,-0.43 4.98,-0.37l-0.03 1.21c-1.14,0.44 -1.15,-0.01 -2.25,0.11 -1.16,0.14 0.4,0.26 -2.09,0.59 -0.36,-0.71 -0.63,-0.66 -0.61,-1.54zm-8.03 -1.03c-0.64,-0.56 -1.23,-1.47 -0.8,-2.74 0.54,-1.56 -0.19,-2.33 0.66,-3.66 0.71,-0.07 1.3,0.03 1.9,0.57 0.56,0.51 0.33,1.66 0.32,2.4 -0.02,1.52 -0.26,3.38 -2.08,3.43zm11.37 -4.32c0.33,1.03 0.62,0.65 1.09,1.53 -0.24,1.05 -0.85,1.32 -1.97,1.27 -0.54,-0.59 -1.19,-2.25 -1,-3.4 0.68,-4.07 0.5,-3.55 2.31,-3.55 0.19,0.72 0.76,0.82 0.75,2.19 -0.01,1.62 -0.62,0.94 -1.18,1.96zm-4.08 -2.21c-0.25,1.75 0.42,7.14 -2.58,5.19 -0.06,-0.96 0.01,-1.83 -0.01,-2.76 -0.04,-1.27 -0.57,-1.45 -0.41,-2.35 0.09,-0.56 0.62,-1.34 1.37,-1.28 0.41,0.03 0.53,0.22 0.8,0.46 0.29,0.26 0.43,0.44 0.83,0.74zm-4.67 -3.43c-1,0.93 -1.69,1.72 -3.56,0.7 -0.15,-0.9 -0.05,-0.92 0.23,-1.67l3.77 -0.42c-0.64,-0.79 6.52,-2.45 6.87,-1.19 0.47,1.72 -2.53,1.3 -3.39,1.35 -1.04,0.06 -1.12,0.22 -1.75,0.69 -0.74,0.55 -1.05,0.41 -2.17,0.54zm2.36 -5.51c-0.37,-1.97 -0.01,-2.32 -0.02,-4.35 -0.01,-2.15 -0.03,-2.29 2.32,-1.94l-0.06 5.43c-1.02,0.16 -0.15,1 -2.24,0.86zm5.51 -7.75c1.09,0.01 1.73,1.12 1.83,1.35 0.02,0.05 0.04,0.1 0.06,0.15 0.21,0.65 0.12,2.72 0.04,3.45 -0.26,0.28 -0.53,0.52 -0.81,0.87 -1.47,1.83 -1.58,-0.2 -1.66,-0.9 -0.11,-0.92 -0.44,-0.95 -0.54,-1.75 -0.13,-1.02 0.67,-2.43 1.08,-3.17zm-10.84 1.76l1.22 -0.09c1.01,0.92 1.19,1.2 1.15,3.04 -0.02,1.26 0.13,3.16 -0.13,4.29l-1.45 0.19c-1.48,-0.27 -0.36,-2.96 -0.72,-5.72 -0.11,-0.85 -0.22,-0.74 -0.07,-1.71zm-2.15 -2.37c-1.29,1.77 -0.2,12.96 -1.07,16.34 -0.02,0.06 0.33,4.42 0.38,5.15 -1.32,0.88 -0.86,1.57 -1.04,3.52 -0.13,1.33 -0.03,3.15 -0.06,4.55 -0.03,1.56 0.23,2.68 0.24,4.37 0.01,1.5 -0.43,3.02 -0.01,4.07 2.01,0.14 0.34,-0.85 3.97,-0.25 1.46,0.24 1.42,-0.94 3.41,-0.8 0.13,2.15 0.02,1.57 -3.1,1.63 -0.34,0.51 -0.93,1.14 -1.52,1.23l-1.4 0c-0.45,1.09 -0.75,1.21 0.03,2.29 2.88,4.01 1.39,2.27 1.1,4.27 -0.08,0.63 0.02,1.36 0.13,1.92 8.04,0.14 4.27,-0.5 8.18,-0.95 0.71,-0.08 1.11,-0.37 1.82,-0.54 2.58,-0.58 7.69,1.5 6.18,-8.98 -0.38,-2.64 0.99,-4.66 0.16,-8.31l-0.27 -6.7c0.04,-1.12 0.39,-0.94 0.48,-1.78 0.09,-0.75 -0.22,-1.27 -0.19,-2.17 0.04,-1.24 0.75,-4.82 -0.19,-6.22 -0.96,-1.44 -0.43,-2.22 -0.43,-4.05l-0.04 -11.37c-0.07,-2.45 -1.76,-1.59 -2.02,-0.58 -1.3,0.03 -3.25,-0.27 -3.72,1.22 -1.05,0.15 -2.62,-0.01 -3.41,0.19 -0.78,0.19 -1.37,1 -2.06,1.17 -1.05,0.25 -2.42,0 -3.02,0.26 -1.32,0.56 -0.78,0.46 -2.53,0.52zm49.2 -10.85c-0.52,1.08 -1.98,0.77 -3.15,1.15 -3.24,1.04 -4.26,0.61 -7.09,1.84 -1.63,0.7 -2.73,0.24 -4.05,0.65 -0.9,0.29 0.08,0.47 -3.08,1.23 -1.67,0.4 -0.07,0.33 -3.62,0.95 -1.76,0.32 -2.54,0.81 -3.64,-0.37 -0.49,-0.53 -2.15,-1.51 -1.11,-3.06 0.45,-0.66 2.32,-1.04 3.28,-1.14 0.69,-0.08 1.57,0.07 2.17,-0.04 1.21,-0.22 0.3,-1.15 3.34,-1.23l1.17 -0.07c0.06,-0.01 0.11,-0.03 0.17,-0.05l4.04 -1.21c1.49,-0.53 1.01,-0.76 3.21,-1.16 1.28,-0.23 2.48,-0.73 3.53,-1.01 3.37,-0.9 5.31,2.52 4.83,3.52zm-1.88 -17.5c-0.18,-0.38 -0.05,-0.17 -0.33,-0.56l-0.24 -0.31c-0.01,-0.04 -0.04,-0.06 -0.06,-0.09 -0.97,-0.12 -1.39,-0.03 -2.07,0.26 -0.12,1.44 0.41,2.15 0.49,3.79 0.11,2.13 0.08,1.61 0.83,3.09 0.61,1.23 0.54,2.17 0.54,3.68 0.01,1.99 0.1,2.23 -2.04,1.91 -0.42,-0.67 -0.36,-1.91 -0.69,-2.91 -0.29,-0.89 -0.54,-1.91 -0.77,-2.75 -0.84,-2.99 -0.77,-4.85 -2.2,-4.8 -1.44,0.05 -1.23,1.32 -1.05,2.59 0.14,1.04 0.22,1.93 0.53,2.89 0.62,1.93 1.32,3.59 0.87,6.12 -3.12,0.91 -3.41,-5.82 -4.16,-7.58 -0.49,-1.15 -0.38,-2.02 -0.67,-3.29 -0.63,-0.53 -0.9,-0.7 -2.08,-0.61 -1.16,1.33 -0.55,1.96 0.05,3.53l2.23 7.61c0.39,1.59 -1.92,3 -2.82,1.27 -2.3,-4.44 -0.91,-11.91 -5.15,-11.12 -0.7,1.76 0.05,1.52 0.51,3.09 0.35,1.16 0.28,2.25 0.55,3.36 0.26,1.07 0.79,1.9 1.04,3.14 0.26,1.24 0.58,1.96 0.84,2.96 -0.82,0.83 -2.26,1.41 -2.87,0.4l-1.65 -6.24c-0.32,-1.61 -0.17,-1.62 -0.81,-3.07 -0.32,-0.73 -0.18,-2.42 -0.58,-3.23l-2.15 -0.06c-1.51,2.01 0.11,2.88 1.02,6.91 0.49,2.16 2.11,5.34 1.74,7.02l-1.88 0.05c-2.48,-3 -0.93,-3.76 -1.91,-5.21 -1.1,-1.65 -0.18,-2.04 -1.16,-3.65 -1.09,-1.78 -0.18,-2.75 -1.19,-3.61l-0.8 -0.47c-0.41,-0.12 -0.5,-0.05 -0.91,-0.02 -1.9,0.75 0.34,4.1 0.58,6.65 0.16,1.73 1.06,0.83 1.29,3.05 0.2,1.96 0.92,2.14 0.99,3.5 -0.17,0.9 -1.79,1.55 -0.48,2.98 0.49,0.54 0.36,0.58 0.66,1.3 0.68,1.65 1.81,2.34 2.43,3.06 0.46,0.55 0.56,1 0.99,1.53 1.69,0.42 1.29,0.09 2.46,-0.5 0.61,-0.31 1.56,-0.2 2.52,-0.33 1.43,-0.19 2.42,-0.86 4.31,-1.34 2.3,-0.6 1.57,-1.07 4.7,-1.31 1.6,-0.13 0.58,-0.82 4.21,-1.33 1.35,-0.19 1.45,-0.14 2.4,-0.7 3.05,-1.81 4.47,0.15 6.62,-1.97 1.11,-1.1 -0.34,-3.35 -0.91,-3.89 -4.4,-4.16 -1.46,-2.74 -1.58,-5.58 -0.04,-1.06 -0.07,-2.19 -0.15,-3.22l-1.14 -1.16c-0.3,-0.71 0.75,-1.39 -0.9,-4.83zm26.9 35.29c-0.01,-0.06 -0.04,-0.22 -0.05,-0.28 -0.68,-3.07 0.2,-7.34 -0.67,-11.39 -0.53,-2.41 -0.21,-6.73 -0.35,-9.4 -0.06,-1.22 -0.59,-1.35 -1.19,-1.95l-1.37 0.18c-0.62,1.35 -0.13,8.45 0.27,10.32 0.63,2.99 0.17,7.7 0.42,10.9l0.28 11.15c-0.07,1.06 -0.32,1.37 -0.2,2.58 0.09,0.9 0.11,1.64 0.11,2.65 -0.01,4.59 0.08,2.83 1.23,4.37 -0.22,0.98 -0.09,0.47 -0.74,1.09l-0.32 0.32c-0.57,0.79 -0.43,6.42 -0.07,6.83 0.26,0.3 0.52,0.44 1.02,0.31 0.63,-0.17 1.1,-1.02 1.26,-1.23 0.61,-0.77 0.19,-0.29 0.41,-0.33 0.23,-5.05 0.06,-14.27 -0.03,-19.88 -0.03,-1.77 0.15,-4.64 -0.01,-6.24zm-48.15 -4.73c0.93,0.05 1.75,-0.02 2.66,-0.06 0.94,-0.03 1.2,-0.02 1.83,-0.4 1.98,-1.16 2.07,-0.42 3.73,-1.09 0.74,-0.29 0.97,-0.57 1.72,-0.94 1.06,-0.52 4.25,-1.21 5.57,-1.63 3.28,-1.07 2.59,-0.29 3.93,-1.08 2.62,-1.56 6.31,-0.97 7.71,-2.11 1.17,-0.95 1.93,-1.04 1.37,-3.24 -2.5,-0.61 -2.07,0.65 -3.46,1.11 -1.36,0.44 -3.11,-0.3 -4.31,0.49 -1.21,0.79 -8.71,2.87 -10.88,3.33 -1.44,0.3 -2.03,0.9 -3.37,1.23 -1.36,0.34 -2.93,0.03 -3.97,0.81 -1.68,1.25 -1.76,-0.03 -3.11,1.43 -0.07,1.28 -0.09,1.38 0.58,2.15zm-38.14 -17.04c-0.17,-1.29 0.15,-1.16 0.63,-1.88 0.46,-0.68 0.38,-1.22 0.59,-2.06 0.19,-0.77 0.09,-0.43 0.4,-0.93 0.86,-1.34 0.86,-0.93 0.74,-2.94 -2.08,-0.19 -3.45,0.4 -4,1.95 -0.55,1.53 -0.51,0.93 -1.1,1.93 -0.55,0.93 -0.01,1.29 -0.72,2.12 -0.74,0.87 -0.77,0.7 -0.81,2.3 -0.1,3.17 -2.53,3.74 -1.04,6.52 3.46,0.09 2.24,-2.32 2.96,-2.92 0.15,-0.13 1.35,-0.48 1.93,-0.9 1.39,-1 1.08,-0.05 1.96,-1.81 0.02,-0.04 0.05,-0.1 0.08,-0.15l0.72 -0.94c0.55,-0.52 1.11,-0.67 1.56,-1.3l1.95 -2.44c0.36,-0.4 0.23,-0.38 0.56,-0.43 0.06,-0.98 0,-1.09 -0.37,-1.78l-1.99 0.05c-0.68,0.87 -0.34,0.65 -0.76,1.82 -0.24,0.68 -0.61,0.83 -0.95,1.45 -0.68,1.25 -0.35,2.69 -2.34,2.34zm85.35 -3.98c1.39,-1.18 0.97,-1.35 0.56,-2.94 -2.13,-0.05 -2.77,0.15 -4.47,0.5 -1.7,0.36 -1.58,0.94 -3.75,0.96 -1.91,0.01 -1.76,0.72 -3.71,0.78 -1.32,0.04 -2.19,0.85 -2.71,1.65 -3.07,0.28 -4.27,-0.18 -6.15,1.55l0.02 1.1c0.64,1.53 3.57,0.44 3.6,0.44 0.46,-0.08 1.04,-0.07 1.54,-0.12 1.16,-1.21 0.54,-1.3 2.83,-1.22 3.98,0.14 3.52,-0.5 5.24,-1.12 0.67,-0.24 0.98,-0.2 1.76,-0.25 1.55,-0.11 1.83,-0.47 2.75,-1.27l2.49 -0.06zm-8.41 45.65c-0.05,-1.9 -0.08,-3.87 -0.08,-5.78 -0.01,-3.58 -1.28,-1.72 -1.48,-4.17 0.25,-1.18 1.15,0.48 1.37,-4.12 0.2,-4.26 0.1,-2.49 -0.58,-4.41 -1.49,-0.16 -2.17,-0.06 -3.2,0.67 -0.1,0.83 0.23,3.56 0.29,5.02 0.03,0.75 -0.1,1.95 0.13,2.6 0.38,1.12 0.77,0.26 0.77,1.99 -0.59,0.05 -0.4,0.16 -0.94,0.66 -0.09,1.46 -0.37,6.46 0.44,7.33 0.49,0.34 2.53,0.19 3.28,0.21zm-13.03 -75.69c-0.18,1.04 0.05,2.66 0.44,3.49 0.84,1.75 0.66,1.15 0.81,3.5 1.9,1.99 0.97,0.98 1.4,3.93 0.76,0.88 1.01,0.77 1.41,2.27 0.75,2.75 1.45,2.45 2.61,2.44 0.82,-2.67 -1.01,-1.87 -2.42,-7.14 -0.67,-2.48 0.44,-1.55 -1.22,-3.81 -0.68,-0.92 -1.37,-2.19 -1.42,-3.6 1.29,-1.19 2.49,-0.82 3.78,-1.35 2.25,-0.92 1.23,-0.78 4.25,-1.15l2.68 -2.01 -0.09 -1.7c-1.01,-0.25 -1.07,-0.37 -1.78,0.25 -2.25,2.01 -8.75,3.12 -10.45,4.88zm11.71 -0.89c0,1.27 0.56,1.38 1.02,3.03 0.41,1.49 0.88,1.88 1.28,3.1 0.6,1.86 2.51,7.69 3.49,9.61 1.21,2.39 -0.3,2.28 1.5,5.05 0.49,0.76 1.11,4.84 2.83,3.25 0.23,-0.27 0.47,-0.06 0.25,-0.99 -0.08,-0.35 -0.28,-0.58 -0.41,-0.98 -0.21,-0.61 -0.33,-1.47 -0.51,-2.12 -0.21,-0.74 -0.5,-1.11 -0.83,-1.78 -0.51,-1.01 -0.24,-1.17 -0.5,-2.16 -0.18,-0.65 -0.73,-0.83 -1.02,-1.57 -0.44,-1.12 0.28,-1.96 -0.71,-3.2 -1.56,-1.96 -0.58,-2.67 -0.93,-3.36 -0.28,-0.53 -0.76,0.39 -2.31,-4.11 -0.44,-1.29 -1.06,-3.88 -2.38,-4.39l-0.77 0.62zm-88.33 37.17c0.83,-1.84 1.56,-3.15 2.02,-5.23 0.4,-1.81 1.26,-1.84 1.42,-3.32 0.26,-2.41 1.19,-1.73 1.03,-3.64 -0.61,-0.71 -1.82,-1.22 -3.01,-0.58 -0.86,0.53 -0.64,0.87 -0.92,1.96 -0.21,0.83 -0.57,1.22 -0.84,1.78 -0.74,1.54 -0.19,2.23 -1.28,3.95 -0.56,0.87 -0.48,1.05 -0.56,2.22 -0.11,1.53 -0.42,0.96 -0.92,1.8 -0.31,0.54 -0.35,2.61 2.25,2.48l0.81 -1.42zm24.15 9.37c2.72,1.43 6.82,-1.05 9.47,-1.13 2.53,-0.08 2.04,-0.94 4.65,-1.22 2.1,-0.23 3.2,-0.63 2.99,-2.68 -1.22,-0.56 -4.07,-0.82 -5.07,-0.03 -0.75,0.6 -0.51,0.9 -1.91,0.97 -1.34,0.06 -1.4,-0.23 -2.38,0.39 -2.31,1.45 -3.28,0.45 -4.76,1.15 -2.18,1.02 -3.07,0.96 -2.99,2.55zm17.87 -7.75c0.16,-3.07 -1.49,-6.07 -1.59,-6.67 -0.25,-1.65 -0.34,-4.77 -1.21,-5.19 -1.16,-0.55 -3.2,0.42 -2.31,3.2 0.5,1.61 -0.14,2.02 0.79,3.36 1.72,2.47 -0.38,2.92 2.47,5.81 1.56,-0.07 1.16,0.1 1.85,-0.51zm-14 -0.11c0.2,1.41 -0.11,1.9 0.79,2.82 1.48,0.2 3.16,-0.08 2.99,-1.7 -0.08,-0.77 -0.45,-0.92 -0.78,-1.58l-1.58 -5.62c-0.39,-1.46 -0.43,-2.35 -1.37,-3.23l-1.12 0.09c-1.83,1.81 0.03,3.43 0.05,6.16 0.01,2.33 0.77,1.32 1.02,3.06zm59.97 48.2c1.06,-0.17 1.66,-0.73 2.32,-1.24 0.19,-1.29 -0.44,-2.19 -0.49,-3.71 -0.03,-0.76 0.1,-1.28 0.13,-1.98 0.09,-2.17 -0.95,-1.74 -3.73,-1.76 -0.84,1.93 -0.18,1.45 -0.17,3.3 0.03,3.69 -1.09,5.89 1.94,5.39zm-63.6 -44.24c3.04,0.38 1.58,-1.4 1.36,-2.62 -0.15,-0.8 0.04,-1.65 -0.11,-2.4 -0.11,-0.51 -0.45,-0.97 -0.66,-1.73 -0.34,-1.27 -0.93,-2.39 -1.25,-3.55 -0.36,-1.33 -0.03,-2.86 -1.91,-2.54 -1.21,1.47 -0.94,1.18 -0.51,3.03 0.2,0.86 -0.04,1.12 0.44,1.78 0.26,0.35 0.76,0.71 0.9,1.26 0.31,1.25 -0.21,2.83 0.29,4.11 0.25,0.63 1.12,2.14 1.45,2.66zm61.34 13.64c1.82,1.23 2.73,0.11 3.78,-0.96 0.38,-0.83 -0.39,-4.32 -0.4,-4.62 -0.12,-6.34 -2.06,-3.3 -3.46,-2.41l0.08 7.99zm-89.17 -17.48c-2.45,-1.34 -0.93,-1.18 -2.04,-1.66l-0.15 1.11c-1.59,-0.13 -5.8,-2.49 -7.33,-1.8 -1.2,2.39 5.06,2.54 7.61,3.85 1.14,0.58 0.93,0.49 2.26,0.75 2.93,0.57 3.69,2.05 6.78,1.99 0.33,-1.73 -1.21,-1.8 -4.56,-2.85 -2.12,-0.67 -1.2,-0.65 -2.57,-1.39zm36.62 -10.57c-1.52,-0.04 -2.2,1.04 -1.78,2.62 0.97,3.72 -0.1,1.46 1.54,5.66 0.25,0.63 0.59,4 2.96,3.79 1.22,-2.55 -0.5,-3.71 -0.97,-6.15 -0.38,-1.96 -0.48,-4.85 -1.75,-5.92zm51.62 8.11c-0.33,2.71 0.5,4.14 0.17,6.51 -0.3,2.18 0.61,2.92 2.58,2.53 0.4,-0.08 0.28,-0.08 0.57,-0.26l0.6 -0.4c-0.96,-4.07 0.62,-5.28 -1.09,-8.13 -0.28,-0.46 -0.3,-0.26 -0.28,-0.61 -1.26,-0.09 -1.71,-0.09 -2.55,0.36zm-5.28 -5.75c0.15,-1.58 -0.1,-1.84 -0.7,-3.01 -0.62,-1.19 -0.13,-1.55 -0.31,-2.86 -0.08,-0.64 -1.52,-4.08 -1.9,-4.9 -1.3,-0.25 -1.3,0.03 -2,0.61 0.01,2.07 1.33,4.66 1.38,4.93 0.28,1.47 0.52,4.74 0.76,5.13 0.71,1.1 1.96,0.36 2.77,0.1zm10.81 10.4c0.46,1.79 -0.34,2.61 1.18,3.8l1.09 -0.07c0.21,-0.67 0.84,-0.21 0.97,-1.66 0.07,-0.94 -0.08,-1.61 -0.35,-2.37 -0.48,-1.37 -0.14,-3.75 -0.21,-5.35l-1.07 -0.69c-0.54,0.24 -0.63,0.4 -1.11,0.94 -0.4,0.43 -0.53,0.5 -0.99,0.9 -0.02,1.12 0.21,3.39 0.49,4.5zm-74.03 -0.73c1.01,0.28 0.51,0.5 2.34,1.19 0.78,0.3 2.67,1.27 2.59,-0.06l-0.5 -1.43c-0.32,-0.97 -0.27,-1.35 -0.27,-2.39 0,-1.58 -1.36,-2.74 -2.13,-2.97 -0.99,0.32 -1.44,1.66 -0.86,2.52 0.28,0.42 0.71,0.49 0.55,1.26 -0.13,0.61 -0.41,0.66 -1.05,0.78l-0.78 -1.84c-1.48,-0.23 -2.51,-0.24 -2.01,1.52 0.32,1.15 1.02,1.12 2.12,1.42zm75.18 17.14c-0.08,1.69 -0.21,3.27 -0.06,4.92 0.19,2.06 -0.58,3.69 2.27,3.21 0.04,-0.6 0.32,-1.14 0.3,-2.17l-0.08 -7.2 -1.1 -0.02c-0.48,0.46 -0.76,0.79 -1.33,1.26zm-79.08 -15.14c0.7,0.46 1.41,0.68 2.31,1.12 1.13,0.53 5.42,3.28 7.11,2.22l0.01 -1.46 -5.11 -2.11c-1.48,-1.04 -0.23,-0.6 -2.56,-1.18 -1.54,-0.38 -1.88,-0.22 -1.76,1.41zm69.87 -13.17c1.99,0.06 1.45,-0.23 0.71,-4.59 -0.27,-1.62 -0.5,-4.08 -1.02,-5.62l-2.01 -0.07c-0.05,0.64 0.57,5.16 0.76,5.52 2.02,4.03 0.34,2.51 1.56,4.76zm-0.19 18.97c-0.7,1.24 -0.36,3.81 -0.35,5.47 0,2.42 -0.63,3.86 2.04,3.61 0.89,-1.47 0.13,-2.67 0.08,-4.5 -0.05,-1.85 0.05,-3.69 -0.65,-4.63l-1.12 0.05zm9.03 0.89c0.42,1.45 -0.16,3.71 0.27,5.55 1.06,0.47 1.37,0.16 2.2,-0.29l0.01 -7.35c-0.98,-0.28 -1.07,-0.26 -2.09,-0.13 -0.61,0.73 -0.76,0.92 -0.39,2.22zm-8.73 20.17c-0.5,1.24 -0.46,3.18 -0.4,4.73l1.23 3.95 1.23 -0.1c0.38,-0.76 -0.05,-6.69 -0.16,-7.86 -0.63,-0.5 -0.74,-0.8 -1.9,-0.72zm5.46 -41.12c0.15,-1.54 -0.54,-4.79 -1.05,-6.42 -0.29,-0.92 -0.4,-1.01 -0.83,-1.57 -1.61,-0.02 -1.8,0.21 -1.29,1.67 0.36,1.06 -0.07,1.12 -0.02,2.45l0.93 0.76c0.14,2.17 -0.34,4.01 2.26,3.11zm-5.21 31.46c-1.62,0.44 -0.21,2.36 -0.7,4.61 -0.22,0.99 0.05,1.69 0.4,2.31 1.98,0.38 2.11,-0.34 1.97,-2.15 -0.15,-1.84 0.37,-2.38 0.26,-4.02 -0.5,-0.42 -0.86,-1.04 -1.93,-0.75zm-1.01 -21.92c-0.1,1.61 -0.22,7.57 0.19,8.82l1.56 -0.06c0.14,-1.64 0.05,-3.54 0.06,-5.22 0.02,-2.84 0.22,-3.65 -1.81,-3.54zm11.63 29.64c-0.71,0.19 -0.34,0.05 -0.79,0.62 -0.95,1.24 -1.34,1.25 -0.85,2.69 0.42,1.25 0.39,3.49 0.94,4.72l1.29 -0.12c0.27,-1.36 -0.11,-6.97 -0.59,-7.91zm-0.86 10.18c-1.47,2.99 -0.38,8.43 1.18,7.18 0.18,-0.14 0.88,-6.95 -0.14,-7.2l-1.04 0.02zm-45.42 -28.84c-0.08,-1.52 -0.7,-1.65 -1.69,-3.18 -0.5,-0.77 -1.41,-2.14 -2.66,-1.2 -0.17,0.88 -0.01,0.91 0.5,1.43 1.98,2.03 1.38,0.67 2.47,2.99l1.38 -0.04zm42.98 -25.6c-0.42,1.05 -0.44,2.07 -0.33,3.61l0.57 0.33c0.56,0.29 1.36,0.39 1.74,0.05 0.75,-0.67 -0.02,-1.67 -0.02,-1.67 -0.62,-1.33 -0.37,-1.38 -0.78,-2.37l-1.18 0.05zm-106.35 -1.54c0.36,-0.31 0.7,-0.84 1.07,-1.28 0.58,-0.71 0.49,-0.93 0.34,-1.96 -0.49,-0.41 -0.7,-0.76 -1.41,-0.98l0 4.22zm84.11 67.51c-0.38,-0.16 -1.29,-0.35 -1.96,-0.23 -0.9,0.16 -0.75,0.41 -0.71,1.42l1.55 -0.1 1.12 -1.09zm-3.9 2.03c-0.39,-1.1 -0.7,-1.17 -2.01,-1.04 -0.39,0.4 -0.34,0.11 -0.54,0.78 0.77,0.46 1.6,0.2 2.55,0.26zm32.43 -64.19c0.39,-1.18 0.05,-1.56 -1.39,-1.54l0.03 0.98c0.57,0.53 0.38,0.39 1.36,0.56zm-110.85 15.6c0.14,-0.26 0.32,-0.54 0.55,-0.85 1.19,-1.62 5.54,0.67 7.67,0.99 1.74,0.25 3.4,1.87 5.25,1.2 1.15,-0.41 0.04,-0.63 1.62,-0.68 1.26,1.77 0.18,2.52 3.43,2.53 1.15,0.3 1.7,1.65 2.84,2.07 1.08,-0.77 0.95,-1.77 2.82,-1.45 0.75,0.47 0.32,5.29 0.24,5.61 -0.57,2.37 0.59,2.88 -0.49,5.42 -0.31,0.73 -0.22,2.03 -0.09,2.88 0.25,1.59 0.73,0.59 -0.1,2.41 -0.48,1.06 -0.49,21 -0.57,24.27 -0.02,0.91 -0.75,5.38 0.21,5.63 1.61,0.42 1.03,-3.87 1.06,-5.2 0.03,-1.6 0.65,-1.02 0.29,-2.49 -0.5,-2.04 0.37,-1.46 0.42,-2.75 0.05,-1.09 -0.84,-1.19 -0.72,-2.38 0.08,-0.81 0.75,-1.13 0.84,-2.42 0.09,-1.25 0.66,-4.9 0.5,-5.57 -0.84,-3.59 -0.18,-14 -0.17,-18.68 0,-1.16 -0.07,-1.98 0.2,-2.99 0.33,-1.25 0.03,-1.81 0.13,-3.05 0.68,-0.88 1.43,-1.66 2.6,-1.13 1,0.46 1.99,0.83 2.85,1.29 1.7,0.91 1.88,0.4 3.24,0.92 0.48,0.19 2.28,1.35 2.61,1.69 0.02,1.12 -0.44,1.49 -0.47,2.83 -0.03,1.15 0.12,2.35 0.14,3.5 0.03,1.16 -0.25,1.94 -0.23,3.05 0.08,5.6 -0.3,11.25 -0.26,16.83l0.16 26.93 -10.3 -4.84c-4.4,-5.39 -8.37,-11.14 -11.85,-17.21 0.36,0.08 0.83,0.25 1.45,0.59 0.88,0.49 1.9,0.59 2.5,1 0.76,0.52 1.06,1.82 1.92,0.52 -0.23,-0.87 -0.05,-0.48 -0.82,-0.94 -0.64,-0.39 -0.4,-0.27 -0.94,-0.79 -0.76,-0.71 -1.48,-0.82 -1.73,-2 -0.46,-2.19 0.41,-1.93 0.78,-2.89 0.39,-1 0.06,-2.58 -0.41,-3.15 -1.15,-0.25 -1.47,-0.13 -1.7,0.57 -1.09,3.18 -0.36,2.51 -0.09,3.81 0.18,0.88 -0.22,1.39 -0.36,1.9 -0.51,0.06 -0.94,0.1 -1.32,0.09 -1.07,-1.91 -2.09,-3.84 -3.06,-5.81 0.04,-0.13 0.08,-0.28 0.14,-0.45 0.58,-1.57 -0.19,-3.1 -1.63,-2.68 -0.68,-1.49 -1.34,-2.99 -1.97,-4.5 0.35,0.06 0.63,0.21 1.17,0.6 0.93,0.67 1.32,0.89 2.55,0.53 0.23,-0.66 0.17,-1.34 0.24,-2.16 0.09,-1 0.45,-1.1 0.67,-2.01 -0.18,-0.72 -0.35,-0.66 -0.43,-1.33 -0.08,-0.73 0.08,-0.8 -0.14,-1.65 -2.18,-0.43 -1.81,4.08 -1.93,4.71 -0.61,0.28 -1.4,0.53 -2.17,0.31 -0.17,-0.09 -0.34,-0.2 -0.49,-0.31 -0.5,-1.24 -0.98,-2.49 -1.44,-3.74 0.39,-1.48 0.91,-3.09 -0.22,-3.61 -0.44,-0.05 -0.77,-0.05 -1.02,0.01 -1.62,-4.88 -2.95,-9.87 -3.97,-14.98zm28.79 49.07l1.74 -0.05c0.74,1.05 1.35,4 -0.4,5.25 -0.82,0.58 -0.53,0.72 -1.44,0.7 -0.88,-3.56 -0.93,-1.49 -1.31,-3 -0.18,-0.73 0.04,-1.16 0.41,-1.57 0.43,-0.48 0.61,-0.79 1,-1.33zm2.28 -12.97c0.22,1.36 0.12,3.37 0.14,4.82 0,0.72 -0.05,1.59 -1,1.23 -0.52,-0.21 -2.2,-3.29 -1.89,-5.4 0.23,-1.55 1.77,-1.39 2.75,-0.65zm-2.44 -5.39c1.57,-0.29 2.51,-0.34 2.24,1.38l-0.38 0.48 -1.27 -0.01c-0.61,-0.55 -0.92,-0.74 -0.59,-1.85zm-13.2 -5.75c0.38,-2.09 -0.61,-6.31 1.91,-5.82 0.89,1.35 0.28,4.9 0.35,6.69 0.77,1.16 1.38,0.56 1.39,2.54 -1.21,0.17 -2.12,-1.08 -2.91,-1.5 -1.26,-0.66 -2.66,0.21 -3.24,-1.19 0.82,-0.48 1.52,-0.15 2.5,-0.72zm15.86 -1.87c0.19,1.42 0.11,2.26 -0.23,3.47 -0.45,1.59 0.77,2.42 -1.61,2.26 -1.33,-0.61 -0.51,-2.32 -0.62,-3.43 -0.11,-1.16 -0.37,-1.17 -0.08,-2.46 0.64,-0.49 1.94,-0.26 2.54,0.16zm-2.24 -4.89c0.54,-0.18 1.2,0.28 1.73,0.4 0.63,0.15 4.16,-0.26 2.56,2.35 -1.66,0.15 -1.27,-1.03 -2.82,-1.16 -0.56,-0.05 -1.31,0.18 -1.75,-0.29 -0.4,-0.43 -0.22,-1.14 0.28,-1.3zm1.55 -2.45c-1.87,0.15 -2.08,-0.58 -2.09,-2.37 0,-1.24 0.02,-2.77 0.51,-3.67 1.74,-0.39 2.04,-0.12 3,0.8 0.16,1.72 -0.46,4.28 -1.42,5.24zm-20.71 -4.33c0.22,-0.73 0.39,-0.31 0.45,-1.52 0.12,-2.14 -0.43,-3.34 0.48,-5.1l1.35 0.09c0.63,1.94 0.1,4.36 0.3,6.52 0.09,0.21 3.63,3.48 4.41,1.42 0.12,-0.32 0.1,-0.62 0.08,-0.96 -0.06,-1.22 -0.49,-2.89 0.73,-4.74 2.67,-0.34 1.14,2.14 1.49,3.8 0.36,1.63 -0.12,1.22 -0.2,2.47 -0.08,1.22 0.4,1.16 0.36,2.32 -1.41,0.3 -1.76,0.17 -2.57,-0.6 -1.29,-1.22 -1.33,-0.12 -2.69,-0.8 -0.43,-0.21 -0.65,-0.51 -1.21,-0.75 -1.06,-0.47 -2.19,-0.39 -2.98,-2.15zm-4.46 -0.76c-1.41,-0.24 -2.11,0.43 -2.87,-0.55 0.11,-0.89 0.79,-1.25 1.55,-1.41 0.07,-1.42 -0.54,-2.07 -0.16,-2.91 0.77,-1.64 -0.02,-1 0.15,-2.75l1.34 -0.56 0.72 0.73c0.41,0.88 -0.81,4.14 0.89,6.99 0.42,0.7 0.76,0.76 1.11,1.32 -1.74,0.11 -1.42,-0.63 -2.73,-0.86zm57.48 51.11c-0.04,-0.61 -0.07,-1.21 -0.07,-1.87 0.01,-1.3 0.19,-2.37 0.23,-3.49 0.03,-0.99 -0.25,-2.11 -0.26,-3.28 -0.01,-1.28 0.36,-2.45 0.27,-3.48 -0.5,-5.87 -0.49,-18.95 -0.33,-24.47l-0.07 -14.06c-0.99,-0.44 -1.23,-0.7 -1.8,-1.65 -0.78,-1.27 -0.74,-1.74 -1.08,-2.54l-1.42 0.11c-0.26,0.84 -0.13,7.04 -0.04,8.31 0.27,3.93 -0.05,21.11 -0.38,24.24 -0.3,0.03 -0.29,0.09 -0.65,0.32 -0.04,1.97 0.23,0.89 0.65,2.19 0.31,0.95 0.16,10.77 -0.01,11.88 -0.02,0.1 -0.04,0.18 -0.06,0.26 1.44,2.03 3.36,4.96 5.02,7.53z"/>
  <path id="amarelos-1" class="fil0" d="M222.44 91.5c0,0 0.91,-6.6 1.59,-6.6 0.69,0 3.99,0.68 3.99,0.68l0.57 -7.85 3.75 -2.61 6.49 -11.19c6.1,10.53 10.74,22.01 13.65,34.17l-0.08 9.99 -2.37 4.29 -24.8 33.12 -0.8 -3.99 -0.46 -40.5 -1.53 -9.51zm-14.61 0.6l15.25 -1.94 0.91 9.22 0.79 46.54 -2.95 4.21 -9.45 0.34 -5.12 -0.57 -0.91 -56.21 1.48 -1.59zm-41.92 -4.44c2.6,1.42 2.84,-2.09 2.83,-3.8l0.04 -5.55c-1.31,-0.08 -1.19,0.24 -1.59,1.25 -0.19,0.5 -0.24,0.6 -0.46,1.07 -0.41,0.86 -0.35,0.31 -0.72,1.03 -0.21,0.41 -0.21,5.32 -0.1,6zm18.61 -8.83l0.02 7.18c0.01,0.06 0.06,0.13 0.07,0.17 0.11,0.34 0.73,0.4 1.04,0.41 0.35,0 0.84,-0.1 1.07,-0.15 0.68,-1.04 0.45,-1.21 0.44,-3.67l-0.01 -4.37c0,-2.57 0.58,-4.19 -2.29,-4.06 -0.61,1.15 -0.33,3.03 -0.34,4.49zm-4.29 2.41l0.07 5.76c3.23,0.25 2.48,-2.86 2.49,-5.33 0.01,-0.87 0.82,-5.68 -0.3,-7.52 -2.25,-0.07 -2.26,0.01 -2.26,2.94 0,1.38 -0.01,2.77 0,4.15zm13.84 -7.86l-0.02 10.25c-0.2,0.92 -0.34,0.81 -0.21,2.13 0.55,0.59 1.01,0.67 2.08,0.58 1.69,-0.82 0.58,-3.51 0.58,-5.98 0,-1.79 0.29,-6.74 -0.48,-7.94 -1.24,-0.01 -0.76,-0.22 -1.95,0.96zm4.61 -0.99l-0.07 11.47c0.26,0.07 -0.06,-0.23 0.27,0.15 0.45,0.5 1.22,2.14 2.6,0.94 0.01,-1.56 0.07,-11.57 -0.23,-12.23 -0.76,-0.72 -1.61,-1.13 -2.57,-0.33zm-8.88 14.02l1.44 0c1.46,-1.98 0.61,-2.98 0.73,-6.48 0.08,-2.29 0.16,-4.86 -0.32,-6.85 -1.52,-0.05 -2.68,0.04 -2.88,1.4 -0.51,3.58 0.26,2.32 0.59,3.73 0.91,3.92 -1.6,6.23 0.44,8.2zm-14.71 0.51l0.72 0.75 1.76 -0.01c0.84,-0.89 0.75,-2.59 0.81,-3.79 0.04,-0.77 -0.02,-9.24 -0.7,-9.67 -1.25,-0.21 -2.11,0.48 -2.28,1.38 -0.25,1.3 0.31,2.69 0.15,3.85 -0.32,2.39 -0.62,4.93 -0.46,7.49zm-2.76 0.83c0.57,-0.54 1.19,-0.99 1.24,-2.14 0.05,-1.2 0,-2.48 -0.13,-3.53 -0.4,-3.21 1.55,-8.12 -1.53,-7.58 -2.05,0.35 -1.13,3.48 -1.13,3.48 0.16,1.27 -0.67,6.15 -0.7,6.96 -0.07,2.61 -0.48,3.08 2.25,2.81zm30.71 -14.59c-0.14,2.18 0.5,0.65 0.02,3.11 -0.34,1.74 -0.22,3.47 0.27,5.05 0.25,0.76 0.09,1.05 0.11,1.89 0.06,2.73 3.29,2.62 3.41,-0.62 0.05,-1.22 0,-3.4 -0.07,-4.64 -0.1,-1.63 -0.35,0.25 -0.44,-3.93 -0.04,-1.65 -0.93,-1.93 -2.55,-1.8l-0.75 0.94zm-42.43 18.35c1.29,1.31 6.23,0.76 8.02,0.54 2.75,-0.34 6.47,0.15 9.17,-0.1 0.32,-0.75 0.22,-0.79 0.08,-1.75 -0.55,-0.36 -1.37,-1.04 -1.92,-1.19 -0.7,-0.19 -1.54,-0.11 -2.14,0.29 -1.17,0.8 -1.19,-0.1 -2.51,0.15 -0.36,0.07 -0.61,0.27 -0.91,0.34l-5.72 0.17c-0.63,-0.1 -0.53,-0.22 -0.98,-0.5 -1.68,-1.08 -3.27,-0.21 -3.09,2.05zm37.93 -3.93l-8 0.12c-1.31,0.25 -1.32,1.22 -3.13,1.03 -3.47,-0.37 -1.51,-0.11 -3.51,0.15 -1.74,0.24 -2.49,-0.43 -3.59,0.66 -0.14,1.25 -0.32,1.89 0.98,2.08 1.11,0.16 1.89,-0.18 2.83,-0.33 1.81,-0.28 4.02,-0.27 5.9,-0.43 3.67,-0.29 7.8,-0.63 11.8,-0.65 3,-0.01 3.18,-0.76 3.21,-2.2 -1.84,-1.41 -4.42,-0.43 -4.52,-0.42 -0.55,0.07 -1.38,-0.01 -1.97,-0.01zm38.11 -27.26l-1.24 1.86c-2.26,3.12 -3.84,5.77 -6.6,9.12 -2.05,2.5 -1.29,3.56 -3.17,4.72 -2.89,1.78 -0.87,0.72 -2.68,2.55 -1.11,1.12 -2.54,2.12 -3.98,1.25 -0.65,-0.51 -0.38,-0.92 -0.91,-1.74 -0.44,-0.7 -0.87,-0.84 -1.38,-1.44 -1.18,-1.4 -0.62,-2.51 -3.18,-2.66 -0.01,0.04 -0.04,0.06 -0.05,0.12l-0.12 0.26c-0.18,0.43 -0.16,0.19 -0.25,0.75 -0.06,0.38 -0.03,1.13 -0.03,1.54 0.02,1.1 0.09,2.18 0.1,3.28 0.03,2.09 1.59,4.47 -1.24,4.28 -1.25,-0.54 -0.54,-3.68 -0.96,-6.68 -0.26,-1.93 0.57,-4.98 -0.84,-5.58 -1.62,-0.11 -2.17,0.51 -1.74,2.14 0.6,2.27 -0.08,2.1 0.23,4.26 0.46,3.28 -0.03,6.03 1.08,7.89 1,0.12 2.95,0.33 3.88,0.01 0.33,-0.12 2.15,-1.22 2.44,-1.52 0.33,-2.2 -0.44,-2.82 -0.3,-4.49 1.84,-0.3 2.48,-0.2 2.47,1.65 0,0.58 -0.04,1.42 0.02,1.98 0.16,1.58 1.01,0.88 2.35,1.3l0.28 1.05c-1.58,0.93 -2.1,0.29 -3.55,0.8 -1.64,0.57 -2.04,0.41 -3.89,0.55 -1.38,0.11 -1.7,0.76 -3.48,0.77 -2.48,0.01 -1.92,0.31 -3.14,1.42l-0.01 1.38c1.8,0.36 0.19,-0.44 3.36,-0.48 1.35,-0.02 2.55,-0.2 3.93,-0.22 2.33,-0.04 1.66,0.14 3.56,-0.62 1.93,-0.77 2.6,0.59 3.56,-0.16 0.54,-0.61 0.54,-1.44 0.66,-2.52l1.32 -1.1c0.14,-1.63 -0.19,-1.85 -0.2,-3.12 1.67,-1.38 1.77,-0.61 2.1,0.26 0.16,0.44 0.01,0.22 0.36,0.78 3.52,0.38 1.16,-1.11 1.14,-2.94 -0.01,-1.11 1.1,-3.34 1.68,-4.15 0.6,-0.83 1.57,-0.83 2.4,-1.53 -0.09,-3.66 -0.14,-2 2.39,-5.49 1.61,-2.22 3.21,-4.96 4.91,-7.45 -0.42,-0.7 -0.85,-1.39 -1.28,-2.08zm-88 17.72c-0.38,-0.79 -0.74,-0.88 -1.06,-1.79 -0.41,-1.17 -0.47,-0.97 -1,-1.83 -0.77,-1.24 -0.83,-2.78 -2.23,-3.42 -1.6,1.1 -0.67,1.9 -0.06,2.58 -0.43,3.69 0.13,17.89 -0.07,23.18 -0.04,0.91 -0.28,1.27 -0.28,2.17 0.01,0.81 0.2,1.16 0.25,1.96 0.19,3.11 -0.28,5.66 0.52,8.59l3.64 10.36c0.95,1.91 2.22,6.73 2.29,6.87 2.13,4.27 1.7,5.03 2.41,6.82 0.65,1.64 0.92,1 1.03,3.56 0.65,0.52 0.8,0.41 1.15,1.23 0.24,0.57 0.28,1.02 0.48,1.65 0.5,1.56 0.89,1.57 1.01,3.75 0.95,0.95 0.75,0.5 1.14,2.09 0.25,1 0.63,1.33 1.64,0.85 0.25,-1.59 0.12,-4.11 0.08,-5.79 -0.03,-1.17 -0.3,-1.47 -0.35,-2.38 -0.04,-0.93 0.03,-1.87 -0.03,-2.85 -0.1,-1.88 0.05,-3.71 -0.08,-5.5 -0.64,-9.26 -0.72,-18.44 -0.77,-27.71 -0.01,-1.84 -0.12,-3.87 -0.04,-5.68 0.15,-3.59 -1.33,-3.77 -2.53,-5.95 -0.35,-0.63 -0.54,-1.11 -1.08,-1.75 -0.82,-0.98 -3.28,-5.46 -4.25,-7.14 -0.32,-0.56 -0.52,-1.23 -0.91,-1.93 -0.4,-0.71 -0.51,-1.14 -0.9,-1.94zm17.03 72.33c-0.99,0.03 -1.78,-0.73 -1.77,-1.62 0.01,-0.66 0.38,-0.82 0.54,-1.36 0.18,-0.61 0.13,-1.16 0.34,-1.61 1.38,-0.23 1.35,0.52 2.23,1.23 0.21,2.49 0.02,-0.12 -1.34,3.36zm6.45 -1.18l-1.9 0.15c-0.11,-0.7 0.09,-0.29 -0.43,-0.47 -0.01,-2.54 0.62,-3.82 3.22,-3.01 0.07,1.39 -0.38,2.55 -0.89,3.33zm-6.08 -12.46c0,0.83 1,3.23 1.45,3.47 0.04,0.03 2.92,0.89 3.13,-0.82 0.13,-1.07 -0.59,-4.93 1.04,-5.54 1.69,-0.64 1.83,2.05 1.22,3.69 -0.24,0.63 0.21,4.03 0.4,4.95 -1.76,0.02 -2.87,-0.42 -4.57,-0.12 -2.03,0.35 -3.24,0.29 -4.6,-0.23 -0.03,-1.75 0.58,-3.09 0.28,-4.93 -0.41,-2.56 -0.85,-0.54 0.28,-3.86l0.86 -0.24c1.76,1.09 1.64,2.26 0.51,3.63zm0.77 -7.37c0.74,0.39 1.8,0.28 2.79,0.18 0.02,-0.04 0.06,-0.11 0.07,-0.13l0.78 -1.29c0.26,-0.54 0.19,-1.34 0.19,-2.09 -0.01,-1.65 -0.24,-2.72 -0.21,-4.29 1.59,-0.91 3.25,0.15 3.09,1.87 -0.07,0.7 -0.68,1.3 -0.33,2.24 0.66,1.82 1.08,1.43 -0.38,3.02l0.23 2.26c-1.53,0 -3.14,0.05 -4.66,0.02 -1.34,-0.02 -2.47,-0.35 -3.99,-0.48 -0.09,-1.29 0.34,-1.27 0.36,-4.21 0.01,-1.61 -0.35,-2.89 -0.12,-4.25 1.62,-0.72 2.51,-0.77 2.52,0.73 0.01,1.98 0.37,2.24 0.3,3.07 -0.08,0.97 -1.54,2.56 -0.64,3.35zm-3.55 -10.55c-0.03,-0.91 0.1,-1.06 0.57,-1.52 1.39,-1.34 1.04,-0.61 0.98,-5.47 -0.02,-1.45 -0.36,-3.74 1.82,-2.89 1.4,0.54 -0.03,6.41 0.2,7.95 0.83,0.04 2.48,0.13 3.27,0.03 2.75,-0.37 -0.36,-5.69 1.56,-7.99 0.93,0.01 1.58,0.48 1.87,1.29 0.26,0.7 0.3,8.45 0.23,8.73 -1.18,0.3 -4.1,0.03 -5.61,0.19 -1.45,0.16 -3.5,0.44 -4.89,-0.32zm7.44 -21.28c0.45,-0.37 1.25,-0.67 2.14,-0.37 0.63,0.21 1.06,0.68 1.14,1.34 0.31,2.62 0.07,2.71 -0.45,3.59 -0.63,1.07 -0.08,1.48 1.08,2.26l-0.29 1.61c-2.6,0.2 -2.1,-0.76 -3.97,-0.76 -2.69,-0.01 -1.97,-0.8 -4.34,0.34 -0.96,0.45 -3.54,1.23 -3.64,-0.49 0.9,-0.85 1.23,-0.13 2.4,-1.31l0.07 -5.47c0.01,-0.08 0.03,-0.13 0.05,-0.2 0.02,-0.06 0.04,-0.11 0.07,-0.17 0.02,-0.04 -0.02,-0.44 0.8,-0.6 2.67,-0.51 0.87,4.05 0.99,5.57 0.46,1.01 2,0.96 2.9,0.8l1.32 -0.61c0.19,-1.71 -0.28,-1.26 -0.35,-2.59 -0.05,-0.8 0,-2.13 0.08,-2.94zm7.73 54.22c0.58,-1.09 0.81,-0.14 0.82,-2.34l-0.1 -10.28c0,-1.28 0.25,-1.9 0.23,-3.28 -0.01,-1.18 -0.19,-1.9 -0.21,-3.05 -0.03,-2.24 0.05,-4.53 0.04,-6.78 0,-4.37 0.33,-1.53 -0.16,-6.73l-0.26 -13.38c0.08,-1.1 0.36,-1.8 0.19,-3.19 -0.29,-2.31 -0.76,-1.69 -0.96,-2.26 -0.5,-1.41 0.79,-6 -0.7,-6.29 -0.16,-0.03 -0.44,-0.03 -0.62,-0.03l-3.73 0.03c-8.23,0.04 -4.22,0.44 -6.54,0.72 -0.89,0.11 -1.38,-0.24 -2.2,-0.24 -5.63,0 -3.81,4.1 -4.08,10.4 -0.09,2.03 -0.16,7.63 0.14,9.44 0.32,1.93 0.47,20.17 0.39,23.77 -0.03,1.47 0.59,6.18 0.38,9.39 -0.39,5.79 0.2,4.67 2.3,4.68 0.74,0.01 1.71,0.21 2.39,0.12 0.75,-0.1 0.82,-0.52 1.74,-0.58 1.63,-0.09 2.8,0.25 4,-0.2 2.22,-0.84 4.96,0.36 6.94,0.08zm8.2 -19.53c1.21,4.41 -1.37,4.4 -1.99,3.77 -0.42,-0.44 -0.25,-2.28 -0.15,-2.98 0.19,-1.44 0.98,-1.08 2.14,-0.79zm4.62 0.06c0.4,-0.35 0.78,-0.76 1.07,-1.1 0.5,0 1.66,-0.18 2.08,0.71 0.56,1.19 -0.81,5.65 -2.14,3.19 -1.05,-1.96 -1.1,-0.7 -1.01,-2.8zm7.58 -1.79l1.23 -0.07c0.75,0.92 1.66,0.63 1.32,2.79 -0.27,1.66 -3.09,2.69 -3.53,0.43 -0.11,-0.59 -0.07,-1.22 -0.05,-1.82 1.41,-1.22 0.48,-0.78 1.03,-1.33zm0.7 -4.58c0.59,-0.83 -0.2,-1.01 -0.49,-1.7 -0.28,-0.67 -0.09,-1.79 -0.09,-2.56 -0.01,-1.81 0.08,-3.29 2.15,-2.97 1.12,1.6 0.23,3.07 0.19,3.23 -0.09,0.38 -0.06,0.88 -0.06,1.27 0.04,5.52 0.7,1.72 0.63,4.85l-16.67 0.28c-0.93,-0.18 -0.74,-0.42 -0.77,-0.76 -0.04,-0.37 -0.05,-0.26 0.05,-0.62 0.09,-0.3 0.39,-0.6 0.55,-0.86 0.36,-0.55 0.36,-1.19 0.37,-2.01 0,-0.97 0.02,-1.6 -0.35,-2.2 -0.97,-1.58 -0.31,-2.47 1.26,-2.48 0.53,0 0.59,-0.01 1.01,0.17 1.5,0.62 0.59,2.64 0.22,3.54 -1.53,3.75 1.07,5.19 4.66,2.72 0.28,-2.19 -1.89,-8.18 2.69,-6.34 0.19,2.34 0.02,4.79 0.63,7.16 0.8,0.08 1.61,0.12 2.41,0.04 1.78,-0.15 1.61,-0.76 1.61,-0.76zm-1.2 -18.89c0.55,-0.49 0.94,-0.58 1.95,-0.51 1.69,0.73 0.81,5.34 0.98,6.84 0.8,0.6 1.43,0.68 1.39,1.97 -1.13,0.66 -4.15,0.96 -5.65,0.98 -1.12,0.02 -2.14,0.05 -3.27,0.02 -1.29,-0.03 -1.92,0.2 -3.06,0.19l-7.27 -0.03c-0.17,-1.78 3.96,-2.39 1.28,-4.35l0.05 -3.4c1.94,-1.15 1.36,-1.2 2.96,-1.14 0.19,1.87 -0.52,1.89 -0.43,3.35 0.05,0.73 0.21,0.75 0.25,1.52 0.03,0.57 0,1.18 0.02,1.77 1.82,1.75 2.94,0.67 4.33,-0.44 0.11,-0.87 0.08,-1.76 0.09,-2.63 0,-0.12 0.01,-0.54 0,-0.64 -0.06,-0.5 0.03,-0.14 -0.14,-0.48 -0.14,-0.26 -0.43,-0.47 -0.64,-0.62l0.03 -1.31c0.53,-0.37 1.07,-0.55 1.88,-0.51 0.84,0.05 0.43,0 0.95,0.27 0.75,0.4 0.05,-0.01 0.62,0.44l0.01 3.3c0.01,1.54 -0.25,2.41 0.32,2.91 0.61,0.59 3.12,-0.15 3.69,-0.51 0.16,-1.08 -0.76,-4.77 -0.34,-6.99zm-2.3 -3.6c1.18,-0.71 1.75,-0.33 1.75,-3.17 -0.01,-4.55 -0.59,-4.61 2.4,-4.43 0.05,0.53 0.23,1.29 0.26,2.03 0.06,2.04 -0.09,1.51 -0.26,1.83 -0.74,1.36 0.06,2.3 0.12,2.59 0.33,1.79 -1.21,0.5 -2.74,1.6 -0.73,0.51 -1.66,0.32 -2.56,0.4l1.03 -0.85zm-4.57 -7.48l1.83 -0.08c-0.02,1.47 0.81,1.46 0.19,3.86 -0.55,2.14 0.76,1.58 0.77,3.68 -2.26,1.04 -2.87,1.17 -6.2,1.16 -4.94,0 -3.83,0.72 -3.84,-4.97 0,-1.2 -0.51,-2.35 0.06,-3.11 0.72,-0.96 1.5,-0.53 2.15,0.16 1.04,1.13 0.13,4.95 0.41,6.44 0.91,0.48 2.38,0.34 3.47,0.23l1.56 -1.54c0.01,-1.26 -0.51,-1.12 -0.61,-2.61 -0.08,-1.25 -0.19,-2.14 0.21,-3.22zm-10.69 54.77c2.85,2.5 3.08,0.1 5.74,0.07l1.98 0.01c0.28,-0.04 0.76,-0.14 0.86,-0.57 0.06,-0.22 0.11,-0.34 0.11,-0.6 -0.02,-2.08 -1.19,1.2 -0.93,-7.87 1.64,-1.47 0.31,-1.41 3.93,-0.99 1.83,0.21 2.62,-1.11 4.66,-0.45 0.37,1.06 0.18,5.74 0.17,7.57 -0.01,1.27 -0.29,1.27 -0.37,2.18 0.71,0.58 0.52,0.56 1.82,0.56 0.95,-0.01 1.91,0 2.85,-0.02 6.37,-0.1 4.84,0.49 4.82,-4.04 0,-1.22 0.17,-2.28 0.19,-3.49 0.07,-4.44 0.11,-6.69 -0.29,-10.92 -0.1,-1.12 0.08,-2.53 0.08,-3.72 0,-3.06 -0.51,-7.2 -0.46,-10.93 0.01,-1.17 0.55,-2.38 0.35,-3.17 -0.84,-3.38 -0.9,-20.11 -0.67,-22 -1.75,-1.39 -2.8,-0.51 -5.76,-0.3 -1.04,0.07 -1.46,-0.24 -2.41,0.08 -1.01,0.34 -1.15,0.34 -2.4,0.33l-9.85 0.8c-2.3,0.3 -2.45,-0.3 -4.24,1.01 -1.1,0.8 -0.69,2.29 -0.72,4.69 -0.03,1.85 0.4,2.68 0.29,4.82 -0.37,6.9 0.2,14.35 0.29,21.18 0.01,0.87 -0.14,1.56 -0.11,2.4 0.02,0.91 0.23,1.63 0.22,2.62l-0.12 10.26c0.32,3.6 0.02,7.1 -0.03,10.49zm17.33 -129.81c-5.01,7.63 -11.06,16.37 -11.19,16.79 -0.38,1.18 -0.08,1.48 -0.81,2.29 -0.62,0.7 -0.93,0.66 -1.4,1.44l-2.52 3.36c-0.89,0.95 -0.38,1.16 -1.1,1.98 -0.96,1.07 -3.19,3.76 -3.77,4.92 -0.82,1.64 -1.38,2.22 -2.23,3.68 -0.8,1.36 -1.69,2.63 -3.46,2.54 -0.08,-2.43 1.43,-2.17 2.24,-3.49 0.72,-1.19 -0.44,-0.6 1.99,-3.71 1.29,-1.63 4.99,-7.77 5.7,-8.51 2.83,-2.93 1.14,-1.59 2.29,-3.41 0.51,-0.81 7.31,-10.95 12.61,-18.94 -5.87,-3.73 -12.06,-6.99 -18.52,-9.73l-0.65 0c-0.34,1.38 -14.69,23.47 -15.35,24.66 -0.54,0.97 -0.69,1.17 -1.36,1.95l-2.64 3.74c-0.48,1.47 -1.32,1.53 -2.03,2.77l-1.82 3.15c-0.51,0.81 -2.63,3.25 -3.68,5.03 -1.43,2.4 -3.55,4.74 -4.91,7.16 -0.21,0.36 -0.35,0.78 -0.56,1.18 -0.46,0.82 -1.12,0.89 -1.11,2.26 0.97,1.55 1.36,0.08 2.52,2.37 1.11,2.19 4.36,6.89 5.05,8.5 0.21,0.51 0.11,0.59 0.3,1.03 0.22,0.54 0.67,0.81 1,1.39l1.72 3.09c0.36,0.73 0.36,1.44 0.62,2.05 0.3,0.71 0.81,0.57 1.23,1.12 0.36,0.49 0.33,1.19 0.66,1.74 0.76,1.25 2.03,1.5 0.86,3.05l-0.84 0.01c-1.78,-1.76 -5.3,-9.49 -5.69,-10.04 -1.33,-1.88 -3.14,-5.42 -3.68,-6.6 -0.38,-0.83 -0.83,-2.5 -1.79,-2.84 -1.22,-0.42 -1.05,0.7 -0.62,1.53 0.2,0.37 0.53,0.82 0.85,1.34 0.63,1.02 0.65,2.09 1.23,2.9 0.61,0.85 1.21,1.48 1.68,2.49l1.4 2.97c0.29,0.44 0.58,0.74 0.81,1.15 0.34,0.57 0.36,0.92 0.65,1.54 0.35,0.73 1.12,1.96 1.59,2.78 0.57,1.01 0.71,1.97 1.33,2.81 1.18,1.58 0.93,1.76 1.68,2.68l1.73 0.01c0.02,-0.96 1.71,-0.81 2.76,-2.9 1.44,-2.89 2.38,-1.4 3.86,-5.22 0.38,-0.98 0.69,-1.21 1.13,-2.04 1.54,-2.88 3.8,-3.56 2.08,-6.42 -0.5,-0.83 -0.61,-1.5 -1.03,-2.24 -0.42,-0.75 -0.89,-1.16 -1.43,-1.85 -0.61,-0.78 -0.81,-1.4 -1.3,-2.2 -0.46,-0.75 -0.74,-1.68 -1.1,-2.15 -1.51,-1.98 -0.83,-1.57 -2.07,-2.75 -0.91,-0.86 -1.92,-1.94 -1.31,-3.38l1.03 -0.14c1.98,1.25 1.39,2.35 2.63,3.57 0.9,0.89 0.57,0.85 0.99,2.03 0.33,0.91 0.8,0.97 1.32,1.77l1.3 1.76c0.91,1.15 1.08,2.66 2.42,3.69 0.82,0.62 0.77,0.79 1.46,1.57 1.82,0.07 2.8,-0.29 4.74,-0.27 1.82,0.02 3.63,-0.01 5.46,0.01 1.87,0.02 2.81,-0.45 4.61,-0.64 3.08,-0.32 7.58,-0.09 10.22,-0.52 2.19,-0.36 3.27,-0.09 5.27,-0.25 0.86,-0.07 1.15,-0.38 2.18,-0.42 0.91,-0.04 1.73,0.1 2.66,0 0.82,-0.1 1.33,-0.33 2.39,-0.27 3.61,0.21 2.37,0.61 5.17,-3.28l2.67 -3.66c0.64,-0.87 1.11,-1.76 1.78,-2.6l9.13 -13.24c-8.27,-10.12 -18.07,-18.94 -29.03,-26.14z"/>
  <path id="gramado" class="fil1" d="M104.64 2.13l25.64 75.9 47.93 -67.8c-12.61,-5.39 -26.26,-8.8 -40.57,-9.87l-23.74 0.42c-3.13,0.34 -6.21,0.79 -9.26,1.35zm-34.79 11.81l27.36 74.25 -78.92 -26.15c12.33,-20.46 30.21,-37.19 51.56,-48.1z"/>
  <path id="arestas-2" class="fil2" d="M78.37 201.61c0.2,-0.67 0.15,-0.38 0.54,-0.78 1.31,-0.13 1.62,-0.06 2.01,1.04 -0.95,-0.06 -1.78,0.2 -2.55,-0.26zm5.33 -0.68l-1.55 0.1c-0.04,-1.01 -0.19,-1.26 0.71,-1.42 0.67,-0.12 1.58,0.07 1.96,0.23l-1.12 1.09zm25.8 -12.62l1.04 -0.02c1.02,0.25 0.32,7.06 0.14,7.2 -1.56,1.25 -2.65,-4.19 -1.18,-7.18zm-6.17 0.83c2.78,0.02 3.82,-0.41 3.73,1.76 -0.03,0.7 -0.16,1.22 -0.13,1.98 0.05,1.52 0.68,2.42 0.49,3.71 -0.66,0.51 -1.26,1.07 -2.32,1.24 -3.03,0.5 -1.91,-1.7 -1.94,-5.39 -0.01,-1.85 -0.67,-1.37 0.17,-3.3zm-3.84 -9.07c1.16,-0.08 1.27,0.22 1.9,0.72 0.11,1.17 0.54,7.1 0.16,7.86l-1.23 0.1 -1.23 -3.95c-0.06,-1.55 -0.1,-3.49 0.4,-4.73zm10.87 -1.94c0.48,0.94 0.86,6.55 0.59,7.91l-1.29 0.12c-0.55,-1.23 -0.52,-3.47 -0.94,-4.72 -0.49,-1.44 -0.1,-1.45 0.85,-2.69 0.45,-0.57 0.08,-0.43 0.79,-0.62zm-68.47 -17.44c1.75,-0.06 1.21,0.04 2.53,-0.52 0.6,-0.26 1.97,-0.01 3.02,-0.26 0.69,-0.17 1.28,-0.98 2.06,-1.17 0.79,-0.2 2.36,-0.04 3.41,-0.19 0.47,-1.49 2.42,-1.19 3.72,-1.22 0.26,-1.01 1.95,-1.87 2.02,0.58l0.04 11.37c0,1.83 -0.53,2.61 0.43,4.05 0.94,1.4 0.23,4.98 0.19,6.22 -0.03,0.9 0.28,1.42 0.19,2.17 -0.09,0.84 -0.44,0.66 -0.48,1.78l0.27 6.7c0.83,3.65 -0.54,5.67 -0.16,8.31 1.51,10.48 -3.6,8.4 -6.18,8.98 -0.71,0.17 -1.11,0.46 -1.82,0.54 -3.91,0.45 -0.14,1.09 -8.18,0.95 -0.11,-0.56 -0.21,-1.29 -0.13,-1.92 0.29,-2 1.78,-0.26 -1.1,-4.27 -0.78,-1.08 -0.48,-1.2 -0.03,-2.29l1.4 0c0.59,-0.09 1.18,-0.72 1.52,-1.23 3.12,-0.06 3.23,0.52 3.1,-1.63 -1.99,-0.14 -1.95,1.04 -3.41,0.8 -3.63,-0.6 -1.96,0.39 -3.97,0.25 -0.42,-1.05 0.02,-2.57 0.01,-4.07 -0.01,-1.69 -0.27,-2.81 -0.24,-4.37 0.03,-1.4 -0.07,-3.22 0.06,-4.55 0.18,-1.95 -0.28,-2.64 1.04,-3.52 -0.05,-0.73 -0.4,-5.09 -0.38,-5.15 0.87,-3.38 -0.22,-14.57 1.07,-16.34zm66.7 7.66c0.57,-0.47 0.85,-0.8 1.33,-1.26l1.1 0.02 0.08 7.2c0.02,1.03 -0.26,1.57 -0.3,2.17 -2.85,0.48 -2.08,-1.15 -2.27,-3.21 -0.15,-1.65 -0.02,-3.23 0.06,-4.92zm-6.92 2.81c0.11,1.64 -0.41,2.18 -0.26,4.02 0.14,1.81 0.01,2.53 -1.97,2.15 -0.35,-0.62 -0.62,-1.32 -0.4,-2.31 0.49,-2.25 -0.92,-4.17 0.7,-4.61 1.07,-0.29 1.43,0.33 1.93,0.75zm1.12 -1.44c1.03,-0.73 1.71,-0.83 3.2,-0.67 0.68,1.92 0.78,0.15 0.58,4.41 -0.22,4.6 -1.12,2.94 -1.37,4.12 0.2,2.45 1.47,0.59 1.48,4.17 0,1.91 0.03,3.88 0.08,5.78 -0.75,-0.02 -2.79,0.13 -3.28,-0.21 -0.81,-0.87 -0.53,-5.87 -0.44,-7.33 0.54,-0.5 0.35,-0.61 0.94,-0.66 0,-1.73 -0.39,-0.87 -0.77,-1.99 -0.23,-0.65 -0.1,-1.85 -0.13,-2.6 -0.06,-1.46 -0.39,-4.19 -0.29,-5.02zm-3.6 -10.71l1.12 -0.05c0.7,0.94 0.6,2.78 0.65,4.63 0.05,1.83 0.81,3.03 -0.08,4.5 -2.67,0.25 -2.04,-1.19 -2.04,-3.61 -0.01,-1.66 -0.35,-4.23 0.35,-5.47zm3.65 8.22l-0.08 -7.99c1.4,-0.89 3.34,-3.93 3.46,2.41 0.01,0.3 0.78,3.79 0.4,4.62 -1.05,1.07 -1.96,2.19 -3.78,0.96zm5.77 -9.55c1.02,-0.13 1.11,-0.15 2.09,0.13l-0.01 7.35c-0.83,0.45 -1.14,0.76 -2.2,0.29 -0.43,-1.84 0.15,-4.1 -0.27,-5.55 -0.37,-1.3 -0.22,-1.49 0.39,-2.22zm-12.01 2.29c-1.16,0.15 -2.3,0.21 -3.14,0.74 -1.49,0.92 -1.13,0.49 -3.16,0.84 -1.26,0.21 -1.87,0.65 -2.93,0.95 -1.25,0.35 -1.95,0.17 -2.89,0.89 0.18,0.46 0.93,0.8 1.46,0.91 0.72,0.15 2.75,-0.4 3.47,-0.88 0.04,-0.02 0.09,-0.06 0.12,-0.09 0.89,-0.6 1.38,-0.43 2.54,-0.27l-0.13 1.13c-0.01,0.05 -0.03,0.11 -0.05,0.16 -0.4,1.32 -0.22,2.78 -0.74,4.08l-0.43 0.7c2.14,-0.57 2.35,0.15 3.78,-1.38 0.08,-1.97 -0.8,-2.43 -0.61,-4.58 0.17,-1.87 3.29,-2.57 3.49,-0.64l0.01 3.48c-0.13,1.59 0.56,3.93 0.26,6.51 -0.07,0.64 -0.33,1.31 -0.38,2 -0.2,2.77 0.32,10.64 0.32,13.76l-0.08 7.01c0.02,0.49 0.03,0.97 0.4,1.34 0.25,0.24 -0.17,-0.02 0.44,0.26 1.9,-1.17 -0.22,-4.06 2.4,-6.29 1.89,0.57 0.74,3.76 1.02,7.12 0.07,0.82 0.09,2.49 -1.22,1.53 -0.9,-0.66 -0.13,-1.27 -2.33,-1.25 -0.61,1.36 -0.36,3.73 -0.37,5.58 0,1.41 0.65,4.47 -0.94,5.05 -0.82,0.3 -1.96,0.05 -2.79,0.37 -0.83,0.32 -2.29,1.1 -3.42,1.22 -0.48,0.05 -0.96,-0.06 -1.38,0.1 -0.6,0.24 -0.93,1.23 -2.12,0.47l-0.17 -0.28c-0.3,-1.17 -0.06,-2.68 -0.06,-3.88 0,-1.98 0.01,-2.61 0.68,-3.91 0.62,0.08 0.45,0.06 0.93,0.34l0.14 5.28c1.05,0.5 1.67,-0.01 2.12,-0.61 0.2,-1.18 0.02,-2.1 0.04,-3.28 0.02,-1.72 0.16,-1.51 -0.48,-2.74 -1.14,-2.2 0.21,-4.09 0,-5.93l-1 -0.31c-0.62,0.37 -1.1,0.86 -1.37,1.67 -0.36,1.06 0.18,2.04 -0.41,2.9 -0.46,0.69 -1.7,0.75 -2.3,0.17 -1.43,-1.4 0.85,-3.93 -4.93,-1.03 -1.58,0.79 -3.37,-0.17 -2.89,-1.81 0.39,-0.63 6.93,-2.08 7.9,-1.66 0.23,-0.39 0.31,-0.55 0.48,-0.87 -0.58,-1.24 -1.96,-0.6 -3.05,-0.79 -0.47,-0.09 -0.44,-0.15 -0.54,-0.2l-0.63 -2.09c-1.06,-0.13 -1.16,-0.19 -2.01,0.07 -0.12,2.12 0,2.16 -1.84,3.45 -1,0.7 -1.36,0.84 -2.92,0.73 -0.42,-0.53 -1.12,-1.66 -1.91,-1.82 -1.76,-0.37 -1.42,0.8 -1.59,2.1 -0.74,0.63 -1.39,0.79 -2,1.39l0.03 0.95c1.26,0.31 1.64,-0.3 2.67,-0.62 1.32,-0.41 1.76,-0.88 3.05,-0.92 0.46,1.34 0.47,1.85 0.47,3.43 0,2.07 0.9,1.05 0.45,3.1 -0.28,1.26 -0.03,2.6 -0.1,3.9 -0.04,0.8 -1.28,3.34 0.33,3.54 0.94,0.12 1.51,-0.09 1.58,-1.13 0.09,-1.38 -0.65,-5.66 0.2,-6.34 0.96,-0.76 2.05,-0.18 2.55,0.42 -0.11,1.36 -0.46,0.47 -0.79,1.59 -0.32,1.09 0.25,1.17 0.44,1.93 0.4,1.56 -1.09,1.96 1.04,3.29 1.36,0.44 1.67,-1.12 2.82,-0.99 1,0.1 0.8,0.59 0.7,1.61 -1.88,0.39 -1.09,1.35 -4.18,1.33 -2.78,-0.02 -1.61,0.04 -3.5,0.87 -0.44,0.2 -0.64,0.23 -1.11,0.38 -1.3,0.42 -0.78,0.37 -2.38,0.5 -1.48,0.12 -0.54,0.57 -2.17,0.74 -2.25,0.23 -2.86,0.96 -4.48,-0.33 -0.1,-0.99 0.34,-1.63 0.35,-2.61l0.14 -9.61c0.06,-1.27 -0.26,-1.91 -0.28,-3.06l0.08 -16.17c-0.01,-1.4 -0.2,-5.48 -0.02,-6.55 0.76,-4.64 -2.73,-4.19 0.37,-7.33 0.25,-0.25 0.61,-0.48 1.04,-0.58 2.23,-0.54 1.87,1.34 1.69,2.89 -0.12,1.14 -0.61,1.12 -0.13,2.31 1.52,0.44 2.64,0.07 3.16,-1.05 0.56,-1.22 -0.25,-1.92 -0.6,-3.21 -0.47,-1.74 0.12,-1.99 1.38,-2.58 1.82,-0.85 4.22,-1.01 3.89,0.22 -0.28,1.06 -1.24,1.88 -0.28,4.3 1.22,0.5 5.08,-0.46 6.34,-1.16 0.91,-0.5 2.47,-0.27 3.32,-0.96 0.4,-0.31 0.52,-0.52 0.94,-0.83l-0.15 -3.12c-0.77,-0.42 -0.61,-0.57 -2.01,-0.57l-1.08 1.96c-0.42,0.98 -0.21,1.63 -0.76,2.55 -0.74,0.1 -1.25,-0.02 -1.88,0.13 -0.53,0.13 -0.85,0.41 -1.63,0.45 -0.3,-2.51 0.45,-1.5 -0.73,-3.58 -0.03,-0.05 -0.08,-0.1 -0.1,-0.15 -0.02,-0.05 -0.05,-0.11 -0.06,-0.17 -0.38,-1.65 2.06,-0.54 3.15,-1.44l0.08 -1.07c-1.85,-0.25 -2.62,0.14 -4.06,0.61 -1.52,0.5 -2.31,0.65 -3.99,1.02 -1.4,0.31 -2.22,0.96 -3.79,1.25 -2.17,0.4 -2.25,1.62 -3.76,0.65 0.04,-1.3 2.52,-2.86 3.77,-3.3 1.28,-0.44 2.95,-0.33 4.27,-0.74 0.65,-0.21 1.08,-0.54 1.66,-0.74 1.4,-0.49 2.44,-0.61 3.88,-1.16 1.22,-0.46 2.72,-0.3 4.02,-0.78 0.59,-0.22 1.06,-0.57 1.69,-0.73 0.6,-0.16 1.57,-0.25 2.23,-0.37 1.69,-0.31 2.02,-0.96 3.81,-1.22 2.5,-0.36 2.81,-1.99 4.53,-0.54l-0.89 2.08zm2.13 -11.48c2.03,-0.11 1.83,0.7 1.81,3.54 -0.01,1.68 0.08,3.58 -0.06,5.22l-1.56 0.06c-0.41,-1.25 -0.29,-7.21 -0.19,-8.82zm-39 6.6c1.25,-0.94 2.16,0.43 2.66,1.2 0.99,1.53 1.61,1.66 1.69,3.18l-1.38 0.04c-1.09,-2.32 -0.49,-0.96 -2.47,-2.99 -0.51,-0.52 -0.67,-0.55 -0.5,-1.43zm8.23 7.81c-0.67,-0.77 -0.65,-0.87 -0.58,-2.15 1.35,-1.46 1.43,-0.18 3.11,-1.43 1.04,-0.78 2.61,-0.47 3.97,-0.81 1.34,-0.33 1.93,-0.93 3.37,-1.23 2.17,-0.46 9.67,-2.54 10.88,-3.33 1.2,-0.79 2.95,-0.05 4.31,-0.49 1.39,-0.46 0.96,-1.72 3.46,-1.11 0.56,2.2 -0.2,2.29 -1.37,3.24 -1.4,1.14 -5.09,0.55 -7.71,2.11 -1.34,0.79 -0.65,0.01 -3.93,1.08 -1.32,0.42 -4.51,1.11 -5.57,1.63 -0.75,0.37 -0.98,0.65 -1.72,0.94 -1.66,0.67 -1.75,-0.07 -3.73,1.09 -0.63,0.38 -0.89,0.37 -1.83,0.4 -0.91,0.04 -1.73,0.11 -2.66,0.06zm-26.7 -5.41c-0.08,-1.59 0.81,-1.53 2.99,-2.55 1.48,-0.7 2.45,0.3 4.76,-1.15 0.98,-0.62 1.04,-0.33 2.38,-0.39 1.4,-0.07 1.16,-0.37 1.91,-0.97 1,-0.79 3.85,-0.53 5.07,0.03 0.21,2.05 -0.89,2.45 -2.99,2.68 -2.61,0.28 -2.12,1.14 -4.65,1.22 -2.65,0.08 -6.75,2.56 -9.47,1.13zm-2.32 -2.4l-0.01 1.46c-1.69,1.06 -5.98,-1.69 -7.11,-2.22 -0.9,-0.44 -1.61,-0.66 -2.31,-1.12 -0.12,-1.63 0.22,-1.79 1.76,-1.41 2.33,0.58 1.08,0.14 2.56,1.18l5.11 2.11zm62.97 -7.8c0.84,-0.45 1.29,-0.45 2.55,-0.36 -0.02,0.35 0,0.15 0.28,0.61 1.71,2.85 0.13,4.06 1.09,8.13l-0.6 0.4c-0.29,0.18 -0.17,0.18 -0.57,0.26 -1.97,0.39 -2.88,-0.35 -2.58,-2.53 0.33,-2.37 -0.5,-3.8 -0.17,-6.51zm-97.76 0.11c1.53,-0.69 5.74,1.67 7.33,1.8l0.15 -1.11c1.11,0.48 -0.41,0.32 2.04,1.66 1.37,0.74 0.45,0.72 2.57,1.39 3.35,1.05 4.89,1.12 4.56,2.85 -3.09,0.06 -3.85,-1.42 -6.78,-1.99 -1.33,-0.26 -1.12,-0.17 -2.26,-0.75 -2.55,-1.31 -8.81,-1.46 -7.61,-3.85zm102.8 0.04c0.46,-0.4 0.59,-0.47 0.99,-0.9 0.48,-0.54 0.57,-0.7 1.11,-0.94l1.07 0.69c0.07,1.6 -0.27,3.98 0.21,5.35 0.27,0.76 0.42,1.43 0.35,2.37 -0.13,1.45 -0.76,0.99 -0.97,1.66l-1.09 0.07c-1.52,-1.19 -0.72,-2.01 -1.18,-3.8 -0.28,-1.11 -0.51,-3.38 -0.49,-4.5zm-71.51 -1.89c0.77,0.23 2.13,1.39 2.13,2.97 0,1.04 -0.05,1.42 0.27,2.39l0.5 1.43c0.08,1.33 -1.81,0.36 -2.59,0.06 -1.83,-0.69 -1.33,-0.91 -2.34,-1.19 -1.1,-0.3 -1.8,-0.27 -2.12,-1.42 -0.5,-1.76 0.53,-1.75 2.01,-1.52l0.78 1.84c0.64,-0.12 0.92,-0.17 1.05,-0.78 0.16,-0.77 -0.27,-0.84 -0.55,-1.26 -0.58,-0.86 -0.13,-2.2 0.86,-2.52zm77.04 -0.76l1.37 -0.18c0.6,0.6 1.13,0.73 1.19,1.95 0.14,2.67 -0.18,6.99 0.35,9.4 0.87,4.05 -0.01,8.32 0.67,11.39 0.01,0.06 0.04,0.22 0.05,0.28 0.16,1.6 -0.02,4.47 0.01,6.24 0.09,5.61 0.26,14.83 0.03,19.88 -0.22,0.04 0.2,-0.44 -0.41,0.33 -0.16,0.21 -0.63,1.06 -1.26,1.23 -0.5,0.13 -0.76,-0.01 -1.02,-0.31 -0.36,-0.41 -0.5,-6.04 0.07,-6.83l0.32 -0.32c0.65,-0.62 0.52,-0.11 0.74,-1.09 -1.15,-1.54 -1.24,0.22 -1.23,-4.37 0,-1.01 -0.02,-1.75 -0.11,-2.65 -0.12,-1.21 0.13,-1.52 0.2,-2.58l-0.28 -11.15c-0.25,-3.2 0.21,-7.91 -0.42,-10.9 -0.4,-1.87 -0.89,-8.97 -0.27,-10.32zm-73.55 -4.04c1.88,-0.32 1.55,1.21 1.91,2.54 0.32,1.16 0.91,2.28 1.25,3.55 0.21,0.76 0.55,1.22 0.66,1.73 0.15,0.75 -0.04,1.6 0.11,2.4 0.22,1.22 1.68,3 -1.36,2.62 -0.33,-0.52 -1.2,-2.03 -1.45,-2.66 -0.5,-1.28 0.02,-2.86 -0.29,-4.11 -0.14,-0.55 -0.64,-0.91 -0.9,-1.26 -0.48,-0.66 -0.24,-0.92 -0.44,-1.78 -0.43,-1.85 -0.7,-1.56 0.51,-3.03zm5.13 -0.34l1.12 -0.09c0.94,0.88 0.98,1.77 1.37,3.23l1.58 5.62c0.33,0.66 0.7,0.81 0.78,1.58 0.17,1.62 -1.51,1.9 -2.99,1.7 -0.9,-0.92 -0.59,-1.41 -0.79,-2.82 -0.25,-1.74 -1.01,-0.73 -1.02,-3.06 -0.02,-2.73 -1.88,-4.35 -0.05,-6.16zm6.23 -1.23c1.27,1.07 1.37,3.96 1.75,5.92 0.47,2.44 2.19,3.6 0.97,6.15 -2.37,0.21 -2.71,-3.16 -2.96,-3.79 -1.64,-4.2 -0.57,-1.94 -1.54,-5.66 -0.42,-1.58 0.26,-2.66 1.78,-2.62zm64.88 2.7l-2.49 0.06c-0.92,0.8 -1.2,1.16 -2.75,1.27 -0.78,0.05 -1.09,0.01 -1.76,0.25 -1.72,0.62 -1.26,1.26 -5.24,1.12 -2.29,-0.08 -1.67,0.01 -2.83,1.22 -0.5,0.05 -1.08,0.04 -1.54,0.12 -0.03,0 -2.96,1.09 -3.6,-0.44l-0.02 -1.1c1.88,-1.73 3.08,-1.27 6.15,-1.55 0.52,-0.8 1.39,-1.61 2.71,-1.65 1.95,-0.06 1.8,-0.77 3.71,-0.78 2.17,-0.02 2.05,-0.6 3.75,-0.96 1.7,-0.35 2.34,-0.55 4.47,-0.5 0.41,1.59 0.83,1.76 -0.56,2.94zm-56.04 7.86c-0.69,0.61 -0.29,0.44 -1.85,0.51 -2.85,-2.89 -0.75,-3.34 -2.47,-5.81 -0.93,-1.34 -0.29,-1.75 -0.79,-3.36 -0.89,-2.78 1.15,-3.75 2.31,-3.2 0.87,0.42 0.96,3.54 1.21,5.19 0.1,0.6 1.75,3.6 1.59,6.67zm-29.31 -3.88c1.99,0.35 1.66,-1.09 2.34,-2.34 0.34,-0.62 0.71,-0.77 0.95,-1.45 0.42,-1.17 0.08,-0.95 0.76,-1.82l1.99 -0.05c0.37,0.69 0.43,0.8 0.37,1.78 -0.33,0.05 -0.2,0.03 -0.56,0.43l-1.95 2.44c-0.45,0.63 -1.01,0.78 -1.56,1.3l-0.72 0.94c-0.03,0.05 -0.06,0.11 -0.08,0.15 -0.88,1.76 -0.57,0.81 -1.96,1.81 -0.58,0.42 -1.78,0.77 -1.93,0.9 -0.72,0.6 0.5,3.01 -2.96,2.92 -1.49,-2.78 0.94,-3.35 1.04,-6.52 0.04,-1.6 0.07,-1.43 0.81,-2.3 0.71,-0.83 0.17,-1.19 0.72,-2.12 0.59,-1 0.55,-0.4 1.1,-1.93 0.55,-1.55 1.92,-2.14 4,-1.95 0.12,2.01 0.12,1.6 -0.74,2.94 -0.31,0.5 -0.21,0.16 -0.4,0.93 -0.21,0.84 -0.13,1.38 -0.59,2.06 -0.48,0.72 -0.8,0.59 -0.63,1.88zm77.24 -11.99l1.18 -0.05c0.41,0.99 0.16,1.04 0.78,2.37 0,0 0.77,1 0.02,1.67 -0.38,0.34 -1.18,0.24 -1.74,-0.05l-0.57 -0.33c-0.11,-1.54 -0.09,-2.56 0.33,-3.61zm4.9 2.27c1.44,-0.02 1.78,0.36 1.39,1.54 -0.98,-0.17 -0.79,-0.03 -1.36,-0.56l-0.03 -0.98zm-95.66 13.4c-2.6,0.13 -2.56,-1.94 -2.25,-2.48 0.5,-0.84 0.81,-0.27 0.92,-1.8 0.08,-1.17 0,-1.35 0.56,-2.22 1.09,-1.72 0.54,-2.41 1.28,-3.95 0.27,-0.56 0.63,-0.95 0.84,-1.78 0.28,-1.09 0.06,-1.43 0.92,-1.96 1.19,-0.64 2.4,-0.13 3.01,0.58 0.16,1.91 -0.77,1.23 -1.03,3.64 -0.16,1.48 -1.02,1.51 -1.42,3.32 -0.46,2.08 -1.19,3.39 -2.02,5.23l-0.81 1.42zm70.21 -17.9c0.68,-0.29 1.1,-0.38 2.07,-0.26 0.02,0.03 0.05,0.05 0.06,0.09l0.24 0.31c0.28,0.39 0.15,0.18 0.33,0.56 1.65,3.44 0.6,4.12 0.9,4.83l1.14 1.16c0.08,1.03 0.11,2.16 0.15,3.22 0.12,2.84 -2.82,1.42 1.58,5.58 0.57,0.54 2.02,2.79 0.91,3.89 -2.15,2.12 -3.57,0.16 -6.62,1.97 -0.95,0.56 -1.05,0.51 -2.4,0.7 -3.63,0.51 -2.61,1.2 -4.21,1.33 -3.13,0.24 -2.4,0.71 -4.7,1.31 -1.89,0.48 -2.88,1.15 -4.31,1.34 -0.96,0.13 -1.91,0.02 -2.52,0.33 -1.17,0.59 -0.77,0.92 -2.46,0.5 -0.43,-0.53 -0.53,-0.98 -0.99,-1.53 -0.62,-0.72 -1.75,-1.41 -2.43,-3.06 -0.3,-0.72 -0.17,-0.76 -0.66,-1.3 -1.31,-1.43 0.31,-2.08 0.48,-2.98 -0.07,-1.36 -0.79,-1.54 -0.99,-3.5 -0.23,-2.22 -1.13,-1.32 -1.29,-3.05 -0.24,-2.55 -2.48,-5.9 -0.58,-6.65 0.41,-0.03 0.5,-0.1 0.91,0.02l0.8 0.47c1.01,0.86 0.1,1.83 1.19,3.61 0.98,1.61 0.06,2 1.16,3.65 0.98,1.45 -0.57,2.21 1.91,5.21l1.88 -0.05c0.37,-1.68 -1.25,-4.86 -1.74,-7.02 -0.91,-4.03 -2.53,-4.9 -1.02,-6.91l2.15 0.06c0.4,0.81 0.26,2.5 0.58,3.23 0.64,1.45 0.49,1.46 0.81,3.07l1.65 6.24c0.61,1.01 2.05,0.43 2.87,-0.4 -0.26,-1 -0.58,-1.72 -0.84,-2.96 -0.25,-1.24 -0.78,-2.07 -1.04,-3.14 -0.27,-1.11 -0.2,-2.2 -0.55,-3.36 -0.46,-1.57 -1.21,-1.33 -0.51,-3.09 4.24,-0.79 2.85,6.68 5.15,11.12 0.9,1.73 3.21,0.32 2.82,-1.27l-2.23 -7.61c-0.6,-1.57 -1.21,-2.2 -0.05,-3.53 1.18,-0.09 1.45,0.08 2.08,0.61 0.29,1.27 0.18,2.14 0.67,3.29 0.75,1.76 1.04,8.49 4.16,7.58 0.45,-2.53 -0.25,-4.19 -0.87,-6.12 -0.31,-0.96 -0.39,-1.85 -0.53,-2.89 -0.18,-1.27 -0.39,-2.54 1.05,-2.59 1.43,-0.05 1.36,1.81 2.2,4.8 0.23,0.84 0.48,1.86 0.77,2.75 0.33,1 0.27,2.24 0.69,2.91 2.14,0.32 2.05,0.08 2.04,-1.91 0,-1.51 0.07,-2.45 -0.54,-3.68 -0.75,-1.48 -0.72,-0.96 -0.83,-3.09 -0.08,-1.64 -0.61,-2.35 -0.49,-3.79zm5.21 -0.26c0.7,-0.58 0.7,-0.86 2,-0.61 0.38,0.82 1.82,4.26 1.9,4.9 0.18,1.31 -0.31,1.67 0.31,2.86 0.6,1.17 0.85,1.43 0.7,3.01 -0.81,0.26 -2.06,1 -2.77,-0.1 -0.24,-0.39 -0.48,-3.66 -0.76,-5.13 -0.05,-0.27 -1.37,-2.86 -1.38,-4.93zm11.35 -0.42c0.43,0.56 0.54,0.65 0.83,1.57 0.51,1.63 1.2,4.88 1.05,6.42 -2.6,0.9 -2.12,-0.94 -2.26,-3.11l-0.93 -0.76c-0.05,-1.33 0.38,-1.39 0.02,-2.45 -0.51,-1.46 -0.32,-1.69 1.29,-1.67zm-6.01 -1.2l2.01 0.07c0.52,1.54 0.75,4 1.02,5.62 0.74,4.36 1.28,4.65 -0.71,4.59 -1.22,-2.25 0.46,-0.73 -1.56,-4.76 -0.19,-0.36 -0.81,-4.88 -0.76,-5.52zm14.17 -3.07c-0.98,-1.92 -2.89,-7.75 -3.49,-9.61 -0.4,-1.22 -0.87,-1.61 -1.28,-3.1 -0.46,-1.65 -1.02,-1.76 -1.02,-3.03l0.77 -0.62c1.32,0.51 1.94,3.1 2.38,4.39 1.55,4.5 2.03,3.58 2.31,4.11 0.35,0.69 -0.63,1.4 0.93,3.36 0.99,1.24 0.27,2.08 0.71,3.2 0.29,0.74 0.84,0.92 1.02,1.57 0.26,0.99 -0.01,1.15 0.5,2.16 0.33,0.67 0.62,1.04 0.83,1.78 0.18,0.65 0.3,1.51 0.51,2.12 0.13,0.4 0.33,0.63 0.41,0.98 0.22,0.93 -0.02,0.72 -0.25,0.99 -1.72,1.59 -2.34,-2.49 -2.83,-3.25 -1.8,-2.77 -0.29,-2.66 -1.5,-5.05zm-17.5 -14.85c1.7,-1.76 8.2,-2.87 10.45,-4.88 0.71,-0.62 0.77,-0.5 1.78,-0.25l0.09 1.7 -2.68 2.01c-3.02,0.37 -2,0.23 -4.25,1.15 -1.29,0.53 -2.49,0.16 -3.78,1.35 0.05,1.41 0.74,2.68 1.42,3.6 1.66,2.26 0.55,1.33 1.22,3.81 1.41,5.27 3.24,4.47 2.42,7.14 -1.16,0.01 -1.86,0.31 -2.61,-2.44 -0.4,-1.5 -0.65,-1.39 -1.41,-2.27 -0.43,-2.95 0.5,-1.94 -1.4,-3.93 -0.15,-2.35 0.03,-1.75 -0.81,-3.5 -0.39,-0.83 -0.62,-2.45 -0.44,-3.49zm-85.95 -27.88l0.13 0.01c0.5,0.4 1.01,1.16 1.83,1.28 1.7,0.24 1.4,-0.21 2.87,0.68 1.74,1.05 2.19,0.09 4.41,1.56 1.07,0.71 1.57,0.03 3.05,1.05 0.82,0.56 1.28,0.79 2.48,0.92 1.5,0.17 1.48,0.64 2.46,0.87l2.78 0.77c0.56,-0.03 1.54,-1.27 3.13,0.14 3,2.65 4.21,1.78 5.79,2.48 0.51,0.23 0.96,0.62 1.45,0.73 0.66,0.16 1.2,0.08 1.87,0.3 1.49,0.48 0.72,1 3.27,0.98 2.46,-0.02 1.5,0.77 2.81,1.27 1.36,0.51 1.58,-0.4 3.43,0.74l9.4 3.21c3.05,0.68 1.66,0.77 3.01,1.19l3.24 1.15c1.31,0.44 2.22,0.13 3.29,0.85 1.35,0.91 3.4,0.81 6.18,2.1 2.83,1.3 0.86,0.23 3.23,0.33 0.83,0.91 1.27,1.81 3,2.19 1.45,0.32 2.05,1.02 3.91,1.32 2.52,0.4 2.06,0.2 3.96,1.28 1.19,0.68 2.48,1.24 3.34,2.01 0.1,2.06 0.16,1.99 0.77,3.68l1.86 4.7c0.43,0.81 0.16,0.17 0.34,0.78 0.09,0.31 0.1,0.5 0.18,0.92 0.36,1.92 1.28,1.05 1.25,3.61 -3.14,2.66 -2.39,1.25 -5.78,2.03 -0.92,0.21 -1.17,0.57 -2.11,0.76 -2.86,0.58 -1.73,-0.3 -4.19,1.29 -0.93,0.6 -3.72,0.04 -5.06,0.27 -0.98,0.17 -1.06,0.59 -2.19,0.62 -1.45,0.05 -5.85,0.68 -6.68,1.32 -0.4,0.31 0.01,0.68 -2.07,0.64 -5.53,-0.12 -3.08,0.6 -7.22,0.97 -1.34,0.12 -6.18,1.57 -8.93,1.86l-9.22 1.6c-2.87,0.53 0.74,0.47 -4.96,0.62 -1.86,0.05 -2.81,-0.8 -4.36,-1.19 -2.86,-0.71 -0.28,-0.66 -4.16,-1.31 -4.22,-0.71 -1.9,-1.27 -4.26,-0.98 0.04,1.23 -0.11,0.82 0.54,1.43 1.41,1.32 0.81,0.98 -0.16,4.18 -0.42,1.4 -1.05,1.45 -1.25,3.2 -0.36,3.04 -0.58,1.93 -1.11,3.19 -0.29,0.69 -0.15,1.3 -0.23,2.04 -0.03,0.29 -0.08,0.53 -0.21,0.8 -0.88,1.8 -4.94,0.38 -3.94,-2.64 0.41,-1.21 1.1,-0.42 1.75,-3.28 0.24,-1.07 0.38,-0.87 0.68,-1.7 0.24,-0.66 0.12,-1.36 0.49,-1.92 0.43,-0.64 0.94,-0.41 1.57,-1.06 -0.22,-1.11 -0.9,-1.14 -0.56,-2.56 0.25,-1.08 0.98,-0.69 1.08,-2.25 -0.95,-1.03 -2.28,-0.71 -3.55,-1.11 -1.2,-0.38 -2.03,-1.28 -3.67,-0.98 -0.35,1.95 0.14,2.03 -0.74,3.84 -0.6,1.25 -0.74,2.78 -1.15,3.62 -0.32,0.67 -0.53,0.69 -0.77,1.44 -0.19,0.62 -0.26,1.34 -0.54,1.85 -0.41,0.75 -0.73,0.6 -0.84,1.61 -0.14,1.24 0.28,1.01 -0.5,1.88 -0.06,0.03 -0.14,0.01 -0.18,0.08l-0.58 0.11c-0.75,0.02 -2.12,-0.18 -2.65,-0.54 -0.19,-1.51 0.4,-0.87 0.84,-1.78 0.23,-0.46 0.16,-1.57 0.45,-2.36 0.84,-2.31 0.9,-1.21 1.11,-4.41 1.82,-1.43 1.23,-1.19 1.47,-3.98 0.81,-0.72 1.21,-0.74 0.91,-2.56 -0.72,-0.39 -3.02,-1.77 -3.17,0.02 0.26,1.13 0.67,0.68 0.67,2.18 -0.56,1.39 -0.71,1 -1.06,2.98 -0.24,1.38 -1.04,1.57 -1.22,2.92 -0.21,1.63 -0.15,1.72 -0.93,3.01 -0.88,1.47 0.2,1.93 -1.12,2.99 -1.57,0.11 -2.56,0.25 -3.5,-0.54 -0.05,-1.06 0.26,-2.03 -0.78,-2.06 -0.83,-0.03 -0.68,0.53 -1.46,0.83 0.39,3.12 0.89,6.2 1.5,9.25 0.14,-0.26 0.32,-0.54 0.55,-0.85 1.19,-1.62 5.54,0.67 7.67,0.99 1.74,0.25 3.4,1.87 5.25,1.2 1.15,-0.41 0.04,-0.63 1.62,-0.68 1.26,1.77 0.18,2.52 3.43,2.53 1.15,0.3 1.7,1.65 2.84,2.07 1.08,-0.77 0.95,-1.77 2.82,-1.45 0.75,0.47 0.32,5.29 0.24,5.61 -0.57,2.37 0.59,2.88 -0.49,5.42 -0.31,0.73 -0.22,2.03 -0.09,2.88 0.25,1.59 0.73,0.59 -0.1,2.41 -0.48,1.06 -0.49,21 -0.57,24.27 -0.02,0.91 -0.75,5.38 0.21,5.63 1.61,0.42 1.03,-3.87 1.06,-5.2 0.03,-1.6 0.65,-1.02 0.29,-2.49 -0.5,-2.04 0.37,-1.46 0.42,-2.75 0.05,-1.09 -0.84,-1.19 -0.72,-2.38 0.08,-0.81 0.75,-1.13 0.84,-2.42 0.09,-1.25 0.66,-4.9 0.5,-5.57 -0.84,-3.59 -0.18,-14 -0.17,-18.68 0,-1.16 -0.07,-1.98 0.2,-2.99 0.33,-1.25 0.03,-1.81 0.13,-3.05 0.68,-0.88 1.43,-1.66 2.6,-1.13 1,0.46 1.99,0.83 2.85,1.29 1.7,0.91 1.88,0.4 3.24,0.92 0.48,0.19 2.28,1.35 2.61,1.69 0.02,1.12 -0.44,1.49 -0.47,2.83 -0.03,1.15 0.12,2.35 0.14,3.5 0.03,1.16 -0.25,1.94 -0.23,3.05 0.08,5.6 -0.3,11.25 -0.26,16.83 0.03,3.56 -0.37,25.43 0.16,26.93 0.91,0.35 2.28,-0.06 3.18,0.54 0.9,0.59 1.63,-0.12 2.22,-0.31 0.52,-0.17 1.75,-0.21 2.34,-0.28 0.93,-0.11 3.35,-0.59 4.14,-0.88 1.53,-0.55 2.79,-0.3 4.18,-0.88 1.51,-0.62 3.67,-0.74 4.07,-1.15 0.6,-0.75 0.17,-0.88 0.47,-1.87 0.23,-0.72 0.66,-0.82 0.78,-1.6 0.17,-1.11 0.32,-10.93 0.01,-11.88 -0.42,-1.3 -0.69,-0.22 -0.65,-2.19 0.36,-0.23 0.35,-0.29 0.65,-0.32 0.33,-3.13 0.65,-20.31 0.38,-24.24 -0.09,-1.27 -0.22,-7.47 0.04,-8.31l1.42 -0.11c0.34,0.8 0.3,1.27 1.08,2.54 0.57,0.95 0.81,1.21 1.8,1.65l0.07 14.06c-0.16,5.52 -0.17,18.6 0.33,24.47 0.09,1.03 -0.28,2.2 -0.27,3.48 0.01,1.17 0.29,2.29 0.26,3.28 -0.04,1.12 -0.22,2.19 -0.23,3.49 0,1.24 0.11,2.29 0.14,3.5 0.04,1.54 -0.31,2.19 -0.27,3.42 1.22,0.01 1.75,-1.37 2.51,-2.15 0.72,-0.75 2.44,-0.79 3.61,-1.2 2.67,-0.95 6.14,-1.71 9.43,-2.84 0.63,-0.22 1.29,-0.28 1.96,-0.4 1.6,-0.29 2.39,-0.96 3.66,-1.13 1.4,-0.19 2.77,-0.39 3.94,-0.95 0.82,-0.41 9.08,-2.34 11.36,-3.21 2.06,-0.79 4.37,-2.44 6.38,-3.46l4.52 -2.68c0.54,-0.34 1.15,-0.53 1.76,-0.87 2.56,-1.46 0.54,2.21 4.91,-0.54 0.72,-0.45 0.76,-0.61 1.17,-1.42 3.17,0.02 2.9,-0.66 5.1,-1.67 0.88,-0.41 1.75,-0.59 2.58,-0.95 0.81,-0.36 5.46,-3.32 6.57,-3.68 5.63,-1.82 4.6,-1.78 5.55,-4.34 0.35,-0.97 0.83,-1.16 0.79,-2.27 -0.06,-2.26 -2.39,-6.55 -2.9,-8.98 -0.47,-2.29 -2.12,-6.42 -2.84,-8.96l-1.62 -4.29c-0.49,-0.78 -0.65,-0.74 -0.75,-1.99 -0.17,-2.06 -0.77,-1.85 -1.1,-4.83 -0.16,-1.42 -0.15,-1.37 -0.85,-2.25 -1.52,-0.1 -2.44,0.18 -3.54,0.16 -1.11,-0.02 -2.13,-0.55 -3.29,0.07 -1.21,0.65 -0.7,1.06 -2.61,1.03 -3.31,-0.05 -4.6,1.14 -4.38,-3.19 0.04,-0.75 0.25,-1.05 0.26,-1.74 0.02,-1.26 -0.8,-6.99 -0.08,-10.09l1.04 -7.06c-0.25,-0.83 -1,-1.79 -1.33,-2.83 -0.4,-1.25 -0.94,-1.75 -1.28,-2.87 -0.76,-2.48 -1.55,-3.73 -2.28,-5.81 -0.34,-0.97 -0.39,-2.15 -0.83,-3.3 -0.46,-1.21 -0.74,-1.74 -1.37,-2.81 -0.69,-1.16 -0.5,-1.92 -0.93,-3.19 -0.34,-1 -0.9,-1.95 -1.28,-2.9 -0.47,-1.14 -0.62,-1.8 -1.01,-3.12 -1.16,-3.93 -2.31,-1.96 -4.86,-1.15 -2.43,0.77 -4.09,1.98 -6.57,2.6 -1.76,0.44 -2.08,0.49 -3.22,1.51 -1.2,0.55 -5.53,-1.18 -6.87,-1.72 -0.7,-0.29 -1.18,-0.73 -2.16,-0.83 -2.56,-0.25 -2.16,-0.77 -4.27,-1.46 -0.96,-0.31 -0.14,0.06 -0.89,-0.46 -0.34,-0.24 -0.5,-0.39 -0.94,-0.57 -1.97,-0.82 -2.93,-0.55 -4.56,-1.28 -0.9,-0.4 -1.39,-0.24 -2.19,-0.72 -2.08,-1.24 -2.44,0.09 -4.46,-1.44 -0.94,-0.71 -3.14,-0.81 -4.49,-1.16 -1.66,-0.44 -0.88,-0.38 -1.85,-1 -0.76,-0.49 -1.45,0.06 -2.57,-0.5 -0.77,-0.39 -1.05,-0.85 -1.8,-1.01 -1.5,-0.3 -0.92,0.16 -2.3,-0.59 -0.77,-0.42 -1.22,-0.24 -2,-0.85 -1.47,-1.16 -2.37,-0.42 -4.26,-1.63 -0.03,-0.02 -5.47,-1.64 -6.41,-2.32 -1.84,-1.33 -2.68,0.27 -4.34,-1.35 -1.29,-1.26 -2.99,-0.47 -4.56,-1.32 -2.01,-1.09 -2.57,-0.31 -4.33,-1.57 -0.83,-0.6 -1.4,-0.26 -2.43,-0.42 -1.1,-0.17 -1.24,-0.67 -1.85,-1.17 -1.21,-0.21 -2.48,0.15 -3.24,-0.51 -1.39,-1.22 -1.1,-0.53 -2.64,-1.07 -1.18,-0.42 -1.08,-1.05 -2.61,-1.14 -4.53,-0.27 -1.89,0.36 -4.4,-1.05 -0.83,-0.46 -0.82,-0.12 -1.69,-0.33 -0.47,-0.11 -0.66,-0.34 -0.87,-0.58 -0.21,0.55 -0.43,1.11 -0.63,1.66zm83.31 65.88c0.48,-1 -1.46,-4.42 -4.83,-3.52 -1.05,0.28 -2.25,0.78 -3.53,1.01 -2.2,0.4 -1.72,0.63 -3.21,1.16l-4.04 1.21c-0.06,0.02 -0.11,0.04 -0.17,0.05l-1.17 0.07c-3.04,0.08 -2.13,1.01 -3.34,1.23 -0.6,0.11 -1.48,-0.04 -2.17,0.04 -0.96,0.1 -2.83,0.48 -3.28,1.14 -1.04,1.55 0.62,2.53 1.11,3.06 1.1,1.18 1.88,0.69 3.64,0.37 3.55,-0.62 1.95,-0.55 3.62,-0.95 3.16,-0.76 2.18,-0.94 3.08,-1.23 1.32,-0.41 2.42,0.05 4.05,-0.65 2.83,-1.23 3.85,-0.8 7.09,-1.84 1.17,-0.38 2.63,-0.07 3.15,-1.15zm1.2 27.24c-1.38,0.57 -1.47,2 -3.72,0.89 -0.56,-3.14 1.1,-3.41 -0.27,-4.86 -0.87,-0.02 -1.85,-0.24 -2.3,0.76 -0.15,1.67 0.54,4.23 -0.55,5.24 -0.49,0.44 -1.5,0.57 -2.21,0.65 -1.12,0.13 -1.52,-0.16 -2.17,-0.61 -0.25,-2.43 1.19,-1.1 1.03,-3.31 -0.71,-0.56 -3.06,-1.89 -3.73,-0.57 -0.48,2.46 0.45,3.95 0.32,5.57 -0.89,0.22 -2.32,0.18 -3.02,0.53 -1.32,0.68 -1.62,0.65 -2.63,-0.26 -0.34,-0.66 1.24,-2.76 -0.69,-4.23 -1.06,0.18 -1.94,1.81 -1.95,2.66 -0.02,2.42 0.53,0.95 -0.42,3.13 -0.67,1.53 1.94,0.98 4.77,0.58 4.39,-0.61 0.39,-1.11 8.09,-1.14 1.75,0 1.42,-0.89 2.66,-1.2 0.67,-0.16 1.34,0 1.89,-0.1 0.83,-0.14 0.75,-0.59 1.3,-0.86 0.07,-0.04 5.63,-0.46 6.07,-1.81 0,-0.01 0.44,0.03 -0.03,-1.27 -0.71,-1.94 0.79,-2.9 -0.01,-4.21 -0.34,-0.56 -1.31,-0.5 -1.88,-0.54 -1.46,2.4 -0.23,2.13 -0.55,4.96zm-75.37 14.56c0.36,0.08 0.83,0.25 1.45,0.59 0.88,0.49 1.9,0.59 2.5,1 0.76,0.52 1.06,1.82 1.92,0.52 -0.23,-0.87 -0.05,-0.48 -0.82,-0.94 -0.64,-0.39 -0.4,-0.27 -0.94,-0.79 -0.76,-0.71 -1.48,-0.82 -1.73,-2 -0.46,-2.19 0.41,-1.93 0.78,-2.89 0.39,-1 0.06,-2.58 -0.41,-3.15 -1.15,-0.25 -1.47,-0.13 -1.7,0.57 -1.09,3.18 -0.36,2.51 -0.09,3.81 0.18,0.88 -0.22,1.39 -0.36,1.9 -0.51,0.06 -0.94,0.1 -1.32,0.09 0.24,0.43 0.47,0.86 0.72,1.29zm-3.78 -7.1c0.04,-0.13 0.08,-0.28 0.14,-0.45 0.58,-1.57 -0.19,-3.1 -1.63,-2.68 0.48,1.05 0.98,2.1 1.49,3.13zm-12.43 -56.43c0.71,0.22 0.92,0.57 1.41,0.98 0.15,1.03 0.24,1.25 -0.34,1.96 -0.37,0.44 -0.71,0.97 -1.07,1.28l0 4.55c1.93,-0.45 0.57,-1.63 1.69,-2.82 1.92,-2.02 -0.09,-3.85 2.68,-3.97 0.96,-0.05 1.17,0.07 2.01,0.3l-0.05 1.98c-1,0.65 -0.8,1.06 -1.23,2.28 -0.54,1.49 -0.41,-0.25 -1.13,2.62 -0.21,0.82 -3.04,4.64 -0.48,4.57 0.98,-1.13 1.58,-2.64 1.96,-4.05l1.85 -4.06c0.8,-1.02 0.8,-1.72 0.65,-3.11 -0.56,-0.43 -1.65,-1.2 -1.62,-1.88 -5.25,-0.98 -4.21,-2.19 -6.33,-2.34l0 1.71zm11.68 36.59c0.79,1.76 1.92,1.68 2.98,2.15 0.56,0.24 0.78,0.54 1.21,0.75 1.36,0.68 1.4,-0.42 2.69,0.8 0.81,0.77 1.16,0.9 2.57,0.6 0.04,-1.16 -0.44,-1.1 -0.36,-2.32 0.08,-1.25 0.56,-0.84 0.2,-2.47 -0.35,-1.66 1.18,-4.14 -1.49,-3.8 -1.22,1.85 -0.79,3.52 -0.73,4.74 0.02,0.34 0.04,0.64 -0.08,0.96 -0.78,2.06 -4.32,-1.21 -4.41,-1.42 -0.2,-2.16 0.33,-4.58 -0.3,-6.52l-1.35 -0.09c-0.91,1.76 -0.36,2.96 -0.48,5.1 -0.06,1.21 -0.23,0.79 -0.45,1.52zm79.88 19.87l-0.14 1.39c-0.78,0.34 -3.5,0.76 -3.74,-0.53 -0.13,-0.68 0.7,-4.03 -2.22,-2.36l0.01 4c-0.72,0.49 -1.25,0.76 -1.3,1.59 0.85,0.33 1.44,0.18 2.55,0.15 0.28,-0.37 0.29,-0.34 0.53,-0.63 1.66,-0.08 1.99,0.19 3.24,-0.51 1.14,-0.64 2.13,-0.23 3.65,-0.31 1.84,-2.23 0.52,-1.8 -0.13,-3.25 -0.35,-0.76 -0.49,-1.8 -0.74,-2.68 -1.6,-0.42 -3.7,1.02 -2.12,2.64 0.32,0.33 0.2,0.22 0.41,0.5zm-82.59 -7.66c0.35,0.06 0.63,0.21 1.17,0.6 0.93,0.67 1.32,0.89 2.55,0.53 0.23,-0.66 0.17,-1.34 0.24,-2.16 0.09,-1 0.45,-1.1 0.67,-2.01 -0.18,-0.72 -0.35,-0.66 -0.43,-1.33 -0.08,-0.73 0.08,-0.8 -0.14,-1.65 -2.18,-0.43 -1.81,4.08 -1.93,4.71 -0.61,0.28 -1.4,0.53 -2.17,0.31 -0.17,-0.09 -0.34,-0.2 -0.49,-0.31 0.17,0.43 0.35,0.87 0.53,1.31zm-1.97 -5.05c0.39,-1.48 0.91,-3.09 -0.22,-3.61 -0.44,-0.05 -0.77,-0.05 -1.02,0.01 0.4,1.2 0.81,2.41 1.24,3.6zm2.28 -43.52c0.08,-1.77 2.79,-10.54 3.34,-11.69 0.61,-1.29 0.34,-1.95 0.66,-3.04 0.21,-0.69 0.4,-0.09 1.23,-2.54 0.37,-1.09 1.68,-5 1.68,-6 -2.04,-0.02 -1.14,0.98 -1.86,2.33 -1.03,1.95 -0.59,1.79 -1.66,4.42 -0.62,1.51 -0.08,1.54 -1.6,4.96 -0.61,1.34 -0.25,1.91 -0.98,3.18l-2.22 6.04c-0.41,1.27 -0.14,2.45 1.41,2.34zm7.94 49.9c-0.98,0.57 -1.68,0.24 -2.5,0.72 0.58,1.4 1.98,0.53 3.24,1.19 0.79,0.42 1.7,1.67 2.91,1.5 -0.01,-1.98 -0.62,-1.38 -1.39,-2.54 -0.07,-1.79 0.54,-5.34 -0.35,-6.69 -2.52,-0.49 -1.53,3.73 -1.91,5.82zm-11.33 -21.92c-0.17,1.75 0.62,1.11 -0.15,2.75 -0.38,0.84 0.23,1.49 0.16,2.91 -0.76,0.16 -1.44,0.52 -1.55,1.41 0.76,0.98 1.46,0.31 2.87,0.55 1.31,0.23 0.99,0.97 2.73,0.86 -0.35,-0.56 -0.69,-0.62 -1.11,-1.32 -1.7,-2.85 -0.48,-6.11 -0.89,-6.99l-0.72 -0.73 -1.34 0.56zm45.31 34.15c-0.66,-0.35 -1.31,-0.37 -2.2,-0.31 -1.21,1.49 -0.56,2.61 -0.42,4.68 0.09,1.3 0.15,1.18 0.77,1.99 0.51,0.66 0.63,0.86 1.14,1.43 0.84,0.06 1.71,0.24 1.62,-0.76 -0.04,-0.49 -0.57,-0.92 -1.16,-1.57l0.25 -5.46zm-4.9 -15.91c1.12,-0.13 1.43,0.01 2.17,-0.54 0.63,-0.47 0.71,-0.63 1.75,-0.69 0.86,-0.05 3.86,0.37 3.39,-1.35 -0.35,-1.26 -7.51,0.4 -6.87,1.19l-3.77 0.42c-0.28,0.75 -0.38,0.77 -0.23,1.67 1.87,1.02 2.56,0.23 3.56,-0.7zm32.2 14.04c-0.7,0.66 -1.05,0.31 -1.84,0.77 -0.61,0.36 -0.95,0.93 -0.99,1.66 0.56,0.02 1.01,-0.02 1.36,-0.19l0.37 -0.24c1.36,-0.83 3.27,0.17 3.66,-1.06l0.27 -3.88c-0.42,-0.39 -2.02,-2.81 -2.91,-1.3 -0.71,1.21 1.07,2.78 0.08,4.24zm-46.11 -19.57c0.96,-0.96 1.58,-3.52 1.42,-5.24 -0.96,-0.92 -1.26,-1.19 -3,-0.8 -0.49,0.9 -0.51,2.43 -0.51,3.67 0.01,1.79 0.22,2.52 2.09,2.37zm38.15 20.84c-1.18,0.71 -1.73,1.12 -1.61,2.21 1.54,-0.69 3.6,-0.39 4.8,-1.05 -0.07,-0.7 -0.32,-1 -0.39,-1.64 -0.08,-0.71 0.05,-1.57 -0.01,-2.42 -0.47,-0.54 -1.64,-1.71 -2.42,-0.97 -0.63,0.6 -0.32,2.89 -0.37,3.87zm-39.96 12.48c-0.39,0.54 -0.57,0.85 -1,1.33 -0.37,0.41 -0.59,0.84 -0.41,1.57 0.38,1.51 0.43,-0.56 1.31,3 0.91,0.02 0.62,-0.12 1.44,-0.7 1.75,-1.25 1.14,-4.2 0.4,-5.25l-1.74 0.05zm39.96 6c2.93,0.39 3.78,-5.26 0.83,-6.12l-1.66 1.54c-0.17,2.08 -0.01,3.28 0.83,4.58zm-24.97 -38.05c0.26,-1.13 0.11,-3.03 0.13,-4.29 0.04,-1.84 -0.14,-2.12 -1.15,-3.04l-1.22 0.09c-0.15,0.97 -0.04,0.86 0.07,1.71 0.36,2.76 -0.76,5.45 0.72,5.72l1.45 -0.19zm9.48 9.9c0.56,-1.02 1.17,-0.34 1.18,-1.96 0.01,-1.37 -0.56,-1.47 -0.75,-2.19 -1.81,0 -1.63,-0.52 -2.31,3.55 -0.19,1.15 0.46,2.81 1,3.4 1.12,0.05 1.73,-0.22 1.97,-1.27 -0.47,-0.88 -0.76,-0.5 -1.09,-1.53zm-4.91 -2.95c-0.27,-0.24 -0.39,-0.43 -0.8,-0.46 -0.75,-0.06 -1.28,0.72 -1.37,1.28 -0.16,0.9 0.37,1.08 0.41,2.35 0.02,0.93 -0.05,1.8 0.01,2.76 3,1.95 2.33,-3.44 2.58,-5.19 -0.4,-0.3 -0.54,-0.48 -0.83,-0.74zm-6.46 7.27c1.82,-0.05 2.06,-1.91 2.08,-3.43 0.01,-0.74 0.24,-1.89 -0.32,-2.4 -0.6,-0.54 -1.19,-0.64 -1.9,-0.57 -0.85,1.33 -0.12,2.1 -0.66,3.66 -0.43,1.27 0.16,2.18 0.8,2.74zm-10.82 4.86c-0.98,-0.74 -2.52,-0.9 -2.75,0.65 -0.31,2.11 1.37,5.19 1.89,5.4 0.95,0.36 1,-0.51 1,-1.23 -0.02,-1.45 0.08,-3.46 -0.14,-4.82zm21.31 -28.08c-0.41,0.74 -1.21,2.15 -1.08,3.17 0.1,0.8 0.43,0.83 0.54,1.75 0.08,0.7 0.19,2.73 1.66,0.9 0.28,-0.35 0.55,-0.59 0.81,-0.87 0.08,-0.73 0.17,-2.8 -0.04,-3.45 -0.02,-0.05 -0.04,-0.1 -0.06,-0.15 -0.1,-0.23 -0.74,-1.34 -1.83,-1.35zm-23.63 14.91c-0.29,1.29 -0.03,1.3 0.08,2.46 0.11,1.11 -0.71,2.82 0.62,3.43 2.38,0.16 1.16,-0.67 1.61,-2.26 0.34,-1.21 0.42,-2.05 0.23,-3.47 -0.6,-0.42 -1.9,-0.65 -2.54,-0.16zm18.12 -7.16c2.09,0.14 1.22,-0.7 2.24,-0.86l0.06 -5.43c-2.35,-0.35 -2.33,-0.21 -2.32,1.94 0.01,2.03 -0.35,2.38 0.02,4.35zm-6.42 19.73c0.76,-0.17 1.26,-0.03 2.07,-0.3l5.73 -0.98 -0.05 -1.26c-1.01,-0.5 -3.44,0.08 -4.78,0.17 -1.65,0.12 -3.02,0.66 -2.97,2.37zm2.25 7.71c1.63,-1.8 1.12,-0.93 1.13,-3.63 0.01,-2.42 -1.94,-1.39 -2.71,-0.79 -0.02,0.43 -0.01,1.05 -0.08,1.45 -0.23,1.34 -1.06,1.01 0.64,3.01l1.02 -0.04zm47.56 0.59c-0.23,0.94 -0.22,2.66 -0.18,3.67 0.05,1.58 0.92,1.58 2.25,1.07 0.21,-1.04 0.11,-2.35 0.11,-3.49 -0.01,-2.24 -1.24,-1.98 -2.18,-1.25zm-35.83 -6.43c-2.54,-0.58 -2.36,-0.44 -2.32,2.22l0.08 2.29c1.32,0.2 0.9,0.47 2.16,-0.18l0.08 -4.33zm30.58 3.23c0.83,0.1 1.33,0.23 1.85,-0.67 0.03,-0.05 0.1,-0.2 0.12,-0.26 0.27,-0.95 -1.38,-4.4 -3.2,-2.04 0.19,1.25 0.43,-0.15 1.23,2.97zm-51.67 -19.65c1.6,-2.61 -1.93,-2.2 -2.56,-2.35 -0.53,-0.12 -1.19,-0.58 -1.73,-0.4 -0.5,0.16 -0.68,0.87 -0.28,1.3 0.44,0.47 1.19,0.24 1.75,0.29 1.55,0.13 1.16,1.31 2.82,1.16zm21.53 12.16l0.03 -1.21c-1.36,-0.06 -3.91,-0.11 -4.98,0.37 -0.02,0.88 0.25,0.83 0.61,1.54 2.49,-0.33 0.93,-0.45 2.09,-0.59 1.1,-0.12 1.11,0.33 2.25,-0.11zm35.34 5.2c0.99,0.68 1.15,0.99 2.47,0.92 0.13,-1.64 -0.28,-1.48 -0.65,-2.47l-1.82 0.07 0 1.48zm-60.99 -5.75l1.27 0.01 0.38 -0.48c0.27,-1.72 -0.67,-1.67 -2.24,-1.38 -0.33,1.11 -0.02,1.3 0.59,1.85z"/>
  <path id="arestas-1" class="fil2" d="M218.42 131.29l-1.42 0.04c-0.19,1.12 -0.04,1.72 -0.05,2.78 -0.01,1.1 -0.39,1.85 1.03,1.75 1.72,-0.13 0.53,-4.41 0.44,-4.57zm-0.87 14.28c1.08,-0.06 1.46,-0.68 2.02,-1.19 0.15,-1.63 -0.33,-2.56 -1.8,-2.66 -1.66,0.98 -1.53,2.84 -0.22,3.85zm-6.24 -10.66c0.53,0.46 1,0.74 1.95,0.59 0.25,-1.34 0.54,-2.96 -0.13,-4.14l-1.72 -0.17c-0.36,1.08 -0.24,2.5 -0.1,3.72zm-24.67 -2.69c-1.16,-0.29 -1.95,-0.65 -2.14,0.79 -0.1,0.7 -0.27,2.54 0.15,2.98 0.62,0.63 3.2,0.64 1.99,-3.77zm-14.51 16.97c0.51,-0.78 0.96,-1.94 0.89,-3.33 -2.6,-0.81 -3.23,0.47 -3.22,3.01 0.52,0.18 0.32,-0.23 0.43,0.47l1.9 -0.15zm-6.45 1.18c1.36,-3.48 1.55,-0.87 1.34,-3.36 -0.88,-0.71 -0.85,-1.46 -2.23,-1.23 -0.21,0.45 -0.16,1 -0.34,1.61 -0.16,0.54 -0.53,0.7 -0.54,1.36 -0.01,0.89 0.78,1.65 1.77,1.62zm25.58 -18.09c-0.09,2.1 -0.04,0.84 1.01,2.8 1.33,2.46 2.7,-2 2.14,-3.19 -0.42,-0.89 -1.58,-0.71 -2.08,-0.71 -0.29,0.34 -0.67,0.75 -1.07,1.1zm22.92 14.28c1.4,-3.16 -1.66,-5 -2.93,-2.6 -0.37,0.7 -0.57,1.66 -0.33,2.69 0.73,0.44 2.48,0.35 3.26,-0.09zm-12.79 -13.35c0.34,-2.16 -0.57,-1.87 -1.32,-2.79l-1.23 0.07c-0.55,0.55 0.38,0.11 -1.03,1.33 -0.02,0.6 -0.06,1.23 0.05,1.82 0.44,2.26 3.26,1.23 3.53,-0.43zm9.44 -38.18l-0.08 4.79c-0.08,1.11 -0.44,0.72 -0.43,2.19l2.77 0.11 -0.14 -7.08c-0.7,-0.42 -1.53,-0.55 -2.12,-0.01zm-15.82 9.24c0.9,-0.08 1.83,0.11 2.56,-0.4 1.53,-1.1 3.07,0.19 2.74,-1.6 -0.06,-0.29 -0.86,-1.23 -0.12,-2.59 0.17,-0.32 0.32,0.21 0.26,-1.83 -0.03,-0.74 -0.21,-1.5 -0.26,-2.03 -2.99,-0.18 -2.41,-0.12 -2.4,4.43 0,2.84 -0.57,2.46 -1.75,3.17l-1.03 0.85zm20.44 -2.15l4.33 -0.04c0.36,-1.52 -0.86,-1.05 -1.16,-1.84l-0.03 -5.18c-0.6,-0.6 -1.28,-1.12 -2.47,-0.85 -0.15,1.03 -0.15,3.42 -0.01,4.46 0.38,2.85 -0.77,1.41 -0.66,3.45zm-31.23 -2.53c0.01,5.69 -1.1,4.97 3.84,4.97 3.33,0.01 3.94,-0.12 6.2,-1.16 -0.01,-2.1 -1.32,-1.54 -0.77,-3.68 0.62,-2.4 -0.21,-2.39 -0.19,-3.86l-1.83 0.08c-0.4,1.08 -0.29,1.97 -0.21,3.22 0.1,1.49 0.62,1.35 0.61,2.61l-1.56 1.54c-1.09,0.11 -2.56,0.25 -3.47,-0.23 -0.28,-1.49 0.63,-5.31 -0.41,-6.44 -0.65,-0.69 -1.43,-1.12 -2.15,-0.16 -0.57,0.76 -0.06,1.91 -0.06,3.11zm-18.17 37.14c1.13,-1.37 1.25,-2.54 -0.51,-3.63l-0.86 0.24c-1.13,3.32 -0.69,1.3 -0.28,3.86 0.3,1.84 -0.31,3.18 -0.28,4.93 1.36,0.52 2.57,0.58 4.6,0.23 1.7,-0.3 2.81,0.14 4.57,0.12 -0.19,-0.92 -0.64,-4.32 -0.4,-4.95 0.61,-1.64 0.47,-4.33 -1.22,-3.69 -1.63,0.61 -0.91,4.47 -1.04,5.54 -0.21,1.71 -3.09,0.85 -3.13,0.82 -0.45,-0.24 -1.45,-2.64 -1.45,-3.47zm4.39 -14.99c-0.03,1.57 0.2,2.64 0.21,4.29 0,0.75 0.07,1.55 -0.19,2.09 -0.29,0.47 -0.58,0.94 -0.85,1.42 -0.99,0.1 -2.05,0.21 -2.79,-0.18 -0.9,-0.79 0.56,-2.38 0.64,-3.35 0.07,-0.83 -0.29,-1.09 -0.3,-3.07 -0.01,-1.5 -0.9,-1.45 -2.52,-0.73 -0.23,1.36 0.13,2.64 0.12,4.25 -0.02,2.94 -0.45,2.92 -0.36,4.21 1.52,0.13 2.65,0.46 3.99,0.48 1.52,0.03 3.13,-0.02 4.66,-0.02l-0.23 -2.26c1.46,-1.59 1.04,-1.2 0.38,-3.02 -0.35,-0.94 0.26,-1.54 0.33,-2.24 0.16,-1.72 -1.5,-2.78 -3.09,-1.87zm0.27 -24.21c-0.08,0.81 -0.13,2.14 -0.08,2.94 0.07,1.33 0.54,0.88 0.35,2.59l-1.32 0.61c-0.9,0.16 -2.44,0.21 -2.9,-0.8 -0.12,-1.52 1.68,-6.08 -0.99,-5.57 -0.65,0.13 -0.69,0.27 -0.87,0.77l-0.12 5.67c-1.17,1.18 -1.5,0.46 -2.4,1.31 0.1,1.72 2.68,0.94 3.64,0.49 2.37,-1.14 1.65,-0.35 4.34,-0.34 1.87,0 1.37,0.96 3.97,0.76l0.29 -1.61c-1.16,-0.78 -1.71,-1.19 -1.08,-2.26 0.52,-0.88 0.76,-0.97 0.45,-3.59 -0.18,-1.53 -2.2,-1.85 -3.28,-0.97zm-3.87 19.35c-0.23,-1.54 1.2,-7.41 -0.2,-7.95 -2.18,-0.85 -1.84,1.44 -1.82,2.89 0.06,4.86 0.41,4.13 -0.98,5.47 -0.47,0.46 -0.6,0.61 -0.57,1.52 1.39,0.76 3.44,0.48 4.89,0.32 1.51,-0.16 4.43,0.11 5.61,-0.19 0.07,-0.28 0.03,-8.03 -0.23,-8.73 -0.29,-0.81 -0.94,-1.28 -1.87,-1.29 -1.92,2.3 1.19,7.62 -1.56,7.99 -0.79,0.1 -2.44,0.01 -3.27,-0.03zm29.73 -96.98c-2.26,3.6 -11.97,17.69 -12.72,18.88 -1.15,1.82 0.54,0.48 -2.29,3.41 -0.71,0.74 -4.41,6.88 -5.7,8.51 -2.43,3.11 -1.27,2.52 -1.99,3.71 -0.81,1.32 -2.32,1.06 -2.24,3.49 1.77,0.09 2.66,-1.18 3.46,-2.54 0.85,-1.46 1.41,-2.04 2.23,-3.68 0.58,-1.16 2.81,-3.85 3.77,-4.92 0.72,-0.82 0.21,-1.03 1.1,-1.98l2.52 -3.36c0.47,-0.78 0.78,-0.74 1.4,-1.44 0.73,-0.81 0.43,-1.11 0.81,-2.29 0.19,-0.61 8.25,-11.55 11.13,-16.83 -0.49,-0.32 -0.98,-0.64 -1.48,-0.96zm2.97 106.01c0,0 0.17,0.61 -1.61,0.76 -0.8,0.08 -1.61,0.04 -2.41,-0.04 -0.61,-2.37 -0.44,-4.82 -0.63,-7.16 -4.58,-1.84 -2.41,4.15 -2.69,6.34 -3.59,2.47 -6.19,1.03 -4.66,-2.72 0.37,-0.9 1.28,-2.92 -0.22,-3.54 -0.42,-0.18 -0.48,-0.17 -1.01,-0.17 -1.57,0.01 -2.23,0.9 -1.26,2.48 0.37,0.6 0.35,1.23 0.35,2.2 -0.01,0.82 -0.01,1.46 -0.37,2.01 -0.38,0.6 -0.67,0.71 -0.6,1.48 0.03,0.34 -0.16,0.58 0.77,0.76l16.67 -0.28c0.07,-3.13 -0.59,0.67 -0.63,-4.85 0,-0.39 -0.03,-0.89 0.06,-1.27 0.04,-0.16 0.93,-1.63 -0.19,-3.23 -2.07,-0.32 -2.16,1.16 -2.15,2.97 0,0.77 -0.19,1.89 0.09,2.56 0.29,0.69 1.08,0.87 0.49,1.7zm-1.2 -18.89c-0.42,2.22 0.5,5.91 0.34,6.99 -0.57,0.36 -3.08,1.1 -3.69,0.51 -0.57,-0.5 -0.31,-1.37 -0.32,-2.91l-0.01 -3.3c-0.57,-0.45 0.13,-0.04 -0.62,-0.44 -0.52,-0.27 -0.11,-0.22 -0.95,-0.27 -0.81,-0.04 -1.35,0.14 -1.88,0.51l-0.03 1.31c0.21,0.15 0.5,0.36 0.64,0.62 0.17,0.34 0.08,-0.02 0.14,0.48 0.01,0.1 0,0.52 0,0.64 -0.01,0.87 0.02,1.76 -0.09,2.63 -1.39,1.11 -2.51,2.19 -4.33,0.44 -0.02,-0.59 0.01,-1.2 -0.02,-1.77 -0.04,-0.77 -0.2,-0.79 -0.25,-1.52 -0.09,-1.46 0.62,-1.48 0.43,-3.35 -1.6,-0.06 -1.02,-0.01 -2.96,1.14l-0.05 3.4c2.68,1.96 -1.45,2.57 -1.28,4.35l7.27 0.03c1.14,0.01 1.77,-0.22 3.06,-0.19 2.25,0.06 7.17,0.02 8.92,-1 0.04,-1.29 -0.59,-1.37 -1.39,-1.97 -0.17,-1.5 0.71,-6.11 -0.98,-6.84 -1.01,-0.07 -1.4,0.02 -1.95,0.51zm47.84 -28.26c-0.02,4.94 -0.05,9.23 -0.05,10.34 -0.01,4.82 0,9.61 0.04,14.42 0.01,1.24 0,2.48 -0.02,3.72 -0.02,1.72 0.75,8.15 0.05,9.65 -0.16,0.34 -0.55,0.76 -0.75,1.01 -0.68,0.86 -1.29,0.14 -1.51,-0.38l-0.54 -44.97c-0.76,-1.57 -1.55,-3.12 -2.37,-4.66 0.05,0.92 0.2,1.71 0.2,2.86 -0.02,6.63 -0.54,11.02 0.06,18.14 0.1,1.16 -0.19,2.12 -0.11,3.49 0.08,1.31 0.18,2.31 0.28,3.49 0.11,1.21 -0.17,2.52 -0.04,3.73 0.68,6.07 -0.07,3.34 -0.06,6.54 0.01,3.01 1.18,12.39 0.31,15.09 -0.41,1.27 -0.59,1.42 -2.36,1.22 -0.86,-0.97 -0.66,-14.96 -0.61,-16.74 0.16,-5.47 -0.35,-9.99 -0.34,-15.08 0,-0.59 0.03,-1.09 -0.13,-1.66 -0.45,-1.67 -0.26,-7.92 -0.26,-9.92 0,-1.06 -0.13,-2.29 0.15,-3.28l0.23 -1.52c0.01,-1.77 -0.61,-1.8 -0.39,-4.81 0.07,-0.95 0.68,-1.33 1.26,-1.86l0.3 -2.16 0.15 -0.02c-0.57,-1 -1.15,-2.01 -1.74,-3 -1.7,2.49 -3.3,5.23 -4.91,7.45 -2.53,3.49 -2.48,1.83 -2.39,5.49 -0.83,0.7 -1.8,0.7 -2.4,1.53 -0.58,0.81 -1.69,3.04 -1.68,4.15 0.02,1.83 2.38,3.32 -1.14,2.94 -0.35,-0.56 -0.2,-0.34 -0.36,-0.78 -0.33,-0.87 -0.43,-1.64 -2.1,-0.26 0.01,1.27 0.34,1.49 0.2,3.12l-1.32 1.1c-0.12,1.08 -0.12,1.91 -0.66,2.52 -0.96,0.75 -1.63,-0.61 -3.56,0.16 -1.9,0.76 -1.23,0.58 -3.56,0.62 -1.38,0.02 -2.58,0.2 -3.93,0.22 -3.17,0.04 -1.56,0.84 -3.36,0.48l0.01 -1.38c1.22,-1.11 0.66,-1.41 3.14,-1.42 1.78,-0.01 2.1,-0.66 3.48,-0.77 1.85,-0.14 2.25,0.02 3.89,-0.55 1.45,-0.51 1.97,0.13 3.55,-0.8l-0.28 -1.05c-1.34,-0.42 -2.19,0.28 -2.35,-1.3 -0.06,-0.56 -0.02,-1.4 -0.02,-1.98 0.01,-1.85 -0.63,-1.95 -2.47,-1.65 -0.14,1.67 0.63,2.29 0.3,4.49 -0.29,0.3 -2.11,1.4 -2.44,1.52 -0.93,0.32 -2.88,0.11 -3.88,-0.01 -1.11,-1.86 -0.62,-4.61 -1.08,-7.89 -0.31,-2.16 0.37,-1.99 -0.23,-4.26 -0.43,-1.63 0.12,-2.25 1.74,-2.14 1.41,0.6 0.58,3.65 0.84,5.58 0.42,3 -0.29,6.14 0.96,6.68 2.83,0.19 1.27,-2.19 1.24,-4.28 -0.01,-1.1 -0.08,-2.18 -0.1,-3.28 0,-0.41 -0.03,-1.16 0.03,-1.54 0.07,-0.45 0.18,-0.62 0.37,-1.01 0.01,-0.06 0.04,-0.08 0.05,-0.12 2.56,0.15 2,1.26 3.18,2.66 0.51,0.6 0.94,0.74 1.38,1.44 0.53,0.82 0.26,1.23 0.91,1.74 1.44,0.87 2.87,-0.13 3.98,-1.25 1.81,-1.83 -0.21,-0.77 2.68,-2.55 1.88,-1.16 1.12,-2.22 3.17,-4.72 2.76,-3.35 4.34,-6 6.6,-9.12l1.24 -1.86c-2.89,-4.63 -6.07,-9.07 -9.51,-13.28l-9.13 13.24c-0.67,0.84 -1.14,1.73 -1.78,2.6l-2.67 3.66c-2.8,3.89 -1.56,3.49 -5.17,3.28 -1.06,-0.06 -1.57,0.17 -2.39,0.27 -0.93,0.1 -1.75,-0.04 -2.66,0 -1.03,0.04 -1.32,0.35 -2.18,0.42 -2,0.16 -3.08,-0.11 -5.27,0.25 -2.64,0.43 -7.14,0.2 -10.22,0.52 -1.8,0.19 -2.74,0.66 -4.61,0.64 -1.83,-0.02 -3.64,0.01 -5.46,-0.01 -1.94,-0.02 -2.92,0.34 -4.74,0.27 -0.69,-0.78 -0.64,-0.95 -1.46,-1.57 -1.34,-1.03 -1.51,-2.54 -2.42,-3.69l-1.3 -1.76c-0.52,-0.8 -0.99,-0.86 -1.32,-1.77 -0.42,-1.18 -0.09,-1.14 -0.99,-2.03 -1.24,-1.22 -0.65,-2.32 -2.63,-3.57l-1.03 0.14c-0.61,1.44 0.4,2.52 1.31,3.38 1.24,1.18 0.56,0.77 2.07,2.75 0.36,0.47 0.64,1.4 1.1,2.15 0.49,0.8 0.69,1.42 1.3,2.2 0.54,0.69 1.01,1.1 1.43,1.85 0.42,0.74 0.53,1.41 1.03,2.24 1.72,2.86 -0.54,3.54 -2.08,6.42 -0.44,0.83 -0.75,1.06 -1.13,2.04 -1.48,3.82 -2.42,2.33 -3.86,5.22 -1.05,2.09 -2.74,1.94 -2.76,2.9l-1.73 -0.01c-0.75,-0.92 -0.5,-1.1 -1.68,-2.68 -0.62,-0.84 -0.76,-1.8 -1.33,-2.81 -0.47,-0.82 -1.24,-2.05 -1.59,-2.78 -0.29,-0.62 -0.31,-0.97 -0.65,-1.54 -0.23,-0.41 -0.52,-0.71 -0.81,-1.15l-1.4 -2.97c-0.47,-1.01 -1.07,-1.64 -1.68,-2.49 -0.58,-0.81 -0.6,-1.88 -1.23,-2.9 -0.32,-0.52 -0.65,-0.97 -0.85,-1.34 -0.43,-0.83 -0.6,-1.95 0.62,-1.53 0.96,0.34 1.41,2.01 1.79,2.84 0.54,1.18 2.35,4.72 3.68,6.6 0.39,0.55 3.91,8.28 5.69,10.04l0.84 -0.01c1.17,-1.55 -0.1,-1.8 -0.86,-3.05 -0.33,-0.55 -0.3,-1.25 -0.66,-1.74 -0.42,-0.55 -0.93,-0.41 -1.23,-1.12 -0.26,-0.61 -0.26,-1.32 -0.62,-2.05l-1.72 -3.09c-0.33,-0.58 -0.78,-0.85 -1,-1.39 -0.19,-0.44 -0.09,-0.52 -0.3,-1.03 -0.69,-1.61 -3.94,-6.31 -5.05,-8.5 -1.16,-2.29 -1.55,-0.82 -2.52,-2.37 -0.01,-1.37 0.65,-1.44 1.11,-2.26 0.21,-0.4 0.35,-0.82 0.56,-1.18 1.36,-2.42 3.48,-4.76 4.91,-7.16 1.05,-1.78 3.17,-4.22 3.68,-5.03l1.82 -3.15c0.71,-1.24 1.55,-1.3 2.03,-2.77l2.64 -3.74c0.67,-0.78 0.82,-0.98 1.36,-1.95 0.66,-1.19 1.86,-2.84 2.2,-4.22l-1.72 0c-0.35,1.03 -2.81,4.33 -3.56,5.56 -1.21,1.98 -2.52,3.27 -3.78,5.14l-2.91 4.14c-1.34,2.41 -0.77,1.11 -1.91,2.62 -0.38,0.52 -0.52,0.78 -0.87,1.34 -2.34,3.76 -3.3,4.21 -3.86,5.1 -0.95,1.5 -0.45,1.48 -1.81,2.78 -0.91,0.87 -1.3,1.46 -1.84,2.73 -0.66,1.52 -0.89,1.43 -1.4,1.91l1.24 1.99c0.12,0.19 0.22,0.37 0.31,0.56 0.65,0.38 0.66,1.05 0.55,1.85 0.06,0.64 -0.01,1.23 -0.2,1.76 0,0.18 0,0.35 0.02,0.54l0.17 16.16c0.02,5.1 -0.46,21.23 0.29,24.82 0.25,1.21 0.42,1.08 0.83,2.03 0.36,0.87 0.19,1.59 0.59,2.27 0.56,0.98 0.81,0.4 0.92,1.9 0.11,1.53 -0.01,1.12 0.73,2.17 0.59,0.83 0.41,1 0.59,2.25 0.14,0.97 0.63,1.28 0.98,1.84 0.57,0.91 -0.07,1.56 1.36,4.18 0.44,0.79 0.27,1.36 0.63,2.14 0.69,1.46 1.01,3.11 1.54,4.18 0.82,1.65 1.81,5.75 3.02,8.3 0.32,0.68 0.41,1.28 0.64,1.98l1.68 3.87c0.85,1.12 0.36,0.43 0.61,1.86l2.14 3.36c0.39,0.65 0.57,1.32 1.07,1.8 1.02,0.97 3.27,1.27 4.42,0.45 0.84,-0.6 0.73,-0.76 2.03,-0.84 1.83,-0.13 3.78,-0.04 5.62,-0.07 7.05,-0.12 14.39,-0.34 21.5,-0.91 1.03,-0.09 0.96,-0.44 2.37,-0.45 0.95,-0.01 1.9,0.03 2.85,0.02 1.85,-0.02 3.87,0.02 5.7,-0.09 1.67,-0.1 3.23,-0.97 4.46,-0.72 1.78,0.38 3.33,-0.28 5.12,-0.38 1.88,-0.1 3.82,-0.12 5.7,-0.12 1.09,-0.01 1.54,0.18 2.17,-0.53 0.56,-0.64 0.96,-0.89 1.05,-1.63 -3.27,-0.11 -1.64,0.87 -7.6,0.86 -1.51,0 -2.78,0.1 -4.14,0.17 -0.62,0.03 -1.59,0.06 -2.2,0.02 -2.71,-0.18 -0.84,-3.38 -0.5,-4.98 0.58,-2.78 0.09,-2.93 0.96,-4.44 1.88,-0.07 7.3,0.26 8.58,-0.18 0.34,-0.81 0.26,-0.98 0.08,-1.95 -1.75,-0.32 -1.5,0.22 -2.58,0.35 -0.74,0.09 -1.73,-0.3 -2.61,-0.35 -3.52,-0.2 -2.46,1.26 -4.78,1.21 -0.98,-2.28 0.06,-3.35 -0.38,-5.7 -0.21,-1.12 -0.27,-5.17 0.69,-5.75 1.04,-0.16 1.99,-0.11 3.01,-0.26 1.41,-0.22 1.85,0.2 3.22,0.16 1.18,-0.04 1.99,-0.38 3.29,-0.32 1.32,0.06 1.74,0.51 3.06,0.1l0.12 -1.19c-1.04,-0.23 -1.74,-0.21 -1.94,-1 -0.15,-0.63 0.07,-2.26 0.16,-2.92 -2.24,-1.52 0.36,-2.96 -0.66,-3.95 -0.92,-0.9 -2.37,-0.06 -2.45,2.26 -0.06,1.97 0.49,3.17 0.35,4.6 -1.17,0.8 -1.8,1.1 -3.56,0.55 -0.59,-1.26 0.11,-2.81 0.03,-4.7 -0.07,-1.71 0.1,-3.98 -2.39,-2.67 -0.92,2.08 0.96,5.85 -0.89,7.59 -1.33,0.12 -2.15,0.39 -2.26,-0.98 -0.18,-2.26 0.01,-4.72 0,-7 -0.01,-1.73 -0.16,-1.81 0.8,-2.74 1.72,-0.15 5.39,0.17 6.68,-0.2 2.49,-0.69 1.91,0.51 6.03,-0.52 -0.05,-1.31 -0.17,-0.63 -0.48,-1.53 -1.02,-0.11 -1.65,0.05 -2.4,-0.33 -0.54,-1.67 0.69,-1.89 0.26,-3.84 -0.28,-1.21 -0.42,-1.22 -0.06,-2.5 0.2,-0.69 0.02,-0.87 -0.1,-1.1 -3.51,-1.07 -2.47,2.57 -2.39,5.99 0.02,1.35 -0.01,1.75 -0.98,2.25 -3.8,-0.55 -0.99,-7.15 -2.82,-7.94 -0.77,-0.33 -1.33,0.2 -1.62,0.58 -0.59,0.77 -0.25,1.15 -0.05,1.98 0.29,1.17 0.23,3.81 0,5.31 -0.35,0.31 -1.1,0.43 -2.07,0.34 -1.17,-1.11 -0.78,-1.8 -0.78,-3.83 0.01,-1.61 -0.04,-3.21 -0.01,-4.82 0.02,-1.61 0.56,-2.24 0.1,-4.11 -0.32,-1.3 -0.21,-3.19 -0.22,-4.62 -0.05,-5.42 2.46,-3.53 3.97,-3.48 1.49,0.06 1.28,-0.83 2.94,-0.57 1.25,0.19 0.87,-0.19 1.71,-0.5 1,-0.37 3.72,-0.33 4.58,0.1 0.7,0.4 0.79,1.59 1.22,2.33 0.69,1.2 0.32,1.92 0.35,3.44l0.25 6.99c0.03,1.3 0.42,1.61 0.44,3.05 0.01,1.14 -0.25,2.51 0.1,3.56 0.27,0.84 0.11,-0.1 0.21,0.62 0.03,0.21 0.01,0.62 -0.01,0.84 -0.04,0.7 -0.11,1.26 -0.07,1.98 0.06,1.4 -0.04,2.38 -0.02,3.71 0.02,1.34 0.41,1.85 0.43,3.04l0 18.37c0,1.33 0.18,2.15 0.19,3.49 0,1.34 -0.28,2.22 -0.14,3.56 1.44,0.08 1.06,-0.06 1.6,-0.71 1.33,-1.57 0.46,0.43 3.21,-3.77 0.39,-0.6 0.45,-0.69 0.92,-1.27 0.58,-0.7 0.37,-0.97 0.68,-1.71 0.46,-1.06 1.37,-1.58 2.31,-2.28 0.49,-1.56 0.1,-1.09 1.06,-2.24 0.45,-0.54 1.14,-1.47 1.36,-1.84 -0.57,-1.31 -0.99,-0.52 -0.98,-2.62l-0.02 -41.95c0.01,-3.42 -0.56,-11.85 0.08,-14.73 0.85,-0.3 1.09,-0.29 2,-0.06 0.58,2.34 -0.09,7.56 0.18,10.4 0.14,1.55 0.61,2.72 0.24,4.76 -0.21,1.13 0.2,14.18 0.32,15.15 0.36,2.96 0,7.37 -0.01,10.48 -0.01,1.69 -0.26,3.24 -0.13,5.02l0.5 4.64c0.22,2.29 -1.38,2.26 -1.24,3.86 0.56,1.7 0.77,2.32 1.17,2.25l4.14 -5.5 11.48 -15.68c0.05,-0.57 0.33,-1.45 0.55,-1.97l0 -5.54c-0.56,-2.69 -1.21,-5.34 -1.94,-7.96l0 11.7c-0.02,2.54 0.83,5.71 -2.08,5.8 -1.12,-0.71 -0.85,-1.26 -0.85,-2.96 0,-5.97 -0.02,-11.94 0,-17.91 0.01,-1.16 -0.23,-2.61 -0.17,-3.47 0.04,-0.46 0.07,-1.36 0.1,-2.53 -0.67,-1.83 -1.38,-3.65 -2.13,-5.44zm-67.74 72.99c-1.98,0.28 -4.72,-0.92 -6.94,-0.08 -1.2,0.45 -2.37,0.11 -4,0.2 -0.92,0.06 -0.99,0.48 -1.74,0.58 -0.68,0.09 -1.65,-0.11 -2.39,-0.12 -2.1,-0.01 -2.69,1.11 -2.3,-4.68 0.21,-3.21 -0.41,-7.92 -0.38,-9.39 0.08,-3.6 -0.07,-21.84 -0.39,-23.77 -0.3,-1.81 -0.23,-7.41 -0.14,-9.44 0.27,-6.3 -1.55,-10.4 4.08,-10.4 0.82,0 1.31,0.35 2.2,0.24 2.32,-0.28 -1.69,-0.68 6.54,-0.72l3.73 -0.03c0.18,0 0.46,0 0.62,0.03 1.49,0.29 0.2,4.88 0.7,6.29 0.2,0.57 0.67,-0.05 0.96,2.26 0.17,1.39 -0.11,2.09 -0.19,3.19l0.26 13.38c0.49,5.2 0.16,2.36 0.16,6.73 0.01,2.25 -0.07,4.54 -0.04,6.78 0.02,1.15 0.2,1.87 0.21,3.05 0.02,1.38 -0.23,2 -0.23,3.28l0.1 10.28c-0.01,2.2 -0.24,1.25 -0.82,2.34zm2.34 -1.04c0.05,-3.39 0.35,-6.89 0.03,-10.49l0.12 -10.26c0.01,-0.99 -0.2,-1.71 -0.22,-2.62 -0.03,-0.84 0.12,-1.53 0.11,-2.4 -0.09,-6.83 -0.66,-14.28 -0.29,-21.18 0.11,-2.14 -0.32,-2.97 -0.29,-4.82 0.03,-2.4 -0.38,-3.89 0.72,-4.69 1.79,-1.31 1.94,-0.71 4.24,-1.01l9.85 -0.8c1.25,0.01 1.39,0.01 2.4,-0.33 0.95,-0.32 1.37,-0.01 2.41,-0.08 2.96,-0.21 4.01,-1.09 5.76,0.3 -0.23,1.89 -0.17,18.62 0.67,22 0.2,0.79 -0.34,2 -0.35,3.17 -0.05,3.73 0.46,7.87 0.46,10.93 0,1.19 -0.18,2.6 -0.08,3.72 0.4,4.23 0.36,6.48 0.29,10.92 -0.02,1.21 -0.19,2.27 -0.19,3.49 0.02,4.53 1.55,3.94 -4.82,4.04 -0.94,0.02 -1.9,0.01 -2.85,0.02 -1.3,0 -1.11,0.02 -1.82,-0.56 0.08,-0.91 0.36,-0.91 0.37,-2.18 0.01,-1.83 0.2,-6.51 -0.17,-7.57 -2.04,-0.66 -2.83,0.66 -4.66,0.45 -3.62,-0.42 -2.29,-0.48 -3.93,0.99 -0.26,9.07 0.91,5.79 0.93,7.87 0,0.26 -0.05,0.38 -0.11,0.6 -0.1,0.43 -0.58,0.53 -0.86,0.57l-1.98 -0.01c-2.66,0.03 -2.89,2.43 -5.74,-0.07zm-9.47 -61.26c1.32,-0.25 1.34,0.65 2.51,-0.15 0.6,-0.4 1.44,-0.48 2.14,-0.29 0.55,0.15 1.37,0.83 1.92,1.19 0.14,0.96 0.24,1 -0.08,1.75 -2.7,0.25 -6.42,-0.24 -9.17,0.1 -1.79,0.22 -6.73,0.77 -8.02,-0.54 -0.18,-2.26 1.41,-3.13 3.09,-2.05 0.45,0.28 0.35,0.4 0.98,0.5l5.72 -0.17c0.3,-0.07 0.55,-0.27 0.91,-0.34zm55.6 -3.1l0.83 0.77c0.48,1 -0.27,34.78 0.2,39.75 0.07,0.79 0.28,2.13 0.39,2.88 0.19,1.42 -0.37,1.51 -0.42,2.82 -0.15,3.58 1.44,2.71 1.42,5.25 0,0.01 -2.46,4.51 -3.04,4.86 -1.91,-0.9 -0.91,-4.52 -1.07,-6.61 -0.17,-2.38 -0.03,-5.21 -0.03,-7.64 0,-3.96 -0.52,-20.18 -0.25,-22.72 0.21,-1.98 -0.06,-5.21 -0.11,-7.43 -0.04,-2.25 0.42,-5.56 -0.35,-7.31 -0.83,-1.9 0.17,-1.29 0.34,-2.96 0.16,-1.59 0.36,-1.81 2.09,-1.66zm-28.37 1.23c0.59,0 1.42,0.08 1.97,0.01 0.1,-0.01 2.68,-0.99 4.52,0.42 -0.03,1.44 -0.21,2.19 -3.21,2.2 -4,0.02 -8.13,0.36 -11.8,0.65 -1.88,0.16 -4.09,0.15 -5.9,0.43 -0.94,0.15 -1.72,0.49 -2.83,0.33 -1.3,-0.19 -1.12,-0.83 -0.98,-2.08 1.1,-1.09 1.85,-0.42 3.59,-0.66 2,-0.26 0.04,-0.52 3.51,-0.15 1.81,0.19 1.82,-0.78 3.13,-1.03l8 -0.12zm31.31 -9.84c1.22,-1.36 2.33,-0.61 2.32,1.3l-0.09 22.3c0,0.02 0.27,31.71 0.02,32.29 -0.42,0.41 -0.56,0.67 -1.44,0.64 -1.12,-1.09 -0.72,-2.91 -0.72,-4.75l-0.02 -21.85c-0.04,-4.01 0.41,-16.8 -0.35,-21.21 -0.19,-1.09 0.3,-1.79 0.3,-2.81 0,-1.69 -0.21,-4.31 -0.02,-5.91zm-63.94 9.92c-0.11,-0.68 -0.11,-5.59 0.1,-6 0.37,-0.72 0.31,-0.17 0.72,-1.03 0.22,-0.47 0.27,-0.57 0.46,-1.07 0.4,-1.01 0.28,-1.33 1.59,-1.25l-0.04 5.55c0.01,1.71 -0.23,5.22 -2.83,3.8zm18.61 -8.83c0.01,-1.46 -0.27,-3.34 0.34,-4.49 2.87,-0.13 2.29,1.49 2.29,4.06l0.01 4.37c0.01,2.46 0.24,2.63 -0.44,3.67 -0.61,0.13 -1.96,0.4 -2.18,-0.43l-0.02 -7.18zm9.55 -5.45c1.19,-1.18 0.71,-0.97 1.95,-0.96 0.77,1.2 0.48,6.15 0.48,7.94 0,2.47 1.11,5.16 -0.58,5.98 -1.07,0.09 -1.53,0.01 -2.08,-0.58 -0.13,-1.32 0.01,-1.21 0.21,-2.13l0.02 -10.25zm4.61 -0.99c0.96,-0.8 1.81,-0.39 2.57,0.33 0.3,0.66 0.24,10.67 0.23,12.23 -1.38,1.2 -2.15,-0.44 -2.6,-0.94 -0.33,-0.38 -0.01,-0.08 -0.27,-0.15l0.07 -11.47zm-18.45 8.85c-0.01,-1.38 0,-2.77 0,-4.15 0,-2.93 0.01,-3.01 2.26,-2.94 1.12,1.84 0.31,6.65 0.3,7.52 -0.01,2.47 0.74,5.58 -2.49,5.33l-0.07 -5.76zm-5.14 5.68c-0.16,-2.56 0.14,-5.1 0.46,-7.49 0.16,-1.16 -0.4,-2.55 -0.15,-3.85 0.17,-0.9 1.03,-1.59 2.28,-1.38 0.68,0.43 0.74,8.9 0.7,9.67 -0.06,1.2 0.03,2.9 -0.81,3.79l-1.76 0.01 -0.72 -0.75zm-2.76 0.83c-2.73,0.27 -2.32,-0.2 -2.25,-2.81 0.03,-0.81 0.86,-5.69 0.7,-6.96 0,0 -0.92,-3.13 1.13,-3.48 3.08,-0.54 1.13,4.37 1.53,7.58 0.13,1.05 0.18,2.33 0.13,3.53 -0.05,1.15 -0.67,1.6 -1.24,2.14zm17.47 -1.34c-2.04,-1.97 0.47,-4.28 -0.44,-8.2 -0.33,-1.41 -1.1,-0.15 -0.59,-3.73 0.2,-1.36 1.36,-1.45 2.88,-1.4 0.48,1.99 0.4,4.56 0.32,6.85 -0.12,3.5 0.73,4.5 -0.73,6.48l-1.44 0zm16.98 -8.46c0.07,1.24 0.12,3.42 0.07,4.64 -0.12,3.24 -3.35,3.35 -3.41,0.62 -0.02,-0.84 0.14,-1.13 -0.11,-1.89 -0.49,-1.58 -0.61,-3.31 -0.27,-5.05 0.48,-2.46 -0.16,-0.93 -0.02,-3.11l0.75 -0.94c1.62,-0.13 2.51,0.15 2.55,1.8 0.09,4.18 0.34,2.3 0.44,3.93zm-62.42 -6.95c1.4,0.64 1.46,2.18 2.23,3.42 0.53,0.86 0.59,0.66 1,1.83 0.32,0.91 0.68,1 1.06,1.79 0.39,0.8 0.5,1.23 0.9,1.94 0.39,0.7 0.59,1.37 0.91,1.93 0.97,1.68 3.43,6.16 4.25,7.14 0.54,0.64 0.73,1.12 1.08,1.75 1.2,2.18 2.68,2.36 2.53,5.95 -0.08,1.81 0.03,3.84 0.04,5.68 0.05,9.27 0.13,18.45 0.77,27.71 0.13,1.79 -0.02,3.62 0.08,5.5 0.06,0.98 -0.01,1.92 0.03,2.85 0.05,0.91 0.32,1.21 0.35,2.38 0.04,1.68 0.17,4.2 -0.08,5.79 -1.01,0.48 -1.39,0.15 -1.64,-0.85 -0.39,-1.59 -0.19,-1.14 -1.14,-2.09 -0.12,-2.18 -0.51,-2.19 -1.01,-3.75 -0.2,-0.63 -0.24,-1.08 -0.48,-1.65 -0.35,-0.82 -0.5,-0.71 -1.15,-1.23 -0.11,-2.56 -0.38,-1.92 -1.03,-3.56 -0.71,-1.79 -0.28,-2.55 -2.41,-6.82 -0.07,-0.14 -1.34,-4.96 -2.29,-6.87l-3.64 -10.36c-0.8,-2.93 -0.33,-5.48 -0.52,-8.59 -0.05,-0.8 -0.24,-1.15 -0.25,-1.96 0,-0.9 0.24,-1.26 0.28,-2.17 0.2,-5.29 -0.36,-19.49 0.07,-23.18 -0.61,-0.68 -1.54,-1.48 0.06,-2.58z"/>
  <path id="ruas" class="fil3" d="M139 63.53c0.35,-0.49 1.03,-0.6 1.52,-0.25 0.49,0.35 0.6,1.03 0.25,1.52l-9.53 13.23c-0.35,0.48 -1.03,0.59 -1.52,0.24 -0.19,-0.14 -0.32,-0.32 -0.39,-0.53l-25.49 -75.45c0.72,-0.14 1.44,-0.28 2.16,-0.4l24.71 73.15 8.29 -11.51zm-70.31 -48.57c-0.05,-0.12 -0.07,-0.25 -0.07,-0.38 0.57,-0.29 1.14,-0.59 1.72,-0.88 0.18,0.12 0.32,0.3 0.4,0.52l26.96 73.27c0.2,0.56 -0.09,1.19 -0.66,1.39 -0.23,0.09 -0.48,0.09 -0.71,0.01l-78.55 -25.99c0.38,-0.65 0.76,-1.28 1.15,-1.92l75.95 25.14 -26.19 -71.16z"/>
 </g>
</svg>
