<?xml version="1.0" encoding="UTF-8"?>
<!DOCTYPE svg PUBLIC "-//W3C//DTD SVG 1.1//EN" "http://www.w3.org/Graphics/SVG/1.1/DTD/svg11.dtd">
<!-- Creator: CorelDRAW 2020 (64 Bit) -->
<svg xmlns="http://www.w3.org/2000/svg" xml:space="preserve" width="512px" height="512px" version="1.1" style="shape-rendering:geometricPrecision; text-rendering:geometricPrecision; image-rendering:optimizeQuality; fill-rule:evenodd; clip-rule:evenodd"
viewBox="0 0 512 512"
 xmlns:xlink="http://www.w3.org/1999/xlink"
 xmlns:xodm="http://www.corel.com/coreldraw/odm/2003">
 <defs>
  <style type="text/css">
   <![CDATA[
    .fil3 {fill:#42518B}
    .fil1 {fill:#575036}
    .fil0 {fill:#BDAE74}
    .fil2 {fill:#FFFAE8}
   ]]>
  </style>
 </defs>
 <g id="Camada_x0020_1">
  <metadata id="CorelCorpID_0Corel-Layer"/>
  <path class="fil0" d="M77.08 267.32c5.07,-0.94 17.88,-0.3 8.77,-21.74 -12.08,0.07 -9.03,-0.97 -8.77,21.74zm41.08 131.81c-0.25,1.98 -1.03,4.8 -1.63,6.87 -1.83,6.4 -0.36,7.09 -5.63,10.11 -4.54,2.6 -20.5,8.07 -26.8,4.29 -4.95,-2.97 -2.59,-21.72 2.23,-26.5 3.39,-3.36 16.29,-10.28 21.39,-7.69 -2.74,4.99 -11.97,5.68 -15.08,9.19 -1.72,1.94 -3.28,5.32 -3.73,8.83 -0.34,2.63 -0.14,8.25 1.97,9.78 5.48,2.53 14.57,-1.86 18.23,-4.55 6.89,-5.09 5.28,-10.04 5.95,-13.59 0.95,-5.01 -1.45,-1.79 2.07,-3.99l1.03 7.25zm50.03 -6.07c4.37,7.63 11.19,12.32 6.72,23.16 -8.05,19.48 -34.06,17.96 -43.25,-0.04 -6.12,-11.99 0.18,-27.2 -1.3,-30.5 -10.05,5.67 -2.06,24.36 -12.53,36.12 -7.27,8.17 -31.72,8.91 -41.25,3.73 -1.47,-9.85 -0.71,-31.34 6.75,-38.24 6.16,-5.7 9.46,-3.8 18.18,-4.53 4.67,-0.39 5.35,-1.29 9.89,-2.07 5.03,-0.86 6.1,-0.04 6.57,-5.13 -6.58,-3.15 -15.43,10.54 -33.29,-3.84 -8.45,-6.8 -10.13,-24.77 -2.96,-32.95 15.26,-17.43 38.97,-5.55 32.88,14.68 -1.76,5.85 -7.97,8.81 -15.28,7.37 1.94,-5.17 4.58,-2.96 5.87,-9.5 -2.59,-4.64 -4.09,-5.5 -11.25,-4.75 -7.46,8.79 -3.84,19.68 9.91,19.87 13.96,0.2 16.93,-8.23 26.51,-13.14 3.29,2.17 21.08,21.03 22.84,24.83 -25.24,16.01 -15.87,47.25 5.92,39.27 2.77,-6.99 2.37,-10.22 -1.87,-15.51 -8.62,0.86 -6.16,7.27 -11.3,9.47 -7.68,-11.56 4.61,-20.14 15.54,-21.98l0.01 -0.36c1.68,1.66 3.78,2.73 6.07,3.21l0.62 0.83zm222.82 -281.1c-0.96,-3.1 0.1,-8.84 0.79,-13.05 2.1,-12.62 19.56,-15.42 32.95,-13.23 1.24,10.06 1.14,19.88 -3.99,26.7 -2.52,3.36 -4.39,5 -9.17,6.32 -5.7,1.58 -9.15,3.44 -10.22,-2.01 7.67,-2.64 10.97,1.48 15.3,-7.19 11.81,-23.64 -18.83,-23.37 -21.91,-4.74 -1.39,8.41 -0.82,6.09 -3.75,7.2zm-29.67 -14.51c-1.47,3.61 -0.65,7.27 -4.39,8.93 -10.94,4.82 -13.79,-10.88 -4.03,-14.11 7.15,-0.09 11.47,4.17 14.95,8.82 1.24,29.6 -10.47,19.17 -12.47,34.12 2.23,1.79 2.65,1.48 5.26,3.82 17.67,15.92 10.02,21.15 23.79,10.45 8.24,-6.4 16.12,-9.84 24.53,-4.46 0.22,0.15 0.5,0.36 0.74,0.5 2.09,1.2 4.22,1.5 5.95,2.04l-0.15 12.62c-3.04,1.55 -4.36,3.86 -7.93,2.97 -2.59,-0.65 -5.44,-4.21 -6.42,-6.72 1.48,-6.68 4.54,-4.8 6.09,-10.93 -20.26,1.34 -16.78,20.29 -15.95,22.1 0.15,0.33 19.46,21.73 34.9,1.98 2.44,-3.11 4.89,-6.55 4.34,-12.51 -3.44,-37.13 -36.72,-24.13 -43.21,-24.21 2.22,-5.53 7.18,-6.65 17.31,-7.35 5.5,-0.37 6.68,-1.19 10.37,-1.77 0.41,-0.06 14.18,5.17 15,-21.43 0.14,-4.51 1.51,-12.22 0.65,-16.62 -2.68,-13.79 -34.14,-2.87 -38.02,0.97 -11.29,11.16 -2.71,31.93 -13.26,32.43 -3,-6.17 6.59,-24.88 -9.2,-35.25 -11.36,-7.47 -25.97,-7.11 -33.36,2.37 -24.11,30.93 30.14,43.88 26.39,16.07 -0.3,-2.27 0.15,-0.18 -0.47,-2.17 -0.87,-2.81 -0.12,-1.25 -1.41,-2.66zm-270.2 54.17c7.43,-10.09 21.18,-1.44 12.75,9.4l-7.26 0.37c-1.14,-1.6 -2,-2.54 -3.12,-4.26 -1.91,-2.96 -1.45,-3.78 -2.37,-5.51zm21.23 -36.09c-20.44,9.81 -32.14,-22.71 -25.31,-32.54 1.74,-2.51 34.13,-6.9 32.67,25.29 -7.63,-5.8 -1.16,-15.34 -16.47,-19.85 -6.48,-1.92 -6.86,-0.49 -7.41,-0.37 -6.16,1.32 -1.82,17.99 0.69,20.36 3.42,3.23 11.38,3.69 13.37,4.72 3.21,1.66 1.28,-0.91 2.46,2.39zm19.53 0.49c-20.09,-3.88 12.94,-39.2 -38.86,-38.3 -3.73,0.06 -8.83,-0.14 -10.74,1.93 -4.78,7.07 -1.65,30.98 3.45,37.17 6.76,8.22 17.6,1.92 28.03,4.56 4.88,1.23 5.65,1.5 6.63,5.14 -4.93,3.92 -18.86,-5.9 -34.22,9.82 -16.96,17.35 -1.64,42.16 12.79,41.64 4.66,-0.16 13.63,-5.31 15.82,-8.21 3.22,-4.28 4.41,-13.73 1.42,-19.63 -3.87,-7.63 -11.59,-6.73 -13.29,-10.55 8.68,-8.14 25.39,11.19 29.84,13.8 5.38,-3.09 7.44,-6.89 11.72,-10.52 4.46,-3.78 9.34,-4.67 11.43,-10.5 -1.61,-6.01 -8.47,-10.18 -11.67,-17.53 -10.2,-23.47 20.99,-34.94 21.16,-17.31 0.06,5.03 -2.2,7.26 -7.3,6.85 -6.92,-0.56 -2.68,-3.41 -8.5,-6.8 -5.26,9.43 8.74,22.54 21.94,15.87 10.7,-5.41 13.35,-19.58 4.88,-29.52 -6.63,-7.79 -22.9,-8.71 -33.18,-2.44 -11.58,7.05 -11.37,22.14 -11.35,34.53zm265.79 275c5.77,-3.13 16.99,5.64 19.76,8.87 5.77,6.74 7.04,15.45 4.19,24.95 -7.04,1.8 -18.52,0.27 -23.59,-3.17 -5.15,-3.48 -7.97,-11.39 -9.17,-19.82 5.7,2.35 12.54,20.8 25.51,18.24 6.22,-21.35 -12.15,-25.41 -16.7,-29.07zm11.57 -27.93c-1.31,-5.48 -1.67,-1.65 -5.03,-5.38 -6.32,-7 4.68,-15.76 10.63,-8.2 7.68,9.77 -4.34,20.29 -16.25,19.22 -19.45,-1.75 -18.05,-16.24 -25.89,-11.03 -3.08,2.05 -6.59,7.36 -9.36,10.07 -3.94,3.87 -5.69,3.63 -9.95,8.81 1.98,7.52 21.75,19.74 12.28,34.38 -13.69,21.16 -28.97,-6.7 -11.57,-9.04 5.59,3.18 1.76,4.5 7.22,7.39 5,-5.92 -4.29,-23.39 -20.48,-13.55 -8.57,5.2 -12.75,22.09 -2.36,30.14 8.27,6.42 34.71,10.44 40.67,-18.41 1.78,-8.65 -4.58,-9.26 -0.99,-17.83 4.4,0.73 3.02,-0.57 4.81,4.9 3.26,9.97 -0.53,15.55 3.32,23.2 7.98,15.85 24.78,12.89 40.37,12.2 1.16,-2.11 2.74,-6.8 2.94,-10.23 0.08,-1.31 -2.76,-21.99 -8.06,-27.57 -10,-10.53 -33.19,-1.97 -34.04,-15.74 16.23,1.23 13.77,7.34 29.79,-0.41 21.94,-10.61 13.15,-43.07 -5.41,-44.04 -14.46,-0.76 -16.43,5.56 -20.85,15.32 -4.74,-1.6 0.1,-1.53 -5.34,-1.7 -0.89,1.66 -10.03,11.62 4.87,15.29l-2.31 -9.34c3.09,1.7 7.94,14.57 20.99,11.55zm-169.42 61.93c-4.29,-2.72 -3.97,-4.97 -1.94,-10.64 6.57,-1.26 43.5,-2.96 29.61,8.95 -4.44,-1.83 -0.47,0.58 -3.61,-4.43 -26.75,-3.38 -18.45,1.3 -24.06,6.12zm-9.34 -5.13c2.97,17.17 36.28,10.96 39.22,9.4 2.93,-1.56 23.1,-20.12 -16.66,-20.28 -9.34,-0.03 -24.27,1.04 -22.56,10.88zm9.34 -327.33c-13.63,-13.61 38.71,-20.76 31.83,0.35 -8.32,-1.46 0.04,-1.02 -6.91,-5.91 -2.62,-1.84 -5.68,-2.14 -9.3,-1.95 -13.97,0.74 -8.11,7.02 -15.62,7.51zm12.02 6.85l1.21 0c15.59,0.01 25.31,2.18 26.47,-14.35 -5.06,-4.24 -6.02,-7.03 -14.42,-7.74 -6.57,-0.56 -17.23,-1.04 -22.72,1.09 -14.38,5.61 -12.91,20.99 9.46,21zm169.63 176.05c-3.69,-1.24 -3.86,-1.64 -5.62,-4.52 4.64,-2.97 7.31,-1.8 8.82,-8.98 1.06,-5 0.58,-12.56 -0.75,-16.51 -6.76,-2.02 -3.39,2.5 -8.28,0 3.02,-8.56 9.53,-4.37 13.94,-0.98 0.99,14.25 2.84,25.91 -8.11,30.99zm-10.68 -17.98c0.02,7.61 -0.87,17.07 4.83,21.56 6.48,5.12 12.15,-1.53 14.86,-5.33 1.6,-2.25 8.26,-28.2 -7.8,-40.42 -11.25,1.8 -11.91,12.36 -11.89,24.19zm-331.36 -16.97l8.01 -1.54c8.08,10.76 8.18,24.15 2.61,29.96 -3.94,4.11 -5.01,0.26 -9.49,4.19 0.01,0.01 0.7,3.65 7.62,3.38 10.49,-0.42 9.97,-14.34 9.71,-22.64 -0.19,-5.74 -1.91,-13.68 -5.27,-16.41 -5.15,-4.17 -10.95,-3.85 -13.19,3.06z"/>
  <path class="fil1" d="M230.5 419.89c-1.71,-9.84 13.22,-10.91 22.56,-10.88 39.76,0.16 19.59,18.72 16.66,20.28 -2.94,1.56 -36.25,7.77 -39.22,-9.4zm-136.99 -262.76c1.12,1.72 1.98,2.66 3.12,4.26l7.26 -0.37c8.43,-10.84 -5.32,-19.49 -12.75,-9.4 0.92,1.73 0.46,2.55 2.37,5.51zm146.33 267.89c5.61,-4.82 -2.69,-9.5 24.06,-6.12 3.14,5.01 -0.83,2.6 3.61,4.43 13.89,-11.91 -23.04,-10.21 -29.61,-8.95 -2.03,5.67 -2.35,7.92 1.94,10.64zm0 -332.46c7.51,-0.49 1.65,-6.77 15.62,-7.51 3.62,-0.19 6.68,0.11 9.3,1.95 6.95,4.89 -1.41,4.45 6.91,5.91 6.88,-21.11 -45.46,-13.96 -31.83,-0.35zm175.82 152.89c4.89,2.5 1.52,-2.02 8.28,0 1.33,3.95 1.81,11.51 0.75,16.51 -1.51,7.18 -4.18,6.01 -8.82,8.98 1.76,2.88 1.93,3.28 5.62,4.52 10.95,-5.08 9.1,-16.74 8.11,-30.99 -4.41,-3.39 -10.92,-7.58 -13.94,0.98zm-17.97 145.57c4.55,3.66 22.92,7.72 16.7,29.07 -12.97,2.56 -19.81,-15.89 -25.51,-18.24 1.2,8.43 4.02,16.34 9.17,19.82 5.07,3.44 16.55,4.97 23.59,3.17 2.85,-9.5 1.58,-18.21 -4.19,-24.95 -2.77,-3.23 -13.99,-12 -19.76,-8.87zm-6.68 -279.06c2.93,-1.11 2.36,1.21 3.75,-7.2 3.08,-18.63 33.72,-18.9 21.91,4.74 -4.33,8.67 -7.63,4.55 -15.3,7.19 1.07,5.45 4.52,3.59 10.22,2.01 4.78,-1.32 6.65,-2.96 9.17,-6.32 5.13,-6.82 5.23,-16.64 3.99,-26.7 -13.39,-2.19 -30.85,0.61 -32.95,13.23 -0.69,4.21 -1.75,9.95 -0.79,13.05zm-278.64 3.57c-1.18,-3.3 0.75,-0.73 -2.46,-2.39 -1.99,-1.03 -9.95,-1.49 -13.37,-4.72 -2.51,-2.37 -6.85,-19.04 -0.69,-20.36 0.55,-0.12 0.93,-1.55 7.41,0.37 15.31,4.51 8.84,14.05 16.47,19.85 1.46,-32.19 -30.93,-27.8 -32.67,-25.29 -6.83,9.83 4.87,42.35 25.31,32.54zm4.76 276.35c-3.52,2.2 -1.12,-1.02 -2.07,3.99 -0.67,3.55 0.94,8.5 -5.95,13.59 -3.66,2.69 -12.75,7.08 -18.23,4.55 -2.11,-1.53 -2.31,-7.15 -1.97,-9.78 0.45,-3.51 2.01,-6.89 3.73,-8.83 3.11,-3.51 12.34,-4.2 15.08,-9.19 -5.1,-2.59 -18,4.33 -21.39,7.69 -4.82,4.78 -7.18,23.53 -2.23,26.5 6.3,3.78 22.26,-1.69 26.8,-4.29 5.27,-3.02 3.8,-3.71 5.63,-10.11 0.6,-2.07 1.38,-4.89 1.63,-6.87l-1.03 -7.25zm292.13 -28.79c-13.05,3.02 -17.9,-9.85 -20.99,-11.55l2.31 9.34c-14.9,-3.67 -5.76,-13.63 -4.87,-15.29 5.44,0.17 0.6,0.1 5.34,1.7 4.42,-9.76 6.39,-16.08 20.85,-15.32 18.56,0.97 27.35,33.43 5.41,44.04 -16.02,7.75 -13.56,1.64 -29.79,0.41 0.85,13.77 24.04,5.21 34.04,15.74 5.3,5.58 8.14,26.26 8.06,27.57 -0.2,3.43 -1.78,8.12 -2.94,10.23 -15.59,0.69 -32.39,3.65 -40.37,-12.2 -3.85,-7.65 -0.06,-13.23 -3.32,-23.2 -1.79,-5.47 -0.41,-4.17 -4.81,-4.9 -3.59,8.57 2.77,9.18 0.99,17.83 -5.96,28.85 -32.4,24.83 -40.67,18.41 -10.39,-8.05 -6.21,-24.94 2.36,-30.14 16.19,-9.84 25.48,7.63 20.48,13.55 -5.46,-2.89 -1.63,-4.21 -7.22,-7.39 -17.4,2.34 -2.12,30.2 11.57,9.04 9.47,-14.64 -10.3,-26.86 -12.28,-34.38 4.26,-5.18 6.01,-4.94 9.95,-8.81 2.77,-2.71 6.28,-8.02 9.36,-10.07 7.84,-5.21 6.44,9.28 25.89,11.03 11.91,1.07 23.93,-9.45 16.25,-19.22 -5.95,-7.56 -16.95,1.2 -10.63,8.2 3.36,3.73 3.72,-0.1 5.03,5.38zm1.55 -105.61c-0.02,-11.83 0.64,-22.39 11.89,-24.19 16.06,12.22 9.4,38.17 7.8,40.42 -2.71,3.8 -8.38,10.45 -14.86,5.33 -5.7,-4.49 -4.81,-13.95 -4.83,-21.56zm-181.42 -146.9c10.16,-3.38 24.29,-1.61 35.71,-1.64 16.07,-0.05 18.5,1.76 32.12,5.77 33,9.72 65.91,33.83 83.06,63.7 6.77,11.8 19.5,38.96 20.92,52.58 4.81,46.42 -4.04,79.53 -30.47,115.28 -3.5,4.74 -4.59,6.74 -8.86,10.4 -16.66,14.23 -1.61,6.24 -29.91,24.24 -32.14,20.44 -85.82,27.6 -121.07,14.97 -22.35,-8.01 -43,-18.32 -58.3,-34.3l-16.81 -19.31c-10.91,-12.2 -27.3,-49.03 -27.76,-63.12 -0.19,-5.92 -4.37,-16.74 -2.28,-34.65 2.04,-17.61 3.42,-17.75 6.4,-30.51 4.45,-19.14 12.93,-34.26 24.38,-49 3.43,-4.4 5.07,-6.6 9.35,-9.88 20.2,-15.47 16.49,-18.54 42.39,-31.03 4.59,-2.21 7.16,-4.79 11.62,-6.49 13.43,-5.1 26.95,-6.16 29.51,-7.01zm-152.31 156.74c-0.26,-22.71 -3.31,-21.67 8.77,-21.74 9.11,21.44 -3.7,20.8 -8.77,21.74zm11.12 9.18c-6.92,0.27 -7.61,-3.37 -7.62,-3.38 4.48,-3.93 5.55,-0.08 9.49,-4.19 5.57,-5.81 5.47,-19.2 -2.61,-29.96l-8.01 1.54c2.24,-6.91 8.04,-7.23 13.19,-3.06 3.36,2.73 5.08,10.67 5.27,16.41 0.26,8.3 0.78,22.22 -9.71,22.64zm273.14 -179.05c1.29,1.41 0.54,-0.15 1.41,2.66 0.62,1.99 0.17,-0.1 0.47,2.17 3.75,27.81 -50.5,14.86 -26.39,-16.07 7.39,-9.48 22,-9.84 33.36,-2.37 15.79,10.37 6.2,29.08 9.2,35.25 10.55,-0.5 1.97,-21.27 13.26,-32.43 3.88,-3.84 35.34,-14.76 38.02,-0.97 0.86,4.4 -0.51,12.11 -0.65,16.62 -0.82,26.6 -14.59,21.37 -15,21.43 -3.69,0.58 -4.87,1.4 -10.37,1.77 -10.13,0.7 -15.09,1.82 -17.31,7.35 6.49,0.08 39.77,-12.92 43.21,24.21 0.55,5.96 -1.9,9.4 -4.34,12.51 -15.44,19.75 -34.75,-1.65 -34.9,-1.98 -0.83,-1.81 -4.31,-20.76 15.95,-22.1 -1.55,6.13 -4.61,4.25 -6.09,10.93 0.98,2.51 3.83,6.07 6.42,6.72 3.57,0.89 4.89,-1.42 7.93,-2.97l0.15 -12.62c-1.73,-0.54 -3.86,-0.84 -5.95,-2.04 -0.24,-0.14 -0.52,-0.35 -0.74,-0.5 -8.41,-5.38 -16.29,-1.94 -24.53,4.46 -13.77,10.7 -6.12,5.47 -23.79,-10.45 -2.61,-2.34 -3.03,-2.03 -5.26,-3.82 2,-14.95 13.71,-4.52 12.47,-34.12 -3.48,-4.65 -7.8,-8.91 -14.95,-8.82 -9.76,3.23 -6.91,18.93 4.03,14.11 3.74,-1.66 2.92,-5.32 4.39,-8.93zm-109.48 1.96c-22.37,-0.01 -23.84,-15.39 -9.46,-21 5.49,-2.13 16.15,-1.65 22.72,-1.09 8.4,0.71 9.36,3.5 14.42,7.74 -1.16,16.53 -10.88,14.36 -26.47,14.35l-1.21 0zm-119.96 16.61c-0.02,-12.39 -0.23,-27.48 11.35,-34.53 10.28,-6.27 26.55,-5.35 33.18,2.44 8.47,9.94 5.82,24.11 -4.88,29.52 -13.2,6.67 -27.2,-6.44 -21.94,-15.87 5.82,3.39 1.58,6.24 8.5,6.8 5.1,0.41 7.36,-1.82 7.3,-6.85 -0.17,-17.63 -31.36,-6.16 -21.16,17.31 3.2,7.35 10.06,11.52 11.67,17.53 -2.09,5.83 -6.97,6.72 -11.43,10.5 -4.28,3.63 -6.34,7.43 -11.72,10.52 -4.45,-2.61 -21.16,-21.94 -29.84,-13.8 1.7,3.82 9.42,2.92 13.29,10.55 2.99,5.9 1.8,15.35 -1.42,19.63 -2.19,2.9 -11.16,8.05 -15.82,8.21 -14.43,0.52 -29.75,-24.29 -12.79,-41.64 15.36,-15.72 29.29,-5.9 34.22,-9.82 -0.98,-3.64 -1.75,-3.91 -6.63,-5.14 -10.43,-2.64 -21.27,3.66 -28.03,-4.56 -5.1,-6.19 -8.23,-30.1 -3.45,-37.17 1.91,-2.07 7.01,-1.87 10.74,-1.93 51.8,-0.9 18.77,34.42 38.86,38.3zm-54.78 -41.55c-0.61,15.6 -2.85,35.09 4.93,47.26 4.71,7.35 7.9,8.3 -0.32,16.12 -15.88,15.11 -3.45,48.23 16.19,49.86 8.88,0.74 14.63,-3.4 18.73,-7.71 8.68,-9.16 3.03,-11.57 6.78,-19.44 3.53,1.43 4.17,2.21 6.23,5.49 -3.16,9.76 -12.42,19.85 -17.15,32.61 -5.34,14.4 -8.92,23.47 -9.53,40.09 -6.63,-1.74 -4.05,-3.96 -9.69,-6.83 -4.51,-2.3 -9.46,-1.49 -13.18,0.61 -8.12,4.59 -10.87,31.06 -6.19,38.1l6.67 8.94c6.14,7.98 13.79,6.92 20.97,1.03 3.77,4.72 6.72,30.56 18.79,51.84 2.18,3.84 8.13,12.1 5.2,16.04 -2.8,-1.1 -6.12,-11.6 -14.53,-18.72 -7,-5.91 -17.19,-6.33 -25.09,-1.22 -24.62,15.92 -10.49,37.57 -6.85,48.88 1.74,5.38 -0.74,7.37 -2.93,12.3 -4.11,9.26 -3.22,38.28 2.96,44.14 3.85,3.66 7.07,2.9 12.78,2.14 9.65,-1.28 21.16,1.07 29.96,-4.17 3.47,-2.07 5,-6.03 9.71,-8.73 8.77,4.86 6.43,8.73 19.72,13.17 18.77,6.26 38.7,-5.63 32.61,-27.87 -1.88,-6.86 -8.85,-15.45 -16.38,-16.58 4.3,8.38 12.11,12.98 7.4,24.4 -8.05,19.48 -34.06,17.96 -43.25,-0.04 -6.12,-11.99 0.18,-27.2 -1.3,-30.5 -10.05,5.67 -2.06,24.36 -12.53,36.12 -7.27,8.17 -31.72,8.91 -41.25,3.73 -1.47,-9.85 -0.71,-31.34 6.75,-38.24 6.16,-5.7 9.46,-3.8 18.18,-4.53 4.67,-0.39 5.35,-1.29 9.89,-2.07 5.03,-0.86 6.1,-0.04 6.57,-5.13 -6.58,-3.15 -15.43,10.54 -33.29,-3.84 -8.45,-6.8 -10.13,-24.77 -2.96,-32.95 15.26,-17.43 38.97,-5.55 32.88,14.68 -1.76,5.85 -7.97,8.81 -15.28,7.37 1.94,-5.17 4.58,-2.96 5.87,-9.5 -2.59,-4.64 -4.09,-5.5 -11.25,-4.75 -7.46,8.79 -3.84,19.68 9.91,19.87 13.96,0.2 16.93,-8.23 26.51,-13.14 3.29,2.17 21.08,21.03 22.84,24.83 -25.24,16.01 -15.87,47.25 5.92,39.27 2.77,-6.99 2.37,-10.22 -1.87,-15.51 -8.62,0.86 -6.16,7.27 -11.3,9.47 -7.68,-11.56 4.61,-20.14 15.54,-21.98 0.02,-1.72 0.65,-4.5 1.67,-6.32 4.91,1.62 10.04,5.12 14.18,7.92 13.38,9.04 33.83,14.58 49.77,18.78 1.23,11.49 -3.9,13.81 5.4,22.29 7.55,6.86 11.82,6.12 24.17,5.95 14.36,-0.21 15.47,2.21 24.19,-5.92 3.24,-3.02 5.03,-5.16 3.22,-11.76l-3.53 -7.39c-0.05,-0.19 -0.12,-0.56 -0.15,-0.75 -0.02,-0.18 -0.01,-0.58 -0.02,-0.75l0.21 -1.48c9.47,-3.41 19.43,-1.01 50.07,-15.93 4.47,-2.17 11.57,-7.06 15.08,-5.41 -0.68,4.18 1.29,1.73 -3.71,4.77 -15.68,9.51 -20.45,21.93 -6.53,36.69 8.43,8.94 10.93,8.07 25.9,7.76 10.74,-0.22 17.2,-6.61 21.3,-12.03 10.22,4.49 7.8,11.76 21.9,12.24 8.14,0.27 25.25,3.62 31.47,0.06 2.59,-5.65 3.35,-23.67 0.88,-30.12 -3.92,-10.21 -4.69,-13.09 -14.38,-18.95 2.2,-8.29 9.15,-7.52 14.11,-18.91 7.49,-17.23 -3.04,-37.32 -17.91,-41.55 -14.08,-4.01 -16.27,3.48 -24.59,5.63 -0.22,-5 5.31,-11.56 8.85,-20.57l6.07 -20.55c2.31,-5.79 9.26,-1.7 14.41,-3.31 12.91,-4.02 13.21,-17.81 13.84,-29.87 2.02,-39.09 -22.57,-27.57 -25.71,-27.47 -2.24,-11.78 -6.58,-26.46 -11.94,-36.2 -8.15,-14.85 -4.42,-9.57 -13.51,-22.58 -1.99,-2.83 -2.16,-4.8 -1.98,-6.2 0.38,-2.79 -0.03,-1.26 1.1,-2.87 5.65,-2.25 4.99,2.04 7.18,7.64 3.2,8.16 9.64,15.88 19.34,15.58 13.38,-0.42 24.66,-13.95 25.35,-27.73 0.83,-16.29 -6.81,-16.04 -9.85,-25.29 7.43,-12.1 6.75,-5.02 10.85,-23.89 9.29,-42.76 -13.02,-35.76 -32.59,-33.18 -18.22,2.41 -13.32,10.43 -26.32,5.43 -13.66,-5.26 -8.13,-8.24 -26.34,-7.71 -17.96,0.52 -28.26,10.38 -28.21,26.88 0.02,9.77 0.8,7.49 5.17,13.38 4.09,5.51 1.15,6.48 9.25,8.81 5,1.44 11.72,0.03 15.99,1.86 -4.59,11.33 -17.78,-0.71 -24.03,-4.68 -17.46,-11.07 -30.48,-11.42 -48.25,-17.02 0.9,-5.13 5.66,-5.3 6.43,-9.58 -1.11,-5.84 -5.92,-16.11 -10.57,-18.48 -8.04,-4.09 -17.22,-1.73 -25.61,-1.75 -9.62,-0.03 -18.67,-0.22 -22.24,7.69 -5.5,12.13 3.45,15.22 4.17,22.01 -12.11,4.48 -11.84,-0.57 -37.47,10.85 -6.82,3.05 -10.26,4.08 -16.45,7.58 -7.46,4.21 -5.99,8.63 -17.08,7.1 -3.85,-3.21 -9.95,-8.01 -11.04,-13.86 8.3,1.82 30.31,15.72 37.37,-11.63 3.43,-13.26 -9.01,-30.34 -23.03,-31.88 -34.48,-3.77 -25.91,18.11 -41.22,8.59 -6.91,-4.3 -10.39,-7.71 -20.97,-8.15 -8.55,-0.35 -20.36,-0.01 -28.03,1.32z"/>
  <path class="fil2" d="M229.39 110.58c-2.56,0.85 -16.08,1.91 -29.51,7.01 -4.46,1.7 -7.03,4.28 -11.62,6.49 -25.9,12.49 -22.19,15.56 -42.39,31.03 -4.28,3.28 -5.92,5.48 -9.35,9.88 -11.45,14.74 -19.93,29.86 -24.38,49 -2.98,12.76 -4.36,12.9 -6.4,30.51 -2.09,17.91 2.09,28.73 2.28,34.65 0.46,14.09 16.85,50.92 27.76,63.12l16.81 19.31c15.3,15.98 35.95,26.29 58.3,34.3 35.25,12.63 88.93,5.47 121.07,-14.97 28.3,-18 13.25,-10.01 29.91,-24.24 4.27,-3.66 5.36,-5.66 8.86,-10.4 26.43,-35.75 35.28,-68.86 30.47,-115.28 -1.42,-13.62 -14.15,-40.78 -20.92,-52.58 -17.15,-29.87 -50.06,-53.98 -83.06,-63.7 -13.62,-4.01 -16.05,-5.82 -32.12,-5.77 -11.42,0.03 -25.55,-1.74 -35.71,1.64z"/>
  <path class="fil3" d="M255.73 138.22c-8.05,0.82 -15.29,3.37 -20.46,9.29 -3.95,4.53 -8.76,12.1 -7.97,21.54 0.63,7.59 3.58,15.46 9.28,20.34 4.62,3.96 12.13,8.76 21.55,7.99 4.68,-0.38 8.33,-1.23 11.8,-3.01 9.34,-4.8 17.64,-15.21 16.52,-27.8 -0.65,-7.37 -3.56,-15.61 -9.31,-20.35 -3,-2.47 -5.02,-4.31 -9.01,-5.86 -3.2,-1.24 -8.48,-2.54 -12.4,-2.14zm-55 92.14l17.27 0 0 103.64 -18.14 0 0.01 25.91 112.27 0.01 0 -25.92 -16.42 0 0.01 -129.55 -95.01 0 0.01 2.59 0 23.32z"/>
 </g>
</svg>
