<?xml version="1.0" encoding="UTF-8"?>
<!DOCTYPE svg PUBLIC "-//W3C//DTD SVG 1.1//EN" "http://www.w3.org/Graphics/SVG/1.1/DTD/svg11.dtd">
<!-- Creator: CorelDRAW 2020 (64 Bit) -->
<svg xmlns="http://www.w3.org/2000/svg" xml:space="preserve" width="512px" height="512px" version="1.1" style="shape-rendering:geometricPrecision; text-rendering:geometricPrecision; image-rendering:optimizeQuality; fill-rule:evenodd; clip-rule:evenodd"
viewBox="0 0 512 512"
 xmlns:xlink="http://www.w3.org/1999/xlink"
 xmlns:xodm="http://www.corel.com/coreldraw/odm/2003">
 <defs>
  <style type="text/css">
   <![CDATA[
    .fil3 {fill:#42518B}
    .fil1 {fill:#575036}
    .fil0 {fill:#BDAE74}
    .fil2 {fill:#FFFAE8}
   ]]>
  </style>
 </defs>
 <g id="Camada_x0020_1">
  <metadata id="CorelCorpID_0Corel-Layer"/>
  <path class="fil0" d="M7.55 271.71c7.04,-1.3 24.84,-0.41 12.18,-30.18 -16.77,0.1 -12.53,-1.34 -12.18,30.18zm57.04 183.03c-0.34,2.75 -1.42,6.67 -2.25,9.55 -2.55,8.88 -0.51,9.84 -7.83,14.04 -6.29,3.61 -28.46,11.21 -37.21,5.95 -6.87,-4.12 -3.6,-30.15 3.1,-36.79 4.71,-4.67 22.61,-14.28 29.7,-10.69 -3.81,6.93 -16.62,7.89 -20.94,12.77 -2.39,2.69 -4.55,7.38 -5.18,12.26 -0.47,3.65 -0.19,11.46 2.74,13.58 7.61,3.51 20.23,-2.58 25.31,-6.32 9.57,-7.06 7.34,-13.95 8.26,-18.86 1.32,-6.97 -2.01,-2.5 2.88,-5.54l1.42 10.05zm69.48 -8.43c6.07,10.6 15.54,17.11 9.32,32.17 -11.17,27.05 -47.29,24.93 -60.05,-0.06 -8.5,-16.65 0.26,-37.77 -1.8,-42.35 -13.96,7.88 -2.87,33.82 -17.39,50.15 -10.1,11.35 -44.05,12.38 -57.29,5.19 -2.04,-13.68 -0.98,-43.52 9.37,-53.11 8.56,-7.91 13.15,-5.27 25.25,-6.29 6.49,-0.54 7.43,-1.78 13.73,-2.86 6.98,-1.2 8.47,-0.07 9.13,-7.14 -9.14,-4.36 -21.43,14.64 -46.23,-5.32 -11.74,-9.45 -14.06,-34.4 -4.12,-45.76 21.2,-24.2 54.13,-7.7 45.67,20.39 -2.45,8.12 -11.07,12.22 -21.22,10.23 2.69,-7.18 6.36,-4.11 8.15,-13.19 -3.59,-6.44 -5.68,-7.64 -15.62,-6.6 -10.36,12.21 -5.33,27.32 13.76,27.6 19.38,0.28 23.51,-11.43 36.81,-18.25 4.56,3.01 29.27,29.2 31.72,34.48 -35.05,22.23 -22.04,65.61 8.21,54.52 3.85,-9.7 3.29,-14.18 -2.59,-21.53 -11.97,1.19 -8.56,10.09 -15.69,13.14 -10.66,-16.05 6.4,-27.96 21.57,-30.51l0.02 -0.51c2.33,2.32 5.25,3.8 8.43,4.46l0.86 1.15zm309.4 -390.32c-1.33,-4.3 0.14,-12.28 1.1,-18.12 2.91,-17.53 27.16,-21.42 45.76,-18.38 1.71,13.97 1.57,27.62 -5.55,37.09 -3.5,4.65 -6.09,6.94 -12.73,8.77 -7.91,2.19 -12.7,4.77 -14.2,-2.8 10.65,-3.66 15.24,2.07 21.26,-9.97 16.39,-32.83 -26.16,-32.46 -30.43,-6.58 -1.93,11.67 -1.14,8.44 -5.21,9.99zm-41.2 -20.15c-2.04,5.01 -0.9,10.1 -6.1,12.4 -15.18,6.69 -19.14,-15.11 -5.59,-19.59 9.93,-0.13 15.93,5.79 20.76,12.25 1.72,41.09 -14.54,26.62 -17.32,47.37 3.1,2.5 3.69,2.06 7.3,5.31 24.55,22.11 13.92,29.37 33.05,14.51 11.43,-8.89 22.38,-13.67 34.05,-6.19 0.31,0.2 0.7,0.5 1.03,0.69 2.9,1.67 5.86,2.09 8.27,2.83l-0.22 17.53c-4.22,2.15 -6.05,5.35 -11.01,4.12 -3.59,-0.9 -7.55,-5.84 -8.91,-9.33 2.05,-9.28 6.3,-6.67 8.45,-15.18 -28.13,1.86 -23.29,28.18 -22.15,30.69 0.21,0.46 27.03,30.17 48.47,2.75 3.38,-4.32 6.79,-9.1 6.02,-17.37 -4.77,-51.55 -50.98,-33.51 -59.99,-33.61 3.08,-7.69 9.97,-9.25 24.03,-10.21 7.64,-0.51 9.28,-1.66 14.4,-2.46 0.56,-0.09 19.69,7.18 20.83,-29.76 0.19,-6.26 2.09,-16.97 0.9,-23.08 -3.72,-19.15 -47.4,-3.98 -52.79,1.35 -15.68,15.5 -3.76,44.34 -18.42,45.03 -4.17,-8.57 9.15,-34.54 -12.77,-48.95 -15.78,-10.37 -36.06,-9.87 -46.32,3.29 -33.48,42.95 41.85,60.94 36.65,22.31 -0.43,-3.14 0.2,-0.24 -0.66,-3.01 -1.21,-3.89 -0.17,-1.72 -1.96,-3.69zm-375.19 75.22c10.32,-14.01 29.41,-2 17.71,13.06l-10.08 0.51c-1.59,-2.22 -2.78,-3.53 -4.34,-5.92 -2.65,-4.11 -2.02,-5.24 -3.29,-7.65zm29.47 -50.11c-28.37,13.62 -44.62,-31.54 -35.14,-45.19 2.43,-3.48 47.39,-9.58 45.38,35.12 -10.61,-8.05 -1.61,-21.29 -22.88,-27.57 -9,-2.65 -9.53,-0.67 -10.3,-0.51 -8.54,1.83 -2.51,24.99 0.97,28.28 4.74,4.48 15.79,5.12 18.56,6.55 4.46,2.31 1.78,-1.27 3.41,3.32zm27.12 0.68c-27.89,-5.38 17.97,-54.43 -53.95,-53.19 -5.18,0.09 -12.26,-0.19 -14.92,2.68 -6.63,9.82 -2.29,43.02 4.79,51.62 9.39,11.41 24.45,2.66 38.92,6.33 6.78,1.71 7.85,2.08 9.21,7.13 -6.84,5.45 -26.19,-8.18 -47.51,13.64 -23.55,24.09 -2.29,58.55 17.75,57.83 6.47,-0.23 18.94,-7.38 21.98,-11.41 4.46,-5.94 6.11,-19.07 1.96,-27.25 -5.37,-10.6 -16.09,-9.35 -18.44,-14.66 12.04,-11.3 35.24,15.54 41.42,19.17 7.47,-4.29 10.34,-9.57 16.28,-14.61 6.19,-5.25 12.97,-6.49 15.88,-14.58 -2.24,-8.34 -11.77,-14.13 -16.21,-24.34 -14.17,-32.59 29.14,-48.52 29.38,-24.03 0.08,6.97 -3.05,10.07 -10.14,9.5 -9.6,-0.77 -3.72,-4.73 -11.8,-9.44 -7.31,13.1 12.14,31.3 30.46,22.04 14.86,-7.52 18.54,-27.18 6.78,-41 -9.2,-10.81 -31.79,-12.08 -46.08,-3.38 -16.07,9.79 -15.77,30.75 -15.76,47.95zm369.08 381.86c8.01,-4.34 23.59,7.82 27.44,12.32 8,9.35 9.78,21.45 5.81,34.63 -9.77,2.5 -25.71,0.38 -32.76,-4.39 -7.14,-4.84 -11.06,-15.82 -12.73,-27.53 7.92,3.26 17.42,28.89 35.42,25.33 8.65,-29.65 -16.87,-35.28 -23.18,-40.36zm16.06 -38.79c-1.82,-7.6 -2.32,-2.29 -6.98,-7.46 -8.78,-9.73 6.5,-21.89 14.75,-11.4 10.67,13.57 -6.02,28.18 -22.55,26.69 -27.01,-2.42 -25.07,-22.55 -35.95,-15.32 -4.29,2.85 -9.16,10.22 -13.01,13.99 -5.47,5.38 -7.9,5.05 -13.81,12.24 2.75,10.43 30.21,27.41 17.05,47.74 -19.01,29.38 -40.22,-9.31 -16.06,-12.56 7.76,4.41 2.44,6.24 10.02,10.26 6.94,-8.22 -5.96,-32.47 -28.44,-18.82 -11.9,7.23 -17.71,30.68 -3.28,41.86 11.49,8.91 48.21,14.5 56.48,-25.56 2.47,-12.01 -6.36,-12.86 -1.37,-24.77 6.11,1.02 4.19,-0.78 6.67,6.81 4.53,13.84 -0.73,21.6 4.62,32.22 11.08,22 34.4,17.9 56.05,16.94 1.61,-2.94 3.8,-9.44 4.08,-14.21 0.11,-1.82 -3.83,-30.53 -11.19,-38.28 -13.89,-14.62 -46.08,-2.74 -47.26,-21.86 22.53,1.71 19.11,10.2 41.36,-0.57 30.46,-14.74 18.26,-59.81 -7.52,-61.15 -20.07,-1.05 -22.81,7.72 -28.94,21.27 -6.58,-2.21 0.14,-2.12 -7.42,-2.35 -1.24,2.3 -13.93,16.13 6.77,21.22l-3.21 -12.97c4.29,2.37 11.03,20.24 29.14,16.04zm-235.26 86c-5.94,-3.78 -5.51,-6.9 -2.68,-14.78 9.12,-1.75 60.4,-4.11 41.11,12.43 -6.16,-2.53 -0.65,0.8 -5.01,-6.15 -37.15,-4.69 -25.63,1.8 -33.42,8.5zm-12.96 -7.12c4.12,23.83 50.39,15.22 54.45,13.05 4.08,-2.17 32.09,-27.95 -23.12,-28.16 -12.97,-0.05 -33.7,1.44 -31.33,15.11zm12.96 -454.52c-18.91,-18.91 53.76,-28.83 44.21,0.48 -11.56,-2.03 0.06,-1.41 -9.6,-8.21 -3.64,-2.56 -7.89,-2.97 -12.91,-2.71 -19.4,1.03 -11.26,9.75 -21.7,10.44zm16.71 9.5l1.67 0c21.65,0.02 35.14,3.03 36.76,-19.92 -7.03,-5.89 -8.37,-9.77 -20.03,-10.75 -9.12,-0.78 -23.93,-1.45 -31.54,1.52 -19.97,7.78 -17.93,29.13 13.14,29.15zm235.54 244.46c-5.12,-1.71 -5.36,-2.27 -7.81,-6.28 6.45,-4.12 10.15,-2.49 12.25,-12.46 1.47,-6.94 0.81,-17.45 -1.05,-22.93 -9.38,-2.8 -4.7,3.47 -11.48,0.01 4.18,-11.89 13.23,-6.08 19.34,-1.37 1.38,19.78 3.95,35.97 -11.25,43.03zm-14.84 -24.96c0.03,10.56 -1.2,23.69 6.71,29.94 9,7.11 16.87,-2.14 20.63,-7.41 2.23,-3.12 11.48,-39.16 -10.83,-56.12 -15.62,2.49 -16.54,17.16 -16.51,33.59zm-460.12 -23.57l11.13 -2.13c11.21,14.94 11.36,33.52 3.62,41.6 -5.46,5.7 -6.95,0.35 -13.17,5.82 0,0.01 0.97,5.06 10.58,4.68 14.57,-0.58 13.84,-19.91 13.48,-31.44 -0.26,-7.97 -2.65,-18.99 -7.32,-22.78 -7.15,-5.79 -15.21,-5.34 -18.32,4.25z"/>
  <path class="fil1" d="M220.59 483.58c-2.37,-13.67 18.36,-15.16 31.33,-15.11 55.21,0.21 27.2,25.99 23.12,28.16 -4.06,2.17 -50.33,10.78 -54.45,-13.05zm-190.22 -364.87c1.56,2.39 2.75,3.7 4.34,5.92l10.08 -0.51c11.7,-15.06 -7.39,-27.07 -17.71,-13.06 1.27,2.41 0.64,3.54 3.29,7.65zm203.18 371.99c7.79,-6.7 -3.73,-13.19 33.42,-8.5 4.36,6.95 -1.15,3.62 5.01,6.15 19.29,-16.54 -31.99,-14.18 -41.11,-12.43 -2.83,7.88 -3.26,11 2.68,14.78zm0 -461.64c10.44,-0.69 2.3,-9.41 21.7,-10.44 5.02,-0.26 9.27,0.15 12.91,2.71 9.66,6.8 -1.96,6.18 9.6,8.21 9.55,-29.31 -63.12,-19.39 -44.21,-0.48zm244.16 212.3c6.78,3.46 2.1,-2.81 11.48,-0.01 1.86,5.48 2.52,15.99 1.05,22.93 -2.1,9.97 -5.8,8.34 -12.25,12.46 2.45,4.01 2.69,4.57 7.81,6.28 15.2,-7.06 12.63,-23.25 11.25,-43.03 -6.11,-4.71 -15.16,-10.52 -19.34,1.37zm-24.96 202.13c6.31,5.08 31.83,10.71 23.18,40.36 -18,3.56 -27.5,-22.07 -35.42,-25.33 1.67,11.71 5.59,22.69 12.73,27.53 7.05,4.77 22.99,6.89 32.76,4.39 3.97,-13.18 2.19,-25.28 -5.81,-34.63 -3.85,-4.5 -19.43,-16.66 -27.44,-12.32zm-9.28 -387.5c4.07,-1.55 3.28,1.68 5.21,-9.99 4.27,-25.88 46.82,-26.25 30.43,6.58 -6.02,12.04 -10.61,6.31 -21.26,9.97 1.5,7.57 6.29,4.99 14.2,2.8 6.64,-1.83 9.23,-4.12 12.73,-8.77 7.12,-9.47 7.26,-23.12 5.55,-37.09 -18.6,-3.04 -42.85,0.85 -45.76,18.38 -0.96,5.84 -2.43,13.82 -1.1,18.12zm-386.92 4.96c-1.63,-4.59 1.05,-1.01 -3.41,-3.32 -2.77,-1.43 -13.82,-2.07 -18.56,-6.55 -3.48,-3.29 -9.51,-26.45 -0.97,-28.28 0.77,-0.16 1.3,-2.14 10.3,0.51 21.27,6.28 12.27,19.52 22.88,27.57 2.01,-44.7 -42.95,-38.6 -45.38,-35.12 -9.48,13.65 6.77,58.81 35.14,45.19zm6.62 383.74c-4.89,3.04 -1.56,-1.43 -2.88,5.54 -0.92,4.91 1.31,11.8 -8.26,18.86 -5.08,3.74 -17.7,9.83 -25.31,6.32 -2.93,-2.12 -3.21,-9.93 -2.74,-13.58 0.63,-4.88 2.79,-9.57 5.18,-12.26 4.32,-4.88 17.13,-5.84 20.94,-12.77 -7.09,-3.59 -24.99,6.02 -29.7,10.69 -6.7,6.64 -9.97,32.67 -3.1,36.79 8.75,5.26 30.92,-2.34 37.21,-5.95 7.32,-4.2 5.28,-5.16 7.83,-14.04 0.83,-2.88 1.91,-6.8 2.25,-9.55l-1.42 -10.05zm405.64 -39.99c-18.11,4.2 -24.85,-13.67 -29.14,-16.04l3.21 12.97c-20.7,-5.09 -8.01,-18.92 -6.77,-21.22 7.56,0.23 0.84,0.14 7.42,2.35 6.13,-13.55 8.87,-22.32 28.94,-21.27 25.78,1.34 37.98,46.41 7.52,61.15 -22.25,10.77 -18.83,2.28 -41.36,0.57 1.18,19.12 33.37,7.24 47.26,21.86 7.36,7.75 11.3,36.46 11.19,38.28 -0.28,4.77 -2.47,11.27 -4.08,14.21 -21.65,0.96 -44.97,5.06 -56.05,-16.94 -5.35,-10.62 -0.09,-18.38 -4.62,-32.22 -2.48,-7.59 -0.56,-5.79 -6.67,-6.81 -4.99,11.91 3.84,12.76 1.37,24.77 -8.27,40.06 -44.99,34.47 -56.48,25.56 -14.43,-11.18 -8.62,-34.63 3.28,-41.86 22.48,-13.65 35.38,10.6 28.44,18.82 -7.58,-4.02 -2.26,-5.85 -10.02,-10.26 -24.16,3.25 -2.95,41.94 16.06,12.56 13.16,-20.33 -14.3,-37.31 -17.05,-47.74 5.91,-7.19 8.34,-6.86 13.81,-12.24 3.85,-3.77 8.72,-11.14 13.01,-13.99 10.88,-7.23 8.94,12.9 35.95,15.32 16.53,1.49 33.22,-13.12 22.55,-26.69 -8.25,-10.49 -23.53,1.67 -14.75,11.4 4.66,5.17 5.16,-0.14 6.98,7.46zm2.15 -146.64c-0.03,-16.43 0.89,-31.1 16.51,-33.59 22.31,16.96 13.06,53 10.83,56.12 -3.76,5.27 -11.63,14.52 -20.63,7.41 -7.91,-6.25 -6.68,-19.38 -6.71,-29.94zm-251.91 -203.98c14.11,-4.7 33.73,-2.24 49.58,-2.29 22.32,-0.06 25.7,2.45 44.61,8.02 45.82,13.5 91.51,46.97 115.33,88.45 9.41,16.38 27.09,54.1 29.05,73.01 6.68,64.46 -5.61,110.44 -42.31,160.07 -4.87,6.59 -6.37,9.37 -12.31,14.45 -23.13,19.76 -2.23,8.67 -41.53,33.66 -44.62,28.38 -119.16,38.32 -168.11,20.78 -31.04,-11.12 -59.7,-25.44 -80.95,-47.63l-23.35 -26.81c-15.15,-16.94 -37.91,-68.08 -38.54,-87.65 -0.27,-8.21 -6.07,-23.24 -3.17,-48.11 2.84,-24.45 4.76,-24.65 8.88,-42.36 6.19,-26.58 17.96,-47.58 33.86,-68.04 4.76,-6.12 7.04,-9.17 12.99,-13.72 28.05,-21.48 22.89,-25.74 58.86,-43.09 6.38,-3.07 9.93,-6.65 16.14,-9.01 18.65,-7.08 37.41,-8.55 40.97,-9.73zm-211.5 217.63c-0.35,-31.52 -4.59,-30.08 12.18,-30.18 12.66,29.77 -5.14,28.88 -12.18,30.18zm15.45 12.75c-9.61,0.38 -10.58,-4.67 -10.58,-4.68 6.22,-5.47 7.71,-0.12 13.17,-5.82 7.74,-8.08 7.59,-26.66 -3.62,-41.6l-11.13 2.13c3.11,-9.59 11.17,-10.04 18.32,-4.25 4.67,3.79 7.06,14.81 7.32,22.78 0.36,11.53 1.09,30.86 -13.48,31.44zm379.27 -248.62c1.79,1.97 0.75,-0.2 1.96,3.69 0.86,2.77 0.23,-0.13 0.66,3.01 5.2,38.63 -70.13,20.64 -36.65,-22.31 10.26,-13.16 30.54,-13.66 46.32,-3.29 21.92,14.41 8.6,40.38 12.77,48.95 14.66,-0.69 2.74,-29.53 18.42,-45.03 5.39,-5.33 49.07,-20.5 52.79,-1.35 1.19,6.11 -0.71,16.82 -0.9,23.08 -1.14,36.94 -20.27,29.67 -20.83,29.76 -5.12,0.8 -6.76,1.95 -14.4,2.46 -14.06,0.96 -20.95,2.52 -24.03,10.21 9.01,0.1 55.22,-17.94 59.99,33.61 0.77,8.27 -2.64,13.05 -6.02,17.37 -21.44,27.42 -48.26,-2.29 -48.47,-2.75 -1.14,-2.51 -5.98,-28.83 22.15,-30.69 -2.15,8.51 -6.4,5.9 -8.45,15.18 1.36,3.49 5.32,8.43 8.91,9.33 4.96,1.23 6.79,-1.97 11.01,-4.12l0.22 -17.53c-2.41,-0.74 -5.37,-1.16 -8.27,-2.83 -0.33,-0.19 -0.72,-0.49 -1.03,-0.69 -11.67,-7.48 -22.62,-2.7 -34.05,6.19 -19.13,14.86 -8.5,7.6 -33.05,-14.51 -3.61,-3.25 -4.2,-2.81 -7.3,-5.31 2.78,-20.75 19.04,-6.28 17.32,-47.37 -4.83,-6.46 -10.83,-12.38 -20.76,-12.25 -13.55,4.48 -9.59,26.28 5.59,19.59 5.2,-2.3 4.06,-7.39 6.1,-12.4zm-152.01 2.72c-31.07,-0.02 -33.11,-21.37 -13.14,-29.15 7.61,-2.97 22.42,-2.3 31.54,-1.52 11.66,0.98 13,4.86 20.03,10.75 -1.62,22.95 -15.11,19.94 -36.76,19.92l-1.67 0zm-166.59 23.07c-0.01,-17.2 -0.31,-38.16 15.76,-47.95 14.29,-8.7 36.88,-7.43 46.08,3.38 11.76,13.82 8.08,33.48 -6.78,41 -18.32,9.26 -37.77,-8.94 -30.46,-22.04 8.08,4.71 2.2,8.67 11.8,9.44 7.09,0.57 10.22,-2.53 10.14,-9.5 -0.24,-24.49 -43.55,-8.56 -29.38,24.03 4.44,10.21 13.97,16 16.21,24.34 -2.91,8.09 -9.69,9.33 -15.88,14.58 -5.94,5.04 -8.81,10.32 -16.28,14.61 -6.18,-3.63 -29.38,-30.47 -41.42,-19.17 2.35,5.31 13.07,4.06 18.44,14.66 4.15,8.18 2.5,21.31 -1.96,27.25 -3.04,4.03 -15.51,11.18 -21.98,11.41 -20.04,0.72 -41.3,-33.74 -17.75,-57.83 21.32,-21.82 40.67,-8.19 47.51,-13.64 -1.36,-5.05 -2.43,-5.42 -9.21,-7.13 -14.47,-3.67 -29.53,5.08 -38.92,-6.33 -7.08,-8.6 -11.42,-41.8 -4.79,-51.62 2.66,-2.87 9.74,-2.59 14.92,-2.68 71.92,-1.24 26.06,47.81 53.95,53.19zm-76.06 -57.7c-0.85,21.66 -3.95,48.72 6.85,65.63 6.53,10.2 10.96,11.52 -0.45,22.39 -22.04,20.97 -4.79,66.96 22.49,69.23 12.32,1.02 20.31,-4.73 26,-10.72 12.05,-12.71 4.21,-16.06 9.41,-26.99 4.9,1.99 5.79,3.08 8.65,7.63 -4.38,13.55 -17.24,27.56 -23.81,45.28 -7.41,20 -12.38,32.59 -13.23,55.67 -9.2,-2.42 -5.62,-5.5 -13.45,-9.48 -6.26,-3.2 -13.15,-2.08 -18.31,0.84 -11.27,6.37 -15.1,43.13 -8.59,52.9l9.25 12.42c8.54,11.07 19.15,9.61 29.13,1.43 5.23,6.56 9.33,42.43 26.1,71.99 3.02,5.33 11.28,16.8 7.21,22.26 -3.89,-1.53 -8.5,-16.11 -20.17,-25.98 -9.72,-8.22 -23.88,-8.8 -34.85,-1.71 -34.18,22.11 -14.56,52.18 -9.5,67.88 2.4,7.48 -1.04,10.23 -4.08,17.08 -5.7,12.85 -4.47,53.16 4.11,61.3 5.35,5.08 9.83,4.01 17.76,2.96 13.4,-1.78 29.37,1.48 41.6,-5.79 4.82,-2.87 6.94,-8.36 13.48,-12.12 12.18,6.74 8.92,12.13 27.38,18.29 26.06,8.68 53.74,-7.83 45.28,-38.7 -2.61,-9.53 -12.28,-21.45 -22.74,-23.03 5.96,11.65 16.81,18.03 10.26,33.89 -11.17,27.05 -47.29,24.93 -60.05,-0.06 -8.5,-16.65 0.26,-37.77 -1.8,-42.35 -13.96,7.88 -2.87,33.82 -17.39,50.15 -10.1,11.35 -44.05,12.38 -57.29,5.19 -2.04,-13.68 -0.98,-43.52 9.37,-53.11 8.56,-7.91 13.15,-5.27 25.25,-6.29 6.49,-0.54 7.43,-1.78 13.73,-2.86 6.98,-1.2 8.47,-0.07 9.13,-7.14 -9.14,-4.36 -21.43,14.64 -46.23,-5.32 -11.74,-9.45 -14.06,-34.4 -4.12,-45.76 21.2,-24.2 54.13,-7.7 45.67,20.39 -2.45,8.12 -11.07,12.22 -21.22,10.23 2.69,-7.18 6.36,-4.11 8.15,-13.19 -3.59,-6.44 -5.68,-7.64 -15.62,-6.6 -10.36,12.21 -5.33,27.32 13.76,27.6 19.38,0.28 23.51,-11.43 36.81,-18.25 4.56,3.01 29.27,29.2 31.72,34.48 -35.05,22.23 -22.04,65.61 8.21,54.52 3.85,-9.7 3.29,-14.18 -2.59,-21.53 -11.97,1.19 -8.56,10.09 -15.69,13.14 -10.66,-16.05 6.4,-27.96 21.57,-30.51 0.03,-2.39 0.91,-6.25 2.33,-8.78 6.81,2.25 13.94,7.11 19.68,10.99 18.58,12.56 46.98,20.26 69.12,26.09 1.7,15.95 -5.43,19.17 7.5,30.94 10.47,9.54 16.41,8.51 33.55,8.26 19.94,-0.28 21.49,3.09 33.6,-8.21 4.49,-4.19 6.97,-7.17 4.47,-16.33l-4.9 -10.26c-0.08,-0.27 -0.17,-0.78 -0.21,-1.05 -0.04,-0.25 -0.02,-0.8 -0.04,-1.03l0.3 -2.06c13.15,-4.73 26.98,-1.4 69.52,-22.11 6.21,-3.03 16.07,-9.81 20.94,-7.52 -0.94,5.8 1.8,2.41 -5.14,6.62 -21.78,13.21 -28.4,30.46 -9.07,50.95 11.7,12.41 15.17,11.2 35.97,10.77 14.9,-0.31 23.88,-9.17 29.56,-16.7 14.2,6.23 10.83,16.33 30.42,16.99 11.3,0.39 35.05,5.03 43.7,0.09 3.58,-7.85 4.65,-32.87 1.21,-41.82 -5.44,-14.19 -6.5,-18.19 -19.96,-26.32 3.05,-11.51 12.71,-10.44 19.59,-26.25 10.4,-23.93 -4.22,-51.82 -24.87,-57.7 -19.54,-5.57 -22.59,4.84 -34.15,7.82 -0.3,-6.94 7.38,-16.06 12.29,-28.57l8.44 -28.53c3.2,-8.04 12.85,-2.37 20,-4.59 17.93,-5.59 18.35,-24.74 19.22,-41.49 2.81,-54.28 -31.34,-38.27 -35.7,-38.13 -3.11,-16.36 -9.14,-36.75 -16.57,-50.28 -11.32,-20.62 -6.15,-13.29 -18.78,-31.35 -2.75,-3.93 -2.99,-6.67 -2.73,-8.6 0.51,-3.89 -0.05,-1.76 1.52,-4 7.84,-3.12 6.93,2.85 9.98,10.62 4.44,11.32 13.37,22.05 26.84,21.63 18.58,-0.58 34.24,-19.38 35.21,-38.5 1.15,-22.63 -9.47,-22.28 -13.68,-35.13 10.31,-16.8 9.38,-6.97 15.07,-33.16 12.89,-59.38 -18.09,-49.67 -45.27,-46.07 -25.29,3.34 -18.49,14.47 -36.53,7.53 -18.97,-7.31 -11.3,-11.45 -36.58,-10.71 -24.94,0.73 -39.24,14.43 -39.18,37.33 0.04,13.56 1.12,10.4 7.19,18.58 5.68,7.66 1.59,9 12.85,12.24 6.94,2 16.27,0.03 22.19,2.57 -6.37,15.73 -24.69,-0.98 -33.37,-6.49 -24.24,-15.38 -42.32,-15.86 -67,-23.63 1.25,-7.13 7.87,-7.36 8.94,-13.31 -1.55,-8.1 -8.23,-22.36 -14.69,-25.65 -11.16,-5.69 -23.91,-2.41 -35.55,-2.44 -13.37,-0.04 -25.92,-0.31 -30.89,10.67 -7.63,16.86 4.8,21.14 5.8,30.57 -16.82,6.22 -16.45,-0.8 -52.04,15.07 -9.47,4.23 -14.24,5.67 -22.84,10.52 -10.36,5.85 -8.31,11.98 -23.71,9.86 -5.35,-4.46 -13.82,-11.12 -15.33,-19.25 11.52,2.53 42.09,21.83 51.89,-16.15 4.76,-18.41 -12.51,-42.13 -31.98,-44.26 -47.88,-5.23 -35.98,25.14 -57.24,11.93 -9.59,-5.97 -14.43,-10.71 -29.11,-11.32 -11.88,-0.49 -28.28,-0.02 -38.93,1.83z"/>
  <path class="fil2" d="M219.05 54.08c-3.56,1.18 -22.32,2.65 -40.97,9.73 -6.21,2.36 -9.76,5.94 -16.14,9.01 -35.97,17.35 -30.81,21.61 -58.86,43.09 -5.95,4.55 -8.23,7.6 -12.99,13.72 -15.9,20.46 -27.67,41.46 -33.86,68.04 -4.12,17.71 -6.04,17.91 -8.88,42.36 -2.9,24.87 2.9,39.9 3.17,48.11 0.63,19.57 23.39,70.71 38.54,87.65l23.35 26.81c21.25,22.19 49.91,36.51 80.95,47.63 48.95,17.54 123.49,7.6 168.11,-20.78 39.3,-24.99 18.4,-13.9 41.53,-33.66 5.94,-5.08 7.44,-7.86 12.31,-14.45 36.7,-49.63 48.99,-95.61 42.31,-160.07 -1.96,-18.91 -19.64,-56.63 -29.05,-73.01 -23.82,-41.48 -69.51,-74.95 -115.33,-88.45 -18.91,-5.57 -22.29,-8.08 -44.61,-8.02 -15.85,0.05 -35.47,-2.41 -49.58,2.29z"/>
  <path class="fil3" d="M255.62 92.45c-11.18,1.14 -21.23,4.68 -28.41,12.91 -5.48,6.28 -12.16,16.79 -11.07,29.9 0.88,10.55 4.98,21.46 12.89,28.25 6.42,5.5 16.85,12.16 29.92,11.09 6.5,-0.53 11.58,-1.71 16.39,-4.18 12.97,-6.66 24.49,-21.12 22.95,-38.6 -0.91,-10.23 -4.94,-21.68 -12.94,-28.26 -4.16,-3.43 -6.97,-5.98 -12.51,-8.13 -4.45,-1.72 -11.77,-3.53 -17.22,-2.98zm-76.36 127.95l23.97 0 0.01 143.91 -25.19 0 0 35.98 155.9 0.01 0 -35.99 -22.79 0 0.01 -179.89 -131.93 0 0.01 3.6 0.01 32.38z"/>
 </g>
</svg>
