<?xml version="1.0" encoding="UTF-8"?>
<!DOCTYPE svg PUBLIC "-//W3C//DTD SVG 1.1//EN" "http://www.w3.org/Graphics/SVG/1.1/DTD/svg11.dtd">
<!-- Creator: CorelDRAW 2020 (64 Bit) -->
<svg xmlns="http://www.w3.org/2000/svg" xml:space="preserve" width="32px" height="32px" version="1.1" style="shape-rendering:geometricPrecision; text-rendering:geometricPrecision; image-rendering:optimizeQuality; fill-rule:evenodd; clip-rule:evenodd"
viewBox="0 0 32 32"
 xmlns:xlink="http://www.w3.org/1999/xlink"
 xmlns:xodm="http://www.corel.com/coreldraw/odm/2003">
 <defs>
  <style type="text/css">
   <![CDATA[
    .fil0 {fill:black;fill-rule:nonzero}
   ]]>
  </style>
 </defs>
 <g id="Camada_x0020_1">
  <metadata id="CorelCorpID_0Corel-Layer"/>
  <path class="fil0" d="M27.19 18.37c0,0.21 -0.01,0.57 -0.04,1.1 -0.03,0.53 -0.07,1.25 -0.11,2.15 -0.04,0.88 -0.07,1.58 -0.09,2.11 -0.02,0.53 -0.03,0.9 -0.03,1.1 0.02,0.27 0.03,0.48 0.04,0.65 0.01,0.16 0.02,0.29 0.02,0.39 0,0.43 -0.07,0.72 -0.22,0.86 -0.1,0.12 -0.89,0.24 -2.38,0.34 -0.88,0.04 -2.68,0.07 -5.41,0.1 -2.72,0.04 -6.42,0.05 -11.1,0.05l-2.91 0c-0.1,-0.04 -0.17,-0.12 -0.21,-0.24l0.06 -0.19c1.25,-0.06 1.95,-0.09 2.11,-0.09l0.71 0.03c0.18,-0.08 0.27,-0.45 0.27,-1.1 0,-0.45 0.01,-1.29 0.02,-2.51 0.01,-1.23 0.02,-2.85 0.04,-4.87 0.02,-2.04 0.04,-3.67 0.05,-4.88 0.01,-1.22 0.02,-2.05 0.02,-2.5l0 -5.02c0,-0.31 -0.14,-0.5 -0.4,-0.58l-2.73 0 -0.09 -0.22 0.15 -0.18c0.23,-0.02 0.44,-0.03 0.65,-0.03 0.2,0 0.38,0 0.55,0 0.26,0 1.03,0.03 2.29,0.09 0.64,0.02 1.14,0.04 1.52,0.05 0.38,0.01 0.64,0.01 0.78,0.01 0.14,0 0.38,0 0.72,-0.01 0.34,-0.01 0.78,-0.03 1.33,-0.05 0.55,-0.02 1,-0.04 1.33,-0.05 0.34,-0.01 0.57,-0.01 0.69,-0.01 -0.1,0 -0.03,0 0.2,0.01 0.24,0.01 0.63,0.03 1.18,0.05l0.37 0.21 -0.09 0.22c-0.07,0 -0.15,0 -0.25,0 -0.08,0 -0.18,-0.01 -0.31,-0.03l-0.58 0c-1.08,0 -1.79,0.07 -2.14,0.21l0 3c0.06,0 0.09,0.29 0.09,0.86 0,1.37 -0.03,3.9 -0.09,7.59 -0.02,1.86 -0.04,3.54 -0.05,5.03 -0.01,1.49 -0.01,2.81 -0.01,3.98l0 0.58 0.12 0.15c0.16,0.04 0.27,0.06 0.31,0.06 0.73,0 1.72,-0.11 2.97,-0.33 1.18,-0.21 2.12,-0.47 2.81,-0.8 0.45,-0.23 0.89,-0.46 1.32,-0.69 0.43,-0.23 0.86,-0.46 1.29,-0.69l0.95 -0.98c1.34,-1.41 2.16,-2.44 2.45,-3.09 0.75,-1.72 1.27,-2.57 1.56,-2.57 0.18,0 0.27,0.24 0.27,0.73zm-15.37 -12.95c-0.06,-0.06 -0.12,-0.09 -0.18,-0.09l-2.39 0c-0.43,0 -0.67,0.07 -0.74,0.21 -0.04,0.78 -0.07,2.07 -0.09,3.89l0.13 -0.06c0.4,-0.78 0.61,-1.32 0.61,-1.62 0,-0.08 -0.04,-0.25 -0.11,-0.51 -0.07,-0.25 -0.11,-0.42 -0.11,-0.5 0,-0.29 0.06,-0.58 0.19,-0.86l0.12 -0.12c0.41,0 0.61,0.21 0.61,0.64l0 0.06c-0.14,0.29 -0.21,0.51 -0.21,0.67 0.02,0.02 0.03,0.05 0.03,0.07 0,0 0.01,0.01 0.03,0.03l0.03 0c0.16,-0.09 0.42,-0.27 0.77,-0.57 0.34,-0.3 0.78,-0.71 1.31,-1.24zm13.01 17.3l-0.21 0.06 -0.12 0.22 0.27 -0.07 0.06 -0.21zm1.6 -3.06l0 -0.37c-0.08,0.06 -0.27,0.33 -0.55,0.8 -1.21,2.06 -2.57,3.62 -4.08,4.68 -0.43,0.18 -0.64,0.37 -0.64,0.55 0.27,0 0.55,-0.04 0.84,-0.12 0.3,-0.08 0.57,-0.19 0.81,-0.32 0.25,-0.13 0.47,-0.29 0.66,-0.48 0.2,-0.18 0.33,-0.38 0.42,-0.61 0.1,-0.39 0.2,-0.65 0.3,-0.79 0.1,-0.15 0.25,-0.32 0.45,-0.51 0.19,-0.19 0.43,-0.43 0.72,-0.72 0.1,-0.1 0.2,-0.21 0.3,-0.34 0.1,-0.12 0.21,-0.23 0.31,-0.33 0.3,-0.37 0.46,-0.85 0.46,-1.44zm-15.01 -9.74c-0.14,0 -0.23,0.07 -0.26,0.22 -0.03,0.14 -0.04,0.22 -0.04,0.24l0.06 0.21c0.14,-0.14 0.22,-0.36 0.24,-0.67zm-0.7 -0.06l-0.18 0.15 0 0.65 0.09 0c0.02,-0.13 0.05,-0.39 0.09,-0.8zm-0.18 1.22l0 -0.21 -0.07 0 0.07 0.21zm15.61 11.36c0,-0.22 -0.01,-0.35 -0.03,-0.39l-0.06 -0.07c-0.06,0.15 -0.15,0.34 -0.28,0.59 -0.12,0.24 -0.26,0.54 -0.42,0.88 -0.35,0.25 -0.71,0.51 -1.08,0.8 -0.36,0.29 -0.75,0.6 -1.16,0.95l0.09 0.12c0.55,-0.22 0.97,-0.33 1.26,-0.33 0.41,0 0.84,0.27 1.31,0.82l-0.18 0.31c-0.06,0 -0.18,-0.05 -0.37,-0.15 -0.18,-0.11 -0.31,-0.16 -0.4,-0.16 -0.04,0 -0.11,0.02 -0.21,0.05 -0.1,0.03 -0.21,0.06 -0.34,0.11 -0.12,0.04 -0.24,0.07 -0.35,0.1 -0.11,0.03 -0.2,0.05 -0.26,0.05 -0.16,0 -0.46,-0.07 -0.89,-0.22 -0.4,-0.14 -0.7,-0.21 -0.88,-0.21 -0.68,0 -1.2,0.23 -1.57,0.7l0.98 0.07c0.04,0 0.17,0 0.37,0 0.23,0 0.51,-0.02 0.86,-0.04 0.43,-0.02 0.83,-0.03 1.19,-0.04 0.37,-0.01 0.7,-0.02 0.98,-0.02l0.52 0c0.1,0.02 0.19,0.03 0.25,0.03 0.08,0 0.14,0 0.18,0 0.33,-0.32 0.49,-1.64 0.49,-3.95zm-1.84 2.88l-0.06 -0.06c-0.1,0 -0.18,0.05 -0.24,0.15l0.3 -0.09zm-0.76 0.43l0 -0.06 -0.15 0 0.15 0.06zm-11.24 -15.37c0,-0.14 0,-0.4 0,-0.77 0,-0.36 -0.01,-0.85 -0.03,-1.47 -0.02,-0.61 -0.03,-1.1 -0.03,-1.46 0,-0.37 0,-0.63 0,-0.77l-0.15 0c-2.06,1.29 -3.1,2.69 -3.1,4.23 0,0.38 0.16,0.86 0.46,1.43 0.31,0.58 0.61,0.92 0.89,1.05l0.06 -0.25c0,-0.06 -0.01,-0.16 -0.03,-0.31 -0.02,-0.14 -0.04,-0.29 -0.07,-0.46 -0.03,-0.16 -0.06,-0.31 -0.08,-0.45 -0.02,-0.15 -0.03,-0.25 -0.03,-0.31 0,-1.37 0.56,-2.57 1.68,-3.61l0.22 0.12c-0.04,0.1 -0.08,0.19 -0.13,0.27 -0.04,0.09 -0.08,0.18 -0.12,0.28 -0.16,0.39 -0.24,0.63 -0.24,0.73 0,0.07 0.01,0.16 0.04,0.28 0.03,0.12 0.06,0.25 0.1,0.38 0.03,0.14 0.06,0.27 0.09,0.4 0.03,0.13 0.04,0.23 0.04,0.29 0,0.19 -0.15,0.61 -0.46,1.29 -0.3,0.67 -0.46,1.11 -0.46,1.31 0,0.25 0.17,0.83 0.49,1.75 0.33,0.92 0.49,1.5 0.49,1.75 0,0.75 -0.49,1.77 -1.47,3.06 -0.98,1.28 -1.47,2.33 -1.47,3.15 0,0.31 0.19,0.83 0.56,1.56 0.36,0.8 0.67,1.2 0.91,1.2l0.16 -0.06c-0.1,-0.33 -0.2,-0.61 -0.28,-0.83l0 -2.08c0.17,-1 0.65,-1.81 1.44,-2.42l0.09 0.15c0,0.14 -0.08,0.35 -0.24,0.63 -0.17,0.27 -0.25,0.47 -0.25,0.6 0,0.08 0.03,0.27 0.1,0.56 0.06,0.3 0.09,0.49 0.09,0.57l-0.13 0.03c-0.1,-0.08 -0.14,-0.13 -0.12,-0.15 -0.02,0.02 -0.04,0.03 -0.06,0.03 0,0 -0.01,0.01 -0.03,0.03l0 0.43c-0.18,0.06 -0.28,0.19 -0.28,0.39l0.07 0.16c0.16,-0.17 0.33,-0.29 0.52,-0.37 0,0.12 -0.13,0.46 -0.37,1.01 -0.25,0.53 -0.37,0.87 -0.37,1.01 0,0.35 0.12,0.68 0.37,1.01 0.24,0.33 0.51,0.49 0.79,0.49 0,0 0.07,-0.02 0.19,-0.06l0 -0.4c0,-0.24 0,-0.7 0.01,-1.38 0.01,-0.67 0.03,-1.57 0.05,-2.69 0.06,-2.23 0.09,-3.58 0.09,-4.07l0 -7.26zm8.3 15.22l-0.06 -0.06c-0.29,0.1 -0.69,0.31 -1.2,0.64l0.28 0c0.39,0 0.71,-0.19 0.98,-0.58zm-11.24 -8.73l0 -0.55 -0.09 -0.06 -0.06 0.61 0.15 0zm2.18 -0.34c0.02,-0.85 -0.44,-1.99 -1.38,-3.39 -1.02,-1.47 -1.54,-2.39 -1.56,-2.76l-0.1 0c-0.04,0.9 -0.07,1.84 -0.09,2.83 -0.02,0.99 -0.03,2.05 -0.03,3.17 0,0.08 0.01,0.23 0.02,0.45 0.01,0.21 0.02,0.5 0.04,0.87 0.02,0.35 0.04,0.63 0.05,0.86 0.01,0.22 0.01,0.37 0.01,0.45 0,0.17 -0.01,0.47 -0.03,0.92 -0.02,0.45 -0.05,1.04 -0.09,1.78 -0.06,1.47 -0.09,2.38 -0.09,2.72l0 0.77c0.02,0.02 0.04,0.04 0.05,0.06 0.01,0.02 0.02,0.04 0.04,0.06l0 0.03c0.04,0 0.14,-0.02 0.28,-0.07 0.14,-0.05 0.23,-0.08 0.27,-0.08 0.09,0 0.26,0.02 0.52,0.05 0.27,0.03 0.44,0.04 0.52,0.04l0 -0.09c-0.93,-1.12 -1.4,-2.16 -1.4,-3.12 0,-0.35 0.15,-0.91 0.46,-1.69 0.3,-0.75 0.45,-1.2 0.45,-1.34 0,-0.15 -0.09,-0.55 -0.27,-1.2 -0.18,-0.63 -0.28,-1.03 -0.28,-1.19 0,-0.19 0.04,-0.48 0.13,-0.89 0.1,-0.51 0.15,-0.81 0.15,-0.89 0,-0.06 -0.02,-0.15 -0.05,-0.27 -0.03,-0.13 -0.06,-0.25 -0.1,-0.37 -0.04,-0.12 -0.08,-0.24 -0.11,-0.34 -0.03,-0.1 -0.05,-0.17 -0.05,-0.21l0.16 -0.03c0.34,0.16 0.64,0.58 0.88,1.25 0.27,0.61 0.4,1.19 0.4,1.72 0,0.14 -0.06,0.5 -0.18,1.07 -0.12,0.59 -0.19,0.96 -0.19,1.1 0,0.02 0.03,0.05 0.07,0.09 0.32,-0.16 0.65,-0.5 0.98,-1.01 0.34,-0.57 0.52,-1.02 0.52,-1.35zm-0.22 9.89c-0.14,-0.44 -0.65,-0.67 -1.53,-0.67 -0.06,0 -0.16,0.03 -0.29,0.08 -0.13,0.05 -0.27,0.11 -0.41,0.2 -0.15,0.08 -0.27,0.16 -0.39,0.24 -0.11,0.08 -0.17,0.15 -0.2,0.22l0.1 0.18 2.08 0c0.33,0 0.54,-0.08 0.64,-0.25zm-2.17 -0.82l0 -0.06 -0.06 0 0.06 0.06z"/>
 </g>
</svg>
