<?xml version="1.0" encoding="UTF-8"?>
<!DOCTYPE svg PUBLIC "-//W3C//DTD SVG 1.1//EN" "http://www.w3.org/Graphics/SVG/1.1/DTD/svg11.dtd">
<!-- Creator: CorelDRAW 2020 (64 Bit) -->
<svg xmlns="http://www.w3.org/2000/svg" xml:space="preserve" width="32px" height="32px" version="1.1" style="shape-rendering:geometricPrecision; text-rendering:geometricPrecision; image-rendering:optimizeQuality; fill-rule:evenodd; clip-rule:evenodd"
viewBox="0 0 32 32"
 xmlns:xlink="http://www.w3.org/1999/xlink"
 xmlns:xodm="http://www.corel.com/coreldraw/odm/2003">
 <defs>
  <style type="text/css">
   <![CDATA[
    .fil0 {fill:black;fill-rule:nonzero}
   ]]>
  </style>
 </defs>
 <g id="Camada_x0020_1">
  <metadata id="CorelCorpID_0Corel-Layer"/>
  <path class="fil0" d="M27.41 26.92c0,0.14 -0.07,0.21 -0.21,0.21 -0.19,0 -0.53,0 -1.04,0 -0.5,0 -1.18,0.01 -2.03,0.03 -0.85,0.02 -1.53,0.03 -2.04,0.03 -0.49,0 -0.82,0 -1,0 -0.22,0 -0.77,-0.03 -1.64,-0.09 -0.43,-0.02 -0.76,-0.03 -1,-0.04 -0.25,-0.01 -0.41,-0.02 -0.49,-0.02l-0.06 -0.15 0.12 -0.21c0.06,-0.02 0.14,-0.03 0.24,-0.03 0.08,0 0.21,0 0.37,0 0.16,0 0.36,0.01 0.61,0.03 0.24,0.02 0.43,0.03 0.57,0.03 0.16,0 0.29,0 0.37,0l0.15 -0.09c0.02,-0.02 -2.66,-3.03 -8.05,-9.03l-0.27 0.04 0 0.33c0,0.16 0,0.36 0,0.61 0,0.22 -0.02,0.49 -0.04,0.82 -0.02,0.32 -0.03,0.57 -0.03,0.76 0,0.16 0,0.25 0,0.27 0,0.12 0.01,0.36 0.02,0.71 0.01,0.36 0.03,0.83 0.05,1.42 0.06,1.15 0.09,1.86 0.09,2.12l0 0.94 0 0.55c-0.02,0.1 -0.03,0.18 -0.03,0.24 0,0.07 0,0.12 0,0.16l0.09 0.09 1.85 0c0.04,0.02 0.07,0.04 0.09,0.06 0.02,0.02 0.04,0.04 0.06,0.06l0 0.09c-0.06,0.1 -0.13,0.16 -0.21,0.18l-0.85 0c-0.91,0 -1.77,0.01 -2.58,0.03 -0.81,0.02 -1.54,0.04 -2.18,0.05 -0.63,0.01 -1.18,0.02 -1.62,0.04 -0.45,0.02 -0.76,0.03 -0.94,0.03 -0.49,0 -0.77,-0.09 -0.85,-0.27l0.09 -0.15c0.4,-0.04 0.73,-0.08 0.99,-0.11 0.25,-0.03 0.42,-0.04 0.5,-0.04l0.63 0.03 0.1 -0.09 0 -0.76c-0.02,-0.19 -0.03,-0.35 -0.03,-0.49 0,-0.14 0,-0.26 0,-0.36 0,-0.69 0.03,-1.91 0.09,-3.65 0.08,-2.02 0.13,-4.28 0.16,-6.76 0.03,-2.48 0.05,-5.23 0.05,-8.25 0,-0.04 0.01,-0.07 0.03,-0.09l0 -0.15c0,-0.43 -0.56,-0.64 -1.67,-0.64l-0.49 0c-0.1,0.02 -0.25,0.03 -0.45,0.03l-0.19 -0.09 -0.15 -0.18c0,-0.02 0.02,-0.05 0.06,-0.09 0.25,-0.02 0.46,-0.03 0.64,-0.03 0.2,0 0.39,-0.01 0.55,-0.03l8.66 0.06 0 0.09c0,0.1 -0.01,0.16 -0.03,0.18l-0.19 0.09 -1.91 0 -0.15 0.12 0 0.37c0,0.3 -0.03,0.88 -0.09,1.73 -0.02,0.4 -0.04,0.73 -0.05,0.97 -0.01,0.25 -0.01,0.4 -0.01,0.46 0,0.12 0.03,0.25 0.09,0.39 0,0.02 -0.02,0.1 -0.05,0.25 -0.03,0.14 -0.04,0.23 -0.04,0.27l0 5.95 0.09 0c0.32,-0.28 0.94,-0.95 1.85,-2 0.16,-0.22 0.33,-0.45 0.52,-0.68 0.18,-0.24 0.36,-0.47 0.54,-0.69 0.39,-0.63 0.97,-1.42 1.74,-2.37 0.16,-0.12 0.82,-0.87 1.97,-2.25 1.15,-1.35 1.78,-2.15 1.88,-2.4l0 -0.09c0,-0.04 -0.02,-0.08 -0.06,-0.12l-1.79 -0.12c0,-0.26 0.41,-0.4 1.22,-0.43l2.21 0c0.33,0 0.61,0.01 0.84,0.02 0.23,0.01 0.42,0.03 0.56,0.05l0.09 0.15 -0.09 0.12c-1.3,0.1 -2.04,0.21 -2.22,0.33 -0.16,0.21 -0.32,0.41 -0.47,0.61 -0.15,0.2 -0.31,0.41 -0.47,0.61l-1.85 2.31c-0.27,0.28 -0.53,0.57 -0.79,0.88 -0.27,0.3 -0.53,0.6 -0.79,0.88 -1.2,1.42 -2,2.46 -2.4,3.13l0.12 0.3c0.14,0.2 3.89,4.38 11.24,12.52 0.12,-0.04 0.39,-0.06 0.82,-0.06 0.39,0 0.58,0.09 0.58,0.27zm-18.41 -19.84l-0.03 -0.27c-0.04,-0.04 -0.07,-0.06 -0.09,-0.06l-0.09 0.33 0.21 0zm10.99 14.22c-0.08,-0.22 -0.44,-0.63 -1.09,-1.21 -0.3,-0.29 -0.6,-0.6 -0.88,-0.93 -0.28,-0.34 -0.57,-0.67 -0.85,-1.02 -0.26,-0.34 -0.5,-0.64 -0.71,-0.9 -0.22,-0.25 -0.4,-0.45 -0.57,-0.59l-0.15 0.19c0,0.54 0.18,0.94 0.55,1.18 0.36,0.22 0.57,0.46 0.61,0.7 0.02,0.16 0.03,0.33 0.04,0.52 0.01,0.18 0.03,0.36 0.05,0.54 0.08,0.35 1.05,0.87 2.91,1.58l0.09 -0.06zm-9.99 -10.63l-0.06 -0.12 -0.15 0.24 0 0.52c0,0.1 0.04,0.18 0.12,0.24l0.03 -0.03c0.02,-0.22 0.03,-0.41 0.04,-0.55 0.01,-0.14 0.02,-0.24 0.02,-0.3zm14.34 15.49c-0.81,-1.09 -2.04,-2.46 -3.68,-4.1l-0.06 0c0,0.06 0.03,0.2 0.08,0.43 0.05,0.22 0.07,0.37 0.07,0.45 0,0.04 -0.01,0.12 -0.03,0.23 -0.02,0.11 -0.03,0.23 -0.04,0.35 -0.01,0.12 -0.03,0.24 -0.05,0.35 -0.02,0.11 -0.03,0.19 -0.03,0.26 0,0.73 0.15,1.23 0.46,1.5 0.3,0.27 0.83,0.41 1.58,0.41l-0.03 -0.12c-0.97,-0.35 -1.46,-0.96 -1.46,-1.86 0,-0.48 0.08,-0.81 0.24,-0.97l0.19 0.16 0.15 0.75c0,0.02 0.21,0.19 0.63,0.49 0.67,1.16 1.3,1.73 1.89,1.73 0.06,0 0.09,-0.02 0.09,-0.06zm-7.9 -7.26c0,-0.12 -0.04,-0.22 -0.12,-0.3l-0.09 0.18c0,0.1 0.05,0.2 0.15,0.3 0.04,-0.12 0.06,-0.18 0.06,-0.18zm5.65 6.35c-0.06,-0.14 -0.21,-0.32 -0.45,-0.55 0,0 -0.02,0.02 -0.06,0.06 0.08,0.19 0.22,0.35 0.42,0.49l0.09 0zm-5.86 -5.1l0 -0.03c-0.29,-0.41 -0.43,-0.65 -0.43,-0.73 0,0 0.05,-0.08 0.15,-0.25 0,-0.22 -0.05,-0.33 -0.15,-0.33l-0.06 0c-0.04,0.04 -0.07,0.09 -0.09,0.15 -0.26,-0.08 -0.39,-0.54 -0.39,-1.37 0,-0.08 0.03,-0.29 0.09,-0.63 0.08,-0.31 0.12,-0.51 0.12,-0.61l0 -0.18c-0.63,-0.83 -1.12,-1.3 -1.46,-1.4 -0.36,0.08 -0.98,0.76 -1.85,2.03l0 0.07c0.14,0.22 0.59,0.7 1.36,1.45l0.1 0c0.04,0 0.11,-0.01 0.21,-0.03 0.1,-0.02 0.16,-0.03 0.18,-0.03l0 -0.15c-0.24,-0.08 -0.52,-0.26 -0.82,-0.55 -0.2,-0.2 -0.37,-0.36 -0.5,-0.48 -0.13,-0.12 -0.22,-0.2 -0.26,-0.24l0.15 -0.22 0.25 -0.09c0.26,0 0.5,0.11 0.72,0.34 0.05,0.06 0.1,0.12 0.16,0.18 0.06,0.06 0.11,0.12 0.15,0.18 0.1,-0.1 0.2,-0.8 0.3,-2.1l0.27 0.16 0 0.48c0,0.1 -0.02,0.32 -0.09,0.64 -0.02,0.16 -0.03,0.3 -0.04,0.43 -0.01,0.12 -0.02,0.2 -0.02,0.24 0,0.55 0.21,1.2 0.61,1.97 0.43,0.81 0.84,1.22 1.25,1.22 0.06,0 0.09,-0.04 0.09,-0.12zm2.85 2.34l-0.15 -0.16 -0.06 0 0.21 0.16zm4.44 4.22c-0.1,-0.22 -0.9,-0.41 -2.4,-0.55 -0.3,-0.12 -0.57,-0.51 -0.79,-1.15 -0.04,-0.17 -0.09,-0.34 -0.15,-0.52 -0.06,-0.18 -0.11,-0.35 -0.15,-0.52l-1.01 -0.54c-0.6,-0.33 -0.93,-0.66 -0.97,-1.01 -0.16,-0.1 -0.35,-0.29 -0.58,-0.57 0.04,-0.1 0.12,-0.15 0.22,-0.15 0.54,0 1.04,0.17 1.48,0.51 0.03,0.04 0.36,0.41 1.01,1.1l0.09 -0.06 0 -0.25c0,-0.67 -0.26,-1.16 -0.76,-1.49 -0.37,-0.2 -0.93,-0.37 -1.7,-0.51 -0.85,-0.15 -1.45,-0.3 -1.79,-0.46l-0.28 -0.21c-0.28,-0.18 -0.49,-0.28 -0.64,-0.28 0.17,0.33 0.71,1 1.63,2.01 0.92,1.01 2.21,2.38 3.87,4.1 0.33,0.37 0.54,0.55 0.64,0.55l2.28 0zm-4.74 -3.8l-0.06 -0.21 -0.21 -0.09c0,0.2 0.09,0.3 0.27,0.3zm-4.25 -3.55c-0.06,-0.41 -0.21,-0.66 -0.43,-0.76l-0.21 0.15c0.04,0.08 0.11,0.17 0.2,0.26 0.09,0.09 0.2,0.21 0.34,0.35l0.1 0zm0.18 0.27l0 -0.06 -0.06 -0.06 0.06 0.12zm-3.4 -13.31l0 -0.27 -0.13 -0.09c-0.06,0.06 -0.31,0.51 -0.76,1.34 -0.18,0.2 -0.36,0.4 -0.54,0.6 -0.18,0.21 -0.37,0.41 -0.55,0.61 -0.67,0.79 -1,1.35 -1,1.67 0,0.89 0.41,1.64 1.24,2.25l0.1 -0.12c0,-0.06 -0.02,-0.16 -0.05,-0.29 -0.03,-0.13 -0.06,-0.27 -0.09,-0.41 -0.03,-0.14 -0.06,-0.27 -0.08,-0.39 -0.02,-0.13 -0.03,-0.22 -0.03,-0.28 0,-0.42 0.43,-1.17 1.28,-2.25l0.03 0c0,0.06 -0.02,0.15 -0.05,0.28 -0.03,0.12 -0.06,0.24 -0.1,0.36 -0.04,0.12 -0.08,0.24 -0.11,0.35 -0.03,0.11 -0.05,0.19 -0.05,0.23 0,0.04 0.02,0.11 0.05,0.23 0.03,0.11 0.06,0.22 0.09,0.35 0.03,0.12 0.06,0.23 0.09,0.34 0.03,0.12 0.05,0.19 0.05,0.23l0 0.06c-0.04,0.04 -0.07,0.08 -0.08,0.12 -0.01,0.05 -0.02,0.08 -0.04,0.1l-0.03 -0.03c-0.02,-0.09 -0.08,-0.16 -0.19,-0.22l-0.09 0.34c0.06,0.16 0.13,0.28 0.22,0.36 0,0.04 -0.02,0.11 -0.07,0.2 -0.04,0.09 -0.08,0.19 -0.12,0.3 -0.04,0.11 -0.08,0.22 -0.12,0.32 -0.04,0.1 -0.06,0.18 -0.06,0.24 0,0.05 0.13,0.45 0.4,1.22 0.26,0.77 0.39,1.32 0.39,1.64 0,1.11 -0.23,2.06 -0.7,2.83 -0.22,0.26 -0.43,0.52 -0.64,0.79 -0.2,0.26 -0.41,0.52 -0.63,0.79 -0.45,0.62 -0.67,1.23 -0.67,1.82 0,1.38 0.26,2.28 0.79,2.7l0.12 -0.24c0,-0.14 0,-0.27 0,-0.4 0,-0.12 -0.01,-0.23 -0.03,-0.33l0 -0.7c0,-1.25 0.42,-2.18 1.27,-2.76l0.13 0c0,0.08 -0.05,0.24 -0.14,0.48 -0.09,0.25 -0.14,0.41 -0.14,0.49 0,0.04 0.01,0.12 0.03,0.23 0.02,0.11 0.05,0.23 0.08,0.36 0.03,0.13 0.06,0.26 0.08,0.37 0.02,0.11 0.03,0.19 0.03,0.25l0 0.22c-0.49,1.27 -0.73,1.96 -0.73,2.06 0,0.37 0.11,0.72 0.35,1.05 0.23,0.34 0.5,0.5 0.8,0.5 0.14,-0.06 0.21,-0.33 0.21,-0.82 0,-0.16 -0.03,-0.51 -0.09,-1.06 -0.02,-0.28 -0.03,-0.51 -0.04,-0.67 -0.01,-0.16 -0.02,-0.28 -0.02,-0.36l0 -3.89c0,-0.08 0.02,-0.28 0.06,-0.58 0.04,-0.3 0.06,-0.5 0.06,-0.58 0,-0.28 0.01,-0.82 0.03,-1.62 0.02,-0.8 0.05,-1.85 0.1,-3.15 0.04,-1.29 0.07,-2.34 0.1,-3.13 0.03,-0.79 0.05,-1.32 0.05,-1.61 0,-0.14 -0.01,-0.32 -0.02,-0.56 -0.01,-0.23 -0.01,-0.46 -0.01,-0.68 0,-0.24 -0.01,-0.47 -0.02,-0.69 -0.01,-0.21 -0.01,-0.37 -0.01,-0.5zm-0.61 -0.15c0,-0.51 -0.13,-0.76 -0.4,-0.76l-0.66 0c-0.71,0 -1.1,0.01 -1.16,0.03 -0.46,0.06 -0.7,0.24 -0.7,0.52l0 11.09c0,0.42 -0.03,1.59 -0.09,3.49 -0.02,0.97 -0.03,1.74 -0.04,2.31 -0.01,0.57 -0.02,0.95 -0.02,1.15l0 1.4c0.04,0.2 0.06,0.32 0.06,0.34l0 0.12c-0.02,0.18 -0.03,0.31 -0.04,0.39 -0.01,0.08 -0.02,0.11 -0.02,0.09 0,0.25 0.25,0.37 0.76,0.37 0.1,0 0.25,0 0.46,0 0.2,0 0.44,-0.01 0.72,-0.03 0.29,-0.02 0.5,-0.03 0.64,-0.03 0.17,0 0.26,0 0.28,0l0 -0.09c-0.19,-0.41 -0.47,-0.61 -0.85,-0.61 -0.09,0 -0.26,0.03 -0.52,0.11 -0.26,0.07 -0.44,0.1 -0.52,0.1 -0.46,0 -0.7,-0.12 -0.7,-0.36l0.16 -0.25c0.08,-0.02 0.2,-0.04 0.36,-0.06 0.16,-0.02 0.39,-0.04 0.67,-0.06l0 -0.18c-0.83,-0.79 -1.25,-1.66 -1.25,-2.61 0,-0.67 0.2,-1.49 0.58,-2.46 0.41,-1.04 0.61,-1.64 0.61,-1.83 0,-0.22 -0.26,-0.83 -0.76,-1.82l-0.03 -0.24c0,-0.06 0.02,-0.16 0.07,-0.29 0.05,-0.13 0.11,-0.27 0.16,-0.41 0.05,-0.14 0.1,-0.28 0.15,-0.41 0.05,-0.13 0.07,-0.23 0.07,-0.29 0,-0.1 -0.05,-0.27 -0.16,-0.5 -0.11,-0.23 -0.17,-0.39 -0.17,-0.47 0.49,0 0.85,0.4 1.09,1.21 0.19,0.59 0.28,1.21 0.28,1.86 0,0.06 -0.01,0.15 -0.03,0.29 -0.02,0.13 -0.05,0.29 -0.09,0.5 -0.09,0.34 -0.13,0.59 -0.13,0.76l0.19 0c0.64,-0.65 0.97,-1.47 0.97,-2.46 0,-0.85 -0.35,-1.73 -1.03,-2.62 -0.9,-1.21 -1.41,-1.99 -1.55,-2.34l0 -0.6c0,-0.29 0.11,-0.76 0.33,-1.43 0.24,-0.63 0.36,-0.93 0.36,-0.91 0,-0.08 -0.08,-0.25 -0.24,-0.49 -0.16,-0.24 -0.24,-0.42 -0.24,-0.55 0,-0.06 0.02,-0.17 0.07,-0.33 0.05,-0.16 0.08,-0.26 0.08,-0.3 -0.02,-0.06 -0.05,-0.14 -0.09,-0.23 -0.04,-0.09 -0.08,-0.19 -0.12,-0.29l0 -0.03c0.02,-0.08 0.09,-0.12 0.21,-0.12 0.18,0 0.48,0.32 0.88,0.97l0 0.18c0,0.06 -0.01,0.22 -0.04,0.46 -0.04,0.24 -0.05,0.4 -0.05,0.48l0.15 0c0.89,-1.01 1.34,-1.6 1.34,-1.76zm-1.34 10.91l0 -0.97 -0.06 0 0.06 0.97zm-0.45 -0.49l0 -0.39 -0.16 -0.16 -0.15 0.22 0.22 0.45 0.09 -0.12zm0.91 4.83l-0.15 0.15c-0.13,0.25 -0.21,0.57 -0.25,0.98l0.09 0c0.21,-0.39 0.31,-0.76 0.31,-1.13zm0.18 1.4l0 -0.49 -0.06 -0.06 -0.18 0.19 -0.03 0.27 0.12 0.18 0.15 -0.09zm-0.55 0.15l0 -0.21 -0.09 0 0 0.21 0.09 0z"/>
 </g>
</svg>
