<?xml version="1.0" encoding="UTF-8"?>
<!DOCTYPE svg PUBLIC "-//W3C//DTD SVG 1.1//EN" "http://www.w3.org/Graphics/SVG/1.1/DTD/svg11.dtd">
<!-- Creator: CorelDRAW 2020 (64 Bit) -->
<svg xmlns="http://www.w3.org/2000/svg" xml:space="preserve" width="32px" height="32px" version="1.1" style="shape-rendering:geometricPrecision; text-rendering:geometricPrecision; image-rendering:optimizeQuality; fill-rule:evenodd; clip-rule:evenodd"
viewBox="0 0 32 32"
 xmlns:xlink="http://www.w3.org/1999/xlink"
 xmlns:xodm="http://www.corel.com/coreldraw/odm/2003">
 <defs>
  <style type="text/css">
   <![CDATA[
    .fil0 {fill:black;fill-rule:nonzero}
   ]]>
  </style>
 </defs>
 <g id="Camada_x0020_1">
  <metadata id="CorelCorpID_0Corel-Layer"/>
  <path class="fil0" d="M29.34 25.79l-0.07 0.2 -8.9 0 -0.17 -0.27c0,-0.15 0.19,-0.22 0.56,-0.22l0.72 0c0.18,-0.03 0.29,-0.1 0.33,-0.23 -0.11,-0.4 -0.57,-1.48 -1.38,-3.24 -0.24,-0.57 -0.52,-1.21 -0.85,-1.92 -0.32,-0.71 -0.71,-1.49 -1.14,-2.34l-0.95 0c-0.9,0 -2.47,-0.03 -4.71,-0.1 -1.12,-0.04 -1.98,-0.07 -2.61,-0.09 -0.62,-0.03 -0.98,-0.04 -1.09,-0.04l-0.3 0c-0.15,0.11 -0.87,1.41 -2.16,3.9 -1.28,2.51 -1.93,3.84 -1.93,3.99 0,0.02 0.03,0.05 0.07,0.1l1.34 0 0.29 0.26 -0.16 0.16c-0.19,0.07 -0.85,0.1 -1.96,0.1 -0.98,0 -1.52,-0.11 -1.61,-0.33l0.14 -0.19c0.08,0 0.27,0.01 0.55,0.03 0.29,0.02 0.46,0.03 0.53,0.03 0.02,-0.02 1.61,-3.11 4.77,-9.26 0.16,-0.41 0.37,-0.9 0.64,-1.47 0.27,-0.57 0.6,-1.23 0.97,-2 0.61,-1.2 1.27,-2.5 1.98,-3.92 0.71,-1.42 1.47,-2.98 2.3,-4.68 0.51,-1.62 1.06,-2.42 1.67,-2.42 0.24,-0.07 0.52,0.18 0.82,0.75 0.15,0.26 0.44,0.9 0.85,1.93 0.35,0.83 0.69,1.65 1.02,2.45 0.32,0.81 0.65,1.63 0.98,2.46 0.3,0.76 0.69,1.61 1.16,2.55 0.47,0.94 1.01,2 1.62,3.17 0.46,0.9 0.94,1.9 1.46,3 0.51,1.1 1.05,2.32 1.62,3.65 0.13,0.43 0.25,0.82 0.36,1.16 0.1,0.34 0.21,0.63 0.32,0.87 0.46,1.11 0.94,1.69 1.44,1.73 -0.13,0 -0.21,-0.01 -0.23,-0.03 0.07,-0.02 0.54,-0.03 1.41,-0.03 0.02,0.02 0.05,0.04 0.1,0.08 0.04,0.03 0.11,0.09 0.2,0.18l0 0.03zm-13.09 -19.6l0 -0.07c0,-0.06 -0.03,-0.09 -0.07,-0.09l0.07 0.16zm2.48 4.94c-0.09,-0.17 -0.17,-0.34 -0.26,-0.49 -0.09,-0.15 -0.18,-0.32 -0.29,-0.49 -0.33,-0.61 -0.49,-1.21 -0.49,-1.8 0,-0.33 0.19,-0.68 0.58,-1.05 -0.08,-0.26 -0.19,-0.54 -0.32,-0.85 -0.13,-0.31 -0.31,-0.64 -0.53,-1.01l-0.03 0 -0.29 1.47c-0.18,0.87 -0.27,1.39 -0.27,1.57 0,0.5 0.19,1.21 0.56,2.13 0.11,0.08 0.52,0.28 1.24,0.59l0.1 -0.07zm2 1.34c-0.26,-0.63 -0.59,-1.35 -0.97,-2.14 -0.38,-0.8 -0.82,-1.68 -1.32,-2.64l-0.17 0.13 0 0.59c0.55,0.51 0.84,1.36 0.89,2.56 0.28,0.45 0.78,0.98 1.5,1.57l0.07 -0.07zm4.81 12.99c0,-0.24 -0.24,-0.39 -0.72,-0.46 -0.39,-0.04 -0.7,-0.08 -0.93,-0.13 -0.23,-0.04 -0.38,-0.07 -0.45,-0.09 -0.45,-0.16 -0.68,-0.5 -0.68,-1.02 0,-0.11 0.06,-0.16 0.19,-0.16l0.04 0c0.22,0.17 0.51,0.35 0.88,0.52 0.07,-0.02 0.1,-0.06 0.1,-0.13l-0.03 -0.03c-1.95,-1.94 -2.98,-3.59 -3.11,-4.94 -0.07,-0.68 -0.13,-1.12 -0.2,-1.31 -0.15,-0.57 -0.56,-1.2 -1.21,-1.9 -0.26,-0.28 -0.39,-0.87 -0.39,-1.77 -0.44,-0.39 -0.66,-0.77 -0.66,-1.14 0.42,0 0.86,0.2 1.34,0.62 0.44,0.37 0.7,0.68 0.79,0.91 0.11,0.27 0.23,0.79 0.36,1.58l0.16 0.19 0.17 -0.16c0.11,-0.37 0.16,-0.67 0.16,-0.89 0,-0.32 -0.07,-0.67 -0.21,-1.03 -0.14,-0.36 -0.35,-0.7 -0.61,-1.03 -0.26,-0.32 -0.56,-0.62 -0.91,-0.88 -0.35,-0.26 -0.74,-0.47 -1.15,-0.62 -0.96,-0.35 -1.55,-0.78 -1.77,-1.28 -0.19,-0.41 -0.29,-1.26 -0.29,-2.55 -0.11,-0.22 -0.23,-0.43 -0.36,-0.62 -0.13,-0.2 -0.25,-0.4 -0.36,-0.59 -0.22,-0.46 -0.33,-1.05 -0.33,-1.77 0.05,-0.11 0.12,-0.16 0.23,-0.16 0.31,0 0.55,0.21 0.72,0.62 0.18,0.41 0.34,0.83 0.49,1.24 0.13,-0.06 0.2,-0.15 0.2,-0.26 0,-0.46 -0.13,-1.07 -0.4,-1.83 -0.21,-0.74 -0.45,-1.19 -0.71,-1.34l-0.23 0.16c-0.66,1.24 -0.99,2.09 -0.99,2.55 0,0.94 0.98,3.2 2.92,6.78 0.61,1.87 1.26,3.41 1.96,4.61 0.42,1.35 1.32,3.42 2.72,6.19 0.17,0.37 0.34,0.91 0.49,1.63 0.08,0.33 0.3,0.49 0.65,0.49l2.13 0zm-4.94 -9.65c0,-0.9 -0.27,-1.52 -0.82,-1.87l-0.1 0.1c0.26,0.39 0.54,0.98 0.82,1.77l0.1 0zm-0.59 -0.26c0,-0.42 -0.13,-0.68 -0.39,-0.79l-0.07 0.26c0,0.35 0.15,0.53 0.46,0.53zm2.45 5.89c0,-0.18 -0.06,-0.49 -0.19,-0.95 -0.13,-0.48 -0.2,-0.79 -0.2,-0.92 0,-0.24 0.07,-0.74 0.2,-1.5 0.13,-0.74 0.19,-1.17 0.19,-1.28 0,-0.39 -0.17,-0.86 -0.52,-1.41l-0.07 0c-0.06,0.18 -0.19,0.68 -0.39,1.51 -0.2,0.83 -0.29,1.32 -0.29,1.47 0,0.2 0.09,0.57 0.29,1.11 0.2,0.53 0.3,0.88 0.3,1.05 0.08,0.18 0.31,0.48 0.68,0.92zm3.86 3.66l0 -0.26 -1.11 -2.68c-0.17,-0.24 -0.45,-0.75 -0.83,-1.52 -0.38,-0.78 -0.88,-1.83 -1.49,-3.16l-0.1 0c0.02,0.39 0.15,0.85 0.39,1.37 0.26,0.53 0.4,0.83 0.4,0.92 0,0.52 -0.1,1.11 -0.3,1.77 0.02,0.74 0.37,1.52 1.05,2.35 0.65,0.81 1.32,1.21 1.99,1.21zm-3.2 -5.23l0 -0.07 -0.13 -0.26 -0.27 0.16 -0.22 -0.49 -0.14 -0.06c0.03,0.83 0.14,1.29 0.33,1.4 0,-0.3 0.14,-0.53 0.43,-0.68zm-5.6 -4.39c-0.04,0.05 -0.6,-1.26 -1.67,-3.92 -0.56,-1.42 -1.01,-2.51 -1.34,-3.26 -0.33,-0.75 -0.51,-1.18 -0.56,-1.29l-0.06 0c-0.18,0 -0.37,0.26 -0.59,0.78 -0.37,0.77 -0.73,1.53 -1.08,2.29 -0.35,0.77 -0.71,1.53 -1.08,2.29 -0.92,1.88 -1.37,2.88 -1.37,3.01l0 0.07c0.52,0.04 1.34,0.08 2.45,0.11 1.11,0.04 2.53,0.05 4.25,0.05l0.82 0c0.13,0 0.21,-0.04 0.23,-0.13zm0.46 1.02c0,-0.29 -0.54,-0.46 -1.6,-0.53l-2.59 0 -4.25 0 -0.17 0.13 0.17 0.17c0.83,0.11 1.66,0.19 2.5,0.26 0.84,0.06 1.67,0.1 2.5,0.1 0.37,0 0.76,-0.01 1.15,-0.02 0.39,-0.01 0.78,-0.03 1.18,-0.05l1.11 -0.06z"/>
 </g>
</svg>
