<?xml version="1.0" encoding="UTF-8"?>
<!DOCTYPE svg PUBLIC "-//W3C//DTD SVG 1.1//EN" "http://www.w3.org/Graphics/SVG/1.1/DTD/svg11.dtd">
<!-- Creator: CorelDRAW 2020 (64 Bit) -->
<?xml-stylesheet href="inicial-j.css" type="text/css"?>
<svg xmlns="http://www.w3.org/2000/svg" xml:space="preserve" width="30px" height="70px" version="1.1" style="shape-rendering:geometricPrecision; text-rendering:geometricPrecision; image-rendering:optimizeQuality; fill-rule:evenodd; clip-rule:evenodd"
viewBox="0 0 30 70"
 xmlns:xlink="http://www.w3.org/1999/xlink"
 xmlns:xodm="http://www.corel.com/coreldraw/odm/2003">
 <g id="Camada_x0020_1">
  <metadata id="CorelCorpID_0Corel-Layer"/>
  <path class="fil0" d="M27.24 3.26l-0.19 0.38 -0.39 0.2 -4.56 0c-0.08,0.08 -0.19,0.3 -0.32,0.64l0 1.09c0,0.3 0,0.77 0,1.41 0,0.65 0.02,1.48 0.06,2.51 0.05,1.03 0.08,1.83 0.1,2.41 0.02,0.58 0.03,0.93 0.03,1.06l0.13 0.32 -0.06 32.07c0.13,0.21 0.19,0.43 0.19,0.64 0,6.73 -0.36,11.31 -1.09,13.75 -1.5,4.84 -4.8,7.27 -9.9,7.27 -2.18,0 -4.16,-0.69 -5.91,-2.06 -1.72,-1.33 -2.57,-2.94 -2.57,-4.82 0,-2.19 0.45,-3.93 1.35,-5.24 0.9,-1.31 2.16,-1.96 3.79,-1.96 1.03,0 1.95,0.39 2.76,1.16 0.82,0.77 1.22,1.65 1.22,2.63 0,1.16 -0.35,2.09 -1.06,2.8 -0.7,0.71 -1.64,1.06 -2.79,1.06 -1.72,0 -2.83,-1.14 -3.34,-3.41l-0.33 -0.25c-0.47,0.47 -0.7,0.98 -0.7,1.54 0,3.64 1.65,5.46 4.95,5.46 3.25,0 4.88,-2.53 4.88,-7.58 0,-3.09 -0.06,-6.02 -0.19,-8.81 -0.17,-0.85 -0.29,-1.71 -0.36,-2.57 -0.06,-0.85 -0.09,-1.71 -0.09,-2.57 0,-0.04 0,-0.17 0,-0.38 0,-0.22 0.02,-0.52 0.06,-0.9 0.04,-0.39 0.07,-0.71 0.07,-0.97 0,-0.25 0,-0.45 0,-0.57 -0.05,-0.52 -0.18,-0.95 -0.39,-1.29 0.04,-0.77 0.06,-1.71 0.06,-2.83 0,-1.11 0,-2.42 0,-3.92 0,-3.21 -0.05,-6.25 -0.16,-9.12 -0.1,-2.87 -0.26,-5.64 -0.48,-8.29 -0.08,-1.07 -0.15,-2.22 -0.19,-3.44 -0.04,-1.22 -0.09,-2.54 -0.13,-3.95 0,-1.55 -0.13,-2.42 -0.38,-2.64 -0.26,-0.25 -1.1,-0.38 -2.51,-0.38 -1.97,0 -3.09,0.04 -3.34,0.13l0.06 0 -0.45 -0.58c0.17,-0.17 0.39,-0.26 0.64,-0.26l21.34 0 0.19 0.26zm-8.8 1.03l0 -0.13c0,-0.13 -0.05,-0.24 -0.13,-0.32l-4.56 0 0 0.19c0.38,0.3 0.94,0.88 1.67,1.73l0 1.93 0.25 0.13c1.25,-1.11 2.17,-2.29 2.77,-3.53zm-3.92 4.69c0,-0.09 -0.16,-0.41 -0.48,-0.97 -0.33,-0.55 -0.49,-1.13 -0.49,-1.73 0,-0.43 0.03,-0.69 0.07,-0.77 -0.17,-0.26 -0.32,-0.49 -0.45,-0.68 -0.13,-0.19 -0.24,-0.37 -0.32,-0.54l-0.13 8.22c0,0.09 0.11,0.52 0.32,1.29l0.13 0c0.9,-2.36 1.35,-3.97 1.35,-4.82zm3.21 6.87l0 -0.13 -0.19 0 0.19 0.13zm-1.86 11.76l-0.07 -0.45 -0.38 -0.19c0,0.43 0.15,0.64 0.45,0.64zm4.5 25.71c0,-0.65 -0.07,-2.29 -0.2,-4.95 -0.04,-1.33 -0.07,-2.4 -0.09,-3.21 -0.02,-0.82 -0.04,-1.38 -0.04,-1.67l0 -30.59c0.05,1.54 0.07,3.32 0.07,5.33 0,2.01 0,4.28 0,6.81 0,-12.12 -0.22,-18.98 -0.64,-20.56l-0.13 -0.07 -0.2 0.2c-3.29,4.67 -4.94,7.49 -4.94,8.48 0,2.44 0.1,4.05 0.32,4.82 0.17,0.64 0.75,1.33 1.73,2.05l0.13 -0.19c0,-0.51 -0.11,-1.13 -0.32,-1.86l0 -1.67c0,-1.42 0.26,-2.75 0.77,-4.02 0.52,-1.26 1.16,-2.04 1.93,-2.34 0,0.25 -0.16,0.68 -0.48,1.28 -0.32,0.6 -0.48,1.05 -0.48,1.35 0,0.26 0.12,0.84 0.38,1.74 0.26,0.9 0.39,1.5 0.39,1.8 0,0.85 -0.35,1.82 -1.03,2.89l0 2.5c1.37,1.12 2.05,3.11 2.05,5.98 0,1.97 -0.32,3.36 -0.96,4.18l-2.51 3.27c-0.42,0.99 -0.87,2.17 -1.34,3.54l0 0.13c0,1.2 0.44,2.65 1.34,4.37l0.33 0.25 0.25 -0.38c0,-0.13 -0.02,-0.31 -0.06,-0.55 -0.04,-0.23 -0.08,-0.48 -0.1,-0.74 -0.02,-0.25 -0.05,-0.5 -0.09,-0.74 -0.05,-0.23 -0.07,-0.39 -0.07,-0.48 0,-0.51 0.08,-1.06 0.23,-1.64 0.15,-0.58 0.35,-1.15 0.61,-1.73 0.25,-0.58 0.54,-1.12 0.86,-1.61 0.33,-0.49 0.68,-0.91 1.06,-1.25l0.07 0c0.17,0.04 0.26,0.19 0.26,0.45 0,0.13 -0.05,0.31 -0.13,0.54 -0.09,0.24 -0.17,0.5 -0.26,0.78 -0.09,0.27 -0.17,0.54 -0.26,0.8 -0.08,0.26 -0.13,0.45 -0.13,0.58 0.13,0.6 0.2,1.35 0.2,2.25l0 0.64c0,0.3 -0.08,0.63 -0.23,0.99 -0.15,0.37 -0.3,0.74 -0.45,1.13 -0.15,0.39 -0.3,0.77 -0.45,1.16 -0.15,0.38 -0.22,0.72 -0.22,1.02l0 0.52c1.5,2.65 2.25,4.54 2.25,5.65 0,0.65 -0.65,2.02 -1.93,4.12 -1.29,2.14 -1.93,3.49 -1.93,4.04l0.32 0.39c0.52,-1.5 1.44,-2.63 2.77,-3.41l0.06 0 0.26 0.52 -0.65 1.41c-0.08,1.16 -0.34,2.08 -0.77,2.77 -0.85,1.41 -1.3,2.18 -1.35,2.31 -0.3,0.64 -0.55,1.16 -0.77,1.54 -0.21,0.39 -0.44,0.68 -0.67,0.87 -0.24,0.19 -0.5,0.32 -0.8,0.38 -0.3,0.07 -0.69,0.1 -1.16,0.1l-0.52 0c-1.24,0 -1.86,0.26 -1.86,0.77 3.51,0 6.02,-1.09 7.52,-3.27 1.37,-2.02 2.06,-5.27 2.06,-9.77zm-2.06 -13.11l-0.32 -0.45 -0.13 0.38 0.19 0.32 0.26 -0.25zm0.71 10.22c0,-0.52 -0.84,-2.3 -2.51,-5.34 -1.67,-3 -2.51,-5.07 -2.51,-6.23 0,-0.69 0.71,-2.94 2.12,-6.75 0,-0.47 -0.27,-1.28 -0.83,-2.44 -0.56,-1.16 -0.84,-1.93 -0.84,-2.31 0,-0.18 0.08,-0.53 0.23,-1.07 0.15,-0.53 0.22,-0.88 0.22,-1.05 0,-0.13 -0.23,-0.54 -0.7,-1.23 -0.43,-0.68 -0.65,-1.11 -0.65,-1.28l0.26 -0.58c0.82,0.3 1.61,1.24 2.38,2.83 0.81,1.5 1.22,2.8 1.22,3.92 0,0.17 -0.07,0.55 -0.22,1.15 -0.15,0.6 -0.23,0.99 -0.23,1.16 0.04,0.26 0.19,0.39 0.45,0.39 0.17,0 0.35,-0.13 0.55,-0.39 0.19,-0.26 0.35,-0.58 0.48,-0.96 0.13,-0.39 0.23,-0.81 0.32,-1.26 0.08,-0.45 0.13,-0.86 0.13,-1.25 0,-1.67 -0.9,-3.83 -2.7,-6.49 -0.47,-0.73 -0.97,-1.46 -1.48,-2.18 -0.51,-0.73 -1.03,-1.46 -1.54,-2.19l-0.19 0 0 0.64c0,0.35 0,0.71 0,1.1 0,0.34 0.02,0.68 0.06,1.02 0.21,3.77 0.39,7.32 0.51,10.64 0.13,3.32 0.2,6.46 0.2,9.41 0,-0.04 0.06,0.73 0.19,2.32 0.09,0.94 0.15,1.9 0.19,2.89 0.05,0.98 0.09,1.97 0.13,2.95 0.13,2.96 0.19,5.96 0.19,9 0,2.66 -0.34,4.52 -1.02,5.59l0.9 -0.45 0.51 0.32 0.06 0.58c-0.04,0.09 -0.08,0.25 -0.12,0.48 -0.05,0.24 -0.11,0.57 -0.2,1l0.2 0c0.68,-0.51 1.02,-1.13 1.02,-1.86 0,-0.13 -0.25,-1.52 -0.77,-4.18l0 -0.19c0,-0.39 0.22,-1.1 0.64,-2.12 0.48,-1.16 0.71,-1.85 0.71,-2.06 0,-1.46 -0.38,-2.76 -1.16,-3.92l0 -2.25 -0.57 -1.22c0,-0.13 0.08,-0.26 0.25,-0.39l0.13 0c1.89,1.42 2.83,2.9 2.83,4.44 0,0.17 -0.03,0.58 -0.1,1.22 -0.06,0.64 -0.09,1.05 -0.09,1.22l0.32 0c0.68,-0.39 1.03,-1.26 1.03,-2.63zm-9.06 6.61c0,-2.14 -0.84,-3.21 -2.51,-3.21 -1.46,0 -2.19,0.73 -2.19,2.19 0,0.64 0.18,1.3 0.52,1.99 0.34,0.68 0.73,1.09 1.15,1.22l0.39 -0.26 0 -0.7c0,-0.35 -0.06,-1.01 -0.19,-2 -0.05,-0.47 -0.08,-0.84 -0.1,-1.12 -0.02,-0.28 -0.03,-0.46 -0.03,-0.55 0.51,0.09 0.96,0.42 1.35,1 0.38,0.58 0.58,1.14 0.58,1.7 0,0.13 -0.03,0.42 -0.1,0.87 -0.06,0.45 -0.1,0.72 -0.1,0.8 0.82,0 1.23,-0.64 1.23,-1.93zm3.21 5.79c-0.86,0.64 -2.27,1.35 -4.24,2.12l0 0.06c0.04,0.26 0.38,0.39 1.03,0.39 0.81,0 1.55,-0.25 2.21,-0.74 0.67,-0.49 1,-1.1 1,-1.83z"/>
 </g>
</svg>
