<?xml version="1.0" encoding="UTF-8"?>
<!DOCTYPE svg PUBLIC "-//W3C//DTD SVG 1.1//EN" "http://www.w3.org/Graphics/SVG/1.1/DTD/svg11.dtd">
<!-- Creator: CorelDRAW 2020 (64 Bit) -->
<svg xmlns="http://www.w3.org/2000/svg" xml:space="preserve" width="512px" height="512px" version="1.1" style="shape-rendering:geometricPrecision; text-rendering:geometricPrecision; image-rendering:optimizeQuality; fill-rule:evenodd; clip-rule:evenodd"
viewBox="0 0 512 512"
 xmlns:xlink="http://www.w3.org/1999/xlink"
 xmlns:xodm="http://www.corel.com/coreldraw/odm/2003">
 <defs>
  <style type="text/css">
   <![CDATA[
    .fil0 {fill:black}
   ]]>
  </style>
 </defs>
 <g id="Camada_x0020_1">
  <metadata id="CorelCorpID_0Corel-Layer"/>
  <path class="fil0" d="M251.83 405.68c5.82,-0.22 45.68,-1.39 51.1,0.83l3.77 1.76c-0.56,6.84 -6.82,13.54 -10.78,16.69 -5.84,4.63 -11.99,8.05 -20.13,8.04 -16.35,-0.02 -32.29,-16.16 -23.96,-27.32zm65.67 -238.54l-0.13 0.92c0.01,0.13 0.03,0.77 0.07,0.96 0.06,0.33 0.7,2.19 0.81,2.51 1.78,5.01 4.88,9.65 4.59,14.22 -0.38,6.02 -6.43,12 -11.03,14.27 -14.15,6.99 -39.21,-1.25 -42.82,8.72 5.02,4.96 12.14,3.47 20.54,3.92 7.81,0.42 15.79,0.81 22.25,3.16 8.34,3.03 10.47,6.19 12.76,12.64 0.58,1.63 1.03,2.89 0.52,5.36l-2.42 6.6c-0.11,0.26 -0.76,2.33 -0.79,2.61 -0.72,7.66 8.42,7.98 13.57,-6.35 2.71,-7.52 2.24,-13.34 2.23,-22.61 14.73,-6.73 45.79,5.77 36.95,-12.08l-30.91 0.38c-3.75,0.18 -5.65,0.77 -6.13,-2.66 -1.25,-9.02 3.52,-19.2 -7.39,-28.37 -3.25,-2.73 -6.38,-6.08 -12.67,-4.2zm-220.12 83.4c-3.67,-1.6 -12.27,-14 -8.5,-18.84l7.81 -8.7c3.17,1.2 8.58,8.65 8.38,13.72 -0.08,2.01 -4.92,12.24 -7.69,13.82zm13.6 -108.52c-0.05,-6.05 -3.74,-7.62 -0.33,-13.47 6.35,-1.27 7.98,2.68 10.55,6.11 2.7,3.6 3.71,6.57 4.96,12.17 1.82,8.25 6.27,59.52 3.32,64.35 -1.01,1.65 -14.81,16.31 -18,17.62 -1.57,-2.52 -2.77,-2.31 -6.65,-9.13 -1.92,-3.39 -3.45,-8.78 -6.38,-10.2 -4.59,-2.22 -6.35,2.8 -8.27,5.62 -3.95,5.81 -12.09,14.22 -12.19,20.27 -0.09,5.19 2.33,6.2 5.64,11l9.46 15.26c4.67,6.94 5.96,4.35 9.96,-5.49 1.52,-3.73 3.73,-7.36 5.19,-10.73 7.32,0.68 16.97,9.49 22.12,12.41 0.43,19.26 0.07,36.15 -1.43,55.08 -0.71,8.99 -2.42,15.66 -6.36,21.75 -5.73,8.83 -8.67,8 -19.51,3.43 -1.31,-5.21 -0.79,-6.15 -3.46,-10.11 -2.5,-0.38 -4.11,-0.03 -5.83,0.71 -1.09,1.11 -4.77,22.58 13.2,21.86 11.65,-0.47 19.68,-5.18 23.93,-12.35 8.96,-15.13 7.53,-62.46 6.87,-85.82 -3.09,-2.17 -20.26,-11.32 -21.94,-14.26 2.17,-7.66 21.32,-17.72 22.34,-26.54l-0.37 -33.12c-1.38,-15.14 0.38,-36.84 -8.97,-47.97 -18.64,-22.14 -43.82,-3.44 -27.49,12.45 3.37,3.29 6.13,0.33 9.64,-0.9zm139.77 295.49c-7.62,1.31 -22.12,-12.17 -23.67,-17.57 -4.34,-15.15 0.98,-35.12 15.31,-38.24 4.39,-0.95 8.96,-0.71 13.47,-0.75 0.63,1.27 1,2.14 1.96,3.3 -5.55,7.01 -18.11,5.16 -20.61,23.33 -0.95,6.93 1.75,13.21 4.74,17.34l8.8 12.59zm-94.42 -400.31l-11.61 0.25c-4.85,4.96 -9.11,14.54 -2.11,21.61 10.65,10.77 35.89,6.09 47.73,-0.41 6.21,-3.41 13.2,-9.01 20.13,-9.88 3.19,7.26 6.43,14.47 11.07,19.19 17.08,17.37 40.77,-5.31 28.76,-15.04 -2.78,-2.25 -7.88,-2.85 -10.96,-0.22 -3.96,3.37 -2.37,6.38 -2.8,12.96 -4.08,-2.81 -9.69,-0.59 -14.39,-9.99 -3.55,-7.11 -3.98,-11.4 -0.49,-18.56 5.58,-11.42 19.39,-16.57 36.18,-13.76 9.9,1.65 15.49,6.45 20.09,13.61l5.35 11.13c3.92,13.07 1.17,28.42 -5.17,40.43 -7.25,0.69 -16.66,-1.7 -20.17,2.73 -0.92,7.02 6.85,7.61 13.54,7.72 -3.32,11.59 -8.79,13.61 -17.72,24.48 -7.15,8.72 -13.45,14.28 -20.61,21.92 -4.29,4.57 -6.2,7.04 -10.4,10.88 -3.68,3.37 -8.37,7.06 -11.21,10.07 -2.4,2.54 -2.19,2.64 -5.13,5.14 -1.87,1.59 -3.8,3.68 -5.43,5.53 -2.16,2.47 -8.77,8.63 -7.93,13.49 5.29,2.33 11.42,-4.01 13.88,-6.86 4.77,-5.53 16.7,-17.95 22.69,-22.56 2.24,-1.73 38,-38.26 41.68,-43.41 0.9,-1.28 1.35,-2.34 2.41,-3.76 3.01,-4.03 5.61,-10.38 9.19,-14.1 5.38,0.27 13.96,3.3 15.07,8.97 2.13,10.82 -8.63,21.7 -14.68,27.72l-16.54 17.79c-16.96,18.1 -32.24,32.39 -51.38,51.54 -10.17,10.16 -19.36,20.4 -30.21,29.54 -1.99,1.68 -0.05,0.93 -2.49,1.15 -0.98,0.09 -2.51,-0.14 -3.09,-0.25 -2.08,-4.22 -0.86,-85.51 -0.41,-96.98 0.3,-7.54 0.4,-15.48 2.61,-21.96 2.06,-6.05 7.77,-8.85 13.57,-11.1 8.74,-3.4 19.57,-5.43 28.82,-8.23 4.42,-1.33 4.96,-2.29 5.88,-7.62 -11.74,-1.81 -46.49,-0.13 -60.62,0.22 -10.18,0.26 -57.56,-1.11 -62.32,1.44 -0.28,4.19 -0.91,7.2 3.31,8.13 10.29,2.28 34.58,-2.79 40.07,18.24 5.54,21.2 2.35,45.38 4.62,66.67 0.77,7.17 0.26,15 0.07,22.19 -0.2,7.16 0.69,15.67 0.76,23.3 0.27,31.05 0.4,62.21 0.46,93.32 0.04,15.1 0.81,25.97 -11.95,35.41 -11.23,8.3 -28.31,5.33 -35.95,11.25l0.9 4.45c7.87,1.74 19.72,-0.11 27.8,-0.54 11.86,-0.62 76.03,-0.85 85.06,0.47l4.45 -8.6c-10.34,-1.36 -16.6,-0.6 -26.6,-3.14 -7.87,-1.99 -13.31,-7.9 -15.64,-14.58 -4.48,-12.86 -3.91,-40.51 -4.52,-56.02 -1.33,-34.03 -3.63,-26.14 14.97,-44.77l15.52 -14.67c2.64,-2.41 5.39,-4.64 8.05,-7.03 2.96,-2.66 4.86,-5.28 7.89,-7.16 6.07,1.79 13.67,11.64 17.75,16.46 11.36,13.42 20.48,23.74 33.36,36.67l24.3 27.84c8,9.52 16.72,19 23.74,29.11 5.25,7.55 11.16,11.53 9.53,24.56 -0.66,5.25 -4,6.86 -8.36,8.86 -3.97,1.83 -9.87,2.88 -15.54,2.6 -4.74,-6.25 -10.01,-16.28 -14.68,-23.4 -17.92,-27.33 -42.33,-54.81 -63.56,-79.19 -3.38,-3.88 -8.98,-10.99 -12.44,-13.74 -3.26,-2.59 -6.23,0.64 -4.55,4.56 1.13,2.64 9.53,11.63 11.84,14.31 1.87,2.18 3.87,4.79 5.99,7.04l23.74 28.42c11.46,14.7 22.78,28.66 33.2,44.34 2.04,3.08 2.83,5.21 4.55,8.47 2.57,4.86 3.03,3.4 2.4,10.53 -7.3,1.05 -9.66,-0.37 -14.5,4.15 0.15,6.37 2.89,5.5 8.71,5.16 4.02,-0.24 9.97,0.46 12.44,-0.05 2.52,5.99 4.21,17.55 2.39,19.65 -3.04,1.59 -17.61,1.12 -23.22,1.63 -6.02,0.55 -18.19,1.64 -23.86,0.07 0.84,-5.65 9.03,-3.76 14.28,-5.63 0.1,-0.17 0.21,-0.65 0.24,-0.55 0.03,0.1 0.18,-0.41 0.22,-0.55 0.84,-2.71 0.5,-6.45 -7.81,-12.56 -16.44,-12.09 -38.33,-4.8 -46.69,13.06 -6.12,13.08 -3.64,7.69 -36.62,10.92 -7.77,0.76 -14.77,0.94 -22.72,0.95 -7.16,0 -17.63,-1.8 -20.83,3.58 2.36,6.01 8.43,4.47 15.62,3.88 10.33,-0.85 55.73,-1.6 61.14,-0.11 4.71,11.26 0.97,17.87 21.97,30.87 8.09,5 9.81,4.49 20.91,5.2 28.61,1.82 43.9,-14.27 56.39,-36.3 2.58,-4.53 3.78,-3.5 9.49,-3.64 8.8,-0.22 17.17,-0.54 26.07,-0.46l38.44 0.78c5.31,0.12 8.15,-0.69 9.72,3.79 2.33,6.63 1.3,15.48 12.77,13.1 11.1,-2.3 7.32,-18.29 -4.64,-22.62 -13.06,-4.74 -21.48,-3.41 -36.39,-3.41l-53.35 -0.2c-1.61,-3.77 -2.93,-17.92 -1.7,-21.13l13.61 -1.61c6.06,-1.01 8.44,-1.03 14.67,-0.99 10.41,0.07 21.04,-0.33 31.57,-0.37 13.29,-0.05 48.81,1.74 58.04,-3.83l-0.76 -6.22c-14.89,-4.32 -25.69,8.36 -56.9,-18.88 -15.11,-13.18 -31.73,-32.8 -45.84,-48.15l-53.94 -59.28c-3.13,-3.31 -6.05,-6.64 -9.11,-10.11 -5.34,-6.07 -11.74,-14.43 -17.47,-20.29 -4.51,-4.62 -3.18,-6.83 1.53,-10.96l19.11 -18.58c2.2,-2.29 3.29,-2.45 5.27,-4.38 1.78,-1.75 2.89,-3.32 4.59,-4.99 12.82,-12.47 45.84,-45.4 58.39,-54.81 23.11,-17.34 26.7,-8.34 44.43,-11.9 3.15,-0.63 4.39,-1.83 5.13,-4.38 0.84,-2.88 0.18,-5.71 -0.79,-7.68 -15.16,-4.42 -86.29,4.17 -98.81,-1.42 2.43,-4.04 3.39,-7.61 5.07,-12.78 0.75,-2.28 1.47,-4.23 2.5,-6.39 2.8,-5.81 6.64,-11.63 11.12,-16.33 3.98,-4.17 5.38,-4.92 10.15,-8.39 9.14,-6.64 39.04,-13.36 33.92,7.86 -1.26,5.2 -6.32,7.18 -5.92,12.7 3.03,2.87 5.05,2.44 8.92,0.62 3.97,-1.87 3.73,-2.72 6.09,-6.3 3.56,-5.37 3.41,-13.33 0.31,-19.12 -3.68,-6.89 -5.2,-7.99 -14.36,-10.36 -6.51,-1.68 -16.87,-0.83 -22.74,1.6 -2.88,1.19 -5.6,2.68 -8.24,4.13 -5.33,2.94 -9.53,7.09 -14.4,10.28l-5.69 3.85c-0.7,0.44 0.54,1.52 -1.59,-0.03 -1.7,-1.24 -6.93,-13.19 -8.61,-16.2 -3.43,-6.1 -7,-9.71 -11.93,-13.49 -6.36,-4.89 -9.71,-4.71 -19.61,-4.82 -9.14,-0.1 -15.56,-0.84 -22.92,2.21 -12.43,5.16 -17.58,13.46 -27.31,22.79 -8.61,8.25 -19.85,15.53 -32.32,17.73 -7.34,1.3 -15.31,2.73 -19.25,-2.26 -2.54,-3.21 -1.61,-5.67 0.01,-8.68 1.54,-2.9 2.66,-5.65 4.29,-8.55z"/>
 </g>
</svg>
