<?xml version="1.0" encoding="UTF-8"?>
<!DOCTYPE svg PUBLIC "-//W3C//DTD SVG 1.1//EN" "http://www.w3.org/Graphics/SVG/1.1/DTD/svg11.dtd">
<!-- Creator: CorelDRAW 2020 (64 Bit) -->
<svg xmlns="http://www.w3.org/2000/svg" xml:space="preserve" width="512px" height="512px" version="1.1" style="shape-rendering:geometricPrecision; text-rendering:geometricPrecision; image-rendering:optimizeQuality; fill-rule:evenodd; clip-rule:evenodd"
viewBox="0 0 512 512"
 xmlns:xlink="http://www.w3.org/1999/xlink"
 xmlns:xodm="http://www.corel.com/coreldraw/odm/2003">
 <defs>
  <style type="text/css">
   <![CDATA[
    .fil0 {fill:black}
   ]]>
  </style>
 </defs>
 <g id="Camada_x0020_1">
  <metadata id="CorelCorpID_0Corel-Layer"/>
  <path class="fil0" d="M240.42 314.92c3.56,-2.05 10.85,2.97 7.22,12.03 -7.5,0.69 -8.08,-4.61 -9.57,-10.07l2.35 -1.96zm69.05 51.44c-1.47,1.32 -3.06,0.61 -5.68,1.1l-4.14 1.3c-3.35,1.25 -2.81,4.32 -1.64,7.58 9.31,1.85 16.06,-3.19 15.29,6.7 -0.17,2.22 -0.67,3.7 -0.8,6.15 -0.26,4.55 0.14,8.17 -0.86,12.73 -1.57,7.16 -3.31,16.05 -6.55,20.65 -5.61,-0.46 -9.52,-9.73 -11.43,-14.48 -1.29,-3.2 -2.38,-6.17 -3.48,-9.45 -2.76,-8.21 -2.35,-12.54 -2.29,-20.96 0.05,-6.24 -5.69,-5.34 -7.64,-1.04 -1.62,3.56 0.03,5.76 0.44,14.64 0.15,3.24 0.2,6.17 1.02,8.99 1.04,3.64 2.04,4.69 3.32,7.59 2.5,5.64 3.99,9.07 7.15,13.98 3.82,5.93 7.21,6.47 1.5,13.34 -5.94,7.14 -16.1,12.4 -26.5,15.75 -14.37,4.64 -23.3,3.1 -38.54,2.57 -9.05,-0.3 -24.3,-8.7 -30.02,-12.44 -4.36,-2.85 -7.65,-6.68 -11.11,-10.05 -3.95,-3.84 -6.72,-5.27 -9.04,-12.08 -3.27,-9.57 -8.4,-25.11 -5.24,-34.62 3.23,-9.69 9.04,-7.5 24.73,-7.32 5.45,0.07 5.59,0.25 7.54,-3.47 -3.7,-5.34 -16.77,-4.23 -21.78,-10.24 1.05,-3.86 3.34,-5.34 6.24,-7.27 15.75,-10.54 26.6,-8.59 41.83,1.4 10.98,7.2 4.47,28.56 5.41,33.47 5.72,0.4 9.77,-5.57 14.82,-3.89 2.01,4.32 1.43,4.22 -0.38,8.84 -3.2,8.17 -7.69,15.32 -16.83,18.59 -9.44,3.37 -12.12,1.72 -18.38,-2.06 -6.44,-3.89 -3.89,-11.1 -4.59,-15.67 -1.15,-7.43 -8.67,0.75 -9.14,3.5 -1.64,9.5 6.71,23.72 25.28,23.26 13.58,-0.34 22.85,-9.03 28.97,-18.89 3.37,-5.42 3.76,-13.58 3.75,-19.44 0,-0.31 -3.57,-15.93 -5.02,-18.85 -5.57,-11.22 -16.06,-17.19 -27.4,-21.74 -8.95,-3.59 -10.81,-3.26 -21.48,-3.26 -11.1,0 -23.68,8.19 -30.04,15.19 -3.48,3.84 -6.19,3.32 -8.26,-1.93 -4.63,-11.75 7.59,-37.1 12.21,-48.05 1.76,-4.17 6.45,-16.81 8.62,-20.03 6.58,-9.72 18.15,3.37 20.63,5.42 2.33,1.93 5.32,4.95 8.49,6.53 4.35,2.17 6.26,3.14 9.97,5.75 7.99,5.61 -0.76,14.78 6.81,23.9 1.89,2.28 5.3,5.94 8.21,6.75 15.29,4.26 17.4,-11.27 5.88,-24.24 -9.26,-10.41 -8.19,-4.08 -3.37,-18.66 3.64,-11 10.5,-6.45 17.91,-0.03 20.07,17.34 32.74,32.53 42.43,56.54l2.1 6.08c0.85,2.56 2.22,5.87 2.05,8.86 -0.14,2.63 0.01,1.97 -0.97,3.01zm-39.38 -77.45c5.13,-4.16 10.63,-4.17 18.61,-4.65 6.12,-0.36 15,-2.6 21.15,-2.33 5.21,0.24 4.99,1.11 6.9,4.87 7.1,13.93 20.04,43.02 23.64,56.14 1.71,6.26 0.52,12.78 -5.18,16.41 -7.74,4.94 -9.08,6.06 -15.76,5.39 -0.12,-22.3 -22.77,-54.3 -40.68,-69.34 -3.41,-2.87 -7.5,-4.65 -8.68,-6.49zm-35.26 9.59c-2.55,-1.84 -9.46,-3.97 -13.26,-5.94 -8.65,-4.48 -4.13,-3.01 -10.48,-7.57 11.23,-0.78 18.55,-0.73 29.11,1.07 -0.93,6.05 -3.84,7.9 -5.37,12.44zm-56 -43.96c-2.67,-1.3 -12.26,-9.61 -11.66,-15.34 0.64,-5.95 4.3,-14.63 8.25,-18.67 1.35,1.28 2.02,2.55 3.5,4.15 3.07,3.32 10,9.1 9.98,11.63 -0.04,4.92 -7.19,16.46 -10.07,18.23zm12.96 -30.1c-5.81,-2.63 -12.8,-8.08 -11.04,-15.54 0.73,-3.09 2.54,-7.05 3.85,-9.74 1.48,-3.02 4.13,-6.29 5.02,-8.68l0.72 0.83c0.09,0.11 0.23,0.29 0.33,0.41 0.1,0.13 0.22,0.29 0.32,0.42 0.09,0.12 0.2,0.29 0.29,0.41 0.58,0.79 0.77,1.06 1.43,1.97 1.21,1.71 1.39,2.32 2.62,4.21 2.93,4.47 5.13,5.66 5.16,8.24 0.03,3 -4.8,14.53 -8.7,17.47zm8.92 37.37c-0.04,-3.67 -0.28,-3.57 0.88,-6.77l16.55 -38.74c2.14,-5.03 4.2,-9.25 5.99,-14.43 3.82,-11.04 7.92,-18.92 12.23,-29.46 3.01,-7.35 7.81,-25.66 12.75,-28.77 4.05,1.54 5.63,6.17 7.4,10.97 3.05,8.26 15.03,32.95 14.45,38.78 -10.88,6.29 -24.52,-7.17 -31.44,-4.82 -1.65,5.55 -0.84,7.01 2.38,8.66l8.94 3.3c17.17,5.83 26.24,0.33 30.15,6.68 0.03,0.06 0.63,1.28 0.67,1.38 2.43,5.16 3.7,9.85 7.76,18.18l2.61 5.56c16.67,35.84 16.05,28.31 -9.72,33.12 -4.68,0.87 -20.13,2.64 -24.08,1.38 -0.48,-7.11 4.93,-7.83 4.6,-15.45 2.14,-3.41 -5.75,-7.98 -7.57,-9.52 -11.76,-9.92 -13.39,-8.82 -26.1,-21.7 -1.09,-1.11 -3.37,-3.81 -4.81,-3.75 -1.86,3.68 -1.13,5.44 -1.18,9.91l30.69 24.38c0.14,8.4 -4.2,9.14 -4.28,14.18 -6.65,-0.76 -6.28,-0.28 -11.21,-3.4l-15.25 -10.7c-5.37,-4.55 -4.4,-6.27 -9.95,-6 -0.92,5.18 -0.26,8.02 6.85,12.49 3.46,2.17 8.81,4.77 10.45,8.22 -9.91,2.13 -23.19,0.25 -29.76,-3.68zm161.66 -108.97c-1.44,-1.31 -1.93,-1.12 -3.6,-2.25 -2.38,-1.62 -8.44,-4.59 -9.01,-7.23 -0.5,-2.33 1.45,-15.94 1.94,-19.34 3.89,-1.09 6.99,0.67 9.85,1.97l4.54 1.59c0.25,0.09 2.28,0.94 2.4,1.02 1.44,0.91 0.62,-0.36 1.39,1.33 1.48,4.31 -2.4,18.42 -7.51,22.91zm-175.56 13.45c-1.91,-7.74 -1.06,-16.3 2,-22.93 1.65,-3.59 2.77,-4.98 5.78,-7.89 1.48,-1.43 5,-5.27 7.73,-5.14 1.09,4.6 -7.5,23.79 -10.21,29.23 -3.36,6.74 -4.73,5.12 -5.3,6.73zm131.43 -50c0,-5.31 -0.53,-6.62 1.78,-10.16 7.33,0.14 17.51,9.5 23.34,12.12 -0.14,4.47 -0.53,6.94 -1.24,11.16 -1.18,7.08 -1.95,5.37 -3.1,8.67l-12.64 -7.63c-10.1,-5.39 -8.12,-2.23 -8.14,-14.16zm-125.17 -28.04c-2.37,-7.37 -2.32,-9.66 -9.24,-13.15 -11.23,-5.67 -21.45,0.95 -23.47,-2.91 -0.61,-1.17 -0.27,-0.29 0.21,-1.42 3.89,-9.01 22.98,-23.49 31.95,-28.79 15.55,-9.19 27.9,-14.41 49.08,-14.4 17.51,0.01 25.86,-0.72 39.15,5.2 10.76,4.79 18.81,8.84 28.4,15.95 9.66,7.14 24.19,24.96 28.65,37.53 2.06,5.81 3.38,11.13 3.63,18.51 -5.05,0.12 -6.75,-1.69 -10.19,-3.75 -3.24,-1.94 -5.99,-3.09 -8.77,-4.89 -5.76,-3.73 -13.34,-10.83 -15.51,-11.31 -1.42,4.43 -0.17,6.5 0.95,10.81 3.46,13.34 0.32,20.92 -0.41,34.3 3.41,3.05 18.79,9.75 25.88,13.95 1.23,0.73 2.26,1.12 3.48,2.43 -0.53,4.2 -0.29,3.08 -2.06,5.89l-8.36 12.76c-4.1,5.62 -23.29,29.29 -30.6,16.52l-8.75 -19.23c-5.44,-12.29 -11.06,-26.73 -17.35,-39.29 -3.15,-6.3 -5.9,-12.91 -8.9,-19.1 -3.48,-7.18 -4.5,-15.08 -9.68,-18.46 -2.86,1.17 -3.28,2.85 -4.35,6.06 -0.35,1.05 -0.37,0.92 -0.72,2.02 -6.3,19.49 -11.95,31.07 -18.54,48.99 -3.37,9.16 -7.25,20.1 -11.22,29.04 -3.76,8.49 -6.58,20.08 -12.25,27.07 -2.56,-1.2 -3.73,-4.37 -5.43,-7.28 -1.51,-2.57 -3.27,-4.9 -4.7,-7.57 -2.91,-5.39 4.49,-20.7 8,-28.62 0.87,-1.96 3.31,-6.75 4.53,-7.75 6.33,-5.21 17.2,-4.08 11.9,-23.55 -1.06,-3.89 0.72,-5.77 1.81,-9.18 2.3,-7.17 4.36,-11.68 6.99,-18.23l12.01 -25.53c3.93,-7.7 4.36,-10.36 -4.38,-10.5 -1.27,2.83 -3.49,5.16 -5.38,11.01l-1.02 3.05c-0.73,2 -1.19,3.28 -1.84,4.99 -2.15,5.63 -5.84,12.59 -8.58,18.02 -5.39,10.7 -4.24,10.04 -7.94,19.38 -1.3,3.29 -5.12,3.45 -8.95,4.69 -16.08,5.21 -26.38,23.49 -21.27,42.21 2.76,10.12 4.55,11.3 1.5,22.51 -1.94,7.14 -4.82,14 -8.64,18.19 -7.15,-8.94 -12.52,-20.98 -18.38,-32.21 -11.4,-21.83 -15.43,-58.16 2.6,-79.18 14.27,-16.64 23.15,-7.1 36.16,-4.78zm-42.86 186.37c0.38,-0.74 0.58,-1.15 0.91,-1.83l1.11 -2.29c3,-6.39 6.16,-15.23 10.91,-20.48 2.44,0.89 6.23,5.03 8.04,6.97 6.59,7.09 5.85,8.29 3.04,15.02 -0.87,2.07 -1.45,3.4 -2.24,5.28l-0.41 0.96c-0.07,0.14 -0.15,0.32 -0.22,0.47 -0.44,0.98 0.01,-0.05 -0.64,1.39l-12.64 26.91c-5.98,12.86 -11.71,27.04 -19.32,38.69 -4.36,6.66 -7.21,11.19 -14.35,14.99 -25.05,13.32 -45.22,-3.92 -41.74,14.86 6.2,1.91 13.36,-0.64 19.73,-0.89 14.1,-0.54 29.22,-0.18 43.01,0.99 6.19,0.53 15.66,-2.14 20.37,0.68 1.72,2.9 -1.46,7.29 -2.08,11.51 -1.04,7.1 1.89,18.92 4.43,25.72 1.27,3.37 4.21,6.26 4.22,10.03 -2.43,-1.05 -5.41,-1.7 -7.93,-2.9 -10.22,-4.87 -11.28,-6.68 -24.61,-10.15 -13.2,-3.44 -25.48,-7.72 -39.67,-3.15 -9.8,3.15 -23.34,13.8 -19.44,25.22 1.41,4.12 1.63,6.14 3.87,7.85 8.65,6.6 17.37,3.79 24.92,-1.55l-1.6 -4.89c-3.69,0.17 -10.59,-1.98 -12.61,-4.35 -0.75,-2.77 -0.35,-5.7 0.55,-8.21 1.05,-2.9 2.18,-3.16 4.94,-4.62 23.74,-12.59 70.19,13.33 89.76,28.21 8.92,6.77 20.29,13.7 31.51,16.26 4.83,1.11 32.25,0.73 37.68,-0.19 11.59,-1.96 18.95,-5.45 27.47,-10.62 5.73,-3.48 11.54,-7.71 16.24,-12.47 8.09,-8.21 5.48,-0.63 19.36,3.11 5.11,1.38 12.96,2.98 18.44,2.93 14.75,-0.14 22.85,-3.32 33.31,-9.24 8.29,-4.69 15.35,-14.17 22.73,-19.6 14.4,-10.58 25.84,-1.87 34.4,-7.85 0.66,-4.8 0.78,-5.48 -3.76,-6.61 -3,-0.74 -6.32,-0.84 -9.59,-0.66 -6.29,0.34 -13.25,0.89 -18.93,2.21 -13.77,3.22 -22.26,14.74 -25.81,15.22 -4.58,-3.87 -1.85,-13.3 -11.57,-16.33 -6.23,-1.95 -21.8,-3.23 -18.29,5.95 4.09,4.49 9.93,0.74 13.67,6.85 3.3,5.38 0.19,10.78 -2.94,13.65 -3.36,3.07 -8.02,4.82 -13.9,6 -5.7,1.14 -29.94,-0.23 -28.42,-9.29 0.44,-2.61 2.05,-5.28 3.02,-7.37 16.54,-35.65 -2.64,-42.9 21.3,-42 4.53,0.17 9.12,0.07 13.65,-0.06 4.56,-0.13 9.11,-0.28 13.64,-0.49 4.69,-0.21 8.06,-1.2 12.97,-1.24 8.26,-0.06 49.87,1.72 53.9,0.26 0.95,-3.06 0.18,-5.83 -0.72,-8.13 -11.18,-1.92 -24.36,0.84 -34.21,-3.31 -19.41,-8.17 -26.1,-22.74 -34.15,-40.21l-24.7 -49.65c-7.7,-15.02 -15.29,-36.08 -22.38,-51.33 -3.31,-7.13 -10.48,-18.99 -10.12,-26.84 2.24,-1.16 4.25,-2.23 6.72,-3.52 6.46,-3.38 11.86,-8.45 17.05,-13.64 4.26,-4.25 14.98,-19.46 16.31,-23.93 10.7,3.43 19.17,6.74 15.01,19.77 -0.05,0.17 -0.12,0.34 -0.17,0.51 -0.05,0.18 -0.09,0.36 -0.14,0.54 -0.05,0.19 -0.07,0.38 -0.12,0.57l-3.44 12.92c-0.06,0.17 -0.14,0.33 -0.19,0.5l-0.6 2.14c-3.82,14.32 -1.61,13.28 -3.32,26.61 -1.73,13.38 2.08,32.23 6.9,43.71 8.18,19.51 24.26,42.53 48.18,39.27 4.93,-0.67 6.43,-5.25 7.16,-9.87 2.69,-17.01 -15.99,-23.97 -15.6,-17.12 0.15,2.64 3.08,3.97 3.82,6.38 0.99,3.21 -0.31,7.82 -2.55,8.79 -5.53,2.37 -13.07,-2.07 -16.92,-5.11 -5.74,-4.53 -10.42,-14.64 -13.47,-21.38l-5.16 -13.92c-1.31,-4.11 -1.55,-8.71 -2.65,-13.06 -2.06,-8.07 -1.4,-34.05 1.41,-43.33l3.24 -14.49c0.13,-1.59 -0.01,-3.71 0.06,-5.41 4.08,-0.19 3.1,-1.12 5.42,1.21 4.77,4.81 9.3,9.23 12.85,15.18l1.39 2.7c1.98,4.76 5.38,14.83 2.13,19.07 -2.85,3.71 -14.94,1.7 -8.44,17.83 4.49,0.54 8.06,1.32 11.1,-2.2 7.25,-8.38 7.76,-21.15 4.69,-31.89 -2.27,-7.97 -15.26,-27.53 -23.69,-30.72 -0.06,-3.11 -0.27,-3.57 0.61,-6.27 12.44,-37.92 22.09,-25.92 -13.04,-38.77 -4.24,-1.55 -5.44,-2.08 -6.78,-6.84 -4.96,-17.62 -1.5,-28.93 -17.88,-50.39l-12.76 -14.54c-9.26,-9.16 -21.31,-15.13 -33.57,-20.33 -21.01,-8.91 -69.57,-8.88 -90.77,5.18 -2.86,1.9 -5.39,3.13 -8.53,5.1 -8.18,5.14 -17.02,11.32 -23,17.95 -3.8,4.22 -7.75,10.17 -12.46,13.63 -3.12,-2.96 -4.24,-6.48 -6.63,-11 -5.51,-10.42 -25.98,-29.27 -25.95,-12.56 7.14,7.24 11.31,3.22 16.3,16.09 8.93,23.01 -3.9,23.81 -1.26,55.69 0.45,5.47 -0.35,10.17 -0.29,15.58 0.13,10.46 3.64,20.81 7.16,30.22 0.06,0.15 0.13,0.33 0.19,0.48 4.99,13.25 10.55,27.5 18.67,39.35 1.45,2.12 5.38,7.41 5.91,9.85 1.27,5.92 -5.75,19.94 -8.86,23.2 -6.26,-7.01 -13.15,-14.9 -18.16,-22.87 -2.05,-3.27 -3.14,-5.23 -4.93,-8.76 -3.28,-6.48 -5.84,-11.42 -8.15,-19.1 -2.07,-6.9 -2.57,-13.87 -9.44,-16.92 -1.24,1.26 -0.17,-0.29 -1,1.29 -0.22,0.43 -0.49,1.2 -0.57,1.59 -0.64,3.2 0.64,6.62 1.66,9.74 8.04,24.79 7.93,21.19 20.35,41.74 4.83,7.99 18.48,19.9 14.95,29.78l-9.48 21.87c-8.24,16.7 -14.88,35.95 -30.16,46.93 -3.23,2.31 -5.53,4.85 -9.9,4.22 -0.97,-4.76 1.54,-10.58 -0.39,-15 -0.93,-1.26 -3.95,-1.16 -5.66,-1.32 -2.14,-0.21 -4.01,-0.48 -5.63,-0.95 -1.54,2.74 -4,2.82 -4.78,7.1 -0.66,3.59 -0.94,7.57 0.97,9.94 4.22,5.24 8.54,8.12 15.77,7.69 11.78,-0.71 23.18,-11.46 27.76,-18.8 9.21,-14.75 8.54,-17.2 14.54,-29.1 0.07,-0.14 0.17,-0.31 0.24,-0.45 0.09,-0.19 0.36,-0.73 0.45,-0.91l3.41 -6.83z"/>
 </g>
</svg>
