<?xml version="1.0" encoding="UTF-8"?>
<!DOCTYPE svg PUBLIC "-//W3C//DTD SVG 1.1//EN" "http://www.w3.org/Graphics/SVG/1.1/DTD/svg11.dtd">
<!-- Creator: CorelDRAW 2020 (64 Bit) -->
<svg xmlns="http://www.w3.org/2000/svg" xml:space="preserve" width="32px" height="32px" version="1.1" style="shape-rendering:geometricPrecision; text-rendering:geometricPrecision; image-rendering:optimizeQuality; fill-rule:evenodd; clip-rule:evenodd"
viewBox="0 0 32 32"
 xmlns:xlink="http://www.w3.org/1999/xlink"
 xmlns:xodm="http://www.corel.com/coreldraw/odm/2003">
 <defs>
  <style type="text/css">
   <![CDATA[
    .fil0 {fill:black;fill-rule:nonzero}
   ]]>
  </style>
 </defs>
 <g id="Camada_x0020_1">
  <metadata id="CorelCorpID_0Corel-Layer"/>
  <path class="fil0" d="M21.13 2.66l-0.09 0.16 -0.16 0.09 -1.92 0c-0.04,0.03 -0.08,0.12 -0.13,0.27l0 0.46c0,0.12 0,0.32 0,0.59 0,0.27 0,0.62 0.02,1.06 0.02,0.43 0.03,0.77 0.04,1.01 0.01,0.25 0.02,0.39 0.02,0.45l0.05 0.13 -0.03 13.51c0.06,0.09 0.08,0.18 0.08,0.27 0,2.83 -0.15,4.76 -0.46,5.79 -0.63,2.04 -2.02,3.05 -4.16,3.05 -0.92,0 -1.75,-0.28 -2.49,-0.86 -0.72,-0.56 -1.08,-1.24 -1.08,-2.03 0,-0.92 0.19,-1.66 0.56,-2.21 0.38,-0.55 0.92,-0.82 1.6,-0.82 0.43,0 0.82,0.16 1.16,0.49 0.35,0.32 0.52,0.69 0.52,1.11 0,0.48 -0.15,0.87 -0.45,1.17 -0.3,0.3 -0.69,0.45 -1.18,0.45 -0.72,0 -1.19,-0.48 -1.4,-1.44l-0.14 -0.1c-0.2,0.19 -0.3,0.41 -0.3,0.65 0,1.53 0.7,2.3 2.09,2.3 1.37,0 2.05,-1.07 2.05,-3.2 0,-1.3 -0.02,-2.53 -0.08,-3.7 -0.07,-0.36 -0.12,-0.73 -0.15,-1.09 -0.02,-0.36 -0.04,-0.72 -0.04,-1.08 0,-0.02 0,-0.07 0,-0.16 0,-0.09 0.01,-0.22 0.03,-0.38 0.02,-0.16 0.03,-0.3 0.03,-0.41 0,-0.1 0,-0.19 0,-0.24 -0.02,-0.22 -0.07,-0.4 -0.16,-0.54 0.01,-0.33 0.02,-0.72 0.02,-1.19 0,-0.47 0,-1.02 0,-1.65 0,-1.35 -0.02,-2.64 -0.06,-3.84 -0.05,-1.21 -0.12,-2.38 -0.21,-3.49 -0.03,-0.46 -0.06,-0.94 -0.08,-1.45 -0.02,-0.52 -0.03,-1.07 -0.05,-1.67 0,-0.65 -0.06,-1.02 -0.17,-1.11 -0.1,-0.1 -0.46,-0.16 -1.05,-0.16 -0.83,0 -1.3,0.02 -1.41,0.06l0.03 0 -0.19 -0.25c0.07,-0.07 0.16,-0.11 0.27,-0.11l8.98 0 0.09 0.11zm-3.71 0.44l0 -0.06c0,-0.05 -0.02,-0.1 -0.06,-0.13l-1.92 0 0 0.08c0.17,0.12 0.4,0.37 0.71,0.73l0 0.81 0.1 0.05c0.53,-0.47 0.92,-0.96 1.17,-1.48zm-1.65 1.97c0,-0.04 -0.07,-0.17 -0.21,-0.41 -0.13,-0.23 -0.2,-0.47 -0.2,-0.73 0,-0.18 0.01,-0.28 0.03,-0.32 -0.07,-0.11 -0.14,-0.2 -0.19,-0.28 -0.05,-0.09 -0.1,-0.16 -0.14,-0.23l-0.05 3.46c0,0.03 0.05,0.22 0.14,0.54l0.05 0c0.38,-0.99 0.57,-1.67 0.57,-2.03zm1.35 2.9l0 -0.06 -0.08 0 0.08 0.06zm-0.78 4.95l-0.03 -0.19 -0.16 -0.08c0,0.18 0.06,0.27 0.19,0.27zm1.89 10.82c0,-0.27 -0.03,-0.96 -0.08,-2.08 -0.02,-0.56 -0.03,-1.01 -0.04,-1.36 -0.01,-0.34 -0.02,-0.57 -0.02,-0.7l0 -12.88c0.02,0.65 0.03,1.4 0.03,2.25 0,0.84 0,1.8 0,2.87 0,-5.11 -0.09,-8 -0.27,-8.66l-0.05 -0.03 -0.08 0.08c-1.39,1.97 -2.09,3.16 -2.09,3.57 0,1.03 0.05,1.71 0.14,2.03 0.07,0.27 0.31,0.56 0.73,0.87l0.05 -0.08c0,-0.22 -0.04,-0.48 -0.13,-0.79l0 -0.7c0,-0.6 0.11,-1.16 0.32,-1.69 0.22,-0.54 0.49,-0.86 0.81,-0.99 0,0.11 -0.06,0.29 -0.2,0.54 -0.13,0.25 -0.2,0.44 -0.2,0.57 0,0.11 0.05,0.35 0.16,0.73 0.11,0.38 0.16,0.63 0.16,0.76 0,0.36 -0.14,0.76 -0.43,1.21l0 1.06c0.58,0.47 0.87,1.31 0.87,2.52 0,0.83 -0.14,1.41 -0.41,1.76l-1.06 1.38c-0.18,0.41 -0.37,0.91 -0.56,1.48l0 0.06c0,0.5 0.19,1.12 0.56,1.84l0.14 0.11 0.11 -0.17c0,-0.05 -0.01,-0.13 -0.03,-0.23 -0.02,-0.1 -0.03,-0.2 -0.04,-0.31 -0.01,-0.11 -0.02,-0.21 -0.04,-0.31 -0.02,-0.1 -0.03,-0.17 -0.03,-0.2 0,-0.22 0.03,-0.45 0.1,-0.69 0.06,-0.25 0.15,-0.49 0.25,-0.73 0.11,-0.25 0.23,-0.47 0.37,-0.68 0.13,-0.21 0.28,-0.38 0.45,-0.53l0.02 0c0.08,0.02 0.11,0.08 0.11,0.19 0,0.06 -0.02,0.13 -0.05,0.23 -0.04,0.1 -0.08,0.21 -0.11,0.33 -0.04,0.11 -0.07,0.23 -0.11,0.34 -0.04,0.1 -0.05,0.19 -0.05,0.24 0.05,0.25 0.08,0.57 0.08,0.95l0 0.27c0,0.12 -0.03,0.26 -0.1,0.42 -0.06,0.15 -0.12,0.31 -0.19,0.47 -0.06,0.16 -0.12,0.32 -0.19,0.49 -0.06,0.16 -0.09,0.3 -0.09,0.43l0 0.22c0.63,1.11 0.95,1.91 0.95,2.38 0,0.27 -0.27,0.85 -0.82,1.73 -0.54,0.9 -0.81,1.47 -0.81,1.7l0.14 0.17c0.21,-0.63 0.6,-1.11 1.16,-1.44l0.03 0 0.11 0.22 -0.27 0.59c-0.04,0.49 -0.15,0.88 -0.33,1.17 -0.36,0.59 -0.55,0.92 -0.57,0.97 -0.12,0.27 -0.23,0.49 -0.32,0.65 -0.09,0.16 -0.19,0.29 -0.29,0.37 -0.09,0.08 -0.21,0.13 -0.33,0.16 -0.13,0.03 -0.29,0.04 -0.49,0.04l-0.22 0c-0.52,0 -0.78,0.11 -0.78,0.32 1.48,0 2.53,-0.46 3.16,-1.38 0.58,-0.84 0.87,-2.21 0.87,-4.11zm-0.87 -5.52l-0.13 -0.19 -0.06 0.16 0.09 0.14 0.1 -0.11zm0.3 4.3c0,-0.21 -0.35,-0.96 -1.05,-2.24 -0.71,-1.27 -1.06,-2.14 -1.06,-2.63 0,-0.29 0.3,-1.23 0.89,-2.84 0,-0.2 -0.11,-0.54 -0.35,-1.03 -0.23,-0.48 -0.35,-0.81 -0.35,-0.97 0,-0.07 0.03,-0.22 0.1,-0.45 0.06,-0.22 0.09,-0.37 0.09,-0.44 0,-0.06 -0.1,-0.23 -0.3,-0.52 -0.18,-0.29 -0.27,-0.47 -0.27,-0.54l0.11 -0.24c0.34,0.12 0.68,0.52 1,1.19 0.34,0.63 0.52,1.18 0.52,1.65 0,0.07 -0.04,0.23 -0.1,0.49 -0.06,0.25 -0.09,0.41 -0.09,0.48 0.01,0.11 0.08,0.17 0.19,0.17 0.07,0 0.14,-0.06 0.23,-0.17 0.08,-0.11 0.14,-0.24 0.2,-0.4 0.05,-0.17 0.1,-0.34 0.13,-0.53 0.04,-0.19 0.06,-0.37 0.06,-0.53 0,-0.7 -0.38,-1.61 -1.14,-2.73 -0.2,-0.31 -0.4,-0.61 -0.62,-0.92 -0.22,-0.31 -0.43,-0.61 -0.65,-0.92l-0.08 0 0 0.27c0,0.14 0,0.3 0,0.46 0,0.14 0.01,0.29 0.03,0.43 0.09,1.59 0.16,3.08 0.21,4.48 0.06,1.4 0.08,2.72 0.08,3.96 0,-0.01 0.03,0.31 0.08,0.98 0.04,0.4 0.07,0.8 0.09,1.22 0.01,0.41 0.03,0.83 0.05,1.24 0.05,1.25 0.08,2.51 0.08,3.79 0,1.12 -0.14,1.9 -0.43,2.35l0.38 -0.19 0.21 0.14 0.03 0.24c-0.02,0.04 -0.04,0.11 -0.05,0.21 -0.02,0.1 -0.05,0.23 -0.09,0.42l0.09 0c0.28,-0.22 0.43,-0.48 0.43,-0.79 0,-0.05 -0.11,-0.64 -0.33,-1.76l0 -0.08c0,-0.16 0.09,-0.46 0.27,-0.89 0.2,-0.49 0.3,-0.78 0.3,-0.87 0,-0.61 -0.16,-1.16 -0.48,-1.65l0 -0.95 -0.25 -0.51c0,-0.05 0.04,-0.11 0.11,-0.16l0.05 0c0.8,0.59 1.19,1.22 1.19,1.86 0,0.08 -0.01,0.25 -0.04,0.52 -0.02,0.27 -0.04,0.44 -0.04,0.51l0.14 0c0.29,-0.16 0.43,-0.53 0.43,-1.11zm-3.81 2.79c0,-0.9 -0.36,-1.35 -1.06,-1.35 -0.61,0 -0.92,0.3 -0.92,0.92 0,0.27 0.07,0.55 0.22,0.84 0.14,0.29 0.3,0.46 0.48,0.51l0.17 -0.11 0 -0.3c0,-0.14 -0.03,-0.42 -0.08,-0.83 -0.02,-0.2 -0.04,-0.36 -0.04,-0.48 -0.01,-0.11 -0.02,-0.19 -0.02,-0.23 0.22,0.04 0.41,0.18 0.57,0.42 0.16,0.25 0.24,0.48 0.24,0.72 0,0.05 -0.01,0.17 -0.04,0.36 -0.02,0.19 -0.04,0.31 -0.04,0.34 0.35,0 0.52,-0.27 0.52,-0.81zm1.35 2.44c-0.36,0.27 -0.96,0.56 -1.79,0.89l0 0.03c0.02,0.1 0.17,0.16 0.44,0.16 0.34,0 0.65,-0.11 0.93,-0.31 0.28,-0.21 0.42,-0.47 0.42,-0.77z"/>
 </g>
</svg>
