<!DOCTYPE svg PUBLIC "-//W3C//DTD SVG 1.1//EN" "http://www.w3.org/Graphics/SVG/1.1/DTD/svg11.dtd">
<svg xmlns="http://www.w3.org/2000/svg" viewBox="0 0 480 480">
<path d="M176.134 28.896c-.965.611-1.084 1.37-.407 2.581.849 1.517 2.775 1.699 16.597 1.575 8.6-.077 17.432.344 19.626.935 5.308 1.429 5.729 3.296 6.537 29.013.355 11.275 1.568 33.325 2.695 49 1.615 22.45 2.135 41.13 2.451 88 .271 40.1.771 60.804 1.534 63.5.665 2.352 1.205 13.474 1.31 27 .113 14.613.656 25.188 1.49 29 2.266 10.356 2.038 77.22-.291 85.429-5.285 18.63-14.984 26.705-31.762 26.444-19.345-.302-30.922-12.746-30.91-33.228.006-10.735 5.706-17.381 7.558-8.811 3.775 17.467 20.57 25.055 35.301 15.947 22.076-13.649 9.227-47.769-17.347-46.064-19.129 1.228-31.357 19.018-31.469 45.783-.167 39.747 58.365 61.253 96.252 35.366 23.374-15.971 31.627-44.402 31.601-108.866-.055-136.654-.568-241.275-1.295-264.104-.492-15.457-.596-29.294-.231-30.75l.664-2.646h15.826c14.014 0 16.014-.208 17.467-1.814 3.737-4.128 2.737-4.187-71.281-4.171-38.803.009-71.165.405-71.916.881m60.707 11.517L243 46.827v6.586c0 3.623.352 6.587.781 6.587 1.562 0 12.115-11.646 15.699-17.325 5.429-8.6 5.316-8.675-13.107-8.675h-15.69l6.158 6.413M225 65.851c0 37.945 1.021 40.865 7.397 21.149 5.206-16.098 5.307-17.663 1.599-25.007-2.27-4.498-3.192-7.788-3.324-11.859-.171-5.315-2.918-12.134-4.888-12.134-.431 0-.784 12.533-.784 27.851m39.7-23.101c-12.558 17.188-28.561 44.004-30.055 50.363-.338 1.438-.198 9.188.311 17.223 1.055 16.641 2.52 21.241 8.412 26.414 4.984 4.376 5.971 4.188 5.26-1-3.865-28.229 1.807-53.233 13.671-60.263l2.799-1.658-1.672 3.835a320.82 320.82 0 0 0-3.594 8.716l-1.922 4.879 2.663 10.437c3.183 12.472 2.976 18.618-.895 26.53-4.506 9.211-3.969 20.039 1.339 27.004 5.744 7.535 8.086 15.723 8.724 30.499.9 20.859-.29 24.448-14.144 42.682-8.016 10.551-9.727 13.544-13.447 23.525-4.716 12.653-4.767 14.06-.943 26.064 6.119 19.207 10.935 21.489 8.816 4.178-1.818-14.852 3.848-33.388 13.456-44.023 6.259-6.928 7.09-4.802 3.119 7.981-2.153 6.928-2.287 8.456-1.448 16.5 1.127 10.796.752 13.059-4.229 25.561-5.26 13.204-5.151 15.372 1.437 28.57 12.048 24.131 11.904 27.215-2.389 51.284-8.46 14.248-14.254 26.236-13.803 28.56.514 2.651 2.583 2.771 3.356.194 1.375-4.58 6.942-12.125 11.752-15.927 6.917-5.468 8.766-3.399 4.773 5.345-1.073 2.352-2.226 6.415-2.561 9.029-.335 2.613-2.083 7.563-3.885 11-19.147 36.516-17.61 34.803-32.141 35.84-10.282.734-15.46 2.412-15.46 5.011 0 3.021 23.714-1.793 33.081-6.715 26.496-13.923 32.303-38.329 29.004-121.888-.586-14.85-1.082-75.15-1.102-134-.037-112.162-.977-146.5-4.011-146.5-.441 0-2.363 2.138-4.272 4.75m-38.369 78.829c-.333.869-.314 5.482.043 10.25 1.794 23.961 3.714 69.198 4.186 98.671.291 18.15 1.183 41.775 1.982 52.5 4.95 66.472 4.596 121.211-.868 134.25-1.757 4.192-1.753 4.199 1.749 2.603 5.257-2.395 6.643 2.068 3.961 12.754-.611 2.432-.507 2.529 1.534 1.437 6.475-3.466 7.207-9.262 3.541-28.061-2.826-14.497-2.902-13.734 2.898-29.189 4.898-13.052 4.598-21.155-1.204-32.504-1.644-3.215-2.153-6.002-2.153-11.79 0-5.691-.516-8.59-2.07-11.637-4.234-8.299-.869-8.445 7.357-.32 9.415 9.299 12.184 17.033 10.89 30.421-.848 8.768-.229 10.298 2.988 7.386 3.361-3.041 4.876-7.014 5.112-13.404.22-5.963.029-6.429-13.512-32.922-23.014-45.028-22.696-42.625-10.24-77.524 5.441-15.242 5.429-16.395-.297-29.117-5.663-12.58-6.191-14.967-4.628-20.902 2.04-7.745 1.701-9.926-2.59-16.691-2.195-3.459-3.988-7.19-3.985-8.29.037-12.781 18.916 12.621 23.613 31.773 1.545 6.3 1.546 7.295.011 14.278-2.061 9.382-2.062 11.077-.004 11.866 3.621 1.39 7.302-4.326 9.733-15.114 4.141-18.376-1.22-31.895-27.58-69.553-9.489-13.556-9.533-13.603-10.467-11.171M243 188.227c0 1.823 1.773 3.334 2.757 2.349.343-.343-.137-1.384-1.067-2.314-1.558-1.559-1.69-1.562-1.69-.035m16 85.214c0 1.614 1.416 2.809 2.292 1.934.78-.78-.295-3.375-1.399-3.375-.491 0-.893.648-.893 1.441m-76.904 92.824c-4.602 2.365-6.476 6.159-6.409 12.975.095 9.666 6.082 21.219 10.657 20.567 2.773-.395 3.216-5.356 1.712-19.181-1.227-11.275-1.142-11.567 2.644-9.087 6.61 4.331 9.619 11.84 8.386 20.927-.856 6.309-.106 7.433 3.419 5.123 7.267-4.762 5.029-24.71-3.403-30.326-3.878-2.583-12.892-3.112-17.006-.998m41.154 60.85c-1.788 1.145-7.638 4.058-13 6.473-11.029 4.966-12.201 6.753-4.75 7.236 8.98.581 17.347-3.76 21.051-10.923 2.73-5.279 1.807-6.057-3.301-2.786" fill-rule="evenodd"/>
</svg>