<!DOCTYPE svg PUBLIC "-//W3C//DTD SVG 1.1//EN" "http://www.w3.org/Graphics/SVG/1.1/DTD/svg11.dtd">
<svg xmlns="http://www.w3.org/2000/svg" viewBox="0 0 480 480">
<path d="M74.233 74.22c-3.54 4.265-1.255 4.78 21.2 4.78h21.218l2.334 2.484 2.333 2.484-.757 131.766c-.869 151.261-1.413 180.177-3.435 182.614-1.093 1.317-3.239 1.652-10.591 1.652-27.794 0-36.837 1.522-33.43 5.627 2.328 2.805 280.298 1.354 307.895-1.607 24.367-2.614 23.604-1.728 23.212-26.979-.159-10.198.408-32.716 1.259-50.041 2.748-55.941 2.778-57.279 1.344-59.921-3.561-6.557-8.264-1.048-20.85 24.421-11.331 22.931-16.898 30.598-40.761 56.138-15.492 16.58-14.622 15.96-42.704 30.427-19.058 9.817-29.887 13.612-49.538 17.358-29.567 5.636-51.232 7.146-54.276 3.783-1.49-1.647-1.539-10.066-.601-102.25 1.044-102.618 1.217-149.38.704-190.883l-.289-23.428 3-.941c1.65-.518 12.758-1.162 24.685-1.432 23.302-.527 26.321-1.302 19.531-5.014-2.929-1.601-6.074-1.719-35.216-1.326-49.722.67-63.444.624-100.5-.341-30.445-.793-34.649-.719-35.767.629m56.176 6.752c-1.929.781-2.141 1.903-2.75 14.595-.931 19.411-.819 45.433.196 45.433 1.337 0 8.994-17.201 9.743-21.889.448-2.803.084-6.384-1.093-10.731-3.061-11.309-.536-22.136 5.034-21.59 6.082.597 8.008 6.594 4.807 14.973-2.342 6.134-.741 7.476 4.55 3.809 6.266-4.342 27.104-23.764 26.516-24.714-.684-1.107-44.244-1.001-47.003.114m43.536 12.756c-30.119 20.429-44.278 48.602-35.478 70.597 3.84 9.6 7.294 15.391 12.284 20.597 6.231 6.501 7.12 4.588 4.747-10.213-3.897-24.307 2.69-45.824 18.858-61.594 6.928-6.759 8.337-5.179 4.079 4.574-3.938 9.02-4.148 12.201-1.525 23.18 2.322 9.722 2.16 10.561-5.432 28.131-7.99 18.495-7.972 20.298.47 45 11.086 32.438 9.552 39.799-15.408 73.95-18.481 25.287-24.094 41.966-18.714 55.611C145.074 361.942 153.275 375 157.573 375c2.935 0 2.945-.182.427-7.5-2.668-7.753-2.911-35.07-.388-43.568 2.611-8.795 7.228-16.913 13.15-23.122 8.586-9.001 10.105-7.065 4.138 5.274l-3.981 8.232 1.541 7.449c1.91 9.236 1.914 10.235.04 10.235-.825 0-1.5-.477-1.5-1.059s-.45-.781-1-.441-1 2.058-1 3.818c0 2.118-.677 3.624-2 4.45-1.959 1.224-2.871 6.232-1.135 6.232.476 0 2.009-.9 3.408-2 5.203-4.093 5.007-2.167-1.273 12.5-5.823 13.6-6.28 18.062-2.589 25.283 3.616 7.076 8.622 11.451 13.271 11.597l3.818.12.651-22.5c2.13-73.615 2.082-282-.065-282-.382 0-4.496 2.578-9.141 5.728m-14.195 54.845c-.412.418-.721 3.273-.687 6.344.054 4.699.22 5.193 1.047 3.119 1.104-2.766.804-10.644-.36-9.463m10.112.473c-2.105 1.193-3.199 5.533-1.952 7.742.821 1.453 1.212 1.129 2.583-2.136 1.964-4.678 1.71-6.932-.631-5.606m-42.234 22.204c-1.558 43.3-1.698 65.832-.561 90.143.94 20.089.956 31.1.068 47.765-2.061 38.7-2.587 67.592-1.261 69.191 1.014 1.221 1.846 1.239 5.568.119 2.406-.725 4.529-1.188 4.717-1.029 1.11.936 13.841 1.481 13.841.592 0-.564-2.049-3.808-4.552-7.209-10.393-14.118-15.534-27.128-15.603-39.486-.041-7.289.502-9.198 10.548-37.067 3.324-9.221 3.336-8.99-1.377-26.769-4.641-17.506-4.682-18.238-1.887-33.24l2.13-11.426-2.239-8.475c-2.465-9.333-2.207-10.533 1.787-8.3 5.49 3.071 14.006 21.751 16.212 35.562.944 5.905.722 8.416-2.039 23.143-3.845 20.511-3.483 21.241 5.808 11.694 21.899-22.5 19.987-40.577-8.96-84.72C138.692 174.756 130 159.29 130 156.459c0-.802-.402-1.459-.894-1.459-.491 0-1.156 7.313-1.478 16.25m12.039 73.417c-1.062 1.062-.771 8.333.333 8.333.55 0 1-2.025 1-4.5 0-4.578-.152-5.015-1.333-3.833M394.82 290.75c-.819.962-5.052 7.523-9.405 14.579-18.305 29.67-44.626 58.547-61.07 67.002-10.45 5.373-6.992 8.547 5.647 5.184 13.775-3.666 26.629-13.678 29.036-22.619 2.157-8.011 5.049-12.072 18.728-26.293 15.532-16.148 17.892-20.138 18.89-31.941.688-8.139.523-8.671-1.826-5.912M385.692 340c-5.493 11.378-5.636 11.561-13.539 17.283-13.085 9.474-25.355 19.915-24.457 20.813.461.461 3.756-.091 7.322-1.227 12.717-4.052 20.377-2.352 28.772 6.385 3.252 3.384 3.269 3.452 1.447 5.702l-1.844 2.277-5.078-2.574-5.079-2.573-9.134 2.653-9.134 2.653-11.478-3.309c-16.869-4.864-26.88-3.84-34.865 3.564-4.761 4.415-2.837 4.604 38.863 3.808l38.333-.731 1.535-3.612c2.677-6.302 3.688-13.976 4.686-35.575 1.346-29.15.831-30.411-6.35-15.537m-16.121 1.571c-1.95 1.951-1.971 2.429-.106 2.429.805 0 1.946-.9 2.535-2 1.294-2.417-.18-2.677-2.429-.429M361.5 379c-.34.55.084 1 .941 1s1.559-.45 1.559-1-.423-1-.941-1-1.219.45-1.559 1m-58 5.439c-2.75 1.321-6.8 3.548-9 4.95l-4 2.549 3.782.031c4.752.039 9.527-1.961 12.575-5.269 3.681-3.994 2.254-4.955-3.357-2.261m-159.857 2.116c-8.046 2.95-15.858 8.72-14.964 11.051.907 2.364 37.351 2 40.317-.402l2.218-1.796-2.635-3.132c-4.619-5.489-17.506-8.445-24.936-5.721" fill-rule="evenodd"/>
</svg>