<?xml version="1.0" encoding="UTF-8"?>
<!DOCTYPE svg PUBLIC "-//W3C//DTD SVG 1.1//EN" "http://www.w3.org/Graphics/SVG/1.1/DTD/svg11.dtd">
<!-- Creator: CorelDRAW 2020 (64 Bit) -->
<svg xmlns="http://www.w3.org/2000/svg" xml:space="preserve" width="512px" height="512px" version="1.1" style="shape-rendering:geometricPrecision; text-rendering:geometricPrecision; image-rendering:optimizeQuality; fill-rule:evenodd; clip-rule:evenodd"
viewBox="0 0 512 512"
 xmlns:xlink="http://www.w3.org/1999/xlink"
 xmlns:xodm="http://www.corel.com/coreldraw/odm/2003">
 <defs>
  <style type="text/css">
   <![CDATA[
    .fil1 {fill:#1A1A1A}
    .fil0 {fill:#FEF6EE}
   ]]>
  </style>
 </defs>
 <g id="Camada_x0020_1">
  <metadata id="CorelCorpID_0Corel-Layer"/>
  <polygon class="fil0" points="0,0 512,0 512,512 0,512 "/>
  <path class="fil1" d="M239.62 317.34c3.74,-2.15 11.4,3.12 7.59,12.65 -7.89,0.73 -8.5,-4.85 -10.06,-10.6l2.47 -2.05zm72.61 54.09c-1.55,1.39 -3.23,0.64 -5.97,1.15l-4.36 1.37c-3.52,1.31 -2.96,4.55 -1.72,7.97 9.79,1.94 16.88,-3.35 16.08,7.05 -0.18,2.33 -0.71,3.89 -0.85,6.46 -0.27,4.79 0.15,8.6 -0.9,13.39 -1.65,7.54 -3.48,16.88 -6.89,21.72 -5.9,-0.48 -10.01,-10.24 -12.02,-15.23 -1.36,-3.37 -2.5,-6.49 -3.66,-9.94 -2.9,-8.63 -2.47,-13.19 -2.4,-22.04 0.05,-6.56 -5.99,-5.62 -8.04,-1.1 -1.7,3.75 0.03,6.07 0.47,15.4 0.15,3.41 0.21,6.5 1.06,9.46 1.1,3.82 2.15,4.93 3.5,7.98 2.63,5.93 4.19,9.54 7.52,14.7 4.01,6.23 7.58,6.8 1.57,14.02 -6.25,7.52 -16.93,13.04 -27.86,16.57 -15.12,4.88 -24.51,3.25 -40.54,2.71 -9.5,-0.33 -25.54,-9.16 -31.56,-13.09 -4.58,-3 -8.05,-7.03 -11.68,-10.56 -4.15,-4.05 -7.06,-5.55 -9.51,-12.71 -3.44,-10.07 -8.83,-26.41 -5.5,-36.4 3.39,-10.2 9.5,-7.9 26,-7.7 5.73,0.07 5.87,0.26 7.93,-3.66 -3.89,-5.61 -17.63,-4.44 -22.9,-10.76 1.1,-4.06 3.51,-5.61 6.55,-7.65 16.57,-11.08 27.98,-9.03 43.99,1.47 11.55,7.57 4.71,30.04 5.69,35.21 6.02,0.41 10.28,-5.87 15.59,-4.1 2.1,4.55 1.5,4.44 -0.4,9.29 -3.37,8.6 -8.09,16.12 -17.7,19.56 -9.93,3.54 -12.75,1.8 -19.33,-2.17 -6.77,-4.09 -4.09,-11.67 -4.83,-16.48 -1.21,-7.81 -9.11,0.79 -9.61,3.69 -1.72,9.98 7.06,24.93 26.58,24.45 14.29,-0.35 24.03,-9.49 30.47,-19.86 3.54,-5.71 3.95,-14.29 3.95,-20.45 0,-0.33 -3.76,-16.74 -5.29,-19.81 -5.86,-11.81 -16.89,-18.08 -28.81,-22.87 -9.41,-3.77 -11.37,-3.43 -22.58,-3.42 -11.67,0 -24.91,8.6 -31.6,15.97 -3.65,4.03 -6.5,3.49 -8.68,-2.03 -4.87,-12.36 7.98,-39.01 12.84,-50.53 1.85,-4.38 6.78,-17.67 9.07,-21.06 6.91,-10.22 19.08,3.55 21.68,5.7 2.45,2.03 5.6,5.2 8.94,6.87 4.56,2.28 6.58,3.3 10.47,6.04 8.41,5.9 -0.79,15.54 7.17,25.13 1.99,2.41 5.57,6.25 8.63,7.1 16.08,4.48 18.3,-11.85 6.18,-25.49 -9.73,-10.95 -8.61,-4.29 -3.54,-19.62 3.83,-11.57 11.04,-6.78 18.84,-0.03 21.1,18.23 34.42,34.2 44.61,59.46l2.21 6.38c0.9,2.7 2.34,6.18 2.16,9.32 -0.16,2.77 0.01,2.08 -1.02,3.17zm-41.42 -81.44c5.4,-4.38 11.19,-4.39 19.58,-4.89 6.43,-0.39 15.77,-2.74 22.24,-2.45 5.47,0.25 5.24,1.17 7.25,5.11 7.46,14.66 21.07,45.25 24.86,59.04 1.8,6.58 0.55,13.44 -5.44,17.26 -8.15,5.19 -9.56,6.37 -16.58,5.67 -0.12,-23.46 -23.94,-57.11 -42.77,-72.92 -3.6,-3.02 -7.9,-4.89 -9.14,-6.82zm-37.08 10.08c-2.68,-1.93 -9.94,-4.18 -13.93,-6.24 -9.1,-4.71 -4.34,-3.17 -11.03,-7.96 11.82,-0.83 19.52,-0.77 30.61,1.12 -0.97,6.36 -4.04,8.31 -5.65,13.08zm-58.88 -46.23c-2.8,-1.36 -12.9,-10.11 -12.25,-16.13 0.66,-6.25 4.51,-15.38 8.67,-19.63 1.41,1.35 2.12,2.68 3.67,4.37 3.23,3.49 10.53,9.57 10.5,12.22 -0.04,5.18 -7.56,17.32 -10.59,19.17zm13.63 -31.65c-6.11,-2.76 -13.46,-8.5 -11.61,-16.34 0.77,-3.24 2.67,-7.41 4.05,-10.24 1.56,-3.17 4.34,-6.62 5.28,-9.13l0.75 0.88c0.1,0.11 0.25,0.3 0.36,0.43 0.1,0.13 0.22,0.3 0.33,0.44 0.1,0.13 0.21,0.3 0.31,0.43 0.61,0.83 0.8,1.11 1.49,2.07 1.28,1.8 1.47,2.44 2.77,4.43 3.07,4.69 5.39,5.95 5.42,8.66 0.03,3.16 -5.05,15.28 -9.15,18.37zm9.38 39.3c-0.05,-3.86 -0.29,-3.76 0.93,-7.12l17.4 -40.74c2.25,-5.29 4.41,-9.72 6.3,-15.17 4.02,-11.61 8.33,-19.9 12.85,-30.97 3.17,-7.74 8.22,-26.99 13.41,-30.26 4.27,1.62 5.93,6.48 7.79,11.53 3.2,8.69 15.8,34.66 15.19,40.78 -11.44,6.61 -25.78,-7.53 -33.06,-5.07 -1.74,5.84 -0.89,7.37 2.5,9.11l9.4 3.47c18.05,6.13 27.6,0.35 31.71,7.03 0.03,0.06 0.66,1.34 0.71,1.44 2.55,5.43 3.88,10.37 8.15,19.13l2.75 5.84c17.52,37.69 16.87,29.77 -10.22,34.83 -4.92,0.91 -21.17,2.77 -25.32,1.44 -0.51,-7.47 5.17,-8.23 4.83,-16.23 2.25,-3.6 -6.04,-8.4 -7.96,-10.02 -12.36,-10.43 -14.08,-9.27 -27.44,-22.82 -1.15,-1.17 -3.54,-4.01 -5.06,-3.94 -1.95,3.87 -1.19,5.72 -1.24,10.42l32.26 25.64c0.16,8.83 -4.41,9.61 -4.5,14.91 -6.98,-0.81 -6.6,-0.3 -11.78,-3.58l-16.04 -11.25c-5.64,-4.79 -4.62,-6.6 -10.46,-6.31 -0.97,5.45 -0.27,8.43 7.21,13.13 3.63,2.29 9.26,5.02 10.98,8.65 -10.42,2.24 -24.38,0.26 -31.29,-3.87zm169.99 -114.58c-1.51,-1.38 -2.03,-1.19 -3.78,-2.37 -2.5,-1.71 -8.88,-4.83 -9.48,-7.61 -0.52,-2.44 1.52,-16.75 2.04,-20.34 4.09,-1.14 7.35,0.71 10.36,2.08l4.77 1.67c0.27,0.09 2.4,0.99 2.53,1.07 1.51,0.96 0.65,-0.38 1.46,1.4 1.55,4.54 -2.52,19.37 -7.9,24.1zm-184.61 14.13c-2,-8.13 -1.11,-17.13 2.1,-24.11 1.75,-3.77 2.92,-5.23 6.09,-8.3 1.55,-1.5 5.25,-5.53 8.12,-5.4 1.14,4.84 -7.89,25.01 -10.74,30.74 -3.53,7.09 -4.97,5.38 -5.57,7.07zm138.21 -52.58c0,-5.57 -0.56,-6.95 1.87,-10.67 7.71,0.14 18.41,9.98 24.55,12.73 -0.15,4.71 -0.56,7.3 -1.31,11.74 -1.24,7.44 -2.06,5.65 -3.26,9.12l-13.29 -8.02c-10.63,-5.67 -8.54,-2.34 -8.56,-14.9zm-131.62 -29.47c-2.5,-7.76 -2.44,-10.17 -9.72,-13.84 -11.81,-5.96 -22.56,1 -24.68,-3.06 -0.64,-1.23 -0.29,-0.3 0.23,-1.49 4.08,-9.47 24.16,-24.7 33.59,-30.28 16.35,-9.66 29.34,-15.15 51.61,-15.13 18.41,0.01 27.19,-0.76 41.17,5.46 11.32,5.04 19.77,9.3 29.86,16.77 10.15,7.52 25.44,26.25 30.13,39.47 2.16,6.11 3.55,11.7 3.81,19.47 -5.31,0.12 -7.09,-1.78 -10.71,-3.95 -3.4,-2.04 -6.3,-3.25 -9.22,-5.14 -6.07,-3.92 -14.03,-11.39 -16.31,-11.89 -1.5,4.65 -0.18,6.83 1,11.36 3.64,14.03 0.34,22 -0.44,36.07 3.59,3.21 19.76,10.26 27.21,14.67 1.3,0.77 2.39,1.18 3.67,2.55 -0.56,4.42 -0.31,3.24 -2.17,6.2l-8.78 13.42c-4.32,5.9 -24.5,30.8 -32.19,17.37l-9.19 -20.23c-5.73,-12.92 -11.64,-28.1 -18.25,-41.31 -3.31,-6.62 -6.2,-13.57 -9.36,-20.08 -3.66,-7.55 -4.73,-15.86 -10.18,-19.42 -3.01,1.24 -3.44,3 -4.57,6.38 -0.37,1.1 -0.39,0.97 -0.76,2.12 -6.63,20.49 -12.57,32.67 -19.5,51.52 -3.54,9.63 -7.62,21.13 -11.79,30.53 -3.96,8.93 -6.92,21.12 -12.89,28.47 -2.69,-1.27 -3.92,-4.6 -5.71,-7.65 -1.58,-2.71 -3.43,-5.16 -4.94,-7.96 -3.06,-5.67 4.73,-21.77 8.42,-30.1 0.91,-2.06 3.47,-7.1 4.76,-8.15 6.66,-5.48 18.08,-4.3 12.51,-24.76 -1.11,-4.1 0.76,-6.07 1.91,-9.66 2.41,-7.53 4.58,-12.28 7.35,-19.17l12.62 -26.84c4.14,-8.1 4.59,-10.9 -4.6,-11.05 -1.34,2.98 -3.67,5.43 -5.66,11.58l-1.07 3.21c-0.77,2.1 -1.25,3.45 -1.94,5.25 -2.26,5.92 -6.14,13.23 -9.02,18.94 -5.67,11.26 -4.45,10.56 -8.35,20.39 -1.37,3.45 -5.39,3.62 -9.4,4.92 -16.92,5.49 -27.75,24.71 -22.38,44.39 2.91,10.65 4.78,11.88 1.58,23.68 -2.04,7.5 -5.07,14.71 -9.08,19.12 -7.52,-9.4 -13.17,-22.06 -19.34,-33.87 -11.98,-22.96 -16.22,-61.16 2.74,-83.26 15.01,-17.5 24.35,-7.46 38.03,-5.02zm-45.07 195.97c0.39,-0.78 0.6,-1.21 0.96,-1.92l1.16 -2.41c3.16,-6.72 6.48,-16.02 11.47,-21.53 2.57,0.92 6.56,5.28 8.46,7.32 6.93,7.45 6.15,8.72 3.19,15.79 -0.91,2.18 -1.52,3.58 -2.35,5.56l-0.44 1c-0.06,0.16 -0.15,0.34 -0.22,0.5 -0.46,1.03 0.01,-0.05 -0.67,1.46l-13.3 28.31c-6.29,13.51 -12.31,28.42 -20.31,40.67 -4.59,7.01 -7.59,11.77 -15.1,15.76 -26.34,14.01 -47.55,-4.12 -43.88,15.64 6.51,2 14.04,-0.68 20.74,-0.94 14.83,-0.57 30.72,-0.19 45.23,1.04 6.5,0.55 16.46,-2.26 21.42,0.72 1.81,3.04 -1.54,7.66 -2.19,12.09 -1.1,7.47 1.99,19.9 4.66,27.05 1.33,3.54 4.42,6.58 4.44,10.55 -2.55,-1.1 -5.69,-1.78 -8.35,-3.05 -10.74,-5.12 -11.85,-7.03 -25.87,-10.68 -13.88,-3.61 -26.79,-8.11 -41.71,-3.31 -10.31,3.32 -24.55,14.52 -20.45,26.52 1.48,4.34 1.72,6.46 4.07,8.26 9.09,6.94 18.27,3.99 26.21,-1.63l-1.68 -5.14c-3.88,0.18 -11.15,-2.08 -13.26,-4.57 -0.79,-2.92 -0.37,-6 0.58,-8.64 1.1,-3.06 2.29,-3.32 5.18,-4.86 24.97,-13.24 73.81,14.02 94.4,29.66 9.38,7.13 21.33,14.41 33.13,17.11 5.08,1.16 33.91,0.76 39.62,-0.21 12.19,-2.06 19.93,-5.72 28.89,-11.16 6.02,-3.66 12.13,-8.11 17.07,-13.12 8.51,-8.63 5.76,-0.66 20.36,3.28 5.38,1.44 13.63,3.13 19.39,3.07 15.51,-0.14 24.04,-3.49 35.03,-9.71 8.72,-4.93 16.14,-14.91 23.9,-20.61 15.14,-11.13 27.17,-1.97 36.17,-8.25 0.7,-5.06 0.83,-5.77 -3.95,-6.96 -3.15,-0.78 -6.65,-0.88 -10.08,-0.69 -6.62,0.36 -13.94,0.93 -19.91,2.32 -14.48,3.38 -23.4,15.5 -27.14,16.01 -4.81,-4.07 -1.94,-13.98 -12.17,-17.18 -6.55,-2.04 -22.91,-3.39 -19.23,6.26 4.3,4.72 10.44,0.78 14.37,7.2 3.47,5.67 0.2,11.34 -3.09,14.36 -3.53,3.23 -8.43,5.06 -14.62,6.3 -5.98,1.2 -31.47,-0.23 -29.87,-9.76 0.46,-2.74 2.15,-5.56 3.17,-7.75 17.39,-37.48 -2.78,-45.11 22.4,-44.17 4.76,0.18 9.59,0.07 14.35,-0.06 4.8,-0.14 9.58,-0.3 14.34,-0.51 4.93,-0.22 8.48,-1.27 13.64,-1.31 8.69,-0.06 52.44,1.81 56.68,0.28 1,-3.22 0.19,-6.13 -0.76,-8.55 -11.75,-2.02 -25.62,0.88 -35.97,-3.48 -20.41,-8.59 -27.45,-23.92 -35.91,-42.28l-25.97 -52.22c-8.1,-15.79 -16.08,-37.93 -23.53,-53.97 -3.49,-7.5 -11.03,-19.97 -10.65,-28.22 2.36,-1.23 4.47,-2.35 7.06,-3.71 6.81,-3.55 12.48,-8.88 17.94,-14.34 4.48,-4.47 15.75,-20.46 17.15,-25.16 11.25,3.6 20.15,7.08 15.78,20.78 -0.05,0.18 -0.12,0.36 -0.17,0.54 -0.06,0.19 -0.1,0.38 -0.15,0.57 -0.05,0.2 -0.08,0.39 -0.13,0.59l-3.62 13.6c-0.06,0.17 -0.14,0.34 -0.2,0.52l-0.63 2.25c-4.01,15.06 -1.69,13.96 -3.5,27.98 -1.81,14.08 2.2,33.89 7.26,45.97 8.6,20.51 25.52,44.72 50.67,41.29 5.19,-0.71 6.76,-5.52 7.52,-10.38 2.84,-17.88 -16.81,-25.2 -16.4,-18 0.16,2.77 3.24,4.17 4.02,6.71 1.04,3.38 -0.33,8.22 -2.68,9.24 -5.82,2.49 -13.74,-2.17 -17.8,-5.37 -6.03,-4.77 -10.95,-15.39 -14.16,-22.48l-5.42 -14.64c-1.38,-4.32 -1.63,-9.16 -2.79,-13.74 -2.16,-8.48 -1.47,-35.8 1.48,-45.56l3.41 -15.24c0.14,-1.67 -0.01,-3.89 0.06,-5.69 4.29,-0.19 3.27,-1.17 5.7,1.28 5.02,5.06 9.78,9.7 13.52,15.96l1.45 2.84c2.08,5.01 5.66,15.6 2.24,20.05 -2.99,3.9 -15.7,1.79 -8.88,18.75 4.73,0.57 8.48,1.38 11.68,-2.31 7.63,-8.82 8.17,-22.25 4.94,-33.54 -2.39,-8.37 -16.05,-28.95 -24.92,-32.31 -0.06,-3.26 -0.28,-3.74 0.65,-6.58 13.08,-39.88 23.22,-27.26 -13.72,-40.77 -4.46,-1.63 -5.71,-2.19 -7.12,-7.2 -5.22,-18.52 -1.58,-30.42 -18.81,-52.98l-13.41 -15.29c-9.74,-9.64 -22.42,-15.91 -35.3,-21.38 -22.1,-9.37 -73.17,-9.33 -95.45,5.45 -3.01,2 -5.68,3.28 -8.98,5.36 -8.6,5.4 -17.9,11.9 -24.18,18.87 -4,4.44 -8.15,10.7 -13.1,14.34 -3.28,-3.12 -4.46,-6.82 -6.97,-11.56 -5.8,-10.97 -27.33,-30.78 -27.29,-13.22 7.5,7.61 11.89,3.39 17.14,16.92 9.39,24.2 -4.11,25.04 -1.33,58.56 0.48,5.76 -0.37,10.7 -0.3,16.39 0.13,11 3.82,21.88 7.53,31.77 0.06,0.17 0.14,0.35 0.2,0.51 5.24,13.93 11.09,28.92 19.63,41.37 1.53,2.23 5.66,7.8 6.21,10.36 1.34,6.23 -6.04,20.97 -9.31,24.4 -6.58,-7.37 -13.83,-15.66 -19.1,-24.05 -2.15,-3.43 -3.3,-5.5 -5.18,-9.21 -3.45,-6.81 -6.15,-12 -8.57,-20.09 -2.18,-7.25 -2.7,-14.58 -9.93,-17.79 -1.31,1.33 -0.18,-0.3 -1.05,1.36 -0.23,0.45 -0.51,1.26 -0.6,1.68 -0.68,3.36 0.68,6.95 1.74,10.24 8.46,26.07 8.34,22.28 21.4,43.89 5.08,8.4 19.43,20.92 15.73,31.31l-9.97 23c-8.67,17.57 -15.65,37.8 -31.72,49.35 -3.4,2.43 -5.81,5.1 -10.41,4.44 -1.02,-5.01 1.62,-11.13 -0.41,-15.78 -0.98,-1.32 -4.16,-1.22 -5.95,-1.39 -2.25,-0.21 -4.22,-0.5 -5.92,-1 -1.62,2.89 -4.21,2.97 -5.03,7.48 -0.69,3.77 -0.99,7.96 1.02,10.45 4.44,5.51 8.98,8.53 16.58,8.08 12.39,-0.74 24.38,-12.05 29.2,-19.76 9.68,-15.52 8.97,-18.09 15.29,-30.61 0.07,-0.14 0.17,-0.33 0.24,-0.47 0.1,-0.2 0.39,-0.76 0.49,-0.96l3.58 -7.18z"/>
 </g>
</svg>
