<!DOCTYPE svg PUBLIC "-//W3C//DTD SVG 1.1//EN" "http://www.w3.org/Graphics/SVG/1.1/DTD/svg11.dtd">

<svg xmlns="http://www.w3.org/2000/svg" width="600" height="600" viewBox="0 0 600 600">

<path d="M346.5 95.085c-28.6.363-66.85 1.141-85 1.73-18.15.589-60.89 1.103-94.979 1.142-49.257.057-62.244.337-63.271 1.364-1.035 1.036-1.365 22.531-1.661 108.236-.202 58.819-.796 148.343-1.318 198.943-.522 50.6-.759 92.732-.526 93.626.388 1.489 13.173 1.679 151.589 2.249 83.141.342 171.932.903 197.313 1.246l46.147.623 1.529-2.372c2.691-4.175 4.838-398.554 2.197-403.463l-1.664-3.091-27.678-.657c-28.892-.686-37.477-.656-122.678.424m-90 8.92c-14.85.402-52.018.79-82.596.863-47.569.113-56.037.352-58.645 1.653-5.732 2.859-5.673 2.553-5.953 31.344-.143 14.649-.747 72.535-1.343 128.635-1.166 109.899.302 215.564 3.102 223.117.76 2.052 1.551 2.139 25.61 2.807 13.654.379 36.75 1.066 51.325 1.526 38.49 1.214 299.314.13 300.176-1.248 2.498-3.994 3.739-384.187 1.262-386.664-.584-.585-3.059-1.319-5.5-1.633-6.893-.887-197.138-1.221-227.438-.4m213.41 6.418c-.233.233-41.37.641-91.417.907-50.182.267-95.927.946-101.993 1.513-12.167 1.137-37.564 1.796-108.161 2.803l-47.162.673-.739 11.59c-1.596 25.023-1.075 353.075.562 354.111.932.59 68.945.955 179.612.965l178.112.015.756-6.75c.416-3.712.881-65.25 1.032-136.75.19-89.563.659-135.765 1.509-148.533 1.159-17.414.975-36.63-.639-66.738-.534-9.954-.851-11.444-2.716-12.75-1.935-1.356-7.754-2.057-8.756-1.056m-179.901 6.55c-1.305.825-1.274 1.308.25 3.889 3.633 6.15 1.419 16.808-5.222 25.138-2.557 3.208-2.531 2.177.152-6.156 2.994-9.295 2.223-9.654-5.909-2.754-9.417 7.989-13.434 24.423-9.651 39.483 2.68 10.67 8.002 13.155 14.813 6.916l3.833-3.51-.623 4.542c-.769 5.615-4.21 13.107-9.635 20.979-17.998 26.119-22.225 35.767-8.872 20.25 3.432-3.987 7.304-8.375 8.606-9.75 6.894-7.284 14.695-19.424 18.073-28.124.761-1.961 1.986-2.805 4.847-3.342C312.146 182.383 320 169.203 320 152.097c0-13.619-1.576-15.372-8.272-9.2l-4.228 3.896-.09-6.146c-.187-12.724-11.143-27.63-17.401-23.674m102.741 3.716c-2.322.607-2.216 2.845.25 5.311 3.399 3.399 7.855 2.115 10.515-3.03l1.536-2.97-5.275.116c-2.902.064-6.064.322-7.026.573M268 121.716c-1.931.719-5 3.908-5 5.197 0 1.186 5.753 2.4 9.119 1.924 1.955-.277 2.436-1.007 2.691-4.087.322-3.88-1.889-4.865-6.81-3.034m196.751 10.034c-2.879 3.232.689 9.25 5.484 9.25 3.599 0 3.765-.147 3.765-3.326 0-5.848-5.932-9.648-9.249-5.924m-223-.168c-2.1 2.101-41.891 3.701-64.251 2.583-27.618-1.38-37.946-.469-41.647 3.673-5.902 6.606-5.475 6.824 19.147 9.762 11.866 1.416 17.909 8.384 21.161 24.4 2.675 13.17 4.366 209.231 2.079 241-2.09 29.043-4.68 34.081-19.05 37.064-12.952 2.689-19.277 7.471-17.778 13.441.516 2.056.673 2.066 12.305.788 20.517-2.254 53.909-3.476 80.533-2.948 14.162.282 25.75.17 25.75-.247 0-1.233-8.385-6.89-14.67-9.896-18.117-8.666-19.832-11.363-23.88-37.558-3.313-21.441-3.29-43.49.062-58.329 1.067-4.724 32.504-39.315 35.731-39.315 4.14 0 31.242 25.677 82.327 78 19.909 20.392 32.768 32.905 53.926 52.477C405.92 457.969 418.674 462 442.611 462c11.708 0 28.16-1.449 29.3-2.58 1.039-1.032-10.589-10.945-17.411-14.843a520.5 520.5 0 0 1-6.661-3.896 1175.75 1175.75 0 0 0-9.5-5.566c-3.211-1.862-6.064-3.663-6.339-4.003-.275-.339-3.085-2.581-6.244-4.982-3.159-2.4-15.286-14.324-26.949-26.497-53.004-55.323-84.308-87.425-96.807-99.274-4.125-3.91-7.963-7.728-8.528-8.484-2.511-3.356-6.472-10.869-6.472-12.274 0-.848 6.637-8.671 14.75-17.383 8.113-8.713 24.65-27.254 36.75-41.203 12.1-13.949 22.45-25.852 23-26.451 38.438-41.869 39.905-43.182 52.626-47.108 4.606-1.422 11.524-3.766 15.374-5.209 10.408-3.901 11.365-4.979 6.974-7.856-2.277-1.492-7.481-1.637-52.571-1.465-53.449.204-52.425.14-53.253 3.305-1.261 4.822.701 5.62 20.497 8.329 5.972.818 10.621 3.668 11.465 7.029.885 3.529-9.616 23.485-17.845 33.911-.434.55-4.917 6.625-9.963 13.5-5.045 6.875-12.335 16.325-16.199 21-6.71 8.117-23.538 27.949-24.608 29-.28.275-2.982 3.423-6.003 6.997-3.022 3.573-6.913 8.073-8.648 10-2.822 3.134-13.68 16.252-37.265 45.021-8.7 10.611-13.627 14.486-19.642 15.446l-4.06.648-1.291-9.806c-.709-5.393-1.679-13.631-2.154-18.306-1.213-11.929-1.162-49.288.095-69.5.581-9.35.777-22.175.435-28.5-1.07-19.8 3.622-41.348 10.644-48.885 3.214-3.45 8.139-5.156 19.353-6.705 10.604-1.464 15.539-4.415 15.539-9.29 0-3.32-16.562-7.224-19.249-4.538m214.476 6.689c-3.372 4.218-1.912 10.117 3.015 12.189 3.961 1.665 5.758.55 5.758-3.575 0-4.64-6.694-11.213-8.773-8.614m-13.192 6.663c-1.344 2.511-1.338 9.761.009 10.593 1.636 1.011 5.265-1.932 7.421-6.017 1.93-3.657 1.931-3.747.059-5.116-2.71-1.982-6.277-1.724-7.489.54m26.713 5.233c-4.823 1.754-5.085 8.25-.434 10.799 3.813 2.09 5.902-.535 5.48-6.888-.324-4.875-.985-5.387-5.046-3.911m-132.899.503c-.908.241-2.228 1.83-2.932 3.53-1.194 2.882-1.095 3.25 1.457 5.445 3.913 3.366 5.36 2.957 7.88-2.232 2.913-5.995.47-8.568-6.405-6.743m-204.667 1.611c-1.045 1.259-.655 1.594 2.542 2.187 14.325 2.657 15.354 13.13 3.744 38.097-4.662 10.025-6.292 14.528-4.682 12.935 4.618-4.571 19.624-23.912 21.309-27.466 3.746-7.899 1.15-18.321-5.902-23.701-4.407-3.361-14.877-4.624-17.011-2.052m117.955 8.925.363 9.205-4.638 1.321c-4.33 1.233-4.713 1.618-5.767 5.804-.621 2.465-.896 5.603-.612 6.973.284 1.37.777 3.729 1.095 5.241.341 1.626 3.101 5.088 6.75 8.468l6.172 5.717.5 11.203c.543 12.159 1.515 13.942 4.303 7.895 9.492-20.586 7.361-52.042-4.623-68.252-3.322-4.493-3.93-3.39-3.543 6.425m202.613-7.091c-3.405 2.541-3.732 7.454-.711 10.696 4.333 4.652 9.616 1.107 8.686-5.828-.937-6.986-3.247-8.396-7.975-4.868m-44 1.401c-3.768 2.121-3.446 2.944 1.255 3.211 9.902.563 13.48 7.205 9.09 16.872-3.371 7.421-10.742 10.474-30.001 12.426-5.173.524-9.66 1.207-9.971 1.518-3.514 3.514 26.622 3.035 34.377-.546 14.134-6.527 19.234-15.836 14.209-25.937-3.794-7.626-12.594-11.127-18.959-7.544m31.899 3.68c-6.272 2.284-7.766 13.984-1.972 15.438 5.139 1.289 10.287-9.096 7.288-14.7-1.16-2.167-1.328-2.19-5.316-.738m22.297 7.633c-6.596 4.197-7.454 5.53-5.931 9.208 3.573 8.625 15.985 4.038 15.985-5.908 0-6.718-3.089-7.732-10.054-3.3m-14.517 8.599c-.87 3.465.123 5.833 4.951 11.807 18.4 22.771 8.437 61.018-18.586 71.344-8.23 3.145-6.906 5.347 2.017 3.355 25.177-5.621 38.422-42.117 24.927-68.678-4.469-8.796-11.4-20.256-12.25-20.256-.247 0-.724 1.093-1.059 2.428m-316.929.135c-5.152 2.663-5.926 3.922-3.18 5.173 3.371 1.536 7.083-.449 7.496-4.009.365-3.144-.194-3.295-4.316-1.164m32.535.402c-1.955 1.955-2.205 7.001-.442 8.928.926 1.013 3.422-2.455 4.006-5.568.875-4.664-.739-6.185-3.564-3.36m157.464 2.823c-14.393 6.505-21.616 11.789-28.004 20.489-3.23 4.398-2.722 5.541 1.78 4.01 1.774-.604 5.687-1.659 8.696-2.345 12.161-2.773 20.537-8.433 24.426-16.504l2.691-5.58c1.786-3.693-1.519-3.717-9.589-.07m112.734 10.516c-3.185 4.13-1.314 7.312 3.657 6.22 3.828-.841 5.616-2.859 3.84-4.333-2.603-2.161-6.525-3.147-7.497-1.887m-210.038 4.995c-3.578 3.691-2.926 5.701 1.85 5.701 4.838 0 7.334-4.442 4.126-7.345-2.382-2.156-2.261-2.189-5.976 1.644m-75.993 1.451c-8.969 4.86-16.174 16.872-18.744 31.25-1.122 6.279-1.121 7.723.005 8.868 2.018 2.053 3.186.707 3.899-4.493 2.204-16.081 12.462-31.426 21.172-31.673 3.431-.097 9.457 4.187 9.472 6.735.004.585.581 2.188 1.284 3.563 1.747 3.421 1.488 14.873-.553 24.382-1.808 8.425-1.657 9.618 1.213 9.618 2.657 0 5.033-6.756 5.915-16.818 2.344-26.742-7.699-40.083-23.663-31.432m220.83 2c-1.634 2.613-3.462 7.225-4.061 10.25-.599 3.025-1.861 8.798-2.805 12.828l-1.715 7.328-3.287-4.578c-3.992-5.558-5.777-5.747-7.832-.831-1.666 3.989-1.391 14.223.446 16.54.529.667 1.529 3.013 2.222 5.213.693 2.2 1.601 4.45 2.018 5 2.798 3.698 6.105 14.976 5.871 20.026-.14 3.029.165 5.908.678 6.398 1.827 1.743 8.678 2.953 13.493 2.383 6.016-.713 5.518-2.029-1.101-2.907-2.727-.362-4.959-.796-4.959-.964 0-.169 2.925-5.973 6.5-12.898 5.925-11.479 6.503-13.142 6.53-18.815.025-5.003.246-5.853 1.127-4.336 2.148 3.699.366 12.631-4.261 21.348-4.929 9.285-4.627 10.68 1.598 7.377 16.36-8.678 26.13-32.406 19.508-47.375-2.502-5.656-2.833-5.722-6.522-1.298-3.257 3.907-3.973 3.844-4.827-.425-.513-2.565-6.542-13.108-9.475-16.57-.492-.581-1.444-2.719-2.114-4.75-1.627-4.93-3.459-4.655-7.032 1.056m11.968.653c0 3.329.105 3.414 4.75 3.869 27.64 2.703 54.021 14.918 66.797 30.928 3.724 4.666 4.875 4.339 5.256-1.493C458.8 216.476 416.79 195 386 195h-5v3.403m-62.5 2.185c-3.85 1.341-8.908 3.333-11.239 4.425-2.332 1.093-4.503 1.987-4.826 1.987-3.637 0-25.904 15.926-30.536 21.84-5.226 6.674-9.866 13.551-9.89 14.66-.012.55-.691 2.284-1.51 3.854-2.826 5.42-.288 4.757 3.982-1.04 7.767-10.545 22.559-22.053 43.519-33.858 8.398-4.73 21-13.135 21-14.007 0-.968-3.809-.193-10.5 2.139m-88.707 16.662c6.011 9.988 7.881 27.5 4.707 44.088-2.725 14.24-2.291 17.062 3.25 21.127 6.36 4.667 4.984 5.761 11.277-8.965 6.089-14.248 10.009-34.124 7.087-35.93-.665-.411-3.286 1.062-6.137 3.45L245 245.186v-8.044c0-16.779-3.48-23.142-12.658-23.142h-4.505l1.956 3.25m-77.308 5.694c-6.446 2.615-13.253 15.942-12.187 23.861 1.432 10.636 4.318 16.206 8.183 15.794 3.837-.409 3.925-1.049.87-6.263-5.387-9.193-2.689-21.133 6.847-30.295l4.205-4.041-2.952.063c-1.623.035-3.858.432-4.966.881m261.972 3.963c-5.246 2.349-8.862 6.75-13.186 16.053-1.927 4.147-4.127 8.814-4.888 10.371-2.87 5.875-2.102 5.648 7.632-2.258l4.219-3.427-1.64 3.172c-1.766 3.415-8.333 8.867-16.48 13.682-2.792 1.65-5.085 3.4-5.095 3.889-.023 1.087 10.916.194 13.569-1.108 11.97-5.872 15.89-8.152 19.879-11.562 7.298-6.238 14.792-17.244 17.465-25.653 1.972-6.201-2.135-5.94-10.932.693l-4.5 3.393-.317-3.826c-.427-5.164-1.028-5.523-5.726-3.419m-121.957 6.97c-16.178 5.84-29.597 18.415-38.458 36.04-4.631 9.211-8.857 23.668-7.357 25.168 1.605 1.605 6.869-5.156 9.383-12.051 2.886-7.914 11.138-17.687 21.592-25.571 12.169-9.176 15.649-12.416 19.681-18.325 5.386-7.893 4.654-8.688-4.841-5.261m-162.701 7.917c-3.284 2.166-7.799 8.612-7.799 11.135 0 1.658.571 1.547 5.75-1.116 6.881-3.537 8.903-5.407 9.795-9.063.83-3.396-3.277-3.903-7.746-.956m23.921.819c-.337.337 1.665 3.954 4.448 8.038 4.855 7.125 7.6 14.217 5.93 15.324-7.508 4.977-8.63 9.327-1.909 7.4 11.747-3.369 9.305-24.51-3.447-29.838-4.189-1.75-4.194-1.751-5.022-.924m172.022 3.617c-7.09 6.672-7.537 8.197-3.774 12.879 6.062 7.544 6.089 13.701.091 20.891-2.748 3.294-3.271 3.498-8.899 3.466l-5.98-.033 1.827 3.533c3.091 5.979 8.058 7.12 15.112 3.472 5.739-2.967 12.876-14.645 13.15-21.515.144-3.634.372-3.923 3.079-3.923 2.912 0 2.921-.019 2.275-4.75-.758-5.542-4.81-12.525-9.233-15.91l-3.11-2.38-4.538 4.27m136.002 3.02c-.256 2.338-.031 8.3.501 13.25 4.144 38.583-18.253 72.506-43.186 65.41-2.517-.717-2.319 3.06.345 6.552 8.695 11.401 30.576 5.546 38.552-10.315 2.367-4.705 6.467-16.62 7.553-21.95.38-1.867 1.177-3.125 1.832-2.895 1.982.699.721 7.529-3.062 16.581-7.839 18.758-9.391 23.623-9.97 31.259-.744 9.804-.128 12.014 4.852 17.417 6.204 6.73 6.829 6.204 6.899-5.809.032-5.637.441-12.275.908-14.75.466-2.475 1.765-9.45 2.884-15.5 1.12-6.05 2.499-13.475 3.064-16.5 5.146-27.538 2.176-59.619-6.053-65.383-3.573-2.503-4.614-1.968-5.119 2.633m-333.539 7.061c-1.827 5.05-1.463 16.108.778 23.631 2.013 6.76 8.495 16.015 10.066 14.374.791-.826-2.303-15.134-4.068-18.816-.527-1.1-1.634-5.969-2.459-10.82-1.907-11.21-2.72-12.786-4.317-8.369m25.67 5.624c-4.828 5.009-8.482 10.792-7.463 11.811 2.347 2.346 14.588-9.732 14.588-14.394 0-3.546-1.871-2.867-7.125 2.583m196.127 9.753c-6.445 5.795-9.024 9.83-12.026 18.812-6.654 19.917 1.352 47.413 16.014 54.995 1.427.738 4.825 3.192 7.552 5.453 6.13 5.084 17.183 10.438 24.82 12.023 10.556 2.192 35.972.953 40.138-1.956.55-.384 2.899-1.435 5.219-2.336 4.855-1.885 14.281-8.39 14.281-9.856 0-.544-.337-.82-.75-.613-10.704 5.371-15.149 6.947-27.443 9.728-5.798 1.312-17.12 1.38-21.236.128-1.689-.514-5.996-1.671-9.571-2.571-21.073-5.307-38.22-21.472-40.925-38.582-2.365-14.961 5.017-29.683 15.776-31.465 6.502-1.076 6.75-1.291 4.311-3.73-1.679-1.679-3.389-2.206-7.18-2.211-2.737-.004-4.977-.082-4.979-.174-.002-.092.897-2.267 1.997-4.833 3.84-8.959 1.867-9.883-5.998-2.812m55.998-.986c0 .387 1.462 2.271 3.25 4.188 2.78 2.981 2.886 3.26.733 1.927-1.385-.857-6.11-2.059-10.5-2.671-4.391-.612-9.67-1.404-11.733-1.76-2.504-.433-3.75-.272-3.75.483 0 .622.529 1.131 1.176 1.131.647 0 6.834 3.758 13.75 8.352C417.907 294.96 424.417 298 432.436 298c8.033 0 9.444-1.618 5.614-6.437-3.325-4.184-3.39-5.35-.201-3.644 4.899 2.622 12.72.623 15.122-3.865.855-1.598.14-2.264-5.383-5.01-5.533-2.752-8.531-3.8-19.088-6.671-8.253-2.245-22.5-3.303-22.5-1.671m-25 8.239c0 .518.426 1.204.947 1.526 3.372 2.084 11.785 19.54 10.455 21.692-1.029 1.665-2.402.793-2.402-1.525 0-3.597-6.756-16.327-9.805-18.474-6.262-4.41-6.849-4.043-7.445 4.664-.297 4.326-1.037 8.723-1.646 9.771-2.868 4.939-7.104 18.935-7.104 23.473 0 5.512.308 5.657 8.62 4.046l4.12-.798.605 6.474c.782 8.376 3.85 14.649 8.751 17.892 4.284 2.835 6.904 2.521 6.904-.828 0-1.215 2.089-6.292 4.641-11.282 3.862-7.547 4.646-10.011 4.667-14.657l.025-5.585 4.084.791c8.879 1.722 8.922 1.694 8.343-5.519-.96-11.963-9.708-24.407-21.172-30.12-4.901-2.442-12.588-3.383-12.588-1.541m-213.493 3.245c-11.923 4.707-27.948 24.995-34.631 43.843-3.556 10.028-3.375 32.122.328 39.971 4.012 8.506 8.23 13.717 11.724 14.484 1.677.368 3.306 1.085 3.62 1.593 2.696 4.363 12.197-2.186 16.023-11.045 3.022-6.998 2.777-27.204-.438-36.032-4.404-12.096-13.982-27.543-14.092-22.728-.034 1.481 4.423 14.054 7.969 22.479 5.209 12.374 5.33 25.183.33 34.999-3.697 7.26-14.23 2.171-18.371-8.877-8.97-23.933 5.248-60.377 28.031-71.852 5.564-2.802 5.213-2.456 5.545-5.484.381-3.468-.293-3.619-6.038-1.351m55.146 1.276c-1.131 2.948-.815 3.21 6.597 5.467 3.988 1.214 8.502 2.687 10.032 3.274 3.6 1.38 4.537.346 2.681-2.96-3.051-5.436-17.753-9.838-19.31-5.781m-76.796 8.921c-2.451 1.871-5.699 5.032-7.218 7.024-2.673 3.505-11.007 8.593-14.074 8.593-2.406 0-.727 2.69 2.518 4.034 3.976 1.647 8.887-1.609 16.215-10.753 9.063-11.31 10.005-14.583 2.559-8.898m22.002-1.315c-11.326 5.81-13.861 23.271-4.378 30.158 4.669 3.391 5.427 2.475 2.577-3.111-3.616-7.089-1.889-14.447 5.575-23.755 3.943-4.916 2.258-6.386-3.774-3.292M231 303c0 7.037.305 9 1.396 9 2.699 0 9.604-9.42 9.604-13.101 0-.928-8.173-4.899-10.083-4.899-.504 0-.917 4.05-.917 9m91-.148c-1.925.871-3.667 1.689-3.87 1.819-1.412.9 1.204 5.327 3.139 5.314 3.685-.026 4.895-1.409 4.55-5.203l-.319-3.513-3.5 1.583m110.077 6.737c-4.621 3.888-3.704 6.411 2.33 6.411 2.808 0 6.593-3.913 6.593-6.814 0-3.16-4.955-2.936-8.923.403M140.079 330.5c-4.861 11.506 3.84 28.494 13.368 26.103 2.451-.616 2.422-.683-2.12-4.864-5.289-4.868-8.258-10.869-9.272-18.739l-.709-5.5-1.267 3m262.466 3.453c-6.154 6.423-3.795 17.773 4.153 19.98 7.057 1.96 19.218 1.322 24.802-1.301 4.044-1.899 10.045-6.634 8.405-6.631-.223 0-3.695.687-7.717 1.526-16.489 3.44-27.273-1.591-25.839-12.053.719-5.25.032-5.525-3.804-1.521m-135.964 4.061c-6.493 2.536-10.785 6.859-14.242 14.349-4.861 10.529-3.68 36.496 1.916 42.137.656.661.696-1.709.119-7-2.409-22.06.874-33.917 10.826-39.095 5.936-3.088 13.8.73 13.8 6.701 0 6.228 5.225 3.152 6.594-3.881.843-4.326-3.111-10.428-8.555-13.205-4.724-2.41-4.301-2.41-10.458-.006m-27.124 5.849c-7.538 4.597-9.404 16.239-5.659 35.292 1.119 5.69 2.309 12.299 2.644 14.687C237.783 403.371 243.4 410 250.135 410c4.714 0 4.745-.275 1.479-13.149-1.312-5.173-2.927-13.669-3.588-18.879-.662-5.209-1.613-11.359-2.114-13.665-.502-2.306-.912-6.862-.912-10.125 0-6.451-.883-12.184-1.875-12.178-.344.002-1.994.838-3.668 1.859m199.492 14.387c-6.502 5.023-10.222 13.114-10.762 23.411-.467 8.889-.8 9.311-5.445 6.888-2.71-1.414-2.793-1.369-4.821 2.606-4.149 8.132 1.786 19.528 14.309 27.477 4.941 3.136 6.939 3.005 17.2-1.132 12.688-5.115 17.963-4.624 17.785 1.655-.101 3.604-2.989 6.768-9.293 10.184l-3.393 1.838 2.452 1.313c9.446 5.055 20.331-14.252 14.448-25.628-1.771-3.425-5.103-3.58-18.087-.842-17.838 3.762-24.96-16.995-13.692-39.9 6.416-13.04 6.389-13.347-.701-7.87m-158.386 6.475C273.5 366.524 267 374.749 267 381.886c0 4.319-.92 5.12-3 2.614-1.903-2.293-2.562-1.858-4.058 2.677-1.828 5.538-1.578 16.887.475 21.587 4.065 9.304 9.997 18.236 12.112 18.236.566 0 3.896-2.893 7.401-6.43l6.373-6.43-1.712-6.102c-3.006-10.712-3.22-19.107-.625-24.467 4.342-8.971 13.902-12.962 20.749-8.662 10.164 6.383 11.012 20.594.956 16.029-2.294-1.042-5.339-1.904-6.766-1.916-3.157-.027-6.773 3.51-5.199 5.084 1.641 1.641 17.485 5.968 19.505 5.327 15.865-5.035 6.717-28.913-13.197-34.446-3.574-.993-15.928-1.159-19.451-.262M417 364.718c-7.282.828-17.339 4.467-20.17 7.298-3.258 3.258-4.011 8.345-1.08 7.294 3.988-1.43 30.25-14.236 30.25-14.751 0-.579-2.969-.527-9 .159m-278 19.328c0 1.231 3.118 5.118 7.819 9.75C154.696 401.558 159 409.226 159 415.5c0 3.643-3.988 13.14-6.514 15.513-8.204 7.707-22.332-1.098-22.484-14.013l-.065-5.5-2.422 2.752c-9.534 10.832 1.742 29.417 17.701 29.174 9.751-.148 18.233-12.204 18.239-25.926.004-10.642-3.124-16.997-13.627-27.69-7.761-7.901-10.828-9.533-10.828-5.764m310.092.356c-3.005 3.199-2.464 6.752 1.226 8.045 5.533 1.938 13.507-5.831 9.241-9.003-3.019-2.246-7.875-1.801-10.467.958M328.385 406.74c-.614.418-1.43 1.768-1.814 3l-.7 2.24-4.677-2.49c-9.674-5.149-24.629-2.426-33.395 6.082-5.009 4.861-3.624 5.412 3.878 1.544 10.717-5.526 22.063-7.963 23.823-5.116.34.55 1.43 1 2.423 1 3.123 0 7.647 5.249 5.59 6.486-5.145 3.094-5.053 2.848-3.227 8.648a331.352 331.352 0 0 1 3.253 11.196c1.349 5.031 1.772 5.657 3.085 4.567 3.303-2.741 5.376-8.705 5.376-15.464 0-5.926.19-6.572 1.75-5.958 5.713 2.251 12.045 1.821 14.875-1.01 2.621-2.62 2.682-2.864.965-3.881-2.04-1.208-5.74-3.741-11.35-7.771-4.152-2.983-8.156-4.231-9.855-3.073m-97.135 3.249c-4.211 2.567-4.129 2.88 1.816 6.913 2.758 1.871 5.987 4.796 7.176 6.5 1.189 1.704 2.445 3.323 2.792 3.598.347.275 4.626 5.675 9.509 12 14.348 18.584 21.94 25.181 31.707 27.55 2.545.617 2.75.439 2.75-2.383 0-4.003.991-4.459 4.739-2.18 14.135 8.596 40.059 11.94 41.705 5.379.85-3.384.246-4.001-4.672-4.778-11.888-1.876-25.241-5.814-29.387-8.667-4.984-3.429-5.537-4.31-1.82-2.896 4.058 1.543 11.435 1.246 11.435-.46 0-3.132-2.294-7.106-7.191-12.457-2.822-3.084-6.73-7.745-8.684-10.358-4.16-5.563-4.78-5.694-8.714-1.848-5.539 5.416-5.988 7.268-2.896 11.942 3.926 5.933 1.791 11.748-3.081 8.391-1.306-.9-7.434-9.816-7.434-10.816 0-.396-1.995-4.815-4.433-9.82C260.538 413.224 253 406.224 253 413c0 2.797-1.473 3.2-4.132 1.13-2.611-2.033-11.474-6.132-13.245-6.126-.618.002-2.586.895-4.373 1.985m117.846 28.396c-4.228 5.094-.776 14.615 5.3 14.615 3.093 0 3.638-.87 4.252-6.783l.49-4.717-4.517-2.165c-3.48-1.668-4.749-1.886-5.525-.95m20.959 21.56c-3.12 3.12-2.614 5.821 1.453 7.76 4.757 2.269 8.992-.469 8.992-5.813 0-3.269-.153-3.403-4.195-3.697-3.174-.23-4.696.196-6.25 1.75m13.499.776c-1.185 3.087-.557 8.341 1.072 8.966 2.994 1.149 11.277-6.118 9.265-8.129-1.568-1.569-9.801-2.235-10.337-.837m12.815 1.839c-1.444 2.203-1.481 2.757-.267 3.97 2.529 2.53 5.898.733 5.898-3.147 0-4.242-3.095-4.694-5.631-.823m-268.71 2.7c-2.013 1.472-1.42 6.74.758 6.74 2.472 0 4.772-2.621 4.428-5.046-.403-2.84-2.626-3.566-5.186-1.694m277.091.957c-2.291 2.867-2.26 2.986 1.337 5.033 4.165 2.37 4.918 2.216 4.881-1-.064-5.515-3.337-7.638-6.218-4.033" fill-rule="evenodd"/>

</svg>
