<?xml version="1.0" encoding="UTF-8"?>
<!DOCTYPE svg PUBLIC "-//W3C//DTD SVG 1.1//EN" "http://www.w3.org/Graphics/SVG/1.1/DTD/svg11.dtd">
<!-- Creator: CorelDRAW 2020 (64 Bit) -->
<svg xmlns="http://www.w3.org/2000/svg" xml:space="preserve" width="512px" height="512px" version="1.1" style="shape-rendering:geometricPrecision; text-rendering:geometricPrecision; image-rendering:optimizeQuality; fill-rule:evenodd; clip-rule:evenodd"
viewBox="0 0 512 512"
 xmlns:xlink="http://www.w3.org/1999/xlink"
 xmlns:xodm="http://www.corel.com/coreldraw/odm/2003">
 <defs>
  <style type="text/css">
   <![CDATA[
    .fil1 {fill:#1A1A1A}
    .fil0 {fill:#FEF6EE}
   ]]>
  </style>
 </defs>
 <g id="Camada_x0020_1">
  <metadata id="CorelCorpID_0Corel-Layer"/>
  <circle class="fil0" cx="256" cy="256" r="256"/>
  <path class="fil1" d="M251.7 409.19c6.01,-0.22 47.14,-1.43 52.74,0.86l3.89 1.82c-0.58,7.05 -7.04,13.97 -11.13,17.22 -6.02,4.78 -12.37,8.31 -20.78,8.3 -16.87,-0.03 -33.32,-16.68 -24.72,-28.2zm67.77 -246.19l-0.13 0.94c0.01,0.14 0.03,0.8 0.07,1 0.06,0.34 0.72,2.26 0.84,2.59 1.84,5.17 5.04,9.96 4.74,14.68 -0.4,6.21 -6.64,12.38 -11.39,14.72 -14.6,7.21 -40.46,-1.29 -44.2,9.01 5.18,5.11 12.54,3.57 21.21,4.04 8.06,0.43 16.29,0.84 22.96,3.26 8.6,3.13 10.8,6.39 13.17,13.04 0.6,1.69 1.06,2.99 0.54,5.54l-2.5 6.8c-0.11,0.28 -0.79,2.42 -0.82,2.7 -0.74,7.91 8.7,8.24 14.01,-6.55 2.79,-7.76 2.31,-13.77 2.3,-23.34 15.2,-6.94 47.25,5.95 38.13,-12.46l-31.89 0.39c-3.88,0.19 -5.84,0.79 -6.33,-2.75 -1.29,-9.3 3.63,-19.81 -7.62,-29.28 -3.36,-2.82 -6.59,-6.27 -13.09,-4.33zm-227.18 86.08c-3.79,-1.66 -12.67,-14.46 -8.77,-19.45l8.06 -8.98c3.28,1.24 8.85,8.93 8.65,14.16 -0.08,2.07 -5.08,12.63 -7.94,14.27zm14.04 -112.01c-0.05,-6.24 -3.86,-7.87 -0.35,-13.9 6.56,-1.31 8.25,2.77 10.9,6.31 2.78,3.71 3.83,6.78 5.11,12.56 1.89,8.51 6.47,61.43 3.43,66.41 -1.04,1.71 -15.29,16.84 -18.58,18.19 -1.62,-2.6 -2.86,-2.38 -6.86,-9.43 -1.99,-3.5 -3.56,-9.06 -6.58,-10.52 -4.74,-2.3 -6.56,2.89 -8.54,5.8 -4.08,5.99 -12.48,14.68 -12.58,20.92 -0.09,5.35 2.4,6.4 5.82,11.35l9.77 15.75c4.81,7.17 6.15,4.49 10.28,-5.66 1.56,-3.85 3.85,-7.61 5.35,-11.08 7.55,0.7 17.52,9.8 22.83,12.81 0.44,19.87 0.07,37.31 -1.48,56.85 -0.73,9.28 -2.49,16.16 -6.56,22.44 -5.91,9.12 -8.95,8.26 -20.13,3.54 -1.36,-5.38 -0.83,-6.34 -3.57,-10.43 -2.59,-0.39 -4.24,-0.03 -6.03,0.73 -1.12,1.15 -4.92,23.31 13.63,22.56 12.02,-0.49 20.31,-5.34 24.7,-12.75 9.25,-15.61 7.77,-64.46 7.09,-88.57 -3.19,-2.24 -20.92,-11.68 -22.65,-14.72 2.25,-7.9 22.01,-18.29 23.06,-27.39l-0.38 -34.18c-1.42,-15.63 0.4,-38.02 -9.26,-49.5 -19.24,-22.86 -45.22,-3.56 -28.37,12.85 3.47,3.38 6.33,0.33 9.95,-0.94zm144.26 304.97c-7.87,1.36 -22.84,-12.56 -24.44,-18.13 -4.47,-15.63 1.02,-36.25 15.8,-39.46 4.53,-0.99 9.25,-0.74 13.91,-0.79 0.65,1.32 1.03,2.22 2.02,3.42 -5.73,7.23 -18.69,5.32 -21.27,24.08 -0.98,7.15 1.8,13.63 4.89,17.89l9.09 12.99zm-97.46 -413.15l-11.98 0.26c-5.01,5.11 -9.4,15.01 -2.18,22.31 10.99,11.11 37.04,6.28 49.27,-0.43 6.4,-3.52 13.61,-9.3 20.77,-10.2 3.29,7.5 6.63,14.93 11.43,19.81 17.62,17.92 42.07,-5.48 29.67,-15.53 -2.86,-2.32 -8.12,-2.94 -11.31,-0.22 -4.08,3.48 -2.44,6.58 -2.89,13.37 -4.2,-2.89 -10,-0.61 -14.85,-10.31 -3.66,-7.34 -4.1,-11.77 -0.5,-19.15 5.75,-11.78 20.01,-17.11 37.34,-14.21 10.21,1.71 15.99,6.66 20.73,14.05l5.52 11.49c4.05,13.49 1.21,29.33 -5.33,41.72 -7.48,0.72 -17.19,-1.75 -20.82,2.82 -0.95,7.25 7.08,7.86 13.98,7.97 -3.43,11.96 -9.08,14.04 -18.29,25.27 -7.38,8.99 -13.88,14.73 -21.28,22.62 -4.42,4.71 -6.39,7.26 -10.73,11.23 -3.79,3.47 -8.63,7.29 -11.57,10.39 -2.48,2.63 -2.25,2.72 -5.29,5.31 -1.93,1.64 -3.93,3.79 -5.6,5.7 -2.24,2.55 -9.05,8.91 -8.19,13.93 5.46,2.41 11.79,-4.14 14.33,-7.08 4.92,-5.71 17.23,-18.53 23.42,-23.29 2.3,-1.78 39.22,-39.48 43.01,-44.8 0.93,-1.32 1.4,-2.42 2.49,-3.88 3.11,-4.16 5.79,-10.72 9.49,-14.55 5.54,0.28 14.4,3.4 15.55,9.26 2.19,11.16 -8.91,22.39 -15.16,28.61l-17.07 18.36c-17.5,18.67 -33.27,33.43 -53.03,53.19 -10.49,10.49 -19.97,21.05 -31.17,30.49 -2.06,1.73 -0.05,0.95 -2.57,1.19 -1.02,0.09 -2.6,-0.15 -3.19,-0.26 -2.15,-4.36 -0.89,-88.26 -0.43,-100.09 0.31,-7.78 0.42,-15.98 2.7,-22.67 2.13,-6.24 8.02,-9.14 14.01,-11.46 9.01,-3.5 20.19,-5.6 29.73,-8.49 4.57,-1.38 5.13,-2.36 6.08,-7.87 -12.12,-1.86 -47.98,-0.13 -62.57,0.24 -10.51,0.26 -59.4,-1.15 -64.32,1.48 -0.29,4.32 -0.93,7.43 3.42,8.39 10.62,2.35 35.69,-2.88 41.36,18.83 5.71,21.87 2.43,46.83 4.77,68.8 0.78,7.4 0.26,15.48 0.06,22.9 -0.2,7.4 0.72,16.18 0.79,24.05 0.28,32.04 0.42,64.21 0.48,96.31 0.03,15.59 0.83,26.81 -12.34,36.55 -11.59,8.57 -29.22,5.5 -37.1,11.61l0.92 4.6c8.13,1.79 20.36,-0.12 28.7,-0.56 12.24,-0.64 78.47,-0.88 87.79,0.48l4.59 -8.87c-10.67,-1.4 -17.13,-0.62 -27.46,-3.24 -8.11,-2.06 -13.73,-8.16 -16.13,-15.05 -4.63,-13.27 -4.04,-41.81 -4.67,-57.81 -1.37,-35.13 -3.75,-26.99 15.45,-46.22l16.02 -15.14c2.72,-2.48 5.56,-4.78 8.31,-7.25 3.06,-2.75 5.02,-5.44 8.14,-7.39 6.27,1.85 14.11,12.01 18.32,16.99 11.73,13.84 21.14,24.5 34.43,37.84l25.08 28.74c8.25,9.83 17.26,19.61 24.5,30.04 5.42,7.79 11.52,11.9 9.84,25.35 -0.68,5.42 -4.13,7.08 -8.63,9.15 -4.1,1.88 -10.19,2.96 -16.04,2.68 -4.89,-6.46 -10.33,-16.81 -15.15,-24.16 -18.5,-28.2 -43.69,-56.56 -65.6,-81.72 -3.49,-4.01 -9.27,-11.35 -12.84,-14.19 -3.37,-2.67 -6.43,0.67 -4.69,4.71 1.17,2.72 9.83,12 12.21,14.77 1.94,2.25 4,4.94 6.19,7.26l24.5 29.34c11.83,15.17 23.51,29.58 34.26,45.77 2.11,3.17 2.92,5.37 4.7,8.73 2.65,5.02 3.13,3.51 2.48,10.87 -7.53,1.08 -9.97,-0.38 -14.97,4.28 0.16,6.58 2.99,5.68 8.99,5.33 4.15,-0.25 10.29,0.48 12.84,-0.05 2.6,6.18 4.35,18.12 2.46,20.28 -3.13,1.64 -18.17,1.16 -23.96,1.68 -6.21,0.57 -18.77,1.69 -24.63,0.08 0.87,-5.84 9.32,-3.88 14.74,-5.82 0.11,-0.17 0.22,-0.67 0.25,-0.56 0.04,0.1 0.19,-0.43 0.23,-0.57 0.87,-2.8 0.51,-6.66 -8.06,-12.97 -16.97,-12.47 -39.57,-4.95 -48.19,13.49 -6.31,13.49 -3.76,7.93 -37.79,11.26 -8.03,0.78 -15.24,0.98 -23.46,0.98 -7.38,0.01 -18.19,-1.86 -21.49,3.7 2.43,6.2 8.7,4.61 16.12,4 10.66,-0.87 57.52,-1.65 63.1,-0.11 4.86,11.62 1,18.44 22.67,31.85 8.35,5.17 10.13,4.64 21.58,5.37 29.54,1.89 45.31,-14.73 58.21,-37.45 2.65,-4.69 3.9,-3.62 9.79,-3.77 9.09,-0.22 17.72,-0.55 26.9,-0.47l39.68 0.81c5.48,0.12 8.41,-0.72 10.03,3.9 2.41,6.85 1.34,15.99 13.18,13.53 11.45,-2.38 7.55,-18.88 -4.79,-23.35 -13.47,-4.88 -22.17,-3.52 -37.56,-3.52l-55.06 -0.2c-1.65,-3.89 -3.02,-18.5 -1.75,-21.81l14.04 -1.66c6.26,-1.05 8.71,-1.06 15.15,-1.02 10.74,0.07 21.71,-0.35 32.58,-0.39 13.71,-0.04 50.38,1.8 59.91,-3.95l-0.79 -6.42c-15.37,-4.46 -26.52,8.62 -58.73,-19.48 -15.59,-13.6 -32.74,-33.86 -47.31,-49.7l-55.66 -61.18c-3.24,-3.41 -6.25,-6.86 -9.41,-10.44 -5.52,-6.26 -12.12,-14.89 -18.03,-20.94 -4.66,-4.76 -3.29,-7.05 1.57,-11.31l19.73 -19.18c2.27,-2.36 3.4,-2.52 5.43,-4.52 1.85,-1.8 2.99,-3.42 4.75,-5.14 13.23,-12.87 47.3,-46.86 60.26,-56.58 23.85,-17.89 27.56,-8.6 45.86,-12.28 3.25,-0.65 4.53,-1.89 5.29,-4.51 0.86,-2.98 0.18,-5.9 -0.81,-7.94 -15.66,-4.56 -89.06,4.31 -101.99,-1.46 2.52,-4.17 3.5,-7.85 5.24,-13.19 0.77,-2.35 1.51,-4.37 2.58,-6.6 2.88,-5.98 6.85,-12 11.48,-16.85 4.1,-4.3 5.55,-5.08 10.47,-8.66 9.43,-6.85 40.3,-13.78 35,8.12 -1.29,5.36 -6.51,7.41 -6.1,13.11 3.12,2.95 5.21,2.51 9.2,0.63 4.1,-1.93 3.85,-2.8 6.29,-6.49 3.67,-5.55 3.52,-13.77 0.32,-19.74 -3.8,-7.12 -5.37,-8.24 -14.82,-10.69 -6.72,-1.74 -17.41,-0.86 -23.47,1.64 -2.98,1.23 -5.79,2.77 -8.5,4.27 -5.51,3.04 -9.84,7.32 -14.87,10.61l-5.87 3.97c-0.72,0.46 0.56,1.57 -1.64,-0.03 -1.75,-1.28 -7.15,-13.61 -8.89,-16.71 -3.53,-6.3 -7.23,-10.03 -12.31,-13.93 -6.56,-5.04 -10.03,-4.87 -20.24,-4.97 -9.43,-0.11 -16.06,-0.88 -23.66,2.28 -12.82,5.32 -18.13,13.88 -28.18,23.51 -8.88,8.52 -20.49,16.03 -33.36,18.31 -7.58,1.33 -15.79,2.81 -19.87,-2.34 -2.62,-3.31 -1.65,-5.85 0.01,-8.96 1.6,-2.99 2.75,-5.82 4.43,-8.82z"/>
 </g>
</svg>
