<?xml version="1.0" encoding="UTF-8"?>
<!DOCTYPE svg PUBLIC "-//W3C//DTD SVG 1.1//EN" "http://www.w3.org/Graphics/SVG/1.1/DTD/svg11.dtd">
<!-- Creator: CorelDRAW 2020 (64 Bit) -->
<svg xmlns="http://www.w3.org/2000/svg" xml:space="preserve" width="512px" height="512px" version="1.1" style="shape-rendering:geometricPrecision; text-rendering:geometricPrecision; image-rendering:optimizeQuality; fill-rule:evenodd; clip-rule:evenodd"
viewBox="0 0 512 512"
 xmlns:xlink="http://www.w3.org/1999/xlink"
 xmlns:xodm="http://www.corel.com/coreldraw/odm/2003">
 <defs>
  <style type="text/css">
   <![CDATA[
    .fil1 {fill:#1A1A1A}
    .fil0 {fill:#FEF6EE}
   ]]>
  </style>
 </defs>
 <g id="Camada_x0020_1">
  <metadata id="CorelCorpID_0Corel-Layer"/>
  <path class="fil0" d="M256 0c141.38,0 256,114.61 256,256 0,141.39 -114.62,256 -256,256 -141.39,0 -256,-114.61 -256,-256 0,-141.39 114.61,-256 256,-256z"/>
  <path class="fil1" d="M239.96 314.96c3.66,-2.11 11.17,3.05 7.43,12.38 -7.72,0.71 -8.32,-4.75 -9.85,-10.37l2.42 -2.01zm71.09 52.96c-1.51,1.35 -3.16,0.62 -5.84,1.12l-4.27 1.34c-3.45,1.29 -2.9,4.46 -1.69,7.8 9.59,1.91 16.54,-3.27 15.75,6.9 -0.18,2.29 -0.7,3.82 -0.84,6.33 -0.26,4.7 0.15,8.42 -0.87,13.12 -1.62,7.37 -3.41,16.52 -6.75,21.26 -5.78,-0.48 -9.8,-10.02 -11.77,-14.92 -1.33,-3.29 -2.45,-6.34 -3.58,-9.72 -2.84,-8.46 -2.42,-12.92 -2.35,-21.58 0.04,-6.43 -5.86,-5.51 -7.87,-1.08 -1.67,3.67 0.03,5.94 0.45,15.08 0.16,3.34 0.21,6.36 1.05,9.26 1.07,3.74 2.1,4.82 3.42,7.81 2.57,5.81 4.1,9.34 7.36,14.39 3.93,6.1 7.42,6.66 1.54,13.73 -6.11,7.36 -16.57,12.77 -27.28,16.22 -14.8,4.78 -23.99,3.19 -39.68,2.65 -9.31,-0.32 -25.01,-8.96 -30.91,-12.81 -4.48,-2.93 -7.87,-6.88 -11.43,-10.34 -4.06,-3.96 -6.92,-5.43 -9.31,-12.44 -3.37,-9.86 -8.65,-25.86 -5.39,-35.64 3.32,-9.99 9.3,-7.73 25.46,-7.54 5.61,0.07 5.75,0.26 7.76,-3.58 -3.81,-5.49 -17.26,-4.35 -22.42,-10.54 1.08,-3.98 3.44,-5.49 6.42,-7.48 16.22,-10.86 27.39,-8.85 43.07,1.43 11.3,7.42 4.6,29.41 5.56,34.47 5.89,0.41 10.07,-5.74 15.27,-4.01 2.06,4.45 1.46,4.35 -0.4,9.1 -3.29,8.42 -7.91,15.78 -17.33,19.14 -9.71,3.47 -12.47,1.77 -18.92,-2.12 -6.63,-4 -4,-11.43 -4.73,-16.13 -1.18,-7.65 -8.92,0.77 -9.4,3.6 -1.69,9.78 6.91,24.42 26.02,23.95 13.99,-0.35 23.52,-9.3 29.83,-19.45 3.47,-5.58 3.86,-13.98 3.86,-20.02 0,-0.32 -3.68,-16.39 -5.17,-19.4 -5.74,-11.55 -16.54,-17.7 -28.21,-22.38 -9.22,-3.7 -11.13,-3.36 -22.11,-3.36 -11.43,0 -24.39,8.43 -30.93,15.64 -3.58,3.95 -6.37,3.41 -8.5,-1.99 -4.77,-12.09 7.81,-38.19 12.57,-49.46 1.81,-4.3 6.63,-17.31 8.88,-20.62 6.77,-10.01 18.68,3.47 21.23,5.57 2.4,1.99 5.48,5.1 8.74,6.73 4.48,2.23 6.45,3.23 10.26,5.91 8.24,5.78 -0.77,15.22 7.01,24.61 1.96,2.35 5.46,6.11 8.46,6.95 15.74,4.38 17.91,-11.6 6.05,-24.96 -9.53,-10.72 -8.43,-4.19 -3.46,-19.21 3.75,-11.32 10.8,-6.63 18.44,-0.03 20.66,17.86 33.7,33.49 43.68,58.22l2.16 6.25c0.87,2.64 2.29,6.04 2.11,9.12 -0.15,2.72 0.01,2.03 -1,3.11zm-40.55 -79.74c5.28,-4.29 10.95,-4.3 19.17,-4.79 6.3,-0.38 15.44,-2.68 21.77,-2.4 5.36,0.25 5.13,1.15 7.1,5.01 7.31,14.34 20.63,44.29 24.34,57.8 1.76,6.45 0.54,13.16 -5.33,16.9 -7.97,5.08 -9.35,6.24 -16.23,5.55 -0.12,-22.97 -23.44,-55.91 -41.87,-71.4 -3.52,-2.95 -7.73,-4.78 -8.95,-6.67zm-36.3 9.87c-2.62,-1.89 -9.74,-4.09 -13.64,-6.11 -8.91,-4.61 -4.25,-3.1 -10.8,-7.8 11.57,-0.8 19.11,-0.75 29.97,1.1 -0.95,6.23 -3.95,8.14 -5.53,12.81zm-57.65 -45.26c-2.74,-1.33 -12.63,-9.9 -12,-15.79 0.65,-6.13 4.42,-15.07 8.49,-19.22 1.39,1.32 2.08,2.62 3.6,4.27 3.16,3.42 10.3,9.37 10.28,11.97 -0.04,5.07 -7.4,16.95 -10.37,18.77zm13.35 -30.99c-5.99,-2.7 -13.18,-8.32 -11.37,-16 0.75,-3.17 2.61,-7.25 3.97,-10.02 1.52,-3.11 4.25,-6.48 5.16,-8.94l0.74 0.85c0.09,0.12 0.24,0.3 0.35,0.43 0.09,0.13 0.22,0.3 0.32,0.43 0.09,0.13 0.21,0.29 0.3,0.42 0.6,0.81 0.79,1.09 1.47,2.03 1.25,1.76 1.44,2.39 2.7,4.33 3.01,4.6 5.28,5.83 5.31,8.48 0.03,3.1 -4.94,14.97 -8.95,17.99zm9.17 38.48c-0.04,-3.78 -0.28,-3.68 0.92,-6.97l17.03 -39.89c2.2,-5.18 4.32,-9.52 6.17,-14.85 3.94,-11.37 8.15,-19.49 12.59,-30.33 3.09,-7.57 8.04,-26.42 13.13,-29.63 4.17,1.59 5.8,6.36 7.62,11.3 3.13,8.51 15.46,33.93 14.87,39.92 -11.2,6.48 -25.24,-7.37 -32.36,-4.96 -1.71,5.72 -0.88,7.22 2.44,8.92l9.21 3.39c17.67,6.01 27.01,0.35 31.04,6.89 0.03,0.06 0.65,1.31 0.69,1.41 2.5,5.31 3.81,10.15 7.99,18.73l2.69 5.71c17.15,36.9 16.51,29.15 -10.01,34.1 -4.82,0.9 -20.73,2.72 -24.79,1.42 -0.5,-7.32 5.07,-8.06 4.73,-15.9 2.2,-3.52 -5.91,-8.22 -7.8,-9.8 -12.1,-10.22 -13.78,-9.08 -26.86,-22.35 -1.13,-1.14 -3.47,-3.92 -4.95,-3.85 -1.92,3.78 -1.16,5.6 -1.22,10.2l31.59 25.1c0.15,8.64 -4.32,9.41 -4.4,14.6 -6.84,-0.79 -6.47,-0.29 -11.54,-3.5l-15.7 -11.02c-5.53,-4.69 -4.53,-6.46 -10.25,-6.17 -0.94,5.33 -0.26,8.25 7.06,12.85 3.56,2.24 9.07,4.91 10.75,8.47 -10.2,2.19 -23.87,0.25 -30.64,-3.79zm166.44 -112.19c-1.48,-1.35 -1.99,-1.16 -3.7,-2.32 -2.45,-1.66 -8.69,-4.72 -9.28,-7.44 -0.52,-2.4 1.49,-16.41 1.99,-19.92 4.01,-1.11 7.2,0.69 10.14,2.03l4.68 1.65c0.26,0.08 2.34,0.96 2.47,1.04 1.48,0.94 0.64,-0.37 1.43,1.38 1.52,4.43 -2.46,18.96 -7.73,23.58zm-180.75 13.85c-1.96,-7.97 -1.09,-16.78 2.06,-23.61 1.71,-3.7 2.86,-5.13 5.96,-8.13 1.52,-1.47 5.15,-5.42 7.95,-5.28 1.12,4.73 -7.72,24.48 -10.51,30.08 -3.46,6.95 -4.87,5.28 -5.46,6.94zm135.32 -51.48c0,-5.46 -0.54,-6.81 1.83,-10.46 7.55,0.14 18.03,9.78 24.03,12.47 -0.14,4.61 -0.55,7.15 -1.27,11.5 -1.22,7.28 -2.02,5.52 -3.2,8.92l-13.01 -7.85c-10.4,-5.55 -8.36,-2.3 -8.38,-14.58zm-128.87 -28.87c-2.44,-7.59 -2.38,-9.95 -9.51,-13.54 -11.57,-5.84 -22.09,0.98 -24.17,-3 -0.62,-1.2 -0.28,-0.29 0.23,-1.45 3.99,-9.28 23.65,-24.19 32.89,-29.65 16,-9.46 28.72,-14.83 50.53,-14.82 18.03,0.01 26.62,-0.74 40.3,5.35 11.08,4.94 19.36,9.11 29.24,16.42 9.94,7.36 24.91,25.7 29.49,38.64 2.13,5.99 3.49,11.46 3.74,19.06 -5.2,0.12 -6.94,-1.74 -10.49,-3.86 -3.33,-1.99 -6.16,-3.18 -9.03,-5.03 -5.93,-3.84 -13.73,-11.16 -15.97,-11.65 -1.46,4.56 -0.17,6.69 0.98,11.13 3.57,13.73 0.34,21.53 -0.42,35.32 3.51,3.13 19.34,10.03 26.64,14.35 1.27,0.76 2.33,1.16 3.59,2.5 -0.55,4.33 -0.3,3.17 -2.12,6.07l-8.61 13.14c-4.22,5.78 -23.98,30.15 -31.51,17l-9 -19.8c-5.6,-12.65 -11.39,-27.52 -17.86,-40.44 -3.24,-6.49 -6.07,-13.29 -9.17,-19.66 -3.58,-7.4 -4.63,-15.54 -9.97,-19.02 -2.94,1.21 -3.37,2.94 -4.47,6.24 -0.36,1.09 -0.38,0.95 -0.74,2.08 -6.49,20.07 -12.31,31.99 -19.09,50.44 -3.47,9.43 -7.46,20.69 -11.55,29.9 -3.87,8.74 -6.78,20.68 -12.62,27.87 -2.63,-1.24 -3.83,-4.5 -5.58,-7.49 -1.56,-2.65 -3.37,-5.05 -4.84,-7.8 -3,-5.55 4.63,-21.31 8.24,-29.46 0.89,-2.02 3.4,-6.95 4.66,-7.99 6.52,-5.35 17.71,-4.2 12.25,-24.24 -1.09,-4 0.74,-5.94 1.87,-9.45 2.36,-7.38 4.48,-12.02 7.19,-18.77l12.36 -26.28c4.05,-7.92 4.5,-10.67 -4.5,-10.81 -1.32,2.91 -3.59,5.31 -5.54,11.33l-1.05 3.15c-0.76,2.05 -1.23,3.37 -1.9,5.13 -2.21,5.8 -6.02,12.96 -8.83,18.55 -5.55,11.02 -4.36,10.34 -8.18,19.96 -1.34,3.38 -5.27,3.54 -9.21,4.82 -16.56,5.37 -27.16,24.19 -21.9,43.46 2.84,10.42 4.68,11.63 1.55,23.18 -2,7.34 -4.97,14.41 -8.9,18.72 -7.36,-9.2 -12.89,-21.59 -18.93,-33.16 -11.73,-22.48 -15.88,-59.88 2.68,-81.52 14.7,-17.13 23.84,-7.31 37.23,-4.92zm-44.12 191.88c0.38,-0.77 0.59,-1.19 0.93,-1.89l1.15 -2.36c3.09,-6.57 6.34,-15.68 11.23,-21.08 2.51,0.91 6.41,5.18 8.27,7.18 6.79,7.29 6.03,8.53 3.13,15.46 -0.89,2.13 -1.48,3.5 -2.3,5.43l-0.43 0.99c-0.06,0.15 -0.15,0.33 -0.21,0.48 -0.46,1.01 0,-0.05 -0.66,1.43l-13.02 27.72c-6.16,13.23 -12.05,27.83 -19.89,39.82 -4.49,6.86 -7.43,11.52 -14.78,15.43 -25.79,13.72 -46.55,-4.03 -42.96,15.31 6.37,1.96 13.74,-0.67 20.31,-0.92 14.51,-0.56 30.07,-0.19 44.28,1.02 6.36,0.54 16.12,-2.21 20.96,0.7 1.78,2.98 -1.5,7.5 -2.14,11.84 -1.07,7.32 1.95,19.49 4.57,26.48 1.3,3.47 4.33,6.45 4.34,10.33 -2.5,-1.07 -5.57,-1.74 -8.17,-2.98 -10.52,-5.02 -11.61,-6.88 -25.33,-10.46 -13.59,-3.53 -26.23,-7.94 -40.84,-3.24 -10.09,3.25 -24.03,14.21 -20.02,25.97 0.26,0.75 0.48,1.44 0.68,2.07 3.27,3.23 6.64,6.38 10.08,9.43 6.61,1.74 13.09,-0.91 18.88,-5.01l-1.64 -5.04c-3.8,0.18 -10.91,-2.04 -12.98,-4.47 -0.78,-2.86 -0.37,-5.87 0.56,-8.46 1.08,-2.99 2.24,-3.25 5.08,-4.76 24.45,-12.96 72.27,13.73 92.42,29.04 9.18,6.98 20.89,14.11 32.44,16.75 4.97,1.14 33.19,0.75 38.78,-0.2 11.94,-2.02 19.52,-5.61 28.29,-10.93 5.9,-3.59 11.88,-7.94 16.72,-12.85 8.33,-8.45 5.64,-0.64 19.93,3.21 5.26,1.42 13.35,3.07 18.98,3.02 15.19,-0.15 23.54,-3.42 34.3,-9.51 8.53,-4.83 15.8,-14.6 23.4,-20.19 14.82,-10.89 26.6,-1.92 35.41,-8.07 0.69,-4.95 0.81,-5.65 -3.87,-6.81 -3.08,-0.76 -6.51,-0.87 -9.87,-0.68 -6.47,0.35 -13.64,0.91 -19.48,2.27 -14.19,3.32 -22.92,15.18 -26.58,15.67 -4.71,-3.98 -1.9,-13.68 -11.91,-16.81 -6.41,-2 -22.44,-3.32 -18.83,6.13 4.21,4.62 10.22,0.76 14.07,7.05 3.4,5.54 0.2,11.1 -3.02,14.05 -3.46,3.17 -8.26,4.96 -14.32,6.18 -5.86,1.17 -30.81,-0.23 -29.25,-9.56 0.45,-2.69 2.11,-5.44 3.1,-7.59 17.04,-36.7 -2.71,-44.17 21.94,-43.24 4.66,0.17 9.39,0.07 14.05,-0.06 4.7,-0.14 9.38,-0.29 14.04,-0.5 4.83,-0.22 8.3,-1.24 13.35,-1.28 8.51,-0.07 51.34,1.77 55.5,0.26 0.98,-3.15 0.18,-6 -0.75,-8.36 -11.5,-1.98 -25.08,0.85 -35.21,-3.41 -19.99,-8.41 -26.88,-23.42 -35.16,-41.4l-25.43 -51.12c-7.93,-15.46 -15.74,-37.14 -23.04,-52.84 -3.41,-7.35 -10.8,-19.55 -10.43,-27.63 2.32,-1.2 4.39,-2.31 6.92,-3.63 6.66,-3.48 12.22,-8.7 17.56,-14.04 4.38,-4.38 15.42,-20.04 16.79,-24.63 11.01,3.52 19.73,6.93 15.45,20.34 -0.05,0.18 -0.12,0.35 -0.17,0.53 -0.05,0.18 -0.1,0.37 -0.14,0.56 -0.05,0.19 -0.08,0.38 -0.13,0.58l-3.54 13.31c-0.06,0.16 -0.14,0.34 -0.2,0.5l-0.61 2.21c-3.93,14.74 -1.66,13.67 -3.43,27.39 -1.77,13.79 2.15,33.19 7.11,45.01 8.42,20.08 24.98,43.78 49.61,40.43 5.07,-0.7 6.61,-5.4 7.36,-10.17 2.77,-17.5 -16.46,-24.67 -16.06,-17.62 0.16,2.72 3.17,4.08 3.94,6.57 1.01,3.31 -0.32,8.05 -2.63,9.04 -5.69,2.45 -13.45,-2.12 -17.42,-5.25 -5.91,-4.67 -10.72,-15.07 -13.87,-22.01l-5.31 -14.33c-1.34,-4.23 -1.59,-8.97 -2.73,-13.45 -2.11,-8.31 -1.43,-35.06 1.45,-44.61l3.34 -14.92c0.14,-1.64 0,-3.81 0.06,-5.57 4.2,-0.19 3.2,-1.15 5.58,1.25 4.92,4.95 9.58,9.5 13.23,15.63l1.43 2.78c2.04,4.9 5.54,15.27 2.19,19.63 -2.92,3.82 -15.37,1.74 -8.69,18.36 4.63,0.55 8.3,1.35 11.43,-2.27 7.47,-8.63 8,-21.78 4.84,-32.83 -2.35,-8.2 -15.71,-28.35 -24.4,-31.63 -0.06,-3.2 -0.27,-3.67 0.64,-6.45 12.8,-39.05 22.73,-26.69 -13.43,-39.92 -4.37,-1.59 -5.6,-2.14 -6.98,-7.04 -5.11,-18.14 -1.54,-29.78 -18.41,-51.88l-13.14 -14.96c-9.53,-9.44 -21.94,-15.58 -34.55,-20.93 -21.64,-9.18 -71.64,-9.14 -93.46,5.33 -2.94,1.95 -5.55,3.21 -8.79,5.25 -8.42,5.28 -17.52,11.65 -23.67,18.48 -3.92,4.34 -7.98,10.47 -12.82,14.03 -3.22,-3.05 -4.37,-6.68 -6.83,-11.32 -2.47,-4.66 -7.84,-10.96 -13.13,-15.19 -3.19,1.81 -6.33,3.68 -9.43,5.62 4.98,3.12 8.54,2.66 12.62,13.19 9.2,23.69 -4.02,24.52 -1.3,57.34 0.47,5.63 -0.36,10.47 -0.29,16.04 0.13,10.77 3.74,21.43 7.37,31.11 0.06,0.16 0.13,0.34 0.19,0.5 5.14,13.64 10.86,28.32 19.22,40.51 1.5,2.18 5.55,7.63 6.09,10.14 1.31,6.1 -5.92,20.53 -9.12,23.89 -6.44,-7.22 -13.54,-15.34 -18.7,-23.55 -2.11,-3.36 -3.23,-5.38 -5.07,-9.02 -3.38,-6.67 -6.02,-11.75 -8.4,-19.67 -2.13,-7.09 -2.64,-14.27 -9.72,-17.41 -1.28,1.3 -0.17,-0.3 -1.02,1.33 -0.23,0.44 -0.51,1.23 -0.59,1.64 -0.66,3.29 0.66,6.81 1.71,10.02 8.28,25.53 8.16,21.82 20.95,42.97 4.97,8.23 19.02,20.49 15.39,30.66l-9.76 22.52c-8.48,17.2 -15.31,37.01 -31.05,48.31 -3.33,2.39 -5.69,5 -10.2,4.35 -0.99,-4.9 1.59,-10.89 -0.39,-15.44 -0.96,-1.3 -4.07,-1.2 -5.83,-1.36 -2.2,-0.21 -4.13,-0.5 -5.79,-0.98 -1.59,2.82 -4.13,2.9 -4.93,7.31 -0.68,3.7 -0.97,7.8 1,10.24 4.34,5.39 8.79,8.35 16.24,7.91 12.13,-0.73 23.86,-11.8 28.58,-19.35 9.47,-15.19 8.78,-17.71 14.97,-29.96 0.07,-0.15 0.17,-0.33 0.24,-0.47 0.1,-0.19 0.37,-0.74 0.47,-0.94l3.51 -7.02z"/>
 </g>
</svg>
