<?xml version="1.0" encoding="UTF-8"?>
<!DOCTYPE svg PUBLIC "-//W3C//DTD SVG 1.1//EN" "http://www.w3.org/Graphics/SVG/1.1/DTD/svg11.dtd">
<!-- Creator: CorelDRAW 2020 (64 Bit) -->
<svg xmlns="http://www.w3.org/2000/svg" xml:space="preserve" width="512px" height="512px" version="1.1" style="shape-rendering:geometricPrecision; text-rendering:geometricPrecision; image-rendering:optimizeQuality; fill-rule:evenodd; clip-rule:evenodd"
viewBox="0 0 512 512"
 xmlns:xlink="http://www.w3.org/1999/xlink"
 xmlns:xodm="http://www.corel.com/coreldraw/odm/2003">
 <defs>
  <style type="text/css">
   <![CDATA[
    .fil1 {fill:#1A1A1A}
    .fil0 {fill:#FEF6EE}
   ]]>
  </style>
 </defs>
 <g id="Camada_x0020_1">
  <metadata id="CorelCorpID_0Corel-Layer"/>
  <polygon class="fil0" points="0,0 512,0 512,512 0,512 "/>
  <path class="fil1" d="M251.64 409.68c6.09,-0.23 47.76,-1.45 53.43,0.87l3.94 1.84c-0.59,7.15 -7.13,14.15 -11.28,17.45 -6.09,4.84 -12.52,8.41 -21.04,8.4 -17.1,-0.02 -33.76,-16.89 -25.05,-28.56zm68.66 -249.4l-0.13 0.96c0.01,0.14 0.03,0.8 0.06,1 0.07,0.35 0.74,2.29 0.86,2.62 1.86,5.25 5.1,10.1 4.79,14.88 -0.4,6.29 -6.72,12.54 -11.53,14.91 -14.79,7.31 -40.99,-1.3 -44.77,9.13 5.25,5.18 12.7,3.62 21.48,4.09 8.16,0.44 16.51,0.85 23.26,3.3 8.71,3.17 10.94,6.47 13.34,13.22 0.61,1.71 1.07,3.02 0.54,5.6l-2.52 6.9c-0.12,0.27 -0.8,2.44 -0.83,2.73 -0.75,8.01 8.81,8.35 14.19,-6.63 2.83,-7.87 2.34,-13.96 2.33,-23.65 15.4,-7.03 47.87,6.03 38.63,-12.62l-32.32 0.39c-3.92,0.19 -5.9,0.81 -6.4,-2.78 -1.31,-9.43 3.68,-20.07 -7.73,-29.66 -3.4,-2.86 -6.67,-6.36 -13.25,-4.39zm-230.15 87.2c-3.83,-1.68 -12.83,-14.64 -8.88,-19.7l8.17 -9.1c3.32,1.26 8.96,9.05 8.76,14.34 -0.09,2.11 -5.15,12.8 -8.05,14.46zm14.23 -113.46c-0.05,-6.33 -3.91,-7.97 -0.35,-14.08 6.64,-1.33 8.35,2.8 11.03,6.38 2.82,3.77 3.88,6.87 5.18,12.73 1.92,8.62 6.56,62.23 3.48,67.28 -1.05,1.72 -15.49,17.05 -18.82,18.42 -1.64,-2.64 -2.9,-2.41 -6.95,-9.55 -2.02,-3.54 -3.61,-9.18 -6.67,-10.66 -4.8,-2.33 -6.65,2.92 -8.65,5.87 -4.13,6.07 -12.64,14.87 -12.75,21.19 -0.08,5.43 2.44,6.49 5.9,11.51l9.9 15.95c4.87,7.26 6.23,4.55 10.41,-5.74 1.58,-3.9 3.9,-7.7 5.42,-11.22 7.65,0.71 17.75,9.93 23.13,12.98 0.45,20.13 0.07,37.79 -1.49,57.59 -0.75,9.4 -2.53,16.37 -6.66,22.73 -5.98,9.24 -9.06,8.37 -20.39,3.59 -1.38,-5.45 -0.83,-6.43 -3.62,-10.57 -2.62,-0.39 -4.29,-0.03 -6.1,0.74 -1.14,1.16 -4.99,23.62 13.81,22.86 12.17,-0.5 20.57,-5.41 25.02,-12.92 9.36,-15.81 7.87,-65.3 7.18,-89.72 -3.23,-2.27 -21.19,-11.83 -22.95,-14.92 2.28,-7.99 22.3,-18.52 23.37,-27.74l-0.39 -34.62c-1.44,-15.84 0.4,-38.53 -9.39,-50.16 -19.48,-23.15 -45.8,-3.6 -28.73,13.02 3.52,3.43 6.41,0.34 10.08,-0.94zm146.13 308.94c-7.96,1.37 -23.13,-12.73 -24.75,-18.37 -4.53,-15.84 1.03,-36.72 16.01,-39.98 4.59,-1 9.36,-0.74 14.08,-0.79 0.67,1.33 1.05,2.24 2.06,3.46 -5.81,7.33 -18.94,5.39 -21.55,24.39 -1,7.24 1.82,13.81 4.95,18.13l9.2 13.16zm-98.72 -418.54l-12.13 0.27c-5.08,5.18 -9.53,15.2 -2.21,22.59 11.13,11.26 37.52,6.36 49.91,-0.43 6.48,-3.56 13.79,-9.42 21.04,-10.33 3.33,7.59 6.72,15.12 11.57,20.06 17.86,18.16 42.63,-5.54 30.07,-15.72 -2.91,-2.35 -8.24,-2.98 -11.46,-0.23 -4.13,3.52 -2.48,6.66 -2.93,13.55 -4.26,-2.94 -10.13,-0.62 -15.04,-10.45 -3.72,-7.44 -4.16,-11.92 -0.51,-19.4 5.83,-11.94 20.27,-17.33 37.83,-14.39 10.34,1.73 16.19,6.74 21,14.23l5.59 11.63c4.1,13.67 1.22,29.72 -5.4,42.28 -7.58,0.72 -17.42,-1.78 -21.1,2.85 -0.96,7.34 7.17,7.96 14.17,8.08 -3.48,12.11 -9.2,14.22 -18.53,25.59 -7.48,9.11 -14.06,14.92 -21.56,22.91 -4.48,4.78 -6.47,7.37 -10.86,11.38 -3.85,3.52 -8.75,7.38 -11.72,10.53 -2.52,2.66 -2.29,2.76 -5.37,5.37 -1.95,1.67 -3.98,3.85 -5.67,5.79 -2.27,2.57 -9.17,9.02 -8.29,14.11 5.52,2.43 11.94,-4.2 14.51,-7.18 4.99,-5.79 17.45,-18.76 23.72,-23.59 2.34,-1.8 39.73,-40 43.57,-45.39 0.95,-1.33 1.42,-2.44 2.53,-3.92 3.15,-4.22 5.86,-10.86 9.61,-14.75 5.62,0.29 14.59,3.45 15.75,9.38 2.23,11.31 -9.02,22.68 -15.35,28.99l-17.29 18.6c-17.74,18.91 -33.71,33.86 -53.73,53.88 -10.62,10.63 -20.23,21.33 -31.58,30.89 -2.08,1.75 -0.05,0.96 -2.6,1.2 -1.02,0.09 -2.63,-0.15 -3.23,-0.26 -2.18,-4.42 -0.9,-89.41 -0.43,-101.39 0.31,-7.89 0.42,-16.19 2.73,-22.97 2.16,-6.32 8.12,-9.25 14.19,-11.61 9.13,-3.55 20.46,-5.67 30.13,-8.6 4.62,-1.39 5.19,-2.39 6.15,-7.97 -12.28,-1.89 -48.61,-0.14 -63.39,0.24 -10.64,0.27 -60.17,-1.17 -65.15,1.5 -0.3,4.38 -0.95,7.53 3.46,8.5 10.76,2.38 36.16,-2.92 41.9,19.07 5.78,22.16 2.46,47.44 4.83,69.7 0.8,7.5 0.27,15.68 0.07,23.2 -0.21,7.49 0.72,16.39 0.79,24.36 0.28,32.47 0.43,65.05 0.49,97.57 0.03,15.8 0.84,27.15 -12.5,37.02 -11.74,8.69 -29.6,5.58 -37.58,11.77l0.93 4.65c8.23,1.82 20.62,-0.11 29.07,-0.56 12.4,-0.65 79.49,-0.89 88.94,0.49l4.65 -9c-10.81,-1.41 -17.36,-0.62 -27.82,-3.27 -8.22,-2.09 -13.91,-8.26 -16.35,-15.25 -4.68,-13.44 -4.09,-42.35 -4.72,-58.57 -1.39,-35.58 -3.8,-27.33 15.65,-46.81l16.23 -15.34c2.76,-2.52 5.63,-4.84 8.42,-7.35 3.09,-2.78 5.08,-5.51 8.24,-7.48 6.35,1.87 14.3,12.16 18.56,17.2 11.88,14.03 21.41,24.83 34.88,38.34l25.41 29.12c8.36,9.95 17.48,19.86 24.82,30.43 5.48,7.89 11.67,12.05 9.96,25.68 -0.69,5.49 -4.18,7.17 -8.74,9.26 -4.15,1.91 -10.32,3.01 -16.25,2.72 -4.95,-6.54 -10.46,-17.03 -15.35,-24.47 -18.74,-28.57 -44.26,-57.3 -66.45,-82.79 -3.54,-4.06 -9.39,-11.5 -13.01,-14.37 -3.41,-2.7 -6.51,0.67 -4.75,4.77 1.18,2.76 9.96,12.16 12.37,14.97 1.96,2.27 4.05,5 6.27,7.35l24.82 29.72c11.98,15.37 23.82,29.96 34.71,46.36 2.14,3.22 2.96,5.44 4.76,8.85 2.69,5.08 3.17,3.56 2.51,11.01 -7.63,1.1 -10.1,-0.39 -15.17,4.34 0.17,6.66 3.03,5.75 9.11,5.39 4.21,-0.25 10.42,0.49 13.01,-0.05 2.63,6.27 4.4,18.36 2.49,20.55 -3.17,1.66 -18.4,1.17 -24.27,1.7 -6.29,0.57 -19.01,1.71 -24.95,0.08 0.88,-5.91 9.44,-3.93 14.93,-5.89 0.11,-0.18 0.22,-0.68 0.26,-0.57 0.03,0.1 0.18,-0.44 0.23,-0.58 0.88,-2.84 0.52,-6.75 -8.17,-13.14 -17.19,-12.63 -40.08,-5.01 -48.82,13.66 -6.39,13.68 -3.8,8.04 -38.28,11.41 -8.13,0.8 -15.44,0.99 -23.76,1 -7.48,0.01 -18.43,-1.88 -21.77,3.75 2.46,6.28 8.8,4.66 16.32,4.05 10.8,-0.88 58.27,-1.68 63.93,-0.12 4.93,11.78 1.01,18.69 22.96,32.28 8.47,5.23 10.27,4.69 21.87,5.44 29.92,1.9 45.9,-14.93 58.96,-37.95 2.69,-4.74 3.95,-3.66 9.92,-3.81 9.2,-0.23 17.95,-0.56 27.25,-0.48l40.2 0.82c5.55,0.12 8.52,-0.73 10.16,3.95 2.44,6.94 1.36,16.2 13.35,13.7 11.6,-2.4 7.65,-19.11 -4.85,-23.65 -13.65,-4.95 -22.46,-3.56 -38.05,-3.56l-55.78 -0.21c-1.68,-3.94 -3.06,-18.73 -1.78,-22.09l14.23 -1.68c6.34,-1.06 8.83,-1.08 15.35,-1.04 10.88,0.07 21.99,-0.35 33,-0.39 13.89,-0.05 51.04,1.82 60.69,-4.01l-0.8 -6.5c-15.57,-4.51 -26.86,8.74 -59.5,-19.73 -15.78,-13.78 -33.16,-34.3 -47.92,-50.35l-56.39 -61.98c-3.27,-3.45 -6.33,-6.94 -9.53,-10.57 -5.59,-6.34 -12.27,-15.09 -18.26,-21.21 -4.72,-4.83 -3.33,-7.14 1.59,-11.46l19.99 -19.43c2.3,-2.39 3.44,-2.55 5.5,-4.58 1.87,-1.82 3.02,-3.47 4.81,-5.21 13.4,-13.04 47.92,-47.47 61.04,-57.31 24.16,-18.13 27.92,-8.72 46.46,-12.44 3.29,-0.66 4.59,-1.92 5.36,-4.57 0.88,-3.02 0.19,-5.98 -0.82,-8.04 -15.86,-4.62 -90.23,4.36 -103.32,-1.48 2.55,-4.23 3.55,-7.96 5.31,-13.36 0.78,-2.39 1.53,-4.43 2.61,-6.69 2.92,-6.07 6.94,-12.16 11.63,-17.07 4.16,-4.36 5.62,-5.15 10.6,-8.77 9.57,-6.95 40.83,-13.97 35.47,8.22 -1.31,5.43 -6.6,7.51 -6.18,13.28 3.16,2.99 5.27,2.54 9.32,0.64 4.15,-1.95 3.9,-2.84 6.37,-6.58 3.71,-5.62 3.56,-13.94 0.32,-19.99 -3.85,-7.21 -5.43,-8.35 -15.02,-10.84 -6.8,-1.76 -17.63,-0.87 -23.77,1.67 -3.01,1.25 -5.86,2.81 -8.61,4.32 -5.58,3.08 -9.97,7.42 -15.06,10.75l-5.95 4.02c-0.73,0.47 0.57,1.6 -1.66,-0.03 -1.78,-1.29 -7.24,-13.78 -9,-16.93 -3.58,-6.38 -7.33,-10.15 -12.47,-14.11 -6.65,-5.1 -10.16,-4.92 -20.51,-5.03 -9.56,-0.11 -16.27,-0.89 -23.97,2.31 -12.99,5.39 -18.37,14.06 -28.54,23.82 -9,8.63 -20.76,16.24 -33.8,18.54 -7.67,1.35 -16,2.85 -20.13,-2.36 -2.65,-3.36 -1.67,-5.93 0.01,-9.08 1.62,-3.03 2.79,-5.9 4.49,-8.94z"/>
 </g>
</svg>
