<?xml version="1.0" encoding="UTF-8"?>
<!DOCTYPE svg PUBLIC "-//W3C//DTD SVG 1.1//EN" "http://www.w3.org/Graphics/SVG/1.1/DTD/svg11.dtd">
<!-- Creator: CorelDRAW 2020 (64 Bit) -->
<svg xmlns="http://www.w3.org/2000/svg" xml:space="preserve" width="280px" height="650px" version="1.1" style="shape-rendering:geometricPrecision; text-rendering:geometricPrecision; image-rendering:optimizeQuality; fill-rule:evenodd; clip-rule:evenodd"
viewBox="0 0 28 65"
 xmlns:xlink="http://www.w3.org/1999/xlink"
 xmlns:xodm="http://www.corel.com/coreldraw/odm/2003">
 <defs>
  <style type="text/css">
   <![CDATA[
    .fil0 {fill:black;fill-rule:nonzero}
   ]]>
  </style>
 </defs>
 <g id="Camada_x0020_1">
  <metadata id="CorelCorpID_0Corel-Layer"/>
  <path class="fil0" d="M254.76 27.41l-1.81 3.61 -3.61 1.81 -42.77 0c-0.81,0.8 -1.81,2.81 -3.01,6.02l0 10.25c0,2.81 0,7.22 0,13.25 0,6.02 0.2,13.85 0.6,23.49 0.4,9.64 0.7,17.17 0.9,22.59 0.2,5.43 0.3,8.74 0.3,9.94l1.21 3.02 -0.61 300.6c1.21,2.01 1.81,4.02 1.81,6.02 0,63.06 -3.41,106.03 -10.24,128.92 -14.06,45.38 -44.98,68.07 -92.77,68.07 -20.48,0 -38.96,-6.42 -55.42,-19.27 -16.07,-12.45 -24.1,-27.51 -24.1,-45.19 0,-20.48 4.22,-36.84 12.65,-49.09 8.44,-12.25 20.28,-18.38 35.54,-18.38 9.64,0 18.28,3.62 25.91,10.85 7.63,7.23 11.44,15.46 11.44,24.7 0,10.84 -3.31,19.57 -9.94,26.2 -6.62,6.63 -15.36,9.94 -26.2,9.94 -16.07,0 -26.51,-10.64 -31.33,-31.93l-3.01 -2.41c-4.42,4.42 -6.63,9.24 -6.63,14.46 0,34.14 15.47,51.21 46.39,51.21 30.52,0 45.78,-23.7 45.78,-71.09 0,-28.91 -0.6,-56.42 -1.8,-82.53 -1.61,-8.03 -2.71,-16.06 -3.32,-24.1 -0.6,-8.03 -0.9,-16.06 -0.9,-24.09 0,-0.4 0,-1.61 0,-3.62 0,-2 0.2,-4.82 0.6,-8.43 0.4,-3.61 0.6,-6.63 0.6,-9.04 0,-2.41 0,-4.21 0,-5.42 -0.4,-4.82 -1.6,-8.83 -3.61,-12.05 0.4,-7.23 0.6,-16.06 0.6,-26.5 0,-10.44 0,-22.69 0,-36.75 0,-30.12 -0.5,-58.63 -1.5,-85.54 -1.01,-26.91 -2.51,-52.81 -4.52,-77.71 -0.81,-10.04 -1.41,-20.79 -1.81,-32.23 -0.4,-11.45 -0.8,-23.8 -1.2,-37.05 0,-14.46 -1.21,-22.69 -3.62,-24.7 -2.41,-2.41 -10.24,-3.61 -23.49,-3.61 -18.48,0 -28.92,0.4 -31.33,1.2l0.6 0 -4.21 -5.42c1.6,-1.61 3.61,-2.41 6.02,-2.41l200 0 1.81 2.41zm-82.53 9.64l0 -1.21c0,-1.2 -0.4,-2.21 -1.21,-3.01l-42.77 0 0 1.81c3.62,2.81 8.84,8.23 15.67,16.26l0 18.08 2.41 1.2c11.64,-10.44 20.28,-21.49 25.9,-33.13zm-36.75 43.97c0,-0.8 -1.5,-3.81 -4.52,-9.03 -3.01,-5.22 -4.51,-10.64 -4.51,-16.27 0,-4.01 0.2,-6.42 0.6,-7.23 -1.61,-2.41 -3.01,-4.51 -4.22,-6.32 -1.2,-1.81 -2.21,-3.52 -3.01,-5.12l-1.21 77.11c0,0.8 1.01,4.82 3.02,12.04l1.2 0c8.44,-22.08 12.65,-37.14 12.65,-45.18zm30.12 64.46l0 -1.2 -1.8 0 1.8 1.2zm-17.47 110.24l-0.6 -4.21 -3.61 -1.81c0,4.02 1.4,6.02 4.21,6.02zm42.17 240.97c0,-6.03 -0.6,-21.49 -1.8,-46.39 -0.41,-12.45 -0.71,-22.49 -0.91,-30.12 -0.2,-7.63 -0.3,-12.85 -0.3,-15.66l0 -286.75c0.4,14.46 0.6,31.13 0.6,50 0,18.88 0,40.16 0,63.86 0,-113.66 -2.01,-177.92 -6.02,-192.78l-1.21 -0.6 -1.8 1.81c-30.93,43.77 -46.39,70.28 -46.39,79.52 0,22.89 1,37.95 3.01,45.18 1.61,6.02 7.03,12.45 16.27,19.28l1.2 -1.81c0,-4.82 -1,-10.64 -3.01,-17.47l0 -15.66c0,-13.26 2.41,-25.81 7.23,-37.65 4.82,-11.85 10.84,-19.18 18.07,-21.99 0,2.41 -1.5,6.42 -4.52,12.05 -3.01,5.62 -4.51,9.84 -4.51,12.65 0,2.41 1.2,7.83 3.61,16.26 2.41,8.44 3.61,14.06 3.61,16.87 0,8.03 -3.21,17.07 -9.63,27.11l0 23.49c12.85,10.44 19.27,29.12 19.27,56.03 0,18.47 -3.01,31.52 -9.03,39.15l-23.5 30.73c-4.01,9.23 -8.23,20.28 -12.65,33.13l0 1.2c0,11.25 4.22,24.9 12.65,40.97l3.01 2.41 2.41 -3.62c0,-1.2 -0.2,-2.91 -0.6,-5.12 -0.4,-2.21 -0.7,-4.52 -0.9,-6.93 -0.2,-2.4 -0.5,-4.71 -0.91,-6.92 -0.4,-2.21 -0.6,-3.72 -0.6,-4.52 0,-4.82 0.7,-9.94 2.11,-15.36 1.41,-5.42 3.31,-10.85 5.72,-16.27 2.41,-5.42 5.12,-10.44 8.14,-15.06 3.01,-4.62 6.32,-8.53 9.94,-11.75l0.6 0c1.6,0.41 2.41,1.81 2.41,4.22 0,1.21 -0.4,2.91 -1.21,5.12 -0.8,2.21 -1.6,4.62 -2.41,7.23 -0.8,2.61 -1.6,5.12 -2.41,7.53 -0.8,2.41 -1.2,4.22 -1.2,5.42 1.2,5.63 1.81,12.65 1.81,21.09l0 6.02c0,2.81 -0.71,5.92 -2.11,9.34 -1.41,3.41 -2.81,6.93 -4.22,10.54 -1.4,3.62 -2.81,7.23 -4.22,10.84 -1.4,3.62 -2.1,6.83 -2.1,9.64l0 4.82c14.05,24.9 21.08,42.57 21.08,53.02 0,6.02 -6.02,18.87 -18.07,38.55 -12.05,20.08 -18.07,32.73 -18.07,37.95l3.01 3.62c4.82,-14.06 13.45,-24.7 25.9,-31.93l0.6 0 2.41 4.82 -6.02 13.25c-0.8,10.84 -3.21,19.48 -7.23,25.9 -8.03,13.26 -12.25,20.49 -12.65,21.69 -2.81,6.03 -5.22,10.84 -7.23,14.46 -2.01,3.61 -4.12,6.32 -6.33,8.13 -2.2,1.81 -4.71,3.01 -7.52,3.62 -2.82,0.6 -6.43,0.9 -10.85,0.9l-4.82 0c-11.64,0 -17.47,2.41 -17.47,7.23 32.93,0 56.43,-10.24 70.48,-30.72 12.86,-18.88 19.28,-49.4 19.28,-91.57zm-19.28 -122.89l-3.01 -4.22 -1.2 3.61 1.8 3.02 2.41 -2.41zm6.63 95.78c0,-4.82 -7.83,-21.49 -23.49,-50 -15.67,-28.11 -23.5,-47.59 -23.5,-58.43 0,-6.43 6.63,-27.51 19.88,-63.26 0,-4.41 -2.61,-12.05 -7.83,-22.89 -5.22,-10.84 -7.83,-18.07 -7.83,-21.69 0,-1.6 0.7,-4.92 2.11,-9.94 1.4,-5.02 2.11,-8.33 2.11,-9.94 0,-1.2 -2.21,-5.02 -6.63,-11.44 -4.02,-6.43 -6.02,-10.44 -6.02,-12.05l2.41 -5.42c7.63,2.81 15.06,11.64 22.28,26.5 7.64,14.06 11.45,26.31 11.45,36.75 0,1.61 -0.7,5.22 -2.11,10.85 -1.4,5.62 -2.11,9.23 -2.11,10.84 0.41,2.41 1.81,3.61 4.22,3.61 1.61,0 3.31,-1.2 5.12,-3.61 1.81,-2.41 3.31,-5.42 4.52,-9.04 1.2,-3.61 2.21,-7.53 3.01,-11.74 0.8,-4.22 1.21,-8.14 1.21,-11.75 0,-15.66 -8.44,-35.95 -25.31,-60.85 -4.41,-6.82 -9.03,-13.65 -13.85,-20.48 -4.82,-6.82 -9.64,-13.65 -14.46,-20.48l-1.81 0 0 6.03c0,3.21 0,6.62 0,10.24 0,3.21 0.21,6.42 0.61,9.63 2,35.35 3.61,68.58 4.82,99.7 1.2,31.13 1.8,60.55 1.8,88.26 0,-0.4 0.61,6.82 1.81,21.68 0.8,8.84 1.41,17.88 1.81,27.11 0.4,9.24 0.8,18.48 1.2,27.71 1.21,27.71 1.81,55.83 1.81,84.34 0,24.9 -3.21,42.37 -9.64,52.41l8.44 -4.22 4.81 3.02 0.61 5.42c-0.41,0.8 -0.81,2.31 -1.21,4.52 -0.4,2.2 -1,5.32 -1.81,9.33l1.81 0c6.43,-4.82 9.64,-10.64 9.64,-17.47 0,-1.2 -2.41,-14.25 -7.23,-39.15l0 -1.81c0,-3.62 2.01,-10.24 6.03,-19.88 4.41,-10.84 6.62,-17.27 6.62,-19.28 0,-13.65 -3.61,-25.9 -10.84,-36.74l0 -21.09 -5.42 -11.44c0,-1.21 0.8,-2.41 2.41,-3.62l1.2 0c17.67,13.25 26.51,27.11 26.51,41.57 0,1.6 -0.3,5.42 -0.91,11.44 -0.6,6.03 -0.9,9.84 -0.9,11.45l3.01 0c6.43,-3.62 9.64,-11.85 9.64,-24.7zm-84.94 62.05c0,-20.08 -7.83,-30.12 -23.49,-30.12 -13.66,0 -20.49,6.82 -20.49,20.48 0,6.02 1.61,12.25 4.82,18.67 3.22,6.43 6.83,10.25 10.85,11.45l3.61 -2.41 0 -6.63c0,-3.21 -0.6,-9.43 -1.81,-18.67 -0.4,-4.42 -0.7,-7.93 -0.9,-10.54 -0.2,-2.61 -0.3,-4.32 -0.3,-5.12 4.82,0.8 9.04,3.91 12.65,9.33 3.61,5.43 5.42,10.75 5.42,15.97 0,1.2 -0.3,3.91 -0.9,8.13 -0.6,4.22 -0.91,6.73 -0.91,7.53 7.64,0 11.45,-6.02 11.45,-18.07zm30.12 54.22c-8.03,6.02 -21.28,12.65 -39.76,19.88l0 0.6c0.4,2.41 3.62,3.61 9.64,3.61 7.63,0 14.56,-2.31 20.78,-6.93 6.23,-4.61 9.34,-10.34 9.34,-17.16z"/>
 </g>
</svg>
