<?xml version="1.0" encoding="UTF-8"?>
<!DOCTYPE svg PUBLIC "-//W3C//DTD SVG 1.1//EN" "http://www.w3.org/Graphics/SVG/1.1/DTD/svg11.dtd">
<!-- Creator: CorelDRAW 2020 (64 Bit) -->
<svg xmlns="http://www.w3.org/2000/svg" xml:space="preserve" width="13px" height="33px" version="1.1" style="shape-rendering:geometricPrecision; text-rendering:geometricPrecision; image-rendering:optimizeQuality; fill-rule:evenodd; clip-rule:evenodd"
viewBox="0 0 13 33.74"
 xmlns:xlink="http://www.w3.org/1999/xlink"
 xmlns:xodm="http://www.corel.com/coreldraw/odm/2003">
 <defs>
  <style type="text/css">
   <![CDATA[
    .fil0 {fill:black;fill-rule:nonzero}
   ]]>
  </style>
 </defs>
 <g id="Camada_x0020_1">
  <metadata id="CorelCorpID_0Corel-Layer"/>
  <path class="fil0" d="M12.91 0.29l-0.1 0.2 -0.21 0.1 -2.38 0c-0.05,0.05 -0.1,0.16 -0.17,0.34l0 0.57c0,0.16 0,0.4 0,0.74 0,0.34 0.01,0.77 0.03,1.31 0.02,0.54 0.04,0.96 0.05,1.26 0.01,0.3 0.02,0.49 0.02,0.56l0.07 0.16 -0.04 16.78c0.07,0.12 0.1,0.23 0.1,0.34 0,3.52 -0.19,5.92 -0.57,7.2 -0.78,2.53 -2.51,3.8 -5.18,3.8 -1.14,0 -2.17,-0.36 -3.09,-1.08 -0.9,-0.7 -1.35,-1.54 -1.35,-2.52 0,-1.15 0.24,-2.06 0.71,-2.74 0.47,-0.69 1.13,-1.03 1.98,-1.03 0.54,0 1.02,0.2 1.45,0.61 0.43,0.4 0.64,0.86 0.64,1.38 0,0.6 -0.19,1.09 -0.56,1.46 -0.37,0.37 -0.85,0.55 -1.46,0.55 -0.9,0 -1.48,-0.59 -1.75,-1.78l-0.17 -0.13c-0.24,0.24 -0.37,0.51 -0.37,0.8 0,1.91 0.87,2.86 2.59,2.86 1.71,0 2.56,-1.32 2.56,-3.97 0,-1.61 -0.03,-3.15 -0.1,-4.6 -0.09,-0.45 -0.15,-0.9 -0.19,-1.35 -0.03,-0.45 -0.05,-0.89 -0.05,-1.34 0,-0.03 0,-0.09 0,-0.2 0,-0.12 0.01,-0.27 0.04,-0.48 0.02,-0.2 0.03,-0.37 0.03,-0.5 0,-0.13 0,-0.24 0,-0.3 -0.02,-0.27 -0.09,-0.5 -0.2,-0.68 0.02,-0.4 0.03,-0.89 0.03,-1.47 0,-0.59 0,-1.27 0,-2.06 0,-1.68 -0.03,-3.27 -0.08,-4.77 -0.06,-1.5 -0.14,-2.95 -0.25,-4.34 -0.05,-0.56 -0.08,-1.16 -0.1,-1.8 -0.03,-0.64 -0.05,-1.33 -0.07,-2.07 0,-0.8 -0.07,-1.26 -0.2,-1.37 -0.14,-0.14 -0.58,-0.21 -1.32,-0.21 -1.03,0 -1.61,0.03 -1.74,0.07l0.03 0 -0.24 -0.3c0.09,-0.09 0.21,-0.14 0.34,-0.14l11.17 0 0.1 0.14zm-4.61 0.54l0 -0.07c0,-0.07 -0.02,-0.12 -0.07,-0.17l-2.39 0 0 0.1c0.21,0.16 0.5,0.46 0.88,0.91l0 1.01 0.13 0.07c0.65,-0.59 1.14,-1.2 1.45,-1.85zm-2.05 2.45c0,-0.04 -0.09,-0.21 -0.25,-0.5 -0.17,-0.29 -0.26,-0.6 -0.26,-0.91 0,-0.22 0.01,-0.36 0.04,-0.4 -0.09,-0.14 -0.17,-0.26 -0.24,-0.36 -0.07,-0.1 -0.12,-0.19 -0.17,-0.28l-0.06 4.3c0,0.05 0.05,0.27 0.16,0.67l0.07 0c0.47,-1.23 0.71,-2.07 0.71,-2.52zm1.68 3.6l0 -0.07 -0.1 0 0.1 0.07zm-0.98 6.15l-0.03 -0.23 -0.2 -0.1c0,0.22 0.08,0.33 0.23,0.33zm2.36 13.45c0,-0.33 -0.04,-1.2 -0.1,-2.59 -0.02,-0.69 -0.04,-1.25 -0.05,-1.68 -0.01,-0.42 -0.02,-0.71 -0.02,-0.87l0 -16.01c0.02,0.81 0.03,1.74 0.03,2.79 0,1.06 0,2.25 0,3.57 0,-6.35 -0.11,-9.93 -0.33,-10.76l-0.07 -0.04 -0.1 0.11c-1.73,2.44 -2.59,3.92 -2.59,4.43 0,1.28 0.06,2.12 0.17,2.53 0.09,0.33 0.39,0.69 0.91,1.07l0.06 -0.1c0,-0.27 -0.05,-0.59 -0.17,-0.97l0 -0.88c0,-0.74 0.14,-1.44 0.41,-2.1 0.27,-0.66 0.6,-1.07 1.01,-1.23 0,0.14 -0.09,0.36 -0.25,0.68 -0.17,0.31 -0.26,0.54 -0.26,0.7 0,0.14 0.07,0.44 0.2,0.91 0.14,0.47 0.21,0.78 0.21,0.94 0,0.45 -0.18,0.95 -0.54,1.51l0 1.32c0.72,0.58 1.07,1.62 1.07,3.12 0,1.03 -0.16,1.76 -0.5,2.19l-1.31 1.71c-0.23,0.52 -0.46,1.13 -0.71,1.85l0 0.07c0,0.63 0.24,1.39 0.71,2.29l0.17 0.13 0.13 -0.2c0,-0.07 -0.01,-0.16 -0.03,-0.29 -0.02,-0.12 -0.04,-0.25 -0.05,-0.38 -0.01,-0.14 -0.03,-0.27 -0.05,-0.39 -0.03,-0.12 -0.04,-0.21 -0.04,-0.25 0,-0.27 0.04,-0.56 0.12,-0.86 0.08,-0.3 0.19,-0.61 0.32,-0.91 0.13,-0.3 0.29,-0.58 0.45,-0.84 0.17,-0.26 0.36,-0.47 0.56,-0.65l0.03 0c0.09,0.02 0.14,0.1 0.14,0.23 0,0.07 -0.02,0.16 -0.07,0.29 -0.04,0.12 -0.09,0.25 -0.13,0.4 -0.05,0.15 -0.09,0.29 -0.14,0.42 -0.04,0.14 -0.07,0.24 -0.07,0.3 0.07,0.32 0.1,0.71 0.1,1.18l0 0.34c0,0.15 -0.03,0.33 -0.11,0.52 -0.08,0.19 -0.16,0.38 -0.24,0.59 -0.08,0.2 -0.16,0.4 -0.23,0.6 -0.08,0.2 -0.12,0.38 -0.12,0.54l0 0.27c0.78,1.39 1.18,2.37 1.18,2.96 0,0.33 -0.34,1.05 -1.01,2.15 -0.68,1.12 -1.01,1.83 -1.01,2.12l0.17 0.2c0.26,-0.78 0.75,-1.38 1.44,-1.78l0.04 0 0.13 0.27 -0.34 0.74c-0.04,0.6 -0.18,1.08 -0.4,1.44 -0.45,0.74 -0.68,1.15 -0.71,1.21 -0.15,0.34 -0.29,0.61 -0.4,0.81 -0.11,0.2 -0.23,0.35 -0.35,0.45 -0.13,0.1 -0.27,0.17 -0.42,0.21 -0.16,0.03 -0.36,0.05 -0.61,0.05l-0.27 0c-0.65,0 -0.97,0.13 -0.97,0.4 1.84,0 3.15,-0.57 3.93,-1.72 0.72,-1.05 1.08,-2.75 1.08,-5.11zm-1.08 -6.86l-0.17 -0.23 -0.06 0.2 0.1 0.17 0.13 -0.14zm0.37 5.35c0,-0.27 -0.44,-1.2 -1.31,-2.79 -0.87,-1.57 -1.31,-2.66 -1.31,-3.26 0,-0.36 0.37,-1.54 1.11,-3.53 0,-0.25 -0.15,-0.68 -0.44,-1.28 -0.29,-0.61 -0.44,-1.01 -0.44,-1.21 0,-0.09 0.04,-0.28 0.12,-0.56 0.08,-0.28 0.12,-0.46 0.12,-0.55 0,-0.07 -0.12,-0.28 -0.37,-0.64 -0.22,-0.36 -0.34,-0.58 -0.34,-0.67l0.14 -0.3c0.42,0.15 0.84,0.65 1.24,1.47 0.43,0.79 0.64,1.47 0.64,2.06 0,0.09 -0.04,0.29 -0.12,0.6 -0.07,0.31 -0.11,0.52 -0.11,0.61 0.02,0.13 0.1,0.2 0.23,0.2 0.09,0 0.19,-0.07 0.29,-0.2 0.1,-0.14 0.18,-0.31 0.25,-0.51 0.07,-0.2 0.12,-0.42 0.17,-0.65 0.04,-0.24 0.06,-0.46 0.06,-0.66 0,-0.87 -0.47,-2.01 -1.41,-3.4 -0.24,-0.38 -0.5,-0.76 -0.77,-1.14 -0.27,-0.38 -0.54,-0.76 -0.81,-1.14l-0.1 0 0 0.33c0,0.18 0,0.37 0,0.58 0,0.18 0.01,0.35 0.03,0.53 0.12,1.98 0.21,3.83 0.27,5.57 0.07,1.74 0.1,3.38 0.1,4.92 0,-0.02 0.04,0.39 0.11,1.22 0.04,0.49 0.07,0.99 0.1,1.51 0.02,0.51 0.04,1.03 0.06,1.55 0.07,1.54 0.1,3.11 0.1,4.7 0,1.39 -0.18,2.37 -0.53,2.93l0.47 -0.24 0.27 0.17 0.03 0.3c-0.02,0.05 -0.05,0.13 -0.07,0.26 -0.02,0.12 -0.05,0.29 -0.1,0.52l0.1 0c0.36,-0.27 0.54,-0.6 0.54,-0.98 0,-0.07 -0.13,-0.79 -0.4,-2.18l0 -0.1c0,-0.21 0.11,-0.58 0.33,-1.11 0.25,-0.61 0.37,-0.97 0.37,-1.08 0,-0.76 -0.2,-1.45 -0.6,-2.05l0 -1.18 -0.3 -0.64c0,-0.06 0.04,-0.13 0.13,-0.2l0.07 0c0.98,0.74 1.48,1.51 1.48,2.32 0,0.09 -0.02,0.3 -0.05,0.64 -0.04,0.34 -0.05,0.55 -0.05,0.64l0.16 0c0.36,-0.2 0.54,-0.66 0.54,-1.38zm-4.74 3.46c0,-1.12 -0.44,-1.68 -1.31,-1.68 -0.76,0 -1.15,0.38 -1.15,1.15 0,0.33 0.09,0.68 0.27,1.04 0.18,0.36 0.38,0.57 0.61,0.64l0.2 -0.14 0 -0.37c0,-0.18 -0.03,-0.52 -0.1,-1.04 -0.02,-0.25 -0.04,-0.44 -0.05,-0.59 -0.01,-0.14 -0.02,-0.24 -0.02,-0.28 0.27,0.04 0.51,0.21 0.71,0.52 0.2,0.3 0.3,0.6 0.3,0.89 0,0.07 -0.02,0.22 -0.05,0.45 -0.03,0.24 -0.05,0.38 -0.05,0.42 0.43,0 0.64,-0.33 0.64,-1.01zm1.68 3.03c-0.45,0.34 -1.19,0.71 -2.22,1.11l0 0.03c0.02,0.14 0.2,0.2 0.54,0.2 0.43,0 0.81,-0.12 1.16,-0.38 0.35,-0.26 0.52,-0.58 0.52,-0.96z"/>
 </g>
</svg>
