<?xml version="1.0" encoding="UTF-8"?>
<!DOCTYPE svg PUBLIC "-//W3C//DTD SVG 1.1//EN" "http://www.w3.org/Graphics/SVG/1.1/DTD/svg11.dtd">
<!-- Creator: CorelDRAW 2020 (64 Bit) -->
<svg xmlns="http://www.w3.org/2000/svg" xml:space="preserve" width="512px" height="512px" version="1.1" style="shape-rendering:geometricPrecision; text-rendering:geometricPrecision; image-rendering:optimizeQuality; fill-rule:evenodd; clip-rule:evenodd"
viewBox="0 0 512 512"
 xmlns:xlink="http://www.w3.org/1999/xlink"
 xmlns:xodm="http://www.corel.com/coreldraw/odm/2003">
 <defs>
  <style type="text/css">
   <![CDATA[
    .fil0 {fill:#4D4D4D}
    .fil1 {fill:white}
   ]]>
  </style>
 </defs>
 <g id="Camada_x0020_1">
  <metadata id="CorelCorpID_0Corel-Layer"/>
  <path class="fil0" d="M256 0c141.39,0 256,114.61 256,256 0,141.39 -114.61,256 -256,256 -141.39,0 -256,-114.61 -256,-256 0,-141.39 114.61,-256 256,-256z"/>
  <g>
   <path class="fil1" d="M282.48 259.35l-2.73 6.68 2.73 -6.68zm-170.45 144.96l0.73 -3.38 -0.73 3.38zm14.52 -251.71l-1.22 -3.39 1.22 3.39zm342.88 127.6l1.19 -2.51c-2.03,1.57 -0.85,-0.95 -1.19,2.51zm-209.81 -108.23c1.43,-2.47 1.1,-1.09 -0.81,-3.51l0.81 3.51zm65.16 -90.33c2.82,1.89 -4.89,2.34 1.86,0.95l-0.03 -2.05c-1.27,0.31 -0.96,0.55 -1.83,1.1zm-73.27 158.24c0.66,0.43 -0.82,3.12 3.74,-0.78l-3.74 0.78zm-142.45 -58.02c-0.05,3.94 -1.16,0.64 1.46,0.69 4.37,0.08 -0.38,3.68 0.64,-0.42 1.21,-4.85 -2.09,-0.93 -2.1,-0.27zm210.52 15.83c3.25,2.1 1.47,1.43 4.13,-0.95l-4.13 0.95zm-240.34 210.99c0.11,1.7 1.16,2.42 1.63,-0.01 0.29,-1.52 -1.77,-2.29 -1.63,0.01zm10.64 -28.14c0.67,0.56 -1.06,3.89 3.6,-0.57l-3.6 0.57zm178.14 -218.02c0.37,0.19 0.86,0.68 1.02,0.72l0.98 0.3c6.57,1.43 -0.97,1.04 1.83,-1.02 -0.33,-0.23 -0.78,-0.72 -0.92,-0.76l-2.91 0.76zm68.97 4.86c0.85,-1.4 2.23,-1.22 0,-5.58l0 5.58zm-123.2 43.97c-4.77,1.2 -2.83,-1.5 -3.66,3.19l3.66 -3.19zm-9.74 -133.22c0.13,0.71 3.47,4 1.71,0.13 -0.42,-0.92 -2.39,-3.79 -1.71,-0.13zm254.35 316.48c2.25,1.63 1.72,2.64 5.23,0l-5.23 0zm10.45 -21.92c-4.94,9.22 -1.45,2.23 0,4.93l0 -4.93zm-87.21 -131.05c0.05,5.66 1.18,2.86 1.71,0.61 0.7,-2.99 -1.71,-0.93 -1.71,-0.61zm-173.6 -47.11c1.61,-4.2 -2.35,-0.78 -2.36,-0.2 -0.07,2.45 2.21,0.57 2.36,0.2zm-2.64 -10.91c2.59,1.61 2.16,1.73 5.16,0l-4.18 -0.67c-0.14,-0.39 -0.65,0.45 -0.98,0.67zm-96.15 34.57l-0.84 -4.11c-3.97,3.54 -1.26,2.27 0.84,4.11zm287.52 -171.74l0 -4.29 -0.68 -0.44c-1.9,3.07 -0.63,3.39 0.68,4.73zm-97.34 358.71l4.77 0.77c0.17,-0.45 0.7,-0.52 1.06,-0.77 -2.22,-1.18 -1.88,-1.83 -5.83,0zm-73.03 -96.58c2.49,2.09 -3.3,2.1 4.55,2.9 -3.47,-3.5 -0.01,-1.17 -4.55,-2.9zm175.54 -103.86c0.04,3.56 0.04,0.71 1.98,0.49 4.92,-0.56 -0.21,3.61 0.83,-0.56 0.83,-3.29 -2.84,-2.87 -2.81,0.07zm-20.9 274.29l0.01 0.4c0.83,-0.47 1.67,-0.93 2.5,-1.4 -0.7,-1.16 -2.6,-2.07 -2.51,1zm-119.67 -45.72c0.32,0.17 0.75,0.63 0.88,0.66 7.75,2.04 0.89,0.56 3.04,-0.66 -0.34,-0.2 -0.81,-0.65 -0.95,-0.69 -8,-2.16 -0.8,-0.64 -2.97,0.69zm102.19 -397.24c0.11,0.58 4.45,3.15 2.32,-0.23 -0.27,-0.43 -3.22,-4.88 -2.32,0.23zm-212.95 -3.63c0.68,-1.42 2.84,0.54 0,-4.56 -1.66,2.22 -1.67,2.82 0,4.56zm177.86 425.49c4.36,2.66 0.57,2.7 4.75,0 -2.17,-1.45 -2.02,-1.84 -4.75,0zm-38.94 -182.86c2.45,1.55 2.26,1.93 4.98,0 -2.2,-1.54 -1.98,-1.95 -4.98,0zm-182.57 -17.58c0,1.5 1.48,3.24 2.22,-0.49 0.62,-3.11 -2.23,-3.03 -2.22,0.49zm-15.96 194.24c0.15,-0.3 0.29,-0.71 0.41,-1.24 0.47,-2.13 -2.02,-4.09 -2.25,-0.31 0.61,0.52 1.22,1.04 1.84,1.55zm265.32 -206.94c0.23,0.53 0.19,6.69 0.73,3.54 0.05,-0.27 0.72,0.6 1.04,0.94 0.94,-2.08 1.33,0.24 0.46,-3.06 -0.67,-2.54 0.11,-0.2 -2.23,-1.42zm-179.18 237.75c0.06,3.01 0.14,0.66 1.95,0.48 3.68,-0.49 -2.06,-5.74 -1.95,-0.48zm210.83 -16.96c5.47,-10.43 1.62,-2.53 -0.55,-4.95 0.04,0.53 -0.26,1.29 -0.26,1.57l0.81 3.38zm-175.54 -297.49c-1.82,-4.33 0.62,-2.51 -3.9,-4.14 1.92,5.55 -1.6,1.91 3.9,4.14 -0.49,9.13 1.06,30.83 4.99,39.1 2.47,-2.02 1.38,2.19 3.74,-5.84 0.78,-2.67 0.75,-5.01 1.23,-7.39 1.54,-7.54 2.69,-5.83 4.5,-13.22 5.78,-1.3 3.64,-0.77 9.69,-0.49 -1.84,-5.2 -0.39,-2.76 -4.05,-5.41 3.48,-9.13 7.61,-11.65 4.23,-24.28 -7.83,1.5 -1.61,3.95 -10.91,6.71 -4.39,-7.16 -5.17,-11.09 5.49,-21.28 2.63,-2.52 5.31,-5.48 7.91,-7.9 3.08,-2.87 5.74,-3.62 5.22,-8.08 -0.71,-0.24 -1.14,-1.08 -3.59,-0.74 -0.24,0.04 -3.32,1.45 -3.4,1.51 -9.27,6.09 -18.04,26.59 -20.94,37.22 -2.39,8.73 0.81,8.41 -4.11,10.09zm-183.3 -16.1c2.51,1.49 2.21,2.07 5.46,0 -2.43,-1.55 -2.43,-1.84 -5.46,0zm272.69 229.87c-5.15,2.65 -1.16,2.46 0,3.99 0.23,-0.36 0.8,-0.79 0.85,-0.95 0.05,-0.13 0.32,-0.85 0.35,-0.98 1.93,-7.5 1.29,1.36 -1.2,-2.06zm-55.66 -47.61c-2.92,-0.15 -1.05,-0.97 -2.66,0.51 -4.53,4.16 -0.1,1.09 0.55,2.28 0.71,-0.05 1.23,2.06 2.11,-2.79zm-11.27 -220.94c0.3,0.16 -1.88,4.32 4.8,0 -1.75,-1.25 0.61,-0.77 -2.71,-1.03 -0.16,-0.01 -0.9,0.76 -1.02,0.4 -0.15,-0.41 -0.72,0.42 -1.07,0.63zm191.78 29.9c3.15,3.36 -3.19,1.52 1.97,2.59 5.73,1.19 0.64,0.45 2.37,-2.6l-4.34 0.01zm-246.17 313.41c-3.44,6.44 -0.31,3.87 0.12,4.6 3.75,-7.98 0.35,-3.88 -0.12,-4.6zm286.3 -118.25c1.56,1.03 0.27,1.1 3.45,1.37l2.28 -1.37c-5.67,-4.06 -3.48,1.86 -4.56,-0.83 -0.18,-0.47 -0.77,0.56 -1.17,0.83zm-430.45 -27.18l-5.06 -3.94c1.04,6.37 -1.68,3.92 5.06,3.94zm89.64 -20.18c1.02,-1.64 2.58,-1.63 0,-5.85 -1.82,2.05 -1.23,0.24 -1.55,3.59 -0.75,7.86 -2.74,-2.97 1.55,2.26zm-53.23 -181.22c0.56,0.23 -1.44,3.7 4.84,0 -4.7,-3.6 -3.51,-0.69 -4.84,0zm200.04 -45.03l5.5 2.55c-1.09,-3 -3.27,-6.24 -5.5,-2.55zm-34.28 260.51c1.89,-3.05 2.64,-1.02 0,-5.38 -2.79,3.2 -2.01,2.33 0,5.38zm-14.93 20.13c4.55,2.92 2.21,2.05 5.34,0 -4.11,-2.69 -2.16,-2.23 -5.34,0zm58.98 -123.08c1.4,1.05 -0.88,4.65 4.76,0 -3.91,-2.63 -0.64,-2.46 -4.76,0zm131.87 -109.01c2.7,2.2 -1.46,0.98 3.01,1.43 7.82,0.79 -1.06,1.12 2.1,-1.43 -1.72,-1.1 0.55,-3.44 -5.11,0zm-351.14 212.34c-0.01,-0.54 -0.5,-0.62 -0.74,-0.94 -4.13,4.4 0.14,5.23 0.14,5.24 1.03,-1.88 0.91,-0.25 1.07,-3.32 0.01,-0.17 -0.46,-0.49 -0.47,-0.98zm-25.22 35.64c-5.63,4.6 -0.13,3.71 0,3.92 4.52,-7.01 1.26,-2.43 0,-3.92zm39.41 -54.57c5.04,3.54 3.04,0.93 4.57,0 -0.46,-0.29 1.84,-4.86 -4.57,0zm131.14 140c-5.55,2.92 -0.78,3.21 0,4.22 4.77,-7.88 1.68,-1.7 0,-4.22zm19.34 -247.61c3.75,-5.9 1.04,-3.02 -0.28,-4.63 -4.14,4.42 0.17,4.45 0.28,4.63zm226.85 -26.02c1.6,1.02 -0.51,3.91 4.95,0 -5.79,-4.84 -3.48,-1.15 -4.95,0zm-117.39 307.7c-1.9,-0.96 0.29,-4.14 -4.96,0.38 8.19,4.42 4.05,0.15 4.96,-0.38zm130.14 -174.07c2.18,1.89 -0.99,1.05 2.94,1.44l2.28 -1.44c-0.6,-0.37 1.92,-5.4 -5.22,0zm-89.34 -13.26c-1.78,-6.81 -0.29,-2.61 -3.83,-3.84 0.66,5.69 -2.41,4.29 3.83,3.84zm95.09 22.78c-3.18,-0.52 -1.3,-0.51 -4.31,-0.19l2.13 5.96 2.18 -5.77zm-183.27 -231.67c5.19,-0.98 1.28,1.94 4.12,-2.84 -1.72,-1.22 -1.28,-0.86 -4.3,-1.46l0.18 4.3zm-250.86 179.95c-2.6,-2.34 0.29,-4.37 -5.52,-0.43 2.34,1.99 -0.34,3.92 5.52,0.43zm234.97 -107.72c6.42,-0.33 4.14,2.14 4.14,-4.15 -4.64,1.4 -2.94,0.81 -4.14,4.15zm-207.95 17.76c0.84,-1.26 4.07,0.21 0,-6.09 -2.94,3.36 -2.19,2.47 0,6.09zm414.95 10.88c0.21,-0.36 4.76,1.69 0,-4.55 -5.83,4.43 -0.38,4.05 0,4.55zm-247.9 7.11c4.7,-2.17 5.06,1.35 3.93,-4.14 -4.32,-0.62 -2.71,-1.12 -3.93,4.14zm-184.28 205.6c-0.28,-0.15 0.97,-4.03 -4.21,-0.71 -1.23,0.78 -1.33,1.14 -1.13,1.59 0.37,0.55 0.76,1.1 1.14,1.65 1.25,-0.23 -1.25,1.24 2.54,-0.63 8.63,-4.24 -4.5,5.67 1.66,-1.9zm43.22 -218.25c0.27,-3.53 -0.51,-2.11 -1.37,-3.65 -3.53,5.56 -0.04,6.45 0,6.52 1.33,-1.78 0.93,2.87 1.37,-2.87zm212.22 -59.56c3.21,4.37 3.71,3.44 5.77,-2.5l-5.77 2.5zm92.35 12.04c1.15,-1.75 4.23,-0.23 0,-5.88 -4.16,4.99 -0.86,4.44 0,5.88zm-12.31 323.07c5.6,-8.6 0.9,-3.53 0,-5.39 -3.98,3.29 -0.95,-1.14 -1.39,3.9 -0.42,4.76 -0.2,0.24 1.39,1.49zm-28.07 -164.66l-1.45 -6.51c-0.41,0.53 -3.15,-1.87 -1.58,4.31 1.08,4.23 -0.32,0.68 3.03,2.2l0.05 14.17c-9.32,-0.17 -10.49,-1.14 -10.68,-12.29 -0.34,-20.03 12.75,-33.51 31.72,-36.94 0.29,-2.21 -3.22,-29.9 -3.94,-31.3 -5.02,-9.85 -12.73,-12.22 -22.18,-10.56 2.47,8.08 5.59,4.28 5.98,12.96 -12.78,2.01 -19.48,-9.13 -23.87,-18.49 -1.13,1.31 -3.16,1.89 -2.75,8.68 0.29,5.05 1.54,5.93 2.89,8.76 9.13,19.2 11.93,8.28 26.52,15.57 5.06,2.53 7.71,5.47 10.33,9.1 -8.88,6.37 -9.87,2.76 -18.52,11.46 -17.7,17.81 -9.55,53.3 3.01,67.28 10.45,11.62 24.94,18.05 41.81,17.96 11.19,-0.06 27.5,-1.02 37,-8.68 4.25,-3.43 3.38,-4.1 9.96,-3.76 -12.53,26.84 -12.08,66.25 18.76,72.65 1.41,-1.93 2.81,-3.89 4.17,-5.86 -5.31,0.55 -12.07,-1.36 -15.02,-3.74 -6.45,-5.2 -10.96,-14.18 -10.58,-25.54l4.95 -3.64c9.08,3.51 5.59,6.07 13.04,10.32 3.41,-20.1 -6.72,-22.43 -7.84,-33.42 -1.52,-15.03 0.56,-16.71 4.82,-23.4 3.79,-5.96 1.23,-4.41 3.17,-11.01 7.13,-24.31 13.41,-42.79 0.44,-70.72l-16.44 -25.75c-5.15,-5.12 -4.27,0.04 -5.96,-8.08 4.16,0.07 36.83,12.85 43.71,-12.33 -3.39,-1.94 -5.45,-2.14 -8.32,-3.68 0.83,-6.34 2.48,-18.39 -0.54,-24.08 -2.25,-4.23 -9.41,-11.68 -17.05,-4.97l10.52 6.36c1.17,11.25 -2.04,18.37 -9.39,22.48l-7.41 -8.67 -4.51 10.8c-7.4,0.18 -10.82,2.73 -19.39,2.39 -16.42,-0.65 -27.36,-5.66 -36.83,-5.91 -6.31,-0.17 -12.8,0.88 -17.07,-1.75 19.06,-8.4 10.23,1.81 47.45,-20.63 13.89,-8.37 16.19,-10.5 24.04,-19.8 12.56,-14.91 17.6,-21.39 21.26,-40.37 -6.05,-8.38 -12.6,-16.38 -19.6,-23.97 -2.46,-2.54 -4.99,-5.18 -7.56,-7.85 -0.92,-0.92 -1.85,-1.83 -2.78,-2.73 -1.27,0.08 -2.51,0.29 -3.75,0.79 -6.35,2.58 -6.79,4.95 -6.47,10.41 10.04,0.77 17.98,-2.34 25.11,6.75 4.15,5.3 1.61,5.76 1.28,7.15l-10.8 1c3.27,10.21 20.24,7.79 4.13,40.82 -6.52,13.37 -18.56,21.97 -34.19,22.05 -2.84,-7.82 -4.59,-20.06 7.11,-21.1l-9.13 -3.29c-5.93,8.22 -10.17,17.18 -16.92,24.79 -0.87,0.98 -3.29,3.09 -3.59,3.46 -3.01,3.79 -0.45,1.08 -2.52,4.48l-7.04 7.05c-6.82,5.37 -16.83,13.07 -24.65,15.88 -9.33,3.34 -12.15,2.98 -20.19,7.81 -6.98,4.19 -10.44,7.79 -17.06,11.12 -14.27,7.16 -19.46,22 -31.19,20.61 2.23,5.29 2.57,2.83 1.67,10.54l-7.26 0.62c0.56,9.86 -1.31,10.75 -4.19,18.39 -4.76,-1.46 -2.98,-0.85 -5.79,-4.86l-9.15 4.44c-3.84,-4.45 -4.92,-6.29 -8.25,-10.27 -3.78,-4.53 -6.62,-4.84 -9.96,-9.02 5.98,-10.22 14.05,-12.33 22.52,-20.53 4.48,-4.33 7.34,-5.16 11.44,-9.72 4.47,-4.98 5.59,-7.1 10.11,-10.93l23.53 -20.45c8.07,-5.26 15.13,-13.71 21.82,-20.38l23.55 -20.42c17.63,-16.16 36.34,-28.23 58.5,-38.17 2.96,-1.33 3.73,-2.13 6.94,-3.61 14.59,-6.74 10.52,1.03 14.69,-6.77 -2.37,-1.9 0.23,-1.2 -3.93,-2.3l-12.26 -0.29c-5.88,0.04 -11.62,0.54 -17.58,0.74 -33.05,1.07 -67.73,-0.72 -100.17,-1.55 4.12,7.71 15.76,15.06 17.03,21.38 4.11,20.5 -18.22,34.48 -29.3,45.46 -4.42,4.37 -3.71,6.68 -8.76,10.5 -4.14,3.13 -5.2,2.69 -10.04,7.57l-79.48 69.16c-1.9,-4.7 -0.01,-9.64 0.1,-17.05 0.13,-8.91 -1.58,-10.4 -2.37,-17.75 7.62,1.57 11.32,4.04 19.44,0.18 -3.11,-8.03 -6.87,-6.17 -14.43,-8.28 -3.74,-16.86 -6.1,-58 0.45,-72.65 4.01,-9 11.26,-15.68 19.33,-21.1 14.03,-9.44 20.68,-10.73 21.04,-17.53 -6.93,-3.48 -41.79,-1.06 -52.63,-1.55 -9.46,-0.44 -38.47,0.45 -46.45,-1.6 -5.28,-1.36 -1.32,-0.58 -3.29,-1.81 0.3,-2.64 2.84,-2.3 4.32,-5.68l-8.45 -0.59c-3.48,-6.12 -3.55,-7.28 -9.43,-9.88 -8.34,23.43 -10.76,12.3 -20.77,17.59 2.23,5.88 6.53,5.36 12.24,10.29 11.08,9.56 23.25,24.64 24.31,40.68 1.81,27.29 1.97,58.81 1.17,86.17 -0.87,29.29 0.74,58.71 0.33,87.92 -0.19,13.61 -0.62,28.61 -0.58,41.42 0.03,8.46 1.45,34.98 -1.97,38.24l-7.57 10.11c-3.4,5.05 -2.86,7.11 -7.82,11.54 -5.23,4.67 -19.8,11.85 -21.2,17.25 20.74,5.06 59.95,-0.19 83.52,1.01 8.01,0.4 14.46,0.02 20.98,3.66 21.44,-9.95 17.02,-1.32 24.14,1.37 2.49,-15.18 -12.23,-12.62 -19.4,-22.62 3.31,-4.68 5.47,-6.26 5.82,-12.38 14.69,-4.74 23.21,0.41 23.94,17.92 1.03,24.51 -16.92,34.02 -28.58,42.62 -9.39,6.92 -25.43,10.91 -36.55,12.57 -6.48,0.97 -15.06,0.96 -22.24,0.22 -3.25,16.15 -1.18,8.95 0.12,11.22 3.96,-3.28 3.33,-4.13 5.28,-7.41 13.75,5.19 23.61,-0.08 36.92,-0.34l0.97 5.4c3.51,9.71 -4.9,-2.48 2.55,2.75l1.3 -5.08c-0.08,-0.54 -1.9,-3.54 -2.13,-3.95 30.54,-7.98 55.73,1.26 62.42,-12.56 -6.23,-3.7 -8.33,0.77 -10.61,-9.24 3.99,-2.69 2.36,-2.69 8.8,-3.07 3.42,4.47 1.89,9.36 3.03,5.76 0.08,-0.24 0.28,0.75 0.49,1.09 0.69,-0.92 2.38,-3.28 3.04,-3.73 2.83,-1.9 0.58,-0.56 3.62,-0.68 2.79,3.07 1.97,2.06 2.14,9.74 4.01,-2.76 3.96,-2.79 8.71,-1.6 7.33,1.82 1.54,1.62 8.86,-2.45 9.52,4.23 13.23,0.66 14,7.69 0.84,7.63 -0.49,2.43 -1.2,4.31 -6.66,0.67 -1.69,-0.67 -9.27,-2.84 0.33,9.49 2.05,10.89 13.84,5.4 5,-22.62 -9.65,-26.94 -23.98,-31.85 -9.31,-3.19 -8.94,-1.12 -15.56,1.08 -6.53,2.17 -10.27,1.04 -16.86,4.24l-24.55 14.09c-1.89,0.99 -1.5,0.57 -3.56,1.79 -10.34,6.16 -6.66,3.05 -9.17,1.65 7.85,-2.89 4.68,-2.45 10.55,-7.28 3.02,-2.48 6.07,-3.28 9.92,-5.97 15.84,-11.06 25.84,-49.59 24.21,-70.76 -1.91,-24.81 -11.97,-47.87 -29.02,-65.94 -6.6,-6.99 -8.18,-12.53 -17.86,-14.04l1.96 -7.09 -10.8 2.67c4.88,9.08 16.88,6.1 17.02,21.23 -13.25,0.06 -7.81,-3.05 -17.06,-6.66 -0.27,9.62 1.01,8.26 6.95,14.13 -2.94,2.46 -3.7,2.33 -3.28,7.55l6.42 -3.97c0.3,-0.83 1.12,-0.64 1.68,-0.93 2.91,7.15 8.19,6.66 16.9,9.69 6.66,2.31 4.79,-0.48 9.48,4.61 7.77,8.44 10.68,16.14 12.04,28.21 2.45,21.69 5.47,16.88 -3.41,19.09 -1.81,-4.02 -12.39,-41.93 -31.55,-39.7 2.48,5.25 4.14,9.51 2.6,16.17 -2.76,12 -2.09,1.99 1.03,13.18l-3.76 -0.57c-1.33,2.75 -1.72,2.94 0.2,5.78 3.52,-2.42 2.2,-0.17 3.56,-5.21 3.42,1.75 7.89,4.07 12.09,5.58 6.65,2.39 5.48,0.37 9.46,7.03 -5.6,-2.78 -10.19,-4.33 -18.57,-3.52 -2.39,2.95 -4.1,4.36 -6.58,6.52l0.05 5.46c-6.43,3.73 -3.85,5.68 -12.12,5.2 -0.03,-12.75 3.15,-1.13 4.83,-13.54 -7.71,-0.35 -5.43,0.88 -11.89,1.3 -3.35,-9.38 -3.02,-48.25 -2.71,-61.46 0.51,-21.29 -4.19,-45.92 13.31,-50.55l74.56 67.18c8.31,8.08 13.25,12.1 19.09,17.88 4.31,4.27 4.01,5.79 7.77,9.78 3.36,3.57 21.32,18.28 18.64,32.03 -1.58,8.1 -7.77,17.44 -16.08,19.29 0.88,4.05 0.62,2.81 3.03,5.66l-3.98 14.65c5.24,-1.7 3.47,2.8 4.94,-5.31 0.23,-1.25 0.13,-3.86 0.37,-5 1.04,-4.73 0.03,-1.3 2.21,-4.43 6.35,-4.9 103.06,-0.54 131.52,-0.88 2.18,-2.36 4.33,-4.76 6.42,-7.2 -3.8,-2.02 -7.76,-3.86 -11.16,-5.43 -13.66,-6.27 -20.52,-16.49 -30.8,-21.93 -7.07,-3.74 -8.58,-5.75 -15.51,-10.69l4.11 -16.26c-11.31,1.18 -3.2,2.86 -7.21,10.25 -7.28,-1.27 -9.19,-6.34 -15.42,-12.56l-14.81 -13.35c-5.2,-5.19 -9.82,-8.46 -14.49,-13.54 -10.31,-11.21 -36.22,-32.03 -44.35,-40.1 -4.35,-4.31 -8.91,-10.39 -13.51,-14.54 -5.55,-5.01 -11.26,-6.95 -13.38,-14.57 6.57,-2.66 5.63,1.89 12.14,-5.52 3.12,-3.56 5.9,-7.13 9.6,-9.73 10.95,-7.69 40.79,-7.91 26.36,13.96 -4.65,-1.42 -3.53,-1.2 -7.73,-2.42 0.87,-7.75 1.82,-3.31 2.86,-10.08l-8.76 -0.44c-1.55,2.83 -2.93,4.39 -4.86,7.03 3.6,10.03 7.89,13.97 21.58,14.07 4.56,-4.44 8.79,-9.1 9.07,-19.34 -2.27,-10.06 -22.41,-25.06 -46.66,-2.13 -2.86,2.7 -1.88,2.02 -4.9,4.01l0.07 -6.09c6.72,-5.25 12.57,-12.71 19.77,-14.64 7.64,-2.04 6.5,0.4 13.81,-3.82 4.46,-2.58 5.71,-3.68 7.87,-7.92l-9.74 -2.82c0.17,-5.28 0.76,-7.24 4.32,-9.73l7.02 -5.16c6.66,-5.62 17.02,-8.39 22.96,-10.4l15.35 -4.06c8.17,-1.38 17.31,-1.2 25.53,-0.21 29.08,3.5 37.06,11.58 52.25,26.8 4.36,4.38 8.32,9.58 11.16,15.07l0.81 4.12c7.51,0.18 8.16,36.8 8.16,41.76 -9.51,6.2 -0.58,1 -13.38,19.18l-11.44 0c-1.44,-1.52 -2.15,-2.17 -4.22,-4.39l-3.42 -3.68c-0.13,-0.57 -0.62,-0.6 -0.99,-0.93l-7.32 10.75c2.14,9.44 6.52,11.95 12.73,15.83l17.79 -5.8c-3.02,10.39 -13.63,17.59 -22.93,21.82 -2.85,1.29 -13.76,4.7 -17.33,5.57 -22.15,5.47 -33.14,-0.89 -41.28,-21.22 -7.09,-17.71 3.13,-16.81 -13.64,-28.61zm28.93 -255.74c-7.56,3.62 -7.92,2.57 -13.24,7.74 -9.64,2.24 -14.68,5.73 -25.76,6.43 -4.11,0.27 -9.84,1.05 -13.52,1.8 -7.37,1.48 -7.12,0.71 -8.29,7.82l-6.31 2.95c6.94,5.45 4.86,2.84 6.31,-2.95 14.57,-0.34 5.46,4.9 5.3,13.63 15.81,-3.67 35.1,-18.73 42.27,-29.68 5.61,-1.49 11.71,-3.31 18,-4.88 -1.58,-0.97 -3.17,-1.92 -4.76,-2.86zm92.06 349.59l-0.78 -0.68 -10.39 4.43 7.75 1.95c1.16,-1.89 2.3,-3.78 3.42,-5.7zm-198.24 -297.7c2.05,4.15 0.85,3.87 4.94,1.76 -1.89,-4.49 -0.71,-4.18 -4.94,-1.76zm-184.79 121.6c0.1,-0.15 7.1,3.67 0,-4.94 -3.57,3.46 -1.45,1.8 0,4.94zm174.06 176.44c6,-7.05 0.61,-3.96 0,-4.92 -0.92,0.97 -5.01,-1.04 0,4.92zm-168.36 26.83c2.38,-1.47 2.06,2.26 4.31,-4.33 -7.16,0.15 -4.25,-2.4 -4.31,4.33zm293.2 -269.2c4.06,-5.35 2.34,-2.9 0,-6.32 -1.45,1.93 -1.08,-0.4 -1.35,3.29 -0.35,4.95 0.68,2.05 1.35,3.03zm0.57 -85.56l2.77 3.12 2.84 -3.1c-4.91,-3.87 -2.6,-2.23 -5.61,-0.02zm-158.81 300.56c0.87,-1.4 2.42,-1.33 0,-5.6 -1.29,1.71 -2.53,-3.25 -2.24,3.5 0.17,3.75 0.08,0.36 2.24,2.1zm-31.65 -227.42c4.86,-5.58 2.56,-2.85 0,-6.08 -2.45,3.22 -3.19,1.38 0,6.08zm118.38 180.05c6.04,4.29 4.22,1.05 5.58,-1.76 -3.74,-1.51 -3.65,-0.09 -5.58,1.76zm-27.5 -214.51c1.46,0.81 -2.42,1.76 5.97,1.75 -1.9,-4.09 1.56,-1.26 -2.33,-2.92 -5.15,-2.2 -2.81,0.73 -3.64,1.17zm-237.63 56.9c1.59,-2.21 3.49,-1.93 -0.73,-5.24 -2.79,3.72 -2.89,1.59 -0.22,6.11 0.09,-0.42 0.82,-0.69 0.95,-0.87zm420.1 210.35c5.64,4.18 3.93,1.36 6.07,0 -0.48,-0.33 0.48,-4.73 -6.07,0zm-184.76 50.08c-5,1.02 -0.29,-0.85 -2.17,2.67 4.24,2.32 2.82,2.27 5.4,-1.76 -1.19,-0.58 0.18,-1.6 -3.23,-0.91zm-43.06 -277.09c-1.45,-3.98 2.88,-2.27 -4.43,-4.42 0.42,6.27 -3.41,3.85 4.43,4.42zm174.25 2.85c1.13,-2.3 3.74,-0.99 1.76,-5.38 -3.58,1.2 -6.48,-1.77 -1.76,5.38zm-371.72 168.68c4.98,-2.91 0.23,4.45 5.14,-3.14 -4.67,-3.88 -3.36,-3.01 -5.14,3.14zm295.69 -97.92c-0.99,-5.12 0.31,-3.47 -4.57,-4.54 0.98,6.29 -2.26,3.97 4.57,4.54zm-235.18 102.07c0.59,-0.73 5.09,0.74 0,-6.32 -2.71,3.37 -2.8,1.66 0,6.32zm193.41 172.07c4.99,-7.44 0.14,-6.03 0,-6.22 -1.36,1.82 -1.14,-0.09 -1.39,3.27 -0.5,6.45 -0.06,1.02 1.39,2.95zm-80.88 -64.61c5.57,-3.05 5.41,-2.45 0,-4.99 -3.13,3.48 -2.02,1.4 0,4.99zm-138.11 -328.66c7.7,5.3 4.71,0.24 5.21,0 -2.39,-2.53 -4.96,-4.23 -5.21,0zm143.23 28.15c0.59,-6.94 0.15,-0.95 -1.61,-3.26 -3.61,5.04 -1.7,3.88 0,6.66 1.32,-1.85 1.3,0.38 1.61,-3.4zm-166.88 126.03c0.08,-0.33 6.6,0.33 0.34,-5.72 -1.75,2.59 -3.48,-0.18 -0.34,5.72zm149.58 -117.25c0.43,0.31 -0.99,5.05 6.39,0 -1.64,-1.17 0.66,-1.11 -3.03,-1.39 -6.37,-0.48 -0.93,-0.11 -3.36,1.39zm-42.49 -63.29l3.31 4.93c3.46,-1.76 2.34,1.47 2.85,-3.91l-6.16 -1.02 0.03 -15.32 -7.1 -2.17 0.33 12.2 -10.66 0.22c-4.02,-9.15 -3.45,-19.66 8.95,-21.26 4.22,-0.54 9.69,2.16 12.96,4.35 1.13,0.88 2.14,1.69 3.22,2.63 -1.22,3.26 -0.88,2.94 -3.27,5.28l5.57 2.66c0.33,0.18 0.95,0.53 1.39,0.85 0.09,3.62 0.21,10.72 -0.38,14.15 -2.07,11.86 -2.62,-0.71 -3.46,10.47 9.44,4.01 9.4,-1.32 9.58,-19.35 0.33,-31.29 -36,-26.53 -43.93,-16.3 -5.98,7.69 -5.06,38.18 26.77,21.59zm211.34 18.19c5.29,1.83 2.74,1.54 6.55,-0.62 -1.33,-1.18 3.02,-3.04 -3.21,-1.77 -4.51,0.91 -0.66,-0.43 -3.34,2.39zm-8.73 181.14l-2.5 1.1c3.37,2.68 1.95,7.16 6.35,0 -1.67,-0.8 -0.89,-0.92 -3.85,-1.1zm-299.99 78.46c-4.27,-5.02 -2.57,-4.8 -5.56,0 3.89,2.92 1.29,3.45 5.56,0zm71.85 -267.25c2.89,4.9 1.63,5.58 5.6,0 -3.47,-2.36 -1.4,-2.71 -5.6,0zm58.6 293.13c-0.62,-5.94 1.14,-3.51 -4.56,-4.95 1.01,6.25 -1.44,4.16 4.56,4.95zm-119.52 -122.51c1.97,2.31 -2.91,2.28 5.22,4.7 -0.32,-6.87 2.19,-3.8 -5.22,-4.7zm-47.02 -60.56c3.74,-4.37 3.28,-1.82 0,-5.69 -4.75,3.39 -3.48,3.24 0,5.69zm424.57 42.1c3.2,-2.02 5.89,0.15 2.69,-5.75 -4.8,2.74 -3.63,-0.92 -2.69,5.75zm-101.56 -80.22c4.72,-2.19 5.53,-1.03 2.27,-6.25 -3.34,3.43 -3.21,1.89 -2.27,6.25zm42.88 189.88c7.42,-1.32 2.91,1.21 4.99,-3.8 -5.47,-1.78 -4.2,-2.28 -4.99,3.8zm-332.56 -242.85c6.08,-2.05 3.52,1.31 5.22,-5.35 -5.37,1.32 -3.5,-1.88 -5.22,5.35zm253.21 83.58c6.24,-1.83 4.08,1.22 4.96,-5.47 -5.21,1.1 -3.5,0.37 -4.96,5.47zm-284.78 169.52c2.14,-3.46 2.87,-1.18 0,-6.11 -1.75,1.04 -2.37,-2.09 -2.49,2.92 -0.05,2.08 2.38,3.07 2.49,3.19zm296.12 -75.15c7.53,6.42 3.56,0.94 4.92,0 -0.44,-0.33 2.01,-6.92 -4.92,0zm122.88 -56.81c-6.64,0.81 -6.46,-0.36 -4.08,5.28 5.15,-3.17 1.65,0.75 4.08,-5.28zm-245.09 -61.14c-0.6,-6.32 1.02,-5.71 -4.99,-3.9 3.4,3.05 -4.61,2.4 4.99,3.9zm-126.31 37.07c7.2,4.51 6.08,0.3 6.51,0 -8.11,-5.26 -5.33,-0.76 -6.51,0zm228.45 106.65c2.75,-2.49 2.48,-0.81 2.43,-5.83l-5.56 1.75 3.13 4.08zm-3.4 111.93c4.15,-1 3.97,-1.56 5.83,-4.07 -6.14,-3.35 -5.18,1.14 -5.83,4.07zm-149.01 -334.62c2.96,4.62 2.12,4.99 6.12,0 -2.74,-1.63 -0.55,-3.21 -6.12,0zm265.5 297.15c3.9,4.26 4.77,5.39 5.79,-1.36 -1.27,-0.18 -2.35,-1.09 -5.79,1.36zm-326.52 -259.21c1.65,6.95 3.28,8.26 5.39,1.14l-5.39 -1.14zm246.84 369.3c2.63,-3.94 2.15,-2.42 -0.12,-6.04l-3.62 3.2c1.46,1.31 -1.47,0.74 3.74,2.84zm-73.85 -244.39c5.92,-6.95 0.42,-5.59 0,-6.06 -3.96,4.42 -2.52,3.08 0,6.06zm70.33 88.85c0.31,-0.63 4.58,2.23 0,-4.69 -7.3,1.58 -4.64,2.16 0,4.69zm17.69 -294.35c-1.14,-7.16 1.8,-3.92 -5.37,-5.04 1.83,4.97 -1.3,3.04 5.37,5.04zm-24.72 216.43c4.32,-6.64 0.41,-5.92 0,-6.61 -2.98,2.83 -1.39,-1.54 -1.84,3.33 -0.48,5.1 1.25,2.57 1.84,3.28zm-274.91 89.24c3.09,-6.32 -0.07,-1.61 -1.14,-3.61 -3.81,2.42 -4.04,0.95 -1.76,5.38 3.64,-1.14 1.25,1.62 2.9,-1.77zm382.16 72.39c1.34,-2.94 0.98,-2.57 -1.76,-5.91 -5.29,5.96 -2.01,4.73 1.76,5.91zm11.76 1.3c-7.07,-1.92 -1.27,4.52 -1.21,4.63 0.49,-0.29 1.26,-0.67 1.97,-1.11 0.57,-0.72 1.13,-1.44 1.69,-2.16 -0.2,-0.48 -0.92,-0.94 -2.45,-1.36zm-395.47 -245.7c2.52,-5.44 -1.15,-3.48 -2.08,-4.17l-2.03 5.59c6.49,0.32 2.68,1.66 4.11,-1.42zm311.62 -26.12c5.12,-7.47 0.5,-5.98 0,-6.7 -4.7,6.11 -0.18,6.42 0,6.7zm56.42 -28.62c2.18,-2.49 0.52,1.93 4.34,-4.18 -4.6,-2.93 -7.11,-1.16 -4.34,4.18zm-70.51 -41.57c7.34,0.04 4.75,3.71 4.76,-4.73 -3.1,1.05 -4.44,0.63 -4.76,4.73zm-58 200.05c1.75,-3.74 1.36,-3.13 -1.75,-5.92 -4.7,5.59 -1.95,4.56 1.75,5.92zm176.9 102.45c2.02,2.39 -3.25,2.29 4.95,4.68l0.56 -1.06c-0.23,-5.27 1.66,-2.67 -5.51,-3.62zm-192.36 12.25c-2.7,-4.17 1.76,-2.65 -5.17,-3.08 0.67,5.63 -1.61,2.43 1.7,4.18 4.31,2.29 2.74,-0.73 3.47,-1.1zm-23.2 11.38c3.73,-2.63 2.9,2.44 5.07,-5.75 -6.83,0.74 -4.02,-1.4 -5.07,5.75zm75.59 43.26c3.39,-2.74 4.17,-1.18 1.75,-6.38 -3.05,1.68 -1.99,-0.4 -2.86,2.97 -1.59,6.2 0,1.36 1.11,3.41zm-137.15 -274.61c5.5,-6.95 0.01,-6.73 0,-6.74 -4.37,5.95 -0.26,6.31 0,6.74zm229.56 23.59c-2.08,-1.65 0.3,-1.09 -2.97,-1.64 -6.59,-1.12 -0.41,-0.54 -3.19,1.1 2.69,6.16 1.58,4.47 6.16,0.54zm-364.94 7.6c2.73,-4.15 2.61,-1.71 0,-5.83 -6.07,2.11 -3.89,3.66 0,5.83zm272.53 -112.67c5.2,-3.39 4.44,-1.14 1.75,-5.78 -3.6,1.78 -5.62,0.15 -1.75,5.78zm-17.58 397.36c3.68,-3.24 1.46,1.51 4.89,-5.29l-6.26 -0.07 1.37 5.36zm-118.76 -265.15l-4.81 -0.03c1.13,6.82 0.09,3.78 4.33,5.24l0.48 -5.21zm169.74 256.36c-3.04,2.34 -2.3,-1.39 -1.1,3.75 0.75,3.22 1.74,1.42 3.25,1.94 2.05,-5.42 1.79,-2.91 -2.15,-5.69zm-1.92 -184.34c2.09,-4.5 1.99,-0.4 0.29,-5.09 -4.1,-0.61 -2.11,-0.77 -4.54,3.28 2.03,1.47 1.09,0.91 4.25,1.81zm-338.52 -147.83c5.95,-0.54 3.4,0.7 5.2,-5.26 -2.71,0.7 -3.97,0.63 -4.56,0.81 -0.18,0.32 -0.34,0.65 -0.52,0.98 -0.03,0.64 0,1.7 -0.12,3.47zm350.01 76.26c-0.41,-0.21 1.49,-4.14 -4.72,-0.63 -2.27,1.28 -0.44,2.78 -0.39,3.14 0.74,0.13 1.24,0.59 3.33,-0.23 3.19,-1.25 -0.17,0.61 1.78,-2.28zm-124.21 -49.64c6.3,-2.18 7.88,-3.33 -0.38,-5.87l0.38 5.87zm61.12 118.21c-2.31,-2.15 -1.71,-2.29 -5.67,-2.92 0.51,5.5 -1.04,1.68 1.76,6.15l3.91 -3.23zm-238.09 -166.24l6.45 -0.32c-2.8,-7.84 -3.89,-5.28 -6.45,0.32zm121.06 -69.46c1.52,-2.14 1.89,0.96 1.53,-3.36 -0.53,-6.61 0.51,-0.26 -1.53,-3.35 -0.16,0.19 -6.19,0.48 0,6.71zm82.35 316.58c-0.95,-2.71 0.79,-6.23 -5.88,-2.16 2.44,3.74 1.72,4.3 5.88,2.16zm14.36 -165.58c-4.1,2.08 -1.22,-1.67 -2.91,2.51 -2.37,5.88 0.91,3.31 1.15,3.78 0.17,-0.56 1.85,-1.71 2.03,-2.06 0.12,-0.24 0.44,-0.83 0.54,-1.06 2.32,-6.18 0.54,-0.51 -0.81,-3.17zm2.08 82.94c4.99,5 3.34,5.53 6.02,0 -5.36,-4.23 -2.68,-2.5 -6.02,0zm106.59 98.78c-0.18,-3.76 -0.23,-1.25 -1.56,-3.56 -2.99,4.93 -2.54,4.37 0.14,8.24 1.46,-2.25 1.79,3.67 1.42,-4.68zm-35.17 85.49c-0.16,-6.79 1.35,-5.25 -4.86,-6.43 1.14,4.99 0.75,4.49 4.86,6.43zm-303.84 -235.72c2.27,-5.92 0.93,-4.06 -4.2,-5.39 1.96,8.98 -0.79,4.1 4.2,5.39zm416.27 -57.56c-6.6,-6.24 -4.92,-1.35 -6.71,0.24 8.47,3.83 5.07,1.09 6.71,-0.24zm-272.09 -30.12c2.16,-3.64 3.06,-1.35 0,-6.34 -3.5,2.37 -6.13,3.25 0,6.34zm19.95 -41.97c3.18,5.07 4.6,5.23 5.79,-1.48 -0.32,-0.04 -1.34,-1.89 -5.79,1.48zm-108.89 59.78c2.6,3.54 -0.04,4.59 5.61,1.76 -1.44,-4.8 0.14,-6.32 -5.61,-1.76zm345.05 193.48c1.79,2.48 -3.33,4.1 3.69,4.2 1.19,0.01 2.59,-1.93 3.34,-3.24l-7.03 -0.96zm-193.87 19.27c3.53,4.1 3.28,5.81 6.29,0 -1.98,-1.18 -0.21,-3.92 -6.29,0zm136.3 -244.75c4.12,-2.28 4.85,0.87 2.14,-6.29 -4.91,2.49 -4.44,0.83 -2.14,6.29zm-366.47 253.55c-2.14,-3.93 0.02,-4.97 -5.61,-1.77 1.51,1.69 -1.2,7.19 5.61,1.77zm215.45 -149.46c7.77,5.44 6.16,0.56 6.94,0 -7.71,-4.93 -6.18,-0.49 -6.94,0zm32.15 200.44c1.7,4.07 3.35,6.78 5.94,0 -3.74,-2.12 -1.53,-2.42 -5.94,0zm34.62 -132.63c4.37,-7.24 1.68,-4.33 -1.76,-5.69 -3.77,4.85 -0.11,4.52 1.76,5.69zm-224.99 -160.93c1.54,2.25 1.38,3.71 4.2,4.37 4.81,1.13 1.49,0.58 2.56,-2.68 -3.61,-2.21 -0.49,-1.5 -6.76,-1.69l-0.6 -10.08c-6.3,-4.19 -0.29,-4.05 -15.29,-4.02 -6.49,7.33 -12.76,12.59 -4.76,25.72 5.58,9.14 16.66,10.38 28.47,7.04 -1.74,8.19 -6.2,10.13 -8.02,18.1 -3.32,14.46 0.9,30.85 13.99,30.9 16.2,0.06 14.23,-12.25 14.25,-17.44l-8.65 -3.96c-4.24,3.31 -6.36,3.53 -6.39,10.18l8.37 -3.85c0.06,8.51 -2.41,8.15 -9.04,10.25 -18.67,-13.75 -5.05,-28.73 1.97,-43.17 5.57,-11.46 11.46,-25.19 4.54,-42.17 -3.18,-7.78 -5.82,-8.28 -11.84,-12.82 -6.93,-5.23 -7.57,-6.07 -17.54,-6.47 -23.93,-0.98 -26.68,7.95 -35.34,12.21 0.26,-8.49 3.29,-13.26 9.89,-22.19 0.86,-1.17 1.65,-2.37 2.37,-3.59 -7.8,8.62 -15.01,17.77 -21.59,27.4 -2.42,10.44 -5.9,20.9 -5.58,54.27l-5.42 3.51c2.84,1.48 -0.49,1.6 6.37,0.37 1.89,15.96 16.43,37.4 24.64,47.18 9.99,11.89 23.79,22.66 36.88,31.44l-7.09 0.17c0.77,7.65 -1.52,3.17 3.58,6.91 3.59,-3.86 2.59,-3.25 3.51,-7.08 9.14,1.32 15.94,8.31 20.52,9.7 6.69,2.04 5.28,-0.66 5.48,-0.77 -7.32,-9.61 -22.29,-0.83 -34.79,-36.89 -1.78,-5.14 -0.63,-1.64 -2.02,-5.06 -3.55,-8.8 -7.51,-28.11 -18.72,-28.08 0.84,6.46 7.94,9.41 -0.55,20.57 -9.05,0.48 -9.33,-1.55 -15.58,-10.44 -2.36,-3.36 -0.26,0.24 -2.63,-4.49 -1.37,-2.73 -3.84,-6.82 -5.08,-10.47 -1.3,-3.86 -1.64,-9.17 -2.57,-13.51 -2.54,-11.76 -0.43,-19.87 4.64,-27.9 7.29,-11.57 7.01,-7.51 21.09,-10.52 0.38,-8.33 -1.6,-7.32 -4.69,-12.47l-13.7 1.77c5.49,-10.44 0.05,-4.85 10.53,-11.22 5.75,-3.5 5.74,-5.32 15.16,-6.37 49.6,-5.52 48.55,56.24 17.03,48.64 -8.11,-1.96 -6.11,-3.28 -9.76,-11.51l5.91 -7.16 2.44 7.04 5.61 0.33zm-46.49 68.19c-1.09,-4.05 0.24,-3.04 -4.22,-4.28 -4.01,5.02 1.34,5.91 4.22,4.28zm371.7 -36.35c-1.56,2.22 -1.16,-0.82 -1.46,3.24 -0.42,5.43 0.54,1.9 1.46,3.33 0.03,-0.16 6.81,-1.76 0,-6.57zm-76.34 -14.86c2.62,-6.15 -0.23,-2 -1.02,-3.62 -5.2,2.63 -4.36,1.6 -1.76,5.9 3.56,-1.77 1.21,1.39 2.78,-2.28zm-259.49 -45.51c4.46,-2.66 4.63,-3.7 0,-6.27 -3.71,4.06 -2.39,2.88 0,6.27zm-6.92 279.99c6.2,-1.17 3.98,1.56 5,-5 -7.17,0.34 -4.14,-1.97 -5,5zm319.89 -30.54c0.35,-0.87 3.19,0.86 3.18,-3.14 -0.03,-6.42 0.15,-1.8 -4.47,-3.3l1.29 6.44zm66.81 -70.44c-3.7,3.91 0.97,4.99 3.53,5.95 0.13,-9.65 2.9,-3.34 -3.53,-5.95zm-102.45 -210.33c0.68,0.38 0.4,6.7 5.99,-1.75 -0.3,-0.15 0.4,-4.45 -5.31,0.5 -0.2,0.17 -0.31,0.96 -0.68,1.25zm-163.98 67.14c0.13,-3.93 -2.36,-3.44 -2.58,-3.65 -3.07,4.17 -2.22,3.1 0,6.74 2.01,-1.35 2.43,1.17 2.58,-3.09zm-148.1 266.66c1.73,-0.91 3,-1.89 -2.17,-5.3 -0.3,0.58 -0.58,1.03 -0.82,1.4 0.98,1.31 1.98,2.61 2.99,3.9zm-11.34 -94.96c4.46,-1.77 3.68,1.89 3.84,-6.38 -5.37,1.83 -5.27,1.66 -3.84,6.38zm278.18 122.49c2.05,-2.52 5.63,1.26 1.76,-6.03 -3.19,1.28 -6.44,-0.22 -1.76,6.03zm33.41 -361.25c5.78,-3.48 5.09,-1.76 1.19,-6.24 -0.22,0.14 -2.14,1.46 -2.23,1.83 -2.25,8.52 -1.05,1.5 1.04,4.41zm-92.38 -19.87l5.74 4.5c0.23,-1.65 0.32,-3.09 0.12,-3.89 -1.06,-4.31 -0.67,-2.29 -1.39,-3.58l-4.47 2.97zm51.25 407.84c2.42,-5.44 -0.73,-2.85 -1.07,-3.5 -7.68,3.72 -1.79,5.63 -1.76,5.67 3.92,-1.73 1.17,1.54 2.83,-2.17zm-261.85 -249.14c2.51,4.11 -1.34,1.11 2.5,2.78 4.64,2.02 2.59,-0.71 3.16,-1.03 -3.79,-8.6 -5.6,-1.78 -5.66,-1.75zm353.67 -101.98c-0.14,-0.09 1.75,-3.04 -4.34,-1.22 -3.75,1.12 -0.77,-0.31 -2.08,2.97 3.44,2.78 4.02,0.78 6.42,-1.75zm-42.28 225.05c-2.45,-5.62 -3.86,-5.69 -6.21,0 4.37,2.4 2.17,2.2 6.21,0zm-112.77 -283.96c6.25,-2.69 3.31,-0.75 6.79,-5.29 -7.41,-0.96 -5.27,-1.61 -6.79,5.29zm229.58 165.77c7.12,-0.41 4.09,1.93 5.03,-5.18 -6.75,1.42 -4.4,-1.06 -5.03,5.18zm-172.6 -36.53c7.78,6.73 6.02,0.69 6.76,0 -7.4,-4.63 -6,-0.47 -6.76,0zm75.18 46.09c4.74,1.28 5.71,0.65 3.97,-4.06 -4.45,-1.41 -5.03,-0.27 -3.97,4.06zm-75.15 -204.34c2.68,3.31 3.72,6.14 6.72,0 -2.16,-1.34 2.82,-1.83 -3.35,-1.4 -3.5,0.26 -1.52,0.25 -3.37,1.4zm-224.16 306.37c0.73,0.24 -0.12,0.74 3.77,0.68l1.62 -5.74c-6.45,1.08 -5.26,0.62 -5.39,5.06zm399.18 -171.82l-0.06 -5.91 -5.7 1.69c1.21,1.15 -0.69,3.33 5.76,4.22zm-234.29 -96.42c6.57,-0.02 5.01,-0.49 6.32,-4.84 -5.56,0.8 -5.27,-1.15 -6.32,4.84zm-45.16 7.6c-1.08,-5.69 0.33,-3.68 -5.18,-5.2 0.69,7.54 -3.06,5.22 5.18,5.2zm23.21 33.44c0.45,-5.82 -0.38,-1.65 -1.54,-3.37 -0.72,0.72 -6.92,2.08 0,6.8 1.39,-2.03 1.24,0.39 1.54,-3.43zm241.4 27.64l0.76 -6.37 -5.72 1.69c1.43,1.78 -2.66,1.79 4.96,4.68zm-27.46 -4.34c-3.33,-1.91 -0.37,-1.69 -4.72,-1 -0.29,0.74 -0.71,1.33 -0.74,3.37 -0.1,6.77 -0.69,-0.88 0.97,2 4.69,-1.3 1.85,1.18 4.49,-4.37zm44.92 106.73c-1.39,-6.79 1.23,-4.1 -5.34,-5.48 1.11,7.31 -2.33,4.36 5.34,5.48zm-131.38 -57.99c6.2,4.34 4.43,0.99 5.91,-1.75 -5.73,-4.35 -3.49,-2.6 -5.91,1.75zm-88.58 -27.32c4.34,-7.56 1.05,-4.98 -1.76,-6.38 -1.91,2.5 -2.11,-3.12 -1,3.46 0.9,5.32 -0.11,0.81 2.76,2.92zm-137.71 196.12c-1.99,-5.39 -1.11,-5.14 -6.19,-1.76 1.82,1.51 -1.14,5.99 6.19,1.76zm111.83 -315.27c6.6,-0.04 8,0.31 3.02,-5.78 -3.73,3.43 -2.5,1.75 -3.02,5.78zm-165.77 302.5c3.72,-5.36 2.41,-2.71 0,-6.69 -6.45,3.49 -2.92,4.97 0,6.69zm394.03 -182.91c2.74,-2.87 0.59,2.48 4.24,-4.14 -3.4,-2.61 1.01,-1.56 -5.59,-1.79 0.02,6.27 -0.73,2.25 1.35,5.93zm-85.13 2.94c4.81,0.56 3.16,1.37 5.04,-3.64 -3.36,-2.17 -0.37,-1.92 -5.54,-1.03l0.5 4.67zm-250.58 -88.58c2.86,6.51 4.49,4.12 6.53,0 -3.69,-2.28 -1.64,-3.01 -6.53,0zm344.98 280.7c2.89,1.94 1.37,1.51 6.26,2.07l-1.27 -5.72c-3.18,0.09 -3.37,0.47 -4.99,3.65zm-357.59 -170.21c2.91,-4.9 3.2,-4.29 -1.76,-6.53 -4.33,4.6 -0.67,4.82 1.76,6.53zm360.6 30.17c5.26,3.63 4.15,2.08 6.46,-1.76 -6.23,-4.15 -4.17,-2.07 -6.46,1.76zm-39.32 -42.37c-1.16,-4.02 0,-2.32 -3.03,-4.6 -4.81,3.43 -3.31,0.78 -2.04,5.08 4.68,1.47 0.61,1.87 5.07,-0.48zm-226.54 -117.87c5.75,-0.36 8.41,1.39 4.1,-5.97 -3.64,2.76 -2.87,1.58 -4.1,5.97zm198.25 133.09c-2.51,2.26 -1.31,0.75 -2.63,3.93 7.11,-0.08 6.52,1.05 6.18,-6.07l-3.55 2.14zm-285.99 283.85c3.46,5.11 1.74,5.55 6.43,0 -6.4,-5.55 -4.38,-1.59 -6.43,0zm118.21 -417.21l5.95 0.05c-2.11,-3.99 -2.34,-4.55 -6.19,-6.47l0.24 6.42zm-176.32 329.3c-0.26,-0.21 1.58,-3.53 -4.53,-1.65 -4.75,1.46 -0.76,-0.76 -1.83,3.41 4.01,2.27 3.89,0.63 6.36,-1.76zm-3.32 -234.06c4.35,-3.04 1.49,3.16 4.52,-6.46l-6.28 0.97 1.76 5.49zm325.76 295.31c-10.74,0.88 -8.39,-1.88 -9.33,6.04l9.33 -6.04zm-281.88 -0.04c0.07,-0.16 9.65,-2.61 0,-6.38 -2.36,3.89 -2.76,1.72 0,6.38zm-61.7 -137.4c-6.07,-2.04 -4.25,-2.57 -6.58,2.34 5.74,3.33 4.49,2.71 6.58,-2.34zm132.03 -267.21c3.88,-3.86 2.32,-1.78 3.98,-6.43 -5.91,0.78 -3.67,-1.29 -5.36,2.21 -2.03,4.22 1.33,4.16 1.38,4.22zm172.31 7.18c6.92,-2.75 5.2,-4.07 -0.55,-6.36 -1.77,4.4 -1.81,2.49 0.55,6.36zm-159.94 16.22c0.78,0.57 -0.6,5.49 6.9,0 -0.92,-0.83 0.42,-6.65 -6.9,0zm87.81 412.81c3.72,-0.11 1.56,-0.23 3.48,-1.38 -1.35,-2.73 2.05,-3.2 -3.17,-3.02 -3.88,0.15 -2.89,2.43 -3.64,3.63 2.57,0.96 -1.49,0.92 3.33,0.77zm105.54 -326.79c1.78,-2.46 4.7,-0.01 0,-6.4 -5.73,2.43 -4.6,3.8 0,6.4zm-137.15 20.74c3.95,-6.05 2.93,-4.26 -1.75,-6.44 -2.83,4.12 -3.01,4.32 1.75,6.44zm-111.06 308.18c2.53,1.44 -4.04,1.81 5.33,1.58 6.07,-0.16 2.29,-0.82 3.57,-1.58 -8.18,-4.5 -8.89,0 -8.9,0zm311.82 -87.56c6.78,3.42 4.63,2.63 6.6,-2.1 -1.92,-1.13 2.9,-3.26 -4,-0.74 -3.33,1.22 -1.49,1.47 -2.6,2.84zm10.3 -38.69c6.27,-1.63 3.73,0.84 5.81,-5.54 -8.47,0.7 -5.08,-2.19 -5.81,5.54zm-130.18 -108c3.09,-5.84 1.99,-3.51 -1.75,-6.4 -1.13,1.25 -3.61,-3.05 -1.27,4.32 1.4,4.43 0.27,0.9 3.02,2.08zm-277.71 -8.38c2.04,4.37 3.68,6.77 6.55,0 -2.14,-1.33 2.24,-0.94 -3.2,-1.34 -6.95,-0.5 -0.25,-0.55 -3.35,1.34zm21.11 156.48c3.19,6.6 3.73,4.31 6.15,0 -6.28,-5.4 -4.38,-1.35 -6.15,0zm400.44 -152.84c0.44,-6.39 -0.2,-1.43 -1.41,-3.23 -6.86,3.9 -3.96,3.98 0,6.94 0.82,-1.47 1.18,-0.41 1.41,-3.71zm-400.44 2.97c1.01,6.57 0.67,7.08 6.44,3.99 -3.65,-5.54 1.27,-2.6 -6.44,-3.99zm261.6 63.72c1.59,2.49 -2.89,2.77 3.38,2.75 1.73,-0.01 2.82,-1.88 3.74,-2.75 -7.94,-4.85 -6.09,-0.59 -7.12,0zm-188.25 136.99c-1.44,-3.86 2.73,-2.23 -4.3,-4.23 -3.62,2.88 -1.91,1.15 -0.95,5.66l5.25 -1.43zm-64.66 -257.15c2.82,-4.88 1.7,-3.09 0,-6.69 -8.02,3.42 -3.92,4.41 0,6.69zm225.06 -68.13c0.43,-1.37 5.43,1.63 2.33,-6.63 -5.47,1.87 -5.85,0.75 -2.33,6.63zm19.42 -80.73c2.01,1.45 -2.92,3.01 3.31,1.46 3.75,-0.94 1.52,-0.32 3.18,-3.22 -7.65,-4.72 -4.61,-0.17 -6.49,1.76zm116.84 234.78c1.92,-0.65 1.71,-2.49 1.8,-2.69 -6.06,-4.7 -4.44,-2.15 -6.13,1.76 1.27,0.91 -2.47,3.24 4.33,0.93zm-331.8 -138.08c0.48,-6.91 -0.03,-1.17 -1.39,-3.47 -6.53,3.61 -5.39,2.96 0,6.8 1.02,-1.59 1.13,0.32 1.39,-3.33zm6.98 196.93c-1.12,-4.54 1.81,-3.14 -5.26,-4.91l-0.24 6.32 5.5 -1.41zm91.49 151.97c-5.04,-1.17 -1.45,0.24 -2.98,1 2.64,2.69 -4.58,1.64 3.25,3.27 5.16,1.07 3.17,-1.31 3.5,-1.51 -2.41,-2.63 3.63,-1.05 -3.77,-2.76zm75.53 7.66c5.77,-2.32 5.54,-1.2 2.53,-6.37 -5.34,1.68 -4.83,1.38 -2.53,6.37zm-129.76 -45.63c8.91,-0.56 5.03,2.63 5.48,-6.06 -4.88,2.07 -3.18,-1.51 -5.48,6.06zm182.95 -147.42c1.47,-2.09 4.6,0.05 0,-6.74 -0.41,0.31 -2.64,-0.35 -2.95,3.56 -0.36,4.59 0.19,1.71 2.95,3.18zm40.32 -19.05c-6.73,-1.58 -0.9,-0.23 -3.39,1.48 2.49,2.49 -0.62,6.41 6.76,1.76 -1.69,-2.82 0.34,-2.37 -3.37,-3.24zm-63.96 -216.58c5.51,-2.19 5.79,-0.16 2.74,-6.67 -4.16,2.2 -4.95,-1.26 -2.74,6.67zm-54.72 -4.83c5.62,1.11 3.01,1.52 5.66,-2.17 -3.38,-4.99 1.78,-2.93 -5.55,-2.63l-0.11 4.8zm92.42 388.01c2.67,-4.3 2.58,-2.49 0,-6.9 -5.72,2.71 -5.53,4.33 0,6.9zm94.95 -280.75c4.75,-2.62 6.45,-0.99 1.75,-6.75 -2.47,1.4 -2.01,-0.18 -2.78,3.12 -1.37,5.85 0.45,2.3 1.03,3.63zm-102.84 16.14c7.44,-1.9 4.91,1.57 5.91,-5.78 -7.58,0.67 -4.01,-1.47 -5.91,5.78zm-132.13 162.83c-3.65,3.36 -3.06,-4.76 -2.6,5.11 0.27,5.82 2.18,3.5 2.6,4.02 1.17,-4.03 1.2,-3.81 0,-9.13zm9.85 -276.09c3.37,3.51 6.33,6.31 5.91,-2.33 -2.65,-0.36 -5.46,-0.76 -5.91,2.33zm261.28 251.43c-3.31,-5.13 1.29,-2.27 -6.49,-3.71 1.1,5.7 0.97,8.36 6.49,3.71zm-72.68 16.17l6.59 0.99 -1.72 -6.21c-4.82,1.59 -2.85,-0.65 -4.87,5.22zm-371.4 -79.01c2.96,-5.9 0.38,-5.84 -0.28,-6.82 -3.31,1.67 -2.74,-1.44 -3.12,3.09 -0.49,6.07 -0.65,1.77 3.4,3.73zm274.17 209.1c5.24,1.34 1.16,2.32 4.69,-2.08 -1.15,-1.6 -0.83,-3.76 -4.11,-2.61 -5.34,1.85 -0.63,4.57 -0.58,4.69zm170.24 -128.59c0.34,-4.86 -0.59,-2 -1.33,-3.18 -6.69,2.5 -5.56,4.08 0,6.49 1.09,-1.76 1.09,0.17 1.33,-3.31zm-282.65 -149.88c2.85,-4.14 3.42,-3.34 0,-7.59 -5.67,5.02 -3.92,4.6 0,7.59zm166.99 24.96c-2.64,-5.31 -3.7,-5.7 -6.98,0 1.91,1.21 -0.09,1.23 3.51,1.49 6.94,0.51 0.74,0.26 3.47,-1.49zm102.02 15.7c4.34,-1.76 6.15,-0.13 1.77,-6.21 -4.6,1.76 -2.22,-1.12 -3.24,2.83 -1.55,5.96 0.18,1.58 1.47,3.38zm-214.84 253.36c1.14,-5.23 -1.1,-2.83 -1.42,-3.34 -4.56,2.66 -5.7,0.45 -1.76,6.58 3.92,-1.81 1.96,2.38 3.18,-3.24zm-126.58 -156.53c-2.39,-5.97 -3.73,-5.89 -6.55,0 3.84,2.71 1.47,3.66 6.55,0zm310.15 -199.06c5.13,-1.51 4.54,-3.07 5.84,-6.61 -7.33,1.04 -6.04,-1.75 -5.84,6.61zm-241.64 228.18l5.09 -0.59 -1.04 -5.25c-6.21,0.93 -5.46,0.07 -4.05,5.84zm136.66 -306.92c0.31,0.17 -1.6,3.77 4.12,1.43 5.19,-2.13 0.45,1.95 2.37,-3.2 -1.01,-0.56 -5.13,-4.47 -6.49,1.77zm-92.93 104.05l-1.15 -5.47c-2.96,0.94 -4.81,-2.56 -4.18,6.13l5.33 -0.66zm-132.73 94.43c1.85,4.98 0.06,4.39 6.1,4.81 -0.03,-7.27 1.57,-5.59 -6.1,-4.81zm-23.14 -161.74c3.01,-1.53 1.73,1.85 3.01,-2.32 1.97,-6.43 1.02,-1.03 -1.23,-4.02 -2.92,1.26 -1.75,-1.86 -3.02,2.04 -2.38,7.29 -0.04,2.88 1.24,4.3zm339.72 47.91l5.44 0.94 0.53 -5.79c-5.9,0.08 -4.64,-0.68 -5.97,4.85zm-321.31 92.01c0.15,-4.91 -0.12,-4.37 -4.35,-5.91 -3.22,5 -1.21,6.37 4.35,5.91zm-23.69 -55.01c-2.31,2.49 -1.56,-1.21 -2.02,3.4 -0.9,8.87 -0.12,1.06 2.02,3.67 0.75,-2.23 7.75,-2.36 0,-7.07zm7.28 258.12c6.7,-1.31 3.85,0.72 5.63,-5.4 -9.19,0.06 -5.63,-3.44 -5.63,5.4zm59.59 44.03l5.99 1.31 0.24 -5.91c-8.65,1.16 -4.58,0.83 -6.23,4.6zm189.93 -152.98c-4.29,-0.15 -2.14,1.1 -3.28,3.46 2.58,1.54 -2.57,0.91 3.26,1.33 6.91,0.49 0.26,0.55 3.36,-1.33 -1.54,-3.73 2.68,-3.25 -3.34,-3.46zm1.67 138.89c4.87,-7.9 0.38,-6.59 0,-7.22 -7.46,4.11 -1.63,6.11 0,7.22zm-28.13 -246.33c6.1,-2.45 6.23,-4.13 0,-6.73 -2.88,3.83 -2.53,2.63 0,6.73zm-12.22 -100.48c-5.96,2.15 -4.05,0.88 -6.65,5.73l6.01 0.92 0.64 -6.65zm33.21 188.52c-1.17,-7.55 -0.64,-4.03 -3.41,-6.13 -0.14,0.18 -4.9,-0.99 -1.13,5.04 1.5,2.4 2.34,0.93 4.54,1.09zm128.45 -151.11c-4.76,2.01 -2.26,-2.25 -3.39,3.35 -1.05,5.19 1.17,2.82 1.64,3.54 6.57,-2.45 1.8,-6.83 1.75,-6.89zm-375.15 305.07c0.54,-5.07 0.4,-9.96 -0.28,-13.92 -3.27,-19.17 -19.92,-24.36 -25.3,-38.23 7.64,2.41 9.81,6.18 20.67,9.21 15.09,4.22 16.3,0.35 22.77,-2.34 14.4,-5.99 24.85,-12.05 19.63,-36.42 -4.76,-22.17 -44.34,-27.21 -47.79,-1.93 -1.32,9.63 2.01,17.05 10.48,17.16 -3.72,-12.76 -6.89,-4.14 -1.26,-16.84l22.83 -2.32c4.55,3.74 9.14,5.7 8.42,13.8 -3.15,-2.99 -3.03,-12.97 -23.17,-7.32l-1 7.94c12.03,-1.18 17.36,-0.16 9.73,14.99 -10.47,20.78 -40.89,6.1 -47.17,-14.67 -5.21,-17.25 -0.23,-7.96 -5.68,-11.58 -2.67,15.89 1.29,22.96 7.85,30.53 6.57,7.59 6.62,18.31 6.82,28.6 4.04,4.77 8.26,9.38 12.63,13.84 1.31,-0.15 3,-0.24 5.18,-0.26 0.48,2.59 1.02,4.68 1.36,6.7 1.09,1.03 2.18,2.05 3.28,3.06zm365.29 -166.78c3.52,2.69 -1.16,1.67 6.12,1.77l-0.72 -5.61c-4.93,0.14 -4.02,-0.67 -5.4,3.84zm-125.52 -92.53c-1.35,2.06 -1.2,-0.41 -1.47,3.42 -0.51,7 -0.13,0.92 1.47,3.63 0.03,-0.12 9.34,-2.41 0,-7.05zm-149.32 277.59l-1.03 -6.06c-6.55,1.4 -2.88,-0.11 -5.93,5.17l6.96 0.89zm28.34 -105.76c4.01,-0.55 5.03,-2.94 6.41,-6.62l-6.35 0.54 -0.06 6.08zm-144.52 -172.08c4.92,-2.26 4.96,-1.2 1.76,-6.62 -3.42,1.37 -2.45,-1.41 -3.48,3.2 -1.25,5.56 0.81,2.22 1.72,3.42zm312.59 -126.64c5.64,-0.77 7.95,-0.12 3.9,-6.28 -4.58,2.12 -3.62,-1.63 -3.9,6.28zm-178.87 -26.22c3.18,7.31 3.92,4.12 6.62,-0.35 -8.2,-4.83 -5.33,-0.67 -6.62,0.35zm241.38 353.41c-1.93,-7.53 0.98,-2.58 -4.1,-6.68 -0.11,0.12 -3.52,-0.11 -1.33,4.35 1.89,3.86 0.95,1.59 5.43,2.33zm-150.04 -168.86c5.06,-2.61 3.06,0.52 3.52,-7.6 -2.02,1.24 -3.09,0.96 -4.42,3.38 -3.5,6.38 0.42,3.47 0.9,4.22zm-155.24 83.33c-1.19,-4.09 0.38,-0.74 -3,-2.09 -4.22,4.85 -2.82,4.27 1.75,6.64 0.24,-0.38 3.1,1.82 1.25,-4.55zm332.83 32.52c4.82,-2.67 0.93,4.59 4.5,-4.59 -3.56,-2.7 0.82,-1.4 -6.76,-1.86l2.26 6.45zm-23.19 -105.27c1.27,-5.13 -0.91,-2.76 -1.43,-3.72 -5.58,2.36 -4.55,1.8 -2.09,7.01 4.3,-1.83 2.25,1.85 3.52,-3.29zm-118.86 -185.2c5.78,-0.3 3.42,0.46 6.28,-3.04l-6.39 -4.32 0.11 7.36zm45.29 230.98c1.41,-6.01 -0.47,-1.8 -1.71,-3.41 -5.15,2.25 -5.86,0.69 -1.76,6.28 3.26,-1.08 2.24,2.37 3.47,-2.87zm-88.04 -52.61c-4.99,1.87 -4.46,1.54 -6.64,6.65 7.48,-0.28 6.3,0.84 6.64,-6.65zm95.65 -151.38c6.45,4.56 4.65,2.6 6.46,-1.75 -1.71,-1.1 2.71,-2.91 -3.48,-1.43 -2.59,0.61 -2.23,-2.15 -2.98,3.18zm-162.25 48.23c7.48,2.07 4.96,1.67 6.78,-2.51 -0.6,-0.45 1.53,-3.72 -4.39,-1.3 -3.84,1.57 -0.86,0.39 -2.39,3.81zm-113.11 316.37c-1.14,-3.94 0.23,-0.76 -2.97,-2.17 -4.32,4.86 -3.14,4.5 1.76,6.69 0.22,-0.36 2.98,1.63 1.21,-4.52zm-5.91 -261.43c7.76,-3.83 3.23,1.45 6.42,-5.5 -6.71,-1.73 -6.94,-1.91 -6.42,5.5zm364.88 81.89c-1.35,-6.07 1.52,-2.61 -3.26,-5.2 -5.52,2.38 -3.6,0.06 -2.17,5.98l5.43 -0.78zm-63.1 -36.04c2.48,-4.22 -1.61,-4.86 -2.47,-5.38l-3.19 7.51c7.68,-0.71 3.76,1.12 5.66,-2.13zm-163.83 258.9c-6.74,-5.55 -3.98,-3.07 -6.75,1.76 0.4,0.2 -2.25,2.95 4.61,0.98 4.38,-1.25 0.71,0.19 2.14,-2.74zm-101.61 -141.3c2.74,-4.13 1.71,-1.93 1.27,-7.89l-5.92 3.25c3.55,5.63 -0.97,1.1 4.65,4.64zm-0.37 -273.99c5.09,-3.03 2.39,-1.04 4.04,-4.93 -4.08,-2.25 -1.4,-1.41 -7.62,-1.69l3.58 6.62zm262.35 66.75c3.71,-2.75 2.79,-0.03 2.83,-5.94 -8.56,-0.24 -8.49,1.82 -2.83,5.94zm88.53 15.62c5.88,-2.05 5.98,0.6 5.28,-5.37 -6.29,-1.41 -6.23,-1.66 -5.28,5.37zm-404.51 2.45c-4.86,1.92 -4.53,1.97 -6.99,6.85l8.08 -1.7 -1.09 -5.15zm192.91 319.84c-4.33,1.92 -2.5,-2.11 -3.64,3.52 -1.27,6.28 0.76,2.15 1.88,3.58 2.24,-0.87 1.72,1.13 2.83,-3.83 1.35,-6.07 -0.09,-1.25 -1.07,-3.27zm43.96 -422.08c2.91,-4.89 3.38,-4.41 -1.77,-6.69 -0.62,0.78 -3.03,-1.99 -1.89,3.47 1.15,5.46 -0.94,1.68 3.66,3.22zm-192.25 294.97c-0.51,-5.33 0.73,-3.65 -4.3,-5.66 -3.1,3.17 -1.55,-1.24 -1.73,6.05l6.03 -0.39zm364.55 -57.49c3.02,-5.22 3.45,-4.59 -1.76,-7.21 -1.16,1.29 -3.44,-2.46 -1.34,4.88 0.93,3.27 1.09,1.27 3.1,2.33zm-379.78 54.06c3.04,-5.3 1.84,-2.98 0,-6.63 -8.47,1.76 -5.4,4.95 0,6.63zm-24.97 -253.02c1.73,-0.61 2.28,1.31 3.47,-2.02 2.8,-7.79 -0.62,-3.65 -1.36,-4.68 -4.5,2.54 -5.18,1.78 -2.11,6.7zm-36.57 242.22c-4.37,2.4 -2.39,-2.1 -3.52,4.05 -1.13,6.15 1.24,2.84 1.76,3.54 6.2,-3.1 1.76,-7.59 1.76,-7.59zm299.07 -297.19c2.33,6.14 -1.58,2.5 4.7,5.47 2.83,-3.46 1.4,1.63 2.17,-6.28l-6.87 0.81zm-167.54 410.24c5.1,-1.53 3.87,-0.31 5.34,-5.42 -6.45,-1.98 -7.96,-0.96 -5.34,5.42zm-127.23 -178.13c5.42,-0.68 2.47,1.41 6.23,-2.73 -3.13,-3.43 -1.06,-2.68 -6.94,-3.47l0.71 6.2zm91.69 221.72c3.94,-5.96 1.9,-2.33 -2.8,-4.48 -1.32,1.25 -1.92,-0.6 -2.39,1.75 0.06,0 2.51,1.08 5.19,2.73zm258.72 -280.11c-1.22,-4.29 0.33,-0.73 -3.06,-2.31 -1.07,1.13 -6.56,1.79 1.76,6.91 0.48,-0.73 3.31,2.47 1.3,-4.6zm-184.16 -162.27c4.57,-3.69 5.49,-2.26 0,-8.16 -0.01,0.02 -1.73,-1.63 -1.88,3.11 -0.2,5.61 0.05,2.71 1.88,5.05zm-89.96 433c1.24,-0.69 1.38,-2.27 1.6,-5.67l-6.84 1.64 0.32 1.51 0.06 0.04c1.79,0.4 3.48,1.27 4.86,2.48zm120.26 1.41c-4.25,1.07 -5.06,-1.9 -4.84,6.2l5.88 -0.1 -1.04 -6.1zm80.47 -21.32c4.51,-1.73 3.68,3.29 3.73,-6.88 -3.35,1.08 -2.36,-1.2 -4.62,2.52 -3.12,5.13 0.81,4.21 0.89,4.36zm160.96 -155.75l0.75 -6.88 -6.08 2.02c-1.26,3.8 1.18,4.75 5.33,4.86zm-46.04 -116.52c-4.88,1.46 -0.88,0.17 -2.28,3.26 0.34,0.21 -1.45,2.96 4.58,1.26 4.17,-1.17 0.69,0.52 2.21,-3.02 -1.09,-0.85 2.17,-3.5 -4.51,-1.5zm-185.32 -30.08c3.29,-2.93 1.3,-2.06 1.88,-5.44 -5.34,1.08 -6.54,1.81 -5.97,5.76 0.37,0.1 -1.57,4.75 4.09,-0.32zm-190.98 211.43c-4.31,1.22 -0.62,-0.68 -2.23,3.01 0.9,0.68 -2.26,3.47 4.53,1.46 5.03,-1.49 0.83,0 2.27,-3.22 -0.34,-0.21 1.71,-3.03 -4.57,-1.25zm40.31 90.46c5.12,-0.25 4.82,-0.54 6.27,-5.54l-6.6 -0.73 0.33 6.27zm313.91 -298.41c8,0.29 4.94,1.86 7.67,-3.55 -1.49,-0.87 2.25,-3.95 -4.55,-1 -2.73,1.18 -1.83,1.78 -3.12,4.55zm-201.84 -85c2.06,5.2 -0.31,3.96 6.61,5.52 -0.11,-5.3 0,-8.41 -6.61,-5.52zm-148.15 283.65c-1.27,-4.63 1.73,-4.72 -5.96,-4.33l-0.48 6.41 6.44 -2.08zm204.87 128.01l6.48 0.25c-0.52,-6.67 0.8,-2.64 -1.85,-6.37 -4.86,2.24 -3.92,0.3 -4.63,6.12zm-132.45 -443.26c2.78,-3.03 2.17,-1.64 3.71,-6.29l-6.67 0.31c-0.4,0.22 -0.79,0.45 -1.19,0.67 1.2,4.74 0.64,2.56 4.15,5.31zm63.41 158.51c3.92,-6.1 3.22,-4.77 -1.76,-6.98 -2.14,1.91 -4.01,-3.11 -1.54,4.83 0.73,2.37 2.62,1.84 3.3,2.15zm175.4 111.2c1.79,0.9 -2.98,1.92 5.67,1.17l-1.51 -6.42c-6.05,1.32 -5.49,0.52 -4.16,5.25zm-163.92 -245.4c0.63,-6.4 0.33,-5.65 -5.98,-5.99 0.9,6.72 -0.69,5.82 5.98,5.99zm-17.48 393.64c7.11,1.84 3.94,1.09 7.57,-1.23l-3.33 -4.29c-4.4,1.87 -3.63,-0.02 -4.24,5.52zm-66.14 -20.06c-0.81,-0.73 2.33,-4.49 -4.62,-1.74 -5.25,2.08 -0.74,-0.37 -2.26,4.16 6.73,2.04 4.36,2.27 6.88,-2.42zm302.36 5.27c-6.58,-8.95 -6.69,-2.04 -7.15,-1.75 2.54,2.64 -4.72,1.9 3.61,3.52 5.18,1 3.29,-1.59 3.54,-1.77zm-136.14 -227.6c3.37,0.48 3.54,1.88 6.31,-0.82 4.52,-4.41 -0.63,-3.66 -0.65,-3.68 -4.41,-1.85 -4.31,0.37 -5.66,4.5zm-157.26 238.15c-4.09,-1.9 -1.4,-2.68 -6.79,0 1.03,1.5 -1.89,4.46 3.23,4.64 4.29,0.16 2.67,-1.57 3.56,-4.64zm237.5 -244.56l6.65 0.04c-0.14,-6.21 0.85,-2.84 -1.62,-6.62 -4.71,2.56 -3.59,0.08 -5.03,6.58zm-179.83 229.16c-7.21,0.61 -2.57,-0.71 -5.88,1.97 2.38,4.66 -2.11,2.93 5.87,5.67l0.01 -7.64zm170.77 -283.5c3.34,4.41 0.45,2.33 5.29,4.48 3.74,-3.07 2.46,0.13 2.77,-5.49 -9.37,-1.08 -7.18,0.56 -8.06,1.01zm32.82 182.86c-3.21,-6.39 -4.8,-4.55 -8.05,0 4.39,3.5 3.14,4.28 8.05,0zm-167.75 -287.03l5.92 -0.01 0.09 -5.36c-5.69,-1.25 -6.5,-1.32 -6.01,5.37zm-35.04 332.65c3.93,2.24 0.5,1.16 6.58,1.66l-0.31 -6.62c-6.23,0.88 -4.3,-0.73 -6.27,4.96zm-98.87 -310.42c2.32,6.46 -1.62,3.17 4.99,5.72 2.88,-2.74 2.07,0 3.1,-5.86l-8.09 0.14zm-4.23 -9.69c1.71,9.82 5.48,4.28 5.09,-4.31l-5.09 4.31zm29.04 -15.89c2.41,4.33 4.45,6.38 8.67,0.27 -2.68,-2.14 0.72,-1.94 -3.94,-2.09 -3.91,-0.13 -3.03,0.11 -4.73,1.82zm278.2 277.16c-4.49,0.57 -3.5,2.24 -4.01,2.67 5,3.8 3.93,3.15 9.24,0 -0.12,-0.12 1.94,-3.58 -5.23,-2.67zm-284.24 133.6c5.62,-0.07 4.54,0.36 5.68,-6.25 -3.06,0.18 -3.95,-0.73 -6.01,1.32 -2.85,2.84 0.3,4.83 0.33,4.93zm173.02 -81.7c1.55,3.84 0.5,7.55 7.88,1.76 -2.23,-4.43 -2.37,-5.5 -7.88,-1.76zm-142.47 78.88c5.32,-0.71 5.69,-1.46 6.65,-6.69l-6.9 0.02 0.25 6.67zm78.08 -421.22c-1.06,6.39 -1.41,2.24 0.79,6.01 6.77,-1.01 4.64,0.72 5.28,-6.53l-6.07 0.52zm116.84 148.24c-1.73,1.29 -3.36,2.53 -5.08,4.21 0.99,0.72 -1.59,3.89 9.56,0.96 -1.67,-3.4 -1.71,-2.79 -4.48,-5.17zm15.83 290.95c-4.66,3.95 -0.17,2.93 -0.02,3.59 0.1,0.41 0.78,1.73 0.88,2.18 1.4,6.17 -3.3,3.81 2.65,6.12 0.97,-2.68 0.78,-3.69 -0.04,-6.85 -1.78,-6.88 1.25,-2.61 -3.47,-5.04zm98.5 -209.66c-6.18,1.94 -5.03,0.58 -6.9,6.41l6.28 1.77 0.62 -8.18zm-421.54 -63.13c4.6,4.67 2.38,0.57 3.92,0.59 6.89,0.05 8.89,1.06 5.94,-5.18 -3.4,0.88 -6.91,2.99 -9.86,4.59zm266.89 221.62c5.91,-0.63 6.19,-1.06 6.57,-6.85 -7.77,-0.14 -6.3,-0.95 -6.57,6.85zm-186.48 -358.57c0.06,-15.63 -16.44,-0.22 0,0zm314.72 205.66c-2.61,5.22 -4.06,8.77 0,13.2 2.86,-3.27 2.55,-1.56 2.08,-5.36l-2.08 -7.84zm22.47 -91.98l-0.11 -6.17 -6.4 -0.03 0.35 6.44 6.16 -0.24zm-223.58 -99.05c5.95,1.69 4.71,2.24 6.42,-4.16 -0.35,-0.18 -1.01,-3.14 -5.22,-1.11 -3.7,1.79 -2.28,2.61 -1.2,5.27zm214.29 220.03c6.51,0.15 6.23,-0.81 5.56,-7.33 -6.24,0.62 -6.61,0.58 -5.56,7.33zm41.5 -28.92c-0.87,-8.75 0.42,-5.29 -5.48,-3.9 -2.4,0.56 -6.24,1.29 -8.06,2.9l13.54 1zm-46.46 132.32l0.54 -5.85 -7.11 0 0.66 6.76 5.91 -0.91zm-220.97 14.62c2.95,-2.42 5.34,-8.29 6.61,-11.84 -4.09,1.64 -6.65,4.32 -9.26,9.94l2.65 1.9zm196.99 -114.86c4.06,-0.42 10.64,-1.33 5.83,-6.34 -4.56,-4.77 -5.54,2.65 -5.83,6.34zm10.7 25.84c6.65,4.09 6.46,2.17 8.14,-4.41l-8.31 0.33 0.17 4.08zm-242.37 130c7.06,-4.12 3.62,0.93 6.52,-6.28l-8.16 -1.79c-0.34,4.22 0.29,5.02 1.64,8.07zm263.01 -176.15c-6.26,-2.65 -5.5,-2.26 -7.73,2.2 2.25,4.27 2.23,4.92 7.74,1.75l-0.01 -3.95zm-283.35 168.38c2.03,9.69 6.79,7.02 8.99,0.85 -4.6,-2.72 -3.66,-1.97 -8.99,-0.85zm230.62 -129.26c-1.96,-5.31 -4.45,-8.44 -9.05,-1.76 3.29,2.7 1.4,6.6 9.05,1.76zm-180.88 125.46c7.35,-1.85 5.38,2 5.09,-7.51l-6.83 -0.13c0.05,2.64 -0.07,2.45 0.44,5.05l1.3 2.59zm59.78 -395.94l2.55 -8.58c0.04,-0.21 2.18,-1.98 -0.79,-6.53l-3.52 7.98c-2.74,6.65 -4.59,2.12 1.76,7.13zm-15.82 -6.95l5.38 1.09c2.31,-4.16 1.46,-2.75 1.81,-8.83 -8.17,2.58 -6.57,0.42 -7.19,7.74zm-128.35 175.26c-7.36,0.34 -3.95,-0.86 -8.16,2.31 0.16,0.22 -0.5,4.8 4.94,4.35 5.66,-0.48 3.31,-2.84 3.22,-6.66zm349.32 29c-4.76,-2.35 -2.01,-4.72 -6.06,1.08 2.92,2.91 1.26,1.74 6.4,3.74 6.74,2.61 1.73,4.13 6.81,-0.22l-7.15 -4.6zm-240.37 -187.65c0.68,3.82 -1.57,4.84 3.81,5.92 6.04,1.21 4.51,-1.41 5.18,-5.32 -1.99,-1.16 -4.91,-2.98 -8.99,-0.6zm146.88 275.13c8.15,-1.25 6.01,0.83 6.14,-9.16 -8.46,0.73 -8.02,1.47 -6.14,9.16zm-136.27 -147.37c1.12,-1.74 2.98,-2.42 2.86,-7.59 -0.27,-11.47 1.04,-1.42 -2.86,-5.67 -1.34,1.77 -3.08,-2.8 -2.3,7.41 0.6,7.82 1.93,5.21 2.3,5.85zm15.05 68.83c6.34,-3.06 9.19,-3.96 6.75,-11.35 -7.89,1.5 -5.76,0.78 -6.75,11.35zm-185.52 62.7c-2.23,7 -1.87,8.5 3.43,11.84 5.29,-5.1 3.13,-9.57 -3.43,-11.84zm268.93 -57.02c4.1,-1.66 5.94,-5.76 8.16,-9.88l-4.64 -3.37c-2.99,4.49 -6.15,8.45 -3.52,13.25zm35.01 95.2c-1.79,-5.87 -10.2,-12.63 -12.04,-1.49 4.22,2.64 2.88,1.91 12.04,1.49zm-276.51 -128.08c1.78,5.77 0.35,6.51 8.08,4.25 5.8,-1.69 6.3,-2.25 6.48,-7.6 -19.31,9.29 -5.29,-0.65 -14.56,3.35zm22.26 15.78c2.31,-14.23 -1.86,-10.05 -5.12,-9.83l1.12 11.65c0.27,4.12 -0.06,1.52 1.7,4.07 0.32,-0.42 0.75,-0.94 0.91,-1.32l1.39 -4.57zm255.56 121.36c1.2,0.59 -2.19,3.77 7.35,-0.16 8.98,-3.7 7.14,-1.93 9,-8.3 -8.12,-0.2 -13.9,1.69 -16.35,8.46zm-7.5 -200.96l-16.08 0.52c2.75,6.56 -2.13,1.9 5.01,5.02 0.39,0.17 0.91,0.27 1.3,0.45l2.3 1.34c0.5,0.25 1.85,1.28 2.36,1.44 8.59,2.65 6.34,-4.09 5.11,-8.77zm17.19 85.03c14.27,-0.78 21.49,-1.48 23.73,-15.48 -12.7,-0.57 -2.45,5.68 -16.91,0.1 -2.87,4.8 -6.16,9.83 -6.82,15.38zm-33.34 216.46c7.76,-7.88 12.77,-21.84 8.96,-32.02 -8.57,3.16 -4.43,3.08 -0.82,10.07 -7.75,4.52 -3.94,2.58 -14.23,5.32 -20.52,5.45 -7.68,13.12 -9.56,16.83 -4.78,4.78 -13.96,4.26 -19.03,0.34 -0.61,4.75 -0.68,-6.15 -0.27,2.67 0.01,0.21 0.39,1.42 0.4,1.17 0.02,-0.25 0.48,0.71 0.68,1.08 5.9,5.18 27.4,1.11 33.87,-5.46zm62.93 -82.95c0.06,-16.99 12.46,-20.4 14.32,-35.96 -28.84,11.25 -23.14,16.17 -30.3,28.93 0.35,0.28 0.86,0.61 1.09,0.77 14.81,9.98 0.85,14.35 18.26,20.27 -0.47,-10.53 -3.4,-4.18 -3.37,-14.01zm-156.56 -8.66c1.52,-6.15 4.56,-7.89 10.8,-14.04 0.19,-0.18 0.76,-0.37 0.89,-0.94 0.14,-0.57 0.6,-0.63 0.88,-0.97l-4.75 -0.8c-2.32,0.23 -1.05,2.67 -2.94,-0.3 -1.75,-2.76 -2.71,-7.6 -3.15,-11.1 -5.03,0.78 -7.77,3.45 -9.89,-0.47 -1.7,-3.13 0.73,-5.25 -2.31,-10.11 -1.94,1.98 -4.14,-4.2 -2.38,14.01 1.42,14.79 1.13,39.52 4.14,43.71l8.71 -18.99zm138.98 -291.99c7.73,-3.44 1.06,-4.04 14.08,-3.52 3.34,-4.94 6.82,-7.61 7.07,-14.24 -6.65,-5.74 -13.61,-11.13 -20.83,-16.17l-0.28 0.29c4.27,5.8 4.32,3.98 9.87,7.69l0.68 7.31c-7.55,6.93 -6.86,8.1 -18.46,8.08 -10.82,-11.83 -10.46,-11.15 -4.45,-28.24 -9.6,4.91 -15.98,23.34 6.91,35.35 2.63,1.37 2.79,1.75 5.41,3.45zm-109.94 -27.21c1.7,5.17 1.01,-0.01 0.22,5.24l-5.78 -4.72c1.9,-9.11 -2.9,-7.95 0.26,-12.82 3.01,-4.65 7.4,-1.91 9.83,2.58 -2.86,5.69 0.15,0.82 -6.94,5.27 0.18,0.39 0.5,0.87 0.62,1.1l1.79 3.35zm29.6 22.55c2.76,-8.83 -4.23,-3.82 -9.93,-12.25 -1.94,-2.88 -1.81,-5.01 -4.19,-8.23 -4.16,-5.61 -0.52,-0.62 -7.27,-4.75l-0.43 -12.1c-9.52,-6.75 -17.77,-7.95 -20.7,8.74 -3.72,21.11 23.78,35.32 42.52,28.59zm80.01 389.14c1.46,-12 -3.53,-15.12 9.51,-15.23 1.33,2.52 2.41,5.35 2.92,8.19 3.43,-2.7 6.79,-5.49 10.08,-8.37 -3.25,-7.86 -13.57,-10.63 -16.86,-10.56 -14.06,0.28 -23.45,22.21 -5.65,25.97zm-8.64 7.87c-18.83,-4.39 -16.34,-30.86 -19.16,-35.41 -3.93,1.76 -2.61,-3.23 -3.76,5.16 -1.11,8.04 5.21,26.4 17.99,33.31 1.65,-1 3.3,-2.02 4.93,-3.06zm-122.9 -395.91c6.66,2.73 3.88,3.12 12.59,3.94 -2.51,-14.68 -28.21,-12.12 -37.16,-2.12 -6.91,7.7 -9.62,33.74 10.51,33.79 3.8,-6.93 2.84,-7.35 8.78,-12.23 -0.3,-7.81 0.15,-3.31 -1.88,-9.03l8.63 -5.52c-3.93,-2.84 -2.15,-2 -9.07,-2.43l7.6 -6.4zm133.82 182.77c4.57,1.49 13.28,3.57 17.91,2.34 5.23,-1.39 11,-4.53 14.42,-8.35 4.29,-4.79 4.44,-11.32 4.17,-18.25 -10.75,3.11 -4.36,8.25 -16.13,5.65 -2.4,-11.73 4,-17.29 -2.15,-26.02 -5.43,-7.69 -16.04,-5.7 -23.78,0.8 -0.48,8.09 -2.18,7.4 3.61,11.24 0.9,-1.64 0.92,-0.94 1.5,-4.19 0.08,-0.43 -0.05,-4.45 -0.06,-5.16 8.48,-0.23 14.16,-1.47 15.97,5.38 1.56,5.86 -0.13,12.05 -2.85,16.13 -7.43,11.13 -12.76,9.15 -21.66,9.65l-7.2 2.11c1.7,4.95 -3.56,2.18 16.25,8.67zm-349.66 -14.35c-3.51,-3.33 -5.88,-4.85 -7.91,-9.79 -5.46,-13.24 -4.73,-24.58 -6.58,-27.79 -9.32,9.94 5.47,35.67 9.44,40.82 12.21,15.88 10.58,7.36 2.96,20.09 -2.11,3.54 -2.5,5.3 -3.45,8.5 6.34,-1.35 2.9,-0.77 6.87,-5.26 11.08,3.66 24.28,4.09 35.73,0.72 15.05,-4.42 19.19,-1.35 28.33,-2.94 9.46,-1.64 4.43,-1.26 6.28,-2.84 -9.62,-5.15 -24.82,0.63 -41.34,-6.11l-13 -4.74c-7.32,-2.47 -11.53,-5.15 -17.33,-10.66zm354.5 23.47c-7.48,-5.21 -16.2,-7.98 -26.63,-8.75 1.24,10.62 3.56,8.7 1.15,21.68 -3.12,16.79 10.24,31.2 24.06,33.03 9.78,1.29 6.27,-0.02 8.52,-2.21 -3.91,-6.68 -13.11,-0.89 -17.11,-11.15l8.09 -1.15c-0.27,-8.87 -8.02,-11.37 -7.22,-18.11 10.13,-2.48 11.78,4.12 19.61,7.49 2.65,-7.05 0.24,-11.45 -5.41,-17.03 -2.93,-2.89 -1.66,-1.42 -5.06,-3.8zm-136.9 142.2c9.81,0.02 17.48,0.34 23.77,-4.46 11.65,-8.89 -0.77,-1.34 13.4,-7.63 3.25,-1.45 1.5,-0.82 3.52,-2.55 -5.17,-3.2 -17.15,-5.92 -25.68,-3.91 -13.21,3.12 -12.01,4.48 -20.25,9.77 -9.92,6.36 -22.81,29.06 -23.12,36.52 5.23,-2.48 8.29,-2.55 13.5,-4.34l2.55 -7.01c5.76,0.03 10.87,-0.91 16.21,0.84 4.53,1.5 2.51,1.26 3.74,1.96 -0.37,3.46 -1.91,0.44 -3.87,6.95 4.85,-1.61 6.81,-5.01 10.32,-8.55l-0.19 -8.87c-16.96,-10.73 -10.54,-0.65 -13.9,-8.72zm10.29 -300.96c0.55,-10.64 -0.1,-5.16 3.51,-11.73 -15.18,-0.74 -5.02,-2.63 -16.36,-4.02l-6.19 16.06c3.39,5.81 2.76,1 5.89,7.41 -8.78,1.7 -20.86,-4.44 -15.19,12.3 2.33,6.88 9.09,13.91 17.54,15.97 20.79,5.05 38.45,-22.27 23.17,-28.38l-3.32 11.63c-10.57,-1.8 -0.98,-5.86 -7.03,-15.75l-1.9 1.9c-0.36,0.46 -2.87,8.32 -6.89,12.67 -2.75,-3.55 -2.48,-8.02 -3.94,-14.67l10.71 -3.39zm-207.19 184.92l5.45 -3.42c-0.95,1.1 -0.64,1.08 -2.8,2.54 -2.33,1.58 0.82,-0.08 -2.65,0.88zm5.45 -3.42c0.76,-1.05 0.21,-1.71 3.53,-3.59 -1.37,3.63 -0.05,2.34 -3.53,3.59zm-5.45 3.42c-8.53,15.42 -7,-0.79 -22.94,28.1 -2.8,5.07 -4.46,11.6 -5.99,18.54 -2.01,9.15 -3.43,14.02 0.77,18.77 5.76,-10 0.92,-27.47 14.16,-42.53 5.02,-5.7 11.13,-16.21 16.7,-18.35 5.99,-2.3 11.2,0.3 15.28,1.92 -0.84,26.81 -5.21,8.33 -5.13,21.12 7.17,0.07 9.93,-2.21 12.69,-7.31 17.39,-32.12 20.76,-30.28 25.44,-38.29 -34.76,-3.18 -22.9,9.6 -52.85,7.66 -11.37,-0.74 -7.04,-2.72 -15.98,-3.68 1.32,6.37 2.42,3.9 0.24,8.75 -8.5,-1 -12.4,-5.57 -15.29,-11 -3.27,-6.16 0.85,-2.06 -4.48,-5.03 -0.22,6.73 0.61,10.19 3.29,15.01 10.6,19.14 32.75,6.45 34.09,6.32zm169.04 101.39c3.15,10.75 0.32,8.42 -0.27,9.33 -7.32,-9.63 -0.1,-8.92 0.27,-9.33zm-32.36 89.57c-4.25,1.07 -5.06,-1.9 -4.84,6.2l5.88 -0.1 -1.04 -6.1zm52.12 -482.05c2.42,5.44 -0.73,2.85 -1.07,3.5 -7.68,-3.72 -1.79,-5.63 -1.76,-5.68 3.92,1.74 1.17,-1.53 2.83,2.18zm-52.52 5.3c2.42,5.44 -0.74,2.84 -1.08,3.5 -7.67,-3.73 -1.78,-5.63 -1.75,-5.68 3.91,1.74 1.17,-1.53 2.83,2.18zm12.23 11.2c2.42,5.44 -0.73,2.84 -1.07,3.5 -7.67,-3.73 -1.79,-5.63 -1.76,-5.68 3.92,1.74 1.17,-1.54 2.83,2.18zm-37.96 0c2.42,5.44 -0.74,2.84 -1.08,3.5 -7.67,-3.72 -1.78,-5.63 -1.75,-5.68 3.91,1.74 1.17,-1.53 2.83,2.18zm132.49 -9.12c2.43,5.45 -0.73,2.85 -1.07,3.5 -7.67,-3.72 -1.78,-5.63 -1.75,-5.67 3.91,1.73 1.17,-1.54 2.82,2.17zm-25.52 -4.42c2.43,5.44 -0.73,2.84 -1.07,3.49 -7.67,-3.72 -1.78,-5.62 -1.75,-5.67 3.91,1.74 1.17,-1.54 2.82,2.18zm-46.77 1.63c-4.25,-1.07 -5.06,1.9 -4.84,-6.2l5.88 0.1 -1.04 6.1zm110.37 16.67c2.42,5.44 -0.73,2.84 -1.07,3.5 -7.68,-3.73 -1.79,-5.63 -1.76,-5.68 3.92,1.74 1.17,-1.54 2.83,2.18zm-12.79 -2.49c2.42,5.44 -0.73,2.84 -1.07,3.49 -7.68,-3.72 -1.79,-5.62 -1.76,-5.67 3.92,1.74 1.17,-1.54 2.83,2.18zm-67.13 -9.19c-5.04,1.17 -1.45,-0.24 -2.99,-1 2.65,-2.69 -4.57,-1.64 3.26,-3.27 5.15,-1.07 3.17,1.31 3.5,1.51 -2.41,2.63 3.62,1.05 -3.77,2.76zm-39.43 4.32c-5.04,1.17 -1.45,-0.24 -2.98,-1 2.64,-2.68 -4.58,-1.64 3.25,-3.27 5.16,-1.07 3.17,1.31 3.5,1.51 -2.41,2.63 3.62,1.05 -3.77,2.76zm61.97 -5.67c5.24,-1.34 1.16,-2.32 4.69,2.08 -1.15,1.6 -0.83,3.76 -4.11,2.61 -5.34,-1.85 -0.63,-4.57 -0.58,-4.69zm28.45 8.45c2.42,5.44 -0.74,2.85 -1.08,3.5 -7.67,-3.72 -1.78,-5.63 -1.75,-5.67 3.91,1.73 1.17,-1.54 2.83,2.17zm-29.72 7.12c2.42,5.44 -0.73,2.85 -1.07,3.5 -7.68,-3.72 -1.79,-5.63 -1.76,-5.67 3.92,1.73 1.17,-1.54 2.83,2.17zm11.55 -11.1c5,7.45 0.14,6.03 0,6.22 -1.35,-1.82 -1.13,0.1 -1.39,-3.27 -0.5,-6.45 -0.05,-1.02 1.39,-2.95zm-21.62 -2.87c3.68,3.25 1.46,-1.51 4.89,5.29l-6.25 0.08 1.36 -5.37zm-1.79 11.8c5,7.44 0.14,6.03 0,6.22 -1.35,-1.82 -1.13,0.1 -1.39,-3.27 -0.5,-6.45 -0.05,-1.02 1.39,-2.95zm44.73 -12.53c3.68,3.25 1.46,-1.5 4.9,5.3l-6.26 0.07 1.36 -5.37zm-139.09 27.54c2.42,5.44 -0.73,2.84 -1.07,3.5 -7.68,-3.73 -1.79,-5.63 -1.76,-5.68 3.92,1.74 1.17,-1.53 2.83,2.18zm-28.42 -15.83c5.24,-1.34 1.16,-2.33 4.69,2.08 -1.15,1.6 -0.83,3.75 -4.11,2.61 -5.34,-1.86 -0.63,-4.57 -0.58,-4.69zm104.05 3.25c-4.25,-1.07 -5.06,1.9 -4.84,-6.2l5.88 0.1 -1.04 6.1zm12.35 -1.54c-4.25,-1.07 -5.06,1.9 -4.84,-6.2l5.88 0.1 -1.04 6.1zm-29.8 -2.5c-5.04,1.17 -1.45,-0.23 -2.98,-0.99 2.64,-2.69 -4.58,-1.65 3.25,-3.28 5.16,-1.07 3.17,1.31 3.5,1.52 -2.41,2.63 3.63,1.04 -3.77,2.75zm-25.42 -13.67c-5.04,1.16 -1.45,-0.24 -2.99,-1 2.65,-2.69 -4.57,-1.64 3.26,-3.27 5.16,-1.07 3.17,1.31 3.5,1.51 -2.41,2.63 3.62,1.05 -3.77,2.76zm9.37 17.2c-5.04,1.17 -1.45,-0.24 -2.99,-1 2.64,-2.68 -4.57,-1.64 3.26,-3.27 5.15,-1.07 3.16,1.31 3.5,1.51 -2.41,2.63 3.62,1.05 -3.77,2.76zm30.65 -10.98c-4.25,-1.07 -5.06,1.9 -4.84,-6.2l5.89 0.1 -1.05 6.1zm-64.58 -2.14c-6.74,5.55 -3.98,3.07 -6.75,-1.76 0.4,-0.2 -2.25,-2.95 4.6,-0.98 4.38,1.26 0.71,-0.19 2.15,2.74zm-27.11 7.08c-5.04,1.16 -1.45,-0.24 -2.99,-1 2.64,-2.69 -4.57,-1.65 3.26,-3.27 5.15,-1.07 3.16,1.31 3.5,1.51 -2.41,2.63 3.62,1.05 -3.77,2.76zm26.25 2.29c-6.74,5.55 -3.98,3.07 -6.75,-1.76 0.4,-0.2 -2.25,-2.95 4.6,-0.98 4.39,1.26 0.71,-0.19 2.15,2.74zm13.09 3.3c-4.25,-1.07 -5.06,1.9 -4.84,-6.2l5.88 0.1 -1.04 6.1zm-182.33 173.2c-1.07,-4.25 1.9,-5.06 -6.2,-4.84l0.1 5.88 6.1 -1.04zm-3.3 -13.09c5.55,-6.74 3.07,-3.98 -1.76,-6.75 -0.2,0.4 -2.95,-2.25 -0.98,4.61 1.26,4.38 -0.19,0.71 2.74,2.14zm1 -19.33c1.17,-5.04 -0.24,-1.45 -1,-2.98 -2.68,2.64 -1.64,-4.58 -3.27,3.25 -1.07,5.16 1.31,3.17 1.51,3.5 2.63,-2.41 1.05,3.63 2.76,-3.77zm-10.37 20.19c5.55,-6.74 3.07,-3.98 -1.76,-6.75 -0.2,0.4 -2.95,-2.25 -0.98,4.6 1.25,4.39 -0.19,0.71 2.74,2.15zm2.14 64.58c-1.07,-4.24 1.9,-5.06 -6.2,-4.83l0.1 5.88 6.1 -1.05zm10.98 -30.65c1.17,-5.04 -0.24,-1.45 -1,-2.99 -2.68,2.65 -1.64,-4.57 -3.27,3.26 -1.07,5.15 1.31,3.17 1.51,3.5 2.63,-2.41 1.05,3.62 2.76,-3.77zm-17.2 -9.37c1.16,-5.04 -0.24,-1.45 -1,-2.98 -2.69,2.64 -1.64,-4.58 -3.27,3.25 -1.07,5.16 1.31,3.17 1.51,3.5 2.63,-2.4 1.05,3.63 2.76,-3.77zm13.67 25.42c1.17,-5.03 -0.23,-1.44 -0.99,-2.98 -2.69,2.64 -1.65,-4.58 -3.28,3.25 -1.07,5.16 1.31,3.17 1.52,3.5 2.62,-2.4 1.04,3.63 2.75,-3.77zm2.5 29.8c-1.07,-4.25 1.9,-5.06 -6.2,-4.84l0.1 5.88 6.1 -1.04zm1.54 -12.35c-1.07,-4.25 1.9,-5.06 -6.2,-4.84l0.1 5.88 6.1 -1.04zm-17.83 63.01c-1.34,5.24 -2.32,1.15 2.08,4.68 1.6,-1.15 3.75,-0.82 2.61,-4.1 -1.86,-5.34 -4.57,-0.63 -4.69,-0.58zm18.78 4.88c5.44,2.42 2.85,-0.73 3.5,-1.07 -3.72,-7.67 -5.63,-1.79 -5.67,-1.76 1.73,3.92 -1.54,1.17 2.17,2.83zm-7.04 28.94c3.25,3.68 -1.51,1.46 5.29,4.89l0.08 -6.26 -5.37 1.37zm6.78 -58.4c7.44,5 6.02,0.14 6.21,0 -1.82,-1.35 0.1,-1.13 -3.27,-1.39 -6.45,-0.5 -1.02,-0.06 -2.94,1.39zm-14.92 -17.91c3.24,3.68 -1.51,1.46 5.29,4.9l0.08 -6.26 -5.37 1.36zm2.87 21.63c7.44,4.99 6.03,0.13 6.22,0 -1.82,-1.36 0.1,-1.14 -3.27,-1.4 -6.45,-0.49 -1.02,-0.05 -2.95,1.4zm11.1 -11.56c5.44,2.42 2.85,-0.73 3.5,-1.07 -3.72,-7.68 -5.63,-1.79 -5.68,-1.76 1.74,3.92 -1.53,1.17 2.18,2.83zm-7.12 29.72c5.44,2.42 2.85,-0.73 3.5,-1.07 -3.72,-7.68 -5.63,-1.79 -5.67,-1.76 1.73,3.92 -1.54,1.17 2.17,2.83zm-8.45 -28.44c-1.34,5.23 -2.32,1.15 2.08,4.68 1.6,-1.15 3.76,-0.83 2.61,-4.11 -1.85,-5.33 -4.57,-0.63 -4.69,-0.57zm5.67 -61.98c1.17,-5.03 -0.24,-1.45 -1,-2.98 -2.68,2.64 -1.64,-4.58 -3.27,3.25 -1.07,5.16 1.31,3.17 1.51,3.5 2.63,-2.4 1.05,3.63 2.76,-3.77zm-4.32 39.43c1.16,-5.04 -0.24,-1.45 -1,-2.98 -2.69,2.64 -1.64,-4.58 -3.27,3.25 -1.07,5.16 1.31,3.17 1.51,3.5 2.63,-2.41 1.05,3.63 2.76,-3.77zm9.19 67.13c5.44,2.42 2.84,-0.73 3.49,-1.07 -3.72,-7.67 -5.63,-1.79 -5.67,-1.76 1.73,3.92 -1.54,1.17 2.18,2.83zm2.49 12.79c5.44,2.43 2.84,-0.73 3.49,-1.07 -3.72,-7.67 -5.62,-1.78 -5.67,-1.76 1.74,3.92 -1.54,1.18 2.18,2.83zm-16.67 -110.37c-1.07,-4.25 1.9,-5.06 -6.2,-4.83l0.1 5.88 6.1 -1.05zm-1.63 46.77c5.44,2.43 2.84,-0.73 3.49,-1.07 -3.72,-7.67 -5.62,-1.78 -5.67,-1.75 1.74,3.91 -1.54,1.17 2.18,2.82zm4.42 25.53c5.45,2.42 2.85,-0.74 3.5,-1.08 -3.72,-7.67 -5.63,-1.78 -5.67,-1.75 1.73,3.92 -1.54,1.17 2.17,2.83zm15.63 -0.26c5.44,2.42 2.84,-0.74 3.5,-1.08 -3.73,-7.67 -5.63,-1.78 -5.68,-1.75 1.74,3.91 -1.53,1.17 2.18,2.83zm-6.51 -94.28c5.44,2.43 2.84,-0.73 3.49,-1.07 -3.72,-7.67 -5.62,-1.78 -5.67,-1.75 1.74,3.91 -1.54,1.17 2.18,2.82zm-11.2 -12.23c5.44,2.42 2.84,-0.73 3.5,-1.07 -3.73,-7.68 -5.63,-1.79 -5.68,-1.76 1.74,3.92 -1.54,1.17 2.18,2.83zm-5.3 52.52c5.44,2.43 2.85,-0.73 3.5,-1.07 -3.72,-7.67 -5.63,-1.78 -5.68,-1.75 1.74,3.91 -1.53,1.17 2.18,2.82zm502.73 4.23c-5.44,-2.42 -2.84,0.73 -3.49,1.07 3.72,7.68 5.62,1.79 5.67,1.76 -1.74,-3.92 1.54,-1.17 -2.18,-2.83zm-5.29 52.53c-5.44,-2.43 -2.85,0.73 -3.5,1.07 3.72,7.67 5.63,1.78 5.67,1.75 -1.73,-3.91 1.54,-1.17 -2.17,-2.82zm-11.2 -12.24c-5.44,-2.42 -2.85,0.73 -3.5,1.07 3.72,7.68 5.63,1.79 5.67,1.76 -1.73,-3.92 1.54,-1.17 -2.17,-2.83zm-6.51 -94.27c-5.45,-2.42 -2.85,0.73 -3.5,1.07 3.72,7.67 5.63,1.79 5.67,1.76 -1.73,-3.92 1.54,-1.17 -2.17,-2.83zm15.62 -0.26c-5.44,-2.42 -2.84,0.73 -3.5,1.07 3.73,7.67 5.63,1.78 5.68,1.76 -1.74,-3.92 1.53,-1.18 -2.18,-2.83zm4.43 25.52c-5.44,-2.42 -2.85,0.73 -3.5,1.07 3.72,7.67 5.63,1.79 5.68,1.76 -1.74,-3.92 1.53,-1.17 -2.18,-2.83zm-1.64 46.77c1.07,4.25 -1.9,5.06 6.2,4.84l-0.1 -5.88 -6.1 1.04zm-16.66 -110.37c-5.44,-2.42 -2.85,0.73 -3.5,1.07 3.72,7.68 5.63,1.79 5.67,1.76 -1.73,-3.92 1.54,-1.17 -2.17,-2.83zm2.49 12.79c-5.44,-2.42 -2.85,0.73 -3.5,1.07 3.72,7.68 5.63,1.79 5.68,1.76 -1.74,-3.92 1.53,-1.17 -2.18,-2.83zm9.19 67.13c-1.17,5.04 0.24,1.45 0.99,2.99 2.69,-2.64 1.65,4.57 3.28,-3.26 1.07,-5.15 -1.31,-3.16 -1.51,-3.5 -2.63,2.41 -1.05,-3.62 -2.76,3.77zm-4.33 39.43c-1.16,5.04 0.24,1.45 1,2.99 2.69,-2.65 1.65,4.57 3.27,-3.26 1.08,-5.15 -1.3,-3.17 -1.51,-3.5 -2.63,2.41 -1.04,-3.62 -2.76,3.77zm5.68 -61.97c1.33,-5.24 2.32,-1.16 -2.09,-4.69 -1.6,1.15 -3.75,0.83 -2.61,4.11 1.86,5.34 4.57,0.63 4.7,0.58zm-8.46 -28.44c-5.44,-2.43 -2.84,0.73 -3.49,1.07 3.72,7.67 5.62,1.78 5.67,1.75 -1.74,-3.91 1.54,-1.17 -2.18,-2.82zm3.98 18.16c-7.44,-5 -6.02,-0.14 -6.21,0 1.81,1.35 -0.1,1.13 3.26,1.39 6.46,0.5 1.03,0.05 2.95,-1.39zm-10.1 -57.29c1.34,-5.24 2.32,-1.15 -2.08,-4.68 -1.6,1.15 -3.75,0.82 -2.61,4.1 1.85,5.34 4.57,0.63 4.69,0.58zm-1.25 99.43c1.07,4.25 -1.9,5.07 6.2,4.84l-0.1 -5.88 -6.1 1.04zm0.25 -30.59c-5.44,-2.42 -2.84,0.73 -3.49,1.07 3.72,7.68 5.62,1.79 5.67,1.76 -1.74,-3.92 1.54,-1.17 -2.18,-2.83zm13.97 10.07c-3.24,-3.68 1.51,-1.46 -5.29,-4.89l-0.07 6.26 5.36 -1.37zm-14.91 -17.91c-7.44,-4.99 -6.03,-0.13 -6.22,0 1.82,1.36 -0.09,1.14 3.27,1.39 6.45,0.5 1.02,0.06 2.95,-1.39zm15.99 -26.94c-3.25,-3.68 1.5,-1.47 -5.3,-4.9l-0.07 6.26 5.37 -1.36zm-16.37 1.65c-5.44,-2.42 -2.84,0.73 -3.49,1.07 3.72,7.67 5.63,1.78 5.67,1.76 -1.74,-3.92 1.54,-1.18 -2.18,-2.83zm2.61 51.37c1.07,4.25 -1.9,5.06 6.2,4.84l-0.1 -5.88 -6.1 1.04zm2.49 29.8c-1.16,5.04 0.24,1.45 1,2.99 2.69,-2.65 1.64,4.57 3.27,-3.26 1.07,-5.15 -1.31,-3.17 -1.51,-3.5 -2.63,2.41 -1.05,-3.62 -2.76,3.77zm13.68 25.42c-1.17,5.04 0.24,1.45 0.99,2.99 2.69,-2.65 1.65,4.57 3.28,-3.26 1.07,-5.15 -1.31,-3.16 -1.51,-3.5 -2.63,2.41 -1.05,-3.62 -2.76,3.77zm-17.2 -9.37c-1.17,5.04 0.23,1.45 0.99,2.99 2.69,-2.64 1.65,4.58 3.27,-3.26 1.08,-5.15 -1.3,-3.16 -1.51,-3.49 -2.63,2.4 -1.04,-3.63 -2.75,3.76zm10.97 -30.65c1.08,4.25 -1.89,5.06 6.21,4.84l-0.1 -5.88 -6.11 1.04zm2.14 64.58c-5.55,6.74 -3.07,3.99 1.76,6.76 0.2,-0.4 2.95,2.24 0.99,-4.61 -1.26,-4.38 0.19,-0.71 -2.75,-2.15zm-10.36 20.19c-1.17,5.04 0.23,1.45 0.99,2.99 2.69,-2.64 1.65,4.57 3.28,-3.26 1.07,-5.15 -1.31,-3.16 -1.52,-3.5 -2.63,2.41 -1.04,-3.62 -2.75,3.77zm0.99 -19.33c-5.55,6.74 -3.07,3.98 1.76,6.75 0.2,-0.39 2.95,2.25 0.99,-4.6 -1.26,-4.38 0.19,-0.71 -2.75,-2.15zm-3.3 -13.09c1.07,4.25 -1.9,5.07 6.2,4.84l-0.1 -5.88 -6.1 1.04zm-287.29 180.58c-6.74,-5.55 -3.98,-3.07 -6.75,1.76 0.4,0.2 -2.25,2.95 4.6,0.99 4.39,-1.26 0.71,0.19 2.15,-2.75zm-19.33 -0.99c-5.04,-1.17 -1.45,0.23 -2.99,0.99 2.65,2.69 -4.57,1.65 3.26,3.28 5.15,1.07 3.17,-1.31 3.5,-1.52 -2.41,-2.63 3.62,-1.04 -3.77,-2.75zm20.19 10.36c-6.74,-5.55 -3.98,-3.07 -6.75,1.76 0.4,0.2 -2.25,2.95 4.6,0.99 4.38,-1.26 0.71,0.19 2.15,-2.75zm64.58 -2.14c-4.25,1.08 -5.06,-1.89 -4.84,6.21l5.89 -0.11 -1.05 -6.1zm-30.65 -10.98c-5.04,-1.16 -1.45,0.24 -2.99,1 2.64,2.69 -4.57,1.65 3.26,3.27 5.15,1.08 3.16,-1.3 3.5,-1.51 -2.41,-2.63 3.62,-1.04 -3.77,-2.76zm-9.37 17.21c-5.04,-1.17 -1.45,0.24 -2.99,0.99 2.65,2.69 -4.57,1.65 3.26,3.28 5.16,1.07 3.17,-1.31 3.5,-1.51 -2.41,-2.63 3.62,-1.05 -3.77,-2.76zm25.42 -13.68c-5.04,-1.17 -1.45,0.24 -2.98,1 2.64,2.69 -4.58,1.64 3.25,3.27 5.16,1.07 3.17,-1.31 3.5,-1.51 -2.41,-2.63 3.63,-1.05 -3.77,-2.76zm29.8 -2.49c-4.25,1.07 -5.06,-1.9 -4.84,6.2l5.88 -0.1 -1.04 -6.1zm-12.35 -1.54c-4.25,1.07 -5.06,-1.9 -4.84,6.2l5.88 -0.1 -1.04 -6.1zm45.34 -26.16c5.24,1.34 1.16,2.32 4.69,-2.08 -1.15,-1.6 -0.83,-3.76 -4.11,-2.61 -5.34,1.85 -0.63,4.57 -0.58,4.69zm1.19 9.7c2.42,-5.44 -0.73,-2.85 -1.07,-3.5 -7.68,3.72 -1.79,5.63 -1.76,5.67 3.92,-1.73 1.17,1.54 2.83,-2.17zm5.97 12.04c3.68,-3.24 1.46,1.51 4.89,-5.29l-6.26 -0.07 1.37 5.36zm-14.07 3.73c4.99,-7.44 0.14,-6.03 0,-6.22 -1.36,1.82 -1.14,-0.09 -1.39,3.27 -0.5,6.45 -0.06,1.02 1.39,2.95zm-17.91 14.91c3.68,-3.24 1.46,1.51 4.89,-5.29l-6.25 -0.07 1.36 5.36zm21.62 -2.87c5,-7.44 0.14,-6.02 0,-6.22 -1.35,1.82 -1.13,-0.09 -1.39,3.27 -0.5,6.46 -0.05,1.03 1.39,2.95zm-11.55 -11.1c2.42,-5.44 -0.73,-2.84 -1.07,-3.49 -7.68,3.72 -1.79,5.62 -1.76,5.67 3.92,-1.74 1.17,1.54 2.83,-2.18zm29.72 7.12c2.42,-5.44 -0.74,-2.84 -1.08,-3.49 -7.67,3.72 -1.78,5.62 -1.75,5.67 3.91,-1.74 1.17,1.54 2.83,-2.18zm-28.45 8.45c5.24,1.34 1.16,2.33 4.69,-2.08 -1.15,-1.6 -0.83,-3.75 -4.11,-2.61 -5.34,1.86 -0.63,4.57 -0.58,4.69zm-61.97 -5.67c-5.04,-1.16 -1.45,0.24 -2.98,1 2.64,2.69 -4.58,1.65 3.25,3.27 5.16,1.08 3.17,-1.3 3.5,-1.51 -2.41,-2.63 3.62,-1.04 -3.77,-2.76zm39.43 4.33c-5.04,-1.17 -1.45,0.23 -2.99,0.99 2.65,2.69 -4.57,1.65 3.26,3.28 5.15,1.07 3.17,-1.31 3.5,-1.51 -2.41,-2.63 3.62,-1.05 -3.77,-2.76zm67.13 -9.19c2.42,-5.44 -0.73,-2.85 -1.07,-3.5 -7.68,3.72 -1.79,5.63 -1.76,5.68 3.92,-1.74 1.17,1.53 2.83,-2.18zm12.79 -2.49c2.42,-5.44 -0.73,-2.85 -1.07,-3.5 -7.68,3.72 -1.79,5.63 -1.76,5.67 3.92,-1.73 1.17,1.54 2.83,-2.17zm-110.37 16.66c-4.25,1.07 -5.06,-1.9 -4.84,6.2l5.88 -0.1 -1.04 -6.1zm46.77 1.64c2.43,-5.44 -0.73,-2.85 -1.07,-3.5 -7.67,3.72 -1.78,5.63 -1.75,5.68 3.91,-1.74 1.17,1.53 2.82,-2.18zm25.52 -4.43c2.43,-5.44 -0.73,-2.84 -1.07,-3.5 -7.67,3.73 -1.78,5.63 -1.75,5.68 3.91,-1.74 1.17,1.53 2.82,-2.18zm-0.26 -15.62c2.43,-5.45 -0.73,-2.85 -1.07,-3.5 -7.67,3.72 -1.78,5.63 -1.75,5.67 3.91,-1.73 1.17,1.54 2.82,-2.17zm-94.27 6.51c2.42,-5.44 -0.73,-2.85 -1.07,-3.5 -7.67,3.72 -1.79,5.63 -1.76,5.67 3.92,-1.73 1.17,1.54 2.83,-2.17zm-12.23 11.2c2.42,-5.44 -0.74,-2.85 -1.08,-3.5 -7.67,3.72 -1.78,5.63 -1.75,5.67 3.91,-1.73 1.17,1.54 2.83,-2.17zm52.52 5.29c2.42,-5.44 -0.73,-2.84 -1.07,-3.49 -7.68,3.72 -1.79,5.62 -1.76,5.67 3.92,-1.74 1.17,1.54 2.83,-2.18z"/>
  </g>
 </g>
</svg>
