<?xml version="1.0" encoding="UTF-8"?>
<!DOCTYPE svg PUBLIC "-//W3C//DTD SVG 1.1//EN" "http://www.w3.org/Graphics/SVG/1.1/DTD/svg11.dtd">
<!-- Creator: CorelDRAW 2020 (64 Bit) -->
<svg xmlns="http://www.w3.org/2000/svg" xml:space="preserve" width="512px" height="512px" version="1.1" style="shape-rendering:geometricPrecision; text-rendering:geometricPrecision; image-rendering:optimizeQuality; fill-rule:evenodd; clip-rule:evenodd"
viewBox="0 0 512 512"
 xmlns:xlink="http://www.w3.org/1999/xlink"
 xmlns:xodm="http://www.corel.com/coreldraw/odm/2003">
 <defs>
  <style type="text/css">
   <![CDATA[
    .fil1 {fill:black}
    .fil0 {fill:#B8B87B}
   ]]>
  </style>
 </defs>
 <g id="Camada_x0020_1">
  <metadata id="CorelCorpID_0Corel-Layer"/>
  <path class="fil0" d="M185.77 37.86c-8.16,-0.01 -43.1,-1.6 -47.55,0.54 0.4,3.16 4.41,5 6.92,6.72l23.85 16.58c1.56,2.63 0.82,46.79 0.83,53.78 0.02,18.15 -0.24,36.24 -0.36,54.39 -0.12,17.08 0.42,36.81 -0.66,53.37 -1.11,17.02 -0.27,36.51 -0.64,53.95l-1.16 80.09c-0.14,7.09 1.31,15.23 -2.89,18.02 -2.66,1.76 -2.07,0.43 -5.07,1.57l-28.56 18.49c-3.11,1.81 -2.58,0.84 -3.66,3.55 8.33,2.99 41.45,0.99 53.81,0.88l53.34 0.53c-0.15,-2.57 -4.06,-4.38 -8.57,-7.67l-29.42 -21.08c-0.36,-7.49 -0.12,-17.28 0.74,-24.45 0.88,-7.28 0.46,-16.29 0.63,-24.36 0.71,-35.3 -4.11,-17.44 18.92,-55.48l18.6 -30.65c5.03,-9.32 5.39,-13 11.46,-13.14 3.85,3.91 6.36,11.03 9.15,17.82 12.83,31.27 27.2,62.57 40.07,94.4 2.72,6.71 5.2,12.7 7.98,19.25l8.26 18.52c-0.47,2.15 -32.42,19.93 -35.69,25.72 1.84,0.8 65.26,0.11 76.53,0.59 4.9,0.21 21.41,1.75 23.57,0.94 -1.09,-3.01 -16.47,-14.51 -20.04,-16.82 -18.53,-12.01 -18.08,-27.88 -26.74,-46.76 -2.05,-4.48 -3.41,-8.26 -5.42,-12.97l-49.62 -114.3c-11.92,-27.77 -11.72,-19.77 -0.93,-37.62 2.61,-4.32 4.24,-7.36 6.9,-11.44l55.23 -91.05c3.77,-6.38 2.82,-5.16 9.41,-8.98l24.77 -12c2.2,-1.5 2.89,-2.64 4.67,-4.17 2.19,-1.87 3.48,-1.88 1.54,-5.59 -4.57,-1.34 -38.03,-0.96 -45.39,-1 -3.6,-0.01 -42.77,-1.32 -45.87,1 -0.17,3.99 2.48,5.05 4.64,6.7 1.9,1.44 4.27,3.4 5.61,4.68 2.92,2.78 8.36,6.47 10.26,10.34 3.09,6.29 -1.59,11.13 -4.11,14.96 -2.64,4.03 -4.96,8.79 -7.45,13.15 -8.99,15.71 -20.9,32.28 -31.88,51.17l-59.18 96.65c-1.96,4.49 0.53,6.28 -3.6,6.75 -1.9,-2.8 -0.25,-23.27 -0.23,-28.72l0.36 -88.94c0.15,-19.57 1.24,-38.16 1.45,-58.07 0.06,-6.25 1.91,-5.66 5.79,-8.87 5.24,-4.34 23.27,-13.02 25.82,-18.33 -5.06,-4.62 -36.97,-2.62 -46.42,-2.64z"/>
  <path class="fil1" d="M138.22 38.4c4.45,-2.14 39.39,-0.55 47.55,-0.54 9.45,0.02 41.36,-1.98 46.42,2.64 -2.55,5.31 -20.58,13.99 -25.82,18.33 -3.88,3.21 -5.73,2.62 -5.79,8.87 -0.21,19.91 -1.3,38.5 -1.45,58.07l-0.36 88.94c-0.02,5.45 -1.67,25.92 0.23,28.72 4.13,-0.47 1.64,-2.26 3.6,-6.75l59.18 -96.65c10.98,-18.89 22.89,-35.46 31.88,-51.17 2.49,-4.36 4.81,-9.12 7.45,-13.15 2.52,-3.83 7.2,-8.67 4.11,-14.96 -1.9,-3.87 -7.34,-7.56 -10.26,-10.34 -1.34,-1.28 -3.71,-3.24 -5.61,-4.68 -2.16,-1.65 -4.81,-2.71 -4.64,-6.7 3.1,-2.32 42.27,-1.01 45.87,-1 7.36,0.04 40.82,-0.34 45.39,1 1.94,3.71 0.65,3.72 -1.54,5.59 -1.78,1.53 -2.47,2.67 -4.67,4.17l-24.77 12c-6.59,3.82 -5.64,2.6 -9.41,8.98l-55.23 91.05c-2.66,4.08 -4.29,7.12 -6.9,11.44 -10.79,17.85 -10.99,9.85 0.93,37.62l49.62 114.3c2.01,4.71 3.37,8.49 5.42,12.97 8.66,18.88 8.21,34.75 26.74,46.76 3.57,2.31 18.95,13.81 20.04,16.82 -2.16,0.81 -18.67,-0.73 -23.57,-0.94 -11.27,-0.48 -74.69,0.21 -76.53,-0.59 3.27,-5.79 35.22,-23.57 35.69,-25.72l-8.26 -18.52c-2.78,-6.55 -5.26,-12.54 -7.98,-19.25 -12.87,-31.83 -27.24,-63.13 -40.07,-94.4 -2.79,-6.79 -5.3,-13.91 -9.15,-17.82 -6.07,0.14 -6.43,3.82 -11.46,13.14l-18.6 30.65c-23.03,38.04 -18.21,20.18 -18.92,55.48 -0.17,8.07 0.25,17.08 -0.63,24.36 -0.86,7.17 -1.1,16.96 -0.74,24.45l29.42 21.08c4.51,3.29 8.42,5.1 8.57,7.67l-53.34 -0.53c-12.36,0.11 -45.48,2.11 -53.81,-0.88 1.08,-2.71 0.55,-1.74 3.66,-3.55l28.56 -18.49c3,-1.14 2.41,0.19 5.07,-1.57 4.2,-2.79 2.75,-10.93 2.89,-18.02l1.16 -80.09c0.37,-17.44 -0.47,-36.93 0.64,-53.95 1.08,-16.56 0.54,-36.29 0.66,-53.37 0.12,-18.15 0.38,-36.24 0.36,-54.39 -0.01,-6.99 0.73,-51.15 -0.83,-53.78l-23.85 -16.58c-2.51,-1.72 -6.52,-3.56 -6.92,-6.72zm-37.05 178.7c3.07,1.22 10.2,1.75 13.43,-0.19 -0.48,-1.74 1.67,-1.55 -2.32,-2.1l-8.81 0.03c-2.62,0.5 -1.67,0.48 -2.3,2.26zm163.25 118.89c-0.28,-4.7 -1.49,-1.77 -5.71,-4.6 -8.83,-5.91 -7.79,-19.05 -2.37,-21.19 3.83,2.94 3.88,10.21 10.79,6.16l0.23 -3.16c0.15,-4.12 -4.61,-7.88 -10.91,-6.49 -7.97,1.76 -9.32,17.46 -2.16,24.71 2.4,2.43 5.52,4.57 10.13,4.57zm42.83 105.66c-13.94,-9.78 -11.09,-16.85 -15.9,-15.51 -2,2.75 9.89,14.2 11.84,15.88 3.96,3.42 11.81,8.64 19.3,8.64l0.74 0c16.38,0.01 11.2,-21.59 -1.5,-16.21 -2.68,1.13 -2.7,1.23 -2.92,3.8 6.33,-0.69 6.85,-4.69 11.87,1.38 1.19,3.42 -1.58,7.28 -5.28,8.07 -6.73,1.45 -12.96,-2.41 -18.15,-6.05zm-191.05 -212.71c2.37,-3.41 8.21,-8.22 8.84,-10.96 1.04,-4.5 -5.53,-9.93 -7.65,-12.08 -7.32,-7.4 -2.4,-10.76 -7.49,-12.49 -3.97,10.17 10.4,17.96 11.96,23.5 -1.31,2.91 -2.62,3.04 -4.52,5.06 -1.59,1.68 -2.57,3.39 -4.07,5.51 -0.91,1.27 -6.73,5.61 -6.33,10.69 0.11,1.48 0.64,3.06 2.78,2.03 0.33,-0.16 0.86,-0.97 1.02,-1.25 1.86,-3.23 -0.91,-0.81 5.46,-10.01zm168.07 198.19c-3.3,-4.92 -3.83,-6.43 -6.44,-5.05 3.41,9.33 11.05,8.42 11.63,38.13 0.2,10.46 0.89,14.34 -4.55,20.51 -4.06,4.59 -9.56,7.13 -18.64,6.69 -1.22,-2.03 0.13,-0.64 -1.85,-1.88 -0.47,-11.13 4.03,-5 5.74,-9.88 -2.59,-1.98 -9.06,0.54 -8.74,7.36 0.13,2.86 1.36,4.41 3.01,5.83 5.09,4.43 18.12,-0.31 23.81,-7.7 4.64,-6.02 4.55,-12.52 4,-22.43 -0.36,-6.5 -1.48,-17.81 -3.48,-22.86 -1.09,-2.75 -3,-6.5 -4.49,-8.72zm106.58 1.38c3.18,0.09 3.64,-0.39 5.4,-2.11 -0.24,-5.76 -1.31,-7.38 -6.1,-8.83 -6.16,-1.86 -34.58,-1.14 -41.93,-1.08 -18.84,0.16 -37.78,0.53 -56.62,0.28 -7.76,-0.1 -7.59,3.54 -0.76,3.53 17.56,-0.02 92.91,-1.19 98.25,0.48 0.38,4.87 -1.77,4.71 1.76,7.73zm-244.03 -12.16c-2.7,0.01 -5.43,-0.03 -8.12,0.02 -3.38,0.05 -4.67,-0.41 -4.8,2.68 3.01,1.99 48.25,0.8 55.55,0.71 9.31,-0.11 18.62,-0.2 27.93,-0.23 7.24,-0.02 20.95,-1.2 25.99,2.46 -0.96,2.88 -3.98,5.62 -1.63,8.7 1.57,2.05 10.64,3.94 7.06,-7.8 -1.9,-6.23 -12.38,-6.62 -18.19,-6.64l-83.79 0.1zm91.86 -260.91c1,-11.97 -4.37,-29.82 -7.21,-40.85 -4.3,-16.66 1.27,-28.53 10.73,-35.28 15.79,-11.25 28.83,5.03 22.61,15.98 -4.15,7.3 -11.98,5.59 -15.51,1.5 -7.06,-8.19 3.21,-11.05 4.61,-13.52 -6.81,-3.73 -18.9,13.4 2.18,19.87 -1.55,2.47 -2.79,2.96 -4.67,5.23 -1.74,2.1 -2.37,3.45 -3.45,6.14 -3.05,7.62 -1.39,9.28 1.76,14.19 4.83,0.04 5.1,-0.04 7.22,-2.82 -1.93,-3.49 -4.47,-2.99 -7.06,-5.38 -1.37,-2.93 2.15,-8.56 4.2,-10.93 7.39,-8.57 14.75,-9.43 14.75,-19.08 0,-5.9 -0.69,-9.05 -4.62,-13.02 -13.19,-13.32 -36.55,3.75 -36.55,22.57 0,22.5 9.08,39.01 8.7,50.88 -17.1,-0.65 -8.28,9.78 -3.56,9.1 2.97,-1.25 3.8,-2.66 5.87,-4.58zm3.88 146.94c-24.47,27.38 -16.31,79.02 24.1,77.75 5.33,-0.16 9.75,-3.39 12.32,-6.06 19.09,-19.79 -9.72,-44.88 -22.41,-28.26 -8.77,11.49 2.56,20.56 11.34,12.95 0.56,-6.85 -6.24,-6.54 -11.74,-4.86 4.1,-18.55 25.63,-9.98 26.08,4.11 0.83,26.14 -35.69,25.37 -46.94,0.5 -3.23,-7.13 -5,-20.94 -2.65,-30.05 7.48,-29.02 21.61,-26.19 21.44,-46.14 -0.11,-14.27 -17.54,-9.8 -10.42,-0.72 8.38,0.61 9.67,-0.16 6.05,9.55 -1.67,4.49 -4.23,7.94 -7.17,11.23zm5.69 146.81c-1.29,4.19 -6.54,9.15 -9.37,11.94 -2.42,2.4 -6.96,8.17 -11.81,-1.05 -7.61,-14.49 16.83,-19.17 21.18,-10.89zm4.92 9.97c2.46,-3.36 0.06,-5.56 -0.46,-8.7 -0.51,-3.15 -0.03,-2.68 0.95,-4.67 6.45,-13.18 8.42,-26.16 4.98,-40.77 -2.29,-9.7 -3.88,-9.89 -5.91,-15.49 13.06,9.35 19.71,31.26 19.14,47.92 -0.47,13.89 -9.76,28.13 -19.41,30.62 -4.44,1.15 -10.95,0.83 -14.95,-0.8 0.23,-1.36 11.91,-13.97 13.65,-14.67 0.04,3.81 -0.95,5.61 2.01,6.56zm-8.55 -79.83c-1.61,-1.65 -2.38,-3.31 -5.02,-3.47 -0.56,2.96 0.44,2.79 2,4.27l7.84 9.78c1.82,3.03 2.52,4.43 3.96,7.83 1.46,3.45 1.7,5.28 2.72,9.03 1.59,5.86 2.06,15.98 0.54,22.19 -0.78,3.19 -1.65,6.27 -2.57,9.16l-3.63 7.97c-4.14,-1.27 -5.6,-4.29 -12.52,-3.68 -9.6,0.84 -17.61,6.45 -14.23,16.64 1.47,4.42 4.08,6.08 6.88,8.51l-8.52 4.68c-2.37,1.02 -7.12,2.8 -9.92,3.28 -13.33,2.26 -37.03,-3.02 -32.87,-19.61 1.68,-6.76 14.54,-9.17 13.11,2.1 -5.48,0.81 -4.25,2.15 -4.4,3.73 6.31,-0.38 7.61,-2.42 7.28,-8.88 -2.42,-2.88 -6.69,-7.91 -13.13,-4.36 -4.23,2.33 -6.11,5.73 -5.96,12.48 0.31,14.11 26.86,25.08 50.93,11.91 7.02,-3.84 4.2,-3.99 12.67,-2.04 25.27,5.81 41.79,-24.28 32.35,-54.35 -3.82,-12.15 -8.41,-21.75 -17.19,-29.13 -6.53,-5.47 -0.5,1.97 -10.32,-8.04zm-90.58 -308.53c2.88,7.38 2.98,9.38 2.97,18.22 -0.22,73.4 0.69,156.37 -1.72,229.32 -0.57,17.36 1.89,41 -9.94,49.13 -2.43,-0.93 -4.66,-3.49 -7.34,-3.47 -7.18,0.05 -6.86,12.52 5.39,8.21 13.79,-4.86 14.18,-22.14 14.42,-33.28 0.45,-20.87 1.38,-41.34 1.61,-62.48l0.99 -152.89c0.01,-15.73 1.7,-41.55 -3.87,-53.83 -1.42,-3.14 -2.53,-4.77 -5.35,-7.1 -3.05,-2.53 -5.35,-1.55 -10.4,-1.51 -3.59,3.71 -2.81,1.6 -2.82,8.98l4.99 0.32c0,-0.01 6.25,-11.95 11.07,0.38zm211.07 301.06c-7.8,-14.06 -30.52,-65.51 -37.38,-82.22 -11.67,-28.43 -22.35,-56.65 -34.39,-84.73 -5.8,-13.54 -8.77,-12.91 -3.63,-21.53 15.27,-25.64 28.61,-49.03 45.09,-74.71 9.01,-14.04 13.76,-24.08 26.65,-32.89 3.46,-2.36 14.82,-9.18 19.87,-9.63 4.49,4.95 5.54,4.17 10.29,0.37 0.29,-3.09 0.06,-5.97 -2.83,-7.22 -6,-2.59 -34.08,16.21 -37.98,20.53 -11.44,12.71 -3.88,4.38 -12.37,17.05 -4.08,6.08 -7.57,12.18 -11.45,17.95 -11.63,17.31 -27.1,44.8 -38.66,64.26 -1.69,2.84 -4.21,6.66 -5.53,9.16l22.43 54c7.47,18.05 14.54,36.02 21.65,54.07 4.39,11.14 30.93,70.28 35.93,77.99 9.78,15.1 21.92,2.69 11.16,-2.87l-8.85 0.42zm-232.12 -174.03c2.87,1.03 2.16,-0.81 5.81,1.35 5.98,3.53 9.13,11.53 8.9,19.21 -0.36,12.25 -8.21,16.29 -17.08,19.5 0.53,2.27 1.83,5.35 2.69,7.94l7.28 23.66c-15.67,3.5 -21.78,-11.14 -20.25,-25.4 1.82,-16.82 17.94,-24.2 19.27,-27.18 -1.66,-2.51 -5.58,-4.13 -10.22,-10.49 -2.37,-3.25 -5.33,-9.4 -6.24,-14.38 -2.32,-12.73 2.41,-24.17 16.63,-23.73 -2.56,10.81 -7.43,16.68 -6.79,29.52zm-4.55 24.94c-1.8,1.88 -4.02,4.6 -5.46,7.06 -6.7,11.4 -8.67,26.44 0.38,37.03 6.44,7.56 12.39,5.76 18.3,5.96 1.69,4.54 6.36,23.1 6.7,28.59 0.37,6.16 0.21,10.91 -2.07,15.7 -3.21,6.74 -7.48,5.85 -12.06,5.62 -1.43,-2.12 0.06,-0.68 -2.17,-2.04l0.17 -5.92c4.59,-3.8 5.01,-1.79 4.59,-4.7 -2.01,-0.73 -3.38,-0.01 -4.98,1.36 -7.98,6.79 1.47,19.77 12.31,12.39 13.94,-9.48 3.42,-41.14 -0.17,-52.6 3.85,-2.83 7.72,-5.39 8.41,-11.83 0.35,-3.32 -1.37,-12.42 -7.37,-13.4 0.49,4.45 11.97,15.94 -2.34,22.1 -1.5,-9.36 -5.8,-19.41 -8.32,-28.39 2.03,-1.32 4.37,-2.06 6.25,-3.3 5.93,-3.9 10.04,-10.15 10,-18.76 -0.06,-14.78 -7.34,-18.31 -14.5,-23.51 0.2,-4.92 4.77,-20.8 7.03,-24.64 7.44,1.26 7.34,7.77 5.83,15.11 3.52,0.03 3.65,-0.75 3.77,-4.4 0.37,-11 -4.23,-9.86 -8.57,-14.64 3.24,-6.71 10.5,-30.82 10.61,-39.05 0.34,-25.84 -17.39,-25.76 -23.09,-18.94 -2.35,19.36 20.89,12.2 7.67,7.26 -3.83,-1.43 -3.99,-3.33 -1.79,-7.13 13.16,-4.15 15.46,15.45 13.09,26.46 -1.69,7.9 -6.72,24.28 -9.69,31.28 -9.02,0.05 -11.31,0.83 -16.09,5.98 -8.16,8.79 -5.64,23.99 0.18,33.44 3.98,6.45 8.63,9.82 9.88,12.05 -1.87,2.34 -4.51,3.77 -6.5,5.86zm208.79 53.6c-10.55,-3.16 -14.51,-17 -7.71,-24.51 2.16,-2.38 5,-3.09 9.11,-3.24l-1.4 27.75zm5.13 -30.01c0.01,-5.44 6.5,-28.76 9.99,-34.16 0.56,-0.85 0.64,-0.83 1.01,-1.22 12.72,12.56 13.96,41.01 4.11,58.56 -3.04,5.41 -8.9,8.21 -17.42,7.68 -0.55,-8.17 0.56,-19.56 1.46,-27.58 3.4,0.72 4.73,2.22 6.24,4.5 4.05,6.1 -0.17,5.22 3.41,6.87 2.12,-0.95 1.04,1.44 1.41,-2.18 0.54,-5.47 -6.48,-10.3 -10.21,-12.47zm9.22 -41.21c-2.76,-4.72 -12.82,-9.35 -15.44,-13.25 7.89,0.08 15.26,1.96 20.46,5.17 -1.05,3.08 -2.63,6.46 -5.02,8.08zm-25.26 -16.17c-0.76,1.93 -0.31,1.32 -2.41,2.9 -0.99,0.75 -1.93,1.29 -3.17,2 -9.42,5.34 -19.59,4.16 -19.78,-4.91 -0.24,-11.66 18.18,-9.11 25.36,0.01zm18.96 -37.18c-0.01,-5.47 0.81,-16.82 2.41,-21.44 11.59,-1.84 21.89,10.32 21.36,27.01 -0.27,8.37 -5.1,30.38 -11.4,37.37 -2.35,-2.1 -7.44,-3.63 -11.5,-4.46 -5.73,-1.15 -7.95,-1.27 -14.28,-1.32 0.69,-3.01 3.06,-5.04 4.77,-7.86 6.8,-11.17 5.58,-15.8 8.95,-26.35 5.55,-2.21 11.15,-3.9 11.66,-9.97 -5.69,0.85 -2.03,4.09 -11.97,7.02zm-3.15 0.21c-15.15,-4.94 -8.91,-20.94 2.4,-21.88l-2.4 21.88zm6.16 -24.84c1.13,-8.67 10.14,-26.32 20.49,-27.89 7.68,-1.17 7.96,0.98 11.86,3.38 -0.09,6.81 0.87,5.79 -3.77,10.05l-7.74 -0.55c-0.82,3.82 2.21,3.32 5.55,3.33 11.23,0.03 13.49,-19.27 -2.95,-19.16 -15.75,0.1 -22.3,17.69 -26.45,30.91 -13.73,0.4 -23.73,21.53 -2.94,27.66 -0.34,10.55 -8.28,28.74 -13.97,31.85 -4.65,-3.31 -8.36,-7.99 -16.89,-8.13 -21.06,-0.36 -15.24,24.19 1.85,21.04 9.68,-1.79 12.22,-7.09 16.51,-8.39 3.54,2.3 7.55,5.44 11.03,8.04l8.14 6.57c1.09,1.07 0.95,1.25 1.97,2.21 -0.43,1.35 -1.25,2.94 -1.91,4.52 -6.27,14.91 -5.82,17.42 -9.97,33.4 -20.84,0.34 -19.24,24.61 -5.14,32.17 2.86,1.54 3.6,1.31 3.89,5.57 0.62,9.13 2.34,15.11 6.17,23.4l7.28 11.79c2.98,3.6 6.61,6.95 10.24,8.89 2.23,1.2 5.18,1.67 7.95,1.43 7.42,-0.67 8.84,-10.71 0.8,-10.17 -5.07,0.34 -3.02,3.26 -6.52,4.53 -8.04,2.92 -23.55,-23.57 -23.44,-43.29 6.03,-0.65 6.28,0.31 11.59,-2.33 16.24,-8.07 16.71,-37.58 12.45,-52.99 -2.1,-7.6 -6.1,-11.82 -9.89,-17.65 1.15,-1.61 1.12,-2.16 2.21,-4.04 1.2,-2.07 1.33,-2.04 1.82,-4.13 7.16,0.33 9.23,11.83 20.58,11.85 4.55,0 10.28,-0.19 10.29,-6.62 0,-4.44 -3.45,-13.37 -7.31,-8.55 3.27,2.09 4.72,4.23 4.38,10.02 -0.74,0.75 -1.29,1.29 -1.85,2.2 -7.82,0.23 -9.85,0.49 -14.41,-3.63 -11.28,-10.17 -10.04,-7.43 -5.47,-17.36 1.42,-3.08 1.86,-4.81 3.01,-8 3.97,-11.03 4.01,-14.4 4.01,-25.4 0.01,-14.05 -9.64,-26 -23.45,-26.53zm-137.84 -57.26c3.9,-4.82 10.7,-9 16.94,-12.73 4.52,-2.7 8.59,-8.14 13.48,-9.24 9.75,-2.19 -0.21,-10.68 -3.64,-13.32 -7.57,-1.07 -21.85,-0.22 -30.14,-0.19 -7.45,0.01 -72.15,-1.32 -74.08,0.37 -3.8,3.32 0.97,6.8 3.22,8.2 9.2,5.74 17.99,12.71 27.12,18.46 2.14,1.35 3.07,1.16 3.38,3.96 0.73,6.63 0.02,57.31 0.02,67.7 -0.01,19.85 -0.95,39.31 -1.11,58.8l-1.18 119.82c-0.2,13.19 0.19,48.98 -0.93,59.4 -5.55,3.09 -5.52,2.2 -11.66,6.65l-21.99 14.01c-1.75,1.08 -9.84,6.19 -10.03,7.4 0.76,3.43 5.74,8.69 8.59,10.78l115.97 -0.52c-3.02,-9.22 0.19,-7.09 -16.62,-19.2 -6.16,-4.44 -15.36,-10.46 -19.88,-15.31 -1.68,-6.68 -0.39,-36.7 -0.21,-45.58 0.15,-7.56 0.37,-15.22 0.39,-22.78 0.03,-8.62 1.67,-10.34 5.41,-16.37l26.48 -41.9c3.56,-5.89 4.95,-10.17 9.25,-13.12l2.79 6.7c0.04,1.81 -15.96,26.2 -18.1,29.78l-19.07 28.73c-1.49,3.84 -3.12,62.37 -0.26,69.92 2.7,7.14 13,9.3 11.56,0.21 -2.89,-2.73 -5.38,-1.64 -9.03,-3.41 -1.68,-8.15 -0.61,-29.76 -0.54,-39.23 0.09,-14.09 -2.37,-22.24 6.14,-33.62l15.85 -23.84c3.01,-4.82 12.69,-21.65 15.54,-24.16 3.44,9.88 9.25,21.89 13.66,31.95l39.93 94.51 -18.26 11.8c-3.18,2.03 -5.65,3.77 -8.56,6.12 -4.21,3.39 -13.95,7.29 -5.27,15.74 1.78,1.73 4.86,3.38 7.19,4.61l105.36 -1.31c0.36,-5.77 -7.62,-12.96 -11.7,-15.95 -5.03,-3.69 -11.67,-6.97 -16.18,-11.01 -3.91,-3.5 -7.07,-13.38 -9.45,-18.48 -1.14,-2.42 -1.99,-2.91 -3.06,-5.72 -1.7,-4.45 -3.56,-8.51 -5.5,-12.86 -8.85,-19.88 -23.51,-49.97 -30.98,-70.31l-13.09 -32.54c-1.54,-4.04 -3.8,-8.97 -5.45,-12.95 -1.05,-2.52 -2.26,-3.93 -3.1,-6.39l-7.49 -20.63c-1.5,-3.57 -4.7,-9.44 -5.5,-12.82 -1.11,-4.69 2.76,-9.72 4.71,-12.81 1.46,-2.32 2.57,-3.61 3.84,-5.67 1.39,-2.26 1.94,-3.31 3.33,-5.51 4.77,-7.6 9.16,-16.6 13.8,-22.89 1.7,-2.32 1.88,-4.13 3.29,-6.36 1.08,-1.7 2.34,-2.67 3.7,-5.12 10.09,-18.3 23.07,-39.33 34.7,-57.15 3.28,-5.02 4.5,-5.05 10.27,-8.07l23.58 -13.18c2.3,-1.4 3.49,-2.3 5.8,-3.76 1.09,-0.68 1.55,-0.83 2.77,-1.53 6.16,-3.57 -1.24,-10.2 -5.77,-11.83l-6 -0.67c-20.33,-0.09 -89.45,-3.15 -99.92,-0.04 -0.68,4.85 2.87,6.43 5.41,8.44l22.6 19.11c0.32,4.87 -4.12,12.31 -7.48,15.1 -7.57,-3.52 2.96,-13.16 -11.95,-19.76 -15.9,-7.03 -14.95,10.78 -7.89,9.92 4.71,-0.57 3.81,-11.52 11.4,-3.87 1.78,1.8 1.89,3.21 2.01,6.23 0.39,10.46 0.83,5.92 4.89,11.05 -1.74,4.4 -6.55,11.66 -9.28,15.64 -16.75,24.47 -30.74,50.94 -46.77,75.98 -6.27,9.8 -13.06,19.76 -18.57,30.04 -0.55,-6.45 0.83,-13.48 0.28,-20.96 -0.94,-12.78 0.05,-99.47 1.81,-104.91 0.99,-3.08 20.41,-17.36 24.09,-18.31 1.77,1.65 2.37,3.52 4.36,5.68l4.8 -0.45c1.25,-4.11 0.29,-8.15 -3.6,-9.57 -6.34,-2.32 -14.29,5.29 -18.44,8.83 -11.71,10.01 -15.31,6.11 -15.63,26.11l-1.86 110.26c-0.19,6.22 1.54,7.76 -1.45,12.29 -1.21,1.85 -3.57,6.67 -5.45,7.25l2.41 -149.64z"/>
 </g>
</svg>
