<?xml version="1.0" encoding="UTF-8"?>
<!DOCTYPE svg PUBLIC "-//W3C//DTD SVG 1.1//EN" "http://www.w3.org/Graphics/SVG/1.1/DTD/svg11.dtd">
<!-- Creator: CorelDRAW 2020 (64 Bit) -->
<svg xmlns="http://www.w3.org/2000/svg" xml:space="preserve" width="32px" height="32px" version="1.1" style="shape-rendering:geometricPrecision; text-rendering:geometricPrecision; image-rendering:optimizeQuality; fill-rule:evenodd; clip-rule:evenodd"
viewBox="0 0 32 32"
 xmlns:xlink="http://www.w3.org/1999/xlink"
 xmlns:xodm="http://www.corel.com/coreldraw/odm/2003">
 <defs>
  <style type="text/css">
   <![CDATA[
    .fil0 {fill:black;fill-rule:nonzero}
   ]]>
  </style>
 </defs>
 <g id="Camada_x0020_1">
  <metadata id="CorelCorpID_0Corel-Layer"/>
  <path class="fil0" d="M31.87 19.35c0,0.29 -0.02,0.81 -0.07,1.56 -0.04,0.75 -0.09,1.76 -0.15,3.04 -0.06,1.24 -0.1,2.24 -0.13,2.99 -0.03,0.75 -0.04,1.27 -0.04,1.56 0.03,0.38 0.05,0.68 0.06,0.91 0.02,0.23 0.02,0.42 0.02,0.56 0,0.61 -0.1,1.02 -0.3,1.22 -0.14,0.17 -1.27,0.33 -3.38,0.48 -1.25,0.05 -3.8,0.1 -7.66,0.15 -3.86,0.04 -9.1,0.06 -15.72,0.06l-4.12 0c-0.15,-0.06 -0.25,-0.17 -0.31,-0.34l0.09 -0.26c1.76,-0.09 2.76,-0.13 2.99,-0.13l1 0.04c0.26,-0.12 0.39,-0.64 0.39,-1.56 0,-0.64 0.01,-1.82 0.02,-3.56 0.02,-1.73 0.04,-4.03 0.07,-6.9 0.03,-2.89 0.05,-5.19 0.06,-6.91 0.02,-1.72 0.02,-2.9 0.02,-3.54l0 -7.11c0,-0.44 -0.18,-0.71 -0.56,-0.83l-3.86 0 -0.13 -0.3 0.22 -0.26c0.32,-0.03 0.62,-0.04 0.91,-0.04 0.29,0 0.55,0 0.78,0 0.38,0 1.46,0.04 3.25,0.13 0.9,0.02 1.61,0.05 2.15,0.06 0.53,0.02 0.9,0.02 1.11,0.02 0.2,0 0.54,0 1.01,-0.02 0.48,-0.01 1.11,-0.04 1.89,-0.06 0.78,-0.03 1.41,-0.05 1.89,-0.07 0.48,-0.01 0.8,-0.02 0.97,-0.02 -0.14,0 -0.05,0.01 0.29,0.02 0.33,0.02 0.89,0.04 1.67,0.07l0.52 0.3 -0.13 0.3c-0.09,0 -0.21,0 -0.35,0 -0.12,0 -0.26,-0.01 -0.43,-0.04l-0.83 0c-1.53,0 -2.54,0.1 -3.03,0.3l0 4.25c0.08,0 0.13,0.41 0.13,1.22 0,1.94 -0.05,5.52 -0.13,10.76 -0.03,2.63 -0.06,5 -0.07,7.11 -0.01,2.11 -0.02,3.99 -0.02,5.64l0 0.82 0.17 0.22c0.23,0.06 0.38,0.09 0.44,0.09 1.04,0 2.44,-0.16 4.2,-0.48 1.68,-0.29 3.01,-0.67 3.99,-1.13 0.64,-0.32 1.26,-0.64 1.87,-0.98 0.61,-0.33 1.21,-0.65 1.82,-0.97l1.34 -1.39c1.91,-1.99 3.07,-3.45 3.47,-4.38 1.07,-2.43 1.81,-3.64 2.22,-3.64 0.26,0 0.39,0.34 0.39,1.04zm-21.78 -18.35c-0.08,-0.09 -0.17,-0.13 -0.26,-0.13l-3.38 0c-0.61,0 -0.95,0.1 -1.04,0.3 -0.06,1.1 -0.1,2.94 -0.13,5.51l0.17 -0.08c0.58,-1.1 0.87,-1.87 0.87,-2.3 0,-0.12 -0.05,-0.36 -0.15,-0.72 -0.1,-0.36 -0.15,-0.6 -0.15,-0.71 0,-0.41 0.08,-0.81 0.26,-1.22l0.17 -0.17c0.58,0 0.87,0.3 0.87,0.91l0 0.08c-0.2,0.41 -0.31,0.73 -0.31,0.96 0.03,0.03 0.05,0.06 0.05,0.09 0,0 0.01,0.01 0.04,0.04l0.04 0c0.24,-0.12 0.6,-0.38 1.09,-0.8 0.49,-0.42 1.11,-1.01 1.86,-1.76zm18.44 24.51l-0.31 0.08 -0.17 0.31 0.39 -0.09 0.09 -0.3zm2.25 -4.34l0 -0.52c-0.11,0.09 -0.37,0.46 -0.78,1.13 -1.7,2.92 -3.63,5.13 -5.77,6.63 -0.6,0.26 -0.91,0.52 -0.91,0.78 0.38,0 0.78,-0.05 1.2,-0.17 0.41,-0.12 0.8,-0.27 1.14,-0.46 0.35,-0.18 0.66,-0.41 0.94,-0.67 0.27,-0.26 0.47,-0.55 0.58,-0.87 0.15,-0.54 0.29,-0.92 0.44,-1.12 0.14,-0.21 0.35,-0.44 0.63,-0.72 0.27,-0.27 0.61,-0.61 1.01,-1.02 0.15,-0.14 0.29,-0.3 0.44,-0.48 0.14,-0.17 0.29,-0.33 0.43,-0.47 0.44,-0.52 0.65,-1.2 0.65,-2.04zm-21.25 -13.79c-0.2,0 -0.33,0.1 -0.37,0.3 -0.04,0.2 -0.06,0.32 -0.06,0.35l0.08 0.3c0.2,-0.2 0.32,-0.52 0.35,-0.95zm-1 -0.09l-0.26 0.22 0 0.91 0.13 0c0.03,-0.18 0.07,-0.55 0.13,-1.13zm-0.26 1.73l0 -0.3 -0.09 0 0.09 0.3zm22.12 16.1c0,-0.32 -0.01,-0.51 -0.04,-0.57l-0.09 -0.08c-0.08,0.2 -0.21,0.47 -0.39,0.82 -0.17,0.35 -0.37,0.77 -0.61,1.26 -0.49,0.34 -0.99,0.72 -1.51,1.13 -0.52,0.4 -1.07,0.85 -1.65,1.34l0.13 0.17c0.78,-0.31 1.37,-0.47 1.78,-0.47 0.58,0 1.2,0.39 1.86,1.17l-0.26 0.43c-0.08,0 -0.26,-0.07 -0.52,-0.22 -0.26,-0.14 -0.45,-0.21 -0.56,-0.21 -0.06,0 -0.16,0.02 -0.31,0.06 -0.14,0.05 -0.3,0.1 -0.47,0.15 -0.18,0.06 -0.34,0.11 -0.5,0.16 -0.16,0.04 -0.28,0.06 -0.37,0.06 -0.23,0 -0.65,-0.1 -1.26,-0.3 -0.58,-0.2 -1,-0.31 -1.26,-0.31 -0.95,0 -1.69,0.34 -2.21,1l1.39 0.09c0.06,0 0.23,0 0.52,0 0.32,0 0.72,-0.02 1.21,-0.05 0.61,-0.02 1.18,-0.05 1.7,-0.06 0.52,-0.01 0.98,-0.02 1.38,-0.02l0.74 0c0.15,0.03 0.26,0.04 0.35,0.04 0.11,0 0.2,0 0.26,0 0.46,-0.46 0.69,-2.33 0.69,-5.59zm-2.6 4.07l-0.09 -0.08c-0.14,0 -0.26,0.07 -0.34,0.21l0.43 -0.13zm-1.08 0.61l0 -0.09 -0.22 0 0.22 0.09zm-15.92 -21.77c0,-0.21 0,-0.57 0,-1.09 0,-0.52 -0.02,-1.21 -0.05,-2.08 -0.02,-0.87 -0.04,-1.56 -0.04,-2.08 0,-0.52 0,-0.88 0,-1.09l-0.22 0c-2.92,1.83 -4.38,3.82 -4.38,5.99 0,0.55 0.22,1.23 0.65,2.04 0.44,0.81 0.86,1.3 1.26,1.47l0.09 -0.34c0,-0.09 -0.02,-0.24 -0.05,-0.44 -0.02,-0.2 -0.06,-0.42 -0.1,-0.65 -0.05,-0.23 -0.08,-0.45 -0.11,-0.65 -0.03,-0.2 -0.05,-0.35 -0.05,-0.43 0,-1.94 0.8,-3.65 2.39,-5.12l0.3 0.17c-0.05,0.15 -0.11,0.28 -0.17,0.39 -0.06,0.12 -0.12,0.25 -0.17,0.39 -0.23,0.55 -0.35,0.9 -0.35,1.04 0,0.09 0.02,0.22 0.06,0.39 0.05,0.18 0.09,0.36 0.13,0.55 0.05,0.18 0.09,0.37 0.14,0.56 0.04,0.19 0.06,0.33 0.06,0.41 0,0.26 -0.22,0.87 -0.65,1.82 -0.43,0.96 -0.65,1.58 -0.65,1.87 0,0.35 0.23,1.17 0.69,2.47 0.47,1.3 0.7,2.13 0.7,2.47 0,1.07 -0.7,2.52 -2.09,4.34 -1.38,1.82 -2.08,3.31 -2.08,4.47 0,0.43 0.26,1.17 0.78,2.21 0.52,1.13 0.96,1.69 1.3,1.69l0.22 -0.08c-0.14,-0.47 -0.27,-0.86 -0.39,-1.17l0 -2.95c0.23,-1.42 0.91,-2.56 2.04,-3.43l0.13 0.22c0,0.2 -0.12,0.49 -0.35,0.89 -0.23,0.39 -0.34,0.67 -0.34,0.84 0,0.12 0.04,0.38 0.13,0.8 0.08,0.42 0.13,0.69 0.13,0.81l-0.18 0.04c-0.14,-0.12 -0.2,-0.19 -0.17,-0.22 -0.03,0.03 -0.06,0.05 -0.09,0.05 0,0 -0.01,0.01 -0.04,0.04l0 0.61c-0.26,0.08 -0.39,0.27 -0.39,0.56l0.09 0.22c0.23,-0.23 0.47,-0.41 0.73,-0.52 0,0.17 -0.17,0.65 -0.52,1.43 -0.34,0.75 -0.52,1.23 -0.52,1.43 0,0.49 0.18,0.97 0.52,1.43 0.35,0.46 0.73,0.69 1.13,0.69 0,0 0.09,-0.02 0.26,-0.08l0 -0.57c0,-0.34 0.01,-0.99 0.02,-1.95 0.02,-0.95 0.04,-2.22 0.07,-3.81 0.08,-3.16 0.13,-5.08 0.13,-5.77l0 -10.28zm11.75 21.55l-0.08 -0.08c-0.41,0.14 -0.97,0.45 -1.7,0.91l0.39 0c0.55,0 1.02,-0.28 1.39,-0.83zm-15.92 -12.36l0 -0.78 -0.13 -0.09 -0.08 0.87 0.21 0zm3.08 -0.47c0.03,-1.22 -0.62,-2.82 -1.95,-4.82 -1.44,-2.08 -2.18,-3.38 -2.21,-3.9l-0.13 0c-0.06,1.27 -0.1,2.61 -0.13,4.01 -0.03,1.4 -0.04,2.9 -0.04,4.49 0,0.11 0,0.32 0.02,0.63 0.01,0.3 0.03,0.71 0.06,1.23 0.03,0.49 0.05,0.9 0.07,1.22 0.01,0.32 0.02,0.53 0.02,0.65 0,0.23 -0.02,0.66 -0.04,1.3 -0.03,0.64 -0.08,1.47 -0.13,2.52 -0.09,2.08 -0.13,3.36 -0.13,3.86l0 1.08c0.02,0.03 0.05,0.06 0.06,0.09 0.01,0.03 0.04,0.05 0.07,0.08l0 0.05c0.05,0 0.18,-0.04 0.39,-0.11 0.2,-0.07 0.33,-0.11 0.39,-0.11 0.11,0 0.36,0.02 0.73,0.07 0.38,0.04 0.63,0.06 0.74,0.06l0 -0.13c-1.33,-1.59 -1.99,-3.07 -1.99,-4.42 0,-0.5 0.21,-1.29 0.65,-2.39 0.43,-1.07 0.65,-1.71 0.65,-1.91 0,-0.2 -0.13,-0.76 -0.39,-1.69 -0.26,-0.9 -0.39,-1.46 -0.39,-1.69 0,-0.26 0.05,-0.68 0.17,-1.26 0.14,-0.72 0.22,-1.14 0.22,-1.26 0,-0.08 -0.03,-0.21 -0.07,-0.39 -0.04,-0.17 -0.09,-0.34 -0.15,-0.52 -0.06,-0.17 -0.11,-0.33 -0.15,-0.48 -0.05,-0.14 -0.07,-0.24 -0.07,-0.3l0.22 -0.04c0.49,0.23 0.91,0.82 1.26,1.78 0.37,0.86 0.56,1.67 0.56,2.43 0,0.2 -0.09,0.7 -0.26,1.51 -0.17,0.84 -0.26,1.36 -0.26,1.56 0,0.03 0.03,0.08 0.09,0.13 0.46,-0.23 0.92,-0.7 1.39,-1.43 0.49,-0.81 0.73,-1.44 0.73,-1.9zm-0.3 14c-0.2,-0.63 -0.93,-0.95 -2.17,-0.95 -0.09,0 -0.22,0.04 -0.41,0.11 -0.19,0.07 -0.38,0.17 -0.59,0.28 -0.2,0.12 -0.38,0.23 -0.54,0.35 -0.16,0.11 -0.25,0.21 -0.28,0.3l0.13 0.26 2.95 0c0.46,0 0.76,-0.11 0.91,-0.35zm-3.08 -1.17l0 -0.08 -0.09 0 0.09 0.08z"/>
 </g>
</svg>
