<!DOCTYPE svg PUBLIC "-//W3C//DTD SVG 1.1//EN" "http://www.w3.org/Graphics/SVG/1.1/DTD/svg11.dtd">
<svg xmlns="http://www.w3.org/2000/svg" viewBox="0 0 512 512">
<path d="M243 76.508c-3.025.737-48.7 19.851-101.5 42.475-86.127 36.903-96.435 41.558-100.227 45.261-13.036 12.729-11.502 33.106 3.285 43.627L48 210.319v116.276l-5.218 3.452c-12.774 8.452-13.945 26.578-2.375 36.738l3.526 3.095-5.096 25.465c-5.554 27.762-5.634 30.366-1.094 35.762C41.614 435.707 45.62 437 56 437c10.38 0 14.386-1.293 18.257-5.893 4.54-5.396 4.46-8-1.094-35.762l-5.096-25.465 3.526-3.095c11.57-10.16 10.399-28.286-2.375-36.738L64 326.595V217.05l2.25.873c1.237.481 8.075 3.395 15.194 6.476 7.119 3.08 13.244 5.601 13.611 5.601.366 0 .94-2.311 1.275-5.135 1.951-16.476 11.868-26.678 33.574-34.538 69.761-25.261 155.736-28.03 228.82-7.369 15.182 4.292 30.785 9.731 36.973 12.887 9.969 5.086 18.825 18.121 19.992 29.427l.556 5.392 24.128-10.39c26.843-11.559 30.304-13.562 34.568-19.998 7.865-11.875 5.782-26.94-5.14-37.172-3.969-3.718-190.636-84.146-200.928-86.572-7.736-1.824-18.451-1.834-25.873-.024m-19 110.134c-29.563 2.676-67.371 11.065-92 20.416-10.473 3.976-17.009 9.948-18.838 17.214-2.016 8.005-1.602 108.588.468 113.761 4.17 10.421 18.274 14.61 21.411 6.358 1.227-3.225-1.065-8.946-3.95-9.862-8.02-2.545 8.76-9.477 34.909-14.42 64.704-12.233 174.753-7.759 211.25 8.589 5.932 2.657 7.244 4.693 3.739 5.805-2.68.851-5.272 6.006-4.422 8.797 2.703 8.878 14.026 7.141 20.554-3.152l2.879-4.54v-53.361c0-60.615.046-60.169-6.912-67.276-8.592-8.776-45.586-20.004-86.088-26.128-13.038-1.972-69.105-3.458-83-2.201" fill-rule="evenodd"/>
</svg>