<?xml version="1.0" encoding="UTF-8"?>
<!DOCTYPE svg PUBLIC "-//W3C//DTD SVG 1.1//EN" "http://www.w3.org/Graphics/SVG/1.1/DTD/svg11.dtd">
<!-- Creator: CorelDRAW 2020 (64 Bit) -->
<svg xmlns="http://www.w3.org/2000/svg" xml:space="preserve" width="512px" height="512px" version="1.1" style="shape-rendering:geometricPrecision; text-rendering:geometricPrecision; image-rendering:optimizeQuality; fill-rule:evenodd; clip-rule:evenodd"
viewBox="0 0 512 512"
 xmlns:xlink="http://www.w3.org/1999/xlink"
 xmlns:xodm="http://www.corel.com/coreldraw/odm/2003">
 <defs>
  <style type="text/css">
   <![CDATA[
    .fil0 {fill:black}
   ]]>
  </style>
 </defs>
 <g id="Camada_x0020_1">
  <metadata id="CorelCorpID_0Corel-Layer"/>
  <path class="fil0" d="M42.57 481.44c4.08,-0.92 4.82,0.15 6.13,3.63l-6.27 0.54 0.14 -4.17zm199.56 -49.72c2.68,2.61 2.39,2.58 6.86,2.94 -2.88,-8.32 -6.8,-2.98 -6.86,-2.94zm203.77 -196.95c2.99,-1.34 2.31,0.21 3.77,-4.43 3.14,-9.99 5.85,-10.98 6.05,-14.07 -5.05,-0.5 -4.5,2.96 -6.42,7.94 -1.83,4.75 -4.31,4.87 -3.4,10.56zm-177.83 37.57c-0.55,4.03 -0.08,0.61 -2.13,1.66 -1.31,-1.81 -1.43,2.09 -0.72,-2.35 0.53,-3.27 0.03,-0.52 1.84,-1.71 1.49,2.31 1.67,-2.53 1.01,2.4zm-9.99 -3.1l-1.04 4.66 -3.6 -0.06 -0.05 -4.99 4.69 0.39zm-39.82 -1.18c4.34,-1.71 5.66,0.9 5.09,5.69l-5.99 -0.44c-0.57,-4.28 -0.97,-2.21 0.9,-5.25zm46.52 -5.63c-5.05,0.09 -5.79,-1.29 -4.79,-5.62 1.03,-0.55 -0.69,-0.26 2.55,-0.96 1.35,-0.29 0.79,0 2.29,0.14l-0.05 6.44zm-14.42 -6.23c-0.75,-1.14 -1.92,0.86 -1.17,-7.09 7.26,0.13 8.16,6.42 1.17,7.09zm3.99 -16.48c4.88,-1.7 6.82,0.66 5.33,5.36 -3.73,2.44 -6.92,-0.21 -5.33,-5.36zm-13.69 -10.84c2.76,-2.52 2.53,-5.91 8.38,-5.01 0.86,6.16 -3.58,6.03 -5.74,10.35 -6.9,13.84 -0.63,35.71 -1.08,41.34 -9.56,0.96 -9.62,-9.62 -19.97,-17.25l0.12 -11.64c7.03,-0.33 7.9,1.04 11.34,-6.38 5.23,-11.32 0.21,-4.38 -0.05,-13.57 6.6,0 2.11,0.16 7,2.16zm3.27 -13.8c-6.36,1.69 -6.2,-2.2 -3.96,-6.12l4.7 0.32c0.77,3.71 0.95,2.97 -0.74,5.8zm-39.13 68.27c27.66,-3.31 20.64,-1.55 46.67,-2.08l27.55 -1.1c0.45,-6.88 0.06,0.98 -4.12,-11.09 -7.29,-21.08 -27.95,-67.3 -29.83,-82.29 -5.51,0.48 -2.95,-1.44 -4.55,3.34l-17.52 43.9c-4.85,9.3 -11.84,31.5 -14.81,37.53 -2.05,4.16 -5.1,6.37 -3.39,11.79zm-182.41 -267.7c9.34,-0.41 7.97,0.76 14.29,1.97 5.28,1 8,-1.68 13.23,-1.92 17.83,-0.79 41.33,0.06 60.17,0.16l76.06 -1.94c9.68,2.04 116.68,-1.91 138.81,-1.77l62.34 0.23c20.68,-0.88 39.95,4.28 60.52,0.86l45.26 -1.34c6.61,0.41 7.62,1.31 10.02,5.66 -1.46,2.9 -1.06,1.33 -2.44,4.46 -0.08,0.98 4.58,37.59 3.76,40.39 -2.39,8.15 -0.68,4.29 -0.62,12.07l-4.05 1.76c1.63,10.52 -1.12,63.44 -1.33,78.26 -0.35,25.15 2.55,56.99 0.14,81.32 -3.59,36.36 -1.21,82.04 -0.5,119.11 0.22,11.32 -1.03,26.67 -0.76,39.5 5.11,-0.48 5.15,-1.88 6.71,1.66 -3,1.58 -3.08,0.76 -7.11,0.44 1.25,31.1 -0.36,62.39 1.16,93.73 2.37,2.22 2.03,1.17 4.03,3.8 -1.38,3.02 -2.7,4.16 -5.68,5.91 -1.93,-0.71 -0.42,0.15 -2.44,-1.16l-2.02 -1.83c-7.07,2.38 -4.37,2.54 -13.35,2.4 -13.31,-0.2 -33.97,0.99 -43.38,-0.85 -6.8,-1.33 -21.87,-1.1 -29.2,0.14 -9.33,1.58 -19.37,-0.87 -29.85,-0.76l-30.08 0.84c-9.74,-0.68 -19.61,-1.06 -30.04,-1.09 -4.86,-0.01 -10.9,0.87 -14.36,0.74 -4.68,-0.17 -8.99,-0.77 -14.58,-0.64 -10.1,0.22 -20.01,0.17 -30.06,0.32 -20.12,0.3 -40.76,0.15 -61.24,-0.01 -10.39,-0.08 -20.78,-0.09 -31.17,-0.15 -17.03,-0.09 -17.11,0.79 -28.89,1.29 -24.99,1.07 -45.2,-2.2 -60.21,-1.95 -5.17,0.09 -9.04,1.41 -14.46,1.21 -5.45,-0.2 -8.78,-1.21 -14.45,-1.28 -35.58,-0.45 -33.29,7.35 -33.02,-26.53 0.08,-10.01 0.09,-20.03 0.21,-30.04 0.22,-18.99 1.26,-41.48 0.12,-60.11 -0.53,-8.75 -0.59,-21.39 0.13,-30.06l-1.17 -59.01c0.08,-6.96 1.88,-23.09 -1.9,-27.83 4.32,-9.65 2.97,-15.58 2.87,-30.06 -0.08,-10.87 1.86,-19.76 1.8,-31.18 -0.11,-22.22 -1.01,-42.2 -1.03,-64.57 -0.01,-13.4 0.69,-8.68 1.68,-14.52l0.69 -48.94c-0.11,-14.78 -1.47,-46.14 5.39,-58.69zm485.14 490.66c0.06,-10.08 -0.18,-21.47 0.55,-31.32 0.74,-10.01 -0.43,-22.03 1.33,-31.73 2.73,-15.08 1.35,-45.82 1.43,-62.75l0 -273.88c0.03,-6.1 -1.13,-10.03 -1.15,-14.44 -0.02,-5.38 1.36,-9.9 1.43,-15.62 0.17,-13.35 -0.71,-36.09 0.26,-46.82 1.05,-11.7 1.82,-19.08 -6.87,-23.7 -7.92,-4.22 -20.6,-2.69 -28.12,-2.14 -8.2,0.61 -23.48,0.07 -32,-0.37 -37.12,-1.9 -88.62,0.56 -128.35,-0.54 -15.2,-0.43 -50.72,2.05 -62.37,1.15 -17.19,-1.32 -41.87,-0.24 -61.21,-0.41 -24.5,-0.22 -71.35,-1.45 -94.8,0.51 -9.04,0.76 -8.08,-3.33 -29.89,0.29 -15.89,2.64 -48.18,-4.93 -61.6,-0.78l-2.41 197.84c-0.82,5.34 -0.68,27.17 -0.05,32.87 0.92,8.22 -1.31,20.46 -1.43,29.17 2.61,1.57 2.94,1.33 4.93,3.47 -1.07,5.62 -1.34,2.97 -4.99,6.37 -0.14,3.12 -0.22,12.79 0.24,15.49 3.77,22.1 -1.38,22.05 -0.4,41.48 1.03,20.46 -0.21,37.87 -0.43,57.85 -0.22,20.29 -0.65,39.85 -0.52,60.12 0.14,19.82 -1.33,39.2 -1.08,58.92 8.11,2.02 241.05,0.08 257.01,0.08 21.49,0.01 43.05,0.34 64.57,0.43 42.01,0.16 83.39,-2.84 125.92,0.36 15.27,1.14 37.15,-0.08 48.61,0.8 7.05,0.54 6.8,1.52 11.39,-2.7zm-438.58 -24.49c3.11,-1.3 2.67,-1.73 3.91,1.11 -4.44,1.93 -3.07,-0.71 -3.91,-1.11zm265.21 -2.76l3.4 0.05 0.44 3.46 -3.03 0.16 -0.81 -3.67zm143.48 2.16c0.74,-0.98 -0.2,-2.63 2.63,-0.52l-2.63 0.52zm-7.96 -5.66c6.28,3.99 2.69,9 -3.39,6.5 -0.07,-0.16 -2.32,0.32 -0.05,-3.57 0.82,-1.41 2.48,-2.33 3.44,-2.93zm-96.65 5.14c0.67,-4.04 1.45,-4.3 5.36,-2.22 -0.78,4.12 -1.38,4.26 -5.36,2.22zm-58.54 -1.11l3.66 -0.16c-2.06,1.37 -0.93,2.33 -3.66,0.16zm-66.68 2.12l-3.93 -0.71c1.24,-1.26 -1.7,-2.17 1.97,-1.3 2.41,0.57 0.7,-0.1 1.96,2.01zm-160.7 -8.5c6.68,-1.77 7.23,1.52 6.05,7.34 -5.99,2.18 -7.26,-0.55 -6.05,-7.34zm314.24 7.95l-0.34 -7.93c4.32,-0.13 5.79,2.07 7.06,5.25 -1.64,2.99 -2.01,3.91 -6.72,2.68zm-180.15 -3.89l2.55 1.91c-6.63,-0.75 -0.83,0.24 -2.55,-1.91zm-33.43 2.32l-7.17 0.22c0.34,-3.14 0.26,-4 3.05,-4.3 3.86,-0.42 3.99,1.07 4.12,4.08zm240.02 -3.34c4.54,-2.07 4.13,-0.55 4.13,3.37 -6.95,-0.72 -2.55,-0.02 -4.13,-3.37zm-129.24 4.23c0,-4.73 0.99,-5.42 5.86,-4.71 0.24,4.53 -1,5.58 -5.86,4.71zm-266.79 -7.86c4.85,1.05 4.67,0.95 5.34,6.33l-4.97 0.1c-1.36,-3.69 -0.92,-3.12 -0.37,-6.43zm355.08 0.93c5.9,-1.8 7.87,-0.26 6.87,5.71l-5.28 0.51c-1.87,-2.74 -2.18,-2.76 -1.59,-6.22zm-117.2 -0.74c3.33,-1.29 2.1,-1.26 5.62,-0.44 0.27,0.43 2.02,-0.2 0.95,6.23l-5.97 0.01 -0.6 -5.8zm-124.1 -1.09c1.94,-1.11 -2.23,-0.65 2.4,-1.01 1.88,-0.14 1.4,0.07 3.03,0.33 2.13,6.52 1.1,7.61 -5.15,7.41 -1.08,-3.41 -1.76,-3.75 -0.28,-6.73zm173.61 -1.1l5.21 -0.68c1.78,4.33 1.09,4.46 0.76,8.98 -4.15,-1.09 -4.13,-1.5 -6.65,-3.69l0.68 -4.61zm-87.23 5.2c-0.21,-3.99 -0.11,-4.61 1.74,-7.44 9.86,-0.44 7.44,9.27 -1.74,7.44zm-109.29 -4.12c1.29,-0.58 -0.97,-1.29 4.09,-1.59 2.22,-0.14 2.34,0.27 4.35,0.76 1.1,6.16 -0.11,7.27 -7.43,6.25l-1.01 -5.42zm-9.39 5.66l-7.38 -0.01c0.17,-5.05 -0.08,-5.91 1.99,-8.83 8.12,-0.59 7.63,3.09 5.39,8.84zm51.73 -4.38c1.75,-3.1 1.13,-2.63 4.11,-4.29 3.4,1.37 4.5,2.52 4.65,6.84 -2.24,1.48 -2.42,1.77 -6.27,2.18l-2.49 -4.73zm244.74 -2.3c3.86,-6.03 8.67,-3.13 6.23,5.32 -6,0.08 -4.82,-1.64 -6.23,-5.32zm-160.62 -2.09l3.27 -4.59c6.56,2.12 8.03,9.88 -1.07,9.9l-2.2 -5.31zm225.46 -3.05l5.99 -0.52 0.52 6.72 -8.38 -0.52c0.53,-4.56 -0.36,-2.55 1.87,-5.68zm-253.14 -0.32c10.2,1.35 2.92,10.86 -1.32,5.65 -1.1,-3.06 -1.08,-2.72 1.32,-5.65zm83.87 3.24c1.13,-4.16 0.21,-3.2 4.08,-4.88 2.93,1.61 1.26,-0.75 3.14,2.9 0.92,1.8 0.95,3.15 1.08,5.2 -6.32,1.38 -5.77,0.56 -8.3,-3.22zm89.36 -6.68c1.74,-3.26 0.76,-2.32 3.79,-4.32 2.49,1.04 4.57,2.08 4.54,5.42 -0.05,5.4 0.21,0.25 -0.91,2.58 -5.91,2.79 -5.35,0.59 -7.42,-3.68zm-135.36 -1.14c4.77,-1.22 5.6,-1.45 7.83,2.25 -1.55,3.53 -0.83,2.84 -4.81,4.36 -2.63,-2.62 -2.88,-1.73 -3.02,-6.61zm-165.58 -2.9l6.62 -0.89c0.56,7.27 -0.4,8.61 -7.25,8.55 -1.07,-4.01 -1.44,-3.77 0.63,-7.66zm264.91 0.43l0.9 5.41 -4.75 -0.48c-1.17,-3.64 -0.33,-4.01 3.85,-4.93zm-182.11 -1.81l5 -0.18c1.87,2.99 2.11,2.69 1.61,7.4l-6.24 0.79 -0.37 -8.01zm-21.89 7.35c-3.27,-9.38 9.04,-9.08 5.87,-0.63 -2.46,1.51 2.87,0.86 -2.53,1.16 -2.95,0.16 -1.37,-0.07 -3.34,-0.53zm57.44 -7.59l5.18 0.39c0.25,2 1.22,0.85 0.95,5.36 -6.21,1.86 -4.94,0.27 -5.75,-0.24l-0.38 -5.51zm-81.98 1.07l8.04 0.84c0.06,6.05 -0.62,6.39 -6.62,6.78 -1.68,-2.51 -2.41,-4.36 -1.42,-7.62zm-64.12 -1.69l5.53 1.35c-0.09,5.14 -0.71,6.48 -5.45,6.62 -1.97,-3.99 -1.58,-3.98 -0.08,-7.97zm-16.15 5.28c0.02,-0.02 -0.17,-4.1 7.99,-0.19 -0.84,3.92 -0.83,3.85 -4.49,5.24 -4.41,-3.09 -2.91,-2.67 -3.5,-5.05zm371.86 -4.61c11.05,0.03 7.77,10.48 5.71,13.02 -4.18,-0.71 -2.9,0.04 -4.19,-4.19 -1.23,-4.09 -1.99,-4.61 -1.52,-8.83zm-172.09 1.15c-0.38,4.11 2.16,2.2 -1.96,3.91 -1.9,0.79 -3.67,-0.07 -4.32,-1.25 -1.84,-3.3 2.49,-4.64 6.28,-2.66zm117.68 -3.42c3.93,0.68 3.06,-0.02 4.81,3.42 -1.68,2.96 -1.19,2.81 -4.81,3 -2.79,-3.43 -2.32,-3.67 0,-6.42zm-259.76 -1.53c4.09,-0.98 3.56,-0.5 6.08,1.61l-0.27 5.18c-6.38,0.62 -6.78,-0.89 -5.81,-6.79zm302.68 -2.96l6.07 -0.1 0.61 8.41 -6.08 -0.4 -0.6 -7.91zm-367.84 3.24c0.48,-1.79 0.17,-2.55 2.7,-3.67 4.33,-1.9 3.85,0.03 4.98,1.66 -2.35,3.26 -2.21,2.8 -7.68,2.01zm431.5 -6.9c10.43,-4.37 9.65,5.88 4.87,5.89 -3.34,0 -4.46,-2.86 -4.87,-5.89zm-113.5 -1.58l0.28 6.07c-10.67,1.16 -8.44,-9.39 -0.28,-6.07zm101.75 -1.15c2.21,0 5.96,0.16 7.02,2.68 2.1,5.04 -8.02,5.21 -7.88,0.58 0.03,-0.91 0.57,-2.41 0.86,-3.26zm-40.59 -0.13l5.86 -0.55 0.16 6.07 -5.34 -0.11 -0.68 -5.41zm-26.66 7.22l-0.13 -5.03c1,-0.36 -0.59,-0.95 2.73,-0.92 5.53,0.06 1.68,0.14 3.17,1.13 2.21,4.69 -1.08,4.69 -5.77,4.82zm-24.82 -3.92c5.28,-14.92 26.13,8.27 15.91,17.58l-7.43 5.92c-2.13,1.86 -8.28,6.93 -10.34,7.41 -6.26,1.48 -26.59,-1.39 -31.96,-3.1 -8.06,-2.57 -6.12,-2.37 -10.75,-7.16 -6.61,-6.84 -16.1,-11.63 -25.59,-6.83 -3.6,1.82 -3.61,5.85 -9.65,8.96 -0.67,-16.56 12.89,-19.21 25.52,-22.89 9.74,-2.83 19.51,-1.68 28.61,2.93 3.75,1.9 5.19,2.56 5.18,7.2 -6.27,2.78 -9.22,0.57 -8.68,8.89 4.26,10.63 38.53,4.2 37.83,-8.89 -0.17,-3.24 -4.48,-5.14 -8.65,-10.02zm-243.59 -3c3.51,10.83 -7.18,8.86 -7.26,4.1 -0.05,-3.46 3.27,-4.63 7.26,-4.1zm-57.06 -1.81l6.48 0.09 -0.22 6.64 -5.57 0.54 -0.69 -7.27zm110.08 6.73l-0.57 -7.32c11.25,-1.91 9.31,9 0.57,7.32zm-38.19 2.51c-3.27,-11.4 3.94,-9.26 5.53,-7.82 0.03,0.02 3.46,1.37 0.04,5.59 -1.29,1.58 -3.1,1.88 -5.57,2.23zm25.52 -10c1.95,3.44 1.33,3.51 0.33,6.96 -10.26,-0.43 -5.28,-8.57 -0.33,-6.96zm126.08 2.06c-2.96,-9.67 2.89,-11.96 5.14,-3.17 -1.67,2.34 -1.47,2.73 -5.14,3.17zm174.6 -12.39c5.01,0.31 6.6,2.56 4.49,6.86 -0.48,0.53 1.25,2.73 -6.72,0.09 -0.1,-4.72 -0.44,-3.7 2.23,-6.95zm-426 7.41l-1.15 7.89 -4.38 2.64c0.13,14.28 1.7,6.02 5.65,13.01 2.2,3.89 0.89,3.89 4.45,6.72 8.39,6.67 24.83,2.59 32.17,-8 4.44,-6.42 3.14,-11.31 5.17,-18.17 11.28,-1.49 3.59,16.83 0.98,22.01 -2.24,4.47 -10.09,10.35 -15.41,11.54 -12.91,2.89 -5.5,5.89 -20.81,0.59 -5.89,-2.04 -12.42,-6.8 -16.52,-10.21 -0.69,-11.84 -5.23,-8.21 0.26,-27.26 0.84,-2.89 3.63,-5.4 5.77,-6.87 9.71,-6.64 32.96,1.73 24.58,15.83 -6.19,3.57 -10.84,-0.72 -14.58,-3.12 -0.55,-5.16 0.26,-10.37 -6.18,-6.6zm149.11 -2.86l-0.89 -5.62 7.27 0.09c-0.17,5.26 -1.14,6.08 -6.38,5.53zm288.67 -9.18l4.52 -0.63 -0.06 3.94c-4.37,0.8 -4.43,0.65 -4.46,-3.31zm-220.08 -5.96c5.88,0.03 8.83,1.27 5.78,6.61 -3.31,1.5 -2.3,1.07 -5.62,-0.12l-0.16 -6.49zm209.42 2.14c1.29,2.1 0.68,1.95 0,2.76 -0.15,-0.15 -0.44,-0.61 -0.45,-0.46 0,0.37 -0.88,-1.05 0.45,-2.3zm-40.57 3.2c0.77,-2.26 -0.43,-3.18 3.72,-3.01 3.32,0.13 3.04,1.28 2.85,3.39 -1.11,0.64 2,1.42 -2.77,1.29 -6.53,-0.18 -1.92,-0.27 -3.8,-1.67zm-356.89 -5.58c1.65,1.91 2.01,2.09 1.97,5.35 -3.28,1.48 -3.83,2.19 -7.53,0.13 -2.31,-4.86 0.92,-6 5.56,-5.48zm228.25 5.7l-0.04 -5.55 5.79 0.63c-0.8,4.19 -1.45,4.7 -5.75,4.92zm-98.46 -6.98c5.05,0.31 4.9,-0.13 6.48,3.52 -4.51,4.93 -4.74,1.65 -5.27,1.44l-1.21 -4.96zm-168.75 -1.69l3.35 0.2c-0.04,0.37 2.87,1.5 1.1,4.75 -1.38,2.54 -1.74,1.43 -4.82,1.65l0.37 -6.6zm379.98 4.45c4.77,-2.75 14.9,-6.19 9.97,3 -5.6,0.35 -5.99,-1.33 -9.97,-3zm-224 -4.8l6.26 -0.25c-0.02,9.03 -5.81,7.46 -6.26,0.25zm-138.13 4.27l-7.35 0.2c-0.74,-6.65 2.49,-7.05 8.08,-5.2l-0.73 5zm418.24 -9c3.71,-1.42 2.76,-1.13 6.68,0.53 0.73,6.96 -0.63,6.37 -3.02,6.45 -4.13,0.16 -5.88,-2.46 -3.66,-6.98zm-156.01 -2.57c0.76,4.1 1.08,2.13 -0.64,5.07l-3.25 0.06c0.54,-3.79 0.91,-4.24 3.89,-5.13zm-137.56 2.84l-0.02 -4.5c5.48,-0.9 8.7,-1.21 8.33,5.06 -4.04,1.98 -4.86,2.05 -8.31,-0.56zm-81.82 -2.23c2.24,-2.33 1.89,-2.17 5.56,-1.78 -0.06,2.56 -0.07,3.87 -2.13,4.47 -3.86,1.11 -2.65,-1.6 -3.43,-2.69zm312.2 -4.45l1.14 5.24 -6.61 0.54c-1.37,-4.95 -1.03,-8.71 5.47,-5.78zm-152.12 2.23l2.71 -4.3c4.69,1.46 5.64,3.53 4.04,8.08 -6.99,1.79 -4.14,-0.37 -6.75,-3.78zm-208.19 -7.46c4.6,-2.01 6.31,-0.63 7.21,4.12 -4.25,6.05 -8.24,5.21 -7.21,-4.12zm197.1 5.99c-1.35,-4.88 -1.54,-4.31 0.13,-9.13l5.89 1.73c0.7,6.1 -0.03,8.49 -6.02,7.4zm-35.66 -9.34c3.29,0 6,0.93 6.39,4.25 0.54,4.75 -0.84,3.06 -1.06,3.44 -4.2,1.16 -6.49,-2.65 -5.33,-7.69zm236.78 0.07l2.85 -0.04 0.24 4.61c-3.78,-0.09 -5.44,-0.84 -3.09,-4.57zm-346.92 -0.83l0.48 4.49c-10.27,4.57 -10.96,-8.41 -0.48,-4.49zm-64.07 1.31c4.04,-0.98 3.4,-1.33 7.2,0.65l-1.29 5.05c-4.23,-0.58 -5.18,-1.78 -5.91,-5.7zm445 -0.4l-0.01 3.39c-4.47,1.72 -3.98,1.41 -7.49,-0.17 1.09,-5.06 1.82,-4.78 7.5,-3.22zm-48.78 -0.77c5.41,-0.31 7.72,-1 6.49,4.2 -0.02,0.01 -1.74,2.17 -4.67,0.39 -2.22,-1.34 -1.45,-1.92 -1.82,-4.59zm-257.84 3.66c-1.35,-18.08 15.66,4.69 0,0zm223.39 -10.21l7 0.73c2.51,5.95 -0.98,9.58 -4.96,5.51 -1.64,-1.68 -2.01,-3.28 -2.04,-6.24zm-285.89 7.93c-4.61,-2.03 -6.56,-8.55 -1.11,-8.96 4.52,-0.33 7.78,5.82 1.11,8.96zm136.96 -11.18c4.99,-1.96 6.02,0.86 5.13,6.35l-5.86 0.29c-0.76,-4.77 -1.19,-3.61 0.73,-6.64zm-47.23 7.55l-0.79 -6.25c4.65,-0.64 2.73,-1.01 6.05,0.61l0.66 4.62 -5.92 1.02zm13.13 -6.06c3.31,-1.68 1.9,-1.86 5.36,-0.6 0.19,0.42 1.93,-0.43 0.27,5.15 -0.02,0.01 -5.26,3.81 -5.63,-4.55zm237.96 2.94l-0.39 -5.6 6.44 0.33c-0.01,4.69 -1.31,5.45 -6.05,5.27zm-200.62 32.2c-6.75,0.27 -12.58,-3.82 -18.31,-5.9 -4.8,-1.75 -7.54,-0.45 -12.89,-11.73 7.17,-7.59 4.34,3.07 9.26,-13.11 1.49,-4.91 5.87,-9.32 12.87,-6.93 -0.6,8.07 -11.13,7.18 -3.89,20.83 1.74,3.28 3.1,5.82 5.92,8.56 3.36,3.27 6.19,3.55 7.04,8.28zm-149.26 -43.12l0.2 8.31c-10.14,0.57 -8.91,-8.83 -0.2,-8.31zm-18.78 1c4.88,-2.3 6.54,1.78 5.32,6.37 -5.63,0.86 -8.12,-1.39 -5.32,-6.37zm302.76 3.41c-0.21,-2.92 -2.13,-4.26 5.64,-8.17 5.95,3.59 0.42,2.64 9.49,4.22 -0.25,3.81 -0.48,3.17 -4.8,3.74 -4.36,0.57 -5.8,0.91 -10.33,0.21zm-341.12 -0.67l-0.2 -4.99c3.54,-1.82 3.68,-1.31 5.9,-0.82 0.73,5.19 -0.46,6.65 -5.7,5.81zm177.88 -0.82l-0.22 -4.11c3.69,-1.17 5.6,-1.6 6.09,2.88 -1.78,1.19 -2.72,1.56 -5.87,1.23zm-28.7 -3.63l5.88 -0.82c-0.07,7.26 -5.46,6.28 -5.88,0.82zm-84.66 3.44c-0.25,-3.33 1.21,-6.13 4.36,-6.91 7.49,-1.85 5.22,12.24 -4.36,6.91zm363.78 -0.91c-0.63,-6.32 1.26,-7.37 6.2,-5.1 0.26,4.91 -1.28,5.73 -6.2,5.1zm-184.42 -4.87c0.77,13.49 -14.51,-3.26 0,0zm-246.65 -1.07l-0.24 6.6c-2.5,-0.54 -4.41,-1.1 -5.91,-2.01 -0.44,-5.56 1.48,-5.66 6.15,-4.59zm34.46 -0.34l0.68 4.83c-8.25,2.19 -8.22,-8.99 -0.68,-4.83zm322.95 -0.28c-0.64,-3.87 -0.79,-0.77 -0.24,-2.9 0.06,-0.25 0.26,-0.81 0.33,-1.05l4.35 -1.65c0.31,0.02 2.99,0.73 3.66,0.92 5.87,1.62 4.02,-0.04 4.35,5.31l-12.45 -0.63zm-161.46 0.12c0.19,-6.29 3.07,-7.36 6.73,-3.29 -1.61,3.6 -2.23,3.25 -6.73,3.29zm205.87 -5.46l7.43 -0.14c0.5,4.69 0.62,2.14 -0.66,4.61 -3.94,1.95 -6.3,0.17 -6.77,-4.47zm-320.99 -2.61c3.28,-1.48 1.66,-1.11 5.84,-0.72l0.04 6.46c-5.57,0.94 -7.78,-1.2 -5.88,-5.74zm166.97 -6.78c5.71,1.08 6.71,2.19 5.78,9.18 -9.84,1.86 -7.97,-3.48 -5.78,-9.18zm-58.7 2.73c8.7,-0.03 6.17,7.24 0.96,5.87 -1.12,-1.81 -0.7,2.21 -1.23,-2.59 -0.25,-2.2 -0.08,-1.23 0.27,-3.28zm150.95 -0.58l6.89 -0.45 0.28 5.18c-4.28,1.82 -9.19,1.97 -7.17,-4.73zm96.77 -0.33c4.69,-2.71 6.2,-1.31 6.31,4.5 -4.33,-0.22 -5.71,-0.22 -6.31,-4.5zm-436.41 -4.28c4.32,0.12 6.29,2.36 6.01,7.15 -3.1,1.32 -2.07,1.72 -5.54,0.49 -1.56,-3.26 -1.32,-3.32 -0.47,-7.64zm425.44 1.57c0.38,-0.04 1.87,-2.16 4.63,-0.65 2.07,1.13 1.47,3.04 1.41,5.55l-5.92 -0.81 -0.12 -4.09zm-37.76 0.2c2.29,-3.68 3.03,-4.89 7.71,-1.8l0.57 4.96c-7.85,3.28 -6.99,-0.94 -8.28,-3.16zm-10.73 -6.3c9.69,0.53 6.95,11.72 -2.95,5.97 -0.26,-3.99 0.7,-4.22 2.95,-5.97zm-325.95 2.96c2.3,-3.44 2.38,-4.4 7.01,-2.75 1.64,3.49 1.62,3.41 0.08,7.78 -4.96,0.5 -6.61,-0.46 -7.09,-5.03zm208.15 -4.03l5.52 -0.9 0.15 7.25 -5.26 -0.5 -0.41 -5.85zm-222.42 2.24l4.78 -1.57 0.45 6.48c-4.64,-0.37 -4.88,-0.77 -5.23,-4.91zm52.61 4.42c-0.51,-4.5 0.03,-7.41 4.6,-7.77 1.68,3.43 1.37,9.18 -4.6,7.77zm240.81 -3.87l-0.29 -5.48c4.03,0.37 4.34,-0.1 5.66,3.38 -2.36,2.81 -0.39,2.07 -5.37,2.1zm-89.84 -1.13c-0.83,-7.52 2.16,-7.57 9.12,-8.17l-0.43 6.33c-2.87,1.99 -4.1,2.72 -8.69,1.84zm187.07 -0.17c-2.28,-4.59 -0.99,-1.33 0.76,-4.06l1.17 -2.22c2.14,-5.03 -0.14,-1.8 2.19,-4.16 1.55,0.13 7.4,2.95 5.27,7.89 -14.33,2.18 -3.72,0.48 -9.39,2.55zm-242.04 -8.49l5.91 -0.18 -0.15 6.59 -4.81 -0.11c-1.46,-2.9 -0.55,2.05 -1.18,-3.06 -0.25,-2.08 -0.05,-1.35 0.23,-3.24zm-121.31 -1.31c2.4,-0.15 3.04,-1.26 4.96,0.9 0.66,0.73 0.83,1.86 0.88,2.72 0.28,5.27 0.04,0.5 -0.76,2.59 -0.22,0.08 -1.53,2.46 -4.07,-0.05 -1.9,-1.86 -1.25,-3.69 -1.01,-6.16zm356.34 -1.12c4.49,1.68 4.74,1.53 4.73,6.97l-8.69 -1.39c0.19,-4.46 1.03,-4.18 3.96,-5.58zm-321.75 -5.24c4.2,6.6 0.66,5.88 0,6.73 -2.78,-0.85 -3.24,0.98 -3.1,-3.38 0.09,-2.73 1.08,-2.6 3.1,-3.35zm153.17 -0.41c5.3,0.03 6.06,1.41 5.96,6.24l-6.28 -0.48 0.32 -5.76zm-257.53 0.62c1.77,0.02 2.54,-0.68 4.22,0.77 0.9,0.77 0.88,-0.79 1.2,2.18 0.49,4.62 -3.1,3.87 -6.08,2.45 -0.91,-3.32 -0.87,-2.18 0.66,-5.4zm155.3 -2.38c6.01,-1.13 7.37,0.96 7.73,6.08l-7.28 0.5 -0.45 -6.58zm41.42 -2.44c1.56,5.51 0.35,9.32 -6.24,6.21 -1.43,-6.03 0.45,-6.96 6.24,-6.21zm-25.76 -1.25c6.42,-0.03 8.02,3 4.96,8.21 -7.03,3.19 -6.66,-3.23 -4.96,-8.21zm33.88 7.46c0.3,-4.39 5.02,-11.16 8.43,-5.91 3.43,5.28 -2.22,9.33 -8.43,5.91zm40.15 -9.49c1.93,2.08 2.37,2.3 3.15,5.44 -1.82,1.56 -6.09,5.51 -8.58,1.69 -3.71,-5.67 1.17,-7.05 5.43,-7.13zm-171.45 1.36c5.22,-0.97 6.17,-0.43 5.73,4.7 -4.55,1.47 -6.32,0.34 -5.73,-4.7zm-5.16 -8.02c0.74,9.14 -1.57,17.37 -9.89,20.78 -4.15,1.71 -2.99,1.83 -6.45,4.17 -6.17,2.12 -17.35,-1.73 -22.13,-6.17l0.01 -6.22c7.2,-0.7 18.09,14.91 20.05,-4.2 -6.09,0.96 -8.33,1.71 -14.56,0.33 -1.79,-8.94 0.12,-4.41 5.25,-7.91 3.03,-2.06 2.98,-5.05 7.12,-6.31 8.91,-2.73 17.11,1.12 20.6,5.53zm160.48 2.08c2.9,-2.29 2.78,-0.78 3.79,0 -2.88,2.03 4.13,1.41 -1.53,0.91 -2.35,-0.2 -0.76,0.11 -2.26,-0.91zm-29.56 1.86l-0.19 -4.62c7.82,0.02 4.91,4.39 3.01,4.63 -1.75,0.21 -0.92,0.2 -2.82,-0.01zm-16.21 -5.55c9.83,-4.48 7.89,10.09 0.72,5.69 -0.32,-0.2 -1.46,-1.67 -1.59,-2.2 -1.19,-4.52 0.82,-3.41 0.87,-3.49zm67.79 -1.15c4.14,0.87 4.39,0.91 5,5.01l-5.25 0.57 0.25 -5.58zm-38.09 0.78c5.14,-0.79 6.48,1.91 8.67,5.01 3.24,4.58 2.73,4.13 6.49,7.96 0.95,7.39 -0.34,4.16 2.89,10.37 2.01,3.86 0.09,5.8 3.54,16.66 1.98,6.26 5.63,33.54 5.1,41.99 -0.46,7.31 -1.92,19.02 1.82,24.22 3.79,-2.2 3.05,-7.27 4.04,-16.49 1.11,-10.36 20.31,-40.33 22.68,-41.04l5.63 0.3c1.77,4.09 1.12,6.44 -3.92,11.34 -3.4,3.3 -5.98,6.45 -3.13,13.05 6.15,4.34 3.98,-2.99 12.35,-3.85 0.59,8.84 0.27,11.18 -10.21,19.89 -16.87,14.04 -8.11,1.93 -15.38,14.65 -7.6,13.31 -4.05,7.04 -3.78,25.81 0.23,16.09 5.12,17.5 5.5,25.92 -5.37,-0.3 -4.52,-0.3 -6.89,-3.85l-14.84 -18.6c-12.46,-8.15 -31.16,-3.78 -32.55,3.2l1.09 6.7c-16.4,-1.8 -7.63,-20.13 -8.03,-22.45 -1.09,-0.59 1.39,-2.69 -6.13,-0.04 -2.44,0.86 -4.49,0.99 -7.1,1.93 -7.69,2.75 -15.5,10.34 -9.37,21.58 3.55,6.51 6.43,5.28 8.68,9.12 -10.06,8.45 -29.56,-6.19 -20.8,-26.63 1.87,-4.36 2.74,-6.08 5.75,-8.73 2.3,-2.02 5,-5.21 7.57,-6.91 7.31,-4.86 18.38,-3.75 22.62,-6.07 -3.47,-3.4 -23.22,-8.77 -30.07,-12.44 -41.65,-22.33 -17.03,-86.4 18.2,-57.4l0.41 14.69c-4.04,3.24 -4.07,5.23 -7.07,6.67 -5.42,2.03 -8.75,-0.26 -11.18,-3.51l0.13 -6.77 10.32 -0.86c-0.86,-7.24 -5.36,-9.74 -13.46,-8.8 -6.46,0.75 -8.81,5.73 -10.55,12.91 -2.12,8.73 -3.08,9.95 0.61,19 5.45,13.35 5.19,7.5 15.28,19.19 3.95,4.58 15.43,3.24 25.49,10.09 11.6,7.89 28.94,9.26 28.2,18.67 3.64,-1.42 0.89,-1.27 5.88,-1.14 4.66,5.51 11.96,15.54 15.44,16.82 0.27,-6.23 -2.51,-8.02 -3.84,-13.11 -1.47,-5.63 -0.09,-9.17 -3.1,-13.69 -6.83,-10.27 1.25,-18.62 -7.74,-26.44 -0.67,-12.3 -3.51,-12.92 -13.28,-27.19l-8.15 -11.88c-1.17,-2.18 -2.2,-5.82 -2.35,-7.98 -0.17,-2.32 -0.23,-3.28 0.59,-5.13 1.2,-2.69 2.1,-2.39 3.06,-3.1 5.28,3.95 5.03,10.49 12.25,11.4 6.92,-6.39 1.95,-11.06 -0.18,-17.4 -4.24,-12.66 -7.43,-9.53 -7.18,-17.64zm-48.24 5.17l-0.04 -5.22c3.71,-0.91 5.35,-0.46 7.71,0.67 -0.15,4.86 -2.45,6.55 -7.67,4.55zm276.11 -1.76c-0.36,-3.58 -1.1,0.5 -0.07,-2.62l5.38 -1.42 0.05 3.58 -5.36 0.46zm-199.6 -1.86l-6.4 0.56c-0.39,-3.75 -1.11,-5.88 3.1,-5.53 3.12,0.26 3.34,1.77 3.3,4.97zm-129.5 1.97c-2.59,0.47 -13.5,2.4 -14.5,2.32 -2.43,-4.26 -2.84,-6.03 2.86,-7.29 7.74,-1.71 3.53,-3.37 10.01,-3.66 3.6,3.33 3.6,3.47 1.63,8.63zm241.07 -6.2c0.1,0.16 4.59,1.18 -1.11,3.58 -0.01,-0.01 -4.28,-1.13 1.11,-3.58zm-345.98 -5.77l-0.94 7.98 -6.21 0.47c-0.17,-7.15 0.1,-8.87 7.15,-8.45zm22.44 -0.3c4.43,-0.11 5.81,1.35 5.79,5.75 -5.89,2.53 -8.53,0.21 -5.79,-5.75zm331.5 0.79l5.94 -0.13c1.18,8.85 -7.28,7.11 -5.94,0.13zm21.18 -5.12l-0.02 4.86c-3.63,1.4 -4.27,2.42 -7.97,0.26 -3.83,-7.59 3.62,-7.6 7.99,-5.12zm-226.59 8.83c-0.88,12.27 -6.12,18.1 -10.19,27.81 -1.87,4.47 -2.65,9.26 -4.9,14.1 -2.14,4.61 -3.64,9.07 -5.14,14.27l-0.71 -0.14c-1.81,6.31 -3.99,11.55 -5.73,18.08 -1.95,7.37 -1.2,13.75 -0.78,22.13 1.94,4.46 8.41,8.62 10.59,10.55 3.23,2.86 10.7,6.66 11.95,11.85 -15.57,2 -73.06,-3.57 -81.57,1.56 -0.17,7.32 0.17,0.26 2.88,7.22 -1.85,3.01 -2,3.68 -5.79,4.04 -2.98,-4.83 -0.34,-6.33 -1.62,-12.61 -10.93,-1.67 -14.03,5.33 -23.41,-1.45 3.4,-11.1 13.32,-2.92 39.03,-30.11 12.84,-13.58 14.28,-27.84 24.28,-44.74l25.3 -60.43c3.06,-9.91 16.06,-36.95 17.1,-42.97 1,-5.85 -0.53,-2.1 2.45,-6.53 5.11,-7.62 21.11,-50.33 25.67,-61.25 1.67,-3.99 3.53,-7.56 5.27,-11.34l16.59 -35.57c4.38,-12.02 4.28,-7.49 7.15,-18.65 0.82,-3.17 1.71,-2.68 3.11,-5.69 1.15,-2.48 0.94,-3.9 1.92,-5.88 1.42,-2.87 2.16,-1.9 3.79,-5.15 2.33,-4.62 1.97,-7.66 5,-12.78 5.78,-9.79 5.72,-26.02 7.18,-28.27 2.59,3.44 0.86,3.32 1.49,9.78 0.37,3.84 1.52,4.45 3.5,6.66 0.28,14.32 -0.43,16.45 5.82,27.06 6,10.19 13.08,35.19 16.69,47.96 1.32,4.68 2.97,5.04 4.79,10.61l13.59 35.47c1.7,3.98 4.54,7.23 5.35,10.41 1.33,5.25 0.62,8.05 3.62,12.95 3.23,5.3 31.72,81.68 35.5,93.67 1.33,4.24 2.08,6.74 4.35,11.32l14.28 34.58c1.27,2.93 2.95,8.66 4.06,11.72 5.92,16.21 6.48,18.91 16.62,32.17 10.14,13.25 2.49,5.59 16.72,15.52 14.49,10.12 20.25,2.61 20.79,11.71 -7.82,4.14 -35,0.76 -44.89,-0.46 -5.44,-0.67 -9.45,0.89 -15.4,0.83 -6.44,-0.06 -58.07,2.5 -64.06,-1.48 2.25,-6.57 0.09,0.76 7.93,-9.37 4.9,-6.32 19.06,-13.45 9.74,-38l-23.65 -65.28c-1.59,-5.53 -1.63,-9.86 -6.95,-10.49l-34.34 1.08c-12.33,0.04 -20.97,0.4 -33.4,-0.58 -5.38,-0.42 -12.15,0.7 -17.82,0.82 -8.12,0.16 -9.74,-1.48 -13.75,3.29zm254.34 -5.16l-0.48 -4.32c4.32,-1.91 5.53,-1.52 8.2,1.09 -1.55,4.05 -2.92,3.77 -7.72,3.23zm-71.38 -5.46c2.09,0.25 2.57,-1.42 3.68,1.42 1.85,4.72 -1.33,3.42 -1.44,3.54 -2.74,-1.81 -2.85,0.93 -2.24,-4.96zm105.02 2.23c3.3,-2.24 3.23,-1.32 4.77,1.11 -3.09,2.26 -3.07,1.1 -4.77,-1.11zm-46.42 0.74c-4,2.01 -3.48,1.92 -7.68,0.69 -0.96,-3.13 -2.08,-5.68 2.51,-6.41 5.11,-0.82 5.54,1.63 5.17,5.72zm-296.92 -7.31c5.68,0.11 7.91,2.51 6.53,8.45l-6.59 0.56c-2.92,-4.68 -2.69,-4.28 0.06,-9.01zm228.4 25.55l14.62 -15.39c5.06,-3.87 1.28,0.25 6.59,-7.89 7.74,-11.87 13.56,-3.22 13.16,-0.15 -2.82,6.33 -10.94,7.15 -15.94,13.02 -4.38,5.15 -12.97,9.3 -18.43,10.41zm-213.01 -27.11c4.89,-2.26 4.36,-1.56 5.93,0.43 1.26,2.95 0.73,2.33 -0.15,5.44l-5.58 0.27c-1.05,-2.77 -0.76,-0.11 -0.94,-2.73 0,0 -0.96,-0.31 0.74,-3.41zm285.4 0.07l-0.41 -7.54c6.83,-0.53 7.23,0.93 7.07,7.25l-6.66 0.29zm35.76 -10.56c4.45,0.4 5.78,1.68 6.5,6.32 0.84,5.36 0.23,9.08 -2.14,12.42 -2.98,4.18 -2.43,6.39 -4.77,9.72 -3.01,4.29 -5.48,3.23 -5.24,8.96 5.71,1.71 9.78,-1.34 11.74,4.58 -1.61,1.46 -11.99,5.94 -14.23,6.26 -16.58,2.36 -42.35,-11.01 -48.62,-9.11 -4.6,1.38 -1.64,0.52 -2.48,2.96 4.52,1.86 14.47,1.08 33.15,13.45 13.78,9.11 22.28,30.27 20.25,49.94 -1.22,11.79 -6.63,-6.84 -6.94,40.07 -0.04,6.71 -0.94,13.52 -8.5,14.13l-1.37 -6.95c-8.82,-2.36 -9.53,10.15 -8.16,18.07 0.82,4.81 9.05,14.03 13.87,15.2 1.75,-1.06 1.98,-0.89 3.52,-2.43 2.85,-2.87 0.97,-0.07 2.12,-3.78 -8.97,-6.31 -7.99,-0.58 -8.72,-10.89l-1.64 -0.86c-0.18,-0.09 -0.64,-0.21 -0.84,-0.33 -2.32,-1.34 -0.98,0.55 -2.26,-2.15 2.8,-2.01 1.1,-1.03 5.62,-1 9.29,0.06 5.03,-2.55 16.83,5.13 1.36,13.39 -4.14,13.47 -10.01,20.33 -7.65,0.17 -14.91,-4.01 -18.94,-7.9 -9.26,-8.95 -8.07,-30.32 -0.76,-40.55 4.96,-6.94 10.53,-12.35 10.25,-17 -6.72,0.04 -6.06,4.35 -15.93,2.67 -23.92,-4.09 -24.48,-15.5 -23.67,-39.63 7.08,-2.64 3.61,-1.91 11.03,-1.41 2.95,-3.22 1.05,-2.27 4.45,-4.64 7.31,-0.21 9.73,1.22 13.29,5.04 2.74,2.93 5.94,7.21 3.51,12.15 -5.01,6.29 -11.63,-0.15 -21.24,0.77l-0.02 10.65c4.25,3.8 7.25,8.51 14.51,9.32 19.21,2.13 31.68,-22.35 17.29,-43.63 -7.9,-11.68 -7.6,-11.34 -18.34,-18.39l-25.47 -11.03c-4.13,-1.6 -18.6,-2.48 -22.6,-0.01 2.08,1.21 -1.94,0.5 3.42,1.16 1.96,0.24 2.95,-0.08 5.16,0.39 6.09,1.29 18.65,5.78 19.12,11.73 -8.83,1.15 -7.5,-3.65 -14.19,2.31 -0.22,4.87 1.84,6.02 0.53,10.4 -0.46,1.57 -3.16,7.25 -4.43,8.85l-5.93 -0.6c0.11,-1.52 12.88,-22.61 -18.64,-28.06 -4.56,-0.8 -8.35,-0.54 -8.46,-5.08 -0.19,-8.16 29.09,-8.06 34,-8.08 3.06,-7.54 7.34,-5.1 27.38,-5.5 11.03,-0.21 10.39,-2.07 19.81,-3.81 10.8,-1.99 23.88,-11.83 28.03,-19.33 -0.1,-4.1 -2.02,-6.16 -0.84,-10.83zm-11.79 5.26l3.66 -3.33c3.93,0.87 4.21,1.09 5.87,4.44 -2.57,4.5 -7.46,6.38 -9.53,-1.11zm-390.13 -2.32c4.73,-2.72 5.86,-1.85 12.23,-2.14 2.05,-4.34 1.51,-7.55 5.36,-10.98 4.44,3.68 4.57,8.97 7.05,15.07 1.3,3.19 6.84,14.03 6.85,15.27 -6.91,1.64 -9.72,0.18 -16.17,0.43 -6.55,0.25 -7.91,3.58 -13.91,-0.27 -0.38,-3.91 1.13,-3.94 2.47,-7.27 -1.48,-4.82 -3.33,-4.21 -3.88,-10.11zm311.68 -1.92l5.2 -0.18c0.71,9.19 -9.09,8.61 -5.2,0.18zm-236.88 5.78c-7.17,1.38 -6.53,-3.41 -3.77,-7.35l4.67 -0.05c1.15,4.89 0.96,3.32 -0.9,7.4zm335.23 -5.99c1.88,-1.07 -2.44,-1.56 2.82,-1.18 3.92,0.28 3.35,2.21 2.18,5.41 -5.47,-0.69 -4.13,0.22 -5,-4.23zm-31.89 -1.1c7.23,-0.1 8.04,0.09 7.89,6.89l-6.96 -0.65 -0.93 -6.24zm-410.58 2.21c2.52,-2.81 3.02,-3.63 7.29,-2.89 1.59,3.24 1.4,5.46 0.07,8.06 -7.03,0.84 -5.53,-1.62 -7.36,-5.17zm122.39 -11.19c2.83,2.6 2.68,2.3 1.74,7.44 -2.83,0.3 -4.11,0.36 -4.7,-2.02 -0.82,-3.36 1.78,-4.68 2.96,-5.42zm268.31 0.09c3.65,1.1 4,1.03 4.25,5.42 -3.46,0.68 -4.75,0.36 -7.28,-1.17 1.17,-4.3 0.07,-2.25 3.03,-4.25zm42.36 2.19c0.2,-6.97 5.37,-5.28 7.34,0 -3.54,2.78 -4.57,2.38 -7.34,0zm-323.95 3.31l-0.28 -6.45 6.17 0.1c1.2,5.22 -0.25,6.84 -5.89,6.35zm-11.41 -5.53c0.18,-0.07 -0.1,-2.08 3.51,-1.25 3.38,0.77 1.84,0.65 2.29,3.47 -3.04,1.97 -1.46,1.38 -5.57,1.2l-0.23 -3.42zm248.86 1.93c-0.67,-2.54 -1.86,-3.57 0.39,-5.65 2.53,-2.34 3.71,0.31 3.73,0.32 1.81,3.98 0.72,5.75 -4.12,5.33zm65.09 -5.15c1.02,4.78 -4.87,3.02 -7.55,2.07 -0.33,-4.22 -0.81,-1.69 0.83,-4.68 0.42,-0.18 -1.39,-1.58 3.23,-0.65l3.49 3.26zm-107.23 -4.14c2.95,0.56 4.47,0 5.34,3.08 1.06,3.7 -1.15,4.39 -1.28,4.59 -5.69,1.84 -4.8,-3.17 -4.06,-7.67zm121.46 5.99c-2.81,1.64 -4.35,-0.46 -4.87,-0.38l-0.84 -5.48 7.23 0.55c0,2.4 0.48,4.13 -1.52,5.31zm-360.27 -6.35c5.14,0.12 5.49,1.3 5.17,6.47l-5.34 -0.76c-1.56,-3.43 -1.19,-2.34 0.17,-5.71zm-56.72 -0.13c6.68,-3.59 8.7,6.96 0.06,6.56 -3.12,-6.65 -0.12,-6.47 -0.06,-6.56zm366.01 -4.27c0.37,2.16 1.64,8.19 2.79,9.57 3.56,4.25 4.53,-1.45 6.33,6.12 -7.4,0.43 -11.61,-0.07 -14.16,-5.12 -3.32,-6.58 0.96,-8.7 5.04,-10.57zm-322.54 3.3c5.04,-0.7 7.51,-0.19 7.09,5.19l-7.34 -0.47c-0.72,-1.68 -0.99,-1.7 0.25,-4.72zm-50.59 1.49c1.48,4.82 -0.49,2.9 -0.73,3.46l-4.18 -0.3 1.92 -5.9c1.59,0.81 2.4,0.8 2.99,2.74zm126.7 -4.21c1.26,7.15 -0.76,8.06 -5.87,4.85l0.68 -5.24 5.19 0.39zm261.56 21.37c-2.68,8.66 -6,10.05 -16.09,9.48 -18.76,-1.05 -33.69,-36.11 -5.3,-35.9 0.18,12.58 -8.61,11.18 0.04,20.79 5.37,5.97 11.72,4.74 21.35,5.63zm-282.04 -17.44c-3.84,-0.28 -1.71,-0.57 -2.62,-1.03 -1.53,-3.14 -1.17,-1.6 -0.58,-5.78l6.87 0.6c0.28,0.88 0.73,2.11 0.8,2.84 0.16,1.9 -0.4,2.2 -0.6,2.77 -1.24,0.34 -2.02,0.73 -3.87,0.6zm-33.22 -6.62c12.62,-1.11 18.09,20.28 17.77,23.13 -1.6,3.46 -6.47,11.79 -8.79,13.71 -2.14,1.78 -4.72,2.48 -7.01,4.05 -2.96,2.02 -5.91,6.16 -9.35,1.63 -0.95,-1.25 -0.73,-1.55 -1.4,-3.13 -4.02,-9.53 -1.69,-20.43 1.85,-22 6.12,-0.15 3.68,0.63 7.79,2.33 13.39,-8.74 -0.13,-13.3 -0.86,-19.72zm19.86 -2.47c1.69,3.37 1.26,3.15 -0.25,6.48 -4.18,-0.3 -6.54,-2.37 -4.28,-6.58 2.99,-1.74 1.45,-1.59 4.53,0.1zm-72.94 -1.55c0.13,-0.07 -0.47,-1.95 6.12,-0.58 0.28,5.47 -1.23,7.52 -5.98,5.92 -3.06,-2.58 -0.2,-5.22 -0.14,-5.34zm279.42 2.14c-1.82,-4.22 -2.04,-3.98 0.53,-7.29 2.41,0.44 4.4,-0.12 3.72,4.42 -0.46,2.98 -1.65,2.96 -4.25,2.87zm-298.97 -7.13c6.82,-1.26 8.57,3.14 4.96,7.09 -4.52,0.97 -5.77,-1.34 -4.96,-7.09zm373.51 3.81c-1.75,-5.16 -0.84,-9.13 4.29,-7.75 1.74,4.32 1.16,8.12 -4.29,7.75zm-64.58 -6.18c1.15,-2.75 2.69,-2.95 5.04,-3.94 4.65,2.81 3.83,3.48 2.63,8.75 -4.41,1.26 -6.81,0.54 -7.67,-4.81zm57.35 -5.57c2.09,3.32 1.42,3.61 1.03,7.96 -6.35,0.4 -8.17,-2.85 -5.48,-7.96 2.86,-1.29 1.28,-1.39 4.45,0zm-18.8 5.57c-0.1,1.88 -0.58,2.1 -0.77,2.59 -4.08,1.34 -5.43,-1.94 -4.89,-6.97l5.28 0.15c0.27,1.94 0.5,2.08 0.38,4.23zm40.99 -12.25c0.47,4.59 -0.08,4.78 -3.25,6.31 -3.85,-1.55 -3.69,-1.33 -3.45,-6.88l6.7 0.57zm-37.27 -1.79c2.06,0.85 5.72,7.12 -0.5,7.4 -5.35,0.25 -0.35,0.2 -3.07,-0.92l0.47 -6.09c0.98,-0.44 -2,-2.49 3.1,-0.39zm45.8 28.11c1.53,-4.12 21.62,-30.66 35.79,-31.02l-2.7 14.72c2.86,3.44 1.92,2.78 7.3,3.39 1.86,4.76 9.73,11.67 5.08,23.83 -6.09,-5.98 -6.79,-14.3 -17.11,-15.22 -16.49,-1.46 -15.66,2.1 -28.36,4.3zm43.89 -21.9c-8.27,-5.24 -3.23,-8.41 4.36,-10.12 0.31,6.51 1.48,8.63 -4.36,10.12zm-123.44 22.02c2.36,1.12 1.15,2.79 6.92,3.71 3.08,-5.12 2.14,-11.76 -0.63,-18.76 -3.85,-9.71 -11.44,-4.94 -11.91,-12.54 25.28,-4 29.22,29.82 27.18,38.41 -3.32,13.91 2.58,2.36 -8.65,24.73 -2.79,5.55 -4.94,12.54 -9.65,16.08 -8.28,6.22 -4.33,-5.75 -5.69,-19.11 -0.74,-7.26 -4.46,-9 -5.77,-16.18 4.81,0.12 7.84,1.26 6.42,-5.54 -0.52,-2.49 -4.8,-13.92 1.78,-10.8zm17.12 -31.91c4.8,-0.62 2.42,-0.59 5.99,1.03l-1.17 5.24c-6.12,0.95 -8.04,-1.28 -4.82,-6.27zm-44.93 6.89c0.18,-4.31 -0.24,-3.72 2.06,-6.93 12.67,-2.36 6.05,6.71 5.49,13.19 -2.95,-1.42 -4.31,-3.44 -7.55,-6.26zm-198.33 -0.39c-5.85,-0.93 -7.07,-6.81 2.33,-6.69 0.09,5.2 0.53,3.75 -2.33,6.69zm-35.49 -9.14c-0.3,4.82 -0.28,5.2 -3.48,6.59 -2.96,-2.84 -2.37,-1.98 -2.59,-6.45l6.07 -0.14zm-58.33 -2.1c4.34,1.29 3.72,0.63 3.73,5.89l-3.43 0.05c-1.3,-1.88 -3.02,0.2 -0.3,-5.94zm63.76 0.15c5.5,0.53 5.26,3.69 2.22,6.47 -3.44,-1.6 -3.72,-3.22 -2.22,-6.47zm13.36 5.34c-3.39,-2.74 -3.9,-2.64 -1.98,-7.21 9.93,-1.48 10.99,7.1 1.98,7.21zm243.87 -4.18c0.52,-4.93 2.14,-3.79 7.67,-3.16 -0.78,4.9 -2.95,6.02 -7.67,3.16zm-181.36 -4.49c2.67,-2.02 5.86,0.06 7.41,1.17 -0.23,4.67 -0.48,4.94 -4.24,6.76 -3.68,-2.16 -3.87,-2.25 -3.17,-7.93zm199.15 -3.17c5.19,-0.42 6.41,1.08 5.38,6.75l-7.36 -0.08 1.98 -6.67zm-300.31 3.2c2.44,-2.7 2.91,-2.49 7.38,-3.38 0.3,12.48 -7.49,10.57 -7.38,3.38zm394.44 1.6c-1.09,-6.13 1.49,-8.85 5.16,-5.18 3.83,3.83 0.14,6.86 -5.16,5.18zm-37.62 -4.69c3.03,5.91 -2.28,8.55 -5.48,6.56 -4.28,-2.67 -2.09,-8.52 5.48,-6.56zm-42.85 -4.28c3.07,-0.21 4.83,-0.3 4.92,2.94 0.1,3.61 -1.68,3.53 -5.23,2.92l0.31 -5.86zm-42.54 12.29l-4.37 0.31 -1.88 -5.54c-2.16,-3.34 -3.87,-0.46 -1.64,-5.18 2.01,0.5 7.97,6.11 8.56,5.04 0.13,-0.24 0.52,0.3 1.02,0.53l-1.69 4.84zm-21.78 -5.04c-3.96,-4.14 -2.69,-4.75 -2.38,-11.81 4.76,0.76 7.98,4.6 8.75,9.71 -2.61,2.35 -2.06,2.41 -6.37,2.1zm-230.24 -2.36c-3.02,1.45 -2.08,1.81 -5.38,0.38 -1.33,-2.9 -1.37,-2.46 0.12,-5.79 4.36,-0.09 5.23,0.99 5.26,5.41zm383.01 -11.21c4.52,1.8 7.52,3.46 6.82,9.14l-5.71 -0.06 -3.2 -4.35 2.09 -4.73zm-373.66 3.61l-0.65 5.15c-4.16,1.17 -6.11,0.12 -6.02,-5.12l6.67 -0.03zm-68.05 -0.68c1.54,2.73 1.32,1.48 0,3.68 -4.16,-2 -1.74,-2.75 0,-3.68zm146.52 -3.01c8.98,-3.77 10.28,9.96 -1.56,7.89 -0.04,-1.67 -0.11,-3.36 0.18,-4.82 1.06,-5.33 0.28,-1.23 1.38,-3.07zm-110.91 4.87c-8.91,3.41 -11.59,-9.32 -0.41,-8.49 1.21,4.14 2.3,4.81 0.41,8.49zm353.07 -3.41c-0.62,-4.86 -0.89,-4.76 2.1,-7.58 3.56,1.58 4.47,3.12 4.05,7.62l-6.15 -0.04zm-252.42 -10.68c3.54,1.62 7.86,5.51 8.89,9.63 -3.57,2.35 -5.02,1.66 -10.16,1.67l1.27 -11.3zm-90.98 10.28c-3.87,1.19 -2.83,-0.64 -3.42,-0.63l-0.3 -3.13c1.86,-2.19 4.77,-0.36 6.08,0.89 -0.73,1.78 -0.51,2.3 -2.36,2.87zm48.54 -7.65c1.8,3.34 1.35,1.42 0.74,5.89 -5.11,1.68 -7.98,-0.28 -5.75,-5.79 3.09,-1.49 1.69,-1.52 5.01,-0.1zm346.03 2.55c-3.23,1.74 -0.56,1.7 -3.37,0 0.88,-0.83 0.61,-5.58 3.37,0zm-58.56 -1.65c-2.23,0.17 -3.44,-0.01 -4.89,-0.06 -0.14,-4.25 -0.86,-1.99 0.83,-5.1 1.39,-0.78 -1.4,-1.7 4.75,-1.69l-0.69 6.85zm-64.08 -6.35l7.18 0.13 -0.62 6.9 -6.68 -1.17 0.12 -5.86zm-260.75 7.87l-5.67 0.39 -1.48 -5.85 7.61 0.1 -0.46 5.36zm103.53 -9.6c0.44,2.26 1.45,3.51 -0.56,5.61 -3.55,3.71 -5.04,0.02 -5.05,0.02 -3.1,-5.59 0.1,-8.41 5.61,-5.63zm212.13 1.12c0.47,2.41 -0.11,2.8 -1.43,5.7 -4.53,-1.75 -6.14,-2.67 -5.53,-8.42 1.02,-0.64 5.99,-2.25 6.96,2.72zm-63.57 -1.43c4.82,10.45 -6.21,8.18 -5.15,0.5l5.15 -0.5zm-228.47 2.31c-1.27,-3.86 -1.81,-5.48 1.2,-8.67 4.12,2.58 6.78,7.72 -1.2,8.67zm361.03 -9.89c8.08,-1.27 8.65,1.51 7.45,7.54 -3.24,1.07 -4.5,1.58 -8.1,-1.08l0.65 -6.46zm-108.32 4.26c3.03,-2.66 4,-2.83 9.14,-2.09l-0.3 9.66c-6.51,0.47 -8.41,-2.06 -8.84,-7.57zm-13.11 -7.71l5.44 0.03c1.34,2.37 1.78,3.92 0.85,7.74l-6.77 0.02 0.48 -7.79zm-297.01 5.48c3.16,-2.96 5.71,-3.64 9.2,-1.82 0.53,4.26 -1.34,6.61 -2.71,9.76 -4.4,-0.78 -3.23,-0.61 -6.48,-2.8l-0.01 -5.14zm-24.76 -1.11c3.02,-1.18 6.87,-0.39 4.71,3.68 -1.85,3.48 -5.75,2.33 -4.71,-3.68zm43.29 1.2c-1.23,-3.03 -0.46,-3.07 0.66,-5.99 5,0.33 6.97,0.89 5.73,6.99l-6.39 -1zm100.14 -4.54c-0.13,7.22 -6.36,8.15 -7.59,4.28 -1.64,-5.16 2.68,-8.24 7.59,-4.28zm166.79 -4.76c5.36,-2.03 6.8,1.85 5.37,7.93l-6.07 -1.03c-0.9,-4.61 -1.36,-3.29 0.7,-6.9zm-12.41 9.79c-4.43,-2.19 -1.55,-7.26 -0.98,-8.57l4.65 0.41c1.63,3.39 2.32,3.85 0.28,7.6 0,0 0.56,2.78 -3.95,0.56zm72.45 -9.8c3.55,-2.2 5.63,0.73 7.27,3.66 -1.55,3.47 -1.11,3.22 -4.78,4.28l-3.47 -2.06 0.98 -5.88zm-274.33 0.09c2.33,2.45 0.29,4.14 -0.11,4.94 -5.43,2.46 -7.27,0.34 -6.79,-5.72 2.52,-0.32 5.02,-1.18 6.9,0.78zm238.75 5.79c-2.16,-5.15 -2.1,-6.32 2.52,-8.88 4.32,1.19 2.56,0.28 4.7,3.32 -0.15,5.68 -1.02,6.22 -7.22,5.56zm-171.83 -0.39c-1.19,-5.44 -0.09,-8.32 5.92,-7.15 0.72,4.29 0.75,5.24 -1.98,8.56l-3.94 -1.41zm-6.02 -5.14c-0.32,4.73 -0.19,4.13 -3.33,6.23 -4.62,-0.64 -5.34,-1.61 -5.03,-7.19l8.36 0.96zm250.45 -3.37c2.24,-2.41 3.46,-2.27 5.66,-1.32 0.16,0.14 4.87,8.48 -5.74,5.87l0.08 -4.55zm-394.1 58.97c0.67,-9.88 -4.12,-13.31 -4.99,-15.99 -0.13,-0.41 -2.29,-18.15 -2.28,-18.28 1.44,-11.03 6.64,-23.47 16.46,-24.68 -1,11.03 -9.22,5.97 -3.25,31 1.16,4.86 3.76,9.94 6.55,13.31 1.46,1.77 7.84,8.38 9.41,9.51 9.61,6.86 17.28,8.17 30.52,8.57 4.41,0.14 5.03,1.19 8.81,1.57 3.07,0.3 5.8,-0.26 8.81,-0.11 20.11,1 10.74,6.05 20.19,0.59 7.39,3.16 12.42,2.87 19.21,5.38 5.39,1.99 10.47,4.97 16.49,6.75 -0.05,9.58 -3.27,6.42 -9.1,3.67 -17.26,-8.14 -16.69,-2.4 -29.48,-5.77 -3.78,-1 -34.4,4.54 -39.36,5.64 -4.58,1.01 -16.12,12.54 -20.08,15.65 -15.39,12.04 -25.87,39.92 -17.09,59.3 8.62,19.03 20.55,28.64 42.71,27.32 10.65,-0.63 21.85,-20.19 22.47,-24.26 2.74,-18.12 -18.26,-24.37 -19.93,-26.77 1.58,-2.84 -1.5,-2.5 4.18,-2.94 2.74,-0.21 12.01,3.31 13.78,4.6 6.02,4.36 5.6,7.35 9.32,14.11 3.86,7.01 -0.41,13.73 -2.41,18.44 -7.21,16.99 -22.34,27.6 -44.45,21.85 -9.43,-2.44 -9.76,-0.78 -16.48,-6.99 -2.91,-2.69 -8.21,-9.75 -11.93,-10.76 -2.38,5.14 9.5,25.89 12.6,31.23 2.22,3.83 8.51,10.68 9.84,13.5 1.69,3.57 0.76,5.55 3.05,8.09 1.53,1.7 4.03,2.81 6.06,4.9 0.41,4.01 0.91,4.49 -0.58,7.48 -5.67,5.97 -1.96,-7.23 -17.72,-6.36 -2.26,3.1 -3.06,3.66 -4.03,9.29l-3.31 -0.4c-3,-4.7 -0.97,-9.43 -2,-15.32 -2.42,-13.83 -5.89,-41.28 -11.8,-53.1 -2.4,-4.8 -3.46,-22.84 -2.58,-28.74 0.93,-6.17 2.78,-3.61 3.08,-12.2 0.34,-9.61 4.79,-17.13 8.73,-24.03 5.57,-9.74 4.51,-6.85 15.72,-16.58 10.43,-9.07 34.74,-19.3 47.18,-15.84l-0.12 -4.5c-0.6,0.26 -17.39,3.14 -20.13,3.69l-20.8 4.28c-0.69,0.06 -21.44,-2.63 -22.04,-2.83 -2.34,-0.78 -5.25,-3.2 -7.93,-4.45l-8.48 -2.77c-1.51,-3.88 -2.98,-4.45 7.18,-6.05zm70.24 -55.64c-4.4,1.8 -0.61,2.06 -7.33,2.65 -1.25,-3.52 -1.77,-4.35 -0.61,-8.34 4.83,-3.7 8.28,-0.98 7.94,5.69zm365.45 -8.93l0.55 6.38c-5.72,0.43 -8.73,0.75 -6.76,-5.35 0.88,-0.57 0.63,-0.84 2.54,-1.24 1.84,-0.39 1.67,0.03 3.67,0.21zm-309.95 4.48c-5.68,8.42 -12.51,-2.18 -3.23,-4.6 3.17,2 2.25,0.16 3.23,4.6zm241.23 -0.59c-0.5,-4.68 1.33,-6.02 5.88,-5.88 1.89,5.67 0.97,10.06 -5.88,5.88zm-376.33 3.24c-2.1,-5.07 -2.97,-5.28 1.61,-10.24 3.02,0.44 4.16,1.53 5.84,2.72 0.12,6.2 -1.27,7.46 -7.45,7.52zm391.69 -7.93c5.61,-3.6 6.95,1.22 4.9,6.11 -6.38,0.72 -8.79,-3.61 -4.9,-6.11zm-92.31 4.68c-5.06,-1.14 -1.88,0.8 -2.86,-2.73 2.99,1.14 1.49,-0.64 2.86,2.73zm-15.84 -3.85c0.27,-4.44 0.69,-5.28 5.18,-5.33 3.51,6.53 -0.52,11.66 -5.18,5.33zm-171.47 -3c10.27,-0.9 6.69,6.59 -0.11,5.9l0.11 -5.9zm-23.91 -1.77c3.23,-1.47 1.3,-1.28 5.43,-0.37 0.68,3.52 1.35,5.71 -2.91,6.51 -1.63,0.31 -1.8,-0.04 -3.37,-0.19 -0.41,-4.42 -0.91,-2.62 0.85,-5.95zm-63.67 2.54c4.03,-6.52 10.46,-2.35 9.2,4.26 -3.46,0.84 -6.8,2.04 -9.2,-4.26zm390.16 2.39c-5.76,-5.62 -0.25,-12.93 4.2,-11.22 2.56,0.98 2.62,3.98 1.38,6.6 -1.9,4.04 -3.47,4.15 -5.58,4.62zm-251.19 -4.61c-1.03,1.34 1.14,1.91 -5.98,3.42 -2.47,-2.73 -3.07,-3.43 -3.48,-8.02 5.72,-0.56 7.12,0.74 9.46,4.6zm-21.87 -5.85c1.99,-0.85 -2.48,-1.51 2.28,-0.61 3.18,0.6 6.53,7.78 -2.85,8.49 -1.12,-4.68 -1.56,-4.25 0.57,-7.88zm152.43 -0.35l6.88 0.96 -0.91 5.47 -5.8 0.02 -0.17 -6.45zm-282.11 4.9c-3.03,-10.79 10.14,-10.13 5.29,1.35 -2.92,0.1 -3.52,-0.19 -5.29,-1.35zm393.24 -0.43c-3.3,0.48 -4.12,-0.26 -6.29,-1.26 -0.23,-4.41 -0.81,-1.95 0.91,-5.21 3.5,-1.86 1.25,-1.62 6.1,-0.44l-0.72 6.91zm-35.16 -1.54c1,-7.92 7.29,-9.59 6.41,-0.17l-6.41 0.17zm-300.99 0.5c-0.53,-4.15 0.09,-4.97 1.64,-7.35 5.05,-0.22 5.85,0.24 6.71,4.55 -2.64,3.09 -3.43,3.79 -8.35,2.8zm316.75 -8.48c5.19,-0.4 5.56,0.42 7.63,3.45 -1.26,3.9 -2.32,4.93 -7.81,4.26l0.18 -7.71zm-220.8 -2.32c4.47,-0.23 3.49,-1.04 7.06,1.32 0.66,5.58 -1.07,5.48 -6.69,5.15l-0.37 -6.47zm-83.24 1.24c0.23,-0.13 4.62,-4.9 4.68,3.76l-5.32 0.37c-0.61,-4.21 -0.8,-1.56 0.64,-4.13zm54.36 -1.09c-1.05,-3.7 1.23,-4.53 1.37,-4.73 4.48,1.05 5.19,2.44 2.23,6.99 -2.64,-0.42 -2.66,1.02 -3.6,-2.26zm-41.89 -3.02c5.76,-0.43 6.27,-0.3 6.42,5.57l-7.94 2.83 1.52 -8.4zm39.59 89.44c-2.01,-1.13 -4.67,-1.53 -6.51,-2.64l-14.9 -15.23c-1.7,-1.92 -2.1,-3.53 -4.09,-5.96 -1.47,-1.79 -3.77,-3.59 -4.98,-5.03 -5.37,-6.39 -7.78,-32.61 -1.92,-47.85 7.49,-19.48 33.88,-20.87 30.29,0.18 -12.58,4.14 -8.65,-2.68 -13.42,-8.2 -10.14,0.73 -14.46,17.17 -13.63,29.62 0.43,6.48 2.4,5.95 8.45,5.38 3.23,-6.53 0.99,-6.63 4.34,-10.16 3.36,2.11 7.64,7.19 8.94,12.62 3.23,13.41 -5.8,9.98 0.98,34.3 1.3,4.64 5.32,7.66 6.45,12.97zm125.35 -91.58c4.48,0.21 5.83,0.51 5.96,5.28l-6.15 0.41 0.19 -5.69zm157.25 4.76c-6.05,1.53 -6.44,-0.76 -6.36,-6.77l6.7 0.73 -0.34 6.04zm-260.1 -1.77c-4.41,6.84 -9.16,2.55 -6.37,-5.35 4.33,0.52 5.41,1.46 6.37,5.35zm-127.18 2.03c-4.05,0.95 -7.32,0.41 -7.42,-3.09 -0.18,-6.09 6.9,-4.46 6.9,-4.46l0.52 7.55zm-30.99 -0.53c-0.1,-5.78 1.64,-6.84 6.93,-7.91l3.72 3.2 -2.27 6.17 -8.38 -1.46zm449.29 -2.31c-0.8,0.79 -0.4,0.87 -1.91,1.57 -2.23,1.03 -1.4,0.29 -2.99,0.42 -10.42,-8.01 6.92,-11.36 4.9,-1.99zm-48.62 -7.86c-0.18,4.41 -1.53,5.25 -6.4,5.17l0.14 -5.72 6.26 0.55zm-324.2 -3.01c4.06,-0.49 5.53,0.44 7.04,3.89 -1.53,4.18 -2.4,4.33 -7.96,4.19l0.92 -8.08zm213.49 4.86c-1.24,-7.98 2.57,-9.73 6.27,-4.31 -0.93,3.71 -1.8,4.66 -6.27,4.31zm-183.54 0.76c-1.37,-7.45 0.11,-9.06 6.78,-7.65l0.4 5.08c-2.45,1.83 -3.75,2.67 -7.18,2.57zm-16.53 -4.58c-1.05,-7.11 4.66,-7.92 7.31,-5.09 3.64,3.9 -1.56,6.62 -7.31,5.09zm-79.09 -5.44c4.12,-1.97 2.31,-1.77 7.02,-0.33l-0.4 6.98c-5.65,1.72 -7.72,-1.16 -6.62,-6.65zm384.53 -1.71c0.46,8.34 -6.93,8.73 -6.79,-0.52l6.79 0.52zm-87.29 -0.77l5.13 -0.21 0.53 6.3 -6.1 -1.15 0.44 -4.94zm-53.6 1.1c3.49,-0.94 6.04,-0.2 8.87,0.55 -0.71,3.41 -1.23,5.43 -5.9,4.76 -3.6,-0.51 -3.59,-1.87 -2.97,-5.31zm-110.96 -2.16c2.61,-0.16 5.57,0.89 5.63,4.13 0.08,3.96 -2.21,3.35 -6.4,2.79l0.77 -6.92zm-15.93 5.88c0.48,-5.76 7.38,-7.62 6.9,-0.04 -3.99,2.19 -2.95,2.28 -6.9,0.04zm281.89 0.38c-2.68,1.33 -3.86,0.11 -6.35,-1.02l0.25 -6.08 5.29 0.26c0.17,0.26 0.44,0.55 0.52,0.76 0.08,0.22 0.35,0.57 0.42,0.85l-0.13 5.23zm31.63 -3.33c0.53,4.62 -0.29,1.31 -0.9,2.54 -5.1,1.72 -7.07,-0.65 -7.72,-5.63 3.53,-0.58 8.07,-1.6 8.62,3.09zm-146.85 -6.7c7.05,-1.23 4.73,0.04 6.2,0.84l0.54 5.07c-6.26,0.35 -7.29,0.46 -6.74,-5.91zm-127.79 5.79c-3.89,-1.02 -2.84,0.1 -3.65,-3.7 5.04,0.78 2.75,-1.21 3.65,3.7zm213.77 -7.2c3.75,3.74 -1.58,3.81 -3.83,3.84 0.06,-2.11 0.5,-7.16 3.83,-3.84zm-379.78 -3.45l6.01 1.12 0.04 5.88 -6.36 0.14 0.31 -7.14zm442.4 1.15c7.08,-4.12 11.46,5.62 1.2,6.15l-1.2 -6.15zm-412.11 -1.18c1.88,5.99 -0.42,7.09 -6,6.99 -1.28,-2.09 -2.02,-2.86 -2.17,-6.81l8.17 -0.18zm361.3 1.61c-1.42,-4.42 -1.29,-6.59 2.28,-8.89 5.66,2.72 5.75,8.89 -2.28,8.89zm-80.06 -5.68c-0.36,6.88 -5.44,7.05 -6.64,2.26 -0.29,-1.17 -0.04,-0.83 0.02,-2.51l6.62 0.25zm-57.82 -0.13l-0.09 3.53c-3.93,2.48 -5.88,1.42 -6.45,-3.3l6.54 -0.23zm-241.92 -3.95c3.3,0.32 10.63,7.96 0.21,9.96 -3.28,-3.13 -4.37,-4.62 -2.52,-9.33 2.2,-0.89 -2.51,-1.1 2.31,-0.63zm418.23 0.44l8.69 0.09c-0.21,3.8 -0.04,4.28 -2.57,5.89 -1.96,1.24 -3.58,1.52 -6.57,1.22l0.45 -7.2zm-72.02 -2.58l-0.23 3.69 -3.44 -0.26 -0.12 -3.48 3.79 0.05zm-11.83 40.04c-5.94,-0.39 -6.7,-2.23 -9.67,-5.32 -10.47,-10.87 -20.83,-14.86 -21.54,-21.33l9.17 -2.15c0.57,-3.61 -4.67,-17.98 2.26,-15.4 1.58,0.59 7.92,8.1 11.81,10.06 4.69,-2.24 2.65,-3.63 9.19,-4.33 0.01,3.66 0.02,7.82 -0.17,11.46 -0.24,4.41 -1.17,4.76 -1.65,7.9 -0.9,5.94 0.81,12.65 0.6,19.11zm-152.56 -40.65c-0.93,12.71 -11.8,-3.48 0,0zm-127.55 6.34c-10.15,1.2 -6.02,-8.19 -4.53,-8.97 2.19,-1.14 5.24,0.64 5.98,2.09 1.84,3.61 0.24,4.07 -1.45,6.88zm-19.46 -8.26c4.56,-0.82 3.46,-1.16 7.06,0.64 3.1,7.9 -8.59,10.33 -7.06,-0.64zm271.19 6.23c-6.54,-0.1 -9.8,-9.02 0.05,-7.96l-0.05 7.96zm-317.99 -2.83c-0.01,-7.36 3.32,-9.22 6.81,-3.49 -1.98,3.41 -1.64,3.51 -6.81,3.49zm162.06 -7.95c4.44,-5.07 7.52,-4.37 7.4,2.18 -0.04,1.89 -0.39,2.36 -0.8,4.01 -5.05,0.32 -6.25,-1.11 -6.6,-6.19zm207.72 -1.52c-0.81,4.9 -0.81,4.94 -6.62,3.53l-0.08 -3.12c3.15,-1.71 3.53,-1.16 6.7,-0.41zm-30.69 2.64c-3.16,1.91 -2.3,1.61 -5.03,-0.01l0.21 -3.22 4.85 0.44 -0.03 2.79zm-153.79 2.36c-6.93,0.55 -4.29,1.57 -6.67,-2.36 1.41,-0.93 -1.26,-2.86 5.88,-2l0.79 4.36zm-58.7 -4.93c4.7,-2.36 8.09,-0.99 6.79,3.36 -1.28,4.29 -6.53,2.41 -7.37,2.24 -0.1,-0.36 -0.63,-2.12 -0.6,-2.92 0.24,-5.5 -0.36,-0.21 1.18,-2.68zm299.82 2.56c-4.15,-0.12 -3.06,-1.59 -3.56,-3.33 0.96,-0.72 -1.56,-1.48 3.5,-1.6 4.54,-0.11 3.22,1.29 3.67,1.6 -0.55,2.21 0.75,3.46 -3.61,3.33zm-72.51 -2.22c-3.01,1.85 -2.2,1.36 -6.25,0.81 0.14,-4.81 5.21,-6.53 6.25,-0.81zm-82.19 -1.11c-2.62,1.7 -1.05,2.4 -4.43,0 0.81,-0.84 1.36,-5.86 4.43,0zm175.91 0.17c-3.75,0.88 -4.56,1.57 -8.17,0.12l-1.01 -2.49c-0.2,-0.91 -0.15,-2.8 -0.17,-3.9l7.35 0.47c1.4,1.97 1.81,2.91 2,5.8zm-189.9 -1.83c-4.26,1.3 -3.95,1.58 -7.42,-0.57 -0.14,-2.6 1.56,-3.42 4.4,-3 2.61,0.38 2.83,1.02 3.02,3.57zm-67.47 5.02c-1.99,-6.22 1.24,-10.58 7.86,-8.01 -0.8,8.14 -3.6,8.61 -7.86,8.01zm-122.25 -10.95c4.47,-0.12 6.23,0.97 6.58,5.36 -4.99,5.33 -6.89,1.31 -6.96,1.27 -1.31,-3.49 -0.9,-3.52 0.38,-6.63zm69.93 5.49c0.26,-4.73 0.8,-5.53 5.68,-5.56l0.65 5.3 -6.33 0.26zm-87.77 -0.22c-0.19,-3.55 0.52,-5.53 2.11,-8.64 13.68,-2.76 12.72,18.48 -2.11,8.64zm-43.79 0.09c1.1,-4.04 1.41,-4.65 13.25,-5.15 1.36,8.47 1.61,2.12 7.19,7.38l-0.31 5.52c-9.47,1.43 -6.87,-3.57 -9.86,-8.36 -6.69,0.37 -4,6.76 -10.27,0.61zm404.59 -5.78l9.58 0.44c0.55,8.63 -8.48,6.69 -9.58,-0.44zm-229.81 -0.74c-0.05,5.49 -0.5,6.95 -6.28,6.38 -1.49,-3.73 -1.79,-4.23 -0.4,-7.87 3.85,-1.61 3.79,-0.65 6.68,1.49zm100.03 -0.82c3.68,1.76 1.45,-0.12 1.71,4.64l-6.63 -0.71 -0.15 -3.43c0.54,-0.36 3.89,-1.06 5.07,-0.5zm-118.39 0.94c5.1,-0.43 3.29,-1.06 5.45,1.95 -1.91,2.95 0.48,2.5 -5.47,2.16l0.02 -4.11zm-35.44 5.77c-5.22,4.92 -6.49,-4.12 -5.96,-8.07 5.31,0.24 9.47,4.75 5.96,8.07zm296.59 -10.61c4.07,-2.38 6.44,-1.67 6.93,4.57 -4.33,1.2 -9.52,1.61 -6.93,-4.57zm-419.62 3.44c-2.22,0.84 -8.82,1.43 -5.97,-3.83 1.8,-3.33 6.16,-2.54 5.97,3.83zm262.35 -0.45c-2.24,0.3 -3.42,1.16 -5.17,-0.62 -2.45,-2.48 -0.05,-4.23 0.12,-4.54 2.67,-1.13 2.09,-1.17 5.96,0.11l-0.91 5.05zm-65.35 -5.17c2.96,-1.62 1.48,-1.14 6.12,-0.82l-1.03 6.94c-3.18,0.95 -2.45,1.28 -5.44,-0.26 -0.77,-3.36 -0.89,-3.05 0.35,-5.86zm35.07 3.04c-0.6,-6.64 0.8,-6.47 6.38,-5.43 0.14,5.1 -0.52,3.22 -0.89,5.61l-5.49 -0.18zm-99.21 -1.07c-1.69,-4 -2.57,-7.43 1.93,-9.55 4.83,1.72 5.16,4.09 4.23,10.23l-6.16 -0.68zm29.48 -8.77c6.24,-0.51 7.47,-0.5 8.04,3.76 0.04,0.33 -0.22,1.46 -0.34,1.99 -4.16,3.94 -12.81,3.76 -7.7,-5.75zm-43.95 -0.82c10.18,0.45 9.96,9.52 -0.21,7.51l0.21 -7.51zm-47.67 9.3c-4.53,0.76 -4.96,-0.19 -7.18,-2.37l-7.7 -0.26 0.32 -5.9 15.7 0.13 -1.14 8.4zm-56.82 -5.72c3.92,-0.94 2.72,-1.4 6.1,0.76 -0.57,4.17 -0.64,4.34 -6.17,3.05l0.07 -3.81zm230.59 3.66c-1.54,-1.07 -1.24,-1.95 -1.48,-3.91 0.86,-0.86 9.3,-2.5 6.68,3.36 -0.06,0.06 -0.85,3.6 -5.2,0.55zm198.16 -2.36c-2.25,0.26 -5.68,1.01 -7.27,-0.55 -1.35,-1.32 -1.45,-5.19 -0.07,-6.83 2.81,-3.34 10.44,-2.47 7.34,7.38zm-439.35 -5.13c1.27,-1.33 3.25,-0.75 4.37,0.23 2.18,1.91 1.54,2.48 1.4,5.77 -4.14,0.05 -9.65,-1.96 -5.77,-6zm400.49 -0.2c4,-0.56 5.69,0.02 8.05,1.45 -0.7,8.28 -9,5.07 -8.05,-1.45zm-36.28 3.64c-7.18,0.78 -4.96,-0.24 -6.36,-0.94l0.54 -5.34 4.98 0.32c1.29,2.2 0.26,-2.27 1.16,2.64 0.31,1.71 -0.08,1.7 -0.32,3.32zm-189.01 1.31c-1.89,-7.16 -1.02,0.12 -3.67,-6.02l7.68 1.59c0.97,1.03 0.09,0.21 1.64,1.61 2.76,2.48 2.16,0.66 3.42,4.89 -1.93,2.89 -1.97,3.26 -6.02,4.05 -3.27,-2.97 -1.81,-1.43 -3.05,-6.12zm244.24 -15.29c4.51,0.6 4.5,0.36 7.67,2.91l-0.69 5.55 -6.9 0.57 -0.08 -9.03zm-96.46 0.35c0.63,0.78 1.64,0.91 1.82,3.65 0.13,2.1 -0.13,1.27 -0.8,3.14 -7.6,0.11 -7.03,-5.05 -1.02,-6.79zm-258.39 6.08c-0.43,-0.7 -1.57,1.75 -1.12,-3.42 0.35,-3.91 3.17,-4.6 6.91,-4.55 2.21,5.95 1.45,11.09 -5.79,7.97zm128.68 0.32l5.02 2.62c-1.17,0.77 2.18,1.35 -3.21,1.14l-8.33 -4.29c-2.21,-7.71 0.82,-8.5 6.82,-6.45l-0.3 6.98zm147.23 -6.94c1.31,7.83 -5.17,9.73 -8.4,6.14 -4.99,-5.55 3.14,-7.13 8.4,-6.14zm-165.72 5.04c-1.15,1.43 -1.7,1.81 -4.33,2.77 -2.36,-3.22 -2.38,-4.61 -1.25,-9.77l6.6 0.76c0.64,3.2 0.58,4.25 -1.02,6.24zm-50.01 -5.28c4.35,0.31 3.99,-0.15 5.52,3.31 -2.53,2.48 -0.65,1.99 -5.3,1.79l-0.22 -5.1zm-18.92 4.56c-7.63,-0.37 -7.77,-5.08 0.19,-5.66l-0.19 5.66zm302.23 -1.22c-4.58,-8.45 7.25,-9.03 5.9,0.03l-5.9 -0.03zm-5.92 -4.48c-0.12,5.08 -0.03,2.32 -1.25,3.93 -4.11,-1.82 -2.76,0.51 -2.99,-5.19l4.24 1.26zm-97.22 -2.61l4.07 1.07c1.44,3.81 1.36,5.8 -4.23,5.75l0.16 -6.82zm-104.43 0.38c2.04,-0.77 -0.76,-1.1 3.27,-0.92 4.93,0.21 0,-0.42 2.79,1.13l-0.04 4.76c-3.98,3.86 -9.04,2.56 -6.02,-4.97zm-42.86 0.5c0.59,4.78 0.2,8.32 -4.95,6.18 -2.12,-3.23 -2.03,-2.02 -0.67,-6.28l5.62 0.1zm93.39 2.43c-0.96,-3.64 0.82,-7.39 3.32,-10.3l2.17 11.07 -5.49 -0.77zm-15.37 -1.81c-2.33,3.4 -3.42,3.15 -6.93,0.86 0.22,-3.31 4.45,-4.22 6.93,-0.86zm114.42 -5.06c7.1,-1.1 9.65,-0.37 7.58,6.31 -4.78,1.45 -8.87,-0.06 -7.58,-6.31zm-269.93 5.21c-0.07,-0.11 -1.76,0.93 -1.22,-3.43 0.54,-4.38 4.34,-3.06 7.03,-2.36 0.32,5.34 -1,8.16 -5.81,5.79zm-86.54 -0.39c-0.91,-2.64 -1.34,-6.41 -0.18,-9.7 5.61,0.47 5.75,3.54 5.01,9.62l-4.83 0.08zm104.62 -0.82c-3.72,-0.85 -3.68,-6.24 -1.53,-8.08 2.74,-2.33 8.11,1.32 4.99,7.11 -0.03,0.02 0.35,1.84 -3.46,0.97zm10.88 -6.66c4.35,-0.32 5.46,0.25 8.27,1.64l-0.52 4.82c-5.49,2.43 -7.84,-0.24 -7.75,-6.46zm331.45 3.1c-1.58,1.45 -5.8,4.09 -8.7,1.53 -1.89,-1.67 -0.93,-7.63 -0.98,-10.57 5.52,1.04 9.2,3.48 9.68,9.04zm-119.03 -0.16c-4.12,1.83 -5.24,2.02 -9.33,0.01 -1.25,-4.43 -1.63,-3.1 0.52,-6.52 0.1,-0.05 0.26,-3.47 6.27,0.79 2.97,2.11 2.78,1.9 2.54,5.72zm-60.45 -3.58c6.4,-0.81 10.9,-0.13 6.22,6.11 -4.93,0.47 -6.84,-1.25 -6.22,-6.11zm32.94 -3.79c6.42,-1.23 7.8,-0.65 7.95,5.99l-8.31 0.46 0.36 -6.45zm36.35 5.9c-1.76,-3.26 -1.73,-2.92 -0.41,-7.85 4.53,-0.52 5.17,0.56 9.31,2.96 0.14,6.05 -3.62,7.14 -8.9,4.89zm-284.56 -6.35l5.21 0.7c0.6,4.43 -0.35,5.26 -4.26,6.1l-0.95 -6.8zm369.69 -1.26l9.24 1.16 -0.15 5.14c-6.26,1.87 -9.85,1.84 -9.09,-6.3zm-17.03 -1.9c4.48,-0.53 4.32,-1.1 8.7,0.8l-0.64 6.2c-6.26,0.59 -8.11,-0.93 -8.06,-7zm-378.03 0.51c4.8,-1.05 6.16,-0.8 6.18,4.45l-6.74 -0.36 0.56 -4.09zm329.81 0.16c-10.26,2.6 -9.32,-3.85 -6.57,-9.82 4.36,1.39 8.33,3.98 6.57,9.82zm-294.48 -6.1c1.99,2.86 1.83,0.48 0.62,5.16 -1.96,-0.02 -3.58,0.18 -3.96,-1.79 -0.96,-4.81 0.77,-3.01 3.34,-3.37zm327.61 -5.32c3.49,0.25 6.55,2.06 7.1,6.16l-7.03 -0.44 -0.07 -5.72zm-62.82 -1.6c6.97,-0.44 11.13,0.46 10.22,8.35l-7.79 0.63c-2.25,-2.88 -2.95,-3.63 -2.43,-8.98zm-56.05 2.02c2.19,2.14 2.32,1.38 2.36,5.99l-6.52 1.17c-1.91,-4.24 -3.38,-8.03 4.16,-7.16zm-109.58 7.16c-2.09,-3.49 -1.85,-3.01 -0.8,-7.98l7.26 0.37c1.72,4.95 -0.1,9.97 -6.46,7.61zm-19.04 -2.29c0.35,-4.92 0.45,-4.67 4.49,-5.91 2.64,1.91 3.67,1.95 2.81,6.7l-7.3 -0.79zm278.44 -2.14c0,5.93 0.2,0.39 -1.15,2.35 -4.07,1.64 -5.35,-0.93 -3.99,-5.78 2.02,-0.11 0.89,-0.19 2.74,0.1 2.78,0.43 2.41,1.03 2.4,3.33zm-122.54 -4.14c2.55,3.17 1.98,4.05 1.15,7.72 -3.42,-0.32 -3.75,-0.87 -5.61,-2.32 0.7,-3.54 0.79,-4.34 4.46,-5.4zm-270.4 6.22c-5.12,-0.66 -2.83,0.09 -3.51,-3.46 4.91,0.65 2.88,-1.59 3.51,3.46zm38.83 -8.85l5.84 0c1.36,6.45 1.18,8.88 -6.18,8.81l0.34 -8.81zm-17.87 7.91c-2.06,-5.95 -1.16,-8.84 4.52,-9.96 2.33,3.02 2.55,3.67 2.44,7.68 -3.38,2.87 -2.08,2.49 -6.96,2.28zm258.17 -7.99c5.43,-0.29 9.17,0.01 11.1,4.6 -2.91,4.53 -6.38,5.03 -11.4,1.11l0.3 -5.71zm-182.82 6.06c-1.54,-4.41 0.07,-5.57 3.76,-7.12 3.65,2.38 3.64,3.06 2.26,7.83 -5.66,0.7 -4.66,-0.02 -6.02,-0.71zm118.63 -2.22c-5.26,-0.62 -3.99,0.58 -4.74,-3.69 4.46,-2.09 4.42,-0.99 4.74,3.69zm197.26 1.87c-1.52,3.54 -1.81,3.93 -6.54,4.27 -2.25,-2.03 -3.66,-3.85 -3.89,-6.33 -6.05,-0.18 -10.65,-0.14 -5.56,-6.45 6.39,2 13.65,3.9 15.99,8.51zm-216.07 -4.79c-1.36,-5.63 2.51,-8.26 5.36,-5.38 3.43,3.46 0.13,6.3 -5.36,5.38zm116.38 -12.02c7.48,0.01 10.43,0.36 8.78,8.84l-8.94 0.15 0.16 -8.99zm-224.69 8.83c-3.08,-8.35 8.64,-9.79 7.55,-0.14 -4.61,1.08 -3.08,1.23 -7.55,0.14zm18.45 1.66c-1.82,-4.28 -1.42,-4.08 0.79,-7.93 8.3,-1.29 8.73,6.13 4.72,8.26 -5.09,2.71 -5.4,-0.29 -5.51,-0.33zm32.54 -7.38c1.87,-1.83 3.2,-2.41 6.9,-1.85 4.72,5.42 0.6,9.57 -6.04,8.12l-0.86 -6.27zm191.71 3.8c-4.46,-9.11 4.52,-9.06 10.09,-5.89l-0.14 4.67c-3.32,2.11 -5.72,4.01 -9.95,1.22zm-102.33 -5.67c5.05,-0.82 7,-0.8 7.37,4.09 -5.94,1.58 -7.13,1.8 -7.37,-4.09zm-178.27 -1.23c6.13,0.52 2.46,6.48 2.46,6.5l-6.07 -0.41c0,-0.01 -2.08,-1.26 -0.36,-4.32 0.76,-1.34 1.96,-1.93 3.97,-1.77zm-14.6 1.15c2.7,0.78 2.34,1.72 2.35,4.52 -4.27,2.38 -9.71,1.74 -7.3,-2.78 0.82,-1.53 2.71,-2.38 4.95,-1.74zm245.07 3.64c-2.81,2.14 -10.28,5.2 -8.61,-3.33 0.98,-5.02 8.89,-6.16 8.61,3.33zm-37.84 -3.74c5.33,-4.5 11.55,5.96 -0.22,4.66l0.22 -4.66zm-84.73 3.88c-0.44,-0.7 -2.51,1.1 -0.82,-7.94 5.04,0.86 6.94,1.92 6.83,8.11l-6.01 -0.17zm-33.74 1.17c-1.53,-4.75 -0.69,-7.42 4.93,-7.28 2.02,3.74 1.4,4.65 0.11,8.38l-5.04 -1.1zm-108.81 -6.25c5.18,-2.65 6.82,2.36 3.53,6.44 -2.48,-0.12 -3.48,0.15 -4.33,-2.03 -1.41,-3.62 0.63,-4.1 0.8,-4.41zm395.77 -2.77c5.11,-1.08 10.16,-0.1 8.27,6.14 -1.58,5.24 -6.91,0.94 -9.22,-0.92l0.95 -5.22zm-120.46 3c14.08,-2.44 14.89,7.52 3.2,6.64 -3.17,-2.45 -3.24,-1.77 -3.2,-6.64zm106.74 3.44c-2.98,-3.32 -2.62,-2.77 -2.34,-7.86 4.94,-0.31 5.48,0.06 8.91,1.99 -0.66,5 -1.37,5.76 -6.57,5.87zm-26.91 75.28c-1.78,-8.46 -17.22,-14.48 -21.09,-25.12 -3.24,-8.92 -9.61,-7.1 -8.17,-39.16 0.32,-7 7.54,-15.3 11.64,-18.4 4.17,-0.21 4.53,0.53 7.81,0.58 2.4,0.03 4.03,-0.68 6.71,-0.69l12.88 3.29c1.68,4.69 6.93,13.34 0.85,16.48 -15.23,1.82 -11.25,-9 -17.12,-13.2 -2.76,0.85 -4.14,2.17 -6.21,4.74 -2.6,3.23 -1.8,3.06 -2.13,7.65l-4.44 -0.4c-3.97,7.34 -7.26,22.76 6.59,18.36l0.84 -8.01c9.19,1.76 13.77,12.93 10.54,24.98 -2.51,9.38 1.01,7.12 2.55,13.81 1.88,8.13 -0.79,7.05 5.13,12.6 4.14,3.88 7.54,2.97 10.54,8.44 2.63,4.8 1.75,9.17 3.84,13.99 1.92,4.41 4.7,7.9 6.37,11.44 3.16,6.69 0.22,6.81 5.66,12.39 -0.68,8.61 3.56,26.21 1.16,39.68 -0.74,4.12 -10.75,36.88 -13.02,40.09l-22.55 29.76c-3.24,4.09 -6.91,6.84 -9.95,11.06l-8.19 -0.38c0.32,-6.93 6.59,-10.63 10.85,-17.95 8.92,-15.34 12.01,-23.24 11.46,-42.19 -0.25,-8.73 -5.87,-13.34 -10.15,-17.77 -6.25,-0.54 -9.52,1.45 -10.99,-4.45 4.73,-4.76 8.42,-3.54 16.65,-3.35 2.05,2.41 5.76,5.67 9.18,7.51 4.35,2.34 5.3,-0.47 6.96,-3.57 0.91,-1.69 0.64,-1.03 1.58,-2.03 2.81,1.66 3.83,4.27 4.52,7.17 0.7,2.95 0.13,2.99 0.39,5.34 0.4,3.67 0.38,2.22 1.77,3.69 2.8,-1.57 2.37,-0.27 2.97,-4.81l1.83 -22.18c2.1,-13.46 -5.8,-34.92 -13.46,-46.96 -3.38,-5.32 -9.68,-11.33 -15.03,-15.09 -22.09,-15.52 -8.17,-2.75 -20.66,-9.41 -7.27,-3.87 -15.47,-4.32 -23.39,-6.37 -4.55,-1.18 -21.42,1.45 -24.94,3.08 -24.85,11.46 -12.75,-5.04 -37.79,22.2 -10.51,11.42 -13.7,31.1 -13.59,46.99 0.03,4.8 5.62,18.8 8.04,22.43 0.2,0.31 14.64,13.99 15.58,14.48 8.97,4.7 13.86,5.57 22.79,3.47 4.91,-1.16 16.89,0.34 22.66,-7.39 0.81,-1.09 3.9,-8.86 4.8,-10.84 3.93,-8.69 -4.14,-14.88 -11.59,-17.04 -5.76,-1.67 -9.12,-0.53 -13.61,0.8 -7.15,2.12 -28.42,-6.31 -15.68,-10.29 3.33,-1.05 4.26,-0.83 6.17,-3.43 -3.74,-9.01 -16.38,-6.37 -23.79,-6.13 -0.27,-4.89 7.09,-9.63 13.07,-10.58 4.94,-0.78 14.73,1.77 21.25,2.33 5.39,5.99 8.82,6.62 14.29,12.04 5.21,5.16 6.25,10.85 10.97,15.64 2.34,-14.65 -5.52,-23.24 2.24,-40.07 4.9,-10.6 12.46,-15.39 20.2,-23.18l7.62 0.96c0.83,9.47 -5.4,1.72 -9.83,11.2 -1.54,3.29 -1.07,5.44 -2.33,8.8 -0.6,1.63 -1.32,1.81 -1.26,4.5 0.15,6.7 3.89,3.46 6.73,0.98 8.78,-7.66 7.53,8.46 -2.22,15.65 -21.88,16.12 -8.72,19.29 -14.05,38.43 -1.77,6.39 -8.88,10.41 -7.52,17.46 6.35,-5.1 17.35,-0.26 22.28,4.78 4.97,5.07 8.75,17.55 0.49,21.66 -0.58,0.29 -22.06,6.39 -13.8,-13.51 8.73,0.48 2.11,2.85 10.39,2.66 -1.66,-9.84 -16.54,-17.81 -24.38,-11.23 -9.42,7.9 -40.93,5.54 -52.94,-5.03 -4.6,-4.05 -10.64,-6.96 -14.16,-12.64 -8.11,-13.1 -10.74,-28.95 -8.24,-44.63 1.43,-8.96 5.34,-13.94 6.38,-20.3 -7.73,-1.18 -11.78,1.14 -16.71,-4.4 -3.82,-4.28 -12.52,-18.96 1.02,-18.53 2.66,4.04 2.73,17.38 18.94,11.09 -1.89,-2.91 -5.6,-4.09 -9.38,-5.18 1.44,-4.78 4.01,-6.53 7.14,-9.81 15.09,-1.7 15.83,1.25 30.23,-3.98 9.25,-3.36 16.05,-6.46 27.26,-7.43 -1.9,-11.86 -36.38,5.35 -42.09,6.17 0.07,-11.62 -2.54,-5.46 -11.13,-9.84 -5.15,-2.61 -7.67,-4.77 -14.38,-5.86 -8.27,-1.34 -9.67,-2.02 -16.21,-3.65 -6.63,-1.65 -11.69,5.47 -14.09,-4.25 18.53,-3.97 29.83,11.52 44.76,-2.08l-5.49 -21.21c-0.93,-10.66 3.89,-31.34 18.53,-27.49 -1.87,8.19 -8.35,5.86 -8.82,16.42 -0.73,16.46 -1.05,21.87 14.83,34.49 9.42,7.48 26.49,9.64 40.03,11.12 19.88,2.17 22.32,4.18 40.41,10.83 6.63,2.43 10.01,6.66 16.2,7.78zm-248.08 -48.97c20.81,-0.39 14.07,-1.01 29.84,-8.85 4.07,-2.02 3.46,-2.72 6.86,-5.35 18.12,-14.06 24.86,-21.92 50.15,-18.73 4.11,0.52 7.41,3.82 13.5,5.18 1.91,10.21 7.92,7.62 7.38,19.21 -0.25,5.48 -6.11,12.13 -9.48,15.43 -11.47,0.82 -19.46,-3.29 -21.96,-12.12 2.24,-4.13 4.02,-6.3 10.48,-5.44 7.05,0.95 2.89,4.99 6.47,9.53l3.54 0.09c8.54,-12.81 -1.31,-29.7 -26.7,-25.36 -13.23,2.26 -15.07,6.57 -13.11,17.59 9.48,0.46 5.46,-5.26 12.27,-3.36 3.82,7.87 -3.12,13.45 -9.4,15.6 -11.25,3.85 -22.76,3.56 -34.63,1.73 -6.37,-0.99 -6.11,0.74 -10.89,1.41 -10.08,1.41 -16.75,-1.34 -24.6,-1.93 1.12,4.61 5.13,6.08 8.17,10.1 2.76,3.66 6.35,5.49 8.89,8.98 -2.13,3.8 0.34,1.04 -3.74,3.34 -0.43,18.36 -3.49,35.62 4.27,51.76 1.14,2.38 7.89,6.06 10.51,7.45 5.58,0.31 8.23,-2.41 10.8,-4.73 1.19,-13.6 -3.32,-7.09 -10.05,-6.49l-1.37 -7.91c8.27,-12.85 25.09,1.89 22.51,10.69 -0.63,2.12 -7.55,11.38 -8.91,12.32 -2.15,1.48 -12.93,3.43 -16.18,3.31 -2.84,-2.23 -3.39,-3.71 -6.93,-6.17 -4.8,-3.34 -3.31,-1.07 -5.98,-7.51 -3.29,-7.95 -5.54,-8.72 -5.92,-19.58 -7.26,2.4 -8.97,9.77 -18.86,13.93 -15.01,6.3 -10.97,2.8 -25.91,0.52 -5.42,-5.1 -9.25,-4.97 -13.77,-10.44 -5.83,-7.04 -6.01,-5.37 -6.86,-17.11 -1.27,-0.86 -2.71,-1.53 -3.77,-2.21 1.87,-4.26 2.86,-2.97 3.94,-7.89 0.86,-3.94 0.57,-4.91 3.36,-8.07 12.84,-14.56 13.98,-7.47 22.4,-4.93 4.3,1.29 7.01,1.61 8.02,6.41l-17.6 0.38c-3.6,5.5 -7.39,13.73 -1.4,19.43 3.73,-0.26 2.81,0.1 5.95,-1.99l0.42 -8.27c1.29,-0.88 1.64,-1.1 3.76,-1.74 4.1,2.68 4.92,6.16 9,9.6 0.45,6.32 0.15,9.16 4.39,12.59 6.53,5.29 18.93,0.89 23.12,-5.68 1.78,-2.8 0.86,-3.44 2.03,-5.95 1.12,-2.41 1.87,-2.03 3.68,-3.9 0.9,-16.42 -2.17,-30.01 -13.23,-36.76 -13.36,-8.14 -16.22,-12.9 -37.72,-11.21 -8.2,0.65 -13.3,3.1 -19.21,6.76 -5.37,3.33 -10.31,5.57 -15.16,9.24 -3.59,2.71 -9.04,8.53 -11.93,12.59 -9.7,13.67 -5.38,12.69 -7.41,17.24l-3.91 4.36c-1.41,3.23 -1.96,31.8 -1.69,37.88 0.07,1.77 0.25,4.7 0.62,6.38 1.3,5.82 0.41,2.07 1.74,3.57l2.22 -0.26c2.53,-6.24 -3.27,-5.51 -0.59,-13.57 2.05,-6.17 2.98,-5.27 4.35,-13.34 10.17,1.52 3.86,3.67 7.25,10.56 1.2,1.28 1.67,3.2 5.63,-1.19 1.83,-2.03 1.83,-2.93 4.61,-4.28 6.2,-3.01 19.27,-4.85 19.68,5.37 -18.36,-1.24 -22.86,9.54 -24.18,26.75 -1.69,22.06 9.75,25.29 12.56,42.33 3.01,0.1 12.41,9.11 16.46,12.11 9.26,6.87 26.45,18.87 36.91,23.19 3.12,1.28 6.16,3.59 9.34,5.16 4.48,2.2 6.23,2.51 3.34,8.2 -5.61,-0.04 -4.12,-2.85 -9.09,-5.79l-30.13 -16.62c-3.86,-2.38 -4.73,-4.35 -9.12,-6.49 -8.57,-4.2 -19.9,-14.12 -25.6,-21.16 -8.58,-10.56 -9.68,-14.63 -15.83,-22.94 -1.05,-1.41 -1.68,-2.81 -2.99,-4.96 -22.03,-35.96 -5.98,-60.16 -15.03,-78.6 -2.44,-4.99 -1.43,-5.94 -2.26,-12.37 -0.9,-0.77 -4.43,-3.29 -4.88,-3.76 -1.98,-2.09 -1.01,-2.27 -2.7,-5.25l-7.17 0.38 -1.64 -5.77 7.6 -1.33 1.19 -7.47c3.28,-1.75 4.39,1.93 7.67,3.29 17.41,7.2 4.75,-26.16 -3.2,-28.36l-7.14 0.61c-1.29,-3.06 -0.74,-2.88 -3.83,-5.4 -3.74,-1.32 -12.83,7.94 -13.61,10.79 -0.15,6.12 2.61,12.99 9.57,10.68 -0.22,-6.82 -7.72,-5.4 -1.84,-13.99 11.07,-1.62 17.26,9.78 6.2,17.17 -9.93,6.64 -16.66,-7.41 -22.49,-7.97 -1.09,5.14 1.41,6.77 1.43,11.92 0.05,16.29 -2.02,29.04 -2.27,44.53 -1.22,77.98 0.94,155.81 -0.13,233.8 -0.06,4.45 -0.17,8.94 -0.18,13.38 -0.02,7.45 1.52,6.3 2.06,10.08 0.77,5.37 -1.72,4.12 -2.2,9.88l-0.97 106.95c0.8,8.07 15.07,4.98 20.94,4.77 3.64,-0.12 7.56,0.56 11.2,0.26 6.06,-0.49 3.91,-1.18 7.41,-3.44l3.65 3.55 99.09 -1.39c21.85,-0.67 43.81,0.65 65.68,0l56.73 -0.64c19.41,0.1 40.2,1.72 59.27,-1.52 6.47,-1.1 6.34,1.48 13.09,1.61l74.65 0.22c5,0 46.43,1.19 47.87,-0.04 0.56,-0.97 3.76,-25.42 3.8,-27.84 0.28,-19.59 1.53,-98.93 -0.36,-112.8 -0.66,-4.87 0.4,-8.11 0.53,-13.01 0.28,-10.2 -0.14,-19.91 -0.09,-30.1l0.71 -194.83c0.07,-11.92 1.76,-34.3 -0.34,-45.54 -1,-5.29 -4.59,-4.58 -6.99,-8.33l6.64 -1.31 -0.59 -28.28c-64.51,-1.11 -129.17,-2.17 -193.68,-0.94 -9.67,0.18 -18.43,-0.6 -27.84,-0.56 -9.7,0.04 -16.29,1.31 -25.61,1.26 -41.57,0.32 -83.16,2.29 -124.75,1.76 -5.92,-0.08 -5.35,1.62 -12.18,1.63 -8.79,0.01 -32.86,-1.54 -36.9,-0.98 -10.65,1.48 -28.47,-5.07 -37.29,0.45 -1.01,4.21 -1.52,9.42 0.71,12.81 5.2,-0.91 1.84,-0.18 4.63,-4.18 4.01,-5.76 10.47,-6.33 16.63,-4.73 8.95,2.32 16.1,4.04 20.28,10.9 9,14.75 12.83,15.47 10.15,34.3 -0.69,4.83 -3.77,7.84 -1.59,11.66 6.43,-0.66 1.78,-1.71 5.19,-6.89 4.44,-6.73 11.27,-12.56 17.88,-16.76 16.48,-10.5 17.12,-2.52 19.04,-27.58 10.25,-0.02 5.97,3.27 13.56,4.58 1.89,-2.52 1.4,-4.4 2.92,-7.2l5.03 -0.66c3.56,10.6 -3.87,12.54 -3.26,19.89 6.91,3.58 4.08,-0.89 11.98,-0.76 6.28,0.1 30.09,6.78 33.42,9.48z"/>
 </g>
</svg>
