<?xml version="1.0" encoding="UTF-8"?>
<!DOCTYPE svg PUBLIC "-//W3C//DTD SVG 1.1//EN" "http://www.w3.org/Graphics/SVG/1.1/DTD/svg11.dtd">
<!-- Creator: CorelDRAW 2020 (64 Bit) -->
<svg xmlns="http://www.w3.org/2000/svg" xml:space="preserve" width="512px" height="512px" version="1.1" style="shape-rendering:geometricPrecision; text-rendering:geometricPrecision; image-rendering:optimizeQuality; fill-rule:evenodd; clip-rule:evenodd"
viewBox="0 0 512 512"
 xmlns:xlink="http://www.w3.org/1999/xlink"
 xmlns:xodm="http://www.corel.com/coreldraw/odm/2003">
 <defs>
  <style type="text/css">
   <![CDATA[
    .fil0 {fill:#E12225}
    .fil1 {fill:white}
   ]]>
  </style>
 </defs>
 <g id="Camada_x0020_1">
  <metadata id="CorelCorpID_0Corel-Layer"/>
  <path class="fil0" d="M203.95 131.36l104.07 0.04 -0.04 249.27 -67.11 0.03 0.02 -192.87 -36.96 0.04 0.02 -56.51zm38.72 -124.97c-77.54,4.56 -133.1,40.2 -170.32,80.02 -36.63,39.2 -70.47,103.91 -66.01,183.26 2.57,45.89 16.1,83.75 37.46,118.51 1.99,3.24 4.03,6.43 6.12,9.41 49.17,70.16 129.67,113.01 219.55,108.07 54.46,-2.99 97.18,-21.11 137.33,-50.31 14.12,-10.27 32.17,-27.97 43.47,-42.03 1.33,-1.65 2.27,-2.97 3.52,-4.49 12.87,-15.71 26.47,-40.53 34.25,-59.74 40.75,-100.58 9.19,-210.93 -62.44,-276.71 -39.9,-36.64 -103.59,-70.67 -182.93,-65.99z"/>
  <polygon class="fil1" points="203.93,187.87 240.89,187.83 240.87,380.7 307.98,380.67 308.02,131.4 203.95,131.36 "/>
 </g>
</svg>
