<?xml version="1.0" encoding="UTF-8"?>
<!DOCTYPE svg PUBLIC "-//W3C//DTD SVG 1.1//EN" "http://www.w3.org/Graphics/SVG/1.1/DTD/svg11.dtd">
<!-- Creator: CorelDRAW 2020 (64 Bit) -->
<svg xmlns="http://www.w3.org/2000/svg" xml:space="preserve" width="512px" height="512px" version="1.1" style="shape-rendering:geometricPrecision; text-rendering:geometricPrecision; image-rendering:optimizeQuality; fill-rule:evenodd; clip-rule:evenodd"
viewBox="0 0 512 512"
 xmlns:xlink="http://www.w3.org/1999/xlink"
 xmlns:xodm="http://www.corel.com/coreldraw/odm/2003">
 <defs>
  <style type="text/css">
   <![CDATA[
    .fil0 {fill:#E12225}
    .fil1 {fill:white}
   ]]>
  </style>
 </defs>
 <g id="Camada_x0020_1">
  <metadata id="CorelCorpID_0Corel-Layer"/>
  <path class="fil0" d="M167.34 216.56c-2.29,-100.51 109.94,-104.68 152.56,-65.9 23.83,21.67 33.28,59.35 15.13,97.87 -3.35,7.11 -7.81,14.71 -12.07,20.95 -4.82,7.04 -9.1,12.57 -13.86,19.12 -4.51,6.21 -9.75,12.57 -14.65,18.36 -2.16,2.54 -14.08,16.37 -14.35,17.83l68.68 0.01 -0.27 59.11 -184.99 -0.01c-0.58,-2.92 -0.24,-8.63 -0.26,-11.89 -0.02,-4.57 2.06,-5.61 4.12,-8.13l21.98 -26.02c10.69,-12.78 22.54,-26.44 32.73,-39.28l21.47 -26.52c11.87,-14.85 33.86,-42.01 33.87,-62.03 0.01,-14.44 -9.94,-24.51 -25.4,-22.53 -7.37,0.95 -11.97,4.51 -14.9,9.14 -4.66,7.35 -3.03,11 -4.04,19.91l-65.75 0.01zm75.38 -210.16c-77.54,4.57 -133.1,40.2 -170.31,80.02 -36.63,39.2 -70.48,103.93 -66.02,183.27 2.06,36.65 12.13,71.58 26.3,98.69 28.56,54.66 70.94,95.44 130.26,119.72 30.68,12.56 68.87,19.65 106.57,17.57 133.73,-7.35 243.42,-120.71 236.14,-263.14 -3.87,-75.81 -41.44,-134.72 -80,-170.13 -39.9,-36.65 -103.59,-70.67 -182.94,-66z"/>
  <path class="fil1" d="M167.34 216.56l65.75 -0.01c1.01,-8.91 -0.62,-12.56 4.04,-19.91 2.93,-4.63 7.53,-8.19 14.9,-9.14 15.46,-1.98 25.41,8.09 25.4,22.53 -0.01,20.02 -22,47.18 -33.87,62.03l-21.47 26.52c-10.19,12.84 -22.04,26.5 -32.73,39.28l-21.98 26.02c-2.06,2.52 -4.14,3.56 -4.12,8.13 0.02,3.26 -0.32,8.97 0.26,11.89l184.99 0.01 0.27 -59.11 -68.68 -0.01c0.27,-1.46 12.19,-15.29 14.35,-17.83 4.9,-5.79 10.14,-12.15 14.65,-18.36 4.76,-6.55 9.04,-12.08 13.86,-19.12 4.26,-6.24 8.72,-13.84 12.07,-20.95 18.15,-38.52 8.7,-76.2 -15.13,-97.87 -42.62,-38.78 -154.85,-34.61 -152.56,65.9z"/>
 </g>
</svg>
