<?xml version="1.0" encoding="UTF-8"?>
<!DOCTYPE svg PUBLIC "-//W3C//DTD SVG 1.1//EN" "http://www.w3.org/Graphics/SVG/1.1/DTD/svg11.dtd">
<!-- Creator: CorelDRAW 2020 (64 Bit) -->
<svg xmlns="http://www.w3.org/2000/svg" xml:space="preserve" width="512px" height="512px" version="1.1" style="shape-rendering:geometricPrecision; text-rendering:geometricPrecision; image-rendering:optimizeQuality; fill-rule:evenodd; clip-rule:evenodd"
viewBox="0 0 512 512"
 xmlns:xlink="http://www.w3.org/1999/xlink"
 xmlns:xodm="http://www.corel.com/coreldraw/odm/2003">
 <defs>
  <style type="text/css">
   <![CDATA[
    .fil0 {fill:#E12225}
    .fil1 {fill:white}
   ]]>
  </style>
 </defs>
 <g id="Camada_x0020_1">
  <metadata id="CorelCorpID_0Corel-Layer"/>
  <path class="fil0" d="M169.29 128.42l171.07 0.18c0.14,9.52 0.98,9.48 -2.52,15.28 -2.35,3.9 -4.21,6.97 -6.71,10.79 -9.3,14.26 -18.05,29.56 -27.29,43.72 -2.5,3.83 -4.3,6.89 -6.74,10.74 -1.49,2.37 -5.74,8.62 -6.48,10.76 7.63,3.54 9.13,1.85 21.8,9.18 37.82,21.85 45.67,73.7 26.62,108.52 -7.74,14.14 -16.92,23.18 -29.95,31.56 -26.85,17.26 -68.26,19.29 -99.28,4.54 -25.01,-11.9 -45.62,-38.32 -46.82,-76.67l63.99 0c1.3,16.2 9.6,27.95 25.47,29.11 17.18,1.25 28.34,-9.47 30.98,-23.67 3.31,-17.8 -5.52,-30.55 -18.69,-34.69 -11.6,-3.65 -38.25,-1.22 -52.25,-1.84 -1.54,-14.72 0.46,-15.03 6.18,-24.21 2.82,-4.53 32.93,-53.53 34.04,-56.45l-83.44 -0.25 0.02 -56.6zm73.38 -122.03c-77.54,4.56 -133.1,40.2 -170.31,80.02 -36.64,39.2 -70.48,103.93 -66.02,183.26 2.64,46.98 18.66,92.36 43.58,127.92 49.18,70.16 129.68,113.01 219.55,108.07 54.46,-2.99 97.18,-21.11 137.34,-50.31 5.88,-4.28 11.74,-9.25 16.89,-14.09 28.82,-27.05 49.1,-54.27 64.35,-92.17 40.56,-100.85 9.54,-210.6 -62.44,-276.71 -39.9,-36.64 -103.59,-70.67 -182.94,-65.99z"/>
  <path class="fil1" d="M169.27 185.02l83.44 0.25c-1.11,2.92 -31.22,51.92 -34.04,56.45 -5.72,9.18 -7.72,9.49 -6.18,24.21 14,0.62 40.65,-1.81 52.25,1.84 13.17,4.14 22,16.89 18.69,34.69 -2.64,14.2 -13.8,24.92 -30.98,23.67 -15.87,-1.16 -24.17,-12.91 -25.47,-29.11l-63.99 0c1.2,38.35 21.81,64.77 46.82,76.67 31.02,14.75 72.43,12.72 99.28,-4.54 13.03,-8.38 22.21,-17.42 29.95,-31.56 19.05,-34.82 11.2,-86.67 -26.62,-108.52 -12.67,-7.33 -14.17,-5.64 -21.8,-9.18 0.74,-2.14 4.99,-8.39 6.48,-10.76 2.44,-3.85 4.24,-6.91 6.74,-10.74 9.24,-14.16 17.99,-29.46 27.29,-43.72 2.5,-3.82 4.36,-6.89 6.71,-10.79 3.5,-5.8 2.66,-5.76 2.52,-15.28l-171.07 -0.18 -0.02 56.6z"/>
 </g>
</svg>
