<?xml version="1.0" encoding="UTF-8"?>
<!DOCTYPE svg PUBLIC "-//W3C//DTD SVG 1.1//EN" "http://www.w3.org/Graphics/SVG/1.1/DTD/svg11.dtd">
<!-- Creator: CorelDRAW 2020 (64 Bit) -->
<svg xmlns="http://www.w3.org/2000/svg" xml:space="preserve" width="512px" height="512px" version="1.1" style="shape-rendering:geometricPrecision; text-rendering:geometricPrecision; image-rendering:optimizeQuality; fill-rule:evenodd; clip-rule:evenodd"
viewBox="0 0 512 512"
 xmlns:xlink="http://www.w3.org/1999/xlink"
 xmlns:xodm="http://www.corel.com/coreldraw/odm/2003">
 <defs>
  <style type="text/css">
   <![CDATA[
    .fil0 {fill:#E12225}
    .fil1 {fill:white}
   ]]>
  </style>
 </defs>
 <g id="Camada_x0020_1">
  <metadata id="CorelCorpID_0Corel-Layer"/>
  <path class="fil0" d="M152.85 328.02c-0.02,-6.97 6.06,-18.92 8.93,-25.74 3.36,-8.03 6.68,-16.04 10.11,-24.41 6.68,-16.34 13.58,-32.43 20.26,-48.72l40.48 -97.78 66.3 0.03 -61.56 148.62 39.7 0 11.92 -44.55c3.33,-12.81 1.71,-10.44 8.04,-10.44l39.53 0.14 0.09 50.36c-0.14,6.2 -3.01,4.49 22.54,4.49l-0.23 55.92 -22.3 0.2 -0.04 44.54 -64.05 -0.12 0.01 -44.63 -119.63 -0.01 -0.1 -7.9zm89.87 -321.64c-77.53,4.57 -133.1,40.2 -170.31,80.03 -36.62,39.19 -70.47,103.9 -66.02,183.26 2.64,46.95 18.68,92.38 43.58,127.92 2.18,3.1 4.26,6.21 6.72,9.26 4.84,5.99 8.91,11.35 14.07,16.91 50.21,54.15 119.94,86.23 198.76,81.9 54.47,-3 97.19,-21.11 137.34,-50.31 18.68,-13.59 32.65,-29.02 46.98,-46.52 12.88,-15.71 26.48,-40.54 34.26,-59.74 12.54,-30.96 19.59,-68.48 17.56,-106.67 -4.03,-75.93 -41.31,-134.51 -80,-170.04 -39.9,-36.65 -103.59,-70.67 -182.94,-66z"/>
  <path class="fil1" d="M152.85 328.02l0.1 7.9 119.63 0.01 -0.01 44.63 64.05 0.12 0.04 -44.54 22.3 -0.2 0.23 -55.92c-25.55,0 -22.68,1.71 -22.54,-4.49l-0.09 -50.36 -39.53 -0.14c-6.33,0 -4.71,-2.37 -8.04,10.44l-11.92 44.55 -39.7 0 61.56 -148.62 -66.3 -0.03 -40.48 97.78c-6.68,16.29 -13.58,32.38 -20.26,48.72 -3.43,8.37 -6.75,16.38 -10.11,24.41 -2.87,6.82 -8.95,18.77 -8.93,25.74z"/>
 </g>
</svg>
