<?xml version="1.0" encoding="UTF-8"?>
<!DOCTYPE svg PUBLIC "-//W3C//DTD SVG 1.1//EN" "http://www.w3.org/Graphics/SVG/1.1/DTD/svg11.dtd">
<!-- Creator: CorelDRAW 2020 (64 Bit) -->
<svg xmlns="http://www.w3.org/2000/svg" xml:space="preserve" width="512px" height="512px" version="1.1" style="shape-rendering:geometricPrecision; text-rendering:geometricPrecision; image-rendering:optimizeQuality; fill-rule:evenodd; clip-rule:evenodd"
viewBox="0 0 512 512"
 xmlns:xlink="http://www.w3.org/1999/xlink"
 xmlns:xodm="http://www.corel.com/coreldraw/odm/2003">
 <defs>
  <style type="text/css">
   <![CDATA[
    .fil0 {fill:#E12225}
    .fil1 {fill:white}
   ]]>
  </style>
 </defs>
 <g id="Camada_x0020_1">
  <metadata id="CorelCorpID_0Corel-Layer"/>
  <path class="fil0" d="M175.33 266.59c-0.6,-1.39 -3.01,-4.29 -4.18,-5.73 -2.53,-3.09 -1.81,-3.44 -1.27,-8.04l5.68 -53.24c1.21,-11.85 2.61,-23.77 3.83,-35.6 1.16,-11.25 2.02,-24.31 3.82,-35.29 4.12,-0.98 97.96,-0.29 110.8,-0.29 11.85,0 25.34,-0.59 36.98,0.06 0.14,6.57 0.59,54.27 -0.33,56.69 -6.55,0.73 -17.15,0.1 -24.15,0.1 -8.79,0 -68.57,-0.52 -71.88,0.29l-2.41 21.53c-0.12,1.08 -1.07,5.73 -0.07,6.48 2.99,0.95 27.56,0.05 33.99,0.69 51.31,5.06 87.36,39.68 82.33,91.74 -2.13,21.96 -10.96,36.84 -21.27,48.73 -37.69,43.45 -135.9,40.81 -159.3,-28.11 -1.97,-5.82 -6.05,-23.01 -4.57,-29.41l63.41 0.08c1.44,4.95 0.59,7.87 3.03,12.98 5.4,11.34 17.46,18.13 31.48,15.47 15.99,-3.03 27.47,-19.71 21.28,-39.24 -2.58,-8.15 -8.17,-13.83 -15.09,-16.93 -8.3,-3.71 -18.61,-2.9 -28.43,-2.9 -16.59,0 -49.1,0.68 -63.68,-0.06zm67.38 -260.23c-77.54,4.57 -133.1,40.21 -170.32,80.03 -36.61,39.18 -70.48,103.92 -66.01,183.26 2.64,46.99 18.65,92.35 43.58,127.92 6.19,8.83 13.54,18.36 20.79,26.17 49.92,53.83 120.34,86.59 199.04,81.88 54.51,-3.26 96.81,-21.02 137.05,-50.29 21.95,-15.96 45.24,-41.47 59.98,-65.02 27.27,-43.58 41.77,-92.7 38.82,-147.91 -4.05,-75.95 -41.28,-134.48 -79.99,-170.04 -39.9,-36.65 -103.59,-70.67 -182.94,-66z"/>
  <path class="fil1" d="M175.36 266.72c14.58,0.73 47.09,0.06 63.68,0.06 9.82,0 20.13,-0.81 28.42,2.9 6.93,3.1 12.52,8.78 15.1,16.93 6.19,19.53 -5.3,36.21 -21.28,39.24 -14.02,2.66 -26.08,-4.13 -31.49,-15.48 -2.43,-5.1 -1.58,-8.02 -3.02,-12.97l-63.41 -0.09c-1.48,6.4 2.6,23.6 4.57,29.42 23.4,68.92 121.61,71.56 159.3,28.1 10.31,-11.88 19.14,-26.76 21.26,-48.72 5.04,-52.06 -31.02,-86.68 -82.32,-91.74 -6.43,-0.64 -31,0.25 -34,-0.69 -1,-0.75 -0.04,-5.4 0.08,-6.49l2.41 -21.52c3.31,-0.81 63.08,-0.29 71.88,-0.29 6.99,0 17.6,0.63 24.15,-0.11 0.91,-2.41 0.46,-50.12 0.33,-56.68 -11.65,-0.65 -25.13,-0.06 -36.98,-0.06 -12.85,0 -106.69,-0.69 -110.81,0.29 -1.8,10.98 -2.66,24.04 -3.81,35.28 -1.22,11.84 -2.62,23.76 -3.83,35.61l-5.69 53.24c-0.53,4.6 -1.25,4.95 1.27,8.04 1.17,1.44 3.58,4.34 4.19,5.73z"/>
 </g>
</svg>
