<?xml version="1.0" encoding="UTF-8"?>
<!DOCTYPE svg PUBLIC "-//W3C//DTD SVG 1.1//EN" "http://www.w3.org/Graphics/SVG/1.1/DTD/svg11.dtd">
<!-- Creator: CorelDRAW 2020 (64 Bit) -->
<svg xmlns="http://www.w3.org/2000/svg" xml:space="preserve" width="512px" height="512px" version="1.1" style="shape-rendering:geometricPrecision; text-rendering:geometricPrecision; image-rendering:optimizeQuality; fill-rule:evenodd; clip-rule:evenodd"
viewBox="0 0 512 512"
 xmlns:xlink="http://www.w3.org/1999/xlink"
 xmlns:xodm="http://www.corel.com/coreldraw/odm/2003">
 <defs>
  <style type="text/css">
   <![CDATA[
    .fil3 {fill:black}
    .fil0 {fill:#99CCCC}
    .fil2 {fill:#CCCCCC}
    .fil1 {fill:#F7D6C1}
   ]]>
  </style>
 </defs>
 <g id="Camada_x0020_1">
  <metadata id="CorelCorpID_0Corel-Layer"/>
  <path class="fil0" d="M256 0c141.38,0 256,114.62 256,256 0,43.81 -11.01,85.05 -30.41,121.1l-57 -29.34c-0.98,-0.51 -1.98,-0.9 -2.98,-1.19 -0.18,-0.13 -0.37,-0.25 -0.56,-0.37 -1.25,-3.19 -4.22,-1.47 -8.87,-3.36 -2.36,-0.95 -4.05,-2.12 -6.32,-2.93 -0.85,-0.31 -1.73,-0.41 -2.5,-0.73l-6.52 -2.73c-0.84,-0.32 -1.53,-0.42 -2.37,-0.85 -3.17,-1.62 -1.4,-0.72 -4.55,-1.71l-11.19 -5.66c-0.51,-0.29 -0.73,-0.32 -1.12,-0.52 -3.27,-1.68 -1.57,-0.73 -4.82,-1.42 -3.4,-0.74 -6.11,-2.21 -9.52,-2.92l-5.28 -0.95c-0.99,-0.13 -1.95,0.02 -2.48,-0.56 -0.7,-0.76 -0.15,-1.51 -1.8,-1.3 -0.12,0.24 -0.29,0.91 -0.36,1.04 -0.73,1.26 -0.89,0.35 -0.91,0.33 -0.66,-0.51 -0.4,-1.62 -0.42,-2.59 -1.93,-1.19 -6.51,-1.54 -9.05,-2.49 -0.91,-0.35 -0.56,-0.51 -1.56,-0.98 -2.34,-1.11 -7.65,-2.28 -8.58,-4.15 -0.94,-1.88 1.68,-2.72 3.23,-6.27 0.44,-1 0.67,-1.27 1.25,-2.22 1.83,-2.93 1.97,-3.37 4.35,-5.82 1.95,-2 0.54,-2.75 -1.12,-2.76l0.18 -0.42c0.53,0.08 1.14,0.03 1.78,-0.17 1.25,-0.38 1.44,-1.61 1.7,-2.64l1.12 -3.74c0.46,-1.43 -0.19,0.85 0.12,-0.33 0.28,-1.04 0.13,-2.27 0.12,-3.35 -0.01,-5.89 1.81,-2.92 2.7,-5.85 0.25,-0.83 -0.01,-0.7 0.45,-1.63 0.39,-0.78 0.48,-0.71 1.11,-1.21 0.93,-0.73 0.94,-1.95 1.29,-3.1 0.33,-1.07 0.44,-2.16 1.3,-2.84 1.73,-1.37 0.65,-2.21 3.7,-5.09 0.54,-0.5 1.56,-1.84 1.96,-2.42 0.87,-1.26 1.15,-2.8 2.59,-3.66 2.19,-1.3 0.95,-2.65 2.43,-4.27 0.91,-0.99 1.44,-1.29 0.27,-2.69 -0.29,-0.03 -0.53,-0.03 -0.76,0 0.92,-2.16 2.22,-5.48 2.77,-8.15 0.43,0.14 0.83,0.3 1.74,0.26 0.33,-0.82 1.2,-4.14 1.19,-5.08 0,-1.22 -0.48,-2.19 -0.49,-2.8 -0.03,-1.12 0.95,-1.35 0.84,-2.27 -0.18,-1.54 -1.99,-0.18 -1.02,-11.14 0.1,-1.17 0.12,-1.59 0.42,-2.66 0.58,-2.09 1.44,-2.02 1.91,-4.56 0.34,-1.8 -1.28,-3.29 -1.02,-5.17 0.16,-1.23 0.63,-0.82 0.67,-2.58 0.05,-2.14 -0.32,-3.99 -0.28,-6.25 0.07,-3.85 -0.06,-8.21 0.27,-12.02l0.91 -5.53c0.22,-2.51 0.3,-3.19 1.74,-4.74 1.31,-1.4 0.59,-3.8 1,-5.47 0.46,-1.84 1.04,-0.02 1.45,-5.03 0.24,-2.89 -0.25,-2.45 0.43,-6.02 0.31,-1.58 0.51,-4.12 1.08,-5.39 0.45,-0.99 0.7,-0.83 1.35,-1.64 2.42,-3.05 2.35,-1.75 3.02,-6.67 0.41,-3 0.57,-2.67 0.57,-5.92 0,-4.64 -0.21,-4.98 0.8,-8.9 1.12,-4.38 -1.98,-8.58 -3.25,-12.69 -0.55,-1.78 -0.9,-3.27 -1.35,-5.11 -1.36,-5.53 -3.32,-9.13 -4.92,-14.26 -0.71,-2.28 -0.48,-3.11 -2.02,-4.45 -0.65,-0.57 -2.04,-2.85 -2.66,-3.8 -1.41,-2.15 -3.93,-5.44 -5.89,-7.03 -0.23,-0.18 -0.34,-0.26 -0.45,-0.34 -0.23,-1.3 -0.45,-2.92 -0.67,-4.63 0.43,-0.13 0.81,-0.52 0.99,-1.17 0.62,-2.22 -0.41,-4.4 0.27,-6.19 1.01,-2.63 1.27,-2.85 1.21,-5.81 -0.11,-4.71 -2.26,-6.99 -4.1,-10.07 -4.7,-7.88 -6.14,-2.52 -8.45,-4.02 -0.27,-0.17 -1.14,-1.58 -1.46,-2 -0.96,-1.25 -2.41,-2.24 -3.32,-3.63 -0.62,-0.95 -1.01,-1 -2.05,-1.41 -2.01,-0.81 -2.13,-2.27 -3.88,-3.06 -2.05,-0.92 -2.03,-1.78 -3.5,-3.43 -0.55,-0.61 -1.13,-0.93 -1.65,-1.81 -0.56,-0.98 -0.5,-1.42 -1.51,-1.95 -1.39,-0.75 -2.81,-2.04 -4.15,-3.02 -1.02,-0.74 -1.19,-0.31 -1.68,-1.78l-0.28 -0.87c-0.72,-2.45 -2.95,-2.98 -5.38,-3.87 -2.65,-0.98 -1.42,-1.47 -5.13,-1.78 -1.59,-0.14 -1.45,-0.41 -2.61,-0.88l-2.23 -1.23c-1.06,-0.82 -1.41,0.07 -2.66,-0.82 -0.9,-0.64 -0.7,-0.9 -2.11,-1.34 -1.94,-0.61 -2.96,-1.42 -4.88,-2.06 -1.61,-0.54 -3.09,-1.73 -4.23,-2.7 -1.56,-1.32 -4.13,-1.9 -5.99,-2.78l-1.19 -0.67c-1.69,-0.94 -6.67,-1.87 -7.45,-2.94 -1.13,-1.55 -1.94,-2.24 -3.95,-2.97l-10.39 -3.49c-1.85,-0.62 -3.63,-0.88 -5.63,-1.3 -1.75,-0.37 -3.64,-1.16 -5.55,-1.37 -1.58,-0.18 -8.39,-0.85 -9.86,-0.5 -2.77,0.67 -6.89,0.25 -9.96,0.46 -2.1,0.14 -4.27,0.47 -6.33,0.53 -0.47,0.01 -0.95,0.02 -1.44,0.02 8.49,-0.85 17.09,-1.29 25.79,-1.29zm-37.52 51.18c-1.01,0.25 -2.02,0.63 -3.03,1.14 1.01,-0.51 2.02,-0.89 3.03,-1.14zm-68.49 128.4c-0.01,0.2 -0.02,0.38 -0.03,0.54l-1.56 -0.54c-0.01,-0.21 -0.02,-0.41 -0.04,-0.62l1.63 0.62zm-7.25 -12.36l0 0c-0.12,0.27 -0.21,0.54 -0.28,0.82 -0.21,-1.26 -0.71,-3.38 -1.33,-5.75l0.01 -0.02 1.6 4.95zm18.88 17.01l-9.35 -3.29c0.04,-0.14 0.07,-0.3 0.09,-0.47l9.28 3.51 0 0.01c-0.01,0.08 -0.01,0.16 -0.02,0.24zm-16.47 -9.27c-0.7,-1.2 -1.39,-2.48 -1.88,-3.6 0.62,0.31 1.11,0.54 1.49,1.31 0.23,0.47 0.34,1.3 0.39,2.29zm-33.55 31.57l0.14 0.56c-0.52,0.88 -1.17,1.83 -0.9,2.91 0.23,0.93 0.13,0.06 0.34,0.85 0.34,1.26 -0.15,2.71 0.26,3.91 0.6,1.75 0.89,4.95 0.7,6.79 -0.06,0.55 0.82,1.63 1.14,3.82 0.36,2.4 1.48,4.25 2.38,6.42l1.13 3.71c0.67,2.64 -0.53,2.01 1.66,3.84 0.03,2.98 -1.15,2.62 0.45,5.84l0.5 1.12c0.17,0.39 0.35,0.83 0.59,1.25 0.49,0.88 0.79,1.3 1.28,2.19 2.18,3.9 2.33,5.8 3.04,7.12 0.08,0.15 0.17,0.29 0.27,0.42 -0.99,0.36 -1.92,0.81 -2.82,1.37 -1.72,-0.18 -2.66,1.08 -3.72,1.63 -0.58,0.3 -0.89,0.29 -1.44,0.65 -2.74,1.78 0.21,0.65 -4.07,2.16 -0.83,0.29 -0.96,0.18 -0.9,1.14 0.81,0.08 1.77,-0.18 2.23,0.21l-1.51 1.13c-0.12,-0.02 -0.25,-0.03 -0.41,-0.04 -1.27,-0.01 -0.93,0.46 -1.88,0.62 -0.91,0.15 -1.42,-0.43 -3.81,0.82l-4.88 2.75c-2.82,1.84 0.13,1.02 -4.11,3.51 -1.19,0.7 -2,1.4 -3.07,2.01 -4.56,2.59 -4.97,6.01 -3.51,6.49l-76.9 57.33c-8.93,-26.05 -13.78,-53.99 -13.78,-83.06 0,-125.39 90.15,-229.71 209.17,-251.71 -2.17,0.89 -2.6,1.76 -3.57,2.12 -0.73,0.27 -2.25,0.17 -3.26,0.43l-10.53 3.33c-0.88,0.32 -1.53,0.86 -2.21,1.28 -0.84,0.51 -1.52,0.57 -2.42,1.03 -0.88,0.45 -1.07,0.86 -2.11,1.36l-2.09 1.37c-0.69,0.54 -1.56,0.59 -2.36,1.12l-2.18 1.28c-1.61,0.86 -2.28,1.81 -4.1,2.83 -1.24,0.7 -3.14,1.78 -4.25,2.69 -1.81,1.5 -1.93,2.01 -3.96,3.19 -1.28,0.75 -1.84,1.76 -3.97,2.96l-3.25 1.84c-1.41,0.71 -5.32,1.8 -6.04,2.74 -1.55,2.06 -2.41,1.76 -3.76,3.17 -0.9,0.94 -0.84,0.93 -1.81,1.67 -4.31,3.28 -2.96,4.16 -6.67,7.18 -1.09,0.89 -2.17,2.43 -2.96,3.73l-4.01 6.86c-0.84,1.42 -1.67,2.6 -2.82,4.11 -0.47,0.63 -1,1.43 -1.37,2.09 -2.08,3.71 -1.71,2.17 -4.18,6.44l-2.72 4.68c-1.29,2.12 -1.44,5.4 -1.94,7.97 -0.15,0.79 -0.47,2.29 -0.52,2.92 -0.2,2.21 0.42,4.37 0.4,6.78 -0.99,0.76 -1.76,1.17 -2.38,2.61 -1.48,3.42 -2.36,3.64 -0.38,5.12 0.63,0.47 1.1,1.36 1.45,2.02 0.03,0.04 0.06,0.1 0.08,0.15 0.54,1.06 0.89,1.83 0.07,2.9 -1.1,-0.09 -0.82,-0.49 -1.97,-0.32 -1.07,2.36 1.06,1.64 0.12,3.8 -0.77,1.77 -0.57,2.51 0.54,3.87 3.71,4.58 3.55,0.13 5.93,-0.81 1.67,2.32 -0.77,4.81 -2.24,5.8 -2.87,1.93 -3.03,-2.99 -6.75,-0.53 -0.08,2.98 5.78,6.19 6.22,6.25 0.07,0.01 0.15,0.01 0.22,0.02l-0.01 0.26c-0.41,0.04 -0.73,0.1 -0.9,0.19 -1.29,1.38 -0.77,3.28 -1.77,5.15 -1.23,2.3 -2.89,1.19 -4.38,2.77 0.35,1.99 3.24,2.45 4.37,3.78 2.08,2.45 -1.79,2.88 -2.03,2.96 -1,0.35 -1.32,0.57 -2.16,1.07 -1.76,1.04 -3.77,0.41 -5.75,0.7 -2.08,0.31 -3.16,5 -4.14,6.97l-0.62 1.68c-0.47,1.51 -0.63,2.72 -1.25,4.3l-1.77 4.7c-0.53,1.55 -0.68,3.38 -1.18,5.05 -0.88,2.94 -1.15,1.92 0.17,4.69 1.19,2.47 0.56,6.72 1.84,10.86 0.49,1.61 0.73,3.27 1.43,4.8l3.7 15.49c0.17,1.09 -0.09,1.96 0.48,2.74 0.55,0.74 1.18,1.02 1.62,1.61 0.64,0.85 0.26,1.53 0.49,2.76 0.24,1.29 0.31,1.41 0.34,2.88 0.6,-0.23 1.13,-0.77 1.7,-1.22z"/>
  <path class="fil1" d="M141.28 271.09l-11.43 2.54 -0.63 21.27 6.03 27.3 11.11 19.37 2.22 10.15 13.65 18.73 13.5 14.13 4.44 4.29 3.97 11.11 6.67 10.63 16.5 20.48 13.81 8.73c0,0 18.58,-1.59 19.53,-1.27 0.95,0.32 10.47,1.43 10.47,1.43l6.83 3.97 18.57 -5.08 14.45 -25.4 5.71 -18.1c0,0 24.76,-28.57 25.4,-31.42 0.63,-2.86 7.93,-28.89 7.93,-28.89l-3.81 -8.89 4.93 -16.67c0,0 8.25,-11.11 8.57,-12.54 0.32,-1.43 3.33,-7.94 3.33,-7.94l1.27 -11.58 17.3 -23.97c0,0 4.61,-9.69 3.97,-13.34l0.64 -17.62 1.58 -18.09c0,0 2.23,-38.26 3.5,-38.73 1.27,-0.48 4.92,-21.75 4.92,-21.75 0,0 4.76,-10.79 4.76,-11.9 0,-1.11 -3.65,-11.11 -3.65,-11.11l-5.16 -15.56 -3.49 -9.92 -7.86 -8.34c-8.18,-14.61 -28.4,-16.13 -58.1,-0.55 0,0 -9.04,-40.48 -26.5,-23.97 0,0 -4.45,6.35 -1.91,12.7 0,0 -23.17,-22.54 -52.38,-24.45 -29.21,-1.9 -59.37,116.83 -56.83,134.61l-17.14 -6.03c0,0 -5.4,-7.94 -5.4,-10.48 0,-2.54 -5.08,-19.68 -5.08,-19.68l-10.79 -10.16 -17.46 1.59 -3.73 6.35 -4.52 16.98 7.14 28.25 5.87 23.97 0.64 9.37 10.15 28.25 7.78 13.81 8.73 3.42z"/>
  <path class="fil2" d="M361.41 85.83c-0.23,-1.3 -0.45,-2.92 -0.67,-4.63 -0.91,0.28 -2.07,-0.58 -2.18,-2.54 -0.13,-2.36 -0.2,-4.13 -0.54,-6.45 -0.12,-0.85 -0.19,-2.19 -1,-2.5 -1.21,-0.47 -1.55,0.42 -2.21,1.1 -0.92,0.94 -3.37,2.2 -4.86,1.6 -0.61,-1.67 0.04,-4.12 -0.22,-6 -0.16,-1.18 -0.11,-0.41 -0.51,-1.34 -2.05,-0.14 -1.56,-0.13 -2.75,0.64 -0.87,0.57 -1.87,0.42 -2.41,1.05 -0.94,1.16 -0.1,2.93 0.38,4.25 0.68,1.91 0.62,2.02 0.02,3.69 -3.5,0.02 -1.83,-2.62 -1.71,-3.9 -1.33,-1.57 -1.49,-0.32 -2.68,-3.05 -0.98,-2.26 -1.73,-3.65 -2.45,-5.86 -0.31,-0.93 -0.69,-0.88 -1.07,-1.71 -0.61,-1.33 -0.42,-3.24 -1.61,-4.08l-2.99 -0.1 -1.48 -3.14c-0.37,-0.76 -0.8,-1.58 -1.77,-1.66 -1.44,1.87 0.65,5.13 1.35,6.24l1.91 2.48c3.63,3.85 3.09,5.13 4.49,8.21 1.19,2.6 2.7,1.19 2.53,5.58 -2.36,0.58 -2.81,-1.48 -3.55,-2.94l-1.62 -3.23c-0.19,-0.41 -0.09,-0.22 -0.27,-0.66l-2.52 -4.64c-0.43,-0.64 -0.95,-1.17 -1.38,-1.85 -1.47,-2.35 -3.36,-4.38 -4.77,-6.78 -0.77,-1.31 -1.52,-1.57 -0.7,-3.03 0.58,-1.03 0.14,-1.51 -0.29,-2.23l-1.86 -2.97c-2.09,-2.77 -0.63,-2.92 -2.74,-3.51l-1 -0.41c-0.01,6.07 0.9,1.66 0.23,7.46 -0.23,1.9 2.24,1.72 1.56,6.32 -0.93,0.13 -1.91,-0.18 -2.15,0.6 -0.49,1.67 2.17,3.98 3.02,5.16 1.58,2.2 0.69,1.85 0.56,4.02 -0.14,2.34 1.04,2 0.88,4.55 -3.01,0.4 -3.16,-1.28 -4.57,-3.37 -0.38,-0.57 -0.64,-0.87 -1.07,-1.47 -0.97,-1.39 -3.7,-5.38 -4.93,-5.78l-0.78 0.42c-0.45,2.42 3.78,7.31 5.31,10.62 0.67,1.45 3.23,5.94 4.44,8.77 17.99,-5.87 30.96,-3.63 38,5.31 0.87,0.09 1.46,0.82 2.15,1.4 0.24,0.2 0.36,0.28 0.48,0.36zm-44.08 -5.87l-1.02 -3c-0.18,-0.42 -0.21,-0.54 -0.4,-1l-1.23 -2.93c-0.87,-2.09 -2.04,-2.47 -2.82,-4.1 -0.11,-0.23 -0.11,-0.3 -0.21,-0.49l-1.81 -3.74c-1.02,-1.92 -2.01,-4.08 -3.45,-5.55 -0.96,-0.98 -1.3,-2.1 -2.11,-3.42 -0.76,-1.24 -1.69,-2.14 -1.48,-3.9 1.33,0.19 1.37,0.58 1.94,1.58 0.69,1.24 0.67,0.7 1.68,1.55 1.43,1.21 0.68,3.4 3.51,3.09 1.29,-2.48 -1.75,-3.73 -3.15,-5.53 -2.95,-3.76 -4.6,-3.87 -6.32,-5.7 -1.88,-2.01 -4.39,-3.49 -6.44,-5.34 -0.95,-0.87 -1.49,-1.25 -2.52,-2.1 -0.84,-0.69 -1.8,-1.82 -2.45,-2.39l-8.79 -6.01c-0.04,-0.02 -0.1,-0.05 -0.15,-0.07l-2.97 -1.2c-0.9,-0.38 -1.72,-1.25 -2.78,-1.83 -3.51,-1.94 -4.39,-1.8 -7.37,-1.66l0.01 1.86c1.22,0.71 2.6,0.99 3.9,1.87l1.88 0.89c0.27,0.07 0.28,0.06 0.55,0.14 1.56,0.46 1.97,0.84 3.35,1.74 3.35,2.19 6.98,4.22 10.23,6.64 1.64,1.22 3.73,2.57 3.06,5.21 -0.37,1.47 -0.96,2.95 -1.94,3.65 -0.86,-0.22 -1.77,-1.1 -2.61,-1.6 -1.12,-0.65 -1.64,-0.77 -2.86,-1.3 -1.03,-0.44 -2.59,-1.68 -3.87,-2.38 -0.93,-0.5 -0.41,-0.3 -1.48,-0.59 -0.68,-0.18 -0.23,-0.04 -0.89,-0.27 -0.12,-0.05 -0.53,-0.18 -0.67,-0.25 -0.48,-0.25 -0.72,-0.61 -1.13,-0.96 -1.09,-0.9 -4.53,-2.31 -6.13,-2.31 -1.19,0 -2.92,0.08 -4.05,0.25 -2.79,0.42 -3.87,-1.25 -5.89,-2.18 -0.55,-0.25 -0.97,-0.4 -1.44,-0.65l-2.83 -1.33c-1.19,-0.41 -0.46,0 -1.44,-0.63 -1.4,-0.9 -1.5,-0.59 -3,-1.17 -0.98,-0.37 -2.03,-1.22 -2.72,-1.43 -0.68,-0.21 -1.14,-0.05 -1.86,-0.24 -1.08,-0.27 -2.85,-0.39 -3.52,-1.54 -0.03,-0.05 -0.12,-0.26 -0.14,-0.3l-0.15 -0.32c-0.81,0.2 -1.89,0.41 -2.46,-0.33 -0.01,-0.01 -0.28,-0.54 -0.32,-0.61l-0.14 -0.32c-0.36,-0.68 0.19,-0.32 -0.77,-0.83 -0.45,0.75 0.01,1.34 0.42,2.11 0.52,1 0.24,1.49 0.5,1.83 0.58,0.77 1.87,0.77 2.91,2.77 1.15,-0.19 3.21,-0.66 4.22,-0.23 0.53,0.22 0.97,0.58 1.5,0.82 0.67,0.3 1.09,0.31 1.73,0.57 2.2,0.89 4.01,2.32 6.25,3.23 0.65,0.27 1.15,0.46 1.81,0.74 0.4,0.17 0.07,0.02 0.47,0.21l1.07 0.56c1.04,0.54 2.23,0.87 3.11,1.5 0.76,0.55 1.4,1.11 2.34,1.36 0.33,0.09 0.24,0.05 0.54,0.15 0.08,0.03 0.27,0.1 0.34,0.13l0.68 0.24c0.06,0.02 0.12,0.03 0.18,0.05l2.33 1.14c3.4,1.25 3.77,0.76 7.88,2.97 3.2,1.72 1.99,1.35 3.46,2.32 1.51,0.99 3.09,1.45 4.35,2.81 0.88,0.94 1.04,1.63 2.13,2.49 0.58,0.47 1.05,0.61 1.55,1 2.24,1.73 1.44,2.48 2.13,4.74l0.01 0.01 0.69 0.08c2.88,0.02 1.46,1.76 4.43,1.22 2.2,-6.06 -4.32,-4.83 -3.2,-7.68 1.63,-0.46 7.49,3.46 8.91,4.59 0.69,0.56 0.86,1.27 1.41,2.05 0.54,0.75 1.09,1.11 1.59,1.9 0.41,0.63 0.76,1.47 1.18,2.27 0.77,1.46 0.28,1.43 1.59,1.88 2.17,0.76 2.02,1.92 3.04,3.89 0.65,1.27 0.49,1.23 0.86,2.61 0.38,1.45 2.13,0.85 3.61,6.78 0.09,0.37 0.24,0.78 0.39,1.2 1.1,-0.45 2.19,-0.88 3.26,-1.28zm-5.64 2.28c-0.18,-0.64 -0.28,-1.29 -0.54,-1.99 -0.43,-1.16 -1.06,-2.04 -1.7,-3.15 -0.38,-0.68 -0.54,-1.02 -0.82,-1.71 -0.6,-1.54 -3.45,-6.44 -4.39,-7.63 -1.61,-2.04 -4.53,-7.18 -6.07,-7.36l-0.77 0.13c0,-0.01 -1.08,0.01 1.11,3.03 1.57,2.18 3.22,6.61 4.59,9.27 1.55,2.99 1.93,3.48 2.58,6.68 0.24,1.13 1.08,3.14 1.41,4.84 1.56,-0.75 3.1,-1.45 4.6,-2.11zm-28.93 -23.44c-0.08,-0.08 -0.18,-0.16 -0.27,-0.24 -1.27,-1.14 -4.48,-1.95 -6.23,-3.23 -0.51,-0.37 -0.17,-0.07 -0.48,-0.44 -0.57,-0.67 -0.26,-0.64 -0.92,-1.19 -1.51,-1.24 -3.43,-2.33 -5.16,-3.15 -1.03,-0.48 -2.33,-0.61 -2.93,-1.23 -0.94,-0.99 -0.82,-1.27 -2.35,-1.81 -1.1,-0.39 -1.44,-0.96 -2.67,-1.48 -2.16,-0.93 -5.46,-1.87 -7.82,-2.59 -0.73,-0.22 -0.97,-0.18 -1.61,-0.46 -1.36,-0.59 -1.83,-0.55 -3.25,-0.9l-12.22 -4.42c-1.1,-0.42 -3.07,-1.74 -5.62,-2.7l-2.87 -1.29c-0.82,-0.38 -4.71,-0.96 -2.85,0.74 1.71,1.56 2.28,1.36 3.32,1.57 1.07,0.23 0.98,1.55 3.51,3.18 0,2.41 -0.15,2.86 -1.99,3.55 -1.03,0.39 -2.68,1.24 -3.24,2.07 -0.52,0.77 -1.89,2.72 -1.69,3.79 0.07,0.36 0.8,1.59 1.05,2.74 0.35,0.05 0.7,0.1 1.04,0.15 0.08,-0.08 0.17,-0.17 0.28,-0.25 0.76,-0.62 1.47,-0.06 2.48,-0.01 1.2,0.05 1.38,-0.38 2.77,-0.33 0.29,0.1 1.92,1.93 4.62,2.15 2.92,0.23 3.6,1.48 4.62,1.8 0.5,-0.6 0.62,-0.74 0.67,-1.57l-5.59 -3.64c-0.64,-0.35 -2.42,-1.27 -2.67,-2.03 -0.34,-1.04 0.22,-1.01 1.09,-1.05 2.35,-0.12 2.25,0.02 3.68,0.99 0.95,0.64 0.29,0.21 1.75,0.57 1.09,0.27 2.45,0.38 3.38,1.23 2,1.83 6.35,3.21 8.26,5.36 0.69,0.78 1.68,1.19 2.66,1.97 1.03,0.84 0.84,1.34 2.4,2.21 0.83,0.47 2.05,1.06 2.84,1.56 4.69,2.92 0.62,-0.43 5.31,3.94l2.68 1.94c1.08,0.98 0.57,1.62 0.63,3.39 1.04,0.87 1.06,0.76 2.49,0.91 1.14,0.12 1.16,0.4 1.67,1.14 -0.19,-3.74 1.42,-7.03 2.23,-8.43l-13.99 -9.47c-2.81,-1.21 -3.87,-2 -6.46,-3.46 -2.48,-1.4 -8.74,-2.99 -11.74,-3.96 -3.63,-1.17 -2.4,-0.36 -5.7,-2.08 0.17,-0.5 -0.01,-0.56 0.91,-1.06l0.31 -0.15c2.42,-1.05 5.09,0.92 7.29,2.08 1.77,0.93 5.03,0.48 6.69,1.17 0.89,0.37 1.67,0.89 2.59,1.34 1.02,0.5 1.66,0.77 2.75,1.19 1.16,0.44 1.34,1.18 2.53,1.41 1.23,0.23 1.66,-0.32 2.94,0.27 0.94,0.44 1.25,1.2 1.95,1.97 1.03,1.13 0.96,0.73 2.58,1.35 1.57,0.61 1.25,0.93 2.39,1.55 0.74,0.4 1.76,0.82 2.44,1.28 1.18,0.81 1.77,3.22 3.54,4.29 0.14,0.09 0.46,0.19 0.83,0.34 1.82,-1.43 3.53,-2.25 5.15,-2.57zm-63.79 -7.73c-2.03,-1.03 -2.49,-0.57 -4.22,-1.47 -1.32,-0.69 -1.17,-0.92 -3,-1.41 -2.26,-0.6 -3.98,-1.47 -6.05,-2.27 -1.43,-0.56 -1.81,-0.28 -2.37,-1.68 0.54,-0.63 0.21,-0.19 0.75,-0.52 0.83,-0.5 0.25,0.13 0.78,-0.64 -0.47,-0.48 -2.44,-1.68 -3.11,-1.99 -1.19,-0.54 -2.74,-0.91 -4.23,-0.7 -0.45,0.67 -0.51,1.65 -0.73,2.5l-0.22 0.5c-0.01,-0.03 -0.05,0.11 -0.09,0.16 -1.63,0.86 -4.91,-1.1 -6.29,-1.53 -3.04,-0.94 -3.49,-1.22 -6.56,-0.29 -1.45,0.44 -2.36,-0.12 -3.65,0.52 -1.11,0.54 -1.38,1.04 -2.6,1.56 -1.56,0.66 -4.55,1.19 -6.03,2.05l0.03 1.57c0.68,0.32 0.06,-0.16 0.65,0.46 1.59,-0.08 3.32,-1.04 4.16,-2.05 2.32,1.15 1.43,0.09 3.42,0.32 2.13,0.25 4.31,2.74 4.23,5.01 -0.04,1.22 -1.08,1.83 -1.86,2.54 -0.02,1.16 0.05,2.48 0.68,3.47 1.63,0.01 2.29,-0.55 3.93,-0.72 8.68,-0.9 11.03,3.5 10.59,-0.17 -0.86,-0.5 -0.75,-0.44 -1.98,-0.6 -0.8,-0.1 -1.29,-0.23 -1.92,-0.58 -1.39,-0.77 -1.64,-1.13 -1.58,-3.27 1.3,0.06 2.29,0.62 3.67,0.73 3.8,0.3 5.2,2.85 9.9,2.68l0.45 -1.31c-0.7,-0.55 -1.96,-0.97 -3.04,-1.3 -1.78,-0.54 -2.05,-0.3 -3.79,-0.61 -0.99,-0.18 -2.11,-0.92 -3.25,-1.12 -1.19,-0.21 -3.04,0.24 -3.94,-0.43 0.16,-1.17 1.75,-1.17 2.87,-1.28 3.42,-0.32 6.44,1.23 9.67,2.13 0.81,0.22 2.73,0.56 3.33,0.81 1.13,0.47 0.56,1.32 2.58,1.35 1.82,0.02 1.85,-0.14 2.58,0.5 2.07,-1.5 4.15,-2.5 6.24,-2.92zm-17.54 15.82c-0.63,-0.19 -1.29,-0.56 -1.97,-1.33 -1.08,-1.21 -1.18,-0.84 -3.11,-1.07 -1.49,-0.18 -2.05,-0.82 -2.97,-1.15l-3.45 -0.73c-1.93,-0.44 -5.7,0.09 -7,-1.28 0.75,-1.64 4.76,-1.53 6.11,-1.28 2.09,0.4 4.14,0.95 6.12,1.25 3.55,0.53 6.07,1.91 8.2,2.75 0.45,-0.63 0.9,-1.25 1.36,-1.85 -0.46,-0.19 -0.95,-0.32 -1.43,-0.45 -0.52,-0.15 -0.75,-0.33 -1.28,-0.58 -1.99,-0.98 -3.99,-0.89 -6.31,-1.53 -7.67,-2.13 -7.28,-0.23 -14.19,-0.61 -0.12,-2.5 -3.3,-1.74 -4.92,-1.23l-2.93 0.78c-1.12,0.19 -1.94,0.5 -2.76,0.93 0.1,0.95 0.8,2.19 0.18,3.19 -0.16,0.26 -2.98,2.66 -4.18,3.2 -1.06,0.47 -1.57,0.93 -1.47,2.04 0.7,0.04 3.51,-1 4,-1.35 1.22,-0.87 0.65,-2.65 3.03,-2.43 1.87,3.84 -0.61,4.72 -2.75,6.63 -1.14,1.02 -5.63,3.91 -8.69,6.56 -0.67,0.58 -0.66,0.58 -1.28,1.26 -0.45,0.5 -0.82,0.71 -1.31,1.23 -0.91,0.97 -1.62,1.23 -2.61,2.47 -0.9,1.13 -1.58,1.63 -2.05,3.07 0.98,0.01 1.95,-0.37 2.66,-0.15 0.41,3.86 -2.5,4.14 -4.6,7.88 -0.66,1.18 -1.87,2.5 -2.7,3.54 -0.35,0.45 -1.28,1.4 -1.61,1.63 -0.35,0.24 -0.56,0.29 -1.1,0.51 -0.74,0.29 -0.21,0.13 -0.94,0.44 -0.03,0.68 0.02,2.1 -0.12,2.66 -0.23,0.87 -0.72,0.85 -1.29,1.25 -0.95,0.67 -2.16,3.18 -2.77,4.38 -1.49,2.98 -0.75,1.27 -2.91,2.86l-1.56 1.07c1.37,2.36 -0.16,2.33 -1.16,6.43l-2.16 -0.12c-0.16,1.43 0.41,3.28 0.71,4.69 0.27,1.29 -0.36,4.13 0.15,4.91 1.22,-0.36 1.75,-2.11 2.24,-3.28 0.82,-1.95 0.65,-2.83 1.08,-4.47 0.18,-0.68 1.86,-2.53 2.26,-3.27 0.75,-1.4 0.52,-2.32 1.77,-3.55 0.56,-0.55 0.78,-0.72 1.31,-1.45l5.01 -8.85c1.16,-1.78 2.39,-2.89 3.51,-4.58 1.02,-1.55 2.68,-3.15 3.63,-4.68 1.2,-1.93 1.38,-1.34 2.85,-2.71 3.07,-2.85 3.45,-5.36 4.51,-6.33 1.03,-0.95 2.32,-1.42 3.55,-2.02l2.75 -1.39c0.24,-0.09 0.3,-0.1 0.51,-0.19l1.49 -0.59c0.33,-0.11 0.83,-0.22 1.08,-0.31 0.92,-0.37 0.83,-0.6 0.8,-1.72 -2.13,-0.26 -3.89,0.74 -5.45,-0.31 -0.41,-2.62 2.12,-3.08 3.83,-4.09 0.72,-0.43 1.89,-1.14 3.01,-0.46 1.48,0.9 -0.15,1.16 2.76,1.16l0.14 -3.11c1.13,-0.36 2.51,-0.55 3.57,-1.05 1.03,-0.49 0.59,-0.41 1.85,-0.46 0.5,-0.01 0.59,0.03 1.07,-0.09 0.86,-0.21 3.17,-0.9 4.29,-0.64 4.26,0.98 5.72,-1.23 11.48,0.76 0.12,0.04 0.24,0.08 0.36,0.12 0.59,-1 1.2,-1.98 1.8,-2.91zm-5.09 8.74c-0.74,-0.09 -0.86,-0.4 -1.87,-0.41 -0.1,1.21 0.33,1.76 1.03,2.02 0.28,-0.54 0.56,-1.08 0.84,-1.61zm-2.44 4.79c-1.34,0.21 -2.87,0.61 -4.31,0.72 -4.38,0.32 -6.66,1.29 -8.78,1.4 -1.55,0.08 -1.3,0.19 -2.49,0.79 -2.03,1.04 -3.79,0.27 -5.75,1.17l-4.76 1.94 -4.26 5.9c-1.61,2.13 -3.61,5.93 -5.3,8.34 -0.58,0.82 -0.89,1.06 -1.46,1.78 -1.04,1.3 -1.81,2.63 -2.74,3.95l-6.34 10.54c-1.87,2.72 -1.96,3.82 -3.46,6.47 -0.45,0.81 -1.95,3.8 -1.83,4.4 0.43,1.01 1.15,1.2 2.18,0.78 0.9,-0.56 1.48,-3.54 2.05,-4.87 0.77,-1.79 1.33,-3 2.22,-4.71l2.66 -4.26c3.27,-5.41 2.89,-3.85 3.96,-5.53 1.4,-2.17 3.04,-4.2 4.95,-5.91 0.59,-0.53 1.2,-1.05 1.9,-1.55 0.78,-0.55 1.17,-0.99 1.97,-1.51 2,-1.29 1.8,-2.68 3.33,-3.36 0.84,0.32 1.06,0.6 1.67,1.16 -0.51,0.99 -1.51,2.25 -1.34,3.41l1.48 0.01c0.48,-0.94 0.22,-0.09 0.54,-1.3 0.13,-0.5 0.2,-0.8 0.37,-1.26 0.4,-1.09 0.8,-1.22 1.53,-1.93 1.04,-1 1.89,-3.6 3.84,-2.37 0.37,0.66 0.37,3 0.17,3.84 -0.2,0.8 -1.17,1.55 -1.83,2.32 -1.42,1.63 -2.15,3.11 -2.83,5.03 -0.01,0.04 -0.05,0.2 -0.06,0.17 -0.01,-0.03 -0.04,0.11 -0.07,0.18l-3.24 -0.03 -1.75 3.34c-0.99,1.88 0.13,2.45 0.1,4.04l-2.96 0.06c-0.09,1.6 0.69,3.2 -0.66,3.92 -2.59,1.39 -1.74,-0.61 -3.76,3.88 -0.96,2.12 0.55,4.26 -2.08,5.31 -1.9,0.75 -2.31,0.41 -1.71,2.69 0.31,1.16 -0.11,1.07 -0.49,1.79 -0.53,0.99 -0.13,1.05 -0.38,1.94 -0.39,1.38 -3.74,1.79 -5.3,2.34 -0.66,0.24 0.41,0.19 -0.89,0.24 -2.01,0.09 -0.97,-2.75 -1.29,-3.99 -1.02,-0.22 -1.51,0.48 -2.36,1.05 -1.18,0.79 -1.49,0.39 -3.01,0.7 -0.97,0.2 -1.34,1.34 -2.02,1.65 -0.75,0.33 -2.29,0.11 -3.29,0.21 0.26,1.76 3.3,2.16 2.28,3.82 -0.69,0.85 -2.62,-0.18 -3.63,-0.33 -1.96,1.9 0.58,2.31 1.2,3.85 2.42,0 3.28,-0.68 4.4,1.26 0.24,0.42 0.78,1.05 0.86,1.22 0.71,1.47 -0.56,1.96 0.04,3.17 1.36,2.68 3.82,1.07 4.76,3.82 0.84,2.42 -1.5,3.75 -2.39,5.7 -1.23,2.69 0.26,0.86 -2.15,4.1 -0.11,0.14 -0.19,0.26 -0.25,0.36l1.6 4.95c0.03,-0.07 0.06,-0.13 0.09,-0.19 0.31,-0.65 0.48,-0.92 0.74,-1.57 0.29,-0.7 0.38,-0.75 0.73,-1.35 1.51,-2.59 1.31,-4.63 4.16,-4.39 0.39,0.52 0.52,0.85 0.67,1.43 0.12,0.47 0.13,0.54 0.24,0.91 0.62,2.03 -0.07,2.77 0.45,4.4 0.31,0.97 0.71,2.15 0.32,3.25 -0.33,0.94 -1.15,1.37 -1.75,2.19 -0.52,0.73 -1.22,1.55 -0.94,2.69 0.04,0.15 0.45,1.47 0.49,1.6 0.32,0.98 0.37,1.91 0.42,2.77l1.63 0.62c0.02,-0.33 0.04,-0.71 0.04,-1.14 1.39,-1.03 0.67,-0.36 0.97,-2.29 0.34,-2.22 3.31,-7.3 4.48,-9.64 1.38,-2.74 1.56,-3.09 4.14,-3.06l0.78 2.31c1.77,-0.21 2.93,-2.74 4.66,0.01 1.27,2.02 0.33,3.39 1.03,5.33 0.35,-2.29 0.77,-4.76 1.27,-7.38l0 0c-0.29,-1.03 -0.19,-1.72 0.46,-2.38 0.35,-1.74 0.73,-3.54 1.13,-5.4 -0.14,0.2 -0.35,0.37 -0.84,0.56 -0.95,-0.52 -0.93,-1.2 -0.93,-2.31 0,-2.09 0.49,-1.19 1.15,-2.78 1.37,-3.28 0.96,-0.94 1.64,-2.99 0.31,-0.94 0.91,-2.8 0.86,-3.66 -3.52,-0.24 -2.84,1.6 -5.16,2.36 -0.95,0.31 -0.56,-0.13 -1.39,0.47 -1.25,0.9 -0.61,2.71 -0.85,4.69 -1.45,0.13 -5.67,-2.57 -5.24,2.6l1.53 0.78c1.24,0.89 -1.41,2.89 -2.17,3.44 -0.76,0.57 -1.24,0.51 -2,1.02 -0.72,0.48 -0.87,0.9 -2.14,0.67 -0.15,-1.15 0.03,-2.32 -0.25,-3.45 -1.1,-4.49 -1.31,-4.95 2,-7.31 0.01,-1.08 -0.26,-2.38 -0.19,-3.19 0.07,-0.92 0.58,-1.74 0.56,-2.49 -0.82,-0.54 -5.27,-1.25 -6.83,-1.25 0,-1.18 -0.52,-2.31 0.39,-3.07 1.1,-0.93 0.27,0.56 1.86,-1.84 1.03,-1.57 4.27,-1.17 5.41,-1.98 3.54,-2.5 3.21,-0.4 5.27,-2.35 1.18,-1.12 3.8,-1.86 4.55,-2.85 0.71,-0.92 1.26,-2.91 1.7,-4.07 0.49,-1.28 0.16,-0.48 0.78,-1.08 1.17,-1.13 0.05,-1.06 1.59,-2.11 1,-0.68 0.3,0.33 0.73,-1.11 0.94,-3.18 1.41,-3.47 2.83,-6.41 1.3,-2.68 0.85,-2.45 3.49,-3.93l0.16 -1.43c1.03,-0.19 1.37,-0.17 2.22,0.11 0.82,0.28 1.37,0.26 1.82,0.07 0.75,-2.17 1.51,-4.34 2.3,-6.49 -0.2,0.18 -0.15,0.38 -0.52,1.06 -1.68,3.1 -4.99,0.97 -5.5,0.8 -0.82,-0.28 -1.3,-0.07 -2.15,-0.4 -0.06,-1.25 0.78,-4.49 1.3,-5.38 0.9,-1.53 3.96,-1.9 4.11,-2.81 -0.13,-1.8 -1.3,-0.73 -1.29,-2.5 0.01,-1.04 0.12,-2.61 0.17,-3.74 0.64,-0.47 0.42,-0.37 1.28,-0.77 3.14,-1.45 2.32,-2.51 4.69,-2.72 2.57,-0.22 1.94,-0.54 3.98,-1.54 0.51,-0.25 0.98,-0.42 1.43,-0.59 0.86,-1.9 1.72,-3.75 2.6,-5.55zm-72.48 41.92l-0.01 0.26c2.49,-0.24 8.59,0.37 9.68,-0.52 -0.27,-2.32 -2.52,-0.38 -4.11,-0.26 -1.53,0.12 -4.09,0.63 -5.56,0.52zm30.94 58.13l9.28 3.51c0.08,-1.76 0.11,-4.99 0.54,-6.61 0.61,-2.3 1.09,-0.86 0.85,-6.12l-1.67 -0.41c-0.63,0.94 -1,1.56 -1.45,2.87 -0.72,2.09 -0.43,0.47 -1.68,2.47 -1.2,1.93 -0.99,0.08 -1.49,2.91 -0.23,1.32 -1.21,1.61 -2.5,1.67 -0.54,-1.19 -0.3,-1.58 -1.62,-1.39 -0.19,0.36 -0.22,0.76 -0.26,1.1zm-20.7 -110.89c-0.16,-1.39 0.7,-2.43 1.18,-3.54 1.32,-3.03 1.73,-3.46 3.56,-6.15 1.21,-1.77 1.89,-0.46 3.05,0.06 1.16,-0.24 1.6,-0.97 2.72,-0.8l0.05 1.26 -2.68 2.4c-1.24,0.76 -1.67,1.32 -2.61,2.23l-3.81 3.82c-0.6,0.6 -0.56,0.8 -1.46,0.72zm39.2 -34.12c0.07,-2.46 2.49,-2.66 4.87,-2.81 1.78,-0.11 4.88,-0.91 6.64,-0.64 2.28,0.34 4.35,-0.02 5.58,0.24 0.82,0.18 0.41,0.27 1.43,0.38 2.36,0.25 4.9,-0.22 7.18,0.25l6.32 1.32c5.6,1.07 1.17,0.05 5.84,1.54 2.46,0.78 3.36,0.45 5.43,1.97 1.18,0.87 1.22,1.02 2.62,1.54l0.33 0.13c1.03,0.37 1.1,0.25 2.63,0.24 0.96,1.79 3.36,1.72 3.16,4.61 -2.96,-0.02 -3.22,-1.31 -5.4,-1.77 -2.48,-0.52 -1.1,-0.41 -2.77,-0.95 -0.47,-0.15 -1.05,-0.36 -1.39,-0.43 -0.55,-0.11 -0.9,-0.08 -1.44,-0.2l-4.53 -1.69c-0.06,-0.02 -0.12,-0.04 -0.18,-0.06l-1.22 -0.39c-0.31,-0.08 -0.43,-0.07 -0.77,-0.15 -0.66,-0.17 -0.42,-0.2 -1.29,-0.34 -2.7,-0.44 -4.34,-1.24 -5.76,-1.41 -4.09,-0.49 -2.66,-0.99 -4.65,-0.5l-1.11 0.11c-1.58,-0.17 -4.07,-2.71 -8.89,-1.09 -0.06,0.02 -0.12,0.04 -0.18,0.06l-2.19 0.62c-0.97,0.1 -1.43,-0.34 -2.09,-1.02 -1.01,0.21 -0.08,0.01 -0.72,0.25 -0.6,0.22 -1.4,0.46 -1.85,0.93 -0.72,0.76 -0.52,1.37 -1.58,1.93 -0.73,-0.45 -0.99,-1.29 -1.46,-2.19 -1.58,0.14 0.15,0.69 -1.58,0.42 -0.55,-0.08 -0.77,-0.44 -0.98,-0.9zm2.79 101.32c0.11,-0.63 0.28,-1.26 0.51,-1.95 0.03,-0.09 0.06,-0.18 0.09,-0.26 -0.2,0.74 -0.4,1.47 -0.6,2.21zm13.68 -41.45c0.07,-1 0.5,-1.93 1.09,-2.69 -0.36,0.89 -0.73,1.79 -1.09,2.69z"/>
  <path class="fil3" d="M224.04 496.02l-0.04 -1.85c1.09,-0.68 1.87,-1.62 2.97,-2.35 1.18,-0.79 2.1,-1.68 3.6,-2.1 0.46,0.8 1.15,1.49 0.74,2.48 -0.49,1.17 -3.32,2.46 -4.53,2.9 -0.96,0.35 -1.6,0.93 -2.74,0.92zm-10.45 -28.46c1.29,0.03 2.31,0.89 3.17,1.54 1.56,1.18 4.66,3.9 2.35,5.86 -0.63,0.54 -2.42,1.48 -3.17,1.62 -1.12,-1.29 -0.46,-2.42 -1.19,-4.3 -0.44,-1.13 -1.13,-3.22 -1.16,-4.72zm-81.93 -397.98c-0.16,-1.39 0.7,-2.43 1.18,-3.54 1.32,-3.03 1.73,-3.46 3.56,-6.15 1.21,-1.77 1.89,-0.46 3.05,0.06 1.16,-0.24 1.6,-0.97 2.72,-0.8l0.05 1.26 -2.68 2.4c-1.24,0.76 -1.67,1.32 -2.61,2.23l-3.81 3.82c-0.6,0.6 -0.56,0.8 -1.46,0.72zm39.2 -34.12c0.07,-2.46 2.49,-2.66 4.87,-2.81 1.78,-0.11 4.88,-0.91 6.64,-0.64 2.28,0.34 4.35,-0.02 5.58,0.24 0.82,0.18 0.41,0.27 1.43,0.38 2.36,0.25 4.9,-0.22 7.18,0.25l6.32 1.32c5.6,1.07 1.17,0.05 5.84,1.54 2.46,0.78 3.36,0.45 5.43,1.97 1.18,0.87 1.22,1.02 2.62,1.54l0.33 0.13c1.03,0.37 1.1,0.25 2.63,0.24 0.96,1.79 3.36,1.72 3.16,4.61 -2.96,-0.02 -3.22,-1.31 -5.4,-1.77 -2.48,-0.52 -1.1,-0.41 -2.77,-0.95 -0.47,-0.15 -1.05,-0.36 -1.39,-0.43 -0.55,-0.11 -0.9,-0.08 -1.44,-0.2l-4.53 -1.69c-0.06,-0.02 -0.12,-0.04 -0.18,-0.06l-1.22 -0.39c-0.31,-0.08 -0.43,-0.07 -0.77,-0.15 -0.66,-0.17 -0.42,-0.2 -1.29,-0.34 -2.7,-0.44 -4.34,-1.24 -5.76,-1.41 -4.09,-0.49 -2.66,-0.99 -4.65,-0.5l-1.11 0.11c-1.58,-0.17 -4.07,-2.71 -8.89,-1.09 -0.06,0.02 -0.12,0.04 -0.18,0.06l-2.19 0.62c-0.97,0.1 -1.43,-0.34 -2.09,-1.02 -1.01,0.21 -0.08,0.01 -0.72,0.25 -0.6,0.22 -1.4,0.46 -1.85,0.93 -0.72,0.76 -0.52,1.37 -1.58,1.93 -0.73,-0.45 -0.99,-1.29 -1.46,-2.19 -1.58,0.14 0.15,0.69 -1.58,0.42 -0.55,-0.08 -0.77,-0.44 -0.98,-0.9zm-50.35 56c-0.99,0.76 -1.76,1.17 -2.38,2.61 -1.48,3.42 -2.36,3.64 -0.38,5.12 0.63,0.47 1.1,1.36 1.45,2.02 0.03,0.04 0.06,0.1 0.08,0.15 0.54,1.06 0.89,1.83 0.07,2.9 -1.1,-0.09 -0.82,-0.49 -1.97,-0.32 -1.07,2.36 1.06,1.64 0.12,3.8 -0.77,1.77 -0.57,2.51 0.54,3.87 3.71,4.58 3.55,0.13 5.93,-0.81 1.67,2.32 -0.77,4.81 -2.24,5.8 -2.87,1.93 -3.03,-2.99 -6.75,-0.53 -0.08,2.98 5.78,6.19 6.22,6.25 1.43,0.18 4.17,-0.38 5.78,-0.5 1.59,-0.12 3.84,-2.06 4.11,0.26 -1.27,1.03 -9.34,0.04 -10.58,0.71 -1.29,1.38 -0.77,3.28 -1.77,5.15 -1.23,2.3 -2.89,1.19 -4.38,2.77 0.35,1.99 3.24,2.45 4.37,3.78 2.08,2.45 -1.79,2.88 -2.03,2.96 -1,0.35 -1.32,0.57 -2.16,1.07 -1.76,1.04 -3.77,0.41 -5.75,0.7 -2.08,0.31 -3.16,5 -4.14,6.97l-0.62 1.68c-0.47,1.51 -0.63,2.72 -1.25,4.3l-1.77 4.7c-0.53,1.55 -0.68,3.38 -1.18,5.05 -0.88,2.94 -1.15,1.92 0.17,4.69 1.19,2.47 0.56,6.72 1.84,10.86 0.49,1.61 0.73,3.27 1.43,4.8l3.7 15.49c0.17,1.09 -0.09,1.96 0.48,2.74 0.55,0.74 1.18,1.02 1.62,1.61 0.64,0.85 0.26,1.53 0.49,2.76 0.24,1.29 0.31,1.41 0.34,2.88 0.81,-0.31 1.47,-1.17 2.3,-1.62 -0.38,1.17 -1.73,2.39 -1.36,3.87 0.23,0.93 0.13,0.06 0.34,0.85 0.34,1.26 -0.15,2.71 0.26,3.91 0.6,1.75 0.89,4.95 0.7,6.79 -0.06,0.55 0.82,1.63 1.14,3.82 0.36,2.4 1.48,4.25 2.38,6.42l1.13 3.71c0.67,2.64 -0.53,2.01 1.66,3.84 0.03,2.98 -1.15,2.62 0.45,5.84l0.5 1.12c0.17,0.39 0.35,0.83 0.59,1.25 0.49,0.88 0.79,1.3 1.28,2.19 2.18,3.9 2.33,5.8 3.04,7.12 0.41,0.76 1.09,1.32 1.34,2.19 -0.25,1.67 -1.59,1.65 -2.04,2.88 -0.71,1.99 0.74,2.04 -0.99,3.78 -1.23,-0.15 -1.29,-0.55 -2.34,-0.64 -0.97,0.94 -2.13,4.41 -2.77,5.77l-1.7 3.15c-0.02,0.05 -0.05,0.1 -0.07,0.15 -0.03,0.05 -0.06,0.11 -0.08,0.16 -0.13,0.26 -0.21,0.41 -0.37,0.79 -0.25,0.63 -0.36,1.15 -0.58,1.73 -0.78,2.04 -3.9,6.92 -3.91,9.03 -0.01,1.65 1.44,1.6 2.08,2.19l1.08 -0.88c0.22,2 0.46,4.78 2.28,4.58 0.2,-1.52 -1.54,-5.9 0.8,-6.4 1.29,0.89 1.62,6.15 -0.67,7.82 -0.13,3.82 0.46,4.29 0.96,7.65 0.19,1.28 0.1,2.65 0.58,3.8 0.53,1.28 1.15,2.4 -0.9,2.48 -0.51,-1.68 -0.46,-4.59 -1.02,-6.57l-0.99 -4.54c-0.14,-1.19 0.24,-1.06 -0.5,-1.61 -0.32,0.36 -0.42,0.79 -0.31,1.62 0.32,2.4 0.46,2.44 0.45,5.33 0,2.95 0.14,4.41 0.97,6.74 0.09,0.25 0.18,0.52 0.24,0.68l0.2 0.5c0.81,2.09 0.85,6.6 2.67,10.96 1.32,3.13 0.92,10.15 0.79,14.38 -0.11,3.6 -0.3,7.29 0.07,10.86 0.18,1.75 0.89,1.46 0.92,3l-1.37 0.9c0.07,0.85 0.25,1.2 0.35,1.96 0.25,2.04 -0.44,3.32 0.72,5.99 0.26,0.61 0.57,0.87 0.88,1.44 0.5,0.93 0.21,1.07 0.46,2.08 0.26,1.12 1.16,2.02 1.25,3.57 0.11,1.9 0.31,2.34 1.14,3.74 1.3,2.2 0.32,1.85 0.89,3.97 0.29,1.09 1.03,2.16 1.47,3.36 0.42,1.15 0.53,2.83 1.93,2.62 0.46,-1.76 -0.27,-3.17 -0.91,-4.56 -1.04,-2.3 -1.81,-4.46 -1.01,-7.04 0.45,-1.41 -0.06,-1.41 0.02,-2.52 0.14,-1.94 0.1,-1.71 -1.42,-4.17 -1.14,0.11 -0.65,0.5 -2.48,0.37l-0.11 -2.01c2.3,-1.62 1.85,-2.64 1.68,-5.31 -0.2,-3.25 0.2,-3.48 0.87,-6.3 0.67,-2.82 -1.3,-3.3 -1.11,-5.46 0.15,-1.82 1.31,-4.31 -0.47,-5.78 -2.15,0.98 0.19,5.51 -0.55,11.45 -1.76,0.25 -1.31,-0.99 -1.3,-2.69 0.02,-2.85 -0.69,-5.23 -0.16,-8 0.26,-1.4 0.16,-2.87 0.17,-4.29 1.35,0.47 0.41,0.74 1.84,1.13 1.64,-0.67 1.56,-3.05 1.34,-4.97 -2.65,-1.22 -0.81,0.45 -2.99,0.92 -0.22,-0.83 -0.76,-5.14 1.23,-3.81 0.57,0.38 0.59,0.76 1.17,0.9 0.84,0.21 2.32,-0.7 3.26,0.47 1.48,1.84 1.51,6.41 2.49,8.84 0.02,0.05 0.05,0.11 0.07,0.16l0.68 1.4c0.02,0.05 0.05,0.11 0.08,0.16 0.06,0.12 0.2,0.41 0.23,0.46 0.61,1.28 1.37,2.4 1.74,3.8 0.02,0.07 0.04,0.13 0.05,0.19 0.02,0.05 0.04,0.11 0.06,0.17l1.2 3.41c1.25,2.99 1.23,5.24 2.16,6.16 0.56,0.55 1.16,0.95 1.42,1.81l0.35 1.73c0.4,1.31 -0.25,-1.02 0.12,0.34 0.1,0.35 0.05,0.24 0.12,0.58 0.53,2.64 0.52,1.91 0.66,5.54 0.06,1.4 0.28,2.37 0.27,3.92 0,2.46 -0.32,5.49 0.83,7.72 0.99,1.93 0.56,1.51 0.11,3.19 -0.42,1.52 0.24,6.06 0.32,7.97 0.12,2.76 0.04,5.44 0.13,8.16 0.11,3.17 1.35,3.78 0.57,7.26 -0.13,0.57 0.32,2.86 0.5,3.43 0.61,1.84 1.51,2.88 2.21,5.41l0.65 1.44c0.02,0.05 0.05,0.11 0.07,0.15l5.08 10.17c0.52,1.07 0.89,1.95 2.45,1.98 -0.21,-2.01 -1.84,-3.44 -0.95,-4.7 1.78,0.38 1.82,4.09 2.97,5.19 0.13,0.13 0.85,0.51 0.9,0.52 2.46,0.57 0.33,-2.44 -0.12,-3.15 -0.75,-1.18 -0.87,-2.44 -1.62,-3.24 -0.88,-0.96 -1.61,-1.26 -2.3,-2.55 -0.64,-1.21 -0.85,-2.07 -1.67,-3.19 -1.47,-2.01 -1.94,-4.24 -3.1,-6.36 -1.38,-2.54 -2.2,-4.2 -2.58,-7.12 0.42,-0.27 1.02,-0.53 1.54,-0.87 0.03,-2.12 0.51,-2.24 -0.03,-4.35 -0.18,-0.72 -0.41,-1.15 -0.43,-2.1 -0.01,-0.88 0.06,-1.57 -0.09,-2.45 -1.47,-0.2 -0.5,0.88 -2.17,0.8 -0.37,-1.03 -0.1,-3.49 -0.08,-4.9 1.15,0.29 0.88,0.6 1.88,0.75 0,-1.64 -0.51,-2.24 -0.47,-3.22 0.09,-1.83 0.27,-0.13 0.45,-1.44 0.19,-1.4 -0.11,-0.35 -0.37,-1.39 -0.61,-2.48 1.32,-5.02 -0.52,-5.9 -0.73,0.66 -0.23,0.76 -0.76,1.72l-1 0.04c-0.87,-1.69 0.64,-3.21 1.3,-4.58 1.39,-2.85 0.07,-0.95 2.68,-2.86 0.2,-1.82 -1,-3.95 -1.57,-5.42 -0.97,-2.51 -1.56,-5.42 -1.94,-8.2 -0.12,-0.89 -0.07,-1.66 -0.22,-2.59l-0.48 -2.31c-0.02,-0.05 -0.05,-0.14 -0.09,-0.19 -0.79,1 -0.5,1.54 -1.95,1.74 -0.43,-1.69 -0.58,-2 -0.6,-4.04 -1.55,-0.76 -1.77,-3.29 -2.4,-5.37 -0.34,-1.14 -0.84,-1.71 -1.24,-2.68 -0.39,-0.92 -0.26,-2.31 -0.74,-3.14 -1.02,0.02 -0.69,0.41 -1.65,0.41 -1.38,-0.01 -1.37,-1.38 -1.31,-2.54 0.88,-0.56 1.39,-0.58 2.21,-1.39l-1.85 -3.85c-1,0.11 -1.22,1.02 -2.16,0.09 -1.28,-1.25 -1.96,-6.12 -1.93,-7.78 0.65,-0.6 0.83,-0.85 1.59,-1.39 -0.47,-1.28 -0.74,-1.06 -1.33,-2.06 -1.4,-0.02 -2,0.56 -2.09,-0.72 -0.1,-1.58 0.8,-1.13 2.27,-1.16l-0.03 -1.75c-1.99,-0.3 -0.62,0.49 -2.69,0.34 0.03,-3.49 2.92,-1.59 0.09,-10.73 -1.27,-4.11 -2.48,-6.02 -2.5,-11.18 -0.01,-4.1 -0.01,-15.77 0.89,-19.48 0.38,-1.53 0.53,-4.35 1.94,-5.05 1.28,0.76 0.81,2.17 0.99,3.7 0.51,4.26 0.3,4.77 -0.03,8.84 -0.12,1.57 0.09,3.34 -0.03,4.84l-0.5 1.81c-0.75,2.57 -0.17,3.83 0.05,6.49l1.12 6.04c0.06,0.21 0.07,0.15 0.12,0.33l0.37 1.72c0.7,2.4 1.07,5.46 1.84,7.86 2.73,8.48 -0.03,6.19 4.48,14.93l3.95 8.05c1.41,2.33 3.33,5.15 4.28,7.73 0.27,0.74 0.3,0.81 0.8,1.51 0.77,1.06 0.36,0.56 0.72,1.83 0.76,2.65 -0.02,3.49 1.57,6.5 1.27,2.41 6.51,11.67 7.81,13.22 0.92,1.1 1.33,1.46 2.21,2.63l2.98 4.19c1.19,1.97 6.01,6.8 7.92,9.18 1.4,1.76 3.29,3.02 4.7,4.77l3.52 3.64c0.62,0.57 0.96,0.57 1.51,1.03 0.84,0.69 1.7,1.77 2.08,2.77 0.69,1.82 0.93,4.49 1.43,5.73 0.46,1.11 0.36,0.54 1.33,1.22 1.19,0.84 3.34,6.35 5.45,9.11 1.44,1.88 2.46,3.88 3.96,5.74 0.99,1.23 1.25,1.3 1.75,3.13 0.57,2.11 -4.38,5.09 -6.57,7.62 -3.14,3.62 -7.15,5.39 -7.96,6.59 -2.13,3.16 -5.16,5.69 -6.69,7.86 -2.29,3.23 -5.52,5.91 -7.65,9.22 -0.87,1.37 -2.12,3.04 -3.59,3.77 -2.63,1.3 -0.85,-1.09 -3.95,3.24 -0.38,0.53 -0.66,1.02 -0.97,1.56 -1.81,3.18 -3.43,4.35 -5.02,7.01l-0.26 0.43c-0.02,0.05 -0.05,0.11 -0.07,0.16l-0.54 1.08c-3.08,0 -2.02,-0.24 -3.88,-1.43 -2.11,-1.35 -0.72,-0.56 -2.16,-3.18 -1.06,-1.93 -2.23,-2.97 -3.27,-4.81l-1.75 -4.95c-0.66,-2.21 -2.93,-5.76 -4.21,-8.03 -0.78,-1.39 -0.78,-2.81 -1.39,-4.14 -0.54,-1.19 -1.47,-2.37 -1.77,-3.55 -0.79,-3.01 -1.84,-5.04 -2.64,-7.99 -0.9,-3.37 0.56,-0.14 -1.33,-4.21 -1.28,-2.77 -1.15,-5.74 -3.12,-7.74 -1.88,-1.91 -0.85,-1.46 -1.46,-3.87 -0.33,-1.3 -0.76,-3.06 -1.68,-3.92 -0.84,0.19 -1.41,0.77 -2.14,0.94 -2.05,0.48 -2.83,-0.62 -4.22,-1.68 -1.44,-1.09 -2.58,-1.43 -2.48,-3.59 0.07,-1.84 0.7,-1.02 0.89,-2.08 0.07,-0.43 -0.34,-1.79 -0.38,-2.52 -0.06,-0.97 -0.02,-2.02 -0.15,-2.87 -3.23,-0.91 -2.47,-0.39 -3.84,-3.3 -1.18,-2.49 1.56,-3.55 0.04,-5.56 -1.39,0.08 -0.85,1.12 -2.27,1.39 -1.5,-2.55 2.14,-1.65 -0.66,-12.57l-1.45 -5.71c-0.66,-3.04 -1.49,-2.81 -4.83,-2.53 -1.55,0.8 0.39,6.87 0.94,8.26 0.87,2.18 0.76,1.42 1.17,4.15l3.13 10.48c0.65,1.43 1.43,2.14 1.47,3.86 0.03,1.05 0.04,1.49 0.45,2.33 0.96,2.04 2.13,2.11 2.62,2.92 1.04,1.69 -0.04,6.39 3.62,8.62 2.61,1.59 1.97,3.52 2.91,6.33 0.43,1.27 0.63,1.05 1.48,1.75l0.01 1.61c2.12,0.02 2.24,-0.54 2.37,1.39 -0.44,0.87 -0.07,0.13 -0.67,0.8 -1.31,1.49 0.85,6.84 1.4,8.57 0.68,2.2 1.43,4.68 2.5,6.74 0.73,1.42 0.87,0.74 1.64,1.6 0.83,0.92 2.69,6.75 3.83,8.64 1.1,1.83 1.6,2.18 2.81,3.42 1,1.02 1.52,2.84 2.44,4.04 0.53,0.7 1.2,1.1 1.5,1.5 0.45,0.59 0.57,1.17 1.24,1.98l2.87 3.39c0.73,0.86 0.66,1.04 1.15,1.84l5.34 10.6c0.03,0.04 0.06,0.1 0.08,0.15l0.86 1.69c0.55,0.92 0.75,1.09 1.12,2.14 0.47,1.3 1.38,2.87 2.25,3.96 0.81,1.02 1.55,3.16 2.83,3.59 0.18,-4.21 -0.89,-2.47 -1.89,-5.46 -0.83,-2.45 -0.93,-3.1 -3.17,-4.16 -0.07,-5.8 -2.63,-5.26 3.93,-5.41 4.06,-0.1 2.38,-2.11 5.28,-1.57 2.6,0.49 3.08,4.99 4.61,6.96 1.33,1.71 1.67,4.53 2.68,6.57 0.38,0.76 0.42,0.73 0.73,1.57 0.85,2.27 0.58,2.61 1.92,5l1.07 2.41c0.76,2.29 1.65,3.26 2.98,6.26 1.21,2.75 1.15,5.17 3.62,6.78 2.21,1.44 1.82,3.51 5.36,3.91l0.68 -1.09c0.62,-0.07 1.8,0.16 2.13,-0.4 0.41,-0.69 -0.57,-1.42 -0.9,-1.61 -1.61,-0.93 -2.11,-0.59 -3.19,-2.11 -0.72,-1.01 -0.92,-2.74 -1.42,-3.9 -0.56,-1.28 -1.81,-1.45 -2.44,-2.88 -0.45,-1.03 -0.83,-2.72 -1.34,-3.97 -0.5,-1.25 -1.15,-2.37 -1.68,-3.63l-1.07 -2.18c-0.87,-1.91 -1.37,-3.77 -1.69,-5.97l-1.37 -0.23c-0.27,-3.78 -1.46,-3.3 -2.13,-5.69l-4.64 -14.08c-1.67,-4.57 6.13,-3.26 6.7,-6.08 0.31,-1.49 -0.03,-0.93 0.51,-2.28 0.66,0.31 0.72,0.56 1.39,0.86 3.59,-1.85 2.87,-2.48 3.84,-3.48 0.65,-0.66 1.17,-0.32 2.26,-1.44 0.66,-0.67 1.08,-1.42 1.93,-1.99 2.85,-1.93 1.75,-1.59 3.64,-4 1.41,-1.8 1.76,-2.54 3.81,-3.77 1.02,1.14 2.12,4.36 2.88,6.09 0.66,1.5 1.71,2.06 2.83,3.17 1.36,1.34 4.59,8.08 5.93,10.25l0.17 0.29c0.23,0.36 0.36,0.54 0.62,1 0.43,0.77 0.76,1.42 1.16,2.08 0.41,0.69 0.65,1.22 1.06,1.94 1.1,1.91 3.3,3.88 2.15,6.5 -0.79,1.81 -1.04,2.51 -1.36,4.65 -0.49,3.33 -1.47,6.66 -2.23,9.99l-0.6 3.1c-0.02,0.06 -0.05,0.11 -0.06,0.17l-1.18 4.14c-0.16,0.72 -0.18,1.95 -0.19,2.71 -0.05,2.19 -0.53,3.57 -0.71,5.56 -0.34,3.9 0.11,4.62 1.12,7.81 0.29,0.93 0.29,1.67 1.12,2.12 1.42,0 2.64,-0.03 3.31,1.32 0.63,1.27 -0.17,2.6 -0.01,4.15 3.6,0.67 5.32,-1.16 12.41,-0.91 0.77,0.03 1.54,0.06 2.32,0.08 0.27,0.01 0.9,0.04 1.15,0 1.79,-0.24 0.73,-1.26 0.69,-2.86 0.58,-0.41 0.68,-0.8 1.56,-0.77 3.66,0.13 3.25,-0.32 6.13,-1.87l3.71 -1.84c1.73,-1 1.19,-1.92 3.16,-2.37 1.95,-0.45 2.14,-1.97 3.46,-1.95 1.04,0.02 1.14,0.65 1.53,1.34 0.02,0.04 0.06,0.1 0.08,0.14 0.03,0.05 0.06,0.11 0.09,0.15 0.02,0.05 0.05,0.11 0.08,0.15l2.07 2.77c1.09,1.43 5.7,2.01 6.78,1.1 1.74,-1.45 -1.76,-5.22 -2.38,-6.19 -2.78,-4.37 -0.75,-3.24 -1.01,-7.46l-2.28 0.24c-0.56,-0.95 -1.11,-2.01 -1.63,-2.86 -0.67,-1.09 -1.12,-1.82 -1.6,-3.03l-0.66 -1.65c-0.02,-0.05 -0.05,-0.11 -0.08,-0.15l-0.59 -1.26c-1.22,-2.95 -2.21,-3.21 -2.23,-6.78 0,-1.3 -0.58,-2.19 -1.54,-3.08l-5.41 -3.49c0.12,-3.89 3.12,-0.29 4.79,-3.87 1.59,-3.45 -1.12,-11.13 -0.37,-12.56 1.14,0.43 1.27,1.84 1.92,2.82 1.04,1.6 1.88,0.76 3.33,1.53 2.06,1.11 0.01,1.18 3.73,1.2 1.3,0.01 2.65,0.72 3.93,0.81 2.58,0.19 2.48,0.68 3.96,0.91 1.39,0.22 3.39,-0.08 4.84,0.02 2.39,0.16 3.33,4.21 6.23,5.8 0.67,0.36 1.07,0.43 1.38,1.2 0.46,1.15 0.18,3.16 1.23,4.03l1.18 0.66c1.47,0.87 1.2,1.85 2.11,2.74l2.45 2.42 4.99 7.25c0.71,1.12 1.15,1.96 2.98,1.7 0.13,-1.29 -1.52,-2.51 -2.49,-4.04 -1.42,-2.24 -1.71,-1.96 -1.83,-5.12 -0.09,-2.4 -2.74,-3.59 -3.66,-5.57 -0.83,-1.79 0.15,-1.92 -1.66,-2.94 -0.86,-0.49 -1.61,-1.61 -2.18,-2.46 -0.65,-0.97 -0.41,-2.92 -0.37,-4.31 1.94,-0.97 1.4,-1.33 5.33,-1.34 1.97,2.36 -0.1,1.03 4.16,1.39 2.48,0.21 2.25,1.54 4.44,-0.42 1.08,-0.97 2.92,-1.18 4.33,-1.9 0.36,-0.19 0.65,-0.36 1.04,-0.59 7.01,-4.16 5.86,-6.56 9.14,-11.18 0.6,-0.83 0.77,-0.89 1.47,-1.54 1.17,-1.06 1.52,-2.85 2.27,-4.2 0.41,-0.73 0.91,-1.33 1.24,-1.98 0.69,-1.34 1.33,-2.81 2.21,-4.03 0.97,-1.33 1.73,-2.28 2.4,-3.84 1.18,-2.74 0.87,-1.72 3.23,-3.01 0.73,-0.41 1.17,-0.88 1.28,-1.72 0.06,-0.47 0.03,-2.75 -0.06,-3.19 -0.07,-0.38 -0.54,-1.7 -0.74,-2.27 -0.36,-0.98 -0.62,-1.43 -1.02,-2.2 -0.4,-0.77 -0.6,-1.26 -1.04,-1.97l-4.91 -7.79c-1.34,-1.51 -3.05,-0.38 -1.53,-3.9 0.7,-1.63 1.85,-3.04 3.35,-1.15 2.94,3.73 1.48,4.87 3.32,8.23l1.1 1.9c0.61,1.1 0.44,1.46 0.89,2.57 0.86,2.1 1.7,2.52 2.85,5.46 1.13,2.89 2.93,5.12 3.38,8.19 0.32,2.19 2,5.14 3.05,7.11l3.54 6.62c0.29,0.49 0.8,1.43 1.13,1.87 0.59,0.78 0.79,0.71 1.33,1.68 0.15,0.27 0.3,0.6 0.46,0.92l3.54 5.24c0.13,0.19 0.59,0.64 0.78,0.84 5.19,5.26 6.78,2.18 6.06,0.66 -0.33,-0.69 -1.24,-0.89 -1.89,-1.11 -0.49,-4.94 1.01,-1.94 -2.88,-6.39 -1.67,-1.91 -1.12,-5 -1.95,-7.51 -0.72,-2.18 -0.94,-1.25 -1.76,-2.86 -0.41,-0.78 -0.28,-1.01 -0.57,-1.75l-1.25 -2.21c-0.03,-0.05 -0.05,-0.11 -0.08,-0.16l-1.09 -2.14c-1.05,-2.03 -1.93,-2.03 -2.96,-4.2l-0.73 -1.57c-0.32,-0.8 -0.33,-0.87 -0.69,-1.63 -1.42,-3.02 -0.87,-4.18 1.44,-6.09 0.47,-0.4 0.81,-0.82 1.33,-1.21 2.6,-1.91 3.61,-1.1 5.29,-4.2 0.26,-0.48 0.5,-1.17 0.76,-1.54 0.21,-0.3 0.25,-0.33 0.61,-0.54l0.49 -0.21c0.05,-0.02 0.11,-0.04 0.16,-0.06l1.54 -1.01c0.49,-0.47 0.75,-0.83 1.39,-1.16 3.24,1.19 1.34,6.74 3.35,9.14 1.54,1.85 2.41,2.11 3.59,4.96 0.39,0.95 0.72,1.97 1.08,3.08 1.86,5.73 8.7,0.67 3.39,-3.39 -2.39,-1.83 -0.54,-2.45 -0.88,-4.91 -0.17,-1.17 -2.46,-6.53 -3.34,-10.05 -0.22,-0.89 -0.91,-3.13 -0.65,-4.03 0.31,-1.07 1.5,-2.03 2.24,-2.87 2.21,-2.49 5.21,0.18 6.47,-6.92 0.25,-1.36 0.51,-1.39 1.04,-2.44 0.86,-1.72 1.27,-5.55 2.03,-7.91 0.69,-2.17 1.08,-6.93 1.89,-8.25 0.76,-1.24 0.43,-1.17 0.64,-2.62 0.07,-0.47 0.49,-2.16 0.69,-2.76 1.69,-5.21 1.78,-11.59 3.19,-16.92 0.68,-2.59 1.34,-2.66 2.48,-4.38 -0.63,-1.7 -0.92,-0.91 -0.87,-3.46 0.03,-1.69 0.3,-2.82 -0.92,-3.48 -1.28,-0.68 -2.11,0.37 -3.51,0.05 -1.07,-0.24 -0.96,-0.53 -1.54,-0.79 -0.69,-0.31 -1.05,0.04 -1.88,0.06 -0.57,-0.14 -0.7,-1.25 -0.93,-1.85 -0.79,-2.01 -1.2,-1.63 -3.16,-2.39 -1.06,-0.41 -0.78,-0.56 -1.36,-1.31 -1.66,0 -5.2,-0.84 -6.15,-2.03 -2.69,-3.4 -4.31,-2.17 -5.01,-3.32 -0.82,-1.33 -0.31,-3.12 0.21,-4.31 1.86,-0.18 2.83,1.49 3.81,2.38 0.6,0.54 1.16,0.85 1.83,1.41 2.33,1.93 0.63,0.8 3.53,2.69 1.32,0.86 2.39,2.03 3.94,2.56 1.37,0.47 1.08,-0.29 2.5,-0.2 0.79,3.09 0.56,1.4 3.02,3.21 1.21,0.89 2.2,1.85 3.92,2.31 1.21,0.33 1.59,-0.79 2.4,-1.47 1.81,-0.73 3.95,1.42 5.62,-1.06 0.91,-1.37 1.37,-3.71 2.93,-4.22 0.24,0.29 0.5,0.68 0.72,1.1 0.64,1.25 1.42,2.74 2.31,3.7 1.38,1.5 2.98,2.63 3.5,4.59 0.55,2.07 2.07,3.51 3.23,4.62 2.31,2.19 2.32,1.75 6.18,1.92 1.29,1.28 0.73,1.37 1.4,2.7l3.9 0.04c-0.09,-1.87 -3.7,-4.91 -5.12,-6.86 -0.76,-1.04 -0.57,-0.49 -1.33,-1.22 -0.67,-0.64 -1.49,-2.31 -2.1,-2.98 -0.95,-1.04 -2,-0.33 -3.1,-1.74 -0.74,-0.94 -1.22,-1.98 -1.98,-2.89 -1.83,-2.15 -3.75,-4.18 -2.03,-6.9 1.45,0.5 2.53,3.42 7.63,4.76 1.95,0.51 -0.04,1.23 3.87,2.61l2.02 0.98c0.05,0.02 0.11,0.05 0.16,0.08l2.45 0.77c1.03,0.3 1.79,0.82 2.97,1.21 1.95,0.63 1.77,-0.54 3.27,-0.76 1.46,2.18 -1.16,1.79 2.61,3.41 1.79,0.77 2.38,1.73 4.55,1.69 1.68,-0.03 1.7,-0.22 2.78,0.47 0.76,-0.29 0.11,-0.05 0.74,-0.42 0.87,-0.52 1.92,-0.76 2.96,-0.53 1.03,0.24 0.88,2.87 1.05,3.57 0.93,0.28 1.4,0.05 2.08,0.27 0.89,0.27 0.4,0.6 1.74,0.75 1.45,0.16 0.82,-0.14 1.89,0.46 0.48,0.27 1.25,0.6 1.76,0.75 0.72,0.2 1.34,0.14 2.1,0.22 2.04,0.22 4.28,1.03 6.29,1.35 0.79,-1.85 0.47,-1.32 -0.52,-4.11 -1.21,-3.42 -4.2,-1.61 -8.93,-3.53 -2.36,-0.95 -4.05,-2.12 -6.32,-2.93 -0.85,-0.31 -1.73,-0.41 -2.5,-0.73l-6.52 -2.73c-0.84,-0.32 -1.53,-0.42 -2.37,-0.85 -3.17,-1.62 -1.4,-0.72 -4.55,-1.71l-11.19 -5.66c-0.51,-0.29 -0.73,-0.32 -1.12,-0.52 -3.27,-1.68 -1.57,-0.73 -4.82,-1.42 -3.4,-0.74 -6.11,-2.21 -9.52,-2.92l-5.28 -0.95c-0.99,-0.13 -1.95,0.02 -2.48,-0.56 -0.7,-0.76 -0.15,-1.51 -1.8,-1.3 -0.12,0.24 -0.29,0.91 -0.36,1.04 -0.73,1.26 -0.89,0.35 -0.91,0.33 -0.66,-0.51 -0.4,-1.62 -0.42,-2.59 -1.93,-1.19 -6.51,-1.54 -9.05,-2.49 -0.91,-0.35 -0.56,-0.51 -1.56,-0.98 -2.34,-1.11 -7.65,-2.28 -8.58,-4.15 -0.94,-1.88 1.68,-2.72 3.23,-6.27 0.44,-1 0.67,-1.27 1.25,-2.22 1.83,-2.93 1.97,-3.37 4.35,-5.82 2.46,-2.53 -0.43,-3.07 -2.43,-2.61 -2.5,0.57 -2.82,1.87 -3.49,3.86 -0.28,0.82 -0.95,1.22 -1.42,2.27 -1.23,2.69 0.08,1.21 -2.5,4.91l-1.75 1.95c-0.75,0.73 -0.59,1.65 -1.03,2.88 -1.03,2.85 -0.68,4.36 -1.18,6.23l-0.69 2.98c-0.25,1.02 -0.44,1.98 -0.72,2.98 -0.97,3.42 -2.84,8.96 -2.83,12.22 3.33,1.37 3,-0.61 2.99,3.23 -1.76,-0.21 -2.31,-0.43 -4.35,-0.22 -0.23,0.36 -1.29,2.54 -0.97,2.93 0.39,0.23 -0.1,0.19 0.7,0.2 1.2,0.03 0.84,-0.48 2.32,-0.4 1.5,2.23 0.54,2.06 -0.54,4.09l-4.48 8.45c-1.36,2.26 -6.13,10.96 -6.8,12.84 -0.6,1.7 -3.24,8.07 -4.01,9.14 -0.85,1.19 -1.6,2.59 -2.77,3.71 -1.32,1.27 -2.19,1.72 -3.37,3.11 -4.52,5.3 -2.61,1.54 -4.87,8.29 -0.56,1.69 -2.33,3.39 -3.2,4.88l-3.64 6.29c-1.47,2.45 -3.04,4.89 -3.92,7.64 -0.7,2.22 0.1,2.37 -1.29,5.18 -0.45,0.91 -0.6,1.13 -0.99,2.24 -0.48,1.38 -1.24,3.35 -1.8,4.66 -1.94,4.53 0.83,3.9 -3.38,9.79 -1.05,1.47 -1.87,2.35 -3.01,3.68 -0.57,0.66 -0.92,1.06 -1.57,1.68 -1.63,1.56 -1.25,2.17 -3.85,2.62l-6.77 1.54c-0.54,0.19 -0.67,0.27 -1.24,0.39 -1.75,0.36 -4.09,0.78 -5.68,0.19 -1.33,-0.49 -5.8,-2.51 -7.48,-1.81 -0.66,0.28 -1.41,1.1 -1.04,2.23 0.52,1.62 2.96,1.68 3.61,2.86 0.42,0.75 0.13,2.07 0.42,2.82 0.95,2.45 4.42,5.28 5.55,7.62 1.6,3.32 1.66,1.33 4.45,1.61l0.53 1.43c-0.99,0.74 -2.87,2.37 -3.79,2.77 -1.67,-0.95 -1.2,-1.22 -2.12,-2.58 -0.38,-0.56 -0.62,-0.82 -0.95,-1.35l-2.92 -4.01c-2.71,-3.39 -4.72,-8.85 -7.28,-11.44 -1.03,-1.04 -2.23,-0.69 -4.02,-0.82 -0.14,-3.06 -2.16,-2.43 -4.66,-2.45 -2.4,-0.02 -4.84,0.04 -7.16,-0.28 -1.08,-0.16 -1.61,-0.71 -2.59,-1.11 -1.79,-0.75 -4.31,0 -6.21,-1.19 -1.61,-1.02 -0.42,-0.67 -2.71,-1 -2.58,-0.36 -5.58,-2.12 -7.96,-3.12 -0.95,-0.39 -1.3,-0.94 -1.87,-1.82 -0.55,-0.85 -0.78,-1.86 -1.19,-2.51 -0.21,-0.35 -1.61,-1.33 -2,-1.69 -3.61,-3.35 -5.61,-7.48 -6.33,-8.23 -3.77,-3.88 -0.58,1.64 -5.87,-5.21 -0.55,-0.7 -1.27,-1.27 -1.71,-1.98 -1.67,-2.74 -1.17,-1.97 -3.21,-4.2 -2.17,-2.36 -4.89,-9.11 -5.75,-12.74 -0.27,-1.15 -0.31,-2.07 -0.54,-3.16 -0.16,-0.79 -0.34,-2.33 -0.55,-3.14 -0.38,-1.48 -0.01,-1.92 -0.78,-2.89 -0.9,0.44 -0.15,0.52 -1.34,0.92 -1.28,-0.63 -1.77,-2.4 -1.94,-4.17 -0.09,-0.86 -0.24,-1.71 -0.4,-2.57 -0.14,-0.76 -0.48,-1.33 -0.8,-2.19 -0.42,-1.12 -0.96,-4.2 -1.25,-4.75 -1.18,-2.17 -0.85,1.32 -4.13,-8.11 -0.61,-1.74 0.04,-2.26 -0.96,-4.14l-1.34 -2.58c-0.4,-0.58 -0.99,-1.07 -1.34,-1.66 -1.33,-2.21 1.16,-1.53 -2.17,-4 -0.11,-2.67 -0.64,-4.32 -1.55,-6.37 -0.86,-1.92 -1.11,-4.01 -2,-6.09 -0.5,-1.17 -1.01,-1.26 -1.49,-2.44l-0.98 -2.94c-0.79,-2.03 -1.8,-3.64 -2.12,-5.99 -0.26,-2.01 -1.57,-2.69 -2.34,-5.48l-2.05 -6.05c-0.52,-1.41 -0.11,-2.01 -0.36,-3.51 -0.3,-1.76 -1.04,-0.94 -1.87,-2.11 -0.88,-1.26 -0.8,-5.08 -1.02,-6.99 -1.71,-0.43 -1.59,1.56 -1.99,2.65 -0.89,2.47 -0.12,4.02 0.79,6.33 1.49,3.81 2.33,8.53 3.75,12.65 0.27,0.79 0.66,1.34 0.97,2.26 0.35,1.03 0.2,1.43 0.76,2.47 1.58,2.93 0.83,5 0.26,8.26 -0.42,2.45 2.13,3.5 2.44,5.68 0.08,0.57 -0.03,0.87 0.14,1.48 0.19,0.7 2.35,3.77 2.99,4.86 0.02,0.04 0.06,0.1 0.08,0.14 1.37,2.37 3.35,4.65 4.52,6.81l0.3 0.62c1.15,2.4 1.86,4.74 2.64,6.38 0.64,1.36 1.03,3.45 1.7,4.99l1.91 4.33c0.68,1.41 1.94,3.17 1.3,5.32 -2.55,0.72 -3.06,-2.81 -5.56,-5.22l-3.24 -3.69c-1.97,-2.46 -2.48,-2.99 -4.15,-5.79 -0.48,-0.82 -1.86,-1.68 -2.53,-3.01 -1.35,-2.7 -3.22,-3.93 -4.51,-6.81 -0.63,-1.42 -0.96,-2.52 -1.7,-3.84 -0.71,-1.26 -1.59,-2.05 -1.11,-4.16 0.5,-2.24 -1.54,-6.07 -2.62,-8.06 -0.87,-1.62 -1.11,-1.24 -2,-3.54 -0.48,-1.25 -1.63,-4.94 -2.46,-5.86 -1.19,-1.34 -2.42,-0.91 -2.99,-5.54 -0.36,-2.85 -0.74,-1.95 -1.56,-4.01 -0.46,-1.17 -0.85,-3.02 -1.21,-4.32 -0.43,-1.51 -0.81,-2.8 -1.25,-4.29 -0.49,-1.63 -0.68,-3.17 -1.1,-4.68 -0.19,-0.7 -0.34,-1.5 -0.56,-2.22 -0.13,-0.46 -0.51,-1.9 -0.56,-2.21 -0.4,-2.47 0.26,-4.96 -1.07,-7.23 -0.72,-1.22 -0.32,-6.61 -0.33,-8.22 -0.01,-1.59 -1.59,-9.3 2.26,-6.88 0.88,0.55 3.03,2.12 3.81,3.12 0.62,0.8 0.15,0.07 0.43,0.97l0.33 1.04c0.86,3.34 0.64,8.12 0.92,11.94 0.25,3.42 1.13,6.74 1,10.34 -0.72,0.21 -1.11,0.2 -1.76,0.55 -0.08,0.9 1.44,7.11 2,8.28 0.48,0.98 0.82,1.13 1.3,2.39 1.1,2.88 1.17,8.43 3.79,10.45 1.09,-1.14 -0.27,-4.24 -0.73,-5.43 -0.28,-0.73 -0.67,-1.67 -0.86,-2.61 -0.14,-0.68 -0.26,-1.04 -0.39,-1.46 -0.13,-0.38 -0.32,-1.13 -0.4,-1.43 -0.61,-2.33 -1.09,-10.81 -1.07,-13.48 0,-1.06 0.01,-2.3 0.11,-3.33 0.15,-1.64 0.52,-1.37 -0.58,-2.43 -1.54,-1.5 -0.82,-3.56 -0.21,-5.55 0.78,-2.56 -0.43,-6.33 0.38,-10.04 0.16,-0.75 0.12,-2.57 0.78,-2.94 1.68,-0.94 1.92,4.38 1.95,4.54 0.41,1.87 1.17,8.27 2.42,9.09 1.1,-0.83 0.54,-1.29 0.76,-2.94 0.2,-1.49 0.42,-1.65 0.36,-3.5 -0.04,-1.25 0.1,-2.44 0.1,-3.7 0,-3.19 -1.76,-2.09 -1.53,-5.84 0.07,-1.2 -0.53,-1.95 -0.98,-2.8 -1.32,-2.49 -0.66,-3.92 -0.8,-7.05 -1.44,-0.67 -2.65,-0.88 -3.88,0.03 -1.46,1.07 -1.77,1.16 -4.2,0.88 -0.76,-0.92 -1.08,-1.44 -1.9,-2.26 -1.79,-1.77 -3.3,-3.44 -4.41,-5.75l-0.15 -0.31c-0.25,-0.55 -0.5,-1.28 -0.63,-1.68 -0.73,-2.32 -2.61,-2.73 -3.62,-4.93 -0.94,-2.04 -1.32,-4.38 -2.09,-6.68 -0.83,-2.48 -1.63,-3.56 -2.35,-6.22 -0.84,-3.1 -1.82,-6.62 -3.54,-9.38 -0.83,-1.33 -0.88,-1.16 -1.38,-3.01 -0.46,-1.68 -1.79,-5.91 -1.28,-7.18 1.56,-0.51 2.06,0.14 2.57,1.52 0.85,2.31 5.14,4.01 4.88,8.8 2.35,0.83 0.24,3.44 3.15,3.22 0.34,-1.43 -0.89,-6.41 -1.59,-7.62 -0.79,-1.36 -2.19,-5.17 -2.84,-6.85 -1.92,-0.64 -0.91,0.22 -2.85,-2.02 -2.06,-2.39 -1.77,-9.45 -4.15,-10.65 -0.83,0.83 -0.81,2.13 -2.02,2.27 0.04,-1.23 1.2,-1.42 1.43,-2.93 0.2,-1.28 0.03,-3.12 -0.28,-4.22 -0.7,-2.44 -0.68,-5.33 -0.78,-8.03 -0.17,-4.75 0.52,-9.34 1.91,-13.82 0.55,-1.77 0.57,-1.71 -1.28,-2.94 -0.99,-0.66 -1.09,-0.89 -2.66,-0.74 -0.78,1.52 -0.51,2.67 -0.74,4.55 -0.16,1.26 -0.39,3.05 -1.13,4.17 -0.99,0.02 -1.19,-0.01 -1.55,-0.75 -0.3,-0.61 -0.32,-1.23 -0.4,-1.9 -0.43,-3.61 -1.12,-4.55 -2.09,-7.63 -0.36,-1.16 -0.35,-2.57 -0.67,-3.71 -0.27,-0.98 -0.18,-0.87 -0.57,-1.74 -0.8,-1.77 -1.81,-2.91 -1.9,-5.05 -0.11,-2.63 0.48,-1.56 1.38,-3.26 1.18,-2.2 1.24,-5 2.1,-7.38 1.44,-3.98 2.01,-9.73 3.62,-10.47 0.55,-0.25 2.88,-0.31 3.97,-0.64 3.47,-1.05 2.05,-0.15 3.87,-0.55 1.74,-0.37 1.73,-0.75 4.03,-0.68 1.65,0.05 2.91,0.34 4.62,0.34 0.57,0.12 0.79,1.48 1.63,2.31 2.06,2.05 3.71,4.3 5.6,6.4 1.97,2.19 1.86,1.6 3.03,5.06 0.42,1.27 1.11,0.8 2.1,1.82 0.93,0.96 0.54,1.91 0.61,3.58 0.37,0.32 0.94,0.56 1.22,0.84 0.77,0.77 0.27,0.72 0.6,1.62 0.66,-0.18 0.43,-0.18 1.01,-0.97 2.41,-3.24 0.92,-1.41 2.15,-4.1 0.89,-1.95 3.23,-3.28 2.39,-5.7 -0.94,-2.75 -3.4,-1.14 -4.76,-3.82 -0.6,-1.21 0.67,-1.7 -0.04,-3.17 -0.08,-0.17 -0.62,-0.8 -0.86,-1.22 -1.12,-1.94 -1.98,-1.26 -4.4,-1.26 -0.62,-1.54 -3.16,-1.95 -1.2,-3.85 1.01,0.15 2.94,1.18 3.63,0.33 1.02,-1.66 -2.02,-2.06 -2.28,-3.82 1,-0.1 2.54,0.12 3.29,-0.21 0.68,-0.31 1.05,-1.45 2.02,-1.65 1.52,-0.31 1.83,0.09 3.01,-0.7 0.85,-0.57 1.34,-1.27 2.36,-1.05 0.32,1.24 -0.72,4.08 1.29,3.99 1.3,-0.05 0.23,0 0.89,-0.24 1.56,-0.55 4.91,-0.96 5.3,-2.34 0.25,-0.89 -0.15,-0.95 0.38,-1.94 0.38,-0.72 0.8,-0.63 0.49,-1.79 -0.6,-2.28 -0.19,-1.94 1.71,-2.69 2.63,-1.05 1.12,-3.19 2.08,-5.31 2.02,-4.49 1.17,-2.49 3.76,-3.88 1.35,-0.72 0.57,-2.32 0.66,-3.92l2.96 -0.06c0.03,-1.59 -1.09,-2.16 -0.1,-4.04l1.75 -3.34 3.24 0.03c0.03,-0.07 0.06,-0.21 0.07,-0.18 0.01,0.03 0.05,-0.13 0.06,-0.17 0.68,-1.92 1.41,-3.4 2.83,-5.03 0.66,-0.77 1.63,-1.52 1.83,-2.32 0.2,-0.84 0.2,-3.18 -0.17,-3.84 -1.95,-1.23 -2.8,1.37 -3.84,2.37 -0.73,0.71 -1.13,0.84 -1.53,1.93 -0.17,0.46 -0.24,0.76 -0.37,1.26 -0.32,1.21 -0.06,0.36 -0.54,1.3l-1.48 -0.01c-0.17,-1.16 0.83,-2.42 1.34,-3.41 -0.61,-0.56 -0.83,-0.84 -1.67,-1.16 -1.53,0.68 -1.33,2.07 -3.33,3.36 -0.8,0.52 -1.19,0.96 -1.97,1.51 -0.7,0.5 -1.31,1.02 -1.9,1.55 -1.91,1.71 -3.55,3.74 -4.95,5.91 -1.07,1.68 -0.69,0.12 -3.96,5.53l-2.66 4.26c-0.89,1.71 -1.45,2.92 -2.22,4.71 -0.57,1.33 -1.15,4.31 -2.05,4.87 -1.03,0.42 -1.75,0.23 -2.18,-0.78 -0.12,-0.6 1.38,-3.59 1.83,-4.4 1.5,-2.65 1.59,-3.75 3.46,-6.47l6.34 -10.54c0.93,-1.32 1.7,-2.65 2.74,-3.95 0.57,-0.72 0.88,-0.96 1.46,-1.78 1.69,-2.41 3.69,-6.21 5.3,-8.34l4.26 -5.9 4.76 -1.94c1.96,-0.9 3.72,-0.13 5.75,-1.17 1.19,-0.6 0.94,-0.71 2.49,-0.79 2.12,-0.11 4.4,-1.08 8.78,-1.4 2,-0.15 4.19,-0.86 5.78,-0.87 1.53,0 2.07,-0.41 3.27,-0.89 0.87,-0.35 0.99,-0.8 0.76,-1.75 -2.18,-0.44 -5.18,0.57 -4.93,-2.41 1.25,0.01 1.14,0.48 2.51,0.43 1.18,-0.05 1.13,-0.42 2.54,-0.46 2.58,-0.09 3.52,0.17 4.61,-1.62 -0.11,-1.15 -0.93,-1.98 -1.73,-2.63 -1.22,-0.99 -1.67,-0.75 -3.13,-1.26 -5.76,-1.99 -7.22,0.22 -11.48,-0.76 -1.12,-0.26 -3.43,0.43 -4.29,0.64 -0.48,0.12 -0.57,0.08 -1.07,0.09 -1.26,0.05 -0.82,-0.03 -1.85,0.46 -1.06,0.5 -2.44,0.69 -3.57,1.05l-0.14 3.11c-2.91,0 -1.28,-0.26 -2.76,-1.16 -1.12,-0.68 -2.29,0.03 -3.01,0.46 -1.71,1.01 -4.24,1.47 -3.83,4.09 1.56,1.05 3.32,0.05 5.45,0.31 0.03,1.12 0.12,1.35 -0.8,1.72 -0.25,0.09 -0.75,0.2 -1.08,0.31l-1.49 0.59c-0.21,0.09 -0.27,0.1 -0.51,0.19l-2.75 1.39c-1.23,0.6 -2.52,1.07 -3.55,2.02 -1.06,0.97 -1.44,3.48 -4.51,6.33 -1.47,1.37 -1.65,0.78 -2.85,2.71 -0.95,1.53 -2.61,3.13 -3.63,4.68 -1.12,1.69 -2.35,2.8 -3.51,4.58l-5.01 8.85c-0.53,0.73 -0.75,0.9 -1.31,1.45 -1.25,1.23 -1.02,2.15 -1.77,3.55 -0.4,0.74 -2.08,2.59 -2.26,3.27 -0.43,1.64 -0.26,2.52 -1.08,4.47 -0.49,1.17 -1.02,2.92 -2.24,3.28 -0.51,-0.78 0.12,-3.62 -0.15,-4.91 -0.3,-1.41 -0.87,-3.26 -0.71,-4.69l2.16 0.12c1,-4.1 2.53,-4.07 1.16,-6.43l1.56 -1.07c2.16,-1.59 1.42,0.12 2.91,-2.86 0.61,-1.2 1.82,-3.71 2.77,-4.38 0.57,-0.4 1.06,-0.38 1.29,-1.25 0.14,-0.56 0.09,-1.98 0.12,-2.66 0.73,-0.31 0.2,-0.15 0.94,-0.44 0.54,-0.22 0.75,-0.27 1.1,-0.51 0.33,-0.23 1.26,-1.18 1.61,-1.63 0.83,-1.04 2.04,-2.36 2.7,-3.54 2.1,-3.74 5.01,-4.02 4.6,-7.88 -0.71,-0.22 -1.68,0.16 -2.66,0.15 0.47,-1.44 1.15,-1.94 2.05,-3.07 0.99,-1.24 1.7,-1.5 2.61,-2.47 0.49,-0.52 0.86,-0.73 1.31,-1.23 0.62,-0.68 0.61,-0.68 1.28,-1.26 3.06,-2.65 7.55,-5.54 8.69,-6.56 2.14,-1.91 4.62,-2.79 2.75,-6.63 -2.38,-0.22 -1.81,1.56 -3.03,2.43 -0.49,0.35 -3.3,1.39 -4,1.35 -0.1,-1.11 0.41,-1.57 1.47,-2.04 1.2,-0.54 4.02,-2.94 4.18,-3.2 0.62,-1 -0.08,-2.24 -0.18,-3.19 0.82,-0.43 1.64,-0.74 2.76,-0.93l2.93 -0.78c1.62,-0.51 4.8,-1.27 4.92,1.23 6.91,0.38 6.52,-1.52 14.19,0.61 2.32,0.64 4.32,0.55 6.31,1.53 0.53,0.25 0.76,0.43 1.28,0.58 1,0.28 2.04,0.53 2.8,1.34 0.61,0.65 0.45,0.75 0.33,1.67 -2.87,0.09 -5.88,-2.65 -11.26,-3.46 -1.98,-0.3 -4.03,-0.85 -6.12,-1.25 -1.35,-0.25 -5.36,-0.36 -6.11,1.28 1.3,1.37 5.07,0.84 7,1.28l3.45 0.73c0.92,0.33 1.48,0.97 2.97,1.15 1.93,0.23 2.03,-0.14 3.11,1.07 2.11,2.37 3.9,0.91 5.95,2.37 1.89,1.35 0.43,0.84 2.91,0.79 0.11,-1.96 -0.74,-2.29 -0.68,-3.66 0.03,-0.64 0.68,-3.03 0.95,-3.42 0.99,-1.03 3.69,2.3 4.36,2.68 1.99,1.11 4.68,-0.37 5.73,-1.37 -0.02,-1.93 -1.16,-1.98 -1.78,-3.03 -0.8,-1.35 0.35,-2.61 -1.01,-4.09 -0.11,-0.1 -1.47,-0.32 -2.59,-1.33 -1.36,-1.22 -0.95,-0.99 -3.15,-1.01 -2.02,-0.03 -1.45,-0.88 -2.58,-1.35 -0.6,-0.25 -2.52,-0.59 -3.33,-0.81 -3.23,-0.9 -6.25,-2.45 -9.67,-2.13 -1.12,0.11 -2.71,0.11 -2.87,1.28 0.9,0.67 2.75,0.22 3.94,0.43 1.14,0.2 2.26,0.94 3.25,1.12 1.74,0.31 2.01,0.07 3.79,0.61 1.08,0.33 2.34,0.75 3.04,1.3l-0.45 1.31c-4.7,0.17 -6.1,-2.38 -9.9,-2.68 -1.38,-0.11 -2.37,-0.67 -3.67,-0.73 -0.06,2.14 0.19,2.5 1.58,3.27 0.63,0.35 1.12,0.48 1.92,0.58 1.23,0.16 1.12,0.1 1.98,0.6 0.44,3.67 -1.91,-0.73 -10.59,0.17 -1.64,0.17 -2.3,0.73 -3.93,0.72 -0.63,-0.99 -0.7,-2.31 -0.68,-3.47 0.78,-0.71 1.82,-1.32 1.86,-2.54 0.08,-2.27 -2.1,-4.76 -4.23,-5.01 -1.99,-0.23 -1.1,0.83 -3.42,-0.32 -0.84,1.01 -2.57,1.97 -4.16,2.05 -0.59,-0.62 0.03,-0.14 -0.65,-0.46l-0.03 -1.57c1.48,-0.86 4.47,-1.39 6.03,-2.05 1.22,-0.52 1.49,-1.02 2.6,-1.56 1.29,-0.64 2.2,-0.08 3.65,-0.52 3.07,-0.93 3.52,-0.65 6.56,0.29 1.38,0.43 4.66,2.39 6.29,1.53 0.04,-0.05 0.08,-0.19 0.09,-0.16l0.22 -0.5c0.22,-0.85 0.28,-1.83 0.73,-2.5 1.49,-0.21 3.04,0.16 4.23,0.7 0.67,0.31 2.64,1.51 3.11,1.99 -0.53,0.77 0.05,0.14 -0.78,0.64 -0.54,0.33 -0.21,-0.11 -0.75,0.52 0.56,1.4 0.94,1.12 2.37,1.68 2.07,0.8 3.79,1.67 6.05,2.27 1.83,0.49 1.68,0.72 3,1.41 2.12,1.1 2.33,0.16 5.88,2.43 0.7,0.45 1.91,1.33 2.71,1.45 5.57,0.89 2.23,-4.12 2.08,-4.91 -0.2,-1.07 1.17,-3.02 1.69,-3.79 0.56,-0.83 2.21,-1.68 3.24,-2.07 1.84,-0.69 1.99,-1.14 1.99,-3.55 -2.53,-1.63 -2.44,-2.95 -3.51,-3.18 -1.04,-0.21 -1.61,-0.01 -3.32,-1.57 -1.86,-1.7 2.03,-1.12 2.85,-0.74l2.87 1.29c2.55,0.96 4.52,2.28 5.62,2.7l12.22 4.42c1.42,0.35 1.89,0.31 3.25,0.9 0.64,0.28 0.88,0.24 1.61,0.46 2.36,0.72 5.66,1.66 7.82,2.59 1.23,0.52 1.57,1.09 2.67,1.48 1.53,0.54 1.41,0.82 2.35,1.81 0.6,0.62 1.9,0.75 2.93,1.23 1.73,0.82 3.65,1.91 5.16,3.15 0.66,0.55 0.35,0.52 0.92,1.19 0.31,0.37 -0.03,0.07 0.48,0.44 1.75,1.28 4.96,2.09 6.23,3.23 3.42,3.08 1.96,-1.56 7.21,5.26 0.41,0.54 0.49,0.67 0.84,1.24l7.77 13.02c0.36,0.58 0.43,0.77 0.7,1.38l0.79 2.44c0.02,0.06 0.03,0.13 0.05,0.19l0.1 0.35c0.02,0.06 0.04,0.12 0.06,0.18 0.58,1.81 0.75,5.05 3.27,5.01 0.55,-0.7 0.53,-1.15 0.92,-1.78 1.49,-0.04 0.56,0.01 1.36,0.72 0.55,0.5 0.68,0.53 1.42,0.14 0.91,-1.54 -0.94,-5.44 -1.3,-7.2 -0.65,-3.2 -1.03,-3.69 -2.58,-6.68 -1.37,-2.66 -3.02,-7.09 -4.59,-9.27 -2.19,-3.02 -1.11,-3.04 -1.11,-3.03l0.77 -0.13c1.54,0.18 4.46,5.32 6.07,7.36 0.94,1.19 3.79,6.09 4.39,7.63 0.28,0.69 0.44,1.03 0.82,1.71 0.64,1.11 1.27,1.99 1.7,3.15 0.5,1.33 0.41,2.48 1.37,3.7 3.26,0.42 1.58,-2.24 1.16,-3.91 -1.48,-5.93 -3.23,-5.33 -3.61,-6.78 -0.37,-1.38 -0.21,-1.34 -0.86,-2.61 -1.02,-1.97 -0.87,-3.13 -3.04,-3.89 -1.31,-0.45 -0.82,-0.42 -1.59,-1.88 -0.42,-0.8 -0.77,-1.64 -1.18,-2.27 -0.5,-0.79 -1.05,-1.15 -1.59,-1.9 -0.55,-0.78 -0.72,-1.49 -1.41,-2.05 -1.42,-1.13 -7.28,-5.05 -8.91,-4.59 -1.12,2.85 5.4,1.62 3.2,7.68 -2.97,0.54 -1.55,-1.2 -4.43,-1.22l-0.7 -0.08c-0.69,-2.26 0.11,-3.02 -2.13,-4.75 -0.5,-0.39 -0.97,-0.53 -1.55,-1 -1.09,-0.86 -1.25,-1.55 -2.13,-2.49 -1.26,-1.36 -2.84,-1.82 -4.35,-2.81 -1.47,-0.97 -0.26,-0.6 -3.46,-2.32 -4.11,-2.21 -4.48,-1.72 -7.88,-2.97l-2.33 -1.14c-0.06,-0.02 -0.12,-0.03 -0.18,-0.05l-0.68 -0.24c-0.07,-0.03 -0.26,-0.1 -0.34,-0.13 -0.3,-0.1 -0.21,-0.06 -0.54,-0.15 -0.94,-0.25 -1.58,-0.81 -2.34,-1.36 -0.88,-0.63 -2.07,-0.96 -3.11,-1.5l-1.07 -0.56c-0.4,-0.19 -0.07,-0.04 -0.47,-0.21 -0.66,-0.28 -1.16,-0.47 -1.81,-0.74 -2.24,-0.91 -4.05,-2.34 -6.25,-3.23 -0.64,-0.26 -1.06,-0.27 -1.73,-0.57 -0.53,-0.24 -0.97,-0.6 -1.5,-0.82 -1.01,-0.43 -3.07,0.04 -4.22,0.23 -1.04,-2 -2.33,-2 -2.91,-2.77 -0.26,-0.34 0.02,-0.83 -0.5,-1.83 -0.41,-0.77 -0.87,-1.36 -0.42,-2.11 0.96,0.51 0.41,0.15 0.77,0.83l0.14 0.32c0.04,0.07 0.31,0.6 0.32,0.61 0.57,0.74 1.65,0.53 2.46,0.33l0.15 0.32c0.02,0.04 0.11,0.25 0.14,0.3 0.67,1.15 2.44,1.27 3.52,1.54 0.72,0.19 1.18,0.03 1.86,0.24 0.69,0.21 1.74,1.06 2.72,1.43 1.5,0.58 1.6,0.27 3,1.17 0.98,0.63 0.25,0.22 1.44,0.63l2.83 1.33c0.47,0.25 0.89,0.4 1.44,0.65 2.02,0.93 3.1,2.6 5.89,2.18 1.13,-0.17 2.86,-0.25 4.05,-0.25 1.6,0 5.04,1.41 6.13,2.31 0.41,0.35 0.65,0.71 1.13,0.96 0.14,0.07 0.55,0.2 0.67,0.25 0.66,0.23 0.21,0.09 0.89,0.27 1.07,0.29 0.55,0.09 1.48,0.59 1.28,0.7 2.84,1.94 3.87,2.38 1.22,0.53 1.74,0.65 2.86,1.3 0.84,0.5 1.75,1.38 2.61,1.6 0.98,-0.7 1.57,-2.18 1.94,-3.65 0.67,-2.64 -1.42,-3.99 -3.06,-5.21 -3.25,-2.42 -6.88,-4.45 -10.23,-6.64 -1.38,-0.9 -1.79,-1.28 -3.35,-1.74 -0.27,-0.08 -0.28,-0.07 -0.55,-0.14l-1.88 -0.89c-1.3,-0.88 -2.68,-1.16 -3.9,-1.87l-0.01 -1.86c2.98,-0.14 3.86,-0.28 7.37,1.66 1.06,0.58 1.88,1.45 2.78,1.83l2.97 1.2c0.05,0.02 0.11,0.05 0.15,0.07l8.79 6.01c0.65,0.57 1.61,1.7 2.45,2.39 1.03,0.85 1.57,1.23 2.52,2.1 2.05,1.85 4.56,3.33 6.44,5.34 1.72,1.83 3.37,1.94 6.32,5.7 1.4,1.8 4.44,3.05 3.15,5.53 -2.83,0.31 -2.08,-1.88 -3.51,-3.09 -1.01,-0.85 -0.99,-0.31 -1.68,-1.55 -0.57,-1 -0.61,-1.39 -1.94,-1.58 -0.21,1.76 0.72,2.66 1.48,3.9 0.81,1.32 1.15,2.44 2.11,3.42 1.44,1.47 2.43,3.63 3.45,5.55l1.81 3.74c0.1,0.19 0.1,0.26 0.21,0.49 0.78,1.63 1.95,2.01 2.82,4.1l1.23 2.93c0.19,0.46 0.22,0.58 0.4,1l1.41 4.13c1.11,0.55 2.87,0.31 3.72,-0.21 0.06,-1.59 -4.2,-8.94 -5.1,-10.89 -1.53,-3.31 -5.76,-8.2 -5.31,-10.62l0.78 -0.42c1.23,0.4 3.96,4.39 4.93,5.78 0.43,0.6 0.69,0.9 1.07,1.47 1.41,2.09 1.56,3.77 4.57,3.37 0.16,-2.55 -1.02,-2.21 -0.88,-4.55 0.13,-2.17 1.02,-1.82 -0.56,-4.02 -0.85,-1.18 -3.51,-3.49 -3.02,-5.16 0.24,-0.78 1.22,-0.47 2.15,-0.6 0.68,-4.6 -1.79,-4.42 -1.56,-6.32 0.67,-5.8 -0.24,-1.39 -0.23,-7.46l1 0.41c2.11,0.59 0.65,0.74 2.74,3.51l1.86 2.97c0.43,0.72 0.87,1.2 0.29,2.23 -0.82,1.46 -0.07,1.72 0.7,3.03 1.41,2.4 3.3,4.43 4.77,6.78 0.43,0.68 0.95,1.21 1.38,1.85l2.52 4.64c0.18,0.44 0.08,0.25 0.27,0.66l1.62 3.23c0.74,1.46 1.19,3.52 3.55,2.94 0.17,-4.39 -1.34,-2.98 -2.53,-5.58 -1.4,-3.08 -0.86,-4.36 -4.49,-8.21l-1.91 -2.48c-0.7,-1.11 -2.79,-4.37 -1.35,-6.24 0.97,0.08 1.4,0.9 1.77,1.66l1.48 3.14 2.99 0.1c1.19,0.84 1,2.75 1.61,4.08 0.38,0.83 0.76,0.78 1.07,1.71 0.72,2.21 1.47,3.6 2.45,5.86 1.19,2.73 1.35,1.48 2.68,3.05 -0.12,1.28 -1.79,3.92 1.71,3.9 0.6,-1.67 0.66,-1.78 -0.02,-3.69 -0.48,-1.32 -1.32,-3.09 -0.38,-4.25 0.54,-0.63 1.54,-0.48 2.41,-1.05 1.19,-0.77 0.7,-0.78 2.75,-0.64 0.4,0.93 0.35,0.16 0.51,1.34 0.26,1.88 -0.39,4.33 0.22,6 1.49,0.6 3.94,-0.66 4.86,-1.6 0.66,-0.68 1,-1.57 2.21,-1.1 0.81,0.31 0.88,1.65 1,2.5 0.34,2.32 0.41,4.09 0.54,6.45 0.16,2.89 2.61,3.39 3.17,1.37 0.62,-2.22 -0.41,-4.4 0.27,-6.19 1.01,-2.63 1.27,-2.85 1.21,-5.81 -0.11,-4.71 -2.26,-6.99 -4.1,-10.07 -4.7,-7.88 -6.14,-2.52 -8.45,-4.02 -0.27,-0.17 -1.14,-1.58 -1.46,-2 -0.96,-1.25 -2.41,-2.24 -3.32,-3.63 -0.62,-0.95 -1.01,-1 -2.05,-1.41 -2.01,-0.81 -2.13,-2.27 -3.88,-3.06 -2.05,-0.92 -2.03,-1.78 -3.5,-3.43 -0.55,-0.61 -1.13,-0.93 -1.65,-1.81 -0.56,-0.98 -0.5,-1.42 -1.51,-1.95 -1.39,-0.75 -2.81,-2.04 -4.15,-3.02 -1.02,-0.74 -1.19,-0.31 -1.68,-1.78l-0.28 -0.87c-0.72,-2.45 -2.95,-2.98 -5.38,-3.87 -2.65,-0.98 -1.42,-1.47 -5.13,-1.78 -1.59,-0.14 -1.45,-0.41 -2.61,-0.88l-2.23 -1.23c-1.06,-0.82 -1.41,0.07 -2.66,-0.82 -0.9,-0.64 -0.7,-0.9 -2.11,-1.34 -1.94,-0.61 -2.96,-1.42 -4.88,-2.06 -1.61,-0.54 -3.09,-1.73 -4.23,-2.7 -1.56,-1.32 -4.13,-1.9 -5.99,-2.78l-1.19 -0.67c-1.69,-0.94 -6.67,-1.87 -7.45,-2.94 -1.13,-1.55 -1.94,-2.24 -3.95,-2.97l-10.39 -3.49c-1.85,-0.62 -3.63,-0.88 -5.63,-1.3 -1.75,-0.37 -3.64,-1.16 -5.55,-1.37 -1.58,-0.18 -8.39,-0.85 -9.86,-0.5 -2.77,0.67 -6.89,0.25 -9.96,0.46 -2.1,0.14 -4.27,0.47 -6.33,0.53 -2.18,0.06 -4.6,-0.08 -6.73,0.22 -4.08,0.58 -8.01,0.87 -12.13,1.74 -5.53,1.17 -5.83,2.68 -7.19,3.18 -0.73,0.27 -2.25,0.17 -3.26,0.43l-10.53 3.33c-0.88,0.32 -1.53,0.86 -2.21,1.28 -0.84,0.51 -1.52,0.57 -2.42,1.03 -0.88,0.45 -1.07,0.86 -2.11,1.36l-2.09 1.37c-0.69,0.54 -1.56,0.59 -2.36,1.12l-2.18 1.28c-1.61,0.86 -2.28,1.81 -4.1,2.83 -1.24,0.7 -3.14,1.78 -4.25,2.69 -1.81,1.5 -1.93,2.01 -3.96,3.19 -1.28,0.75 -1.84,1.76 -3.97,2.96l-3.25 1.84c-1.41,0.71 -5.32,1.8 -6.04,2.74 -1.55,2.06 -2.41,1.76 -3.76,3.17 -0.9,0.94 -0.84,0.93 -1.81,1.67 -4.31,3.28 -2.96,4.16 -6.67,7.18 -1.09,0.89 -2.17,2.43 -2.96,3.73l-4.01 6.86c-0.84,1.42 -1.67,2.6 -2.82,4.11 -0.47,0.63 -1,1.43 -1.37,2.09 -2.08,3.71 -1.71,2.17 -4.18,6.44l-2.72 4.68c-1.29,2.12 -1.44,5.4 -1.94,7.97 -0.15,0.79 -0.47,2.29 -0.52,2.92 -0.2,2.21 0.42,4.37 0.4,6.78zm213.35 193.32l-1.18 0.15 -0.07 -1.79c0.97,0.38 1.41,0.76 1.25,1.64zm24.03 -200.58c0.15,2.4 3.38,4.53 4.75,6.48l2.22 2.64c2.39,2.52 3.98,0.71 3.53,6.3l-2.29 -0.08c-1.08,1.27 -0.57,2.43 -0.02,3.81 2.4,0 4.03,-1.7 3.98,2.85 -1.36,-0.05 -3.37,-0.99 -2.48,0.77 1.03,2.05 0.07,2 2.06,3.98 2.81,2.78 5.57,5.25 6.01,9.74 0.13,1.43 0.14,2.15 0.39,3.48 0.18,0.94 0.35,0.99 0.42,1.47 0.15,0.99 0.07,0.64 -0.63,1.26 -2.35,-0.26 -4.8,-9.13 -7.67,-6.5 -3.02,2.76 3.66,9.12 4.21,9.31 1.99,-0.96 -0.15,-1.2 3.24,-0.94 4.11,0.31 2.37,5.77 1.86,8.33 -0.15,0.76 -0.03,0.34 -0.27,0.91 -0.02,0.04 -0.06,0.1 -0.08,0.15l-0.15 0.3c-0.15,0.36 -0.07,0.18 -0.17,0.49 -2.33,-0.44 -3.05,-3.56 -4.41,-4.57 -2.05,1.04 -1.45,2.67 -1.03,5.13 0.39,2.22 -2.19,1.82 -0.74,6.02 0.02,0.06 0.04,0.12 0.06,0.18 0.02,0.05 0.05,0.11 0.07,0.16l0.47 0.92c1.61,3.5 0.82,5.25 0.26,9.03 -0.15,1.04 -0.48,1.85 -0.74,2.75 -0.63,2.19 -1.06,3.47 -1.13,5.79 -0.1,3.34 -3.53,3.27 -2.02,7.77 1.69,5.03 1.84,5.21 -0.89,10.58 -1.61,3.16 -1.73,5.32 -0.93,8.32 0.52,1.92 0.13,8.29 0.13,10.5 0,7.56 0.33,12.08 -1.58,19.21 -0.46,1.72 -0.38,4.6 -1.89,5.28 -1.48,-1.25 -0.18,-4.35 -0.27,-6.7 -0.19,-4.75 0.71,-4.68 -1.16,-4.45 -1.39,0.17 -0.66,-0.07 -1.8,-0.13 -1.92,2.88 -0.04,3.85 -0.93,6.9 -0.62,2.13 -1.1,4.85 -3.29,5.16 -1.85,0.27 -5.63,-0.42 -6.75,-1.36 -0.75,-0.63 -0.95,-1.59 -1.7,-2.47 -1.13,-1.3 -1.4,-0.75 -3,-0.46 -0.74,-2.84 1.6,-4.5 2.08,-6.62 0.5,-2.2 0.5,-1.58 1.4,-3 0.64,-1.01 0.37,-2.68 0.46,-3.96 1.74,-1.05 3.26,-1.31 3.15,-3.9 -1.83,-0.1 -1.61,0.07 -2.67,0.97 -1.72,1.45 -4.16,2.15 -5.46,5.65l-2.4 4.97c-1.93,3.31 0.15,3.62 1,5.47l1.71 -0.03c0.06,1.93 -0.17,1.24 -0.66,2.33 2,2.43 3.8,4.49 6.36,6.25 -0.32,2.01 -1.16,1.13 -2.34,2.01l-0.41 0.37c-0.43,-1.32 -1.35,-0.99 -2.46,-0.73 -2.36,0.56 -1.16,0.17 -2.84,-0.47 -1.3,-0.5 -1.55,-0.26 -2.72,-0.98 -1.42,-0.88 -1.62,-0.5 -2.29,0.49l-2.43 0.01c-0.49,0.72 -1.23,1.78 -1.7,2.3 -2.61,0.13 -1.6,-0.98 -3.54,-0.89 -0.53,0.89 -0.05,0.91 -1.15,1.47 -1.85,-0.62 -0.79,-1.96 -2.78,-2.66 -2.52,0.54 -1.48,2.75 -2.03,4.23 -0.44,1.2 -1.92,1.03 -3,0.59 -1.88,-0.77 -0.8,-2.95 -1.47,-4.53 -0.42,-0.02 -0.16,-0.09 -0.59,0.04 -0.99,0.32 -0.57,1.08 -0.99,1.81l-1.89 0.18c-1.91,4.31 -1.85,10.02 -5.61,13.29 -0.62,0.55 -0.98,0.5 -1.4,1.28 -1.97,-0.74 -1.22,-0.93 -2.88,0.16 0.04,6.33 4.58,-3.66 3.15,8.77 -0.33,2.95 0.24,3.63 0.41,6.23 0.34,5.32 0.22,7.66 -0.46,12.88 -0.27,2.01 0.29,4.52 -0.44,6.24 -0.85,2.03 0.4,3.32 0.07,6.07l-1.22 7.1c-0.04,0.18 -0.13,0.49 -0.21,0.71 -0.02,0.06 -0.05,0.11 -0.07,0.17 -0.13,0.34 -0.54,2.26 -0.26,3.8 2.73,0.23 1.6,-1.63 2.95,-3.14l2.14 -0.04c-0.28,1.12 -0.73,0.95 -0.44,2.45l1.25 8.42c0.38,3.57 1.48,8.09 1.49,11.54 0,0.94 -0.2,1.7 -0.64,2.4 -0.31,0.5 -1.19,1.21 -1.57,1.66 -0.9,1.08 -1.78,2.75 -2.5,3.96 -1.34,2.26 -3.79,2.5 -4.71,5.03 -0.65,1.76 0.18,1.53 0.3,2.6 -1.63,0.89 -1.49,0.47 -2.6,2 -0.43,0.6 -4.5,4.3 -5.15,4.55 -1.57,0.59 -2.61,-0.15 -4.2,-0.24 -3.08,-0.16 -5.72,0.7 -8.08,-1.42 -0.78,-0.69 -2.09,-1.37 -3.47,-1.35 -2.83,0.02 -2.02,0.4 -3.24,-1.6 -2.41,-0.02 -4.26,-0.69 -5.76,0.57 0.15,0.91 1.72,3.51 2.29,4.7 0.29,0.59 0.45,0.93 1.25,0.78 0.03,-1.04 -0.58,-1.93 0.14,-3.06 1.26,0.23 0.67,0.6 1.14,1.83 0.37,0.99 0.76,1.37 1.86,1.31 0.57,-0.67 0.76,-1.43 1.19,-2.22 2.81,-0.33 4.87,2.98 3.07,5.39 -1.17,1.58 -0.12,1.33 -2.69,4.7 -0.49,0.65 -0.42,0.72 -1.11,1.38 -2.95,0.21 -2.08,-2 -3.46,-2.73 -0.93,0.18 -0.81,0.65 -1.72,1.53 -1.14,1.08 -0.91,0.69 -2.63,0.86 -0.31,1.59 0.46,5.68 0.89,6.88 0.81,2.26 -0.09,5.22 1.79,5.9 0.32,-1.63 -0.32,-2.58 0.29,-3.85 0.75,-0.41 1.87,-0.19 2.76,-0.26 0.99,-0.46 1.21,-3.18 2.84,-4.06 0.29,-0.15 0.51,-0.21 0.79,-0.36 1.62,-0.89 0.1,-0.78 2.02,-3.28 4.85,-6.3 1.77,-8.46 6.72,-6.94 1.99,0.6 5.26,1.19 6.19,3.05 1.42,2.83 -0.24,7.49 -0.62,10.4l-2.02 -0.18c-0.38,-1.49 -1.63,-5.28 -3.91,-4.37 -0.7,0.45 -0.05,2.17 0.07,2.96 0.17,1.07 1.76,4.36 2.27,5.58 0.83,1.97 1.77,8.53 -0.38,9.59 -0.91,0.45 -2.15,0.41 -3,0.92 -1.35,0.82 -0.9,0.81 -2.75,1.4 -0.54,0.18 -0.91,0.32 -1.39,0.46 -1.84,0.5 -2.73,1.72 -4.24,1.67 -1.11,-0.03 -4.15,-1.82 -5.77,-2.3 -2.1,-0.63 -3.36,-1.46 -5.34,-2.52 -0.85,-0.46 -1.71,-0.82 -2.86,-1.03 -0.45,-0.08 -1.45,-0.21 -1.8,-0.32 -1.1,-0.34 -0.46,-0.35 -1.07,-1 -0.63,-0.68 -0.28,-0.25 -1.31,-0.56 -0.59,-0.18 -0.91,-0.43 -1.36,-0.7 -1.74,-1.07 -4.86,-0.53 -6.69,0.15 -1.32,0.5 -1.36,-0.26 -2.64,-0.79 -1.43,-0.59 -1.41,0.28 -2.71,0.49 -0.95,0.15 -1.82,-0.87 -2.61,-1.15 -2.29,-0.78 -3.74,-0.36 -6.59,-1.49 -2.82,-1.12 -6.2,-1.35 -8.58,-3.21l-2.28 -1.88c-2.48,-1.83 -2.14,-1.82 -5.98,-1.9 -1.15,-0.02 -7.13,-1.17 -7.63,-0.02 -1.24,2.81 -0.71,3.05 -5.08,5.11 -4.63,2.19 -3.67,3.91 -5.52,5.12 -2.02,1.32 -3.51,1.33 -3.49,4.35 0,1.47 -0.31,7.26 0.13,7.99 0.88,1.46 2.36,-0.32 2.7,-1.93 0.42,-2.04 1.28,-7.14 2.21,-8.41l2.47 -2.85c1.75,-2.13 3.91,-0.36 5.18,-2.67 0.29,-0.52 0.59,-1.19 1.07,-1.71 0.64,-0.71 0.66,-0.46 1.12,-1.41 0.28,-0.56 0.46,-1.39 1.06,-1.75 1.37,-0.81 3.25,0.51 3.68,1.23 0.47,0.77 0.2,0.91 0.81,1.73 0.59,0.79 0.78,0.78 0.81,1.94l-1.36 0.85c0.4,1.78 1.86,3.38 3.01,4.68 0.79,0.89 2.18,3.9 3.62,3.78 0.48,-0.04 0.9,-0.52 2.11,-0.28 0.62,0.12 1.05,0.58 1.67,0.86l-0.05 3.5c1.57,1.28 4.23,2.59 6.19,3.56 1.01,0.49 0.95,0.77 1.88,1.34 1.75,1.07 2.8,-0.02 4.36,2.11 0.95,1.3 1.69,2.65 3.84,2.26 0.34,-1.43 -0.02,-1.61 -1.2,-2.11 -1.29,-0.54 -1.2,-0.62 -1.94,-1.77 -0.47,-0.71 -0.89,-1.64 -1.33,-2.36 -1.11,-1.8 -1.11,-0.37 -2.38,-1.32 -0.18,-0.15 -1.32,-1.82 -1.57,-2.13 -0.7,-0.89 -1.15,-1.03 -1.9,-1.79 -1.02,-1.05 -0.83,-0.91 -2.68,-0.97 -1.63,-0.05 -1.92,-0.63 -3.28,-0.77 -0.17,-2.06 -0.04,-0.87 -0.92,-2.24 -1.04,-1.62 -0.79,-2.73 -2.52,-4.18 -1.17,-0.98 -0.78,-0.34 -1.68,-1.79 -0.69,-1.1 -2.27,-2.78 -2.42,-4.3 -0.11,-1.11 0.61,-1.35 1.42,-0.97 1.16,0.54 1.03,0.96 1.9,1.59 2.33,1.69 5.47,3.17 8.28,4.21 0.76,0.27 0.08,0.09 0.69,0.23 3.23,0.75 2.44,0.79 5.08,1.63 2.3,0.74 5.29,0.14 7.69,0.86 0.14,0.04 0.9,0.4 1.11,0.49 1.79,0.73 2.94,1.07 4.49,2.22 1.39,1.03 2.69,1.68 4.26,2.44 1.2,0.57 1.79,0.14 3.08,0.41 2.34,0.49 3.23,1.31 5.24,1.67 0.94,0.17 1.72,0.31 2.6,0.63 1.82,0.66 3.54,0.82 5.4,1.3 0.94,0.24 1.72,0.8 2.57,0.91 1.01,0.12 2.18,-0.27 3.15,0.08 0.94,0.34 0.55,1.09 2.41,0.64 2.06,-0.5 4.51,-0.28 6.74,-0.27 1.19,-1.86 1,-1.84 3.63,-1.84 1.09,1.92 0.41,2.56 0.04,4.86 -0.38,2.35 -1.17,2.82 -2.27,4.22l-2.56 3.68c-1.17,1.41 -1.82,1.91 -2.8,3.66 -1.54,2.74 -1.22,1.54 -3.49,2.76 -0.56,0.3 -1.31,0.89 -1.96,1.27 -0.82,0.48 -1.34,0.48 -2.2,1.03 -2.34,1.5 -0.97,1.81 -4.87,1.63 -1.08,-0.04 -0.58,0.03 -1.31,-0.31 -1.14,-0.53 -1.7,-2.03 -2.61,-2.26 -1.21,0.01 -0.91,0.21 -1.78,0.54 -0.66,0.25 -1.53,0.21 -2.38,0.16 -1.46,-0.07 -3.12,-0.31 -4.62,-0.36 -1.53,-0.05 -3.01,0.42 -4.37,0.35 -11.24,-0.59 -7.97,-1.41 -10.34,-2.16 -1.49,-0.48 -1.02,1.48 -3.37,0.39 -1.65,-0.76 -2.22,-0.03 -3.35,-1.73 -0.32,-0.48 -0.68,-1.13 -0.95,-1.52 -2.48,-0.01 -1.56,1.1 -1.2,5.03l2.19 0.01c0.86,1.64 2.49,2.59 4.81,3.16 2.07,0.51 4,1.45 6.4,1.95 4.75,0.99 4.36,-0.4 7.5,0.36 1.36,0.33 2.47,0.11 3.72,0.42 2.39,0.59 4.02,1.85 9.52,2.97 1.07,0.21 2.4,0.45 3.44,0.69 1.04,0.25 2.59,0.21 3.77,0.4 1.33,0.21 2.43,0.78 3.12,-0.14l3.76 -4.57c0.7,-0.74 1.38,-1.27 2.09,-2.09 1.22,-1.42 2.54,-3.18 3.26,-4.82 1.25,-2.89 2.38,-2.61 3.44,-4.86 0.46,-1 0.67,-2.09 1.03,-3.13 0.45,-1.29 0.84,-1.71 1.13,-3.03 0.16,-0.73 1.97,-5.6 2.32,-5.99 0.28,-0.31 1.79,-1.4 2.33,-1.83 2.74,-2.14 2.83,-4.92 4.3,-8.19 0.77,-1.7 0.41,-5.39 0.16,-7.39 -0.34,-2.65 0.88,-6.71 -0.57,-7.32 -1.78,-0.74 -2.13,3.28 -2.97,5.8l-2.41 6.61c-0.68,1.88 -2.49,1.58 -4.07,0.95 -0.27,-3.02 0.43,-2.98 0.87,-5.09 0.35,-1.7 0.73,-3.09 1.1,-4.91 0.83,-4.05 0.14,-3.33 1.68,-7.33 0.36,-0.92 0.39,-1.54 0.62,-2.33 1.94,-0.36 5.49,-1.42 6.3,1.24 0.24,0.77 0.45,1.46 0.96,2.07 0.6,-0.23 0.66,-0.79 1.32,-1.25 0.89,-0.61 0.85,-0.56 1.52,-1.25 1.6,-1.64 2.01,-0.39 3.98,-1.56 0.41,-2.05 0.51,-5.38 1.19,-6.89 2.18,-4.94 0.53,-3.45 3.31,-4.74 0.98,-3.73 -0.73,-12.23 -1.12,-16.23 -0.33,-3.45 0.01,-4.72 -0.89,-8.14 -0.74,-2.83 -0.56,-5.15 -1.07,-7.94 -0.21,-1.1 -0.66,-2.41 -0.85,-3.54 -0.26,-1.51 0.09,-2.6 -0.08,-3.86 -0.37,-2.83 -0.44,-5.38 -0.21,-8.39 0.21,-2.91 -0.12,-9.66 -0.42,-12.92 -0.26,-2.78 0.73,-4.8 2.73,-2.26l2.16 3.62c0.35,0.75 0.4,1.46 0.8,2.2 0.95,1.76 1.15,1.98 1.72,4.07 1.68,6.09 2.21,3.79 3.85,2.46 0.85,-0.7 1.33,-0.29 1.95,-1.54 -0.35,-1.13 -1.15,-1.19 -2.2,-1.98 -1.98,-1.5 -0.66,-3.14 -2.38,-5.95 -0.7,-1.14 -0.44,-2.08 -0.57,-3.58 -1.63,-0.12 -1.29,0.06 -2.58,-0.48l-0.76 -2.89c-0.54,-1.54 -1.79,-3.13 -2.64,-4.74 -0.59,-1.12 -1.5,-1.24 -1.77,-1.95 -0.37,-0.97 -0.76,-5.44 -0.65,-6.48 0.21,-2.06 1.6,-3.1 2.56,-4.75 1.5,0.04 4.18,1.44 5.48,2.25 1.91,1.19 4.02,0.61 4.09,3.61 -0.78,0.4 -1.15,1.03 -1.3,2.06 -0.16,1.07 0.36,1.85 0.94,2.62 1.43,0.2 3.25,0.23 4.62,-0.09 1.69,-0.38 2.51,-0.02 3.01,1.47 0.39,1.16 0.17,2.74 0.66,4.19 0.35,1.06 0.47,0.66 1.44,1.09 0.98,0.43 0.29,0.66 1.73,0.92 0.1,-0.14 0.16,-0.19 0.3,-0.48 0.1,-0.22 0.11,-0.25 0.19,-0.52l0.92 -3.24c2.38,-0.19 1.79,-0.06 2.49,1.39 0.63,1.28 1.79,0.68 1.77,1.99 -0.03,2.1 -1.96,2.21 -2.64,3.08 -0.38,0.5 -0.25,0.91 -0.64,1.44 -1.2,1.59 -7.72,1.8 -9.57,2.21 -1.35,0.29 -2.07,0.31 -2.01,1.85 2.65,0.38 6.2,-0.46 7.66,-0.29l-0.42 4.11c-1.38,-0.08 -1.24,0.07 -2.21,1.05 -1.17,1.19 -1.05,0.97 -0.93,2.86 1.2,0.65 2.89,1.44 4.07,0.06 3.22,-3.78 1.67,-3.38 3.36,-5.67 2.12,-2.87 1.08,-3.39 5.51,-3.01 0.03,1.46 0.01,2.93 0.02,4.39 0.02,2.41 -0.49,1.82 -1.06,3.57 -0.44,1.34 -0.05,2.94 -0.4,4.21 -0.35,1.28 -1.58,1.51 -1.77,2.84 0.74,0.72 1.97,1.04 3.39,0.59 1.25,-0.38 1.44,-1.61 1.7,-2.64l1.12 -3.74c0.46,-1.43 -0.19,0.85 0.12,-0.33 0.28,-1.04 0.13,-2.27 0.12,-3.35 -0.01,-5.89 1.81,-2.92 2.7,-5.85 0.25,-0.83 -0.01,-0.7 0.45,-1.63 0.39,-0.78 0.48,-0.71 1.11,-1.21 0.93,-0.73 0.94,-1.95 1.29,-3.1 0.33,-1.07 0.44,-2.16 1.3,-2.84 1.73,-1.37 0.65,-2.21 3.7,-5.09 0.54,-0.5 1.56,-1.84 1.96,-2.42 0.87,-1.26 1.15,-2.8 2.59,-3.66 2.19,-1.3 0.95,-2.65 2.43,-4.27 0.91,-0.99 1.44,-1.29 0.27,-2.69 -0.91,-0.08 -1.44,0.09 -2.26,0.48 -2.73,1.31 -2.71,2.44 -4.79,4.21 -0.9,0.78 -0.73,0.42 -1.45,1.32 -2.48,3.1 -1.54,3.03 -6.19,5.59 -1.37,0.76 -3.98,0.27 -5.25,-0.03 -2.7,-0.63 -10.37,-1.24 -11.55,-3.26 -0.57,-0.97 0.51,-1.43 -2.51,-3.25 -1.84,-1.11 -1.35,-1.27 -3.97,-2.04l-8.9 -3.1 -0.04 -3.43c-0.54,-0.64 -1.21,-0.97 -1.47,-1.78 -0.48,-1.46 0.27,-2.51 1.47,-2.62 2.21,-0.2 4.78,0.78 6.18,2.39 3.24,3.74 1.38,2.61 6.53,2.71 1.27,1.33 2.74,3.33 4.16,4.59 1.04,-0.09 0.78,-0.46 2.54,-0.44 0.28,0.76 0.1,0.17 0.38,0.78 0.18,0.42 0.19,0.55 0.4,0.97 0.42,0.85 0.61,0.92 1.76,0.88l0.14 -0.38c0.01,-0.05 0.04,-0.14 0.05,-0.2l0.16 -0.97c2.38,-1.05 1.04,1.24 3.09,-2 1.88,0.01 2.11,1.48 3.77,1.79 1.49,0.28 6.37,1.12 7.81,0.28 0.41,-0.24 0.26,-0.3 0.79,-0.59 1.64,-0.89 3.87,-0.87 4.09,-3.18 -2.03,-0.73 -2.14,-0.26 -2.2,-1.77 1.5,-0.9 3.81,0.14 5.3,-1.03 0.77,-0.61 1.47,-3.17 1.99,-4.22 2.14,-0.21 1.9,0.48 3.72,0.41 0.33,-0.82 1.2,-4.14 1.19,-5.08 0,-1.22 -0.48,-2.19 -0.49,-2.8 -0.03,-1.12 0.95,-1.35 0.84,-2.27 -0.18,-1.54 -1.99,-0.18 -1.02,-11.14 0.1,-1.17 0.12,-1.59 0.42,-2.66 0.58,-2.09 1.44,-2.02 1.91,-4.56 0.34,-1.8 -1.28,-3.29 -1.02,-5.17 0.16,-1.23 0.63,-0.82 0.67,-2.58 0.05,-2.14 -0.32,-3.99 -0.28,-6.25 0.07,-3.85 -0.06,-8.21 0.27,-12.02l0.91 -5.53c0.22,-2.51 0.3,-3.19 1.74,-4.74 1.31,-1.4 0.59,-3.8 1,-5.47 0.46,-1.84 1.04,-0.02 1.45,-5.03 0.24,-2.89 -0.25,-2.45 0.43,-6.02 0.31,-1.58 0.51,-4.12 1.08,-5.39 0.45,-0.99 0.7,-0.83 1.35,-1.64 2.42,-3.05 2.35,-1.75 3.02,-6.67 0.41,-3 0.57,-2.67 0.57,-5.92 0,-4.64 -0.21,-4.98 0.8,-8.9 1.12,-4.38 -1.98,-8.58 -3.25,-12.69 -0.55,-1.78 -0.9,-3.27 -1.35,-5.11 -1.36,-5.53 -3.32,-9.13 -4.92,-14.26 -0.71,-2.28 -0.48,-3.11 -2.02,-4.45 -0.65,-0.57 -2.04,-2.85 -2.66,-3.8 -1.41,-2.15 -3.93,-5.44 -5.89,-7.03 -0.46,-0.37 -0.45,-0.31 -0.93,-0.7 -0.91,-0.75 -1.63,-1.78 -3.04,-1.27zm-137.32 142.74c1.37,-1.41 4.59,-0.35 6.69,-0.29 2.99,0.08 3.61,-0.79 5.05,-2.48 2.72,0.59 0.55,1.26 1.78,3.12 0.21,0.33 0.22,0.09 0.38,0.54 -2.47,-0.01 -5.1,-0.2 -7.44,-0.19 -2.14,0.02 -5.24,0.67 -6.46,-0.7zm-10.41 -8.54l-2.64 -0.37c-0.51,-0.14 -0.51,-0.11 -1.06,-0.11 -0.08,1.5 -1.28,1.87 -2.69,1.32 -1.39,-0.55 -0.91,0.03 -4.01,0.1 -0.04,0.06 -0.48,0.84 -0.5,0.88 -0.2,0.49 -0.31,0.49 -0.1,1.3 0.21,0.82 0.69,1.12 0.81,2.19 -1.5,1.19 -1.83,0.09 -1.83,2.31 0,1.72 0.87,3.07 2.72,2.26 4.56,-1.99 3.61,-3.02 6.86,1.56 0.9,1.26 1.85,1.99 3.1,2.91 1.81,1.33 2.34,0.9 4.9,0.98 2.58,0.08 2.35,1.18 5.16,0.88 1.05,-2.26 0.3,-2.35 2.45,-2.35 0.95,1 1,1.23 2.5,1.65 1.34,0.38 2.15,0.71 3.29,1.11 2.67,0.94 8.08,1.56 11.12,0.74 2.22,-0.61 1.9,-1.05 2.91,-1.5 1.96,-0.87 1.51,1.69 1.05,2.93 -0.02,0.06 -0.05,0.11 -0.07,0.17 -0.21,0.6 -0.01,-0.3 -0.17,0.55 -0.15,0.8 0.11,1.34 0.31,1.82 1.15,0.2 1.83,-0.21 2.99,0.02 0.81,0.17 1.63,0.6 2.58,0.89 3.16,0.95 0.79,3.12 3.78,3.44 0.84,-1.67 1.36,-4.32 3.37,-4.98 1.65,-0.54 5.36,1.33 5.99,2.16 -0.54,1.23 -0.89,1.66 -2.26,2.04 -3.84,1.05 -7.22,2.99 -10.43,5.28 -2.67,1.9 -6.24,0.33 -9.19,-0.12l-7.45 -1.58c-1.36,-0.41 -2.05,-0.95 -3.25,-1.36 -2.1,-0.73 -1.42,0.05 -3.04,-1.35 -1.32,-1.14 -1.83,-0.54 -3.18,-1.45 -0.68,-0.47 -1.94,-1.42 -2.46,-1.93 -1.98,-1.94 -4.52,-1.4 -6.86,-2.14 -1.11,-0.35 -1.71,-1.73 -3.25,-0.33 0.91,2.01 3.82,2.63 5.28,3.82 0.9,0.73 1.46,1.46 2.52,2.12 1.87,1.16 2.3,1.17 2.3,3.47 0,1.52 -0.51,1.9 0.13,3.1l1.03 0.16c1.77,-0.05 1.15,-0.06 1.9,1.53l2.84 -0.28c0.01,-0.04 0.04,-0.12 0.05,-0.17 0.12,-0.36 0.11,-0.38 0.23,-0.7l0.52 -1.25c1.77,0.17 2.53,0.52 3.89,1.12 0.13,1.54 -0.02,2.68 -0.65,3.87l-1.7 -0.36c-2.12,4.99 0.89,2 2.43,1.86 -0.43,1.07 -0.65,0.88 -0.47,2.39 2.21,0.13 1.73,-1.98 2.01,-3.92 0.33,-2.35 -0.3,-3.5 1.43,-4.57 2.64,0.47 1.35,2.54 4.14,2.57 2.41,0.02 3.85,-1.61 5.16,0.21 0.09,0.4 -0.56,3.89 -0.24,5.26 0.16,0.72 0.94,1.23 1.82,0.78 1.11,-0.56 0.18,-0.83 2.28,-0.73 1.24,1.91 0.84,2.63 1.14,2.99 0.71,0.55 2.46,0.77 3.43,0.18 0.69,-0.43 0.96,-1.66 1.91,-2.52 1.37,0.74 0.39,1.62 2.37,1.64 0.62,-0.87 0.42,-1.44 1.55,-2.1 1.46,0.65 1.29,2.33 3.02,2.1 0.83,-1.48 -0.13,-2.17 -1.78,-4.93 -0.76,-1.27 -0.79,-1.23 -1.89,-2.03 -0.71,-0.52 -1.49,-1.36 -2.68,-0.97l-0.21 1.38 -3.85 1.44c-0.99,-0.93 -0.47,-1.09 -1.39,-1.74 -1.14,0.97 -0.28,0.42 -0.95,1.52 -0.92,1.53 -2.2,0.86 -2.55,-0.88 -0.28,-1.35 -0.18,-0.78 0.16,-1.97 1.21,-0.21 2.17,0.22 3.37,0.54 1.9,0.5 1.53,0.51 2.98,1.22 2.3,-1.26 4.72,-6.04 6.42,-2.77 0.29,0.55 0.48,0.92 0.79,1.53 0.72,1.42 1.54,1.03 2.26,2.35 1.37,2.5 0.74,5.79 4.32,4.11 -0.05,-1.84 -3.51,-2.99 -1.09,-5.73 2.38,-2.71 0.85,-3.33 1.16,-6.92 0.81,-0.5 2.74,-2.39 3.7,-2.18 3.28,1.79 -0.38,3.82 0.01,6.55 0.19,1.35 -0.02,0.07 0.34,1.05l0.24 0.69c0.84,2.32 -0.26,1.52 -0.91,3.03 -0.29,0.7 -0.13,1.68 -0.14,2.45 -0.72,0.48 -1.14,0.58 -1.36,1.61l0.69 0.59c1.51,-0.33 2.6,-0.95 3.89,-1.8 2.12,-1.39 2.51,-0.77 5.48,-3.05 1.14,-0.89 2.27,-1.6 3.12,-2.67 1.15,-1.45 3.32,-2.43 5.9,-5.65 1.41,-1.76 1.45,-1.76 0.26,-3.58 -0.64,-0.98 -0.25,-1.17 -0.79,-2.22 -0.75,-1.45 -1.72,-2.04 -1.22,-4.05 3.06,-0.48 0.59,2.45 9.18,2 0.49,-1.4 0.61,-1.87 1.74,-2.6 0.76,-0.5 1.5,-1.37 2.38,-2.03 1.23,-0.9 1.14,-1.21 1.94,-2.44 1.34,-2.06 0.68,-1.07 0.68,-3.53 1.28,-0.03 0.76,0.25 1.84,0.59 -0.01,-1.53 0.54,-1.37 0.31,-2.5 -0.19,-0.91 -0.28,-0.02 -0.14,-0.9 0,0 0.32,-1.17 0.34,-1.26 0.39,-1.49 1.2,-2.88 1.75,-4.5 0.62,-1.85 0.79,-2.97 1.97,-4.02 0.26,-0.23 0.49,-0.37 0.76,-0.63 0.41,-0.4 1.42,-2.66 1.37,-3.26 -1.14,-0.48 -3.5,-0.54 -4.97,-0.17l-1.54 2.68c-0.59,0.94 -0.8,2.21 -1.14,3.02 -0.46,1.08 -1.13,1.48 -1.37,2.77 -0.41,2.27 0.36,1.79 -1.48,2.93 -0.78,0.48 -0.54,0.31 -1.01,1.06 -1.06,1.68 -1.18,2.62 -2.03,4.22 -0.67,1.27 -3.31,3.52 -4.59,3.92 -0.23,-1.33 0.05,-2.31 -0.56,-3.35 -1.78,-3.02 0.48,-2.89 1.3,-5.57 0.36,-1.18 0.86,-1.97 0.43,-3.39l-1.71 -0.15c-1.76,2.17 -0.21,2.76 -1.09,4.63 -0.65,0.41 -1.11,0.35 -1.73,-0.1 -0.78,-0.57 -0.43,-0.63 -0.81,-1.44 -1.12,0.91 -0.8,0.32 -1.31,1.83 -6.05,1.94 -3.84,-1.37 -6.55,-1.52 -1.56,-0.08 -2.61,0.59 -3.1,1.59 -0.37,0.76 -0.28,1.03 -0.51,1.81 -0.02,0.07 -0.09,0.27 -0.11,0.34 -0.02,0.05 -0.04,0.11 -0.06,0.17 -0.26,0.83 -0.05,1.34 -1.13,1.44 -1.03,0.1 -2.72,-1.55 -3.64,-2.17 -0.05,-1.14 0.14,-2.99 -0.29,-3.97 -0.46,-0.1 -2.61,0.19 -3.3,0.35 -1.29,0.3 -0.6,1.38 -2.28,1.69 -0.45,-0.87 -0.41,-0.19 -0.57,-1.19 -0.32,-1.97 0.17,-2.89 -1.25,-4.51 -2.08,0.09 -1.27,1.37 -3.23,1.96 -1.97,-3.52 1.25,-3.66 -4.79,-3.68 -2.09,-0.01 -3.03,0.57 -3.72,2.75 -2.43,0.07 -3.75,1.46 -5.57,2.75 -0.95,0.68 -1.64,1.14 -1.36,2.81 0.16,0.98 0.32,0.63 0.74,1.38 0.19,0.35 0.43,1.16 0.59,1.56 -3.22,-0.11 -5.24,-1.14 -7.16,1.85 -0.03,0.04 -0.06,0.1 -0.09,0.15l-0.81 0.8c-0.04,0.02 -0.1,0.05 -0.15,0.07 -1.35,0.61 -4.78,0.17 -5.59,-1.18 0.81,-1.55 2.28,-0.76 2.02,-3.51 1.17,-0.53 1.3,-1.21 1.94,-1.99 3.21,-0.13 5.44,2.29 7.95,-1.77 0.79,-1.26 1.19,-1.09 1.88,-2.75 1.5,-3.62 3.03,-2.33 5.85,-4.32 2.2,-1.56 1.18,-2.56 4.28,-1.01 0.75,0.37 1.41,0.56 2.35,0.71l0.09 -1.76c-1.36,-1.1 -0.71,-0.08 -1.78,-1.69 -2.81,-4.2 -4.11,-0.02 -6.93,0.46 -2,-3.2 -1.8,-2.69 -5.16,-2.7 -0.27,0 -1.46,0.91 -2.53,1.02 -1.48,0.15 -1.98,-0.4 -2.65,0.72 -0.9,1.49 -1.63,2.86 -2.78,4.17 -0.69,0.8 -0.75,1.17 -1.51,1.95 -3.11,3.26 -2.2,3.7 -6.93,2.3 -1.23,-0.36 -1.67,-0.21 -2.89,0.14 -1.9,0.53 -3.86,-0.83 -5.29,0.7 -0.92,0.98 -0.72,0.8 -2.14,1.33 -2.89,1.09 -2.6,0.46 -5.28,-0.44 -0.76,-0.25 -1.8,-0.79 -2.07,-1.39 -0.17,-0.38 -0.21,-1.02 -0.36,-1.49 -0.16,-0.53 -0.24,-0.95 -0.69,-1.15zm-32.7 -107.53l-0.16 1.43c-2.64,1.48 -2.19,1.25 -3.49,3.93 -1.42,2.94 -1.89,3.23 -2.83,6.41 -0.43,1.44 0.27,0.43 -0.73,1.11 -1.54,1.05 -0.42,0.98 -1.59,2.11 -0.62,0.6 -0.29,-0.2 -0.78,1.08 -0.44,1.16 -0.99,3.15 -1.7,4.07 -0.75,0.99 -3.37,1.73 -4.55,2.85 -2.06,1.95 -1.73,-0.15 -5.27,2.35 -1.14,0.81 -4.38,0.41 -5.41,1.98 -1.59,2.4 -0.76,0.91 -1.86,1.84 -0.91,0.76 -0.39,1.89 -0.39,3.07 1.56,0 6.01,0.71 6.83,1.25 0.02,0.75 -0.49,1.57 -0.56,2.49 -0.07,0.81 0.2,2.11 0.19,3.19 -3.31,2.36 -3.1,2.82 -2,7.31 0.28,1.13 0.1,2.3 0.25,3.45 1.27,0.23 1.42,-0.19 2.14,-0.67 0.76,-0.51 1.24,-0.45 2,-1.02 0.76,-0.55 3.41,-2.55 2.17,-3.44l-1.53 -0.78c-0.43,-5.17 3.79,-2.47 5.24,-2.6 0.24,-1.98 -0.4,-3.79 0.85,-4.69 0.83,-0.6 0.44,-0.16 1.39,-0.47 2.32,-0.76 1.64,-2.6 5.16,-2.36 0.05,0.86 -0.55,2.72 -0.86,3.66 -0.68,2.05 -0.27,-0.29 -1.64,2.99 -0.66,1.59 -1.15,0.69 -1.15,2.78 0,1.11 -0.02,1.79 0.93,2.31 1.18,-0.45 0.76,-0.8 1.54,-1.69 0.63,-0.71 1.15,-0.62 1.88,-1.59 1.74,-2.33 1.68,-3.35 2.58,-4.34 1.82,-2.01 2.63,-0.48 3.43,-3.29 0.39,-1.39 0.24,-1.38 1.48,-1.97l1.11 -0.52c2.02,-1.12 0.13,-1.98 0.38,-3.34 0.18,-1.03 0.81,-1.26 1.26,-2.18 0.88,-1.83 -0.68,-3.91 -2.11,-4.12 -1.53,0.31 -4.01,8.54 -5.78,7.13 -0.43,-0.5 -0.36,-0.29 -0.39,-1.18 -0.07,-1.73 0.14,-3 0.67,-4.58 0.37,-1.11 0.81,-1.5 1.15,-2.32 0.57,-1.35 -0.22,-0.84 1.22,-3.86 0.26,-0.56 0.24,-0.56 0.51,-1.33l1.86 -5.07c0.53,-1.5 -0.01,-4.53 2.78,-4.28 3.09,0.28 2.03,-0.39 4.61,-1.96l1.24 -0.62c2.71,-1.48 6.07,-2.38 5.73,-6.45 -0.12,-1.38 -0.67,-1.68 -1.31,-2.32 -1.79,0.27 -1.97,1.48 -3.11,1.76 -1.84,0.46 -2.21,-0.37 -4.28,0.58 -2.48,1.15 -2.49,2.83 -4.88,2.02 -0.85,-0.28 -1.19,-0.3 -2.22,-0.11zm-65.25 46.32c-0.39,-1.38 0.16,-5.4 3.65,-2.75 2.08,1.57 3.31,1.63 2.06,5.25 -0.5,1.46 -1.16,6.47 -3.12,3.2 -0.71,-1.19 -2.21,-4.39 -2.59,-5.7zm-3.72 -2.54c-2.6,0.11 -2.02,0.74 -2.21,3.12 -0.3,3.97 0.31,6.06 0.72,9.93 0.15,1.46 0.22,3.48 1.49,4.02 0.55,-0.26 0.49,-0.3 0.87,-0.7 -0.11,-1.25 -1.85,-4.86 -1.29,-8.01l2.27 -0.97c1.05,0.91 1.15,1.21 1.87,2.51 1.75,3.14 3.04,4.29 0.66,7.88l-0.84 1.39c0.41,0.83 2.71,2.61 4.23,2.45 0.28,-2.68 0.19,-1.89 1.12,-3.95l2.43 -8.21c1.17,-3.8 0.34,-4.98 3.2,-4.36 1.18,0.25 4.07,1.99 4.76,2.88l4.86 9.93c0.51,1.64 0.35,2.82 0.35,4.72 0,5.86 1.47,6.05 0.43,8.74 -1.6,0.11 -1.61,-0.11 -2.69,-0.73 -1.58,-0.91 -1.14,0.18 -1.66,1.2l-2.33 -0.43c-0.86,1.15 -0.36,0.21 -0.77,1.76 -0.99,3.79 -4.55,3.08 -1.71,10.2 0.52,1.3 0.89,2.62 2.27,3.29 -0.09,-3.53 -1.71,-5.06 0.97,-7.35 0.97,-0.84 0.97,-1.72 2.72,-1.92 1.77,-0.2 2.36,-0.58 3.7,-0.87 2.84,2.45 0.91,5.19 2.54,8.06 0.45,0.81 0.84,1.69 1.62,2.09 2.44,-0.99 -0.44,-3.42 -0.81,-9.25 -0.14,-2.25 0.34,-2.88 -0.01,-5.37 -0.23,-1.68 -0.4,-3.8 -0.51,-5.49 -0.09,-1.49 -0.27,-3.78 -0.93,-4.91 -1.9,-3.21 -0.61,-1.63 -0.76,-4.79 -0.07,-1.67 -1.46,-2.8 -2.09,-3.91 -0.75,-1.31 -1.62,-3.92 -2.13,-5.26 -0.54,-1.4 -0.51,-2.23 -1.13,-3.26 -1,-1.66 -1.27,-2.36 -1.74,-4.26 -0.54,-2.24 -1.7,-1.65 -3.26,-2.75 -0.77,-0.55 -0.95,-0.77 -1.75,-1.26 -0.85,-0.5 -1.21,-0.76 -1.81,-1.19 -1.39,-0.99 -6.12,-3.72 -8.56,-2.89 -1.23,0.42 -3.97,7.18 -4.09,7.92zm292.76 199.54c-0.86,-0.99 -1.07,-2.05 -2.99,-1.82 -1.63,0.19 -1.9,1.26 -2.16,2.9 -0.52,3.2 -0.92,5.98 0,8.91 2.62,0.79 1.46,0.42 3.49,1.4 0.45,5.08 1.15,2.68 3.61,4.7 1.03,0.85 4.41,1.3 6.13,2.12 -0.05,2.15 -0.65,2.99 0.14,4.95 2.89,0.64 5.17,-1.42 6.2,-2.96 1.26,-1.88 0.34,-2.13 0.11,-3.79 -0.28,-2.06 0.82,-2.35 -0.1,-4.25 -1.16,-0.79 -1.83,-0.08 -2.84,-1.55 -2.03,-2.93 2.92,-10.19 -1.65,-10.12l-0.91 0.01c-0.62,0.93 -1.65,2.42 -2.14,3.4 -0.45,0.89 -1.56,3.59 -2.77,2.14 -0.76,-1.01 0.84,-1.33 1.04,-3.93 0.09,-1.21 0.21,-3.94 0.12,-5.09 -0.16,-2.09 -2.56,-1.21 -3.25,-0.29l-1.85 3c-0.02,0.03 -0.07,0.11 -0.09,0.13 -0.02,0.03 -0.06,0.1 -0.09,0.14zm-158.3 -300.94c-0.05,0.83 -0.17,0.97 -0.67,1.57 -1.02,-0.32 -1.7,-1.57 -4.62,-1.8 -2.7,-0.22 -4.33,-2.05 -4.62,-2.15 -1.39,-0.05 -1.57,0.38 -2.77,0.33 -1.01,-0.05 -1.72,-0.61 -2.48,0.01 -1.63,1.23 0.42,3.04 2,2.97 1.49,-0.07 1.66,-0.74 4.23,0.65 2.23,1.21 3.4,0.7 5.1,2.04 1.42,1.13 0.69,0.47 2.01,0.99 0.85,0.33 1.37,0.87 2.02,1.2 1.22,0.64 3.15,1.01 4.32,1.7 2.32,1.36 2.32,0.94 4.07,2.17 1.5,1.05 2.38,1.33 4.03,2.2 1.15,0.6 2.42,2.43 3.34,2.84l1.03 -1.46c2.12,-0.26 3.17,0.37 4.53,1.74 1.48,1.47 2.03,2.21 3.61,3.09l3.75 2.95c0.01,0 2.57,3.89 3.74,2.48 0.73,-1.41 -1.13,-3.87 -1.77,-4.68 -0.8,-1 -0.63,-1.35 -1.94,-1.49 -1.43,-0.15 -1.45,-0.04 -2.49,-0.91 -0.06,-1.77 0.45,-2.41 -0.63,-3.39l-2.68 -1.94c-4.69,-4.37 -0.62,-1.02 -5.31,-3.94 -0.79,-0.5 -2.01,-1.09 -2.84,-1.56 -1.56,-0.87 -1.37,-1.37 -2.4,-2.21 -0.98,-0.78 -1.97,-1.19 -2.66,-1.97 -1.91,-2.15 -6.26,-3.53 -8.26,-5.36 -0.93,-0.85 -2.29,-0.96 -3.38,-1.23 -1.46,-0.36 -0.8,0.07 -1.75,-0.57 -1.43,-0.97 -1.33,-1.11 -3.68,-0.99 -0.87,0.04 -1.43,0.01 -1.09,1.05 0.25,0.76 2.03,1.68 2.67,2.03l5.59 3.64zm-92.92 125.19c-0.01,2.34 -0.57,3 1.44,3 1.2,0 0.67,-1.15 1.15,-2.07 1.32,-0.19 1.08,0.2 1.62,1.39 1.29,-0.06 2.27,-0.35 2.5,-1.67 0.5,-2.83 0.29,-0.98 1.49,-2.91 1.25,-2 0.96,-0.38 1.68,-2.47 0.45,-1.31 0.82,-1.93 1.45,-2.87l1.67 0.41c0.24,5.26 -0.24,3.82 -0.85,6.12 -0.43,1.62 -0.46,4.86 -0.54,6.62 -0.12,2.39 -1.97,3.21 0.14,5.16 0.75,0.69 3.34,2.54 4.63,2.37 1.18,-1.85 0.36,-5.22 1.47,-7.29 1.01,-1.89 1.38,-1.33 0.25,-3.94 0.72,-0.42 1.27,-0.14 2.29,-0.93 0.01,-1.32 0.12,-1.02 -0.36,-1.96 -2.13,-4.17 2.35,-6.01 3.54,-8.03 0.88,-1.5 -0.16,-2.73 -1.34,-3.18 -1.68,0.35 -1.74,1.68 -2.64,2.91 -0.65,0.88 -2.2,2.57 -3.23,2.66 -1.24,-2.3 0.08,-3.75 -1.33,-5.99 -1.73,-2.75 -2.89,-0.22 -4.66,-0.01l-0.78 -2.31c-2.58,-0.03 -2.76,0.32 -4.14,3.06 -1.17,2.34 -4.14,7.42 -4.48,9.64 -0.3,1.93 0.42,1.26 -0.97,2.29zm108.2 123.11c-2.27,0.02 -1.53,-0.23 -3.59,1.27 -1.22,0.9 -2.82,3.1 -4.75,4.96 -0.97,0.94 -1.39,1.83 -1.39,3.48 0,1.86 0.87,1.65 1.59,3.26 0.55,1.24 0.6,2.51 1.03,3.86l1.83 5.31c0.1,0.31 0.14,0.51 0.26,0.89 1.44,4.77 9.1,1.69 11.74,4.2 0.61,0.57 1.6,2.21 1.98,2.87 0.61,1.08 1.4,2.02 1.85,3.01 0.64,1.41 0.97,1.97 2.84,1.99 1.5,0.01 3.3,0.16 4.65,-0.21 1.06,-0.29 2.66,-0.71 3.66,-1.18 0.04,-1.46 -0.04,-1.28 -0.89,-2.09 -0.47,-0.44 -0.87,-0.95 -1.57,-1.44 -5.02,-3.52 -4.67,-4.34 -6.64,-5.83 -2.51,-1.89 -3.79,-0.05 -4.75,0 -0.87,0.05 -1.67,-0.34 -2.77,-0.29 -1.18,0.04 -1.65,0.47 -2.92,0.12l-4.41 -1.84c-0.85,-0.77 -3.57,-7.07 -3.51,-8.92 3.38,-2.02 3.92,-5.04 5.84,-8.48 2.19,-3.92 3.24,-3.04 3.13,-8.16 -1.91,-0.05 -3.06,-0.43 -3.21,3.22zm-78.31 -209.96c-0.05,1.13 -0.16,2.7 -0.17,3.74 -0.01,1.77 1.16,0.7 1.29,2.5 -0.15,0.91 -3.21,1.28 -4.11,2.81 -0.52,0.89 -1.36,4.13 -1.3,5.38 0.85,0.33 1.33,0.12 2.15,0.4 0.51,0.17 3.82,2.3 5.5,-0.8 0.57,-1.05 0.13,-0.96 1.18,-1.38 4.13,-1.67 0.07,-3.12 3.52,-4.62 1.01,0.57 0.84,0.92 2.32,0.91 1.51,-0.02 1.38,-0.46 1.38,-1.77 3.34,-0.23 3.54,-1.22 4.42,-1.54 0.08,-2.68 0.28,-5.41 -2.35,-5.44 -0.92,-0.01 -0.82,-0.04 -1.32,0.34 -1.35,1.03 0.12,0.95 -2.1,1.13 -0.25,0.99 -0.35,0.59 -0.52,1.8 -0.15,1.02 -0.05,1.15 -0.68,1.83 -0.95,0.04 -1.09,-0.09 -1.72,-0.34 -0.52,-2.35 1.15,-4.62 2.87,-5.42 0.34,-0.15 0.65,-0.25 0.98,-0.42 2.72,-1.39 1.85,-0.26 2.98,-1.4 1.82,-1.85 1.25,-1.5 3.78,-2.22 0.77,-0.22 1.42,-0.66 1.95,-0.98 -0.03,-1.5 0.09,-2.09 -1.57,-2.21 -1.16,-0.09 -2.45,0 -3.42,0.38 -1.05,0.41 -1.61,0.67 -2.51,1.18 -0.86,0.48 -1.65,0.64 -2.6,1.11 -2.04,1 -1.41,1.32 -3.98,1.54 -2.37,0.21 -1.55,1.27 -4.69,2.72 -0.86,0.4 -0.64,0.3 -1.28,0.77zm-72.44 197.62c-0.75,1.83 -0.38,18.44 -0.38,21.12 0,1.04 0.14,6.38 0.31,7.09 0.19,0.77 0.91,1.44 1.06,2.62l0.03 6.93c-0.09,1.26 -0.59,1.41 -0.8,2.42 -0.14,0.61 0.08,1.84 0.06,2.65 -0.05,2.88 -1.18,2.83 0.48,8.11 0.77,2.43 1.18,1.96 1.19,5.05 0.01,2.3 0.24,5.86 2.04,6.63 1.94,-2.13 -0.71,-4.25 -0.65,-5.91 0.05,-1.4 0.58,-1.56 0.24,-3.52l-0.72 -7.35c-0.19,-3.8 -0.51,-2.33 -0.44,-7.87 0.02,-1.64 0.44,-2.25 0.44,-5.53 0,-1.72 -0.88,-6.09 -0.24,-7.64l0.24 -0.45c0.77,-1.5 0.51,-2.2 0.33,-4.05l0.04 -14.05c0.21,-2.76 0.98,-3.79 2.65,-4.77 0.07,-1.42 0.34,-1.74 -0.93,-1.79 -2.71,-0.12 -0.62,0.1 -2.09,-0.79 -0.45,0.11 -2.35,0.89 -2.86,1.1zm34.76 -118.41c1.15,0.76 1.95,0.73 2.52,1.87 0.82,1.67 0.08,7.77 1.03,9.81 0.98,2.09 1.08,1.27 1.07,4.28 -0.02,3.35 -1.67,5.24 -1.18,9 0.16,1.18 0.8,2.57 1.05,4.03 0.3,1.73 0.24,3.27 1.5,3.83 0.84,-0.48 0.92,-1.15 0.93,-2.08 0,-1.77 -0.48,-4.36 -0.48,-7.63 -0.01,-1.97 1.4,-2.03 1.39,-3.92 -0.01,-0.87 -0.4,-1.23 -0.41,-2.08 -0.01,-0.41 0.42,-1.48 0.42,-4.16 0,-0.95 -0.07,-0.77 -0.58,-1.27 -1.64,-1.64 -0.75,-3.78 -1.56,-6.29 -0.04,-0.13 -0.45,-1.45 -0.49,-1.6 -0.28,-1.14 0.42,-1.96 0.94,-2.69 0.6,-0.82 1.42,-1.25 1.75,-2.19 0.39,-1.1 -0.01,-2.28 -0.32,-3.25 -0.52,-1.63 0.17,-2.37 -0.45,-4.4 -0.11,-0.37 -0.12,-0.44 -0.24,-0.91 -0.15,-0.58 -0.28,-0.91 -0.67,-1.43 -2.85,-0.24 -2.65,1.8 -4.16,4.39 -0.35,0.6 -0.44,0.65 -0.73,1.35 -0.26,0.65 -0.43,0.92 -0.74,1.57 -0.56,1.16 -0.62,2.24 -0.59,3.77zm103.72 110.65c-1.89,-1.26 -7.8,-2.02 -10.61,-2.05 -2.57,-0.03 -6.44,0.08 -7.99,-1.75 -0.64,-0.75 -1.32,-1.01 -1.67,-1.56 -0.65,-1 -0.23,-1.06 -1.19,-2.05 -1.07,-1.1 -1.04,-0.29 -1.9,-1.34 -1.01,-1.23 -2.13,-3.52 -2.5,-3.95 -0.51,-0.6 -1.23,-0.95 -1.74,-1.49 -0.48,-0.51 -0.74,-1.28 -1.33,-1.91 -0.47,-0.5 -1.07,-0.79 -1.77,-1.47 -0.44,-0.43 -1.11,-1.08 -1.63,-1.56 -0.96,-0.39 -2.02,1.68 -4.38,-1.88 -3.64,0 -2.27,-0.18 -3.82,-1.27 -3.97,-2.77 -5.28,1.11 -3.7,3.22 2.01,2.69 3.03,0.76 6.6,3.8 1.21,1.03 2.05,1.2 4.14,1.24 6.73,0.11 5.14,2.63 10.2,7.75 0.49,0.49 0.82,0.67 1.31,1.24 1.75,2.08 1.12,2.54 1.87,3.21l3.26 2.06c0.74,0.28 1.03,0.16 1.93,-0.16 2.49,-0.87 8.69,0.33 11.35,0.95 3.1,0.71 3.65,0.66 3.57,-1.03zm-134.33 -17.22c1.2,0.12 2.74,-0.52 2.48,1.36 -1.01,0.38 -1.23,-0.05 -2.17,-0.06 -1.27,-0.01 -0.93,0.46 -1.88,0.62 -0.91,0.15 -1.42,-0.43 -3.81,0.82l-4.88 2.75c-2.82,1.84 0.13,1.02 -4.11,3.51 -1.19,0.7 -2,1.4 -3.07,2.01 -5.81,3.3 -4.88,7.94 -1.96,6.15 3.06,-1.87 1.52,0.18 7.02,-3.4 5.75,-3.75 4.7,-5.03 6.17,-6.07 1.42,-1 2.68,-1.15 3.38,-1.94 1.1,-1.23 0.43,-0.94 2.22,-1.25 1.15,-0.2 1.31,-0.84 2.11,-1.35 1.59,-1.04 1.19,-0.28 1.5,-2.27 0.15,-1.05 1.14,-1.08 2.02,-1.37 1.27,-0.42 3.54,-1.7 4.2,-2.73 0.58,-0.9 1.28,-1.31 1.51,-2.25 -2.11,-0.58 -3.14,0.9 -4.32,1.52 -0.58,0.3 -0.89,0.29 -1.44,0.65 -2.74,1.78 0.21,0.65 -4.07,2.16 -0.83,0.29 -0.96,0.18 -0.9,1.14zm126.24 -219.89c3.3,1.72 2.07,0.91 5.7,2.08 3,0.97 9.26,2.56 11.74,3.96 2.59,1.46 3.65,2.25 6.46,3.46l15.3 10.35c0.76,0.69 1.53,1.49 2.71,1.11 1.29,-3.24 -2.38,-3.89 -3,-4.27 -1.77,-1.07 -2.36,-3.48 -3.54,-4.29 -0.68,-0.46 -1.7,-0.88 -2.44,-1.28 -1.14,-0.62 -0.82,-0.94 -2.39,-1.55 -1.62,-0.62 -1.55,-0.22 -2.58,-1.35 -0.7,-0.77 -1.01,-1.53 -1.95,-1.97 -1.28,-0.59 -1.71,-0.04 -2.94,-0.27 -1.19,-0.23 -1.37,-0.97 -2.53,-1.41 -1.09,-0.42 -1.73,-0.69 -2.75,-1.19 -0.92,-0.45 -1.7,-0.97 -2.59,-1.34 -1.66,-0.69 -4.92,-0.24 -6.69,-1.17 -2.2,-1.16 -4.87,-3.13 -7.29,-2.08l-0.31 0.15c-0.92,0.5 -0.74,0.56 -0.91,1.06zm-95.74 198.91c0.29,-1.78 -0.26,-1.26 -1.19,-3.47 -0.49,-1.16 -0.97,-2.49 -1.18,-3.94 -0.21,-1.4 -0.42,-2.91 -0.67,-4.39 -0.28,-1.7 -0.7,-2.44 -1.05,-4.03 -0.19,-0.89 -0.25,-0.86 -0.44,-1.86 -0.22,-1.2 -0.27,-0.88 -0.8,-1.73 -0.99,-1.56 -0.23,-2.58 -0.7,-4.4 -0.33,-1.31 -0.93,-2.53 -1.31,-3.76 -0.52,-1.66 0.44,-2.7 0.03,-4.63l-1.14 -0.03 -1.19 4.36c-1.05,2.95 -1.17,6.73 -0.48,9.78 0.73,3.15 0.26,5.05 1.99,9.33 3.09,7.67 5.79,4.61 6.4,7.72 0.24,1.26 0.16,1.25 1.73,1.05zm190.18 -145.52c-3.43,0.65 -2.24,0.84 -4.63,0.11 -1.56,2 -5.02,1.25 -5.24,2.76 0.2,0.99 1.37,1.71 2.33,1.82 0.65,0.08 1.43,-0.02 2.08,0.03 1.16,0.09 0.71,0.22 1.66,0.42 4.35,0.88 2.76,0.57 6.13,2.18 2.64,1.26 5.34,3.06 7.25,5.23 0.53,0.61 1.53,1.73 2.61,1.49 0.39,-2.1 -0.6,-3.64 -1.46,-4.95 -0.23,-0.36 -0.43,-0.58 -0.6,-1.02 -1.29,-3.29 -2.52,-3.89 -3.16,-5.16 -0.62,-1.24 -0.2,-1.31 -1.47,-1.99 -0.5,-0.28 -3.39,-0.82 -4.72,-1.88 -0.68,0.46 -0.35,0.29 -0.78,0.96zm-188.22 131.99c-0.2,2.04 -1.61,2.82 -1.24,5.9 0.25,2.11 0.29,4.94 0.99,6.57 0.79,0.29 2.29,-0.16 3.28,-0.36 -0.26,-1.54 -0.26,-1.36 -0.99,-2.37 -0.61,-0.84 -0.7,-1.28 -0.67,-2.59 3.44,-2.24 1.26,-0.06 0.74,-8.13 -0.07,-1.05 0.33,-2.2 0.51,-3.33 0.2,-1.34 0,-2.7 0.17,-3.99 0.19,-1.41 0.42,-1.58 0.43,-3.48 0.01,-4.98 1.94,-8.12 0.23,-10.62 -0.57,0.08 -1.81,0.94 -1.99,1.45 -0.23,0.64 -0.04,2.48 -0.15,3.35 -0.23,1.68 -0.85,4.39 -0.87,6.04 -0.05,4.68 -0.67,3.31 -0.89,6.02 -0.05,0.54 0.01,1.09 -0.04,1.61 -0.11,1.2 -0.23,0.57 -0.4,1.45 -0.33,1.66 0.35,1.4 0.89,2.48zm137.46 233.55c-2.11,-0.11 -2.76,1.15 -3.03,3.18l-2.58 8.49c-2.08,6.31 0.1,8.85 3.13,4.28 1.97,-2.98 0.31,-2.26 1.12,-5.11 0.52,-1.8 1.64,-9.02 1.36,-10.84zm19.2 13.21c1.07,-0.04 2.83,-0.75 3.82,-1.1 1.61,-0.56 4.32,-0.67 6.54,-1.07 1.07,-0.19 0.38,-0.1 0.89,-0.27 1.64,-0.55 4.31,-0.83 5.23,-1.33 -0.7,-1.27 -1.84,-1.12 -3.4,-1.77 -0.29,-0.12 -1.04,-0.51 -1.25,-0.6 -1.33,-0.6 -1.51,-0.23 -2.83,-0.27 -1.2,-0.04 -1.74,-0.74 -2.31,-1.23 -0.47,0.66 0.01,0.79 -1.86,1.55 -2.15,0.86 -2.91,0.35 -4.46,3.16 -0.57,1.05 -0.4,1.34 -0.37,2.93zm-174.15 -240.24c-0.06,0.86 -0.04,1.65 -0.06,2.5 -0.04,2.96 -1.85,1.43 1.93,4.95 0.91,0.85 1.73,1.51 3.59,1.59 4.12,0.18 1.62,1.02 4.16,0.89 1.45,-0.07 3.03,-0.84 3.18,-2.19 -0.12,-0.53 -1.03,-0.6 -2.25,-2.48 -2.23,0 -2.32,-0.08 -4.29,-0.6 -2.1,-0.55 -1.44,1.27 -3.89,-2.08 -1.1,-1.5 -0.44,-1.32 -0.91,-3.04 -0.67,-0.04 -1.05,0.17 -1.46,0.46zm40.76 -72.52c1.3,0.37 1.31,-0.17 1.93,-0.97 0.65,-0.85 1.13,-0.77 2.24,-0.98 2.9,-0.54 2.16,-1.62 3.63,-3.08 2.56,-2.53 7.14,-4.27 4.52,-7.53 -0.45,-0.56 -1.41,-0.93 -2.27,-0.38 -0.43,0.28 -1.24,1.77 -1.6,2.33 -1.52,2.35 -5.7,6.18 -7.84,8.09 -0.78,0.7 -0.92,1.42 -0.61,2.52zm0.98 142.29l-1.53 1.41c-1.17,1.3 -0.92,8.25 4.3,8.44 4.19,0.16 1.09,-2.3 -0.23,-5.99 -0.46,-1.26 -1.31,-3.32 -2.54,-3.86zm11.55 0.17c-1.06,0.21 -1.7,2.93 -2.85,0.52 -0.78,-1.62 -0.78,-2.97 -2.16,-3.21 -0.31,1.14 -0.01,1.96 0.43,2.87 0.48,0.97 0.77,1.75 1.1,2.58l1.03 2.45c0.35,0.79 1.01,1.61 1.98,1.72 3.13,0.34 4.63,0.22 3.28,-2.59 -0.37,-0.77 -0.74,-1.52 -1.14,-2.33 -0.19,-0.4 -0.4,-0.86 -0.62,-1.22 -0.36,-0.59 -0.3,-0.64 -1.05,-0.79zm56.12 -45.76c1.15,-0.49 0.32,-1.99 2.28,-1.76 0.49,0.98 0.07,2.12 0.4,3.28 1.68,0.19 2.59,-1.05 3.3,-2.26 3.47,-5.97 -5.44,-3.67 -5.49,-3.64 -0.34,0.26 -0.72,1.37 -0.84,1.94 -0.26,1.22 -0.11,1.72 0.35,2.44zm12.72 19.4c0.01,1.34 0.21,2.02 1.4,2.49 1.68,-0.55 1.42,-1.31 2.2,-2.82 2.53,-0.42 3.25,-0.04 5.53,-3.48 0.51,-0.77 0.87,-0.9 0.78,-2.13 -2.26,-1.39 -2.83,1.33 -4.75,2.55 -0.4,0.26 -0.81,0.46 -1.28,0.8 -2.15,1.49 -2.08,1.11 -3.88,2.59zm-21.7 50.84c0.65,0.11 1.7,0.51 2.53,0.69 -0.03,-3.17 -1.5,-1.89 -3.29,-3.17 -0.7,-0.5 -0.99,-1.13 -2.13,-0.91 -0.88,0.18 -1.66,0.6 -2.02,1.24l-0.71 2.57c-0.42,1.41 -0.22,1.65 1.21,1.7 4.01,0.15 2.69,-1.56 4.41,-2.12zm6.52 -133.18c0.19,-0.51 0.27,-1.12 0.08,-1.85 0,0 -0.53,-1.45 -0.65,-1.67 -1.05,-1.83 -2.97,-1.56 -5.47,-3.3 -1.18,-0.83 -1.98,-1.86 -2.72,-1.07 -0.65,0.68 2.8,4.35 3.31,4.87 0.58,0.6 0.44,0.53 1.19,0.89 1.28,0.63 2.23,0.85 2.97,1.42 0.44,0.33 0.74,0.69 1.29,0.71zm-10.91 192.09c2.13,-0.68 -1,-1.49 3.2,-1.67 0.11,-2.09 -0.72,-5.07 -2.52,-5.96 -0.67,-0.33 -1.4,-0.85 -1.98,-0.84 -0.16,1 -0.19,3.69 0.03,4.65 0.35,1.57 0.2,3.19 1.27,3.82zm-16.26 -60.85c0.11,-2.83 -0.02,-1.81 1.44,-2.26l0.08 -5.51 -2.82 0c-0.86,2.3 -1.53,3.81 -0.42,7.6 0.36,1.22 1.01,0.62 1.72,0.17zm127.48 -43.94c0.16,-0.88 -0.28,-1.26 -1.25,-1.64l0.07 1.79 1.18 -0.15z"/>
 </g>
</svg>
