<?xml version="1.0" encoding="UTF-8"?>
<!DOCTYPE svg PUBLIC "-//W3C//DTD SVG 1.1//EN" "http://www.w3.org/Graphics/SVG/1.1/DTD/svg11.dtd">
<!-- Creator: CorelDRAW 2020 (64 Bit) -->
<svg xmlns="http://www.w3.org/2000/svg" xml:space="preserve" width="512px" height="512px" version="1.1" style="shape-rendering:geometricPrecision; text-rendering:geometricPrecision; image-rendering:optimizeQuality; fill-rule:evenodd; clip-rule:evenodd"
viewBox="0 0 512 512"
 xmlns:xlink="http://www.w3.org/1999/xlink"
 xmlns:xodm="http://www.corel.com/coreldraw/odm/2003">
 <defs>
  <style type="text/css">
   <![CDATA[
    .fil0 {fill:black}
   ]]>
  </style>
 </defs>
 <g id="Camada_x0020_1">
  <metadata id="CorelCorpID_0Corel-Layer"/>
  <path class="fil0" d="M484.09 372.36c-1.33,-5.87 -3.29,-11.34 -5.8,-15.36 -3.43,-5.48 -9.48,-11.38 -14.22,-15.72 -3.23,-2.96 -9.62,-9 -12.69,-12.54 -0.49,-0.55 -0.66,-0.64 -1.25,-1.1 -0.96,-0.75 -0.51,-0.57 -1.29,-1.39 -0.9,-0.96 -4.45,-3.19 -5.94,-4.17 -6.96,-4.59 -10.89,-7.59 -18.5,-11.43 -4.25,-2.15 -8.36,-5.35 -12.25,-7.93l-11.14 -8.71c-7.26,-7.29 -6.59,-5.84 -13.29,-11.62 -0.47,-0.41 -0.71,-0.75 -1.19,-1.15 -8.58,-7.2 -8.53,-8.6 -14.95,-18.01 -2.28,-3.35 -1.44,-3.13 -5.92,-4.19 -3.6,-0.84 -5.5,0.07 -8.64,-1.42 -4.06,-1.92 -2.62,-2.38 -4.22,-5.93 -1.15,-2.55 -1.07,-5.03 -2.12,-7.93 -0.89,-2.44 -2.28,-3.98 -3.09,-6.7 -2.41,-8.11 0.84,-17.67 3.07,-25.73 0.85,-3.08 1.6,-4.77 1.83,-8.17 0.4,-6 2.74,-11.33 2.66,-17.48 -0.07,-5.58 -0.05,-4.16 0.88,-9.22 0.7,-3.8 2.19,-3.74 5.98,-4.01 8.48,-0.6 14.33,-5.12 21.56,-8.6 1.45,-0.69 3.76,-3.7 3.59,-6.4 -0.13,-2.12 -3.15,-4.95 -4.19,-5.85 -6.55,-5.68 -22.7,-5.07 -25.68,-14.36 -0.87,-2.72 -0.44,-13.94 -1.21,-18.97 -1.59,-10.51 -5.33,-24.75 -6.35,-33.51 -0.91,-7.88 -6.2,-25.86 -10.25,-29.94 -4.34,-4.37 -5.6,-5.71 -11.53,-8.65 -10.97,-5.43 -43.38,-2.56 -55.75,-2.3 -12.46,0.25 -26.3,-0.63 -38.7,-1.53 -5.72,-0.42 -12.79,-1.37 -18.35,0.17 -1.82,0.5 -4.72,2.8 -6.23,3.88 -2.12,1.53 -3.89,2.5 -4.98,5.09 -4.37,10.36 -1.27,8.87 -8.41,21.87 -1.2,2.19 -2.48,4.21 -3.42,6.67 -3.64,9.54 -6.4,21.29 -7.84,32.15 -1.79,13.56 -1.29,23.24 -12.84,27.27 -3.98,1.39 -12.27,2.2 -16.96,2.75 -7.94,0.93 -10.42,0.64 -14.01,6.27 -1.7,2.68 -2.96,3.32 -1.29,7.11 1.57,3.56 4.55,5.74 7.19,7.95 0.97,0.82 1.59,1.66 2.6,2.44 1,0.77 1.75,1.45 2.87,2.17 5.22,3.4 10.77,5.78 16.95,7.93 4.66,1.62 13.84,-0.79 15.57,4.65 1.9,5.92 -3.01,11.11 -5.37,14.01 -2.88,3.53 -5.69,7.87 -8.16,12.02 -0.6,1 -1.08,1.87 -1.8,2.9 -0.73,1.03 -1.58,1.81 -2.33,2.73 -2.26,2.74 -2.27,3.77 -0.98,7.51 1.49,4.34 2.54,6.55 6.36,8.73 6.52,3.72 7.08,0.34 9.54,5.6 0.69,1.46 0.69,2.87 0.41,4.49 -0.68,3.8 -2,3.94 -0.4,7.98 0.65,1.66 1.58,1.36 1.66,3.58 0.11,3.06 0.8,5.72 2.63,7.22 0.18,6.1 -0.68,4.63 1.81,9.99 3.54,7.61 4.53,8.21 6.6,16.89 0.4,1.68 0.82,3.21 1.47,4.64 1.83,4.07 5.34,6.28 8.76,9.06 3.91,3.17 14.83,3.63 20.22,3.4 13.24,-0.55 12.45,-4.81 12.77,8 0.07,2.75 0.54,8.31 0.23,10.73 -0.59,4.69 -10.97,25.79 -13.86,30.12 -2.22,3.33 -2,3.21 -5.9,5.21 -11.85,6.08 -10.05,5.43 -15.87,17.09 -1.09,2.19 -3.32,14.48 -4.1,18.07 -2.54,11.8 -4.98,24.23 -8.74,35.36 -0.88,2.6 -2.35,5.49 -2.88,7.86 -1.6,7.25 -6.61,17.29 -9.51,23.8 -2.21,4.96 -4.35,10.28 -6.84,15.03 -2.72,5.16 -3.82,11.14 -6.83,15.36 -1.13,1.58 -2.22,3.5 -3.37,5.23 29.68,12.04 62.13,18.68 96.13,18.68 99.49,0 185.71,-56.75 228.09,-139.64z"/>
 </g>
</svg>
