<?xml version="1.0" encoding="UTF-8"?>
<!DOCTYPE svg PUBLIC "-//W3C//DTD SVG 1.1//EN" "http://www.w3.org/Graphics/SVG/1.1/DTD/svg11.dtd">
<!-- Creator: CorelDRAW 2020 (64 Bit) -->
<svg xmlns="http://www.w3.org/2000/svg" xml:space="preserve" width="512px" height="512px" version="1.1" style="shape-rendering:geometricPrecision; text-rendering:geometricPrecision; image-rendering:optimizeQuality; fill-rule:evenodd; clip-rule:evenodd"
viewBox="0 0 512 512"
 xmlns:xlink="http://www.w3.org/1999/xlink"
 xmlns:xodm="http://www.corel.com/coreldraw/odm/2003">
 <defs>
  <style type="text/css">
   <![CDATA[
    .fil1 {fill:white}
    .fil0 {fill:#306DCF;fill-rule:nonzero}
   ]]>
  </style>
 </defs>
 <g id="Camada_x0020_1">
  <metadata id="CorelCorpID_0Corel-Layer"/>
  <path id="pin-4.svg" class="fil0" d="M341.34 85.33c0,-47.13 -38.22,-85.33 -85.34,-85.33 -47.12,0 -85.34,38.21 -85.34,85.34 0,40.55 28.55,75.51 68.27,83.62l0 302.06c0,4.53 0.91,9.03 2.66,13.21l10.74 25.6c0.73,1.33 2.14,2.17 3.67,2.17 1.53,0 2.94,-0.84 3.67,-2.18l10.74 -25.6c1.75,-4.17 2.66,-8.67 2.66,-13.2l0 -302.07c39.7,-8.15 68.23,-43.09 68.27,-83.62l0 0zm-110.68 -52.12c0.32,2.99 1.15,4.93 3.19,7.09 5.39,5.69 9.89,-0.06 9.24,11.44 -0.19,3.35 -0.03,6.72 -0.04,10.09l0.03 61.76c0.06,7.38 -0.78,10.61 2.96,17.47 2.8,5.13 9.99,5.8 15.04,3.88 5.15,-1.96 7.13,-7.83 7.48,-12.87 0.43,-6.44 0.07,-14.06 0.07,-20.62l0 -61.49c0,-13.44 3.28,-28.38 -10.86,-30.25 -3.61,-0.49 -16.46,-0.64 -19.54,0.74 -5.48,2.47 -8.22,6.73 -7.57,12.76z"/>
  <path class="fil1" d="M230.66 33.21c0.32,2.99 1.15,4.93 3.19,7.09 5.39,5.69 9.89,-0.06 9.24,11.44 -0.19,3.35 -0.03,6.72 -0.04,10.09l0.03 61.76c0.06,7.38 -0.78,10.61 2.96,17.47 2.8,5.13 9.99,5.8 15.04,3.88 5.15,-1.96 7.13,-7.83 7.48,-12.87 0.43,-6.44 0.07,-14.06 0.07,-20.62l0 -61.49c0,-13.44 3.28,-28.38 -10.86,-30.25 -3.61,-0.49 -16.46,-0.64 -19.54,0.74 -5.48,2.47 -8.22,6.73 -7.57,12.76z"/>
 </g>
</svg>
