<?xml version="1.0" encoding="UTF-8"?>
<!DOCTYPE svg PUBLIC "-//W3C//DTD SVG 1.1//EN" "http://www.w3.org/Graphics/SVG/1.1/DTD/svg11.dtd">
<!-- Creator: CorelDRAW 2020 (64 Bit) -->
<svg xmlns="http://www.w3.org/2000/svg" xml:space="preserve" width="512px" height="512px" version="1.1" style="shape-rendering:geometricPrecision; text-rendering:geometricPrecision; image-rendering:optimizeQuality; fill-rule:evenodd; clip-rule:evenodd"
viewBox="0 0 512 512"
 xmlns:xlink="http://www.w3.org/1999/xlink"
 xmlns:xodm="http://www.corel.com/coreldraw/odm/2003">
 <defs>
  <style type="text/css">
   <![CDATA[
    .fil0 {fill:#306DCF;fill-rule:nonzero}
   ]]>
  </style>
 </defs>
 <g id="Camada_x0020_1">
  <metadata id="CorelCorpID_0Corel-Layer"/>
  <path id="secondary" class="fil0" d="M256 512c-14.14,0 -25.6,-11.46 -25.6,-25.6l0 -284.83c-44.17,-11.36 -76.8,-51.46 -76.8,-99.17 0,-56.55 45.85,-102.4 102.4,-102.4 56.55,0 102.4,45.85 102.4,102.4 0,47.71 -32.63,87.81 -76.8,99.17l0 284.83c0,14.14 -11.46,25.6 -25.6,25.6l0 0zm-25.99 -459.36c0.32,2.98 1.15,4.92 3.19,7.08 5.38,5.69 9.89,-0.05 9.24,11.44 -0.19,3.35 -0.03,6.73 -0.05,10.09l0.04 61.77c0.06,7.38 -0.79,10.61 2.96,17.47 2.8,5.13 9.99,5.8 15.04,3.87 5.15,-1.96 7.13,-7.82 7.47,-12.87 0.44,-6.44 0.08,-14.05 0.08,-20.62l0 -61.49c0,-13.43 3.28,-28.37 -10.86,-30.25 -3.62,-0.48 -16.46,-0.63 -19.54,0.75 -5.48,2.47 -8.23,6.73 -7.57,12.76zm0.39 148.93l0.01 0.01c0.81,0.2 1.62,0.4 2.43,0.59l0.08 0.02c0.8,0.18 1.6,0.36 2.41,0.52 -0.81,-0.16 -1.61,-0.34 -2.41,-0.52l-2.52 -0.62zm5.03 1.16c0.79,0.16 1.57,0.32 2.36,0.46 -0.79,-0.14 -1.57,-0.3 -2.36,-0.46zm2.47 0.48c0.83,0.14 1.66,0.28 2.5,0.41 -0.84,-0.13 -1.67,-0.27 -2.5,-0.41zm2.51 0.41c0.85,0.13 1.69,0.25 2.54,0.36 -0.85,-0.11 -1.69,-0.23 -2.54,-0.36zm2.55 0.36c1.7,0.21 3.42,0.39 5.15,0.52 -1.73,-0.13 -3.45,-0.31 -5.15,-0.52zm5.24 0.53c1.69,0.12 3.39,0.21 5.1,0.25 -1.71,-0.04 -3.41,-0.13 -5.1,-0.25zm5.21 0.26c0.86,0.02 1.72,0.03 2.59,0.03 0.87,0 1.73,-0.01 2.59,-0.03 -0.86,0.02 -1.72,0.03 -2.59,0.03 -0.87,0 -1.73,-0.01 -2.59,-0.03zm5.29 -0.01c1.71,-0.04 3.41,-0.13 5.1,-0.25 -1.69,0.12 -3.39,0.21 -5.1,0.25zm5.1 -0.25l0.08 -0.01 0.01 0c1.73,-0.13 3.45,-0.31 5.15,-0.52l0.01 0c0.85,-0.11 1.69,-0.23 2.54,-0.36 -0.85,0.13 -1.69,0.25 -2.54,0.36l-5.25 0.53zm7.8 -0.89c0.84,-0.13 1.67,-0.27 2.5,-0.41 -0.83,0.14 -1.66,0.28 -2.5,0.41zm2.61 -0.43c0.79,-0.14 1.57,-0.3 2.36,-0.46 -0.79,0.16 -1.57,0.32 -2.36,0.46zm2.46 -0.48c0.81,-0.16 1.61,-0.34 2.41,-0.52 -0.8,0.18 -1.6,0.36 -2.41,0.52zm2.41 -0.52l0.08 -0.02c0.81,-0.19 1.62,-0.39 2.43,-0.59l0.01 -0.01 -2.52 0.62z"/>
 </g>
</svg>
