<?xml version="1.0" encoding="UTF-8"?>
<!DOCTYPE svg PUBLIC "-//W3C//DTD SVG 1.1//EN" "http://www.w3.org/Graphics/SVG/1.1/DTD/svg11.dtd">
<!-- Creator: CorelDRAW 2020 (64 Bit) -->
<svg xmlns="http://www.w3.org/2000/svg" xml:space="preserve" width="512px" height="512px" version="1.1" style="shape-rendering:geometricPrecision; text-rendering:geometricPrecision; image-rendering:optimizeQuality; fill-rule:evenodd; clip-rule:evenodd"
viewBox="0 0 512 512"
 xmlns:xlink="http://www.w3.org/1999/xlink"
 xmlns:xodm="http://www.corel.com/coreldraw/odm/2003">
 <defs>
  <style type="text/css">
   <![CDATA[
    .fil0 {fill:#306DCF}
   ]]>
  </style>
 </defs>
 <g id="Camada_x0020_1">
  <metadata id="CorelCorpID_0Corel-Layer"/>
  <path class="fil0" d="M264.29 157.87l0 345.7c0,0 0,0.12 0,0.24 0,4.6 -3.83,8.19 -8.43,8.19 -4.59,0 -8.31,-3.83 -8.19,-8.43l0 -345.7c-39.79,-4.16 -70.82,-37.8 -70.82,-78.7 0,-43.7 35.43,-79.13 79.13,-79.13 43.7,0 79.13,35.43 79.13,79.13 0,40.89 -31.02,74.54 -70.82,78.7zm-28.64 -118.35c0.26,2.4 0.93,3.96 2.57,5.7 4.33,4.58 7.96,-0.05 7.43,9.21 -0.15,2.69 -0.02,5.41 -0.03,8.12l0.03 49.72c0.05,5.94 -0.63,8.54 2.38,14.06 2.25,4.13 8.04,4.67 12.11,3.12 4.14,-1.58 5.74,-6.3 6.01,-10.36 0.36,-5.19 0.07,-11.31 0.07,-16.6l0 -49.49c0,-10.82 2.63,-22.84 -8.74,-24.36 -2.92,-0.38 -13.26,-0.51 -15.74,0.61 -4.4,1.98 -6.62,5.41 -6.09,10.27zm20.33 -24.34c35.34,0 63.99,28.65 63.99,63.99 0,35.34 -28.65,63.99 -63.99,63.99 -35.34,0 -63.99,-28.65 -63.99,-63.99 0,-35.34 28.65,-63.99 63.99,-63.99zm0 0c35.34,0 63.99,28.65 63.99,63.99 0,35.34 -28.65,63.99 -63.99,63.99 -35.34,0 -63.99,-28.65 -63.99,-63.99 0,-35.34 28.65,-63.99 63.99,-63.99z"/>
 </g>
</svg>
