<?xml version="1.0" encoding="UTF-8"?>
<!DOCTYPE svg PUBLIC "-//W3C//DTD SVG 1.1//EN" "http://www.w3.org/Graphics/SVG/1.1/DTD/svg11.dtd">
<!-- Creator: CorelDRAW 2020 (64 Bit) -->
<svg xmlns="http://www.w3.org/2000/svg" xml:space="preserve" width="512px" height="512px" version="1.1" style="shape-rendering:geometricPrecision; text-rendering:geometricPrecision; image-rendering:optimizeQuality; fill-rule:evenodd; clip-rule:evenodd"
viewBox="0 0 512 512"
 xmlns:xlink="http://www.w3.org/1999/xlink"
 xmlns:xodm="http://www.corel.com/coreldraw/odm/2003">
 <defs>
  <style type="text/css">
   <![CDATA[
    .fil1 {fill:white}
    .fil0 {fill:#306DCF;fill-rule:nonzero}
   ]]>
  </style>
 </defs>
 <g id="Camada_x0020_1">
  <metadata id="CorelCorpID_0Corel-Layer"/>
  <path id="PIN" class="fil0" d="M443.53 187.51c0,-103.56 -83.98,-187.51 -187.53,-187.51 -103.55,0 -187.53,83.97 -187.53,187.52 0,89.11 62.74,165.94 150.03,183.75l-0.01 50.67c0,9.97 2,19.84 5.85,29.02l23.6 56.26c1.61,2.94 4.7,4.78 8.06,4.78 3.36,0 6.45,-1.84 8.06,-4.78l23.61 -56.26c3.84,-9.18 5.83,-19.05 5.83,-29.02l0 -50.68c87.24,-17.92 149.93,-94.69 150.03,-183.76l0 0.01z"/>
  <path id="NR" class="fil1" d="M200.32 72.98c0.71,6.56 2.52,10.82 7.01,15.57 11.83,12.5 21.74,-0.13 20.3,25.13 -0.42,7.37 -0.06,14.78 -0.09,22.18l0.07 135.72c0.13,16.22 -1.72,23.32 6.5,38.38 6.16,11.28 21.95,12.76 33.06,8.53 11.31,-4.31 15.67,-17.2 16.42,-28.29 0.96,-14.14 0.17,-30.87 0.17,-45.3l0 -135.12c0,-29.52 7.2,-62.35 -23.86,-66.48 -7.95,-1.06 -36.18,-1.4 -42.95,1.65 -12.03,5.41 -18.07,14.78 -16.63,28.03z"/>
 </g>
</svg>
