<?xml version="1.0" encoding="UTF-8"?>
<!DOCTYPE svg PUBLIC "-//W3C//DTD SVG 1.1//EN" "http://www.w3.org/Graphics/SVG/1.1/DTD/svg11.dtd">
<!-- Creator: CorelDRAW 2020 (64 Bit) -->
<svg xmlns="http://www.w3.org/2000/svg" xml:space="preserve" width="512px" height="512px" version="1.1" style="shape-rendering:geometricPrecision; text-rendering:geometricPrecision; image-rendering:optimizeQuality; fill-rule:evenodd; clip-rule:evenodd"
viewBox="0 0 512 512"
 xmlns:xlink="http://www.w3.org/1999/xlink"
 xmlns:xodm="http://www.corel.com/coreldraw/odm/2003">
 <defs>
  <style type="text/css">
   <![CDATA[
    .fil1 {fill:#306DCF}
    .fil2 {fill:white}
    .fil0 {fill:black;fill-rule:nonzero}
   ]]>
  </style>
 </defs>
 <g id="Camada_x0020_1">
  <metadata id="CorelCorpID_0Corel-Layer"/>
  <g id="_2384964571248">
   <path class="fil0" d="M256 512c-2.58,0 -4.3,-1.62 -4.3,-4.05l0 -314.89c0,-2.43 1.72,-4.05 4.3,-4.05 2.58,0 4.3,1.62 4.3,4.05l0 314.89c0,2.43 -1.72,4.05 -4.3,4.05z"/>
   <path class="fil1" d="M256 184.41c48.49,0 87.98,-39.48 87.98,-87.97 0,-48.49 -39.49,-87.98 -87.98,-87.98 -48.49,0 -87.98,39.49 -87.98,87.98 0,48.49 39.49,87.97 87.98,87.97zm68.16 -19.82c-17.47,17.46 -41.58,28.28 -68.16,28.28 -26.58,0 -50.69,-10.82 -68.16,-28.28 -17.46,-17.46 -28.28,-41.57 -28.28,-68.15 0,-26.59 10.82,-50.7 28.28,-68.16 17.47,-17.46 41.58,-28.28 68.16,-28.28 26.58,0 50.69,10.82 68.16,28.28 17.46,17.46 28.28,41.57 28.28,68.16 0,26.58 -10.82,50.69 -28.28,68.15zm-68.16 19.82c48.49,0 87.98,-39.48 87.98,-87.97 0,-48.49 -39.49,-87.98 -87.98,-87.98 -48.49,0 -87.98,39.49 -87.98,87.98 0,48.49 39.49,87.97 87.98,87.97z"/>
   <path class="fil2" d="M229.19 42.77c0.35,3.16 1.22,5.21 3.38,7.49 5.7,6.02 10.46,-0.06 9.77,12.1 -0.2,3.55 -0.02,7.12 -0.04,10.68l0.03 65.33c0.07,7.81 -0.83,11.23 3.13,18.48 2.97,5.43 10.57,6.14 15.92,4.1 5.44,-2.07 7.54,-8.28 7.9,-13.62 0.47,-6.81 0.09,-14.86 0.09,-21.8l0 -65.05c0,-14.21 3.46,-30.01 -11.49,-32 -3.83,-0.51 -17.42,-0.67 -20.68,0.79 -5.79,2.61 -8.7,7.12 -8.01,13.5z"/>
  </g>
 </g>
</svg>
