<?xml version="1.0" encoding="UTF-8"?>
<!DOCTYPE svg PUBLIC "-//W3C//DTD SVG 1.1//EN" "http://www.w3.org/Graphics/SVG/1.1/DTD/svg11.dtd">
<!-- Creator: CorelDRAW 2020 (64 Bit) -->
<svg xmlns="http://www.w3.org/2000/svg" xml:space="preserve" width="512px" height="512px" version="1.1" style="shape-rendering:geometricPrecision; text-rendering:geometricPrecision; image-rendering:optimizeQuality; fill-rule:evenodd; clip-rule:evenodd"
viewBox="0 0 512 512"
 xmlns:xlink="http://www.w3.org/1999/xlink"
 xmlns:xodm="http://www.corel.com/coreldraw/odm/2003">
 <defs>
  <style type="text/css">
   <![CDATA[
    .fil6 {fill:black}
    .fil4 {fill:#223685}
    .fil2 {fill:#2D4ABD}
    .fil3 {fill:#435FCF}
    .fil0 {fill:#E6E6E6}
    .fil1 {fill:white}
    .fil5 {fill:white;fill-rule:nonzero}
   ]]>
  </style>
 </defs>
 <g id="Camada_x0020_1">
  <metadata id="CorelCorpID_0Corel-Layer"/>
  <path id="branco" class="fil0" d="M256 0c141.38,0 256,114.61 256,256 0,141.39 -114.62,256 -256,256 -141.39,0 -256,-114.61 -256,-256 0,-141.39 114.61,-256 256,-256z"/>
  <path id="grey" class="fil1" d="M80.47 404.48l48.46 0.14 0.03 -12.61 -48.84 0.2 0.35 12.27zm6.27 -329.46c0.67,3.77 -0.02,8.86 0.27,13.13l35.08 -0.07c0.19,-4.01 -0.45,-9.21 0.26,-13.06l-35.61 0zm-7.15 366.49l0 -0.01 0.34 0.33 -0.34 -0.32zm3.49 3.25c0.59,0.54 1.18,1.08 1.78,1.61 -0.6,-0.53 -1.19,-1.07 -1.78,-1.61zm4.04 3.62l0 0c0.13,-9.86 -0.39,-27.44 -0.13,-32.25l35.2 -0.02c0.11,4.76 -0.37,40.51 -0.22,58.03 -12.35,-7.61 -24.01,-16.23 -34.85,-25.76zm34.95 25.82c0.75,0.46 1.49,0.91 2.24,1.36 -0.75,-0.45 -1.49,-0.9 -2.24,-1.36zm5.88 3.51l0.86 0.5 0 0.01 -0.86 -0.51zm12.54 -197.56c1.68,0.11 3.41,0.21 5.16,0.29 9.28,0.21 18.68,0.28 28.12,0.27 10.4,-0.14 20.81,-0.41 30.31,-0.41l119.87 0.05c24.95,-0.08 65.15,-0.9 86.06,-0.01 0.22,0.01 0.44,0.03 0.65,0.05l0.75 0c1.59,0.24 2.81,1.07 3.83,2.2 1.71,1.74 2.77,4.25 3.93,6.76l18.04 33.22c1.34,2.29 3.4,5.82 4.82,8.89 0.43,0.87 0.76,1.65 0.99,2.38 0.4,1.1 0.63,2.04 0.6,2.71 -0.01,0.23 -0.12,0.61 -0.31,1.12 -0.38,2 -1.57,4.08 -3.4,7.2 -3.67,7.16 -9.03,16.76 -11.11,20.47 -1.44,2.69 -2.89,5.37 -4.37,8.06 -3.49,6.36 -5.44,10.64 -7.18,13.5 -0.85,1.56 -1.85,2.9 -3.28,3.83 -2.87,1.97 -7.01,1.83 -16.42,1.53 -25.83,0.35 -52.39,-0.27 -78.09,-0.27 -29.94,0 -59.88,0 -89.83,0 -9.41,0 -29.73,-0.24 -48.86,-0.32 -17.19,0.04 -30.74,0.14 -36.91,0.3 -1.3,0.06 -2.42,0.12 -3.32,0.19l0.01 2.72 0.12 5.02 2.25 0.14 99.39 0 174.71 -0.03c0.88,-0.15 1.52,-0.36 2,-0.61 1.14,-1.87 3.62,-6.23 6.76,-11.85l10.5 -19.36c1.14,-2.28 5.8,-10.52 9.95,-18.13 3.09,-5.83 5.52,-10.51 6.57,-12.8 0.31,-0.72 0.47,-1.23 0.46,-1.45 -0.02,-0.34 -2.23,-4.6 -5.53,-10.77l-0.09 -0.18c-0.96,-1.73 -1.93,-3.47 -2.86,-5.25l-1.27 -2.41c-8.78,-16.24 -20.8,-38.06 -24.16,-43.76 -0.26,-0.33 -0.47,-0.55 -0.62,-0.62 -0.42,-0.23 -2.02,-0.41 -4.6,-0.56l-110.05 0.01c-23.23,0.17 -43.25,0.28 -52.03,0.03l-0.59 -0.03 -26.75 0c-2.97,0.6 -7.06,0.03 -11.66,0l-0.46 0 -69.81 0c-0.71,0.04 -1.36,0.08 -1.96,0.14l-0.32 7.13 -0.01 0.61zm-0.02 -168.05c19.55,1.35 43.6,0.15 63.61,0.15l207.33 0.1c4.05,0.59 5.77,5.08 7.53,8.55l22.35 41.14c4.61,8.18 1.38,9.04 -5.77,22.57 -3.6,6.81 -7.27,13.79 -11.09,20.74 -13.09,23.84 -4.51,18.54 -44.56,18.54 -4.44,-0.01 -11.58,1.12 -15.02,-0.87 -2.21,-1.28 -2.88,-2.88 -2.82,-4.45l-15.04 -0.01c0.59,4.44 -4.01,5.36 -12.04,5.33 -20.8,-0.07 -186.1,-0.73 -194.41,0.19l0.04 7.77c21.59,1.42 47.67,0.15 69.69,0.15l206.75 -0.03c3.2,-0.55 3.17,-1.81 4.06,-3.67 0.76,-1.59 1.43,-2.84 2.13,-4.08l13.07 -24.08c2.17,-4.33 17.09,-30.27 16.98,-32.38 -0.06,-1.28 -31.82,-59.25 -34.62,-63.54l-277.82 0 -0.35 7.88zm59.09 63.49l5.73 -0.55 -0.12 -13.87c-2.68,-1.17 -2.62,-0.94 -5.59,-0.31l-0.02 14.73zm67.72 0.02l5.76 -0.09 -0.08 -15.06 -5.63 0.16 -0.05 14.99zm-180.32 80.45l35.19 0.11 0.06 -7.94 -35.26 -0.19 0.01 8.02zm-6.69 -19.78l48.5 -1.3 0.17 -10.91 -48.77 -0.18 0.1 12.39zm-0.15 44.01l48.88 -0.11 -0.49 -12.33 -48.23 0.15 -0.16 12.29zm0.59 -180.51l-0.53 5.98c0.02,2.11 -0.03,4.21 -0.05,6.32l48.83 0.04 -0.08 -12.32 -48.17 -0.02z"/>
  <path id="blue" class="fil2" d="M406.78 380.42c1.89,-1.95 23.58,-41.67 24.21,-44.66l-11.91 -22.16c-1.95,-3.63 -4.09,-7.2 -6,-11.08 -1.83,-3.72 -4.11,-8.12 -6.19,-10.65l-272.35 0.45c-1.92,3.08 -0.72,73.82 -0.72,79.84 0,8.39 -0.53,2.81 0.79,8.08l5.96 0.11c85.51,1.06 174.91,-0.59 260.98,0l5.23 0.07zm-44.75 -161.85c0.12,-2.99 2.95,-5.84 3.02,-5.94l41.89 -0.36 24.06 -44.55c-1.38,-3.21 -3.99,-7.76 -5.9,-11.16 -2.91,-5.17 -16.89,-32.08 -18.42,-32.65l-239 -0.01c-7.56,0 -28.42,-0.87 -34.01,0.44l0.17 87.82 210.4 0.13c1.65,2.63 2.54,4.68 2.75,6.27l15.04 0.01z"/>
  <path id="lighblue" class="fil3" d="M87.39 212.36l34.24 -0.09c1.12,-3.57 1.15,-84.93 0.06,-88.32l-34.28 -0.05c-1.12,3.73 -1.16,83.97 -0.02,88.46zm0 168l34.24 -0.09c1.12,-3.57 1.15,-84.92 0.06,-88.32l-34.28 -0.05c-1.12,3.73 -1.16,83.97 -0.02,88.46z"/>
  <path id="darkblue" class="fil4" d="M86.81 136.45l35.45 0c-0.14,-6.96 -0.32,-11.73 -0.57,-12.5l-34.28 -0.05c-0.26,0.84 -0.45,5.62 -0.6,12.55zm308 -12.6l23.38 43.97 -22.64 44.45 6.01 0.04 5.24 0.07c1.88,-1.96 23.57,-41.68 24.2,-44.66l-11.9 -22.17c-1.95,-3.62 -4.1,-7.2 -6,-11.08 -1.83,-3.71 -4.12,-8.11 -6.2,-10.64l-12.09 0.02zm-0.01 168.04l23.38 43.98 -22.65 44.45 6.02 0.03 5.23 0.07c1.89,-1.95 23.58,-41.67 24.21,-44.66l-11.91 -22.16c-1.95,-3.63 -4.09,-7.2 -6,-11.08 -1.83,-3.72 -4.11,-8.12 -6.19,-10.65l-12.09 0.02zm-272.51 12.59l-35.8 0c-0.14,-4.65 -0.01,-9.07 0.9,-12.57l34.14 0.03c0.33,0.8 0.58,5.59 0.76,12.54zm23.11 -12.18l0 88.11 -4.83 -0.06 -5.96 -0.11c-1.32,-5.27 -0.79,0.31 -0.79,-8.08 0,-6.02 -1.2,-76.76 0.72,-79.84l10.86 -0.02zm0 -80.13l0 -88.55c-5.1,0.03 -9.56,0.21 -11.73,0.72l0.17 87.82 11.56 0.01z"/>
  <path id="otto" class="fil5" d="M158.98 342.69c-0.23,4.61 0.08,8.99 1.15,13.3 2.16,8.84 8,12.68 16.61,12.68 4.3,0 8.38,-1.46 11.69,-5.15 2.84,-3.07 3.92,-6.99 4.53,-10.99 1,-6.77 0.92,-13.53 -0.08,-20.22 -0.76,-5.38 -2.53,-10.38 -7.84,-13.15 -2.69,-1.38 -5.46,-1.92 -8.22,-1.92 -8.23,0 -14.07,3.15 -16.38,11.61 -1.15,4.61 -1.77,9.22 -1.46,13.84zm11.3 -0.93c0.08,-2.23 -0.3,-5.76 0.46,-9.22 0.77,-3.46 2.85,-5.38 5.39,-5.38 2.92,0 5.45,1.92 5.76,4.92 0.85,7.07 0.85,14.22 -0.08,21.37 -0.38,3.15 -2.53,4.84 -5.61,4.84 -3.15,0 -4.84,-1.46 -5.53,-4.76 -0.69,-3.46 -0.39,-7 -0.39,-11.77zm61.12 -24.21l-27.37 0c-1.69,0 -2.77,0.84 -2.84,2.46 -0.16,1.84 -0.16,3.61 0,5.38 0.07,1.54 1,2.38 2.69,2.38 1.92,-0.07 3.84,-0.07 5.76,0 2.46,0 2.69,0.16 2.69,2.69 0.08,5.61 0.16,28.68 0.23,34.37 0,2.15 0.7,2.84 2.85,2.92 1.61,0.07 3.15,0.07 4.76,0 2.23,0 3,-0.85 3,-3.08l0 -33.67c0,-3.15 0.16,-3.23 3.39,-3.23 1.61,0 3.22,-0.07 4.84,0 1.77,0 2.84,-0.77 3.07,-2.69 0.16,-1.61 0.16,-3.15 0,-4.77 -0.23,-1.84 -1.3,-2.76 -3.07,-2.76zm38.97 0l-27.36 0c-1.7,0 -2.77,0.84 -2.85,2.46 -0.15,1.84 -0.15,3.61 0,5.38 0.08,1.54 1,2.38 2.69,2.38 1.92,-0.07 3.85,-0.07 5.77,0 2.46,0 2.69,0.16 2.69,2.69 0.08,5.61 0.15,28.68 0.23,34.37 0,2.15 0.69,2.84 2.84,2.92 1.62,0.07 3.16,0.07 4.77,0 2.23,0 3,-0.85 3,-3.08l0 -33.67c0,-3.15 0.15,-3.23 3.38,-3.23 1.61,0 3.23,-0.07 4.84,0 1.77,0 2.85,-0.77 3.08,-2.69 0.15,-1.61 0.15,-3.15 0,-4.77 -0.23,-1.84 -1.31,-2.76 -3.08,-2.76zm10.69 25.14c-0.23,4.61 0.08,8.99 1.15,13.3 2.16,8.84 8,12.68 16.61,12.68 4.3,0 8.38,-1.46 11.68,-5.15 2.85,-3.07 3.92,-6.99 4.54,-10.99 1,-6.77 0.92,-13.53 -0.08,-20.22 -0.77,-5.38 -2.54,-10.38 -7.84,-13.15 -2.69,-1.38 -5.46,-1.92 -8.23,-1.92 -8.22,0 -14.06,3.15 -16.37,11.61 -1.15,4.61 -1.77,9.22 -1.46,13.84zm11.3 -0.93c0.08,-2.23 -0.31,-5.76 0.46,-9.22 0.77,-3.46 2.85,-5.38 5.38,-5.38 2.92,0 5.46,1.92 5.77,4.92 0.84,7.07 0.84,14.22 -0.08,21.37 -0.38,3.15 -2.54,4.84 -5.61,4.84 -3.15,0 -4.84,-1.46 -5.54,-4.76 -0.69,-3.46 -0.38,-7 -0.38,-11.77zm67.04 -6.76c-0.62,-0.92 -0.39,-1.77 -0.39,-2.62 0,-3.76 0.08,-7.84 0,-11.6 0,-2.46 -0.69,-3.15 -3.07,-3.15 -1.47,-0.08 -3,-0.08 -4.54,0 -2.61,0 -3.31,0.61 -3.31,3.3 0,6.61 0,35.52 0,43.13 0,2.92 0.7,3.61 3.62,3.69 1.3,0 2.61,0 4,0 2.38,-0.08 3.3,-1 3.38,-3.38 0.07,-2.46 0.23,-4.92 0,-7.31 -0.31,-3.38 0.61,-6.07 3,-8.53 0.53,-0.54 0.92,-0.85 1.23,-0.85 0.3,0 0.61,0.39 0.92,1.16 2.69,5.38 5.46,10.68 8.07,16.14 1,1.92 2.31,2.92 4.53,2.77 1.54,-0.08 3.08,0 4.62,0 3.38,-0.08 4,-1.08 2.46,-4.08 -4.08,-8.22 -8.07,-16.45 -12.22,-24.6 -0.7,-1.38 -0.62,-2.53 0.38,-3.84 3.38,-4.38 6.61,-9.3 9.84,-13.84 0.54,-0.69 1.15,-1.54 0.61,-2.61 -0.53,-1 -1.53,-1.23 -2.61,-1.15 -1.77,0 -3.61,0.07 -5.38,-0.08 -2,-0.15 -3.38,0.77 -4.46,2.38 -2.15,3.08 -8.99,13.38 -10.68,15.07zm37.89 21.83c-3.53,0 -5.53,2.08 -5.61,5.77 0,3.69 1.77,5.3 5.38,5.3 3.62,0 5.39,-1.84 5.46,-5.3 0,-3.61 -2,-5.77 -5.23,-5.77z"/>
  <path id="max" class="fil5" d="M192.42 169.23c0.82,0.42 0.82,0.83 0.82,1.24 0,8.19 0,16.71 -0.08,24.81 -0.08,3.15 0.74,4.22 3.97,4.3 0.91,0 1.9,0 2.89,0 3.89,0 4.63,-0.74 4.63,-4.71 0,-6.04 0,-35.81 0,-44.33 0,-3.55 -1.49,-4.88 -4.96,-4.96 -1.73,0 -3.55,0 -5.29,0 -3.39,-0.08 -3.89,0.25 -4.96,3.39 -2.07,6.12 -4.05,12.24 -6.12,18.36 -0.42,1.08 -0.58,2.23 -1.41,3.23 -0.83,-0.83 -0.99,-1.82 -1.32,-2.73 -2.4,-6.45 -4.88,-12.99 -7.28,-19.44 -0.58,-1.4 -1.16,-2.73 -2.98,-2.81 -2.89,0 -5.78,0 -8.6,0 -2.89,0 -3.06,2.81 -3.06,4.96 0,12.99 0.09,43.42 0.09,45.49 0.08,2.4 0.99,3.47 3.39,3.47 1.57,0.08 3.14,0.08 4.71,0 2.23,-0.08 3.31,-1.07 3.31,-3.31 0.08,-8.02 0.33,-16.45 0,-24.48 -0.08,-0.57 -0.17,-1.15 0.58,-1.49 0.25,0.5 0.41,1 0.58,1.49 1.73,5.13 3.47,10.59 5.21,15.64 1.07,3.05 1.48,3.47 4.71,3.47 0.58,0.08 1.07,0 1.65,0.08 1.33,0.08 2.32,-0.5 2.73,-1.74 0.75,-1.9 1.49,-3.8 2.15,-5.78 1.49,-4.55 3.06,-9.51 4.64,-14.15zm56.39 30.27c0.67,0 2.73,0.08 3.06,0.08 4.64,0 5.38,-0.9 4.3,-5.45 -3.55,-15.05 -7.11,-30.11 -10.66,-45.08 -0.67,-2.89 -1.41,-3.39 -4.31,-3.47 -3.55,0 -7.11,0 -10.75,0 -2.39,0 -3.3,0.74 -3.88,3.14 -3.64,15.72 -7.28,31.51 -11,47.31 -0.42,1.98 0.41,3.06 2.15,3.31 1.16,0.16 2.23,0.33 3.39,0.33 2.4,0 6.04,-0.17 6.53,-3.14 0.33,-1.49 0.58,-3.06 0.91,-4.64 0.33,-1.49 1.08,-2.23 2.73,-2.23 1.9,0.08 3.89,0 5.79,0 6.53,0.17 5.87,-1.07 7.28,5.95 0.58,2.9 1.49,3.73 4.46,3.89zm-13.06 -39.7c0.91,1.66 0.99,2.9 1.24,4.06 1.07,4.22 2.07,8.43 3.06,12.57 0.49,2.07 0.08,2.56 -2.07,2.65 -1.41,0 -2.81,-0.09 -4.13,0 -1.66,0.08 -2.32,-0.67 -1.99,-2.24 1.24,-5.54 2.48,-11 3.89,-17.04zm54.33 13.65c-0.66,-1.24 -0.66,-2.73 0,-3.89 1.65,-2.81 3.23,-5.62 4.71,-8.51 2.07,-3.73 4.14,-7.45 6.12,-11.25 1.49,-2.73 0.5,-4.22 -2.56,-4.22 -1.41,0 -2.9,0.08 -4.3,0 -2.4,-0.16 -4.05,0.91 -5.05,3.06 -1.57,3.31 -3.14,6.62 -4.79,9.84 -0.25,0.5 -0.33,1.16 -0.99,1.16 -0.67,0 -0.83,-0.66 -1,-1.16 -1.57,-3.06 -3.14,-6.12 -4.46,-9.26 -1.16,-2.65 -2.9,-3.89 -5.79,-3.64 -1.57,0.08 -3.14,0 -4.72,0 -2.72,0.08 -3.63,1.41 -2.39,3.89 3.55,6.78 7.03,13.56 10.58,20.26 0.83,1.49 0.91,3.06 0.08,4.46 -4.21,7.12 -8.27,14.31 -12.32,21.51 -1.49,2.56 -0.66,3.8 2.32,3.88 1.9,0.09 3.89,0.09 5.87,0.09 2.15,0 3.56,-1.08 4.47,-3.14 1.73,-3.56 3.47,-7.2 5.29,-10.76 0.25,-0.58 0.33,-1.57 1.07,-1.57 0.91,0 1,1.08 1.33,1.66 1.4,2.89 2.97,5.62 4.13,8.6 1.32,3.14 2.98,5.46 6.04,5.46 0.74,0 1.49,-0.09 2.31,-0.34 1.16,0 2.32,0.09 3.48,0 2.81,-0.08 3.55,-1.4 2.31,-3.8 -3.97,-7.44 -7.77,-14.89 -11.74,-22.33zm57.64 -9.1c-0.66,-0.99 -0.41,-1.9 -0.41,-2.81 0,-4.05 0.08,-8.43 0,-12.49 0,-2.64 -0.75,-3.39 -3.31,-3.39 -1.57,-0.08 -3.23,-0.08 -4.88,0 -2.81,0 -3.56,0.66 -3.56,3.56 0,7.11 0,38.21 0,46.39 0,3.15 0.75,3.89 3.89,3.97 1.41,0 2.81,0 4.3,0 2.56,-0.08 3.56,-1.07 3.64,-3.63 0.08,-2.65 0.25,-5.3 0,-7.86 -0.33,-3.64 0.66,-6.53 3.22,-9.18 0.58,-0.58 1,-0.91 1.33,-0.91 0.33,0 0.66,0.41 0.99,1.24 2.89,5.79 5.87,11.5 8.68,17.37 1.08,2.07 2.48,3.14 4.88,2.97 1.66,-0.08 3.31,0 4.96,0 3.64,-0.08 4.3,-1.15 2.65,-4.38 -4.38,-8.85 -8.68,-17.7 -13.15,-26.46 -0.74,-1.49 -0.66,-2.73 0.42,-4.14 3.63,-4.71 7.11,-10.01 10.58,-14.88 0.58,-0.75 1.24,-1.66 0.66,-2.82 -0.58,-1.07 -1.65,-1.32 -2.81,-1.24 -1.9,0 -3.89,0.09 -5.79,-0.08 -2.15,-0.16 -3.64,0.83 -4.8,2.56 -2.31,3.31 -9.67,14.39 -11.49,16.21zm40.77 23.49c-3.8,0 -5.95,2.23 -6.04,6.2 0,3.97 1.9,5.71 5.79,5.71 3.89,0 5.79,-1.98 5.87,-5.71 0,-3.88 -2.15,-6.2 -5.62,-6.2z"/>
  <path id="pretos" class="fil6" d="M80.12 392.21l48.84 -0.2 -0.03 12.61 -48.46 -0.14 -0.35 -12.27zm326.66 -11.79l-5.23 -0.07c-86.07,-0.59 -175.47,1.06 -260.98,0l-5.96 -0.11c-1.32,-5.27 -0.79,0.31 -0.79,-8.08 0,-6.02 -1.2,-76.76 0.72,-79.84l272.35 -0.45c2.08,2.53 4.36,6.93 6.19,10.65 1.91,3.88 4.05,7.45 6,11.08l11.91 22.16c-0.63,2.99 -22.32,42.71 -24.21,44.66zm-326.5 -112.42l48.23 -0.15 0.49 12.33 -48.88 0.11 0.16 -12.29zm6.67 -19.96l35.26 0.19 -0.06 7.94 -35.19 -0.11 -0.01 -8.02zm-6.78 -24.15l48.77 0.18 -0.17 10.91 -48.5 1.3 -0.1 -12.39zm7.22 -11.53c-1.14,-4.49 -1.1,-84.73 0.02,-88.46l34.28 0.05c1.09,3.39 1.06,84.75 -0.06,88.32l-34.24 0.09zm353.9 -50.32l-22.35 -41.14c-1.76,-3.47 -3.48,-7.96 -7.53,-8.55l-207.33 -0.1c-20.01,0 -44.06,1.2 -63.61,-0.15l0.35 -7.88 277.82 0c2.8,4.29 34.56,62.26 34.62,63.54 0.11,2.11 -14.81,28.05 -16.98,32.38l-13.07 24.08c-0.7,1.24 -1.37,2.49 -2.13,4.08 -0.89,1.86 -0.86,3.12 -4.06,3.67l-206.75 0.03c-22.02,0 -48.1,1.27 -69.69,-0.15l-0.04 -7.77c8.31,-0.92 173.61,-0.26 194.41,-0.19 10.92,0.03 15.51,-1.67 9.29,-11.6l-210.4 -0.13 -0.17 -87.82c5.59,-1.31 26.45,-0.44 34.01,-0.44l239 0.01c1.53,0.57 15.51,27.48 18.42,32.65 1.91,3.4 4.52,7.95 5.9,11.16l-24.06 44.55 -41.89 0.36c-0.11,0.16 -6.62,6.67 -0.2,10.39 3.44,1.99 10.58,0.86 15.02,0.87 40.05,0 31.47,5.3 44.56,-18.54 3.82,-6.95 7.49,-13.93 11.09,-20.74 7.15,-13.53 10.38,-14.39 5.77,-22.57zm-312.41 -62.24l0.08 12.32 -48.83 -0.04c0.02,-2.11 0.07,-4.21 0.05,-6.32l0.53 -5.98 48.17 0.02zm-53.51 -11.75c-7.46,6 -6.82,4.96 -6.82,17.71 0,21.08 4.74,13.49 6.66,18.13l0.05 87.97c-7.84,7.7 -6.67,3.98 -6.71,21.68 -0.03,14.96 5.32,11.07 6.62,14.98 0.27,0.82 0.13,6.25 0.14,7.54 -2.64,2.67 -4.42,2.78 -5.98,6.15 -1.32,2.85 -1.2,20.42 -0.12,23.32 1.35,3.63 3.52,4.34 6.04,6.87 0.13,7.98 0,16.01 0,24 0,6.99 -1.87,18.08 6.34,17.57 10.68,-0.67 2.22,-28.39 5.8,-42.06l34.14 0.03c1.43,3.53 1.48,84.54 0.01,88.29l-34.13 0.13c-3.27,-11.14 4.15,-30.3 -5.8,-31.32 -3.06,-0.32 -4.97,1.48 -5.75,3.36 -1.53,3.69 0.16,26.2 -0.66,27.97 -2.28,2.21 -4.68,2.62 -6.02,6.34 -1.04,2.9 -1.05,20.45 0.15,23.35 1.29,3.11 3.64,4.2 6.04,6.2l-0.02 21.12c3.8,3.79 7.73,7.46 11.77,11 0.13,-9.86 -0.39,-27.44 -0.13,-32.25l35.2 -0.02c0.11,4.76 -0.37,40.51 -0.22,58.03 3.81,2.35 7.69,4.6 11.64,6.76l0.21 -64.6 5.17 -4.43 259.46 -0.21c19.5,0 25.68,3.22 33.11,-10.26 5.25,-9.53 10.29,-18.51 15.26,-28.1 4.87,-9.42 10.09,-18.15 14.97,-27.6 6.05,-11.69 2.88,-14.74 -6.28,-30.6l-22.84 -42.26c-2.62,-5.08 -5.18,-9.55 -10.33,-11.37 -5.73,-2.03 -73.82,-0.82 -85.84,-0.82 -28.91,0 -57.82,-0.01 -86.73,0 -7.09,2.25 -7.07,11.38 2.28,11.65 27.2,0.78 162.25,-1.88 166.68,0.52 2.51,1.35 23.94,42.79 26.05,46.79 2.95,5.59 6.18,10.91 8.61,16.15 0.17,1.61 -31.49,59.3 -34.78,64.28l-277.94 0 -0.18 -7.87c13.26,-1.06 71.15,-0.18 89.14,-0.18 29.95,0 59.89,0 89.83,0 29.62,0 60.4,0.83 89.87,0.03 7.17,-0.19 8.09,-6.05 10.91,-11.28 2.78,-5.18 5.28,-9.6 8,-14.4 2.22,-3.94 15.26,-27.19 15.38,-29.79 0.14,-3.18 -5.54,-12.46 -7.27,-15.45l-15.84 -29.04c-2.81,-5.08 -3.95,-11.44 -10.5,-11.72 -21.98,-0.94 -65.28,0.02 -89.77,0.02 -29.95,0 -59.89,-0.02 -89.84,-0.01 -29.62,0.02 -60.44,0.83 -89.91,-0.05l0.12 -7.88c13,-1.15 54.09,-0.16 71.98,-0.15 9.68,0 17.2,2.52 17.05,-7.75l-3.24 -3.74 -86.6 -0.13c-1.74,-0.82 -4.78,-3.41 -5.78,-4.38l-0.21 -8.48 5.99 -4.18 274.92 0.01c9.82,0.02 12.49,-2.77 16.27,-9.29l26.41 -48.68c10.59,-20.79 11.57,-15.43 -8.75,-51.07 -6.11,-10.73 -11.55,-22.05 -17.63,-32.73 -3.54,-6.22 -6.11,-9.23 -15.52,-9.26 -29.42,-0.11 -274.66,0.67 -276.57,-0.12l-5.15 -4.52c-0.19,-6.9 2.23,-18.05 -5.62,-18.29 -8.14,-0.25 -5.73,11.09 -6.07,18.42l-35.08 0.07c-0.51,-7.61 2.09,-17.84 -5.47,-18.49 -0.37,-0.03 -0.71,-0.03 -1.04,-0.02 -1.67,1.58 -3.33,3.18 -4.97,4.8 -0.96,4.01 -0.25,9.67 -0.16,13.61z"/>
 </g>
</svg>
