<?xml version="1.0" encoding="UTF-8"?>
<!DOCTYPE svg PUBLIC "-//W3C//DTD SVG 1.1//EN" "http://www.w3.org/Graphics/SVG/1.1/DTD/svg11.dtd">
<!-- Creator: CorelDRAW 2020 (64 Bit) -->
<svg xmlns="http://www.w3.org/2000/svg" xml:space="preserve" width="512px" height="512px" version="1.1" style="shape-rendering:geometricPrecision; text-rendering:geometricPrecision; image-rendering:optimizeQuality; fill-rule:evenodd; clip-rule:evenodd"
viewBox="0 0 512 512"
 xmlns:xlink="http://www.w3.org/1999/xlink"
 xmlns:xodm="http://www.corel.com/coreldraw/odm/2003">
 <defs>
  <style type="text/css">
   <![CDATA[
    .fil0 {fill:black}
   ]]>
  </style>
 </defs>
 <g id="Camada_x0020_1">
  <metadata id="CorelCorpID_0Corel-Layer"/>
  <path class="fil0" d="M333.34 494.12l4.57 0c1.91,-1.48 50.25,-25.14 57.15,-28.6 6.81,-3.42 13.22,-7.27 7.77,-17.25l-40.43 -72.96c4.56,-0.81 48.43,-0.25 56.94,-0.25 4.93,0 8.69,0.2 11.84,-2.45 2.3,-1.92 4.37,-6.02 2.96,-10.54 -1.08,-3.44 -10.94,-12.49 -13.47,-15.01 -18.89,-18.83 -38.11,-37.98 -56.91,-56.92l-113.82 -113.82c-4.94,-4.88 -8.89,-8.6 -14.31,-14.27 -1.93,-2.02 -4.73,-5.17 -8.72,-5.39 -4.06,-0.22 -7.64,2.34 -9.17,4.89 -2.48,4.11 -1.45,21.27 -1.45,27.3l0 141.92c0,6.94 -0.69,109.52 0.44,113.56 0.87,3.14 3.95,6.16 7.46,6.84 5.02,0.96 7.66,-1.53 10.42,-3.66 4.31,-3.33 45.7,-36.15 48.05,-37.18 1.35,1.47 10.4,18.3 12.24,21.56 4.1,7.27 8.07,14.46 12.08,21.72 1.84,3.33 19.49,35.92 21.33,37.71 1.64,1.6 3.21,1.66 5.03,2.8zm-104.57 -476.24l-5.18 0c-0.93,1.4 -4.25,1.31 -6.29,5.62 -1.92,4.05 -1.01,29.89 -1.01,35.33 0,7.94 0.01,15.88 -0.01,23.82 -0.01,4.16 -0.37,7.23 1.82,10.25 4.34,6 12.57,5.44 16.25,0 1.98,-2.94 1.95,-5.42 1.94,-9.78l0 -48.58c0,-15.62 -2.08,-12.02 -7.52,-16.66zm-139.47 158.76l55.24 0c7.06,-0.03 12.31,-3.11 12.09,-10.18 -0.22,-7.09 -5.35,-9.85 -12.56,-9.84l-54.77 0.01c-6.57,-0.01 -11.77,3.25 -11.9,9.84 -0.12,6.77 4.84,10.17 11.9,10.17zm218.6 0l54.29 0c7.18,0.01 12.64,-2.42 12.79,-9.71 0.15,-7.3 -5.5,-10.32 -12.31,-10.31 -16.35,0.04 -32.71,0.01 -49.06,0.01 -8.63,0 -15.32,-0.38 -17.48,7.14 -2,6.98 2.58,12.87 11.77,12.87zm-140.61 36.74c-4.57,1.41 -32.93,31.13 -39.3,37.49 -2.49,2.49 -5.37,5.04 -7.56,7.7 -6.06,7.34 0.59,18.57 10.45,15.76 4.02,-1.14 27.21,-25.43 31.65,-29.87 4.87,-4.89 10.85,-10.2 15.17,-15.32 6.15,-7.3 -0.91,-18.69 -10.41,-15.76zm-42.32 -154.25c-3.85,1.32 -6.51,3.97 -6.78,8.75 -0.3,5.28 2.97,7.86 5.27,10.12 5.32,5.24 10.21,10.19 15.49,15.47l22.89 22.84c9.47,9.2 17.68,1.34 18.1,-5.08 0.34,-5.18 -3.01,-7.99 -5.23,-10.18 -5.28,-5.21 -10.13,-10.37 -15.52,-15.45l-22.83 -22.87c-2.41,-2.38 -6.04,-5.44 -11.39,-3.6zm196.35 0.08c-4.44,1.55 -26.79,25.11 -31.65,29.97l-15.13 15.36c-5.93,7.75 1.51,18.31 10.98,15.35 3.85,-1.21 27.12,-25.5 31.55,-29.97l15.12 -15.37c6.05,-7.81 -1.51,-18.62 -10.87,-15.34z"/>
 </g>
</svg>
