<?xml version="1.0" encoding="UTF-8"?>
<!DOCTYPE svg PUBLIC "-//W3C//DTD SVG 1.1//EN" "http://www.w3.org/Graphics/SVG/1.1/DTD/svg11.dtd">
<!-- Creator: CorelDRAW 2020 (64 Bit) -->
<svg xmlns="http://www.w3.org/2000/svg" xml:space="preserve" width="512px" height="512px" version="1.1" style="shape-rendering:geometricPrecision; text-rendering:geometricPrecision; image-rendering:optimizeQuality; fill-rule:evenodd; clip-rule:evenodd"
viewBox="0 0 512 512"
 xmlns:xlink="http://www.w3.org/1999/xlink"
 xmlns:xodm="http://www.corel.com/coreldraw/odm/2003">
 <defs>
  <style type="text/css">
   <![CDATA[
    .fil1 {fill:#C2133C}
    .fil0 {fill:white}
   ]]>
  </style>
 </defs>
 <g id="Camada_x0020_1">
  <metadata id="CorelCorpID_0Corel-Layer"/>
  <path id="arrow" class="fil0" d="M256 0c5.48,0 10.91,0.19 16.3,0.53 -1.23,-0.07 -2.46,-0.14 -3.69,-0.19 -16.98,-0.72 -33.37,0.09 -49.13,2.26 11.93,-1.7 24.12,-2.6 36.52,-2.6zm81.79 13.35c0.6,0.2 1.19,0.41 1.78,0.62l-1.78 -0.62zm3.81 1.33c99.28,35.22 170.4,129.96 170.4,241.32 0,140.24 -112.78,254.13 -252.59,255.96 3.24,-0.06 6.5,-0.17 9.79,-0.34 178.4,-9.63 292.43,-194.98 220.36,-358.99 -26.79,-60.98 -80.11,-113.54 -147.96,-137.95zm-84.59 497.31c-0.34,0 -0.67,0.01 -1.01,0.01l-0.45 -0.01 1.46 0zm-255.74 -230.38c-0.83,-8.42 -1.27,-16.97 -1.27,-25.61 0,-8.64 0.43,-17.18 1.27,-25.6l319.19 0.14c-1.03,-2.2 -3.14,-3.77 -5.38,-6.04l-16.2 -16.21c-7.35,-7.27 -16.6,-14.11 -18.07,-25.1 -2.75,-20.37 16.98,-33.91 33.79,-27.84 6.53,2.36 8.69,5.1 12.62,9 14.56,14.5 28.93,28.41 43.47,42.95l21.51 21.68c6.3,6.04 16.52,13.29 16.57,27.01 0.06,13.56 -10.44,21.02 -16.58,27l-21.5 21.7c-14.5,14.55 -28.91,28.44 -43.46,42.95 -3.52,3.51 -6.41,6.79 -12.59,9.01 -16.92,6.08 -36.78,-7.84 -33.83,-27.88 1.81,-12.36 12.16,-18.73 18.06,-25.08l20.42 -20.42c0.96,-1.22 0.4,-0.16 1.14,-1.68l-319.16 0.02zm215.01 -278.54c0.66,-0.1 1.32,-0.2 1.98,-0.3 -0.66,0.1 -1.32,0.2 -1.98,0.3z"/>
  <path id="red" class="fil1" d="M320.46 230.54c-1.03,-2.2 -3.14,-3.77 -5.38,-6.04l-16.2 -16.21c-7.35,-7.27 -16.6,-14.11 -18.07,-25.1 -2.75,-20.37 16.98,-33.91 33.79,-27.84 6.53,2.36 8.69,5.1 12.62,9 14.56,14.5 28.93,28.41 43.47,42.95l21.51 21.68c6.3,6.04 16.52,13.29 16.57,27.01 0.06,13.56 -10.44,21.02 -16.58,27l-21.5 21.7c-14.5,14.55 -28.91,28.44 -43.46,42.95 -3.52,3.51 -6.41,6.79 -12.59,9.01 -16.92,6.08 -36.78,-7.84 -33.83,-27.88 1.81,-12.36 12.16,-18.73 18.06,-25.08l20.42 -20.42c0.96,-1.22 0.4,-0.16 1.14,-1.68l-319.7 0.02c0.51,15.05 6.29,38.89 10.68,52.13 4.13,12.44 12.12,33.21 18.57,43.85 17.73,29.26 26.81,44.11 54.91,69.32 40.27,36.12 104.1,69.03 184.31,64.71 178.4,-9.63 292.43,-194.98 220.36,-358.99 -35.81,-81.51 -118.99,-147.96 -220.95,-152.29 -100.16,-4.25 -180.26,44.6 -227.42,115.29 -18.27,27.4 -39.5,77.5 -40.46,114.77l319.73 0.14z"/>
 </g>
</svg>
