<?xml version="1.0" encoding="UTF-8"?>
<!DOCTYPE svg PUBLIC "-//W3C//DTD SVG 1.1//EN" "http://www.w3.org/Graphics/SVG/1.1/DTD/svg11.dtd">
<!-- Creator: CorelDRAW 2020 (64 Bit) -->
<svg xmlns="http://www.w3.org/2000/svg" xml:space="preserve" width="512px" height="512px" version="1.1" style="shape-rendering:geometricPrecision; text-rendering:geometricPrecision; image-rendering:optimizeQuality; fill-rule:evenodd; clip-rule:evenodd"
viewBox="0 0 512 512"
 xmlns:xlink="http://www.w3.org/1999/xlink"
 xmlns:xodm="http://www.corel.com/coreldraw/odm/2003">
 <defs>
  <style type="text/css">
   <![CDATA[
    .fil1 {fill:#333333}
    .fil0 {fill:#FFFAE8}
   ]]>
  </style>
 </defs>
 <g id="Camada_x0020_1">
  <metadata id="CorelCorpID_0Corel-Layer"/>
  <g id="_2006651655456">
   <path class="fil0" d="M256 0c141.39,0 256,114.61 256,256 0,141.39 -114.61,256 -256,256 -141.39,0 -256,-114.61 -256,-256 0,-141.39 114.61,-256 256,-256z"/>
   <path id="ANT." class="fil1" d="M397.49 121.27c-3.18,18.72 3.48,14.63 7.08,25.02 -4.07,4.97 -4.62,1.56 -6.73,7.21 5.62,1.05 8.61,-1.6 11.76,-3.52 2.55,-18.38 -6.47,-16.26 -6.2,-24.97 0.21,-6.99 0.21,-2.07 1.48,-4.03 8.8,-2.72 13.59,14.44 12.03,22.43 -3.63,18.62 -12,11.87 -17.21,20.39l1.2 1.45c1.5,0.92 0.67,0.48 2.63,1.22 2.44,0.92 2.66,0.25 5.19,2.25 2.4,1.89 3.33,4.56 6.16,7.08 6.25,-1.52 7.47,-7.75 12.48,-10.46 5.05,3.93 0.54,5.21 7.49,9.67 3.89,-1.09 9.46,-5.35 10.82,-9.96l-7.92 -0.3c-1.16,-5.38 -0.97,-22.65 -0.42,-28.47 1.72,-18.13 3.29,-9.33 8.37,-19.84 -9.02,-2.01 -4.31,0.55 -17.81,4.05 0.45,7.12 1.86,0.3 1.86,17.04 0,6.69 0.41,13.44 -0.16,20.1 -1.25,2.75 -9.52,13.81 -16.66,2.42 4.31,-5.39 6.57,-3.58 9.56,-12.26 6.77,-19.61 -7.44,-46.73 -25,-26.52zm-226.08 256.89c11.53,3.36 11.31,4.24 15.76,14.24 1.91,4.29 2.18,3.44 2.21,8.39 0.14,25.57 -22.65,23.84 -34.39,10.58 1.31,-3.06 4.38,-3.94 4.6,-8.15 0.63,-12.43 -13.75,-7.79 -7.66,-24.48l19.48 -0.58zm-119.72 32.09l53.37 0 0 -7.37 -0.01 -1.05 -59.47 -0.01c1.98,2.85 4.01,5.67 6.11,8.43zm374.1 -18.53c11.91,4.52 3.2,4.97 11.94,5.52 7.58,-6.71 -6.91,-24.43 -11.94,-5.52zm20.42 27.1c0.91,2.35 1.93,4.02 2.99,5.13 2.93,-3.36 5.77,-6.8 8.52,-10.31 -3.95,-3.69 -7.88,-2 -11.51,5.18zm-148.82 17.02c4.66,-0.17 4.56,-0.3 6.64,-3.25l10.19 -16.17c-4.28,-8.19 -8.74,-5.27 -11.46,1.78 -1.88,4.86 -5.05,13.12 -5.37,17.64zm74.99 -26.05c14.42,-1.1 1.53,-19.11 0.19,-21.75 -1.63,-3.2 -1.84,-5.86 -3.76,-9.41 -13.11,7.74 -3.57,12.49 0.36,21.18 2.33,5.17 0.04,6 3.21,9.98zm55.4 16.01c2.06,-0.42 9.67,-5.41 11.46,-8.18 -6.94,-4.79 -7.27,4.7 -15.6,-2.41 -0.13,-6.82 1,-16.26 0.83,-21.7 -0.1,-3.14 -5.58,-14.35 -10.69,-9.41 -3.39,3.27 -0.33,6.03 0.86,8.55 2.11,4.43 1.88,17.71 0.8,20.68 -2.41,6.61 -3.35,-0.85 -2.89,7.89 4.46,0.37 4.46,1.38 8.71,3.35 2.47,1.15 3.71,1.81 6.52,1.23zm-195.36 -4.58c6.7,9.28 13.87,7.5 18.84,-1.2l-8.99 -0.9c-0.01,-3.93 -1.29,-21.54 1.47,-24.29 4.17,-3.2 8.38,0.4 8.91,-5.07 0.61,-6.36 -6.9,-0.48 -9.83,-5.14 -2.3,-3.66 4.85,-13.79 -1.9,-14.45 -6.29,-0.62 -0.58,6.12 -7.83,14.35 -9.35,10.61 2.15,2.43 1.98,15 -0.27,21.16 -1.57,14.4 -2.65,21.7zm-15.84 -34.26c-2.27,-8.72 2.84,-12.68 -1.89,-17 -6.64,1.33 -3.94,5.25 -5.95,11.74 -1.54,4.99 -4.19,5.68 -6.69,9.54 4.14,4.4 1.98,1.89 6.35,4.8l0 18.97c-3.4,2.65 -5.62,2.97 -6.96,6.21 2.33,2.54 12.65,6.61 16.11,7.19 3.98,-4.97 5.35,-0.91 5.61,-8.93l-7.26 -1.43 -0.01 -23.67c5.95,-1.63 8.41,0.34 9.88,-5.53 -3.61,-2.36 -4.56,-1.42 -9.19,-1.89zm55.67 3.09c7.22,0.16 10.51,2.89 10.35,9.8 -0.13,5.66 1.57,18.11 -3.48,19.72 -5.49,1.76 -10.31,-4.02 -10.55,-10.25 -0.48,-12.61 -0.99,-14.3 3.68,-19.27zm-10.65 -1.1c-1.08,5.31 -0.84,11.23 -0.61,16.69 0.81,18.78 -0.34,6.46 -2.17,15.99 5.95,1.59 12.18,5.61 17.02,5.64 4.48,-2.97 1.38,-2.92 7.85,-5.47 8.57,-3.38 6.54,-3.54 6.55,-24.56 0,-6.42 -4.03,-13.54 -9.79,-14.29 -5.65,-0.74 -4.67,1.18 -8.63,3.04 -3.62,1.7 -6.84,1.33 -10.22,2.96zm97.91 9.49c-2.2,-6.7 -2.76,-1.05 -7.51,-5.43 -7.28,-6.71 3.12,-19.75 13.78,-19.75 36.97,0 34.13,45.54 15.59,45.56 -17.35,0.01 -9.22,-5.19 -20.78,-6.83 -5.09,-0.71 -13.11,1.28 -12.36,7.6 7.14,0.74 5.42,-1.69 12.44,1.91 2.86,1.47 6.35,3.05 10.39,4.06 6.57,1.65 8.8,0.6 14.31,-1.55 9.35,-3.64 15.46,-13.27 16.36,-24.49 0.36,-4.52 -0.65,-8.42 -1.63,-12.8 -2.07,-9.28 -15.89,-20.39 -22.24,-20.73 -11.75,-0.63 -17.78,-1.33 -25.24,3.7 -20.25,13.64 -6.24,37.75 6.89,28.75zm-217.79 26.22c4.37,-0.97 4.11,-2.16 5.51,-2.69 5.8,-2.2 5.53,1.71 14.65,5.22 14.25,5.48 30.41,-1.21 34.18,-23.38 1.18,-6.98 -1.74,-26.43 -12.95,-31.4 -12.38,-5.47 -15.8,-4.04 -24.67,-5.28 -10.22,-1.43 -2.56,2.99 -10.8,9.78 -3.5,2.89 -7.94,7.23 -5.11,14.48 4.15,10.63 6.24,1.98 10.01,19.21 -5.37,2.3 -10.92,5.48 -13.01,10.63l2.19 3.43zm126.91 -62.61c3.51,-5.41 6.57,-4.33 3.56,-12.47 -10.03,-1.65 -6.96,2.13 -9.94,8.6 -10.51,0.73 -11.21,-6.28 -7.31,-13.53 7.49,-1.08 8.65,7.78 18.83,-7.52 -7.17,1.61 -9.79,4.38 -9.92,-6.15 -0.07,-5.5 -0.94,-13.46 1.61,-17.43 4.4,2.91 0.8,3.31 6.34,5.69 8.79,-3.7 2.58,-18.05 -4.63,-10.93 -3.94,3.9 0.43,1.5 -4.17,3.79 -4.64,-9.66 -9.43,-7.45 -12.68,-0.17 4.37,6.06 5.62,1.23 5.77,12.6 0.14,9.67 0.63,9.31 -4.06,15.07 -10.97,13.49 0.08,20.31 4.35,23.95 3.61,2.1 9.18,1.67 12.25,-1.5zm208.95 -12.92c4.57,-0.83 6.47,-2.59 7.43,-6.65 -1.44,-2.83 -3.6,-4.82 -6.37,-6.34 -7.89,3.71 -9.05,9.24 -1.06,12.99zm-183.62 -13.84c-9.16,1.11 -7.86,22.47 -3.5,21.38 0.09,-0.02 11.49,-14.23 3.5,-21.38zm55.96 -20.67c-4.36,-0.77 -7.21,0.65 -10.65,-1.51 -6.73,-3.96 -4.29,-15.22 4.97,-13.56 9.38,1.69 7.09,8.67 20.67,7.23l2.92 -5.32c-3.94,-2.37 -3.64,0.15 -8.68,-4.05 -2.2,-1.83 -4.37,-3.62 -7.83,-4.78 -16.01,-5.39 -29.54,13.08 -18.35,23.55 6.78,6.35 15.65,5.2 16.95,-1.56zm91.02 1.52l6.04 4.07c0.57,6.16 -1.63,22.61 -0.3,25.69 3.37,7.83 14.42,2.96 16.68,-2.93 -2,-1.28 -4.51,-1.47 -7.9,-1.59l-1.22 -22.18c4.4,1.59 14,8.49 12.85,-5.56 -3.33,-2.73 -4.44,-3.92 -8.89,-2.08 -6.58,2.72 -4.09,-0.82 -10.16,-2.89 -2.44,1.34 -6.11,4.29 -7.1,7.47zm-407.67 8.43l71.79 0 0 -7.37 -0.01 -1.05 -68.59 -0.01 -3.17 0 -0.02 8.43zm295.95 22.75c5.94,1.98 4.65,-0.33 9.74,0.73 4.03,0.84 3.57,2.96 8.95,3.66 21.39,2.8 22.83,-15.91 17.92,-27.25 -7.65,-17.68 -3.46,-8.88 2.54,-12.53 -4.82,-9.97 -21.9,0.2 -9.9,19.87 1.74,2.85 5.38,5.73 3.32,10.88 -1.45,3.62 -4.92,6.07 -8.57,3.95 -1.37,-0.8 -5.96,-5.83 -8.24,-7.65 -7.57,-6.03 -17.56,-3.27 -15.76,8.34zm-107.86 -31.89c7.81,-0.84 8.26,2.07 8.16,9.08 -0.06,4.85 0.59,11.76 -2.48,14.51 -9.56,8.59 -6.81,-20.23 -5.68,-23.59zm-6.47 32.27l6.36 -0.07c2.08,-3.07 1.95,-7.33 7.94,-5.18 4.56,1.63 2.01,5.02 9.11,5.25 3.12,-4.36 4.15,-5.03 1.31,-9.92 -4.89,-8.48 2.17,-19.92 -2.98,-26.56 -5.5,-7.09 -12.68,-3.16 -18.98,1.41 -2.88,2.08 -4.86,4.84 -5.67,9.09 -1.73,9.11 -0.2,18.78 2.91,25.98zm189.6 -48.51c22.76,-1.52 31.27,38.82 12.41,43.84 -7.16,1.9 -14.93,-1.72 -17.69,-6.87 0.24,-0.16 0.64,-0.64 0.77,-0.41l4.53 -2.02c14.44,-6.81 -0.86,-23.45 -1.48,-24.41 -3.28,-5.07 -0.69,-5.88 1.46,-10.13zm-15.97 18.01c-0.71,-2.45 -12.94,-10.36 -0.99,-18.25 4.19,-2.78 6.88,-2.58 8.75,-0.35 3.27,5.25 -3.23,10.31 -0.76,16.15 2.52,5.97 6.77,7.09 4.34,16.54 -10.92,2.62 -5.99,-5.67 -9.87,-10.55 -9.4,1.61 -0.21,12.27 0.85,14.37 -5.27,3.99 -12.27,3.09 -10.62,11.77 6.72,-1.3 3.75,-5.61 10.32,-3.22 1.84,0.67 4.58,3.15 9.23,4.87 7.05,2.61 14.81,2.93 20.93,-1.74 13.82,-10.53 21.24,-39.73 -5.45,-54.84 -5.52,-3.12 -15.4,-4.31 -23.17,-2.14 -22.33,6.23 -13.53,36.9 -3.56,27.39zm-227.48 -18.22c-1.88,-13.57 13.84,-10.61 11.19,26.63 -0.83,11.63 -3.1,9.74 -6.94,10.44 -7.31,1.32 -6.45,3.05 -10.56,6.32 0.53,-5.22 2.96,-8.64 5.07,-12.68 4.94,-9.49 2.31,-23.01 1.24,-30.71zm-27.35 27.7c9.08,3.47 15.93,-2.4 14.25,-12.28 -1.44,-8.43 -11,-12.33 -7.07,-20.38 4.01,-2.62 7.13,-0.47 9.1,2.57 3.62,5.61 4.4,36.04 0.46,38.85 -6.87,1.86 -14.04,0.62 -13.31,9.81 4.78,0.62 4.95,-0.79 9.74,0.67 6.43,1.97 0.87,1.89 7.18,0.07 12.02,-3.48 11.34,1.19 16.44,1.54 3.92,-4.6 3.63,-9.26 6.86,-15.08 8.33,-14.98 0.3,-35.53 7.54,-38.93 4.23,-1.99 5.87,1.02 6.7,3.74 6.96,22.62 -5.91,3.37 -5.5,30.48 0.07,4.87 -0.39,16.07 4.7,17.85 1.26,0.44 15.1,2.24 6.04,-8.29 -3.21,-3.75 -2.31,-6.78 -2.19,-12.76 0.36,-18.01 4.63,-11.52 11.17,-18.43 -1.65,-4.67 -3.18,-0.77 -4.41,-8.09 -1.42,-8.44 -7,-12.73 -15.79,-10.91 -5.74,1.19 -2.8,2.76 -6.67,6.8 -6.55,-2.23 -0.42,-5.53 -11.05,-6.7 -9.77,-1.08 -6.26,1.9 -12.17,5.1 -6.32,-1.98 -4.96,-7.26 -14.01,-4.91 -10.42,2.72 -12.48,16.75 -4.11,26.88 1.55,1.88 3.78,3.65 1.11,6.88 -3.51,4.25 -5.09,-0.92 -5.01,5.52zm284.18 -106.63l7.07 -0.05 -0.05 -5.65c-5.06,0.2 -6.27,1.29 -7.02,5.7zm-384.6 27.92l71.79 0 0 -7.38 -0.01 -1.05 -68.59 0 -3.17 0 -0.02 8.43zm136.71 -12.34c-8.87,-2.5 -5.53,-13.68 -6.01,-18.49 -18.82,9.69 3.61,23.9 4.02,38.91 0.67,24.41 -17.98,15.92 -19.85,9.85 -0.5,-7.57 3.65,-8.58 2.73,-14.94 -0.75,-5.18 -4.15,-7.33 -10.08,-6.58 0.49,4.99 0.91,1.76 2.81,6.24 -1.46,7.55 -8.11,13.28 0.16,20.8 6.19,5.63 30.5,8.18 32.49,-13.24 0.85,-9.16 -4.46,-12.28 -5.17,-21.41l8.98 1.86c1.5,-2.29 2.74,-3.61 2.91,-7.63l-7.53 -1.94c-4.45,4.34 -2.45,4.11 -5.46,6.57zm119.92 -10.15c5.15,0.78 8.01,3.47 10.9,5.52 2.75,26.27 -1.29,27.48 -13,21.98 -0.7,-12.26 -1.22,-16.76 2.1,-27.5zm-8.48 -5.43c3.76,2.1 4.05,0.99 7.09,4.37 -3.01,6.23 -5.25,0.5 -9.92,6.55 1.69,5.91 2.18,5.57 2.53,13.09 0.64,13.82 -4.39,6.04 -1.44,13.62 0.14,0.34 0.59,0.33 0.78,0.4l5.1 1.33c4.2,1.27 9.5,7.94 19.94,-4.24 3.26,-3.8 2.05,-12.19 1.93,-18.77 -0.35,-18.93 -12.21,-12.21 -20.67,-20.72l2.42 -8.29c-8.77,-1.1 -11.57,5.69 -7.76,12.66zm131.01 4.5c-1.16,-20.31 12.54,-9.85 12.27,-17.96 -7.01,-2.83 -12.48,3.49 -16.76,5.55l-5.57 -1.93c1.88,3.97 4.94,4.42 4.87,10.94 -0.06,5.8 -2.51,4.93 -5.45,9.1l5.17 1.81c0.69,4.25 0.55,8.76 0.58,13.11 0.05,7.25 -1.42,5.85 -2.95,10.91 7.99,10.56 19.89,6.63 20.05,-4.55 -5.27,2.4 -2.9,5 -9.85,3.12 -1.11,-3.01 -1.63,-18.9 -1.1,-23.35 4.71,-0.18 6.98,0.93 10.99,-1.09 0.84,-6.57 -5.95,-5.45 -12.25,-5.66zm-258.68 12.97c-2.62,-4.47 -10.54,-2.57 -13.11,-7.5 -1.66,-10.59 2.25,-17.63 11.85,-18.91 9.35,-1.25 14.56,7.09 26.22,5.9 2.26,-1.35 8.7,-5.26 4.56,-9.15 -3.07,-2.9 -3.66,3.79 -12.07,0.04 -6.95,-3.1 -18.74,-5.43 -26.87,-1.52 -9.61,4.6 -15.03,25.27 -2.44,30.85 0.87,0.38 4.66,1.84 5.57,2.02 6.87,1.39 6.2,-1.62 6.29,-1.73zm289.16 17.5c-4.71,-4.08 -2.52,-7.55 -3.63,-13.49 -1.54,-8.3 -1.52,-8.63 1.13,-15.04 11.57,0.4 5.87,10.03 4.29,15.81 16.04,-2.6 11.07,-10.13 5.21,-21.34 -6.76,0.34 -3.16,2.37 -12.45,2.5 -5.33,6.9 -7.11,8.8 -5.67,20.75 1.25,10.43 2.33,13.91 8.93,19.01 4.35,-1.08 5.54,-2.08 9.44,-4.28 3.73,-2.1 6.14,-1.86 5.44,-6.87 -7.08,0.44 -4.89,4 -12.69,2.95zm-117.26 -0.66c-0.53,-2.34 -1.1,-5.22 -1.19,-8.14 -0.28,-8.63 -4.57,-11.78 1.7,-19.81l4.68 0.99c2.11,6.62 1.45,9.51 -1.86,14.51 5.64,-0.12 11.2,-1.87 11,-7.53 -0.1,-2.53 -4.03,-11.32 -5.24,-12.98 -4.18,-0.19 -9.79,2.58 -13.65,4.55 -10.86,5.53 -1.56,34.22 3.91,36.05 3.52,1.18 15.78,-4.89 16.11,-5.22 7.3,-7.31 -10.21,-1.6 -15.46,-2.42zm-71.07 -12.31c-2.79,-5.18 -0.82,-11.45 0.4,-16.67 6.19,0.23 7.11,2.85 7.08,8.87 -0.02,6.68 -1.11,8.37 -7.48,7.8zm0.02 1.56c4.36,-1.42 4.83,-1 9.26,-1.79 10,-1.78 4.19,-15.95 1.86,-20.29 -9.59,-1.43 -19,6.09 -19.32,14.84 -0.43,11.84 1.45,21.07 8.73,26.34 7.61,0.05 3.98,-1.72 9.58,-3.57 5.42,-1.79 6.14,-0.04 6.64,-6.21 -8.33,-0.15 -8.11,6.22 -17.5,-1.03l0.75 -8.29zm-60.36 -14.23c1.12,18.42 2.11,12.98 -2.19,24.51 2.25,2.23 9.32,6.84 12.86,7.68 2.74,-1.45 4.66,-2.7 7.74,-4.33 3.36,-1.78 3.68,-2.03 3.76,-6.12 -5.64,-0.38 -4.46,2.15 -10.4,2.93 -9.87,-1.84 -3.95,-20.71 -2.61,-25.42 7.43,1.4 3.5,4.01 9.96,5.16l2.89 -2.82c-0.48,-3.98 -2.87,-6.86 -4.31,-10.15 -6.21,0.65 -5.5,2.93 -9.21,7.01 -5.37,-2.4 -2.17,-2.95 -6.55,-5.97 -5.15,0.07 -7.13,1.32 -7.8,6.19l5.86 1.33zm151.82 -1.69c2.68,2.59 3.46,1.12 7.17,3.59 0.68,23.88 -1.47,17.89 -1.97,25 16.25,9.8 11.77,5.22 18,1.4 3.5,-2.14 2.72,-0.12 5.79,-3.94l-2.32 -2.81 -2.54 4.68 -10 -1.89c-0.85,-8.8 -1.74,-18.47 3.02,-24.65 8.02,1.03 1.77,5.84 10.72,4.9 2.28,-5.24 -0.64,-10.46 -5.26,-12.92 -5.78,2.44 -1.69,3.7 -7.64,6.97 -4.64,-2.52 -3.55,-3.64 -7.92,-6.24l-7.05 5.91zm-125.62 0.18l6.51 2.62c-0.07,10.14 -2.31,29.73 4.17,32.07 5.68,-0.05 8.51,-0.84 9.72,-5.62l-6.5 -2.81c-2.84,-22.54 2.29,-21.22 2.82,-26.44l-8.23 -5.81 -8.49 5.99zm160.23 -0.18l4 3.03c0.35,11.96 -2.5,26.09 4.66,31.64 4.8,-0.72 7.74,-3.13 9.26,-7.78 -8.69,-1.35 -7.12,-1.9 -7.13,-11.6 0,-2.39 -0.16,-7.41 0.51,-9.5 1.18,-3.7 2.2,-1.13 2.92,-7.33 -2.56,-1.56 -11.2,-9.94 -14.22,1.54zm81.11 44.52c5.77,1.01 4.44,-0.4 9.52,-9.58 2.43,-4.41 6.91,-7.74 5.9,-12.34 -1.22,-1.94 -4.97,-2.55 -7.19,0.11 -1.28,1.53 -8.28,17.02 -8.23,21.81zm-236.69 -61.99c2.16,14.02 12.97,4.08 9.87,-1.74 -1.79,-1.57 -2.77,-2.11 -6.03,-2.22 -2.59,1.87 -1.9,1.56 -3.84,3.96zm156.49 -0.16c2,3 3.34,5.61 6.74,6.55 3.12,-2.47 5.07,-5.36 3.75,-10.1l-7.01 -0.89 -3.48 4.44zm70.38 -72.53c2.48,8.68 4.24,-0.91 4.22,17.51 -0.01,7.82 -2.34,13.03 -0.58,19.17 15.07,3.9 7.94,-11.66 7.78,-12.86 -0.39,-2.92 -0.65,-8.44 -0.45,-11.36 0.56,-8.24 4.37,-11.17 11.48,-8.42 1.07,8.09 0.42,16.61 0.53,24.79 0.15,12.47 8.45,10.13 11.05,2.44 -4.01,-6.84 -3.24,-2.88 -3.53,-13.75 -0.45,-16.83 2.36,-16.19 -4.03,-22.15 -6.46,0.65 -8.69,3.9 -13.63,5.37 -3.4,-2.5 -3.3,-2.88 -6.03,-5.48 -4.71,0.88 -4.61,0.96 -6.81,4.74zm-390.59 30.02l-3.3 3.78c-11.48,1.55 -8.5,-4.23 -8.61,-12.65 -18.77,-4.77 -14.89,2.98 -14.08,6.65 1.81,8.16 0.17,7.58 5.45,9.2 8.46,2.6 11.28,2.89 20.15,1.77 2.85,-3.78 5.54,-3.77 6.78,-8.91 2.61,-10.83 -8.99,-14.99 1.43,-18.28 2.74,2.24 6.11,8.29 7.04,12.49 1.99,9.04 -1.99,7.66 3.79,15.93 6.08,0.21 16.66,-0.12 19.8,-4.97 -3.34,-5.4 -1.88,-1.93 -6.64,-4.11 -3.75,-1.72 -2.11,-3.67 -3.5,-8.85 -1.81,-6.72 -5.78,-10.28 -6.27,-16.73 1.86,-2.02 4.48,-3.78 6.67,-5.43 -0.43,-16.52 -21.78,-18.45 -28.52,-6.16 3.19,1.33 8.29,-0.86 15.9,4.24 1.67,1.11 1.16,0.94 2.2,2.01 -2.08,4.07 -2.74,5.04 -7.76,6.52 -4.19,1.23 -7.68,2.37 -12.67,2.05l-0.05 -9.82c-2.01,-1.92 -2.58,-1.86 -4.63,-3.61 3.14,-13.35 13.04,-15.09 25.93,-13.96 5.48,0.49 9.13,4.05 11.52,8.59 3.51,6.69 -0.01,12.52 4.65,15.79 7.93,-5.71 -1.56,-23.06 -8.7,-26.87 -22.99,-12.27 -50.98,7.94 -45.5,27.99 1.91,6.97 5.35,5.88 10.43,10.94 4.23,4.2 6.97,5.56 8.49,12.4zm156.33 -26.43c3.44,0.7 4.1,1.41 6.05,2.83 0.68,6.31 1.8,16.09 -0.07,21.9 -6.16,0.45 -6.54,-1.63 -10.59,-3.55 0.82,-10.3 -2.25,-16.34 4.61,-21.18zm-22.23 5.39c5.95,5.24 6.66,5.85 7.06,16.06 -6.84,2.51 -8.93,1.12 -9.94,10.16l9.57 -0.95c2.59,10.42 -3.36,19.57 9.79,16.26l0.37 -11.46 9.11 -0.33c5.33,-8.39 15.63,-9.8 15.79,-21.13 0.16,-10.18 -1.47,-24.07 -14.64,-23.67l-7.04 8.06c-2.91,-0.89 -8.21,-4.32 -9.91,-7.38 -0.12,-0.79 -0.24,-3.37 -0.25,-3.45l-1.41 -4c-4.82,1.26 -5.55,3.63 -7.11,8.11 -1.67,4.78 -1.61,8.24 -1.39,13.72zm123.93 -7.98c6.56,9.39 5.5,-4.39 5.42,23.94 -1.74,1.25 -3.07,2.19 -4.57,3.54 0.98,2.66 7.79,10.2 9.77,11.76 3.52,-1.29 9.62,-5.38 12.22,-7.53 -1.03,-3.29 -1.78,-4.4 -4.44,-5.19 -1.14,-11.26 -4.11,-23.68 9.76,-21.24 1.27,11.77 -3.64,31.31 6.17,33.9 6.36,-0.13 10.92,-3.75 12.53,-7.66 -2.63,-3.55 -2.64,-2.75 -6.09,-4.94 -0.23,-4.17 -0.45,-9.75 -0.11,-13.87 0.45,-5.53 2.26,-5.59 4.85,-8.71 -1.72,-4.42 -2.93,-2.8 -9.38,-11.31 -11.98,-0.48 -5.11,9.36 -19.39,7.58 -3.92,-13.59 -9.5,-7.68 -16.74,-0.27zm-201.81 25.5c0.15,-6.5 0.62,-19.87 2.75,-24.33l8.89 2.66 -0.22 21.38c-4.95,2.55 -6.26,3.01 -11.42,0.29zm-11.21 -5.23c0.02,4.44 1.4,16.09 6.49,17.95 9.96,-0.18 7.5,-5.97 14.97,-7.68 3.22,2.42 3.92,4.6 5.98,7.31 6.95,0.29 12.47,-3.38 13.43,-8.29l-6.68 -3.3 -1.15 -17.9c2.1,-2.04 1.5,-1 2.8,-2.35 0.19,-0.19 0.5,-0.43 0.69,-0.64l1.77 -2.61c-3.3,-4.76 -3.16,-3.29 -7.45,-5.7 -3.57,-2.01 -3.99,-3.56 -8.14,-5.9l-16.2 9.11c-7.36,5.25 -6.57,8.33 -6.51,20zm142.53 -20.02l-2.72 2.25c4.32,6.25 5.34,11.44 6.06,20.25 1.2,14.61 2.23,6.54 2.51,28.81 8.05,2.59 7.51,-0.01 7.71,-7.5 0.3,-10.78 3.8,-12.01 2.15,-32.54 -1.08,-13.35 11.7,-0.85 10.65,-9.99 -0.57,-4.98 -4.02,-3.78 -16.89,-3.78 -2.21,-3.11 -1.15,-2.08 -3.15,-2.51 -0.96,-6.81 -1.77,-7.18 2.4,-11.53 5.45,0.43 15.78,11.69 22.46,-4.85l-10.29 -3.21c-8.88,-2.43 -16.19,3.34 -19.58,9.61 -2.14,3.96 -1.14,10.35 -1.31,14.99zm-96.34 0c6.17,6.26 6.41,2.43 5.74,18.86 -0.4,9.81 -2.89,3.8 -3.03,11.16 5.27,4.57 4.61,1.18 9.52,7.51 7.37,-0.02 19.22,-5.94 19.76,-10.58 -6.21,-2.07 -4.09,0.89 -11.71,0.28 -5.08,-10.07 -3.73,-11.6 -0.51,-20.91 7.46,1.73 3.12,1.88 7.81,5.87 4.74,-0.42 7.53,-3.07 7.61,-8.37 0.08,-5.55 -1.66,-9.44 -6.25,-11.04 -5.9,3.5 -3.5,8.01 -11.36,9.45 -2.08,-4.63 -0.6,-4.67 -4.55,-9.59 -7.49,-1.01 -11.24,2.07 -13.03,7.36zm142.52 14.96c-1.03,-3.65 -1.9,-7.28 -0.54,-11.85l4.05 0.64c1.92,3.69 1.43,6.03 0.81,10.87l-4.32 0.34zm-12.62 -9.95l1.28 26.44c3.35,3.04 4.9,5.56 10.08,7.81 4.33,-1.35 7.42,-2.85 11.32,-4.12 5.33,-1.73 8.63,-2.81 6.59,-8.05 -7.12,-2.03 -15.1,4.85 -15.53,-8.32 3.54,-2.01 6.14,-1.94 8.84,-3.77 2.37,-1.59 5.86,-4.84 7.27,-6.1 0.02,-7.46 -2.94,-10.92 -7.26,-14.98 -6.65,0.31 -18.75,7.3 -22.59,11.09z"/>
  </g>
 </g>
</svg>
