<?xml version="1.0" encoding="UTF-8"?>
<!DOCTYPE svg PUBLIC "-//W3C//DTD SVG 1.1//EN" "http://www.w3.org/Graphics/SVG/1.1/DTD/svg11.dtd">
<!-- Creator: CorelDRAW 2020 (64 Bit) -->
<svg xmlns="http://www.w3.org/2000/svg" xml:space="preserve" width="512px" height="512px" version="1.1" style="shape-rendering:geometricPrecision; text-rendering:geometricPrecision; image-rendering:optimizeQuality; fill-rule:evenodd; clip-rule:evenodd"
viewBox="0 0 512 512"
 xmlns:xlink="http://www.w3.org/1999/xlink"
 xmlns:xodm="http://www.corel.com/coreldraw/odm/2003">
 <defs>
  <style type="text/css">
   <![CDATA[
    .fil2 {fill:#333333}
    .fil1 {fill:#FFEB9C}
    .fil0 {fill:white}
   ]]>
  </style>
 </defs>
 <g id="Camada_x0020_1">
  <metadata id="CorelCorpID_0Corel-Layer"/>
  <path class="fil0" d="M256 0c141.38,0 256,114.61 256,256 0,141.39 -114.62,256 -256,256 -141.39,0 -256,-114.61 -256,-256 0,-141.39 114.61,-256 256,-256z"/>
  <path class="fil1" d="M3.04 295.53l124.32 0 0 135.47 -58.18 0c-34.38,-36.69 -58.08,-83.49 -66.14,-135.47zm283.41 -214.53l135.48 0 0 135.47 -135.48 0 0 -135.47zm98.19 214.53l124.32 0c-8.06,51.98 -31.76,98.78 -66.14,135.47l-58.18 0 0 -135.47z"/>
  <path class="fil2" d="M257.59 298.7l66.15 132.3 -135.48 0 66.15 -132.3 0 -42.7 3.18 0 0 42.7zm-65.91 -151.55l93.27 0 0 -67.65 1.5 0 136.98 0 0 138.47 -67.65 0 0 38.03 -3.18 0 0 -38.03 -67.65 0 0 -67.65 -92.47 0 33.07 66.15 -66.15 0 0 39.53 -3.17 0 0 -39.53 -66.15 0 67.73 -135.47 33.87 67.74 0 -1.59zm-133.64 146.88l0 -38.03 3.17 0 0 38.03 67.65 0 0 138.47 -60.33 0 -0.45 -0.48c-17.51,-18.68 -32.26,-39.98 -43.61,-63.23 -11.07,-22.66 -18.91,-47.21 -22.91,-73.03l-0.27 -1.73 1.75 0 55 0zm392.75 0l0 -38.03 3.17 0 0 38.03 56.74 0 -0.26 1.73c-4.01,25.82 -11.84,50.37 -22.91,73.03 -11.35,23.25 -26.11,44.55 -43.62,63.23l-0.44 0.48 -60.33 0 0 -138.47 1.5 0 66.15 0zm-391.17 -39.62l392.76 0 0 3.18 -392.76 0 0 -3.18zm66.24 42.62l-121.07 0c4.03,24.87 11.67,48.53 22.37,70.45 11.13,22.79 25.56,43.67 42.66,62.02l56.04 0 0 -132.47zm381.35 0l-121.07 0 0 132.47 56.04 0c17.1,-18.35 31.53,-39.23 42.66,-62.02 10.7,-21.92 18.34,-45.58 22.37,-70.45zm-86.78 -214.53l-132.48 0 0 132.47 132.48 0 0 -132.47z"/>
 </g>
</svg>
