<?xml version="1.0" encoding="UTF-8"?>
<!DOCTYPE svg PUBLIC "-//W3C//DTD SVG 1.1//EN" "http://www.w3.org/Graphics/SVG/1.1/DTD/svg11.dtd">
<!-- Creator: CorelDRAW 2020 (64 Bit) -->
<svg xmlns="http://www.w3.org/2000/svg" xml:space="preserve" width="512px" height="512px" version="1.1" style="shape-rendering:geometricPrecision; text-rendering:geometricPrecision; image-rendering:optimizeQuality; fill-rule:evenodd; clip-rule:evenodd"
viewBox="0 0 512 512"
 xmlns:xlink="http://www.w3.org/1999/xlink"
 xmlns:xodm="http://www.corel.com/coreldraw/odm/2003">
 <defs>
  <style type="text/css">
   <![CDATA[
    .fil1 {fill:black}
    .fil0 {fill:#E6E6E6}
    .fil2 {fill:black;fill-rule:nonzero}
   ]]>
  </style>
 </defs>
 <g id="Camada_x0020_1">
  <metadata id="CorelCorpID_0Corel-Layer"/>
  <path class="fil0" d="M471.49 356.38c-1.94,-1.38 -4.19,-3.32 -6.34,-4.37 -1.64,1.08 -31.63,44.52 -35.61,50.18 -2.98,4.24 -15.26,23.15 -18.42,24.56 -6.15,2.75 -12.41,-3.54 -9.28,-9.76l61.95 -88.55c2.29,-3.17 17.07,-23.5 17.32,-25.64 -2.99,-2.29 -7.91,-6.04 -10.96,-7.55 -1.43,0.94 -8.26,11 -9.97,13.57 -3.08,4.62 -6.62,9.39 -9.92,14.11l-88.8 126.68c-4.77,7 1.37,14.01 8.29,11.3 2.78,-1.09 8.08,-9.87 10.59,-13.41 3.95,-5.55 6.94,-11.96 12.64,-11.03 3.12,0.51 5.6,3.1 5.83,6.33 0.28,3.86 -1.88,5.94 -3.71,8.47 -7.22,9.94 -12.45,21.7 -23.59,23.98 -14.04,2.87 -26.83,-7.91 -26.13,-21.96 0.37,-7.53 4.5,-11.76 7.76,-16.5 25.57,-37.17 53.84,-75.99 78.98,-112.52l39.48 -56.47c-0.83,-1.06 -4.98,-4.1 -6.45,-4.56 -3.99,4.42 -87.19,124.14 -94.56,134.5 -3.68,5.17 -28.7,40.16 -31.09,45.4 -9.81,21.56 8.11,43.61 30.65,41.19 11.72,-1.26 17.04,-7.47 22.69,-15.33l31.54 -44.97c4.83,-7.05 10.82,-15.78 15.86,-22.64 3.33,-4.53 30.86,-43.56 31.25,-45.01zm-304.49 -343.58l-10.36 14.8 5.28 -7.53c5.74,-8.02 3.45,-3.85 6.69,-7.27l-1.61 0zm-20.54 29.32l-16.82 24.02c1.24,-1.61 2.74,-3.03 5.05,-3.33 4.89,-0.63 11.77,4.22 5.73,12.77l-106.32 151.68c-1.75,2.52 -3.2,4.21 -4.44,7.07 -2.79,6.46 -1.91,13.71 1.24,19.22 2.67,4.65 7.76,7.55 12.55,10.96l41.13 28.85c9.89,6.73 107.4,76 110.07,76.84 2.15,-2.08 41.69,-59.11 42.74,-60.66 10.24,-15.11 10.53,-12.11 30.43,2.09 10.27,7.33 19.91,14.07 30.28,21.23 10.26,7.09 20.7,14.27 30.55,21.44 18.38,13.37 22.69,11.34 11.12,27.62 -7.21,10.14 -13.87,19.71 -21.25,30.26 -3.66,5.23 -7.16,10.05 -10.72,15.28 -2.17,3.19 -9.63,12.92 -10.37,15.54 5.58,2.67 21.26,15.76 25.38,17.03 -0.61,-18.19 3.4,-23.35 11.18,-34.88 6.23,-9.23 12.68,-18.18 18.99,-27.02 25.08,-35.15 50.81,-72.59 75.6,-107.9l37.67 -53.93c-1.72,-1.9 -15.32,-11.05 -18.36,-13.24l-275.24 -192.84c-0.91,0.63 -0.19,-0.01 -1.1,0.99 -0.32,0.36 -0.57,0.74 -0.85,1.15l-10.3 14.68c-1.91,2.62 -3.56,6.33 -7.83,6.61 -4.29,0.28 -7.5,-2.74 -7.62,-6.85 -0.04,-1.52 0.62,-3.14 1.51,-4.68zm-30.29 43.25l-6.33 9.05c2.16,-3.05 4.26,-6.06 6.33,-9.05zm-56.4 80.54l-7.57 10.82c2.58,-3.58 5.08,-7.19 7.57,-10.82zm-5.73 72.66c4.48,-1.55 8.31,2.26 10.83,4l62.3 43.71c11.78,8.15 24.28,16.77 35.82,25.18 3.95,2.87 24.53,16.13 26.08,19.41 2.05,4.36 -0.83,8.77 -4.1,9.78 -4.62,1.42 -8.45,-2.3 -11.04,-4.14l-44.65 -31.34c-6,-4.05 -11.76,-8.15 -17.61,-12.39l-53.75 -37.74c-2.48,-1.71 -6.9,-4.2 -8.11,-6.91 -2.05,-4.63 0.96,-8.43 4.23,-9.56zm17.7 -24.84c4.06,-1.41 7.97,2.29 10.47,4.02l44.64 31.36c23.34,16.86 48.04,33.46 71.69,50.3 2.59,1.84 6.81,4.17 8,6.97 1.84,4.37 -1.02,8.44 -4.26,9.54 -4.34,1.48 -8.06,-2.06 -10.76,-3.99l-116.31 -81.69c-2.36,-1.65 -6.91,-4.32 -8.09,-6.92 -2.16,-4.76 1.24,-8.41 4.62,-9.59zm17.27 -24.68c4.38,-1.4 7.89,2.16 10.75,4.12l116.07 81.44c2.43,1.73 6.84,4.38 8.06,6.95 1.98,4.16 -0.86,8.41 -4,9.49 -4.73,1.62 -8.4,-2.03 -11.06,-3.93l-80.21 -56.29c-3.56,-2.46 -42.66,-29.06 -44.05,-31.94 -2.21,-4.61 0.83,-8.68 4.44,-9.84zm87.46 -126.48c3.14,-1.27 5.61,0.04 7.84,1.58l175.67 123.29c8.22,5.67 15.01,10.62 22.92,16.12l45.23 31.76c3.36,2.46 9.57,5.55 5.97,12.41l-63.69 90.83c-4.67,6.83 -8.36,14.39 -16.71,8.18 -12.52,-9.31 -26.72,-18.53 -39.61,-27.88 -15.06,-10.93 -30.15,-20.9 -45.25,-31.75l-45.54 -31.95c-30.06,-20.24 -60.73,-43.31 -90.78,-63.72 -7.7,-5.23 -14.8,-10.63 -22.62,-15.89 -3.14,-2.12 -9.14,-5.57 -5.84,-11.83 0.84,-1.61 2.81,-4.19 3.86,-5.66l35.89 -51.09c5.37,-7.48 10.59,-15.53 15.85,-22.65 3.16,-4.29 12.9,-20.15 16.81,-21.75zm-56.01 102.73c1.64,1.95 11.79,8.57 14.64,10.56l103.7 72.79c9.94,6.91 19.47,14.02 29.69,20.81l29.67 20.83c16.31,11.86 35.11,24.34 51.71,36.29 2.04,1.47 5.78,4.36 7.84,5.12 4.06,-4.55 59.81,-85.17 60.06,-85.9 -1.15,-1.5 -78.56,-55.68 -88.57,-62.55 -39.58,-27.22 -79.11,-56.06 -118.71,-83.3 -4.2,-2.89 -27.75,-19.95 -29.84,-20.59 -2.64,3.04 -5.25,7.31 -7.47,10.48l-52.72 75.46zm86.23 213.5c1.79,1.93 54.2,38.28 58.9,41.56 3.65,2.54 17.59,12.98 20.33,13.68 3.73,-6.15 26.44,-38.04 32.07,-45.9l10.9 -15.84c-1.26,-1.7 -7.6,-5.79 -9.6,-7.14 -3.48,-2.34 -6.57,-4.63 -10,-7 -6.59,-4.56 -13.18,-9.17 -19.66,-13.85l-39.48 -27.53c-0.83,0.55 -42.96,59.95 -43.46,62.02z"/>
  <path class="fil1" d="M206.49 379.1c0.5,-2.07 42.67,-61.45 43.49,-61.99l39.47 27.54c6.48,4.69 13.07,9.3 19.65,13.87 3.43,2.37 6.52,4.66 10,7 1.99,1.35 8.34,5.45 9.6,7.15l-10.92 15.83c-5.63,7.86 -28.36,39.74 -32.09,45.88 -2.74,-0.7 -16.68,-11.15 -20.32,-13.69 -4.71,-3.28 -57.09,-39.66 -58.88,-41.59zm163.56 -83.73l-6.14 -4.3 5.55 -7.93c1.17,-1.66 1.03,-2.69 -0.62,-3.85 -1.17,-0.9 -2.31,-1.7 -3.55,-2.49 -1.64,-1.06 -2.52,-0.91 -3.64,0.69 -1.06,1.47 -3.2,4.5 -5.69,8.01l-6.33 -4.43c-1.26,-0.88 -2.5,-0.81 -3.4,0.35 -1.08,1.3 -2,2.62 -2.81,4.02 -0.75,1.18 -0.5,2.3 0.76,3.18 1.47,0.95 2.91,1.95 4.3,3.01 1.84,1.29 1.93,1.52 0.6,3.41 -2.22,3.27 -9.9,14.34 -14.62,21.16 -12.29,-8.56 -24.98,-17.21 -36.45,-25.55l-29.66 -20.85c-10.21,-6.8 -19.74,-13.91 -29.67,-20.83l-103.67 -72.86c-2.84,-1.98 -12.99,-8.61 -14.63,-10.56l52.77 -75.43c2.22,-3.16 4.83,-7.43 7.47,-10.48 2.1,0.65 25.63,17.72 29.83,20.62 39.59,27.26 79.1,56.12 118.67,83.36 10,6.88 87.38,61.09 88.52,62.6 -0.25,0.73 -56.04,81.32 -60.1,85.86 -2.06,-0.76 -5.8,-3.65 -7.84,-5.12 -2.39,-1.72 -4.82,-3.45 -7.28,-5.19l14.47 -20.66c1.64,-2.36 1.8,-2.33 4.21,-0.65 1.2,0.85 2.44,1.63 3.61,2.53 1.32,0.93 2.52,0.92 3.7,-0.4 0.95,-1.12 1.76,-2.27 2.49,-3.55 0.79,-1.5 0.47,-2.75 -0.85,-3.67zm-298.41 -81.42c-3.39,1.18 -6.79,4.83 -4.63,9.59 1.18,2.6 5.73,5.28 8.09,6.92l116.26 81.76c2.7,1.93 6.42,5.47 10.75,4 3.25,-1.1 6.11,-5.17 4.27,-9.54 -1.19,-2.8 -5.41,-5.13 -7.99,-6.97 -23.65,-16.85 -48.33,-33.47 -71.66,-50.35l-44.63 -31.38c-2.49,-1.73 -6.41,-5.44 -10.46,-4.03zm-17.72 24.83c-3.27,1.13 -6.28,4.93 -4.23,9.56 1.2,2.71 5.62,5.2 8.1,6.91l53.73 37.78c5.85,4.23 11.6,8.34 17.6,12.39l44.63 31.38c2.59,1.84 6.43,5.56 11.04,4.14 3.27,-1.01 6.15,-5.42 4.11,-9.78 -1.55,-3.28 -22.13,-16.55 -26.07,-19.43 -11.54,-8.42 -24.03,-17.04 -35.8,-25.19l-62.28 -43.75c-2.52,-1.74 -6.35,-5.56 -10.83,-4.01zm35 -49.49c-3.62,1.15 -6.65,5.22 -4.44,9.83 1.38,2.88 40.46,29.5 44.03,31.96l80.18 56.34c2.65,1.9 6.32,5.55 11.05,3.94 3.14,-1.08 5.99,-5.33 4.01,-9.49 -1.22,-2.57 -5.63,-5.23 -8.06,-6.95l-116.02 -81.51c-2.86,-1.97 -6.37,-5.52 -10.75,-4.12zm87.53 -126.43c-3.9,1.59 -13.65,17.44 -16.82,21.73 -5.26,7.12 -10.49,15.17 -15.87,22.64l-35.91 51.08c-1.06,1.46 -3.02,4.04 -3.87,5.65 -3.3,6.26 2.7,9.71 5.84,11.83 7.81,5.27 14.91,10.67 22.61,15.91 30.03,20.42 60.7,43.51 90.74,63.76l45.52 31.98c15.1,10.86 30.18,20.85 45.23,31.78 12.88,9.36 27.08,18.59 39.6,27.91 8.34,6.21 12.04,-1.35 16.72,-8.18l63.74 -90.79c3.6,-6.86 -2.61,-9.95 -5.97,-12.41l-45.21 -31.79c-7.91,-5.5 -14.7,-10.45 -22.91,-16.13l-175.6 -123.4c-2.23,-1.54 -4.7,-2.85 -7.84,-1.57zm294.85 293.97c-0.39,1.45 -27.94,40.46 -31.27,44.99 -5.05,6.86 -11.04,15.59 -15.88,22.64l-31.56 44.94c-5.66,7.86 -10.98,14.06 -22.7,15.32 -22.54,2.41 -40.45,-19.65 -30.63,-41.21 2.39,-5.24 27.43,-40.2 31.12,-45.37 7.38,-10.36 90.65,-130.03 94.63,-134.45 1.47,0.46 5.62,3.5 6.46,4.56l-39.52 56.45c-25.16,36.52 -53.45,75.32 -79.04,112.47 -3.26,4.74 -7.4,8.97 -7.78,16.5 -0.69,14.05 12.08,24.83 26.13,21.97 11.13,-2.27 16.37,-14.02 23.59,-23.96 1.84,-2.53 4,-4.61 3.73,-8.47 -0.23,-3.23 -2.72,-5.82 -5.83,-6.33 -5.7,-0.94 -8.7,5.47 -12.65,11.02 -2.51,3.53 -7.81,12.31 -10.6,13.4 -6.91,2.71 -13.05,-4.3 -8.28,-11.3l88.88 -126.63c3.3,-4.72 6.83,-9.48 9.92,-14.1 1.72,-2.58 8.55,-12.63 9.98,-13.57 3.05,1.51 7.96,5.27 10.96,7.56 -0.25,2.13 -15.05,22.45 -17.34,25.62l-62 88.52c-3.13,6.22 3.12,12.51 9.27,9.76 3.16,-1.41 15.45,-20.3 18.44,-24.54 3.98,-5.66 33.99,-49.08 35.63,-50.16 2.15,1.05 4.4,2.99 6.34,4.37zm-110.94 142.36l9.78 0.01c1.65,-0.74 5.32,-0.95 7.67,-1.61 2.32,-0.65 4.55,-1.41 6.63,-2.33 4,-1.78 8.46,-4.69 11.2,-7.29 8.27,-7.81 49.07,-68.74 61.01,-85.01l30.1 -42.91c7.15,-10.63 -10.08,-14.56 -13.44,-19.8l10.46 -15.2c3.53,-4.92 7,-10.1 10.31,-14.69 5.13,-7.13 6.87,-10.82 -1.06,-16.12 -3.09,-2.07 -12.82,-8.55 -14.47,-10.48 1.87,-5.11 10.89,-12.51 10.09,-18.5 -0.76,-5.61 -11.4,-9.62 -15.11,-13.5 0.5,-1.81 5.56,-8.5 7.01,-10.48 3,-4.08 4.57,-7.71 0.25,-11.78l-20.44 -14.56c-40.09,-28.67 -83.09,-58.04 -123.35,-86.66l-61.69 -43.33c-30.87,-21.06 -61.74,-44.09 -92.49,-65.02l-10.46 -6.85 -3.74 0c-3.24,3.42 -0.95,-0.75 -6.7,7.27l-11.97 17.03c-1.56,2.26 -5.1,6.23 -5.01,9.68 0.12,4.12 3.33,7.14 7.61,6.86 4.27,-0.28 5.93,-3.99 7.84,-6.6l10.31 -14.68c0.28,-0.41 0.53,-0.79 0.85,-1.15 0.91,-1 0.19,-0.36 1.1,-0.99l275.13 193c3.04,2.19 16.64,11.35 18.36,13.25l-37.71 53.9c-24.81,35.3 -50.56,72.73 -75.66,107.86 -6.31,8.84 -12.77,17.78 -19,27.01 -7.79,11.53 -11.81,16.69 -11.21,34.88 -4.11,-1.28 -19.79,-14.38 -25.37,-17.04 0.75,-2.63 8.21,-12.35 10.38,-15.54 3.57,-5.23 7.07,-10.05 10.73,-15.28 7.38,-10.54 14.05,-20.11 21.26,-30.25 11.59,-16.27 7.28,-14.24 -11.1,-27.62 -9.84,-7.17 -20.28,-14.36 -30.54,-21.46 -10.35,-7.17 -20,-13.91 -30.26,-21.25 -19.89,-14.2 -20.18,-17.2 -30.43,-2.11 -1.05,1.56 -40.62,58.56 -42.78,60.64 -2.66,-0.83 -100.14,-70.16 -110.02,-76.9l-41.12 -28.88c-4.78,-3.4 -9.87,-6.31 -12.54,-10.96 -3.14,-5.51 -4.02,-12.77 -1.22,-19.22 1.23,-2.86 2.68,-4.55 4.44,-7.07l106.41 -151.62c6.04,-8.54 -0.84,-13.4 -5.73,-12.77 -3.32,0.43 -4.95,3.17 -6.57,5.45 -6.59,9.27 -12.67,18.25 -19.36,27.65 -13.2,18.53 -25.96,37.18 -38.81,55.19 -6.62,9.28 -12.54,18.4 -19.14,27.39l-29.1 41.4c-3.33,4.82 -6.13,8.89 -7.48,15.95 -3.04,15.92 4.92,28.12 12.49,34.2l27.27 19.25c9.57,6.58 18.27,12.7 27.56,19.43 26.3,19.03 55.42,38.84 82.56,57.97l165.32 116.2c6.55,4.57 14.03,10.57 21.67,13.33 2.68,0.97 7.49,1.46 9.28,2.71z"/>
  <path class="fil2" d="M177.32 146.18c-2.27,-2.87 -11.14,-8.74 -12.69,-9.82 -2.35,-1.65 -3.56,-1.39 -5.09,1.04 -6.25,9.65 -22.02,31.08 -22.74,32.71 -0.59,1.21 -0.36,2.23 0.73,2.99 1.11,0.86 2.26,1.66 3.4,2.47 2.12,1.48 2.94,1.29 4.49,-0.8 1.64,-2.35 3.53,-5.04 5.22,-7.45 1.4,-2.01 1.79,-2.08 3.74,-0.71 0.86,0.6 1.68,1.26 2.58,1.81 3.8,2.14 7.75,3.46 12.02,1.75 4.94,-1.93 8.05,-5.64 10.12,-10.43 2.15,-4.91 1.52,-9.37 -1.78,-13.56zm-8.59 12.02c-2.41,3.44 -5.86,4.1 -8.84,2.01 -1.21,-0.84 -2.83,-2.06 -1.75,-3.61 1.81,-2.58 3.66,-5.22 5.5,-7.86 0.81,-1.15 1.82,-1.37 2.99,-0.47 0.3,0.3 0.69,0.48 1.03,0.72 3.36,2.52 3.72,5.42 1.07,9.21zm26.55 27.56c-2.58,3.32 -4.64,6.75 -6.09,10.52 -3.01,7.72 -0.66,13.64 5.76,18.14 3.21,2.25 7.02,3.28 11.41,2.26 3.73,-0.81 6.58,-3.17 9.12,-5.83 4.28,-4.53 7.76,-9.61 10.51,-15.12 2.23,-4.42 3.52,-9.07 1.01,-13.9 -1.28,-2.44 -3.06,-4.29 -5.13,-5.73 -6.14,-4.3 -12.14,-5 -18.28,0.1 -3.26,2.84 -6.13,5.96 -8.31,9.56zm8.91 5.22c1.22,-1.63 2.78,-4.47 5.16,-6.64 2.38,-2.18 4.93,-2.53 6.83,-1.21 2.17,1.53 3.06,4.29 1.73,6.68 -3.07,5.72 -6.8,11.05 -11.22,15.9 -1.94,2.15 -4.42,2.29 -6.72,0.68 -2.35,-1.64 -2.85,-3.61 -1.64,-6.44 1.29,-2.94 3.37,-5.42 5.86,-8.97zm60.56 44.28c-0.75,-2.83 -1.96,-5.39 -3.22,-7.98 -0.96,-2.04 -2.04,-4.16 -2.45,-6.5 -0.26,-1.72 0.34,-3.18 1.8,-4.04 1.4,-0.9 2.84,-0.4 4.1,0.48 1.63,1.22 2.27,2.87 1.83,4.96 -0.29,1.51 0.09,2.8 1.44,3.56 1.39,0.81 2.82,1.47 4.24,2.12 1.13,0.45 2.09,0.19 2.8,-0.94 2.34,-4.09 1.93,-9.59 -1.06,-13.14 -1.15,-1.4 -2.41,-2.54 -3.79,-3.5 -1.95,-1.37 -4.14,-2.39 -6.51,-3.02 -7.52,-2.2 -16.43,6.01 -14.46,13.45 0.66,2.35 1.23,4.71 2.23,6.95 1.16,2.61 2.46,5.14 3.35,7.9 0.42,1.23 0.64,2.5 0.26,3.77 -0.44,1.49 -1.24,2.64 -2.84,2.97 -1.17,0.2 -2.46,-0.27 -3.61,-1.07 -2.01,-1.41 -3.43,-3.77 -2.8,-5.64 0.88,-2.72 0.42,-3.29 -2.42,-4.85 -0.78,-0.47 -1.67,-0.92 -2.49,-1.32 -1.27,-0.63 -2.28,-0.4 -3.13,0.8 -2.43,3.59 -2.69,7.26 -0.95,11.12 1.3,2.79 3.33,4.9 5.93,6.55 1.41,1.16 3.06,1.97 4.83,2.61 4.85,1.86 9.33,1.32 13.2,-2.12 4.04,-3.58 5.12,-8.04 3.72,-13.12zm62.41 14.9l-20.41 -14.29c-1.26,-0.88 -2.51,-0.82 -3.41,0.35 -1.08,1.29 -2,2.61 -2.81,4.01 -0.75,1.19 -0.5,2.3 0.76,3.19 1.48,0.94 2.91,1.95 4.3,3.01 1.84,1.28 1.93,1.52 0.6,3.41 -2.87,4.23 -14.86,21.47 -17.77,25.75 -1.12,1.6 -0.97,2.48 0.6,3.66 1.16,0.91 2.31,1.71 3.55,2.49 1.66,1.17 2.68,0.94 3.84,-0.72l17.59 -25.12c1.64,-2.35 1.8,-2.33 4.21,-0.64 1.2,0.84 2.45,1.63 3.61,2.53 1.32,0.92 2.52,0.91 3.7,-0.4 0.96,-1.13 1.76,-2.27 2.49,-3.56 0.79,-1.49 0.47,-2.74 -0.85,-3.67zm-132.6 -124.28c5.68,-0.3 9.58,-3.55 12.38,-8.17 3.55,-5.8 2.98,-12.79 -1.6,-17.36 -1.9,-1.92 -3.94,-3.53 -6.12,-5.05 -2.25,-1.66 -4.68,-3.19 -7.02,-4.74 -1.54,-1.09 -2.73,-0.62 -3.85,0.99 -3.79,5.4 -19.11,27.28 -22.84,32.61 -1.2,1.72 -1.03,2.7 0.65,3.96 1.05,0.82 2.23,1.57 3.32,2.33 1.89,1.32 3.07,1.12 4.39,-0.77 1.85,-2.64 3.93,-5.62 5.74,-8.2 0.85,-1.21 1.48,-1.62 2.85,-0.66 1.03,0.72 1.78,2.1 1.52,3.2 -0.93,3.53 -2.15,7.47 -3.09,11 -0.55,2.01 -0.16,3.65 1.8,4.76 0.94,0.49 1.76,1.15 2.62,1.75 3.27,2.29 4.25,1.86 5.02,-2.04 0.02,-0.16 0.04,-0.31 0.11,-0.52 0.62,-3.58 1.59,-7.52 2.31,-11.12 0.18,-0.98 0.47,-1.89 1.81,-1.97zm-8.04 -14.27c0.97,-1.38 4.63,-6.61 5.52,-7.88 0.68,-1.1 1.52,-1.2 2.65,-0.49 0.23,0.16 0.4,0.28 0.63,0.44 2.47,1.72 4.94,3.8 3.67,7.09 -0.42,1.08 -0.93,2.17 -1.63,3.05 -2.4,3.19 -6.12,3.75 -9.05,1.7 -1.2,-0.85 -2.88,-2.36 -1.79,-3.91l0 0zm32.5 25.58c-3.73,5.34 -7.42,10.61 -11.12,15.89 -1.48,2.12 -1.26,3.39 0.86,4.87 5.97,4.18 11.99,8.39 18.01,12.61 1.6,1.12 2.73,0.97 3.93,-0.49 0.88,-1.01 1.62,-2.2 2.39,-3.29 1.27,-1.93 1.05,-2.85 -0.84,-4.17 -3.67,-2.57 -7.24,-5.16 -10.89,-7.63 -1.36,-0.87 -1.46,-1.71 -0.52,-2.93 0.94,-1.22 1.81,-2.58 2.75,-3.8 0.8,-1.15 1.7,-1.46 2.92,-0.51 2.14,1.58 4.3,3.01 6.48,4.53 1.32,0.93 2.71,1.13 3.83,-0.22 1.04,-1.24 2,-2.62 2.81,-4.01 0.67,-1.08 0.53,-2.11 -0.55,-2.87 -2.24,-1.57 -4.22,-3.38 -6.52,-4.73 -2.03,-1.25 -2.04,-1.6 -0.83,-3.58 0.55,-0.9 1.09,-1.8 1.75,-2.62 1.56,-1.98 1.91,-1.99 3.97,-0.55 3.16,2.21 6.37,4.46 9.58,6.71 2.06,1.44 2.75,1.32 4.21,-0.65 0.64,-0.91 1.32,-1.89 2.01,-2.86 1.32,-1.89 1.19,-2.67 -0.61,-4.02 -5.91,-4.13 -11.75,-8.23 -17.6,-12.32 -2.28,-1.51 -3.39,-1.26 -4.96,0.97 -3.65,5.22 -7.34,10.5 -11.06,15.67zm50.66 11.63c-3.74,5.33 -18.63,26.6 -22.37,31.94 -1.36,1.95 -1.14,3.21 0.67,4.65 1.03,0.73 2.12,1.49 3.16,2.21 1.99,1.31 3.25,1.09 4.58,-0.81 2.61,-3.72 17.3,-24.71 22.04,-31.48 1.89,-2.69 1.68,-3.61 -1.04,-5.59 -0.86,-0.6 -1.72,-1.21 -2.58,-1.81 -2.04,-1.35 -3.06,-1.12 -4.46,0.89zm15.32 62.94c2.28,1.86 5.21,3.05 8.57,3.01 3.65,-0.09 7.01,-0.99 9.77,-3.58 1.57,-1.38 1.64,-2.7 0.13,-4.1 -1.15,-1.15 -2.31,-2.3 -3.69,-3.27 -1.01,-0.62 -1.9,-0.82 -2.87,-0.04 -2.83,2.2 -5.47,1.47 -7.71,-0.1 -2.48,-1.83 -3.04,-4.44 -1.98,-7.54 0.69,-2.08 2.06,-3.68 3.09,-5.52 2.1,-3.49 4.55,-6.74 7.77,-9.26 2.5,-2.1 5.09,-2.51 7.84,-0.58 2.35,1.64 3.18,3.76 2.5,7.05 -0.2,0.88 -0.19,1.49 0.55,2.01 1.54,0.99 3.07,1.97 4.82,2.52 2.01,0.55 2.71,0.27 3.48,-1.67 2.58,-6.74 -0.25,-13.68 -5.99,-17.69 -7.17,-5.02 -14.47,-3.99 -20.97,1.89 -4.52,4.01 -8.03,8.9 -10.76,14.26 -1.77,3.37 -2.88,7.04 -2.5,10.89 0.56,5.18 3.51,8.78 7.95,11.72zm59.14 36.97l22.04 -31.48c1.83,-2.74 1.68,-3.62 -1.04,-5.6l-2.58 -1.81c-2.04,-1.35 -3.12,-1.16 -4.52,0.85l-7.55 10.78c-0.44,0.63 -1.32,0.79 -1.95,0.35 -2.75,-1.93 -6.84,-4.88 -8.79,-6.24 -0.59,-0.51 -0.75,-1.38 -0.3,-2.01l7.06 -10.09c1.89,-2.7 1.68,-3.62 -1.03,-5.6l-2.58 -1.81c-2.05,-1.35 -3.07,-1.12 -4.47,0.89 -3.79,5.29 -7.43,10.61 -11.12,15.88l-11.25 16.06c-1.36,1.95 -1.14,3.21 0.67,4.66l3.16 2.2c1.99,1.31 3.25,1.09 4.58,-0.8l7.95 -11.36c0.44,-0.63 1.32,-0.78 1.95,-0.34 2.71,1.98 6.82,4.77 8.83,6.18 0.69,0.48 0.84,1.36 0.4,1.99 -2.67,3.69 -5.28,7.41 -7.87,11.24 -1.36,1.95 -1.2,3.18 0.67,4.66l3.15 2.2c2,1.31 3.26,1.09 4.59,-0.8zm47.72 10.43c-0.75,-2.83 -1.95,-5.39 -3.21,-7.98 -0.96,-2.04 -2.04,-4.16 -2.45,-6.5 -0.26,-1.72 0.34,-3.18 1.8,-4.04 1.4,-0.9 2.84,-0.4 4.1,0.48 1.63,1.23 2.27,2.87 1.83,4.96 -0.29,1.51 0.09,2.8 1.43,3.56 1.4,0.81 2.83,1.47 4.25,2.12 1.13,0.46 2.09,0.19 2.8,-0.94 2.34,-4.09 1.93,-9.59 -1.06,-13.14 -1.15,-1.4 -2.41,-2.54 -3.79,-3.5 -1.95,-1.37 -4.14,-2.39 -6.51,-3.02 -7.52,-2.2 -16.43,6.01 -14.46,13.45 0.66,2.35 1.23,4.71 2.22,6.95 1.17,2.61 2.47,5.14 3.36,7.9 0.42,1.23 0.64,2.5 0.26,3.78 -0.44,1.48 -1.24,2.63 -2.84,2.96 -1.17,0.2 -2.46,-0.27 -3.61,-1.07 -2.01,-1.41 -3.43,-3.77 -2.8,-5.64 0.87,-2.72 0.42,-3.29 -2.42,-4.85 -0.78,-0.47 -1.67,-0.92 -2.49,-1.32 -1.27,-0.63 -2.28,-0.4 -3.13,0.8 -2.43,3.59 -2.69,7.26 -0.95,11.12 1.29,2.79 3.32,4.9 5.93,6.55 1.41,1.16 3.06,1.97 4.83,2.62 4.85,1.85 9.33,1.32 13.2,-2.13 4.04,-3.58 5.11,-8.04 3.71,-13.12z"/>
 </g>
</svg>
