<!DOCTYPE svg PUBLIC "-//W3C//DTD SVG 1.1//EN" "http://www.w3.org/Graphics/SVG/1.1/DTD/svg11.dtd">
<svg xmlns="http://www.w3.org/2000/svg" viewBox="0 0 514 514">
<path d="M147.929 79.367C137.737 82.115 130.772 88.058 126.09 98l-2.59 5.5v307l2.601 5.546c3.44 7.334 7.604 11.92 14.08 15.508l5.319 2.946 109.667.267c108.921.265 109.704.253 115.221-1.811 6.717-2.513 13.284-8.612 16.659-15.472l2.453-4.984.259-154.187c.257-152.506.238-154.247-1.758-159.58-2.866-7.66-7.897-13.064-15.771-16.941l-6.687-3.292H174.5l-.253 152.765-.253 152.764 96.795-.264 96.796-.265 5.207-2.702 5.208-2.702v14.484c0 19.046-2.068 24.177-11.5 28.53-3.808 1.757-9.074 1.847-109.685 1.868-113.049.024-108.867.216-114.684-5.289-13.45-12.729-3.748-33.65 15.619-33.683L161 384V78l-4.25.067c-2.338.038-6.307.623-8.821 1.3m130.313 58.383c-1.808 1.598-7.996 12.102-19.146 32.5L254.86 178h-24.795c-23.571 0-24.925.102-27.43 2.073-4.064 3.196-3.495 4.87 9.812 28.914l12.447 22.487-2.775 5.013a13635 13635 0 0 1-12.447 22.362C194.893 285.359 194.614 285 230.061 285h24.792l2.937 5.25c1.616 2.887 6.454 11.55 10.753 19.25 9.313 16.685 9.948 17.5 13.612 17.5 3.689 0 6.006-2.416 10.28-10.725 1.918-3.726 6.562-12.175 10.321-18.775l6.834-12 25.795-.5c35.345-.685 34.606.286 19.8-26.045-5.398-9.6-11.063-19.76-12.589-22.577l-2.775-5.123 7.222-12.877c20.647-36.818 19.252-33.556 16.047-37.517-1.897-2.345-2.084-2.364-27.646-2.861l-25.737-.5-10.906-19.5c-12.941-23.137-15-25.165-20.559-20.25m2.015 21.447c-1.085 1.817-3.868 6.791-6.185 11.053L269.86 178h12.605c11.709 0 12.539-.125 11.666-1.755-1.551-2.898-11.293-19.721-11.61-20.048-.161-.166-1.18 1.184-2.264 3M218 191.554c0 1.015 13.101 24.39 13.972 24.929.471.291 1.755-.936 2.852-2.727C237.216 209.85 247 191.847 247 191.35c0-.193-6.525-.35-14.5-.35s-14.5.249-14.5.554m41.515 4.676c-1.554 2.898-6.6 11.943-11.214 20.1l-8.389 14.829 3.931 7.171c9.784 17.845 17.323 31.166 18.318 32.364.823.992 5.717 1.306 20.346 1.306 18.94 0 19.288-.038 20.755-2.277.82-1.252 4.973-8.565 9.227-16.25 4.255-7.685 8.787-15.774 10.073-17.975l2.338-4.003-11.215-19.997-11.214-19.998-20.066-.27-20.065-.27-2.825 5.27m58.652-4.278c.931 2.661 13.425 25.019 13.988 25.032.575.014 14.845-24.587 14.845-25.592 0-.216-6.562-.392-14.583-.392-8.803 0-14.452.378-14.25.952m-86.87 55.256C229.849 249.047 218 270.553 218 271.343c0 .935 27.782.819 28.361-.119.439-.709-11.447-22.679-13.263-24.516-.43-.436-1.241-.211-1.801.5m93.453 11.199c-3.712 6.814-6.75 12.661-6.75 12.992 0 .33 6.525.601 14.5.601s14.5-.24 14.5-.534c0-1.132-14.154-25.466-14.808-25.458-.381.004-3.73 5.584-7.442 12.399m-51.958 31.843c1.617 2.887 4.237 7.612 5.824 10.499 3.637 6.619 3.487 6.654 8.472-1.999 2.297-3.988 5.054-8.712 6.126-10.5l1.949-3.25h-25.31l2.939 5.25" fill-rule="evenodd"/>
</svg>