<?xml version="1.0" encoding="UTF-8"?>
<!DOCTYPE svg PUBLIC "-//W3C//DTD SVG 1.1//EN" "http://www.w3.org/Graphics/SVG/1.1/DTD/svg11.dtd">
<!-- Creator: CorelDRAW 2020 (64 Bit) -->
<svg xmlns="http://www.w3.org/2000/svg" xml:space="preserve" width="512px" height="512px" version="1.1" style="shape-rendering:geometricPrecision; text-rendering:geometricPrecision; image-rendering:optimizeQuality; fill-rule:evenodd; clip-rule:evenodd"
viewBox="0 0 512 512"
 xmlns:xlink="http://www.w3.org/1999/xlink"
 xmlns:xodm="http://www.corel.com/coreldraw/odm/2003">
 <defs>
  <style type="text/css">
   <![CDATA[
    .fil2 {fill:black}
    .fil3 {fill:#0055FF}
    .fil1 {fill:#C2133C}
    .fil0 {fill:white}
   ]]>
  </style>
 </defs>
 <g id="Camada_x0020_1">
  <metadata id="CorelCorpID_0Corel-Layer"/>
  <path id="fundo" class="fil0" d="M256 0c141.38,0 256,114.61 256,256 0,141.39 -114.62,256 -256,256 -141.39,0 -256,-114.61 -256,-256 0,-141.39 114.61,-256 256,-256zm-169.61 263.81c-41.91,3.4 -66.95,44.31 -55.91,80.76 4.68,15.42 17.74,30.59 27.02,43.73 4.98,7.06 9.73,13.36 14.75,20.37 4.58,6.41 12.1,13.55 23.43,10.87 9.56,-2.26 13.56,-9.91 18.55,-16.61 5.13,-6.87 9.79,-13.95 14.86,-20.75 2.53,-3.38 4.89,-6.58 7.42,-10.13 2.37,-3.34 5.11,-6.86 7.28,-10.3 4.38,-6.97 8.46,-15.24 9.87,-25.73 5.49,-41.01 -27.46,-75.44 -67.27,-72.21zm1.42 39.56c14.65,-2.21 25.83,8.96 27.41,20.7 2,14.82 -8.84,25.86 -20.83,27.5 -14.25,1.94 -25.69,-8.49 -27.38,-20.87 -2.01,-14.78 8.88,-25.52 20.8,-27.33zm174.88 104.15c-3.73,1.21 -6.38,5.5 -4.02,9.8 2.26,4.13 6.46,3.63 12.43,3.63 5.5,0 28.49,0.67 31.94,-0.28 3.66,-1.02 6.64,-5.22 4.27,-9.88 -2.21,-4.36 -6.9,-3.72 -12.63,-3.72 -5.42,0.01 -28.78,-0.59 -31.99,0.45zm67.04 -193.73c-6.54,2.35 -6.19,11.31 0.05,13.14 1.83,0.54 20.34,0.58 22.34,0.09 6.64,-1.64 6.7,-11.71 0.21,-13.34 -2.47,-0.62 -20.68,-0.57 -22.6,0.11zm-195 193.78c-7.04,2.31 -5.87,11.69 0.35,13.16 2.01,0.47 20.44,0.44 22.27,-0.1 6.4,-1.9 6.47,-11.51 -0.14,-13.24 -2.85,-0.74 -20.06,-0.61 -22.48,0.18zm37.5 -147.4c-2.28,1.06 -3.58,2.01 -4.22,4.68 -0.53,2.17 -0.25,5.97 -0.06,8.34 0.84,10.46 4.05,18.46 9.37,26.72 2.03,3.16 5.51,8.67 11.23,6.75 4.8,-1.61 5.93,-7.15 2.44,-11.64 -6.08,-7.81 -9.31,-15.92 -9.37,-26.48 -0.04,-8.2 -5.4,-10.23 -9.39,-8.37zm45.18 -46.44c-10.67,1.08 -20.39,5.32 -26.87,10.3 -2.87,2.21 -8.23,5.5 -8.1,10.24 0.09,3.46 5.08,11.02 13.27,3.26 5.33,-5.04 14.59,-9.02 22.49,-9.95 2.74,-0.32 11.16,0.39 10.92,-7.59 -0.21,-6.78 -6.7,-6.76 -11.71,-6.26zm145.14 96.63c-4.81,0.8 -8.02,6.18 -4.58,10.9 4.32,5.91 13.32,-0.37 28.24,8.32 2.19,1.27 3.6,2.27 5.5,3.74 9.2,7.1 15.16,-3.5 10.96,-8.65 -6.35,-7.81 -28.05,-16.31 -40.12,-14.31zm48.98 43.53c-8.76,3.19 -0.62,11.78 -7.69,27.95 -1.49,3.39 -5.87,9.44 -6.24,11.77 -0.79,5.02 4.09,9.24 8.95,7.62 5.3,-1.77 11.31,-15.48 12.95,-22.67 1.19,-5.2 3.38,-18.79 -0.84,-23.17 -1.73,-1.81 -4.26,-2.55 -7.13,-1.5zm-215.79 67.06l29.13 0c3.42,0 9.47,0.14 10.2,-5.9 0.73,-5.97 -3.73,-7.95 -8.81,-7.99 -10.92,-0.06 -21.9,-0.02 -32.83,0 -5.21,0.02 -9.18,2.42 -8.48,8.03 0.67,5.37 5.27,5.86 10.79,5.86zm176.27 -14.32c-20.87,2.65 -41.38,-4.46 -41.22,7.52 0.07,5.47 4.13,6.84 9.65,6.81 9.88,-0.05 22.32,0.68 31.8,-0.41 5.06,-0.58 8.83,-2.02 8.78,-7.3 -0.06,-4.83 -3.87,-7.27 -9.01,-6.62zm-79.64 -193.23l-31.9 0c-10.15,0 -10.42,9.11 -5.83,12.45 3.5,2.55 17.07,1.41 22.47,1.41 5.59,0 18.88,1.15 22.38,-1.54 3.33,-2.57 5.73,-12.32 -7.12,-12.32zm-2.84 96.99c-3.83,0.69 -7.3,4.49 -5.39,9.38 1.78,4.59 6.51,4.34 11.93,4.33 4.92,0 29.64,0.33 32.3,-0.14 3.84,-0.68 6.9,-4.93 5.02,-9.52 -1.86,-4.53 -6.14,-4.22 -11.89,-4.21 -4.84,0 -29.34,-0.32 -31.97,0.16zm-74.08 -0.01c-3.64,1.21 -6.22,5.7 -3.9,9.85 2.19,3.92 6.96,3.85 12.4,3.87 5.38,0.03 28.69,0.66 32.15,-0.31 3.42,-0.96 6.63,-5.56 3.97,-9.99 -2.51,-4.19 -6.81,-3.58 -12.55,-3.57 -4.52,0 -30.13,-0.5 -32.07,0.15zm174.27 -239.35c-22.14,1.79 -35.97,12.77 -45.74,25.35 -9.94,12.82 -16.5,34.56 -9.78,55.88 5.04,15.98 17.77,30.1 27.17,43.57 4.93,7.06 9.78,13.72 14.67,20.48 4.08,5.62 11.94,13.35 23.69,10.25 9.38,-2.48 13.37,-10.16 18.31,-16.83l14.91 -20.69c10.52,-15.25 21.64,-26.09 24.35,-46.42 5.4,-40.56 -27.89,-74.81 -67.58,-71.59zm0.8 39.73c14.43,-2.74 26.08,7.83 28.1,19.5 2.58,14.9 -7.96,26.1 -19.4,28.29 -14.68,2.81 -26.23,-7.78 -28.43,-19.3 -2.92,-15.21 7.85,-26.22 19.73,-28.49z"/>
  <path id="red" class="fil1" d="M86.39 263.81c-41.91,3.4 -66.95,44.31 -55.91,80.76 4.68,15.42 17.74,30.59 27.02,43.73 4.98,7.06 9.73,13.36 14.75,20.37 4.58,6.41 12.1,13.55 23.43,10.87 9.56,-2.26 13.56,-9.91 18.55,-16.61 5.13,-6.87 9.79,-13.95 14.86,-20.75 2.53,-3.38 4.89,-6.58 7.42,-10.13 2.37,-3.34 5.11,-6.86 7.28,-10.3 4.38,-6.97 8.46,-15.24 9.87,-25.73 5.49,-41.01 -27.46,-75.44 -67.27,-72.21zm1.42 39.56c14.65,-2.21 25.83,8.96 27.41,20.7 2,14.82 -8.84,25.86 -20.83,27.5 -14.25,1.94 -25.69,-8.49 -27.38,-20.87 -2.01,-14.78 8.88,-25.52 20.8,-27.33z"/>
  <path id="linha" class="fil2" d="M262.69 407.52c-3.73,1.21 -6.38,5.5 -4.02,9.8 2.26,4.13 6.46,3.63 12.43,3.63 5.5,0 28.49,0.67 31.94,-0.28 3.66,-1.02 6.64,-5.22 4.27,-9.88 -2.21,-4.36 -6.9,-3.72 -12.63,-3.72 -5.42,0.01 -28.78,-0.59 -31.99,0.45zm67.04 -193.73c-6.54,2.35 -6.19,11.31 0.05,13.14 1.83,0.54 20.34,0.58 22.34,0.09 6.64,-1.64 6.7,-11.71 0.21,-13.34 -2.47,-0.62 -20.68,-0.57 -22.6,0.11zm-195 193.78c-7.04,2.31 -5.87,11.69 0.35,13.16 2.01,0.47 20.44,0.44 22.27,-0.1 6.4,-1.9 6.47,-11.51 -0.14,-13.24 -2.85,-0.74 -20.06,-0.61 -22.48,0.18zm37.5 -147.4c-2.28,1.06 -3.58,2.01 -4.22,4.68 -0.53,2.17 -0.25,5.97 -0.06,8.34 0.84,10.46 4.05,18.46 9.37,26.72 2.03,3.16 5.51,8.67 11.23,6.75 4.8,-1.61 5.93,-7.15 2.44,-11.64 -6.08,-7.81 -9.31,-15.92 -9.37,-26.48 -0.04,-8.2 -5.4,-10.23 -9.39,-8.37zm45.18 -46.44c-10.67,1.08 -20.39,5.32 -26.87,10.3 -2.87,2.21 -8.23,5.5 -8.1,10.24 0.09,3.46 5.08,11.02 13.27,3.26 5.33,-5.04 14.59,-9.02 22.49,-9.95 2.74,-0.32 11.16,0.39 10.92,-7.59 -0.21,-6.78 -6.7,-6.76 -11.71,-6.26zm145.14 96.63c-4.81,0.8 -8.02,6.18 -4.58,10.9 4.32,5.91 13.32,-0.37 28.24,8.32 2.19,1.27 3.6,2.27 5.5,3.74 9.2,7.1 15.16,-3.5 10.96,-8.65 -6.35,-7.81 -28.05,-16.31 -40.12,-14.31zm48.98 43.53c-8.76,3.19 -0.62,11.78 -7.69,27.95 -1.49,3.39 -5.87,9.44 -6.24,11.77 -0.79,5.02 4.09,9.24 8.95,7.62 5.3,-1.77 11.31,-15.48 12.95,-22.67 1.19,-5.2 3.38,-18.79 -0.84,-23.17 -1.73,-1.81 -4.26,-2.55 -7.13,-1.5zm-215.79 67.06l29.13 0c3.42,0 9.47,0.14 10.2,-5.9 0.73,-5.97 -3.73,-7.95 -8.81,-7.99 -10.92,-0.06 -21.9,-0.02 -32.83,0 -5.21,0.02 -9.18,2.42 -8.48,8.03 0.67,5.37 5.27,5.86 10.79,5.86zm176.27 -14.32c-20.87,2.65 -41.38,-4.46 -41.22,7.52 0.07,5.47 4.13,6.84 9.65,6.81 9.88,-0.05 22.32,0.68 31.8,-0.41 5.06,-0.58 8.83,-2.02 8.78,-7.3 -0.06,-4.83 -3.87,-7.27 -9.01,-6.62zm-79.64 -193.23l-31.9 0c-10.15,0 -10.42,9.11 -5.83,12.45 3.5,2.55 17.07,1.41 22.47,1.41 5.59,0 18.88,1.15 22.38,-1.54 3.33,-2.57 5.73,-12.32 -7.12,-12.32zm-2.84 96.99c-3.83,0.69 -7.3,4.49 -5.39,9.38 1.78,4.59 6.51,4.34 11.93,4.33 4.92,0 29.64,0.33 32.3,-0.14 3.84,-0.68 6.9,-4.93 5.02,-9.52 -1.86,-4.53 -6.14,-4.22 -11.89,-4.21 -4.84,0 -29.34,-0.32 -31.97,0.16zm-74.08 -0.01c-3.64,1.21 -6.22,5.7 -3.9,9.85 2.19,3.92 6.96,3.85 12.4,3.87 5.38,0.03 28.69,0.66 32.15,-0.31 3.42,-0.96 6.63,-5.56 3.97,-9.99 -2.51,-4.19 -6.81,-3.58 -12.55,-3.57 -4.52,0 -30.13,-0.5 -32.07,0.15z"/>
  <path id="azul" class="fil3" d="M389.72 71.03c-22.14,1.79 -35.97,12.77 -45.74,25.35 -9.94,12.82 -16.5,34.56 -9.78,55.88 5.04,15.98 17.77,30.1 27.17,43.57 4.93,7.06 9.78,13.72 14.67,20.48 4.08,5.62 11.94,13.35 23.69,10.25 9.38,-2.48 13.37,-10.16 18.31,-16.83l14.91 -20.69c10.52,-15.25 21.64,-26.09 24.35,-46.42 5.4,-40.56 -27.89,-74.81 -67.58,-71.59zm0.8 39.73c14.43,-2.74 26.08,7.83 28.1,19.5 2.58,14.9 -7.96,26.1 -19.4,28.29 -14.68,2.81 -26.23,-7.78 -28.43,-19.3 -2.92,-15.21 7.85,-26.22 19.73,-28.49z"/>
 </g>
</svg>
