<?xml version="1.0" encoding="UTF-8"?>
<!DOCTYPE svg PUBLIC "-//W3C//DTD SVG 1.1//EN" "http://www.w3.org/Graphics/SVG/1.1/DTD/svg11.dtd">
<!-- Creator: CorelDRAW 2020 (64 Bit) -->
<svg xmlns="http://www.w3.org/2000/svg" xml:space="preserve" width="512px" height="512px" version="1.1" style="shape-rendering:geometricPrecision; text-rendering:geometricPrecision; image-rendering:optimizeQuality; fill-rule:evenodd; clip-rule:evenodd"
viewBox="0 0 512 512"
 xmlns:xlink="http://www.w3.org/1999/xlink"
 xmlns:xodm="http://www.corel.com/coreldraw/odm/2003">
 <defs>
  <style type="text/css">
   <![CDATA[
    .fil2 {fill:black}
    .fil1 {fill:#D0DBA7}
    .fil0 {fill:#FFE7AD}
   ]]>
  </style>
 </defs>
 <g id="Camada_x0020_1">
  <metadata id="CorelCorpID_0Corel-Layer"/>
  <path id="laranjas" class="fil0" d="M429.63 444.11c0.95,-1.39 1.88,-2.73 2.74,-4.01 0.96,-1.41 1.56,-2.68 2.5,-3.89 5.27,-6.89 8.18,-12.48 12.43,-20.17 1.49,-2.7 3.21,-5.28 4.6,-8.05 0.78,-1.56 1.4,-2.68 2.08,-4.19l5.53 -16.09c0.42,-1.55 0.81,-2.58 1.19,-4.19 1.29,-5.44 2.72,-14.44 1.32,-19.94 -0.46,-1.78 -0.71,-2.61 -0.86,-4.19 -0.69,-7.52 0.08,-7.4 -2.59,-16.07 -2.78,-9.02 -8.41,-16.58 -13.8,-24.46 -3.58,-5.22 -8.96,-10.76 -12.71,-16 -3.63,-5.06 -7.19,-10.83 -10.28,-16.15 -2.77,-4.78 -7.11,-11.91 -8.58,-16.45 -2.15,-6.66 -5.38,-13.38 -6.52,-19.93l-2.74 -16.41c0.41,-5.75 -3.23,-26.27 -6.42,-28.26 -0.14,0.05 -0.21,0.06 -0.37,0.21 -2.73,2.51 -4.65,6.06 -6.52,9.15 -3.27,5.36 -5.44,6.33 -7.72,9.82 -3.91,5.97 -13.32,14.09 -18.82,19.69 -5.27,5.37 -14.92,12.24 -19.54,16.79l-24.98 21.23c-2.03,1.2 -2.94,2.72 -4.75,4.32 -6.7,5.94 -12.69,4.14 -7.91,28.14 1.86,9.31 3.88,20.65 7.7,29.38 1.51,3.43 2.32,6.74 3.47,10.12 2.13,6.25 6.2,13.1 8.27,19.56l8.12 19.58c1.22,2.29 1.39,2.76 1.95,4.9 1.21,4.64 4.69,9.7 6.09,14.68 0.53,1.85 1.33,3.17 1.9,4.9l6.64 19.93c2.74,6.24 2.21,8.65 3.57,14.67 1.9,8.46 1.35,6.46 1.82,14.68 0.29,4.92 0.96,9.91 0.51,15.01 -0.26,3.07 -0.36,6.22 -0.67,9.34 27.2,-11.64 51.97,-27.84 73.35,-47.65zm-375.74 -345.31l4.57 0.18c2.25,-0.11 3.74,0.02 5.94,0.07l19.59 1.13c1.81,0.27 1.63,0.53 3.14,-0.49 0.12,-2.24 -4.45,-14.1 -4.65,-15.03 -0.64,-3.05 -1.29,-4.74 -2.18,-7.68l-1.83 -5.4c-8.82,8.47 -17.04,17.57 -24.58,27.22zm-30.06 48.93c12.47,0.17 27.34,0.23 30.09,0.11 3.33,-0.15 15.01,1.65 23.77,1.74 3.42,0.03 22.86,0.39 24.25,-0.11 0.54,-1.85 -1.83,-8.28 -2.42,-10.28 -0.97,-3.27 -1.9,-6.73 -3.11,-10.12 -4.74,-13.29 -3.01,-15.62 -10.68,-15.42 -3.67,0.1 -6.56,-0.42 -10.14,-0.4 -12.04,0.07 -21.3,-0.3 -31.81,-0.58 -7.53,11.09 -14.2,22.81 -19.95,35.06zm103.57 170.51c-0.24,2.8 0.42,3.43 1.29,6.21l5.74 25.15c0.58,2.35 0.94,4.11 1.5,6.31 0.6,2.37 1.3,3.89 1.55,6.28 0.2,1.95 -0.61,4.41 1.73,5.96 4.87,-3.63 9.41,-7.54 14.28,-11.19l14.6 -10.64c5.41,-4.88 12.61,-8.89 17.81,-13.64 1.82,-1.66 2.13,-1.37 3.97,-2.63 2.42,-1.66 4.96,-3.97 7.32,-5.74l14.36 -10.6c1.53,-0.98 2.03,-1.9 3.4,-2.98 2.7,-2.14 9.56,-5.65 11.18,-7.09 4.57,-4.07 18.06,-14.06 22.02,-17.75 2.88,-2.69 5.09,-3.71 7.45,-5.72 -1.34,-0.41 -6.11,0.95 -7.69,1.52 -6.6,2.37 -17.73,6.47 -24.12,8.17 -7.98,2.12 -7.93,3.04 -16.07,4.42 -8.83,1.51 -15.62,3.93 -24.13,6.75l-19.91 5.89c-1.67,0.47 -2.32,0.18 -4.19,1.13 -5.29,2.71 -2.64,0.39 -8.05,2.46 -6.96,2.66 -12.81,4.33 -19.91,5.87 -1.24,0.27 -2.78,0.71 -4.13,1.86zm-108.09 -95.52c-0.64,2.03 0.8,7.97 1.33,10.49l2.86 15.73c0.7,3.09 2.34,14.55 3.24,16l33.82 -3.46c2.54,-0.36 4.63,-0.28 6.99,-0.62l40.89 -4.73c2.47,-0.21 4.42,-0.96 6.66,-1.12 2.7,-0.2 19,-1.15 20.98,-2.2 0.09,-2.58 -1.51,-5.68 -2.35,-8.41 -0.47,-1.54 -0.71,-2.85 -1.19,-4.18l-3.95 -12.94c-1.6,-5.29 -1.63,-4.51 -6.51,-4.49 -5.9,0.04 -11.23,-0.21 -17.13,-0.21l-59.77 -0.27c-5.37,0.08 -23.58,-0.26 -25.87,0.41zm-3.49 -16.76c2.09,0.56 4.09,-0.1 6.3,-0.12 1.24,-0.01 1.82,0.14 3.14,0.21l94.37 -1.84c0.06,-2.08 -0.45,-3.35 -1.26,-5.61 -0.71,-2.02 -1.05,-3.68 -1.67,-5.57 -2.29,-7.02 -5.53,-18.94 -8.27,-25.17 -2.43,-5.54 -0.38,-3.97 -6.61,-4.25 -7.16,-0.33 -15.79,0.6 -22.72,-0.45 -12.23,-1.87 -35.94,-0.06 -39.51,-0.79l-22.04 -0.11c-2.32,5.87 -4.43,11.85 -6.32,17.92l1.67 8.64c0.38,2.36 0.14,3.38 0.7,5.62 0.92,3.66 0.95,8.59 2.22,11.52zm264.06 108.86c-8.67,8.65 -15.36,12.65 -18.89,16.07 -7.05,6.81 -11.68,8.88 -14.65,11.89l-18.24 15.34c-3.06,2.61 -7.17,4.39 -12.57,9.79 -2.24,2.25 -2.52,2.61 -5.01,4.09l-36.02 27.74c-2.22,1.34 -2.82,2.55 -4.78,4.17 -3.71,3.07 -19.55,13.03 -25.91,17.72 -2.08,1.54 -6.4,3.68 -3.67,9.54 1.22,0.35 1.34,0.27 2.57,0.15l8.39 -1.5c3.73,-0.7 7.14,-1.58 10.82,-1.99l24.49 -5.05c1.43,-0.45 1.57,-0.57 2.77,-0.72l82.15 -15.63c3.66,-0.62 7.28,-1.04 10.84,-1.67 7.64,-1.35 20.16,-4.6 27.28,-5.16 1.91,-0.15 3.74,0.49 5.8,-0.78l-16.72 -43.95c-2.26,-4.84 -9.69,-29.16 -10.3,-33.22 -0.34,-2.28 -1.33,-9.43 -2.91,-11.19 -2.28,0.41 -3.54,2.46 -5.44,4.36zm-160.02 158.43l-0.02 -0.59c-0.09,-3.2 0.08,-5.97 -0.05,-9.1 -0.13,-3.05 -0.58,-6.36 -0.68,-9.43l-0.58 -13.97c-0.06,-1.8 0.47,-3.24 -0.64,-4.92 -1.69,0.11 -8.83,4.22 -11.2,5.39l-18.87 8.87c10.03,8.72 20.74,16.66 32.04,23.75zm-96.43 -109.32c-0.16,-2.18 -0.34,-5.1 -1.61,-6.68l-1.27 0.25c0.93,2.16 1.89,4.3 2.88,6.43zm-23.17 -91.43l2.62 -0.41c1.86,-0.29 4.25,-0.12 5.83,-1.22 0.29,-2 -0.86,-9.5 -1.31,-11.79 -0.76,-3.89 -1.67,-8 -2.22,-12.22 -0.52,-4.07 -1.44,-7.8 -2.18,-11.89 -0.25,-1.36 -0.88,-5.45 -1.52,-8.56 -1.14,9.79 -1.75,19.75 -1.75,29.86 0,5.45 0.19,10.86 0.53,16.23zm301.67 235.6l-10.31 0.59c-2.92,0.11 -4.68,0.63 -7.69,0.74 -2.75,0.1 -4.95,0.1 -7.7,0.11l-33 2.42c4.15,0.2 8.31,0.31 12.5,0.31 15.78,0 31.22,-1.44 46.2,-4.17zm-130.89 -10.2c4.56,-0.23 9.06,-0.43 13.26,-0.62l36 -2.08c3.76,0.01 25.34,-2.42 30.07,-2.43 7.42,0 25.87,-2.02 36,-2.29l48.32 -3.41c0.52,-0.5 0.61,-6.78 1.02,-9.52 0.38,-2.53 0.12,-6.65 0.12,-9.44 0.01,-1.98 -0.37,-2.84 -0.48,-4.55 -0.13,-1.96 0.22,-2.35 -0.19,-4.9 -0.6,-3.66 -0.69,-6.2 -1.38,-9.43l-5.63 -18.87c-5.65,-10.67 -2,-15.49 -11.03,-12.88l-28.3 5.21c-7.71,0.93 -24.68,4.38 -28.32,4.63 -2.58,0.17 -1.95,0 -4.56,0.78l-23.74 3.78c-1.83,0.37 -2.74,0.86 -4.58,1.13l-14.31 2.04c-1.46,0.21 -3.1,0.66 -4.55,0.91l-9.44 1.95c-1.81,0.17 -3.02,0.2 -4.89,0.66 -10.08,2.46 -16.52,2.55 -28.32,5.55 -1.75,0.44 -13.61,1.8 -16.41,2.79 -1.33,0.47 -0.97,0.63 -2.45,0.76 -4.74,0.41 -6.96,-1.21 -6.83,4.01l0.17 9.43c0.36,3.44 0.78,6.11 0.9,9.44 0.06,1.6 -0.19,3.06 -0.01,4.56 0.42,3.57 0.99,6.92 1.02,10.8 9.22,4.55 18.74,8.56 28.54,11.99zm-156.76 -156.41c2.66,-0.61 4.56,-1.16 4.81,-1.55 0.88,-1.37 -6.26,-38.63 -7.31,-46.25 -0.39,-2.85 -0.22,-3.59 -1.27,-6.23 -2.33,0.17 -1.8,0.37 -3.78,0.84 -0.99,0.24 -2.73,0.53 -4.9,0.85 2.32,18.11 6.55,35.62 12.45,52.34zm94.11 -35.98c2.69,-0.81 2.06,0.31 4.59,-0.31 1.18,-0.29 2.48,-0.93 4.19,-1.43 12.1,-3.54 22.6,-6.11 34.98,-10.15l17.47 -4.82c11.85,-2.72 12.05,-4.77 26.21,-6.94 6.63,-1.01 23.61,-6.79 30.76,-9.23 1.54,-0.52 2.67,-0.88 4.19,-1.42l8.75 -3.28c2.96,-1 6.1,-0.78 8.44,-2.5 0.33,-2.83 -1.15,-5.98 -2.09,-9.15l-2.14 -8.73c-1.59,-6.11 -6.36,-26.14 -8.06,-29.35l-75.5 21.75c-4.49,1.02 -8.48,0.78 -10.49,2.7 0.11,1.8 7.05,19.5 6.33,23.11 -1.71,0.63 -2.44,0.03 -4.23,0.08l-31.81 4.34c-3.12,0.88 -4.53,0.56 -8.04,1.04 -1.35,0.18 -2.33,0.5 -3.85,0.69l-8.04 0.95c-6.1,0.46 -27.75,5.21 -31.79,5.48l-19.6 2.16c-7.39,1.8 -16.64,1.43 -19.74,4.54l9.02 49.2c0.92,5.52 2.04,10.46 2.94,16.08 2.25,14.08 7.82,36.94 9.44,49.28 0.23,1.76 0.36,2.36 0.87,4.19 0.49,1.79 0.81,5.29 1.3,8.12 0.82,1.07 1.64,2.13 2.47,3.19l69.71 -35.57c-1.41,-4.45 -2.16,-12.86 -3.83,-18.39 -0.93,-3.07 -1.52,-6.48 -2.06,-9.44l-10.03 -41.59c-0.56,-1.96 -0.96,-2.32 -0.36,-4.6z"/>
  <path id="verdes" class="fil1" d="M448.91 88.28l-2.23 5.48c-0.57,1.6 -1.03,2.62 -1.78,4.19l-11.31 25.51c-2.77,7.46 -6.67,13.21 -8.84,20.96 -0.45,1.6 -1.02,2.83 -1.81,4.56 -2.54,5.57 -4.71,10.99 -7.53,16.78 -2.48,5.07 1.77,9.78 4.53,19.24 0.21,0.69 0.49,1.36 0.69,2.08 0.41,1.5 0.69,2.65 1.12,4.2l4.02 20.96c0.34,2.11 0.1,2.39 0.59,4.56 2.54,11.19 4.54,22.91 8.1,33.9 0.54,1.66 0.77,2.57 1.42,4.2 0.58,1.45 1.11,2.55 1.83,4.18l15.5 25.43c5.75,6.6 4.64,6.99 10.22,12.85 1.78,1.87 1.49,2.2 2.75,3.98 1.16,1.64 2.52,2.43 3.63,4.17 0.94,1.47 1.12,2.76 2.15,4.25 2.62,3.79 3.24,4.95 5.02,8.73 3.09,6.57 6.82,18.25 7.49,25.19 0.25,2.63 0.82,6.57 1.45,9.09l11.45 -20.99c2.23,-4.61 4.74,-12.09 6.43,-17.12l1.78 -5.25c0.24,-0.72 0.39,-1.11 0.6,-1.74l2.01 -8.84c2.32,-13.84 3.55,-28.06 3.55,-42.56 0,-64.29 -23.7,-123.03 -62.83,-167.99zm-138.45 -82.13c-2.58,1.37 -5.14,2.74 -7.67,4.14 -3.16,1.77 -6.24,3.49 -9.1,4.59 -4.91,1.91 -13.67,6.42 -18.16,7.44 -4.97,1.14 -10.88,4.55 -18.53,6.51 -9.18,2.36 -18.08,5.92 -27.61,7.21 -7.6,1.02 -15.49,1.25 -22.73,2.99 -4.9,1.17 -26.23,0.4 -32.16,0.75 -6.03,0.36 -12.29,0.28 -18.51,-0.59 -3.46,-0.49 -5.53,-0.36 -9.09,-1.1 -4.19,-0.88 -12,-2.03 -19.8,-3.2 -12.37,7.21 -24.08,15.42 -35.02,24.52l1.07 3.58c0.21,0.76 0.18,0.59 0.42,1.4 0.21,0.72 0.24,0.87 0.47,1.74 0.28,1.14 0.52,1.84 0.98,3.16 1.42,4.04 2.5,9.52 3.86,12.94 4.15,10.48 6.5,21.14 9.97,31.8 3.42,10.52 6,21.06 9.6,31.8l9.87 31.81c1.48,4.11 2.8,8.56 3.98,12.59l6.03 19.22c0.7,2.14 1.48,4.29 2.04,6.3 4.05,14.5 2.32,14.01 10.73,11.62 2.19,-0.62 4.14,-0.9 6.63,-1.74l11.2 -3.16c1.17,-0.33 0.32,-0.05 1.73,-0.54l19.6 -6.17c6.54,-1.93 12.9,-2.96 19.54,-5.17 2.28,-0.75 4.05,-1.29 6.31,-1.83l12.92 -3.75c1.35,-0.33 1.79,-0.25 3.15,-0.62 20.03,-5.46 15.61,-8.27 19.52,4.36 3.08,9.95 4.71,20.8 8.21,30.78l7.8 30.05c0.41,1.33 -0.16,-0.01 0.48,1.38 3.76,-2.49 7.82,-8.25 15.03,-12.49 2,-1.17 1.99,-1.52 3.69,-3.03 1.64,-1.46 2.52,-1.54 4.13,-2.86 1.48,-1.21 2.12,-2.22 3.73,-3.26 7.03,-4.61 12.4,-11.22 19.17,-16.27 6.05,-4.51 9.86,-9.64 15.31,-14.29 2.67,-2.27 4.8,-3.71 7.48,-6.51 2.51,-2.62 3.99,-5.07 6.81,-7.87 4.73,-4.68 7.57,-10.52 11.27,-15.28 2.99,-3.84 8.78,-14.51 11.52,-19.14l5.81 -11.53c0.42,-0.87 0.85,-2.2 1.48,-3.5l12.85 -26.92c3.56,-8.91 10.21,-21.52 14.57,-30.76 4.95,-10.5 8.57,-20.14 13.96,-30.41 1.5,-2.86 2.83,-5.42 4.03,-7.73 -30.9,-25.62 -67.94,-44.11 -108.57,-52.96zm-130.88 5.63c0.8,0.05 1.56,0.11 2.28,0.17 2.45,0.19 3.55,-0.28 5.6,-0.37l10.81 -0.85c9.74,-0.21 7.29,-0.38 16.79,-1.98 6.99,-1.17 15.59,-2.04 22.38,-4.1l8.03 -1.87c1.04,-0.32 1.74,-0.63 2.78,-0.95 1.65,-0.52 3.34,-1.02 5.02,-1.53 -25.64,0.24 -50.38,4.23 -73.69,11.48z"/>
  <path id="arestas" class="fil2" d="M127.41 318.24c1.34,-1.15 2.88,-1.59 4.12,-1.86 7.1,-1.54 12.95,-3.21 19.91,-5.87 5.41,-2.07 2.76,0.25 8.04,-2.45 1.88,-0.96 2.53,-0.67 4.2,-1.14l19.91 -5.89c8.51,-2.82 15.3,-5.24 24.13,-6.75 8.14,-1.38 8.09,-2.3 16.07,-4.42 6.39,-1.7 17.52,-5.8 24.12,-8.17 1.58,-0.57 6.35,-1.93 7.69,-1.52 -2.36,2.01 -4.57,3.03 -7.45,5.72 -3.96,3.69 -17.45,13.68 -22.02,17.75 -1.62,1.44 -8.48,4.95 -11.18,7.09 -1.37,1.09 -1.87,2 -3.4,2.98l-14.36 10.6c-2.36,1.77 -4.9,4.08 -7.32,5.74 -1.84,1.26 -2.15,0.97 -3.97,2.63 -5.2,4.75 -12.4,8.76 -17.81,13.64l-14.6 10.63c-4.87,3.66 -9.41,7.57 -14.28,11.2 -2.34,-1.55 -1.53,-4.01 -1.73,-5.96 -0.25,-2.39 -0.95,-3.91 -1.55,-6.28 -0.56,-2.2 -0.92,-3.96 -1.5,-6.31l-5.74 -25.15c-0.87,-2.78 -1.53,-3.41 -1.28,-6.21zm86.86 40.17c1.31,-1.74 0.99,-0.99 0.43,-3.19l-6.78 -17.14c-0.95,-1.99 -1.22,-5.71 -4.04,-4.88 -2.96,0.88 -0.61,4.19 0.14,5.92l5.56 13.64c1.08,2.95 0.79,4.39 4.69,5.65zm12.34 -12.42c4.72,-1.05 2.1,-4.89 -0.88,-11.75 -0.89,-2.04 -4.33,-12.39 -6.09,-12.97 -3.44,-1.13 -2.24,3.73 -1.91,4.94l6.66 16.42c0.57,2.02 0.18,2.11 2.22,3.36zm-142.61 84.82c-2.24,2.17 -1.03,3.26 -4.57,5.15 -3.72,-2.03 -4.08,-7.67 0.35,-10.59 2.25,0.96 3.15,2.19 5.22,0.64 1.1,-7.3 -13.75,-7.49 -11.83,7.16 0.19,1.47 0.56,2.66 1.04,3.6 0.87,0.87 1.76,1.74 2.64,2.6 5.73,2.47 15.05,-6.61 7.15,-8.56zm64.26 -28.08c1.67,-1.48 1.62,-1.92 1.03,-3.83 -2.1,-6.85 -4.7,-8.85 0.03,-13.13 2.26,1.73 2.21,5.17 3.49,9.29 0.59,1.91 0.43,1.82 2.43,2.94 3.7,-1.69 1.23,-4.43 -0.5,-10.64 -0.46,-1.66 -0.54,-4.22 -2.85,-5.55 -3.83,-2.22 -5.41,1.93 -8.17,3.36 -2.24,1.16 -2.71,0.25 -0.56,7.44 1,3.33 0.82,8.71 5.1,10.12zm90.22 -80.38c-1.02,-2.2 0.68,-4.52 3.63,-2.94 -0.85,2.35 -1.54,3.17 -3.63,2.94zm8.96 -3.1c-1.13,-2.39 -5.18,-6.98 -10.04,-3.96 -7.67,4.76 1.27,18.88 7.36,16.39 2.4,-0.98 4.35,-4.52 4.67,-6.55 0.34,-2.13 -1.84,-5.32 -4.24,0.76 -1.66,4.22 -5.59,1.71 -3.89,-0.36 2.16,-2.62 4.86,-2.81 6.14,-6.28zm-146.2 95.84c-2.9,-5.13 -0.42,-7.66 -2.11,-9.4 -1.27,-1.29 -3.26,-0.53 -3.56,1.19l2.26 14.73c0.59,3.16 -0.23,7.01 3.57,8.4 3.87,-3.49 -1.42,-6.24 1.39,-9.82 2.96,1.07 5.49,6.6 8.09,4.49 3.17,-2.57 -4.02,-5.55 -5.05,-8.27 -1.1,-3.81 3.9,-5.11 1.73,-8.58 -3.77,-0.56 -4.25,4.13 -6.32,7.26zm21.59 -11.19c0.02,-0.17 -0.47,-1.28 1.95,-3.02 1.23,-0.88 1.73,-0.61 2.93,-0.5l0.24 1.67c-1.2,0.7 -4.29,3.3 -5.12,1.85zm11.74 2.11l-2.33 -1.02c-1.85,1.57 -1.59,2.91 -3.17,4.31 -2.8,2.49 -6.2,0.1 -2.86,-2.09 3.72,-2.44 5.12,-2.18 6.39,-2.69 0.92,-2.32 1.16,-3.3 -0.95,-5.41 -7.53,-7.51 -14.25,0.46 -11.58,9.56 2.19,7.48 9.82,6.89 13.14,2.44 1.67,-2.25 1.39,-2.82 1.36,-5.1zm126.58 -104.93c0.58,1.62 1.04,0.79 -0.25,2.41 -0.66,0.83 -1.64,1.52 -2.5,2.08 -1.37,-1.8 0.12,-4.21 2.75,-4.49zm5.64 3.29c-2.08,1.97 -1.96,7.78 -6.3,6.45 -1.6,-3.9 4.44,-3.81 7.25,-9.1 -4.14,-9.66 -17.35,-3.74 -12.92,6.99 3.69,8.94 10.73,8.93 13.84,0.72 0.94,-2.51 0.69,-3.75 -1.87,-5.06zm-78.15 52.46c0.68,0.7 1.45,1.42 2.09,2.14 1.52,1.7 2.02,2.78 -0.09,3.83 -1.05,0.52 -1.1,0.41 -2.11,0.41 -0.7,-1.95 -0.54,-4.82 0.11,-6.38zm-2.21 19.9c4.49,-2.34 2.8,-3.58 2.09,-7.1l6.55 -5.36c1.65,0.54 5.2,5.5 6.78,2.18 0.78,-1.63 -2.85,-5.35 -4.16,-6.99 -2.02,-2.53 -4.6,-4.72 -6.53,-7.09 -1.69,-2.08 -3.25,-5.71 -6.2,-4.17 -2.52,1.31 -1.41,4.74 -1.16,6.65 0.38,2.94 0.15,4.53 0.42,7.37 0.22,2.4 0.13,4.7 0.31,6.98 0.12,1.45 0.26,2.04 0.27,3.48 0.02,1.72 -0.13,2.33 1.63,4.05zm-142.65 -264.06c10.51,0.28 19.77,0.65 31.81,0.58 3.58,-0.02 6.48,0.5 10.14,0.4 7.67,-0.2 5.94,2.13 10.68,15.42 1.21,3.39 2.14,6.85 3.11,10.12 0.59,2 2.96,8.43 2.42,10.28 -1.39,0.5 -20.83,0.14 -24.25,0.11 -8.76,-0.09 -20.44,-1.89 -23.77,-1.74 -2.75,0.12 -17.62,0.06 -30.09,-0.11 -0.44,0.93 -0.88,1.87 -1.31,2.81 0.65,0.05 1.32,0.1 2.05,0.17l36.34 0.32c3.04,0.31 6.11,1.28 9.08,1.31 1.74,0.02 2.7,-0.05 4.56,0.04l13.63 0.14c1.57,-0.09 2.93,-0.11 4.54,-0.1 14.62,0.09 15.82,2.58 10.64,-11.12 -2.68,-7.1 -7.87,-27.62 -10.05,-30.63l-24.01 -0.03c-4.16,0.01 -7.96,0.16 -12.25,-0.35 -1.93,-0.23 -6.32,-0.36 -11.3,-0.47 -0.66,0.95 -1.32,1.89 -1.97,2.85zm34.69 -41.09l1.83 5.4c0.89,2.94 1.54,4.63 2.18,7.69 0.2,0.92 4.77,12.78 4.65,15.02 -1.51,1.02 -1.34,0.76 -3.14,0.49l-19.59 -1.13c-2.2,-0.05 -3.69,-0.18 -5.94,-0.07l-4.57 -0.18c-0.85,1.09 -1.69,2.19 -2.53,3.29l3.27 0.13c1.13,0.03 1.78,-0.15 2.78,-0.21l18.54 0.77c1.28,0.23 1.73,0.49 3.13,0.58 1.79,0.11 10.83,0.4 12.29,-0.55l-6.86 -22.35c-1.46,-4.07 -2.46,-7.77 -3.47,-11.3 -0.86,0.8 -1.72,1.6 -2.57,2.42zm-62.65 134.38c-1.27,-2.93 -1.3,-7.86 -2.22,-11.52 -0.56,-2.24 -0.32,-3.26 -0.7,-5.62l-1.67 -8.64c-0.67,2.17 -1.31,4.36 -1.93,6.55 0.14,1.07 0.23,2.12 0.25,3.14 0.04,2.36 0.41,2.62 0.95,4.89 0.42,1.79 0.39,3.48 0.82,5.25 1.41,5.72 0.6,10.59 7.66,9.93 1.56,-0.15 3.47,-0.81 5.23,-1 1.64,-0.18 3.21,-0.06 4.89,-0.05 1.99,0.03 3.15,0.65 4.89,0.46 2.16,-0.24 2.58,-0.47 4.9,-0.44l19.91 -0.49c2.34,-0.21 2.71,0.03 5.25,-0.04 3.54,-0.11 6.26,-0.16 9.79,-0.16l19.93 -0.64c5.5,-0.46 26.87,1.49 30,-2.04 -0.48,-2.74 -2.44,-6.19 -3.22,-9.02 -2.38,-8.65 -5.79,-20.13 -8.83,-28.32 -3.02,-8.16 3.18,-8.14 -13.06,-7.79 -6.46,0.14 -12.41,-0.03 -18.87,-0.07 -3.3,-0.02 -5.9,-0.85 -9.1,-0.9l-18.87 0.16c-3.23,-0.01 -6.35,-0.4 -9.44,-0.29 -3.13,0.11 -6.38,0.25 -9.08,0.26 -2.46,0 -8.64,-0.12 -14.61,-0.11 -0.38,0.93 -0.77,1.86 -1.14,2.8l22.04 0.11c3.57,0.73 27.28,-1.08 39.51,0.79 6.93,1.05 15.56,0.12 22.72,0.45 6.23,0.28 4.18,-1.29 6.61,4.25 2.74,6.23 5.98,18.15 8.27,25.17 0.62,1.89 0.96,3.55 1.67,5.57 0.81,2.26 1.32,3.53 1.26,5.61l-94.37 1.84c-1.32,-0.07 -1.9,-0.23 -3.14,-0.21 -2.21,0.02 -4.21,0.68 -6.3,0.12zm3.49 16.76c2.29,-0.67 20.5,-0.33 25.87,-0.41l59.77 0.27c5.9,0 11.23,0.25 17.13,0.21 4.88,-0.02 4.91,-0.8 6.51,4.49l3.95 12.94c0.48,1.33 0.72,2.64 1.19,4.18 0.84,2.73 2.44,5.83 2.35,8.41 -1.98,1.05 -18.28,2 -20.98,2.2 -2.24,0.16 -4.19,0.91 -6.66,1.12l-40.89 4.73c-2.36,0.34 -4.45,0.26 -6.99,0.62l-33.82 3.46c-0.9,-1.45 -2.55,-12.91 -3.24,-16l-2.86 -15.73c-0.53,-2.52 -1.97,-8.46 -1.33,-10.49zm-4.6 -3.2c-0.44,2.01 -0.1,0.81 0.42,2.86 0.69,2.73 -0.43,1.58 1.39,6.3 1.72,4.45 3.77,22.18 5.13,27.59l1.4 9.11c-0.02,1.6 -0.51,1.23 0.03,3.22l45.52 -5.12c1.6,-0.12 2.53,0.12 4.19,-0.1l24.81 -2.89c3.4,0.3 4.91,-0.9 8.41,-0.74 4.13,0.2 0.63,-1.29 8.38,-1.18 3.88,0.06 5.12,-1.06 12.23,-1.17 2.3,-0.04 11.26,-0.91 12.56,-2.24 1.82,-1.86 -0.86,-5.63 -1.55,-8.32 -0.42,-1.65 -0.56,-2.64 -0.96,-4.18l-3.9 -12.23c-4.35,-13.37 2.16,-10.67 -34.81,-10.67l-79 -0.29c-3.28,0.02 -2.24,-0.79 -4.25,0.05zm73.11 229.98l18.87 -8.87c2.37,-1.16 9.51,-5.28 11.2,-5.38 1.11,1.67 0.58,3.11 0.64,4.91l0.58 13.97c0.1,3.07 0.55,6.38 0.68,9.43 0.13,3.13 -0.04,5.9 0.04,9.1l0.03 0.59c0.99,0.62 1.98,1.25 2.98,1.86l-0.37 -11.9c0.32,-3.62 -1.28,-20.49 -1.21,-25.87 0.03,-2.47 0.82,-4.21 -0.71,-6.24 -2.67,-0.02 -22.42,9.45 -26.08,11.31 -3.01,1.52 -6.21,3.05 -9.49,4.57 0.94,0.85 1.89,1.69 2.84,2.52zm-67.27 -92l1.27 -0.25c1.27,1.58 1.45,4.5 1.61,6.68 1.83,3.95 3.77,7.85 5.79,11.69l0.01 -0.14c0.08,-1.61 -1.15,-3.99 -1.75,-8.74 -0.2,-1.58 -0.76,-2.83 -0.99,-4.55 -1.2,-9.07 -1.33,-9.71 -7.46,-8.29 0.5,1.2 1,2.4 1.52,3.6zm-19.07 -131.09c0.64,3.11 1.27,7.2 1.51,8.56 0.75,4.09 1.67,7.82 2.19,11.89 0.54,4.22 1.46,8.33 2.22,12.22 0.45,2.29 1.6,9.79 1.31,11.79 -1.58,1.1 -3.97,0.93 -5.83,1.22l-2.62 0.41c0.07,1.12 0.13,2.23 0.21,3.35 6.11,-0.87 11.97,-0.76 11.68,-4.87 -0.2,-2.65 -0.81,-5.26 -1.12,-7.7l-4.06 -23.43c-0.24,-1.29 -0.31,-2.52 -0.61,-3.85 -1.18,-5.15 -0.92,-6.67 -1.82,-11.51 -0.53,-2.84 -0.44,-4.11 -2.23,-4.56 -0.3,2.15 -0.58,4.31 -0.83,6.48zm241.75 285.55l33 -2.42c2.75,-0.01 4.95,-0.01 7.7,-0.11 3.01,-0.11 4.77,-0.63 7.69,-0.74l10.31 -0.59c6.49,-1.18 12.9,-2.62 19.21,-4.28l-26.73 1.42c-3.42,0.51 -5.3,0.33 -8.4,0.56 -1.63,0.12 -2.06,0.26 -3.84,0.46 -2.3,0.27 -2.29,-0.26 -4.2,-0.22 -2.11,0.04 -1.92,0.81 -8.38,0.57 -2.53,-0.1 -1.41,-0.05 -3.84,0.65l-20.63 1.83c-2.97,0.25 -5.47,-0.06 -8.4,0.14 -4.3,0.28 -8.35,0.72 -12.39,1.11 6.23,0.77 12.53,1.31 18.9,1.62zm36.65 -197.14c1.9,-1.9 3.16,-3.95 5.44,-4.36 1.58,1.76 2.57,8.91 2.91,11.19 0.61,4.06 8.04,28.38 10.3,33.22l16.72 43.95c-2.06,1.27 -3.89,0.63 -5.8,0.78 -7.12,0.56 -19.64,3.81 -27.28,5.16 -3.56,0.62 -7.18,1.05 -10.84,1.67l-82.15 15.63c-1.2,0.15 -1.34,0.27 -2.77,0.72l-24.49 5.05c-3.68,0.41 -7.09,1.29 -10.82,1.99l-8.39 1.5c-1.23,0.12 -1.35,0.2 -2.57,-0.15 -2.73,-5.86 1.59,-8 3.67,-9.54 6.36,-4.69 22.2,-14.65 25.91,-17.72 1.96,-1.62 2.56,-2.83 4.79,-4.16l36.01 -27.75c2.49,-1.48 2.78,-1.85 5.01,-4.09 5.4,-5.4 9.51,-7.18 12.57,-9.79l18.24 -15.34c2.97,-3.01 7.6,-5.08 14.65,-11.89 3.53,-3.42 10.23,-7.42 18.89,-16.07zm6.14 -9.65c-3.49,3.15 -5.49,3.37 -8.89,7.38 -2.63,3.1 -5.9,5.62 -9.01,8 -1.76,1.35 -2.96,2.94 -4.58,4.37 -1.57,1.38 -3.12,1.92 -4.67,3.28 -3.73,3.26 -5.25,5.75 -9.54,8 -3.64,1.91 -5.96,4.82 -9.44,7.27 -2.05,1.43 -2.92,2.62 -4.67,4.18l-9.37 6.94c-2.01,1.32 -3.22,3.06 -4.97,4.64 -2.82,2.55 -6.24,3.47 -9.44,6.7 -3.53,3.57 -2.83,1.42 -9.1,7.67 -3.32,3.32 -14.89,12.64 -18.78,15.01 -2.18,1.33 -2.65,2.58 -4.54,3.9 -3.31,2.31 -12.24,8.31 -14.44,10.44 -3.14,3.04 -27.44,18.19 -28.21,20.03 -0.04,0.09 0.06,9.44 0.7,11.27 3.88,1.72 17.36,-2.2 22.76,-2.89l16.78 -3.55c6.88,-0.57 36.88,-7.74 40.19,-7.93 7.54,-0.44 16.1,-3.37 19.93,-3.88l19.93 -3.63c2.09,-0.27 3.32,-0.53 5.57,-1.02l28.33 -5.02c2.41,-0.36 3.85,-1.04 5.93,-1.47 1.2,-0.24 1.52,-0.07 2.8,-0.23 1.14,-0.14 1.76,-0.36 2.8,-0.57 2.07,-0.4 3.7,-0.7 5.93,-1.21 3.04,-0.7 9.07,0.44 11.41,-2.22l-9.04 -23.77c-2,-3.71 -9.37,-25.08 -11.03,-29.69l-1.98 -5.94c-2.4,-8.34 -4.94,-15.07 -6.63,-23.77 -0.28,-1.4 -0.46,-1.52 -0.8,-2.79 -0.76,-2.82 0.12,-6.98 -1.64,-9.44l-2.29 -0.06zm-143.52 180.74c-0.03,-3.88 -0.6,-7.23 -1.02,-10.8 -0.18,-1.5 0.07,-2.96 0.01,-4.56 -0.12,-3.33 -0.54,-6 -0.9,-9.44l-0.17 -9.43c-0.13,-5.22 2.09,-3.6 6.83,-4.01 1.48,-0.13 1.12,-0.3 2.45,-0.76 2.8,-0.99 14.66,-2.35 16.41,-2.79 11.8,-3 18.24,-3.09 28.32,-5.55 1.87,-0.46 3.08,-0.49 4.89,-0.66l9.44 -1.95c1.45,-0.25 3.09,-0.7 4.55,-0.91l14.31 -2.04c1.84,-0.27 2.75,-0.76 4.58,-1.13l23.75 -3.78c2.6,-0.78 1.97,-0.61 4.55,-0.78 3.64,-0.25 20.6,-3.7 28.32,-4.63l28.3 -5.21c9.03,-2.61 5.38,2.21 11.03,12.88l5.63 18.87c0.69,3.23 0.78,5.77 1.38,9.43 0.41,2.55 0.06,2.94 0.19,4.9 0.11,1.71 0.49,2.57 0.48,4.55 0,2.79 0.26,6.91 -0.12,9.44 -0.41,2.74 -0.5,9.02 -1.02,9.52l-48.32 3.41c-10.13,0.27 -28.58,2.29 -36,2.29 -4.73,0.01 -26.31,2.44 -30.07,2.43l-36 2.08c-4.2,0.19 -8.7,0.39 -13.26,0.62 2.51,0.88 5.04,1.73 7.58,2.54 4.78,-0.34 15.63,-0.56 19.31,-1.19 1.51,-0.25 2.6,-0.22 4.2,-0.18 2.93,0.07 5.07,-0.67 8.03,-0.7 11.07,-0.11 9.04,0.52 19.57,-1.26l27.62 -1.55c2.73,0.03 5.31,-0.18 8.04,-0.57l8.04 -1.02c2.03,0 1.75,0.23 3.85,0 1.53,-0.17 2.33,-0.12 3.85,-0.2 2.9,-0.14 5.19,-0.55 8.03,-0.37l11.89 -0.65c1.53,-0.11 2.79,-0.58 4.19,-0.66 1.53,-0.09 2.13,0.27 3.83,0.16l28.13 -1.97c1.89,-1.54 1.76,-21 1.78,-24.27 0.02,-4.52 -2.48,-20.94 -3.69,-24.81 -0.52,-1.64 -1.19,-2.21 -1.63,-3.84 -0.45,-1.72 -0.32,-2.32 -0.96,-4.21l-6.47 -16.46c-2.8,-6.48 -12.06,-1.1 -23.8,0.36l-49.25 8.35c-5.51,1.35 -12.67,1.71 -16.44,2.7 -5.31,1.39 -2.7,-0.61 -8.05,1.13 -3.06,0.99 -20.76,3.7 -24.83,4.57l-8.03 1.71c-4.8,0.68 -56.23,9.58 -57.66,10.37 -1.64,8.96 -0.34,6.33 -0.2,11.39 0.03,1.38 -0.12,2.37 -0.07,4.18 0.07,2.66 0.3,4.9 0.48,7.71l0.67 15.03c1.15,0.58 2.3,1.15 3.45,1.72zm-140.67 -196.76c2.17,-0.32 3.91,-0.61 4.9,-0.85 1.98,-0.47 1.45,-0.67 3.78,-0.84 1.05,2.64 0.88,3.38 1.27,6.23 1.05,7.62 8.19,44.88 7.31,46.25 -0.25,0.39 -2.15,0.94 -4.81,1.55 0.38,1.06 0.74,2.12 1.13,3.17 2.85,-0.63 5.32,-1.32 5.84,-1.85 1.93,-1.97 0.92,-5.14 0.46,-7.52 -1.06,-5.41 -1.51,-10.11 -2.47,-15.72 -0.46,-2.69 -1.33,-4.95 -1.67,-7.7l-3.72 -23.42c-1.02,-6.65 -3.57,-4.24 -12.4,-2.6 0.12,1.1 0.24,2.2 0.38,3.3zm251.43 -288.85c-1.67,0.51 -3.36,1.01 -5.01,1.53 -1.04,0.32 -1.74,0.63 -2.78,0.95l-8.03 1.87c-6.79,2.06 -15.39,2.93 -22.38,4.1 -9.5,1.6 -7.05,1.77 -16.79,1.98l-10.81 0.85c-2.05,0.09 -3.15,0.56 -5.6,0.37 -0.72,-0.06 -1.48,-0.12 -2.28,-0.17 -2.8,0.87 -5.57,1.81 -8.33,2.77 9.49,0.6 17.45,0.02 27.39,-0.66 2.21,-0.15 3.24,-0.67 5.58,-0.62 2.75,0.06 2.67,0.04 5.6,-0.89l16.77 -2.53c4.15,-0.77 7.24,-1.31 11.53,-2.08l16.77 -4.94c2.28,-1.07 4.49,-1.77 6.95,-2.49 -2.03,-0.05 -4.06,-0.08 -6.11,-0.08 -0.82,0 -1.64,0.03 -2.47,0.04zm-144.87 305.21c-0.6,2.28 -0.2,2.64 0.36,4.6l10.03 41.59c0.54,2.96 1.13,6.37 2.06,9.44 1.67,5.53 2.42,13.94 3.83,18.39l-69.71 35.57c0.8,1.01 1.61,2.01 2.43,3.01 0.86,-0.54 1.79,-1.1 2.83,-1.57l19.57 -10.11c1.76,-1.01 3.1,-1.1 4.89,-1.95 1.63,-0.76 3.67,-2.11 5.24,-2.94l29.71 -15.24c3.2,-1.65 11.21,-3.43 8.53,-8.33 -0.71,-1.3 -0.6,-0.57 -1.04,-2.13l-6.3 -31.13c-0.25,-1.78 -0.29,-2.51 -0.79,-4.18 -0.5,-1.66 -0.99,-2.75 -1.51,-4.54 -0.95,-3.29 -0.27,-4.94 -1.92,-9.08 -1.1,-2.74 -1.3,-6.14 -2.01,-8.77 -2.87,-10.63 -4.15,-9.55 6.79,-11.64l8.75 -2.42c2.87,-0.84 5.84,-1.87 8.71,-2.54l17.84 -4.91c1.64,-0.51 2.86,-0.88 4.54,-1.51 1.78,-0.67 2.98,-0.87 4.56,-1.46 4.47,-1.67 8.7,-1.88 13.27,-3.76 7.94,-3.27 8.98,-3.36 17.48,-5.16 1.6,-0.34 2.79,-0.35 4.53,-0.58 3.05,-0.41 13.6,-4.13 17.83,-5.44l13.29 -4.02c1.62,-0.53 2.9,-0.96 4.54,-1.75 3.79,-1.82 5.2,-1.47 8.74,-2.49 10.07,-2.92 5.58,-6.16 1.02,-23.63 -0.42,-1.62 -0.83,-2.9 -1.04,-4.17l-5.45 -22.38c-2.18,-7.39 -1.08,-7.99 -13.75,-3.84l-53.13 16.23c-2.86,0.91 -5.9,2.04 -9.09,2.91 -3.73,1.02 -9.66,2.71 -13.27,2.99 -2.15,0.17 -2.83,0.01 -4.7,2.12 0.45,1.58 0.47,2.87 1.23,5.1 0.62,1.82 1.31,3.64 1.82,5.25 0.7,2.19 3.11,8.99 2.91,10.7 -1.76,1.05 -5.45,1.1 -7.57,1.46l-31.45 4.44c-2.74,0.48 -5.19,0.99 -8.03,1.44l-16.09 2.28c-2.52,0.4 -4.95,0.72 -7.68,1l-15.73 2.57c-2.74,0.32 -5.12,0.57 -8.03,1.04 -1.44,0.24 -2.37,0.5 -3.85,0.67l-11.9 1.76c-3.23,0.4 -9.16,1.95 -11.89,1.96 -2.29,0 -2.05,-1.02 -4.21,-1.04 -1.36,1.74 -0.92,2.36 -0.44,4.23 1.87,7.32 2.58,14.65 4.13,22.01 0.31,1.49 0.57,2.79 0.86,4.2l1.18 6.62c1.79,5.56 2.58,14.96 4.21,21.7l9.02 50.33c0.34,1.51 0.92,3.06 1.26,4.55l1.61 12.11c1.66,2.31 3.35,4.59 5.08,6.84 -0.49,-2.83 -0.81,-6.33 -1.3,-8.12 -0.51,-1.84 -0.64,-2.43 -0.87,-4.19 -1.62,-12.34 -7.19,-35.2 -9.44,-49.28 -0.9,-5.62 -2.02,-10.56 -2.94,-16.08l-9.02 -49.2c3.1,-3.11 12.35,-2.74 19.74,-4.54l19.6 -2.16c4.04,-0.27 25.69,-5.02 31.79,-5.48l8.04 -0.95c1.52,-0.19 2.5,-0.51 3.85,-0.69 3.51,-0.48 4.92,-0.16 8.04,-1.03l31.81 -4.35c1.79,-0.05 2.52,0.55 4.23,-0.08 0.72,-3.61 -6.22,-21.31 -6.33,-23.11 2.01,-1.92 6,-1.68 10.49,-2.7l75.5 -21.76c1.7,3.22 6.47,23.25 8.06,29.36l2.14 8.73c0.95,3.17 2.42,6.32 2.09,9.15 -2.34,1.71 -5.48,1.5 -8.45,2.5l-8.74 3.28c-1.52,0.54 -2.65,0.9 -4.19,1.42 -7.15,2.44 -24.13,8.22 -30.76,9.23 -14.16,2.17 -14.36,4.22 -26.21,6.94l-17.47 4.82c-12.38,4.04 -22.88,6.62 -34.98,10.15 -1.71,0.5 -3.01,1.14 -4.19,1.43 -2.53,0.62 -1.9,-0.5 -4.59,0.31zm399.8 -6.68l-2.01 8.84c-0.21,0.63 -0.36,1.02 -0.6,1.74l-1.78 5.25c-1.69,5.03 -4.2,12.51 -6.43,17.12l-11.45 20.99c-0.63,-2.52 -1.2,-6.46 -1.45,-9.09 -0.67,-6.94 -4.4,-18.62 -7.49,-25.19 -1.78,-3.78 -2.4,-4.94 -5.02,-8.73 -1.03,-1.49 -1.21,-2.78 -2.15,-4.25 -1.11,-1.74 -2.47,-2.53 -3.63,-4.17 -1.26,-1.78 -0.97,-2.11 -2.75,-3.98 -5.58,-5.86 -4.47,-6.25 -10.22,-12.85l-15.5 -25.43c-0.72,-1.63 -1.25,-2.73 -1.83,-4.18 -0.65,-1.64 -0.88,-2.54 -1.42,-4.2 -3.56,-10.99 -5.56,-22.71 -8.1,-33.9 -0.49,-2.17 -0.25,-2.45 -0.59,-4.56l-4.02 -20.96c-0.43,-1.55 -0.71,-2.7 -1.12,-4.2 -0.2,-0.72 -0.48,-1.39 -0.69,-2.09 -2.76,-9.45 -7.01,-14.16 -4.53,-19.23 2.82,-5.79 4.99,-11.21 7.53,-16.78 0.79,-1.73 1.36,-2.96 1.81,-4.56 2.17,-7.75 6.07,-13.5 8.84,-20.96l11.31 -25.51c0.75,-1.57 1.21,-2.59 1.78,-4.19l2.23 -5.48c-0.86,-0.99 -1.74,-1.97 -2.61,-2.94l-5.41 11.91c-2.53,4.92 -2.28,5.61 -3.7,8.74l-12.8 30.04c-3,8.87 -7.37,17.69 -11.08,25.9 -1.22,2.71 -4.03,6.35 -3,8.71 3.76,8.62 5.06,6.05 8.37,21.68l4.18 25.88c0.07,1.97 0.42,2.65 0.97,4.54l3.54 12.58c1.08,8.18 3.11,14.17 5.63,21.66l8.55 17.14c3.93,6.42 8.06,11.51 12.9,17.54 4.33,5.4 9.36,11.16 12.91,17.07 1.83,3.05 4.16,5.79 5.61,8.72 3.47,7.02 7.31,18.75 8.2,25.87 0.2,1.59 0.01,2.28 0.34,4.2l1.1 8.73c0.12,1.95 -0.69,2.47 0.63,4.36 2.26,-0.21 8.2,-9.83 9.62,-12.39 1.39,-2.51 3.57,-6.24 5.32,-9.55 4.36,-12.85 7.72,-26.16 10.01,-39.84zm-151.91 192.93c0.31,-3.12 0.41,-6.27 0.67,-9.34 0.45,-5.1 -0.22,-10.09 -0.51,-15.01 -0.47,-8.22 0.08,-6.22 -1.83,-14.68 -1.35,-6.02 -0.82,-8.43 -3.56,-14.67l-6.64 -19.94c-0.57,-1.72 -1.37,-3.04 -1.9,-4.89 -1.41,-4.98 -4.88,-10.04 -6.09,-14.68 -0.56,-2.14 -0.73,-2.61 -1.95,-4.89l-8.12 -19.59c-2.07,-6.46 -6.14,-13.31 -8.27,-19.56 -1.15,-3.38 -1.96,-6.69 -3.47,-10.12 -3.83,-8.73 -5.84,-20.07 -7.7,-29.38 -4.78,-24 1.21,-22.2 7.91,-28.14 1.81,-1.6 2.72,-3.11 4.75,-4.32l24.98 -21.23c4.62,-4.55 14.27,-11.42 19.54,-16.79 5.5,-5.6 14.91,-13.72 18.82,-19.69 2.28,-3.49 4.45,-4.46 7.71,-9.82 1.88,-3.09 3.8,-6.64 6.53,-9.15 0.16,-0.15 0.23,-0.16 0.37,-0.22 3.19,2 6.83,22.52 6.42,28.27l2.74 16.41c1.14,6.55 4.37,13.27 6.52,19.93 1.46,4.54 5.81,11.67 8.58,16.45 3.09,5.32 6.65,11.09 10.28,16.15 3.75,5.24 9.13,10.78 12.71,16 5.39,7.88 11.02,15.44 13.8,24.46 2.67,8.68 1.9,8.55 2.59,16.07 0.15,1.58 0.4,2.41 0.86,4.19 1.4,5.5 -0.03,14.5 -1.32,19.94 -0.38,1.61 -0.77,2.64 -1.2,4.19l-5.52 16.09c-0.68,1.51 -1.3,2.63 -2.08,4.18 -1.39,2.78 -3.11,5.36 -4.6,8.06 -4.25,7.69 -7.16,13.28 -12.44,20.17 -0.93,1.21 -1.53,2.48 -2.48,3.89 -0.87,1.28 -1.8,2.62 -2.74,4.01 4.61,-4.27 9.06,-8.71 13.34,-13.3l0.05 -0.11c0.97,-2.41 5.65,-6.14 9.64,-16.44 0.82,-2.14 1.55,-2.18 2.69,-4.14 0.88,-1.51 0.74,-2.07 1.6,-3.89 4.87,-10.29 9.41,-25.3 8.77,-36.71 -0.18,-3.11 -0.28,-5.55 -0.3,-8.37 -0.05,-5.48 -0.93,-11.2 -2.39,-16.43 -1.63,-5.8 -4.98,-10.46 -8.24,-16.43 -6.23,-11.41 -15.62,-21.47 -23.59,-32.55 -5.2,-7.22 -10.04,-16.43 -13.88,-24.44l-6.11 -16.4c-1.31,-3.82 -0.77,-5.18 -1.41,-8.4 -0.55,-2.77 -1.95,-5.3 -2.26,-8.03 -0.32,-2.9 -0.66,-5.48 -1.18,-8.41 -0.54,-3.01 -0.74,-10.8 -1.91,-16.4 -1.33,-6.39 -2.88,-7.39 -4.55,-12.29 -0.68,-1.99 -0.97,-2.07 -2.71,-2.75 -1.56,1.59 -1.8,3.15 -2.84,4.89 -1.12,1.86 -2.62,2.75 -3.9,4.89 -5.58,9.29 -8.91,12.08 -15.06,19.87 -4.27,5.42 -14.6,12.12 -19.38,18.54 -3.39,4.55 -10.63,8.78 -14.6,12.84 -3.11,3.18 -6.33,4.4 -9.78,8.2 -2.47,2.73 -2.33,1.97 -4.81,3.76 -3.57,2.58 -11.34,10.57 -14.61,12.44l-9.55 8.22c-1.72,3.55 -0.32,11.58 0.16,15.39 0.24,1.94 0.04,2.98 0.36,4.92 0.65,3.96 0.82,5.93 2,9.76 0.57,1.82 0.74,3.31 1.15,5.25 2.12,10.05 9.26,31 13.13,40.21 3.01,7.18 6.47,13.12 9.04,20.26 2.87,7.95 5.33,12.87 8.08,19.93 2.46,6.32 5.05,15.05 7.29,20.27 1,2.33 1.24,2.77 1.81,4.91 1.04,3.96 2.89,4.77 4.93,15.01 0.96,4.81 2.05,10.09 2.17,15.03 0.13,5.19 1.74,15.3 0.68,19.94 -0.56,2.46 -0.4,2.99 -0.54,5.24 -0.13,1.92 -0.26,3.53 -0.4,4.92 1.25,-0.51 2.5,-1.02 3.75,-1.55zm62.75 -432.65c-1.2,2.31 -2.53,4.87 -4.03,7.73 -5.39,10.27 -9.01,19.91 -13.96,30.41 -4.37,9.24 -11.02,21.85 -14.57,30.76l-12.85 26.92c-0.63,1.3 -1.06,2.63 -1.48,3.5l-5.81 11.53c-2.74,4.63 -8.53,15.3 -11.52,19.14 -3.7,4.76 -6.54,10.6 -11.27,15.28 -2.82,2.8 -4.29,5.25 -6.81,7.88 -2.68,2.79 -4.81,4.23 -7.48,6.5 -5.45,4.65 -9.26,9.78 -15.31,14.29 -6.76,5.05 -12.14,11.66 -19.17,16.27 -1.61,1.04 -2.25,2.05 -3.73,3.26 -1.61,1.32 -2.49,1.4 -4.13,2.86 -1.7,1.51 -1.69,1.86 -3.69,3.03 -7.21,4.24 -11.27,10 -15.03,12.49 -0.64,-1.39 -0.06,-0.06 -0.48,-1.38l-7.81 -30.05c-3.49,-9.98 -5.12,-20.83 -8.2,-30.78 -3.91,-12.63 0.51,-9.82 -19.52,-4.36 -1.36,0.37 -1.8,0.29 -3.15,0.62l-12.92 3.75c-2.26,0.54 -4.03,1.08 -6.31,1.83 -6.64,2.21 -13,3.24 -19.54,5.17l-19.6 6.17c-1.41,0.49 -0.56,0.22 -1.73,0.54l-11.2 3.16c-2.49,0.84 -4.44,1.12 -6.63,1.74 -8.41,2.39 -6.68,2.88 -10.73,-11.62 -0.56,-2.01 -1.34,-4.16 -2.04,-6.3l-6.03 -19.22c-1.18,-4.03 -2.5,-8.48 -3.98,-12.59l-9.87 -31.81c-3.6,-10.74 -6.18,-21.28 -9.6,-31.8 -3.47,-10.66 -5.82,-21.32 -9.97,-31.79 -1.36,-3.43 -2.44,-8.91 -3.86,-12.95 -0.46,-1.32 -0.7,-2.02 -0.98,-3.16 -0.23,-0.87 -0.26,-1.02 -0.47,-1.74 -0.24,-0.81 -0.21,-0.64 -0.42,-1.4l-1.07 -3.58c-0.86,0.72 -1.71,1.44 -2.56,2.16l29.54 96.5c1.06,3.32 2.19,6.41 3.24,9.79 5.14,16.54 9.7,32.87 15.44,49.27 3.72,10.65 2.67,15.61 10.2,14.68 6.09,-0.75 34.09,-9.76 39.15,-11.48 1.98,-0.67 2.93,-0.93 4.9,-1.34 1.75,-0.36 3.27,-0.78 4.92,-1.3 0.82,-0.26 1.51,-0.56 2.42,-0.83l4.89 -1.34c0.76,-0.25 1.66,-0.5 2.45,-0.8 4.97,-1.84 9.54,-2.32 14.67,-3.94 1.71,-0.53 3.13,-1.09 4.9,-1.52 3.31,-0.8 6.51,-1.85 9.81,-2.75 3.69,-1 6.83,-2.12 10.1,-2.29 1.45,1.65 6.81,22.75 7.48,25.5l4.51 17.12c0.48,1.52 0.96,2.84 1.34,4.21l1.85 8.73c0.42,1.71 0.92,2.63 1.27,4.2l2.04 6.31c0.42,1.31 0.17,0.95 0.53,2.3 -1.52,1.12 -2.82,1.27 -4.32,1.7 -1.68,0.48 -2.85,0.87 -4.54,1.34l-21.68 6.9c-6.77,2.34 -13.6,4.96 -20.62,6.36 -3.89,0.77 -6.39,1.93 -10.14,2.38 -3.03,0.36 -5.75,1.16 -9.08,2.28 -1.6,0.54 -2.74,0.89 -4.2,1.34l-23.06 6.72c-0.01,0.01 -1.05,0.35 -1.06,0.35l-37.75 11.38c-2.38,0.63 -2.18,0.73 -4.48,-0.01 -2.4,3.53 1.09,11.34 1.77,15.31 0.87,5.11 2.71,9.9 3.59,15.03 1.55,9.02 4.39,17.55 6.29,26.56 0.34,1.59 0.09,2.43 1.89,3.81 1.94,-1.26 4.68,-4.23 9.46,-7.16l19.5 -14.89c2.05,-1.78 2.88,-2.29 5,-3.59 2.27,-1.4 2.99,-2.92 4.93,-4.41 3.48,-2.67 17.31,-11.94 19.66,-14.15 2.49,-2.36 2.44,-2.01 4.81,-3.67 2.81,-1.96 7.17,-6.15 9.74,-7.78 4.78,-3.03 5.38,-4.56 14.31,-9.97 5.56,-3.38 5.43,-3.85 9.86,-7.42l24.5 -19.07c6.75,-6.69 4.04,-3.16 9.7,-6.69 0.89,-0.56 3.17,-3.34 4.32,-4.47 5.04,-5.01 12.58,-9.73 14.72,-11.86 2.04,-2.03 2.39,-2.41 4.72,-3.93l13.75 -10.43c1.72,-1.44 3.06,-3.37 4.83,-4.72 1.88,-1.44 2.77,-1.48 4.98,-3.66 1.53,-1.52 2.97,-3.35 4.76,-4.52 4.63,-3.03 5.92,-4.79 9.66,-9.03 3.13,-3.56 6.86,-5.88 9.91,-9.66 10.06,-12.45 12.41,-12.86 21.87,-29.38l9.64 -19.23c0.72,-1.66 2.2,-2.77 3.06,-4.88 0.8,-1.97 1.25,-2.62 2.5,-4.88 2.02,-3.67 3.16,-6.55 4.24,-9.81 2.38,-7.21 14.12,-30.73 18.82,-39.15 2.52,-4.53 5.99,-13.98 8.16,-19.21 2.7,-6.5 7.28,-15.77 12.27,-25.26 -0.81,-0.68 -1.61,-1.37 -2.43,-2.05zm-291.93 -24.22c7.8,1.17 15.61,2.32 19.8,3.2 3.56,0.74 5.63,0.61 9.09,1.1 6.21,0.87 12.48,0.95 18.51,0.59 5.93,-0.35 27.26,0.42 32.16,-0.75 7.24,-1.74 15.13,-1.97 22.73,-2.99 9.53,-1.29 18.43,-4.85 27.61,-7.21 7.65,-1.96 13.56,-5.37 18.53,-6.51 4.49,-1.03 13.25,-5.53 18.16,-7.43 2.86,-1.11 5.94,-2.83 9.1,-4.6 2.53,-1.4 5.09,-2.77 7.67,-4.14 -1.52,-0.33 -3.04,-0.66 -4.57,-0.96 -1.14,0.59 -2.29,1.15 -3.47,1.67 -9.32,4.18 -18.47,9.09 -27.93,12.81 -6.23,2.46 -12.17,4.85 -18.52,6.35 -3.19,0.75 -6.18,1.89 -9.45,2.64 -3.28,0.76 -6.15,1.22 -9.44,1.9 -8.19,1.66 -8.22,2.31 -18.53,3.81 -2.93,0.43 -6.8,1.34 -9.42,1.48l-18.54 0.75c-6.05,0 -30.92,0.85 -37.41,-0.36 -6.57,-1.24 -12.09,-1.57 -18.51,-2.8l-3.82 -0.68c-1.25,0.7 -2.5,1.41 -3.75,2.13z"/>
 </g>
</svg>
