<?xml version="1.0" encoding="UTF-8"?>
<!DOCTYPE svg PUBLIC "-//W3C//DTD SVG 1.1//EN" "http://www.w3.org/Graphics/SVG/1.1/DTD/svg11.dtd">
<!-- Creator: CorelDRAW 2020 (64 Bit) -->
<svg xmlns="http://www.w3.org/2000/svg" xml:space="preserve" width="512px" height="512px" version="1.1" style="shape-rendering:geometricPrecision; text-rendering:geometricPrecision; image-rendering:optimizeQuality; fill-rule:evenodd; clip-rule:evenodd"
viewBox="0 0 512 512"
 xmlns:xlink="http://www.w3.org/1999/xlink"
 xmlns:xodm="http://www.corel.com/coreldraw/odm/2003">
 <defs>
  <style type="text/css">
   <![CDATA[
    .fil2 {fill:black}
    .fil1 {fill:#D0DBA7}
    .fil0 {fill:#FFE7AD}
   ]]>
  </style>
 </defs>
 <g id="Camada_x0020_1">
  <metadata id="CorelCorpID_0Corel-Layer"/>
  <path id="laranja" class="fil0" d="M500.42 331.69c-2.32,2 -3.84,4.64 -3.65,10.94 1.29,-3.61 2.52,-7.25 3.65,-10.94zm-320.61 -233.92c-0.88,2.8 4.54,23.6 5.65,28.28 0.66,2.77 1.06,7.25 2.4,9.74 7.38,-0.02 17.56,1.82 22.67,1.95 4.08,0.11 6.83,0.15 11.2,0.58 3.96,0.38 7.59,0.08 11.54,0.32l16.76 0.68c2.24,-0.12 3.74,0.01 5.94,0.07l19.58 1.13c1.81,0.26 1.63,0.52 3.14,-0.49 0.12,-2.25 -4.45,-14.11 -4.64,-15.03 -0.65,-3.05 -1.3,-4.75 -2.19,-7.69l-3.87 -11.44c-0.83,-0.97 -2.66,-0.96 -3.63,-1.05l-15.37 -1.58c-3.41,-0.5 -17.21,-0.86 -23.07,-1.96 -3.77,-0.71 -11.17,-0.98 -15.38,-1.12 -1.76,-0.07 -2.3,-0.37 -3.85,-0.5l-11.55 -0.8c-2.8,-0.32 -13.39,-1.9 -15.33,-1.09zm17.82 89.76c2.66,0.53 43.14,0.85 47.85,0.64 3.33,-0.15 15.02,1.65 23.78,1.74 3.42,0.03 22.85,0.39 24.25,-0.11 0.53,-1.85 -1.83,-8.27 -2.43,-10.28 -0.96,-3.26 -1.89,-6.73 -3.1,-10.12 -4.75,-13.29 -3.01,-15.62 -10.68,-15.42 -3.67,0.1 -6.56,-0.41 -10.14,-0.39 -15.25,0.07 -26.04,-0.52 -40.55,-0.79l-15.03 -1.24c-6.57,-1.2 -11.42,-0.13 -15.38,-0.2 -5.92,-0.1 -6.3,-1.01 -5.01,5.79 0.38,2 0.26,2.99 0.65,4.9l3.12 15.37c0.55,2.26 1.54,8.27 2.67,10.11zm121.34 171.04c-0.24,2.81 0.41,3.43 1.29,6.22l5.73 25.14c0.58,2.36 0.94,4.11 1.5,6.32 0.6,2.36 1.3,3.88 1.55,6.27 0.21,1.95 -0.6,4.41 1.73,5.96 4.87,-3.63 9.42,-7.54 14.28,-11.19l14.6 -10.64c5.41,-4.88 12.61,-8.89 17.81,-13.64 1.82,-1.66 2.13,-1.37 3.97,-2.63 2.43,-1.66 4.96,-3.96 7.32,-5.74l14.36 -10.6c1.54,-0.98 2.03,-1.89 3.41,-2.98 2.7,-2.14 9.55,-5.65 11.17,-7.09 4.57,-4.07 18.07,-14.06 22.02,-17.75 2.89,-2.68 5.09,-3.71 7.45,-5.71 -1.33,-0.42 -6.1,0.94 -7.69,1.51 -6.59,2.37 -17.73,6.47 -24.12,8.17 -7.97,2.12 -7.93,3.04 -16.06,4.43 -8.83,1.5 -15.62,3.92 -24.13,6.74l-19.92 5.89c-1.66,0.47 -2.31,0.18 -4.19,1.14 -5.29,2.7 -2.63,0.38 -8.05,2.45 -6.96,2.66 -12.81,4.33 -19.91,5.87 -1.24,0.27 -2.78,0.71 -4.12,1.86zm-236.56 -290.71l42.48 6.63c2.16,0.32 31.52,5.67 32.88,4.74 1.91,-1.3 -0.52,-4.9 -0.71,-9.11l-3.12 -18.17c-0.6,-1.94 -0.76,-2.68 -1.13,-4.55 -0.38,-1.86 -1.3,-3.17 -1.4,-4.91 -0.28,-4.85 0.57,-2.07 -0.79,-9.09 -0.3,-1.49 -0.51,-3.03 -0.74,-4.52 -0.26,-1.67 -0.6,-3.47 -0.97,-5.32 -24.49,11.26 -46.91,26.27 -66.5,44.3zm128.46 195.2c-0.63,2.03 0.81,7.96 1.34,10.48l2.85 15.73c0.7,3.09 2.35,14.55 3.25,16l33.82 -3.46c2.53,-0.36 4.63,-0.28 6.99,-0.62l40.88 -4.73c2.48,-0.21 4.43,-0.96 6.66,-1.12 2.7,-0.2 19.01,-1.15 20.98,-2.2 0.09,-2.58 -1.51,-5.68 -2.35,-8.41 -0.47,-1.54 -0.71,-2.85 -1.19,-4.18l-3.94 -12.94c-1.61,-5.29 -1.64,-4.51 -6.52,-4.48 -5.9,0.03 -11.23,-0.22 -17.12,-0.22l-59.78 -0.26c-5.37,0.07 -23.58,-0.27 -25.87,0.41zm-46.7 -245.92l1.11 6.14c1.46,6.23 2.1,12.64 3.36,18.88 1.35,6.68 1.71,11.12 3.72,18.88 0.6,2.29 0.3,2.65 0.63,4.53l1.16 4.91c2.34,14.24 0.79,9.09 23.79,11.55 2.21,0.24 2.81,0.52 5.25,0.63 1.97,0.08 3.27,0.17 5.26,0.41l32.13 3.29c3.31,0.58 7.18,0.6 10.5,0.72l10.69 1.36c0.74,-1.65 0.34,-2.31 -0.06,-3.65 -0.98,-3.3 -7.21,-24.86 -8.43,-26.58 -2.07,-2.89 -11.87,-5.76 -14.8,-6.96l-7.67 -3.44c-5.7,-2.31 -31.83,-17.83 -37.78,-21.82 -4.66,-3.13 -10.12,-7.1 -15,-10.13 -0.71,-0.44 -1.95,-1.34 -3.42,-2.47 -3.52,1.18 -6.99,2.43 -10.44,3.75zm43.21 229.15c2.09,0.56 4.1,-0.09 6.3,-0.12 1.24,-0.01 1.83,0.14 3.14,0.21l94.38 -1.84c0.05,-2.08 -0.46,-3.35 -1.26,-5.61 -0.72,-2.01 -1.06,-3.68 -1.68,-5.56 -2.29,-7.03 -5.53,-18.95 -8.26,-25.18 -2.43,-5.54 -0.39,-3.96 -6.62,-4.25 -7.16,-0.32 -15.78,0.61 -22.72,-0.45 -12.23,-1.87 -35.93,-0.05 -39.5,-0.79l-22.72 -0.11c-2.91,0.28 -3.14,0.21 -5.96,0.17 -3.77,-0.05 -3.05,1.01 -2.4,3.68l4.38 22.72c0.38,2.36 0.14,3.37 0.7,5.61 0.92,3.66 0.96,8.59 2.22,11.52zm21.72 264.6c-0.05,-0.13 -0.1,-0.23 -0.15,-0.31 -0.24,-0.03 -0.73,0.02 -1.37,0.14 0.51,0.05 1.01,0.12 1.52,0.17zm-191.53 -388.64l75.8 7.58c4.97,0.67 16.82,1.59 21.66,1.39l28.31 2.18c2.05,0.24 4.46,0.87 6.35,-0.31l-2.36 -11.58c-1,-3.64 -0.94,-6.19 -1.45,-8.39l-1.78 -8.74c-0.28,-1.88 -0.68,-3.96 -1.47,-5.98 -1.91,-4.92 -10.59,-4 -16.42,-4.69 -2.24,-0.27 -3.73,-0.47 -5.93,-0.62l-11.89 -2.07c-7.88,-1.34 -15.64,-2.34 -23.41,-3.46 -12.21,-1.75 -24.55,-3.73 -36.8,-5.52 -11.47,12.33 -21.73,25.8 -30.61,40.21zm433.87 232.9c-8.66,8.66 -15.35,12.65 -18.89,16.07 -7.05,6.81 -11.67,8.88 -14.65,11.9l-18.23 15.33c-3.06,2.61 -7.18,4.39 -12.57,9.8 -2.24,2.24 -2.53,2.61 -5.02,4.09l-36.01 27.74c-2.23,1.34 -2.83,2.55 -4.78,4.16 -3.71,3.08 -19.56,13.03 -25.91,17.72 -2.09,1.54 -6.41,3.68 -3.68,9.55 1.23,0.35 1.34,0.26 2.58,0.14l8.38 -1.5c3.73,-0.7 7.15,-1.58 10.82,-1.99l24.5 -5.04c1.42,-0.45 1.56,-0.58 2.77,-0.73l35.55 -6.76c27.5,-22.19 50.33,-49.94 66.74,-81.55 -1.66,-5.58 -3,-10.47 -3.25,-12.1 -0.34,-2.27 -1.33,-9.42 -2.9,-11.19 -2.29,0.42 -3.55,2.46 -5.45,4.36zm-160.04 151.02c0,-0.74 -0.02,-1.5 -0.05,-2.28 -0.13,-3.05 -0.58,-6.35 -0.68,-9.43l-0.57 -13.97c-0.06,-1.8 0.46,-3.24 -0.65,-4.91 -1.68,0.1 -8.82,4.22 -11.19,5.38l-39.85 18.74c-2.01,0.72 -3.39,1.45 -5.58,2.76 -2.29,1.38 -3.86,1.41 -4.12,3.85 -0.17,1.58 0.1,4.06 0.11,5.86 2.29,0.06 4.59,0.1 6.9,0.1 19.12,0 37.76,-2.12 55.68,-6.1zm-309.26 -214.67c1.02,-5.52 2.62,-10.46 2.97,-12.7l1.8 -11.88c0.45,-2.47 1.08,-3.08 0.58,-3.89 -0.7,-1.12 -4.19,-1.33 -7.7,-1.31 0.21,10.08 1.01,20.02 2.35,29.78zm9.56 -112.82l2.03 0.16c9.27,1.08 24.68,1.57 32.85,2.54 9.16,1.08 9.76,0.53 16.8,1.13 7.27,0.63 12.58,0.36 20.62,1.22l12.24 0.14c2.91,0.1 5.5,0.7 8.38,0.73l74.18 3.04 -1.82 -13.7c-1.87,-7.94 -0.67,-1.81 -1.25,-8.75 -0.14,-1.72 -0.74,-2.84 -1.11,-4.55 -0.69,-3.2 -0.82,-5.84 -1.52,-8.7 -2.98,-1.3 -11.03,-2.05 -13.96,-1.88 -3.98,0.22 -16.32,-1.38 -20.61,-1.48l-22.02 -1.09c-7.58,-1.15 -4.9,-0.13 -8.72,-0.55 -1.51,-0.17 -1.77,-0.52 -3.53,-0.55l-13.61 -0.94c-16.44,-2.41 -37.93,-4.08 -54.89,-5.62 -1.43,-0.13 -2.32,-0.41 -3.5,-0.5 -1.45,-0.12 -2.2,-0.07 -3.48,-0.18l-0.72 -0.06c-6.51,12.62 -11.99,25.85 -16.36,39.59zm122.37 302.89l36.61 -4.96 52.1 -13.09c3.59,-1.38 1.65,-1.66 0.83,-5.4l-5.24 -36.36c-0.41,-3.52 -2.78,-12.03 -3.26,-16.08 -0.25,-2.11 -0.15,-6.14 -1.73,-8.1l-45.85 9.01c-2.74,0.9 -3.44,0.49 -5.95,1.04 -2.31,0.5 -3.19,0.44 -5.58,1.04l-33.9 7.19c-1.68,0.19 -4.5,0.85 -5.95,1.33l-39.49 8.16c-3.62,0.36 -7.16,1.65 -10.85,2.57 19.46,21.53 42.54,39.73 68.26,53.65zm-119.1 -143.54c1.77,0.55 19.97,-2.57 23.25,-3.02 8.1,-1.12 24.35,-4.12 31.46,-4.81 1.29,-0.13 1.82,0.01 3.12,-0.16 18.76,-2.41 38.49,-5.91 58.03,-8.37 3.98,-0.5 6.93,-1.29 11.54,-1.77 15.79,-1.66 35.95,-4.95 52.07,-7.48 1.86,-0.29 4.26,-0.12 5.83,-1.22 0.29,-2 -0.85,-9.5 -1.3,-11.79 -0.77,-3.89 -1.68,-8 -2.22,-12.22 -0.52,-4.06 -1.45,-7.8 -2.19,-11.89 -0.39,-2.13 -1.73,-11.05 -2.55,-12.24l-59.78 -0.52c-9.82,0.05 -20.26,-0.79 -30.07,-0.24 -2.65,0.15 -4.69,-0.21 -7.33,-0.35 -1.44,-0.07 -2.36,-0.04 -3.82,0.1l-26.25 0.18c-3.43,0.32 -4.42,-0.21 -7.33,-0.3l-22.36 -0.07c-1.84,-0.01 -6.41,-0.82 -7.2,0.86l-1.59 7.32c-0.61,2.03 -0.74,1.76 -0.82,3.86l-5.67 30.05c-0.44,1.59 -0.2,2.24 -0.3,3.87l-4.72 26.2c-0.47,1.98 -0.85,1.94 0.2,4.01zm364.79 142.21c-6.94,1.3 -12.88,1.87 -22.08,4.21 -1.75,0.44 -13.62,1.8 -16.42,2.79 -1.33,0.47 -0.96,0.63 -2.44,0.76 -4.74,0.41 -6.96,-1.2 -6.84,4.01l0.16 8.65c16.67,-5.21 32.61,-12.09 47.62,-20.42zm-326.44 -67.22c4.04,-0.94 7.94,-1.85 11.47,-2.52 4.47,-0.85 7.73,-1.26 12.22,-2.39 17.12,-4.31 37.03,-6.69 54.87,-11.67 2.12,-0.6 3.94,-0.54 5.95,-0.92l18.18 -3.84c10.35,-2.19 19.72,-3.54 30.41,-6.02 3.94,-0.91 23.4,-4.1 24.23,-5.38 0.89,-1.38 -6.26,-38.64 -7.31,-46.26 -0.39,-2.85 -0.21,-3.59 -1.26,-6.23 -2.33,0.17 -1.81,0.37 -3.79,0.85 -4.26,1.03 -22.18,2.88 -30.05,4.71l-26.23 3.81c-11.2,1.81 -28.14,3.54 -37.75,5.29 -2.58,0.47 -4.68,0.91 -7.33,1.24l-15.03 2.4c-2.84,0.26 -4.85,0.87 -7.68,1.32l-22.38 3.41c-5.24,0.97 -9.75,1.71 -15.02,2.48l-15.04 2.79c-0.69,0.07 -1.26,0.08 -1.83,0.08 8.68,20.45 19.95,39.53 33.37,56.85zm246.63 -67.18c2.7,-0.8 2.07,0.31 4.59,-0.31 1.18,-0.29 2.48,-0.93 4.2,-1.43 12.09,-3.53 22.6,-6.11 34.97,-10.14l17.47 -4.83c11.85,-2.71 12.06,-4.77 26.22,-6.94 6.62,-1.01 23.6,-6.79 30.75,-9.22 1.55,-0.53 2.68,-0.89 4.2,-1.42l8.74 -3.29c2.97,-0.99 6.1,-0.78 8.45,-2.49 0.33,-2.84 -1.15,-5.99 -2.09,-9.16l-2.14 -8.73c-1.59,-6.1 -6.36,-26.13 -8.07,-29.35l-75.49 21.75c-4.5,1.02 -8.49,0.78 -10.5,2.7 0.11,1.8 7.06,19.5 6.34,23.11 -1.72,0.64 -2.45,0.04 -4.24,0.08l-31.81 4.35c-3.12,0.87 -4.52,0.55 -8.03,1.03 -1.36,0.19 -2.34,0.5 -3.85,0.69l-8.04 0.95c-6.11,0.46 -27.76,5.21 -31.8,5.48l-19.59 2.16c-7.4,1.8 -16.65,1.43 -19.74,4.54l9.02 49.21c0.91,5.51 2.03,10.45 2.93,16.07 2.26,14.08 7.82,36.94 9.44,49.29 0.23,1.75 0.36,2.35 0.87,4.18 0.79,2.87 1.12,10.1 2.47,11.97l71.02 -36.23c-1.41,-4.45 -2.17,-12.86 -3.84,-18.38 -0.92,-3.08 -1.52,-6.48 -2.05,-9.44l-10.03 -41.6c-0.57,-1.96 -0.97,-2.31 -0.37,-4.6zm-299.99 -100.38l70.75 0.9c4.05,0.04 6.99,-0.07 10.84,-0.06l21.67 0.49c14.08,0.23 28.87,-0.16 43,0.36 1.82,0.07 3.26,0.29 5.24,0.28 1.9,-0.01 3.37,-0.32 5.24,-0.27l10.84 0.29c3.41,0.06 19.51,0.6 21.58,-0.55 0.49,-2.02 -0.01,-3.07 -0.7,-5.16 -0.85,-2.6 -0.62,-3.28 -0.86,-5.59l-6.01 -33.24c-3.48,-1.2 -6.43,0.05 -12.97,-1.53 -2.37,-0.57 -2.36,0.03 -4.53,0.06l-56.64 -2.68c-1.9,-0.28 -2.9,-0.46 -4.53,-0.53l-17.48 -0.6c-3.01,-0.13 -5.87,-0.72 -8.74,-0.76 -3.29,-0.06 -5.59,0.62 -8.75,-0.01 -3.31,-0.67 -6.1,-0.26 -8.73,-0.56 -1.73,-0.2 -2.24,-0.79 -4.18,-0.69 -8.98,0.46 -17.47,-1.6 -22.38,-1.72 -2.92,-0.06 -5.84,-0.46 -8.76,-0.65l-16.02 -1.18c-4.43,17.17 -7.11,35.04 -7.88,53.4z"/>
  <path id="verde" class="fil1" d="M434.68 73.23c-4.5,1.32 -9.04,2.51 -13.73,3.14 -7.6,1.02 -15.49,1.25 -22.72,2.99 -4.9,1.17 -26.24,0.4 -32.17,0.75 -6.03,0.36 -12.29,0.28 -18.51,-0.59 -3.45,-0.49 -5.53,-0.36 -9.09,-1.1 -9.07,-1.89 -35.15,-5.07 -41.24,-6.97 -1.62,-0.51 -2.84,-0.72 -4.55,-1.03 -6.54,-1.18 -12.37,-2.5 -18.59,-5.04 -0.54,1.56 -0.43,1.7 0.11,3.34 0.43,1.3 0.73,2.05 1.09,3.16l9.43 31.44c0.21,0.77 0.19,0.6 0.42,1.4 0.22,0.72 0.25,0.87 0.47,1.74 0.29,1.14 0.52,1.84 0.98,3.16 1.42,4.05 2.5,9.53 3.86,12.95 4.15,10.47 6.5,21.13 9.97,31.79 3.42,10.52 6.01,21.06 9.6,31.81l9.88 31.8c1.47,4.12 2.8,8.56 3.97,12.59l6.04 19.22c0.7,2.14 1.47,4.29 2.03,6.3 4.05,14.5 2.32,14.01 10.73,11.62 2.2,-0.62 4.14,-0.9 6.64,-1.73l11.19 -3.17c1.17,-0.32 0.32,-0.05 1.73,-0.54l19.6 -6.17c6.55,-1.93 12.91,-2.95 19.54,-5.16 2.28,-0.76 4.06,-1.3 6.31,-1.84l12.92 -3.75c1.36,-0.33 1.8,-0.25 3.15,-0.62 20.03,-5.46 15.61,-8.27 19.53,4.36 3.08,9.95 4.7,20.8 8.2,30.78l7.8 30.05c0.42,1.33 -0.15,-0.01 0.48,1.39 3.76,-2.5 7.82,-8.25 15.03,-12.49 2,-1.18 1.99,-1.52 3.69,-3.04 1.65,-1.46 2.53,-1.54 4.14,-2.86 1.47,-1.2 2.12,-2.21 3.72,-3.26 7.04,-4.61 12.41,-11.22 19.18,-16.27 2.21,-1.65 4.12,-3.38 5.92,-5.14 0.19,-3.97 0.29,-7.96 0.29,-11.97 0,-71.73 -29.51,-136.56 -77.04,-183.04zm-230.76 -67.72c15.48,9.45 20.83,11.29 36.32,19.09l22.04 8.77c12.1,4.3 26.91,7.16 38.79,10.78l19.55 3.85c1.38,0.34 1.55,0.25 2.82,0.39l22.01 2.64c2.07,0.08 3.53,-0.01 5.61,0.11 4.19,0.24 7.09,1.02 11.16,0.79 3.01,-0.17 7.76,0.07 11.2,0.35 2.46,0.2 3.56,-0.28 5.6,-0.37l10.82 -0.84c9.59,-0.21 7.35,-0.39 16.35,-1.91 -42.23,-30.75 -94.23,-48.89 -150.47,-48.89 -17.75,0 -35.07,1.8 -51.8,5.24z"/>
  <path id="arestas" class="fil2" d="M318.97 358.57c1.34,-1.15 2.88,-1.59 4.12,-1.86 7.1,-1.54 12.95,-3.21 19.91,-5.87 5.42,-2.07 2.76,0.25 8.05,-2.45 1.88,-0.96 2.53,-0.67 4.19,-1.14l19.92 -5.89c8.51,-2.82 15.3,-5.24 24.13,-6.74 8.13,-1.39 8.09,-2.31 16.06,-4.43 6.39,-1.7 17.53,-5.8 24.12,-8.17 1.59,-0.57 6.36,-1.93 7.69,-1.51 -2.36,2 -4.56,3.03 -7.45,5.71 -3.95,3.69 -17.45,13.68 -22.02,17.75 -1.62,1.44 -8.47,4.95 -11.17,7.09 -1.38,1.09 -1.87,2 -3.41,2.98l-14.36 10.6c-2.36,1.78 -4.89,4.08 -7.32,5.74 -1.84,1.26 -2.15,0.97 -3.97,2.63 -5.2,4.75 -12.4,8.76 -17.81,13.64l-14.6 10.64c-4.86,3.65 -9.41,7.56 -14.28,11.19 -2.33,-1.55 -1.52,-4.01 -1.73,-5.96 -0.25,-2.39 -0.95,-3.91 -1.55,-6.27 -0.56,-2.21 -0.92,-3.96 -1.5,-6.32l-5.73 -25.14c-0.88,-2.79 -1.53,-3.41 -1.29,-6.22zm-98.03 122.18c-0.7,1.91 -0.39,10.26 -0.47,13.71 -0.05,1.97 -0.22,2.78 1.94,3.98 2.43,-1.14 2.04,-2.71 1.91,-4.69 -0.13,-1.79 -0.26,-3.85 -0.21,-5.58 0.17,-4.97 8.53,-5.17 3.18,-9.42 -2.29,0.33 -1.69,0.83 -3.13,1.44 -1.83,0.76 -1.1,-0.29 -3.22,0.56zm184.89 -82c1.31,-1.75 0.99,-0.99 0.43,-3.2l-6.78 -17.13c-0.95,-2 -1.22,-5.72 -4.03,-4.88 -2.97,0.87 -0.62,4.18 0.13,5.91l5.57 13.64c1.07,2.96 0.79,4.39 4.68,5.66zm12.34 -12.43c4.73,-1.05 2.1,-4.89 -0.88,-11.74 -0.89,-2.05 -4.33,-12.39 -6.09,-12.97 -3.43,-1.14 -2.24,3.72 -1.9,4.93l6.65 16.42c0.57,2.02 0.19,2.11 2.22,3.36zm-142.6 84.82c-2.25,2.17 -1.03,3.26 -4.57,5.15 -3.73,-2.02 -4.08,-7.67 0.35,-10.58 2.24,0.96 3.14,2.18 5.21,0.64 1.1,-7.31 -13.75,-7.49 -11.83,7.15 1.97,15.01 21.18,0.2 10.84,-2.36zm-93.61 29.87c-2.93,-3.19 -6.7,-2.59 -7.1,-3.85 -0.57,-1.8 1.56,-1.88 2.43,-1.56 1.43,0.51 1.52,1.47 3.51,2.22 4.61,-4.52 -7.08,-8.22 -9.48,-3.74 -0.47,0.89 -0.79,2.33 -0.66,3.69 3.76,1.33 7.55,2.57 11.39,3.72 -0.02,-0.16 -0.05,-0.32 -0.09,-0.48zm157.86 -57.95c1.67,-1.48 1.62,-1.92 1.03,-3.83 -2.1,-6.85 -4.69,-8.85 0.04,-13.13 2.25,1.73 2.21,5.17 3.48,9.3 0.59,1.91 0.43,1.82 2.43,2.93 3.7,-1.69 1.23,-4.43 -0.49,-10.64 -0.47,-1.66 -0.55,-4.22 -2.86,-5.55 -3.83,-2.21 -5.41,1.94 -8.16,3.36 -2.25,1.16 -2.72,0.25 -0.57,7.44 1,3.33 0.82,8.71 5.1,10.12zm90.22 -80.38c-1.02,-2.2 0.68,-4.52 3.63,-2.93 -0.84,2.34 -1.54,3.16 -3.63,2.93zm8.96 -3.1c-1.13,-2.39 -5.18,-6.98 -10.04,-3.96 -7.66,4.76 1.27,18.88 7.36,16.39 2.4,-0.98 4.35,-4.52 4.68,-6.55 0.33,-2.13 -1.85,-5.32 -4.24,0.76 -1.67,4.22 -5.6,1.71 -3.9,-0.35 2.16,-2.63 4.87,-2.81 6.14,-6.29zm-146.19 95.84c-2.91,-5.13 -0.43,-7.66 -2.12,-9.39 -1.27,-1.3 -3.26,-0.54 -3.55,1.19l2.25 14.73c0.59,3.15 -0.23,7.01 3.58,8.39 3.86,-3.48 -1.43,-6.24 1.39,-9.82 2.95,1.08 5.48,6.61 8.09,4.49 3.16,-2.57 -4.02,-5.54 -5.05,-8.27 -1.11,-3.8 3.89,-5.11 1.72,-8.58 -3.76,-0.56 -4.24,4.13 -6.31,7.26zm21.59 -11.18c0.01,-0.18 -0.48,-1.29 1.95,-3.02 1.23,-0.88 1.72,-0.62 2.92,-0.5l0.24 1.66c-1.2,0.7 -4.29,3.3 -5.11,1.86zm11.73 2.1l-2.33 -1.02c-1.85,1.57 -1.58,2.91 -3.16,4.32 -2.81,2.48 -6.2,0.1 -2.86,-2.1 3.71,-2.44 5.12,-2.18 6.38,-2.68 0.92,-2.33 1.17,-3.31 -0.94,-5.41 -7.54,-7.52 -14.26,0.45 -11.59,9.56 2.2,7.48 9.82,6.89 13.14,2.43 1.68,-2.25 1.39,-2.81 1.36,-5.1zm126.58 -104.93c0.58,1.62 1.04,0.8 -0.24,2.41 -0.67,0.83 -1.64,1.52 -2.51,2.08 -1.36,-1.8 0.12,-4.21 2.75,-4.49zm5.65 3.3c-2.09,1.96 -1.96,7.78 -6.3,6.44 -1.61,-3.9 4.44,-3.81 7.24,-9.1 -4.14,-9.66 -17.35,-3.74 -12.92,6.99 3.69,8.94 10.73,8.93 13.84,0.72 0.95,-2.51 0.69,-3.75 -1.86,-5.05zm-210.24 121.27c-1.32,2.35 -1.24,3.01 0.42,4.97 1.6,1.89 1.85,14.74 -2.27,14.85 -0.69,0.03 -1,-0.69 -1.2,-1.42 -0.05,-0.19 -0.86,-9.88 -0.08,-11.02 1.65,-2.39 1.35,-0.76 1.64,-3.92 -1.79,-1.97 -1.18,-1.62 -3.47,-1.48 -1.18,1.57 -0.89,1.9 -0.61,3.44 0.95,5.28 -2.09,-1.7 -1.64,9.77 0.07,1.55 -0.54,9.45 4.22,9.38 1.94,-0.02 2.3,-1.56 3.89,-2.35 2.81,-1.39 0.66,1.14 3.49,-0.04 1.49,-0.62 1.24,-2.16 1.2,-3.13 -0.32,-6.81 0.64,-10.6 -1.58,-14.3 -1.5,-2.51 0.73,-5.83 -4.01,-4.75zm-48.67 33.74c-2.11,-4.24 1.3,-11.69 4.38,-8.71 1.33,1.28 0.7,4.42 0.11,5.91 -1.35,3.45 -1.82,2.64 -4.49,2.8zm-3.79 5.44c1.62,-0.46 0.85,-0.7 2.59,-1.4 2,-0.8 10.67,2.01 10.14,-11.04 -0.13,-3.2 -0.56,-4.13 -3.93,-6.83l-4.69 0.92c-0.61,-2.3 0.56,-7.72 -2.86,-6.49 -2.46,0.89 -1.43,5.96 -1.51,7.84 -0.07,1.8 -0.44,2.55 -0.58,4.22l-0.58 8.38c-0.11,1.9 -0.67,2.62 0.68,4.22l0.74 0.18zm184.54 -108c0.68,0.71 1.45,1.42 2.09,2.14 1.53,1.71 2.03,2.79 -0.09,3.83 -1.05,0.52 -1.09,0.41 -2.11,0.41 -0.7,-1.94 -0.54,-4.81 0.11,-6.38zm-2.21 19.9c4.49,-2.34 2.8,-3.58 2.09,-7.1l6.56 -5.35c1.65,0.53 5.19,5.49 6.77,2.18 0.78,-1.63 -2.84,-5.35 -4.16,-6.99 -2.02,-2.53 -4.59,-4.73 -6.53,-7.1 -1.69,-2.08 -3.25,-5.7 -6.2,-4.17 -2.51,1.32 -1.41,4.74 -1.16,6.65 0.38,2.94 0.15,4.54 0.42,7.37 0.23,2.4 0.13,4.7 0.32,6.98 0.11,1.45 0.25,2.04 0.27,3.48 0.01,1.72 -0.14,2.33 1.62,4.05zm-150.41 93.66c0.64,-0.12 1.13,-0.17 1.37,-0.14 0.05,0.08 0.1,0.18 0.15,0.31 1.4,0.15 2.8,0.27 4.2,0.39 -0.08,-2.01 -0.44,-3.87 -1.54,-5.1 -1.86,0.28 -2.43,0.95 -4.44,1.56 -1.54,0.47 -2.46,0.45 -4.19,0.78 -1.51,0.29 -3.09,0.65 -4.67,1.04 3.02,0.44 6.06,0.82 9.12,1.16zm-29.95 -323.19c-1.13,-1.84 -2.12,-7.85 -2.67,-10.11l-3.12 -15.37c-0.39,-1.91 -0.27,-2.9 -0.65,-4.9 -1.29,-6.8 -0.91,-5.89 5.01,-5.79 3.96,0.07 8.81,-1 15.38,0.2l15.03 1.24c14.51,0.27 25.3,0.86 40.55,0.79 3.58,-0.02 6.47,0.49 10.14,0.39 7.67,-0.2 5.93,2.13 10.68,15.42 1.21,3.39 2.14,6.86 3.1,10.12 0.6,2.01 2.96,8.43 2.43,10.28 -1.4,0.5 -20.83,0.14 -24.25,0.11 -8.76,-0.09 -20.45,-1.89 -23.78,-1.74 -4.71,0.21 -45.19,-0.11 -47.85,-0.64zm-10.24 -39.53c-1.19,3.22 1.3,10.67 1.59,13.7l4.16 22.72c0.35,2.55 0.62,7.01 4.8,6.76 4.73,-0.28 2.13,-0.59 9.1,-0.56 3.35,0.01 5.63,0.11 9.1,0.42l36.34 0.32c3.04,0.31 6.1,1.29 9.08,1.31 1.73,0.02 2.69,-0.05 4.55,0.04l13.64 0.15c1.57,-0.1 2.92,-0.12 4.53,-0.11 14.62,0.09 15.83,2.59 10.65,-11.12 -2.69,-7.1 -7.88,-27.61 -10.06,-30.63l-24.01 -0.03c-4.15,0.02 -7.95,0.16 -12.24,-0.34 -4.59,-0.55 -22.88,-0.52 -30.41,-1.08 -2.16,-0.16 -4.12,-0.63 -6.28,-0.91 -4.27,-0.55 -7.73,-0.08 -12.22,-0.36 -1.86,-0.12 -4.06,-0.28 -5.95,-0.33 -5.06,-0.13 -3.83,-0.93 -6.37,0.05zm-7.58 -50.23c1.94,-0.81 12.53,0.77 15.33,1.09l11.55 0.8c1.55,0.13 2.09,0.43 3.85,0.5 4.21,0.14 11.61,0.41 15.38,1.12 5.86,1.1 19.66,1.46 23.07,1.96l15.37 1.58c0.97,0.09 2.8,0.08 3.63,1.05l3.87 11.44c0.89,2.94 1.54,4.64 2.19,7.69 0.19,0.92 4.76,12.78 4.64,15.03 -1.51,1.01 -1.33,0.75 -3.14,0.49l-19.58 -1.13c-2.2,-0.06 -3.7,-0.19 -5.94,-0.07l-16.76 -0.68c-3.95,-0.24 -7.58,0.06 -11.54,-0.32 -4.37,-0.43 -7.12,-0.47 -11.2,-0.58 -5.11,-0.13 -15.29,-1.97 -22.67,-1.95 -1.34,-2.49 -1.74,-6.97 -2.4,-9.74 -1.11,-4.68 -6.53,-25.48 -5.65,-28.28zm4.86 40.5l24.46 2c2.05,0.06 3.8,0.56 5.94,0.64 6.18,0.22 12.43,0.28 18.89,1.17l12.23 0.47c1.14,0.03 1.79,-0.15 2.78,-0.2l18.54 0.77c1.29,0.23 1.73,0.48 3.14,0.57 1.78,0.11 10.82,0.4 12.29,-0.55l-6.87 -22.35c-2.23,-6.23 -3.39,-11.59 -5.16,-16.81 -0.77,-2.27 -2.54,-2.32 -4.44,-2.39 -6.41,-0.23 -22.7,-2.28 -27.98,-2.28 -4.76,0.01 -11.98,-1.48 -16.78,-2.05 -1.79,-0.21 -3.72,-0.03 -5.59,-0.05l-22.36 -1.39c-5.04,-0.82 -5.82,-1.4 -11.19,-1.4 -3.98,0 -4.43,-1.21 -5.71,-0.68 -2.31,0.97 -0.21,4.83 0.21,8.19 0.92,7.4 1.01,5.91 3,13.96 1.54,6.24 2.02,10.72 3.7,16.78 0.61,2.24 0.06,3.67 0.9,5.6zm22.71 108.02c-1.26,-2.93 -1.3,-7.86 -2.22,-11.52 -0.56,-2.24 -0.32,-3.25 -0.7,-5.61l-4.38 -22.72c-0.65,-2.67 -1.37,-3.73 2.4,-3.68 2.82,0.04 3.05,0.11 5.96,-0.17l22.72 0.11c3.57,0.74 27.27,-1.08 39.5,0.79 6.94,1.06 15.56,0.13 22.72,0.45 6.23,0.29 4.19,-1.29 6.62,4.25 2.73,6.23 5.97,18.15 8.26,25.18 0.62,1.88 0.96,3.55 1.68,5.56 0.8,2.26 1.31,3.53 1.26,5.61l-94.38 1.84c-1.31,-0.07 -1.9,-0.22 -3.14,-0.21 -2.2,0.03 -4.21,0.68 -6.3,0.12zm-10.77 -45.73c-0.66,2.28 0.92,7.76 1.01,9.74 0.23,5.05 3.36,13.27 3.49,19.9 0.05,2.36 0.42,2.62 0.95,4.89 0.43,1.79 0.39,3.48 0.82,5.25 1.41,5.73 0.61,10.59 7.67,9.93 1.55,-0.15 3.46,-0.81 5.23,-1 1.63,-0.18 3.2,-0.06 4.89,-0.05 1.98,0.03 3.14,0.65 4.88,0.46 2.17,-0.24 2.58,-0.47 4.9,-0.44l19.92 -0.49c2.34,-0.21 2.7,0.03 5.24,-0.04 3.54,-0.1 6.26,-0.15 9.8,-0.15l19.92 -0.65c5.51,-0.46 26.88,1.49 30,-2.03 -0.48,-2.75 -2.43,-6.2 -3.21,-9.03 -2.38,-8.65 -5.8,-20.13 -8.83,-28.32 -3.03,-8.15 3.17,-8.14 -13.07,-7.78 -6.46,0.14 -12.41,-0.04 -18.87,-0.08 -3.3,-0.02 -5.9,-0.84 -9.09,-0.9l-18.87 0.16c-3.24,-0.01 -6.36,-0.39 -9.45,-0.29 -3.13,0.12 -6.38,0.25 -9.08,0.26 -5.08,0.01 -26.06,-0.53 -28.25,0.66zm14.26 62.5c2.29,-0.68 20.5,-0.34 25.87,-0.41l59.78 0.26c5.89,0 11.22,0.25 17.12,0.22 4.88,-0.03 4.91,-0.81 6.52,4.48l3.94 12.94c0.48,1.33 0.72,2.64 1.19,4.18 0.84,2.73 2.44,5.83 2.35,8.41 -1.97,1.05 -18.28,2 -20.98,2.2 -2.23,0.16 -4.18,0.91 -6.66,1.12l-40.88 4.73c-2.36,0.34 -4.46,0.26 -6.99,0.62l-33.82 3.46c-0.9,-1.45 -2.55,-12.91 -3.25,-16l-2.85 -15.73c-0.53,-2.52 -1.97,-8.45 -1.34,-10.48zm-4.6 -3.2c-0.43,2 -0.1,0.81 0.42,2.86 0.69,2.72 -0.42,1.57 1.39,6.29 1.72,4.46 3.77,22.18 5.13,27.6l1.41 9.1c-0.03,1.61 -0.52,1.24 0.03,3.22l45.51 -5.12c1.6,-0.11 2.54,0.13 4.2,-0.1l24.81 -2.88c3.39,0.29 4.9,-0.91 8.4,-0.74 4.13,0.19 0.64,-1.29 8.39,-1.18 3.87,0.05 5.11,-1.07 12.23,-1.18 2.3,-0.03 11.25,-0.91 12.56,-2.24 1.81,-1.85 -0.87,-5.63 -1.55,-8.31 -0.43,-1.66 -0.56,-2.65 -0.96,-4.19l-3.91 -12.23c-4.35,-13.37 2.17,-10.67 -34.8,-10.67l-79 -0.29c-3.29,0.03 -2.24,-0.79 -4.26,0.06zm-206.48 1.86c3.51,-0.02 7,0.19 7.7,1.31 0.5,0.81 -0.13,1.42 -0.58,3.89l-1.8 11.88c-0.35,2.24 -1.95,7.18 -2.97,12.7 0.52,3.74 1.11,7.45 1.78,11.14l1.89 -10.93c2.15,-6.88 1.96,-13.36 4,-20.96 0.51,-1.87 0.75,-3.43 1.04,-5.24 0.61,-3.7 1.38,-2.49 2.57,-5.52 -1.8,-1.94 -4.97,-1.26 -9.81,-1.29 -1.25,-0.02 -2.54,-0.03 -3.86,-0.05 0.01,1.02 0.02,2.05 0.04,3.07zm174.82 -248.33c1.47,1.13 2.71,2.03 3.42,2.47 4.88,3.03 10.34,7 15,10.13 5.95,3.99 32.08,19.51 37.78,21.82l7.67 3.44c2.93,1.2 12.73,4.07 14.8,6.96 1.22,1.72 7.45,23.28 8.43,26.58 0.4,1.34 0.8,2 0.06,3.65l-10.69 -1.36c-3.32,-0.12 -7.19,-0.14 -10.5,-0.72l-32.13 -3.29c-1.99,-0.24 -3.29,-0.33 -5.26,-0.41 -2.44,-0.11 -3.04,-0.39 -5.25,-0.63 -23,-2.46 -21.45,2.69 -23.79,-11.55l-1.16 -4.91c-0.33,-1.88 -0.03,-2.24 -0.63,-4.53 -2.01,-7.76 -2.37,-12.2 -3.72,-18.88 -1.26,-6.24 -1.9,-12.65 -3.36,-18.88l-1.11 -6.14c-0.96,0.37 -1.92,0.73 -2.88,1.11l8.52 47.32c0.72,3.4 1.23,6.15 2.05,9.78 1.97,8.68 2.63,7.74 10.01,8.28 1.91,0.14 2.87,0.67 4.89,0.71l42.64 4.11c1.93,0.16 3.04,-0.12 4.91,0.24 1.94,0.37 2.91,0.61 4.89,0.66l14.33 1.42c14.23,1.33 14.12,2.52 9.59,-11.91 -0.57,-1.82 -1.01,-3.17 -1.46,-4.89 -0.69,-2.58 -4.32,-16.53 -6.52,-18.72 -1.04,-1.03 -16.42,-7.12 -19.08,-8.18 -7.68,-3.06 -32.99,-17.1 -38.21,-21.21 -2.3,-1.81 -6.75,-4.6 -9.35,-5.96 -2.25,-1.19 -6.87,-5.19 -9.5,-7.08l-0.81 -0.59c-1.2,0.38 -2.39,0.77 -3.58,1.16zm-25.7 10.17c0.37,1.85 0.71,3.65 0.97,5.32 0.23,1.49 0.44,3.03 0.74,4.52 1.36,7.02 0.51,4.24 0.79,9.09 0.1,1.74 1.02,3.05 1.4,4.91 0.37,1.87 0.53,2.61 1.13,4.55l3.12 18.17c0.19,4.21 2.62,7.81 0.71,9.11 -1.36,0.93 -30.72,-4.42 -32.88,-4.74l-42.48 -6.63c-0.94,0.87 -1.88,1.74 -2.81,2.62l13.15 2.08c9.03,1.38 26.68,3.66 34.57,5.74 3.91,1.03 12.25,1.66 17.49,2.51 2.61,0.42 5.96,1.2 8.75,1.68 3.02,0.53 5.87,0.8 8.66,-2.27 -1.75,-7.37 -3.65,-22.31 -5.58,-30.38 -1.81,-7.56 -2.33,-15.21 -3.47,-20.61l-1.25 -7.03c-1,0.45 -2.01,0.9 -3.01,1.36zm-80.73 58.48c12.25,1.79 24.59,3.77 36.8,5.52 7.77,1.12 15.53,2.12 23.41,3.46l11.89 2.07c2.2,0.15 3.69,0.35 5.93,0.62 5.83,0.69 14.51,-0.23 16.42,4.69 0.79,2.02 1.19,4.1 1.47,5.98l1.78 8.74c0.51,2.2 0.45,4.75 1.45,8.39l2.36 11.58c-1.89,1.18 -4.3,0.55 -6.35,0.31l-28.31 -2.18c-4.84,0.2 -16.69,-0.72 -21.66,-1.39l-75.8 -7.58c-0.62,1.02 -1.24,2.03 -1.84,3.06l79.02 7.87c2.5,0.12 4.23,0.55 6.65,0.61 2.1,0.06 4.09,-0.2 6.27,-0.08 5.45,0.31 3.74,0.93 12.95,0.9 1.19,0 1.99,-0.08 3.16,0.05 1.37,0.16 1.93,0.51 3.48,0.65 2.24,0.19 3.94,-0.2 6.3,0.13l12.93 1.17c2.17,0.23 4.5,0.62 6.79,-0.88 -0.7,-3.75 -1.49,-7.81 -2.33,-11.79 -0.46,-2.14 -0.42,-3.71 -0.88,-5.92l-2.05 -11.9c-0.45,-2.34 -1.07,-3.64 -1.58,-5.94 -1.49,-6.8 -1.19,-6.83 -8.36,-8.41 -6.21,-1.38 -14.98,-1.32 -23.75,-2.91 -4.02,-0.73 -7.53,-1.07 -11.88,-1.74 -4.07,-0.62 -8.15,-1.31 -12.23,-1.79l-39.6 -5.91c-0.82,0.87 -1.63,1.74 -2.44,2.62zm180.64 430.13c-0.01,-1.8 -0.28,-4.28 -0.11,-5.86 0.26,-2.44 1.83,-2.47 4.12,-3.85 2.19,-1.31 3.57,-2.04 5.58,-2.76l39.85 -18.74c2.37,-1.16 9.51,-5.28 11.19,-5.38 1.11,1.67 0.59,3.11 0.65,4.91l0.57 13.97c0.1,3.08 0.55,6.38 0.68,9.43 0.03,0.78 0.05,1.54 0.05,2.28 0.9,-0.19 1.8,-0.39 2.69,-0.6l-0.06 -2.03c0.33,-3.62 -1.28,-20.49 -1.21,-25.86 0.03,-2.47 0.83,-4.22 -0.71,-6.25 -2.66,-0.02 -22.41,9.45 -26.08,11.31 -10.1,5.13 -22.29,10.19 -32.5,15.35 -8.32,4.21 -8.48,2.49 -7.9,9.3l0.02 4.66c1.06,0.04 2.11,0.09 3.17,0.12zm-183.01 -84.25c3.69,-0.92 7.23,-2.21 10.85,-2.57l39.49 -8.16c1.45,-0.48 4.27,-1.14 5.95,-1.33l33.9 -7.19c2.39,-0.6 3.27,-0.54 5.58,-1.04 2.51,-0.55 3.21,-0.14 5.95,-1.04l45.85 -9.01c1.58,1.96 1.48,5.99 1.73,8.1 0.48,4.05 2.85,12.56 3.26,16.08l5.24 36.36c0.82,3.74 2.76,4.02 -0.83,5.4l-52.1 13.09 -36.61 4.96c1.43,0.77 2.87,1.53 4.32,2.28l45.22 -6.26c1.5,-0.36 2.82,-0.68 4.54,-1.09l13.65 -3.44c7.99,-1.88 10.53,-2.29 18.17,-4.82 2.33,-0.77 7.71,-1.95 9.42,-3.51 0.01,-1.93 -1.18,-3.17 -2.01,-8.72 -0.49,-3.31 -1.22,-6.07 -1.7,-9.1 -0.99,-6.14 -2.1,-12.08 -2.92,-17.83l-1.44 -8.72c-0.6,-2.82 -0.68,-1.49 -0.53,-4.55 0.09,-1.61 -1.15,-3.99 -1.75,-8.73 -0.2,-1.58 -0.75,-2.84 -0.98,-4.55 -1.55,-11.62 -1.33,-9.42 -14.17,-6.76l-58.73 12.04c-1.86,0.32 -3.53,1.1 -5.57,1.6l-17.84 3.61c-7.47,1.5 -15.63,3.17 -23.43,5l-23.42 4.66c-2.05,0.49 -3.54,1.3 -5.58,1.54l-5.8 1.13c0.76,0.86 1.52,1.72 2.29,2.57zm-50.84 -89.89c-1.05,-2.07 -0.67,-2.03 -0.2,-4.01l4.72 -26.2c0.1,-1.63 -0.14,-2.28 0.3,-3.87l5.67 -30.05c0.08,-2.1 0.21,-1.83 0.82,-3.86l1.59 -7.32c0.79,-1.68 5.36,-0.87 7.2,-0.86l22.36 0.07c2.91,0.09 3.9,0.62 7.33,0.3l26.25 -0.18c1.46,-0.14 2.38,-0.17 3.82,-0.1 2.64,0.14 4.68,0.5 7.33,0.35 9.81,-0.55 20.25,0.29 30.07,0.24l59.78 0.52c0.82,1.19 2.16,10.11 2.55,12.24 0.74,4.09 1.67,7.83 2.19,11.89 0.54,4.22 1.45,8.33 2.22,12.22 0.45,2.29 1.59,9.79 1.3,11.79 -1.57,1.1 -3.97,0.93 -5.83,1.22 -16.12,2.53 -36.28,5.82 -52.07,7.48 -4.61,0.48 -7.56,1.27 -11.54,1.77 -19.54,2.46 -39.27,5.96 -58.03,8.37 -1.3,0.17 -1.83,0.03 -3.12,0.16 -7.11,0.69 -23.36,3.69 -31.46,4.81 -3.28,0.45 -21.48,3.57 -23.25,3.02zm-0.41 4.28c1.45,-0.29 2.4,-1.31 4.78,-1.47l19.22 -2.8c10.61,-0.7 12.93,-2.31 19.58,-2.98 3.23,-0.32 4.41,-0.08 7.69,-0.71 8.26,-1.6 15.39,-2.19 23.41,-3.45 2.62,-0.41 4.94,-0.9 7.69,-1.2l19.57 -2.42c4.6,-0.42 10.67,-2.42 15.39,-2.49 2.62,-0.05 5.73,-1.31 8.03,-1.42 1.72,-0.09 1.8,0.19 3.84,-0.23l15.39 -2.55c1.6,-0.15 2.05,0.2 3.83,-0.15 8.7,-1.68 13.07,-1.72 19.58,-2.91 2.82,-0.51 4.91,-0.57 7.7,-1.07 6.69,-1.21 13.77,-0.64 13.45,-5.15 -0.19,-2.65 -0.8,-5.26 -1.11,-7.7l-4.07 -23.43c-0.24,-1.28 -0.31,-2.52 -0.61,-3.84 -1.17,-5.16 -0.92,-6.67 -1.82,-11.52 -0.69,-3.7 -0.33,-4.74 -4.43,-4.76 -5.27,-0.02 -10.63,-0.24 -15.75,-0.14l-31.12 -0.32c-1.77,-0.17 -1.79,-0.07 -3.82,0.04l-97.18 -0.29c-2.89,0 -4.98,-0.49 -7.68,-0.39 -8.95,0.32 -11.85,-1.92 -12.38,5.15 -0.22,2.92 -0.71,4.8 -1.08,7.69l-1.46 7.7c-0.18,1.34 -0.35,2.64 -0.59,4.18l-7.94 42.66c-0.39,1.49 -0.92,3.92 -1.3,6.47 1,3.2 2.07,6.36 3.19,9.5zm456.88 12.84c1.9,-1.9 3.16,-3.94 5.45,-4.36 1.57,1.77 2.56,8.92 2.9,11.19 0.25,1.63 1.59,6.52 3.25,12.1 0.77,-1.48 1.52,-2.97 2.26,-4.46 -1.12,-3.75 -2.16,-7.55 -2.99,-11.82 -0.27,-1.41 -0.45,-1.52 -0.79,-2.79 -0.77,-2.83 0.11,-6.99 -1.65,-9.45l-2.28 -0.06c-3.49,3.15 -5.49,3.37 -8.9,7.38 -2.62,3.1 -5.9,5.62 -9,8 -1.77,1.35 -2.96,2.94 -4.58,4.37 -1.57,1.38 -3.12,1.92 -4.68,3.28 -3.73,3.26 -5.25,5.75 -9.54,8 -3.64,1.92 -5.96,4.83 -9.44,7.27 -2.04,1.44 -2.91,2.63 -4.66,4.18l-9.37 6.94c-2.02,1.32 -3.23,3.06 -4.98,4.64 -2.81,2.55 -6.24,3.47 -9.44,6.7 -3.53,3.57 -2.83,1.42 -9.09,7.67 -3.33,3.32 -14.9,12.64 -18.78,15.01 -2.18,1.33 -2.65,2.58 -4.55,3.9 -3.31,2.31 -12.23,8.31 -14.44,10.44 -3.14,3.04 -27.43,18.2 -28.2,20.03 -0.04,0.1 0.05,9.44 0.69,11.27 3.88,1.72 17.36,-2.2 22.76,-2.89l16.79 -3.55c6.87,-0.57 36.87,-7.74 40.18,-7.93 0.78,-0.04 1.57,-0.12 2.37,-0.21 1.87,-1.43 3.73,-2.89 5.57,-4.37l-35.55 6.76c-1.21,0.15 -1.35,0.28 -2.77,0.73l-24.5 5.04c-3.67,0.41 -7.09,1.29 -10.82,1.99l-8.38 1.5c-1.24,0.12 -1.35,0.21 -2.58,-0.14 -2.73,-5.87 1.59,-8.01 3.68,-9.55 6.35,-4.69 22.2,-14.64 25.91,-17.72 1.95,-1.61 2.55,-2.82 4.78,-4.16l36.01 -27.74c2.49,-1.48 2.78,-1.85 5.02,-4.09 5.39,-5.41 9.51,-7.19 12.57,-9.8l18.23 -15.33c2.98,-3.02 7.6,-5.09 14.65,-11.9 3.54,-3.42 10.23,-7.41 18.89,-16.07zm-139.3 145.51l-0.16 -8.65c-0.12,-5.21 2.1,-3.6 6.84,-4.01 1.48,-0.13 1.11,-0.29 2.44,-0.76 2.8,-0.99 14.67,-2.35 16.42,-2.79 9.2,-2.34 15.14,-2.91 22.08,-4.21 2.57,-1.43 5.12,-2.89 7.63,-4.4l0 0c-4.8,0.69 -56.22,9.58 -57.65,10.37 -1.64,8.97 -0.35,6.33 -0.21,11.39 0.04,1.3 -0.1,2.25 -0.07,3.87 0.89,-0.27 1.79,-0.53 2.68,-0.81zm-312.19 -144.49c0.57,0 1.14,-0.01 1.83,-0.08l15.04 -2.79c5.27,-0.77 9.78,-1.51 15.02,-2.48l22.38 -3.41c2.83,-0.45 4.84,-1.06 7.68,-1.32l15.03 -2.4c2.65,-0.33 4.75,-0.77 7.33,-1.24 9.61,-1.75 26.55,-3.48 37.75,-5.29l26.23 -3.81c7.87,-1.83 25.79,-3.68 30.05,-4.71 1.98,-0.48 1.46,-0.68 3.79,-0.85 1.05,2.64 0.87,3.38 1.26,6.23 1.05,7.62 8.2,44.88 7.31,46.26 -0.83,1.28 -20.29,4.47 -24.23,5.38 -10.69,2.48 -20.06,3.83 -30.41,6.02l-18.18 3.84c-2.01,0.38 -3.83,0.32 -5.95,0.92 -17.84,4.98 -37.75,7.36 -54.87,11.67 -4.49,1.13 -7.75,1.54 -12.22,2.39 -3.53,0.67 -7.43,1.58 -11.47,2.52 0.75,0.96 1.5,1.91 2.26,2.86 0.65,-0.17 1.27,-0.35 1.86,-0.54 1.68,-0.56 2.27,-0.83 3.84,-1.06 9.18,-1.32 7.78,-1.44 15.38,-3l8.04 -1.15c1.7,-0.35 2.26,-0.86 3.84,-1.3l23.41 -4.4c4.64,-0.83 7.83,-2.22 15.39,-3.37 4.64,-0.71 6.02,-1.57 7.68,-1.76 4.93,-0.57 4.65,-1.05 8.05,-1.52l23.06 -4.64c4.14,-0.46 12.19,-3.48 15.74,-3.19 2.84,0.23 11.75,-2.72 15.37,-3.17 2.31,-0.29 14.33,-2.38 15.58,-3.64 1.92,-1.96 0.91,-5.13 0.45,-7.52 -1.06,-5.41 -1.51,-10.1 -2.47,-15.72 -0.46,-2.68 -1.33,-4.94 -1.67,-7.7l-3.72 -23.42c-1.03,-6.72 -3.63,-4.18 -12.7,-2.55l-15.39 2.26c-10.51,1.6 -37.05,5.04 -46.47,7.01l-31.12 4.61c-2.54,0.33 -4.98,0.84 -7.69,1.34 -2.59,0.48 -4.76,0.66 -8.04,1.18l-65.34 10.41c0.43,1.04 0.85,2.09 1.29,3.13zm8.11 -217.08l0.72 0.06c1.28,0.11 2.03,0.06 3.48,0.18 1.18,0.09 2.07,0.37 3.5,0.5 16.96,1.54 38.45,3.21 54.89,5.62l13.61 0.94c1.76,0.03 2.02,0.38 3.53,0.55 3.82,0.42 1.14,-0.6 8.72,0.55l22.02 1.09c4.29,0.1 16.63,1.7 20.61,1.48 2.93,-0.17 10.98,0.58 13.96,1.88 0.7,2.86 0.83,5.5 1.52,8.7 0.37,1.71 0.97,2.83 1.11,4.55 0.58,6.94 -0.62,0.81 1.25,8.75l1.82 13.7 -74.18 -3.04c-2.88,-0.03 -5.47,-0.63 -8.38,-0.73l-12.24 -0.14c-8.04,-0.86 -13.35,-0.59 -20.62,-1.22 -7.04,-0.6 -7.64,-0.05 -16.8,-1.13 -8.17,-0.97 -23.58,-1.46 -32.85,-2.54l-2.03 -0.16c-0.29,0.91 -0.57,1.83 -0.86,2.75l45.55 3.56c3.19,0.02 5.17,0.42 8.38,0.64 1.56,0.1 2.64,-0.08 4.21,0.03 1.98,0.13 2.55,0.78 4.19,1.08 2.21,0.42 1.65,-0.7 4.17,-0.62l47.19 2.09c2.81,0.03 6.14,0.83 8.77,0.8 8.4,-0.06 16.59,1.01 25.5,0.95 3.25,-0.03 5.29,0.3 8.73,0.55 2.14,0.15 2.54,-0.43 4.2,-0.42 1.58,0.01 2.29,0.74 4.19,0.81 4.72,0.18 6.8,1.13 8.78,-0.95 -0.63,-1.67 -1.6,-2.17 -2.18,-3.78 -0.37,-1.03 -0.61,-3.04 -0.89,-4.19 -1.19,-4.89 -2.22,-14.61 -2.71,-16.09 -1.34,-4.01 -2.36,-15.18 -3.05,-16.48 -1.44,-2.69 -5.63,-1.87 -7.63,-1.87l-16.44 -1.03c-1.7,-0.34 -2.26,-0.38 -3.83,-0.37l-28.66 -2.19c-2.04,-0.35 -1.71,-0.13 -3.85,-0.1 -6.27,0.07 -29.41,-2.5 -36.69,-3.12l-48.61 -4.77 -0.43 -0.04c-0.56,1.05 -1.12,2.11 -1.67,3.17zm-20.22 52.97l16.02 1.18c2.92,0.19 5.84,0.59 8.76,0.65 4.91,0.12 13.4,2.18 22.38,1.72 1.94,-0.1 2.45,0.49 4.18,0.69 2.63,0.3 5.42,-0.11 8.73,0.56 3.16,0.63 5.46,-0.05 8.75,0.01 2.87,0.04 5.73,0.63 8.74,0.76l17.48 0.6c1.63,0.07 2.63,0.25 4.53,0.53l56.64 2.68c2.17,-0.03 2.16,-0.63 4.53,-0.06 6.54,1.58 9.49,0.33 12.97,1.53l6.01 33.24c0.24,2.31 0.01,2.99 0.86,5.59 0.69,2.09 1.19,3.14 0.7,5.16 -2.07,1.15 -18.17,0.61 -21.58,0.55l-10.84 -0.29c-1.87,-0.05 -3.34,0.26 -5.24,0.27 -1.98,0.01 -3.42,-0.21 -5.24,-0.28 -14.13,-0.52 -28.92,-0.13 -43,-0.36l-21.67 -0.49c-3.85,-0.01 -6.79,0.1 -10.84,0.06l-70.75 -0.9c-0.04,1.02 -0.08,2.05 -0.11,3.07 10.45,0.34 20.48,0.54 24.03,0.21l162.52 1.82c1.34,0.11 4.65,0.47 5.77,-0.63 1.3,-1.29 0.33,-7.75 -0.06,-9.22 -1.7,-6.43 -4.61,-21.96 -5.01,-27.97l-1.34 -6.29c-1.34,-8.47 1.86,-6.47 -18.93,-7.65l-17.47 -0.94c-3.19,0.01 -5.45,-0.02 -8.74,-0.38 -3.56,-0.38 -5.47,-0.17 -8.74,-0.37 -1.72,-0.11 -2.76,-0.56 -4.54,-0.64 -6.96,-0.33 -36.18,-1.15 -39.51,-1.86l-34.94 -1.65c-6.66,-0.17 -3.61,-0.27 -8.74,-1.08 -6.69,-1.06 -20.29,-1.27 -26.56,-2.05 -3.35,-0.41 -5.57,-0.22 -8.74,-0.57l-0.25 -0.02c-0.25,0.94 -0.52,1.87 -0.76,2.82zm398.35 -142.9c-9,1.52 -6.76,1.7 -16.35,1.91l-10.82 0.84c-2.04,0.09 -3.14,0.57 -5.6,0.37 -3.44,-0.28 -8.19,-0.52 -11.2,-0.35 -4.07,0.23 -6.97,-0.55 -11.16,-0.79 -2.08,-0.12 -3.54,-0.03 -5.61,-0.11l-22.01 -2.64c-1.27,-0.14 -1.44,-0.05 -2.82,-0.39l-19.55 -3.85c-11.88,-3.62 -26.69,-6.48 -38.79,-10.78l-22.04 -8.77c-15.49,-7.8 -20.84,-9.64 -36.32,-19.09 -1.46,0.3 -2.91,0.62 -4.36,0.95 7.28,4.59 17.51,10.65 21.45,12.67l16.79 7.7c1.96,0.82 3.39,1.22 5.57,2.2 1.77,0.79 3.81,2.12 5.95,2.98l5.6 1.94c5.44,2.04 10.23,2.29 16.79,5.37l11.17 3.01c3.55,1.01 7.98,1.92 11.53,2.97 2.18,0.64 3.39,1.03 5.6,1.44 5.49,1.02 4.34,1.22 11.19,2.2 2.3,0.33 3.35,0.77 5.59,1.42l39.5 3.95c12.61,1.42 21.79,0.75 33.92,-0.08 2.21,-0.15 3.23,-0.68 5.58,-0.63 2.74,0.07 2.66,0.05 5.59,-0.88l8.01 -1.22c-1.06,-0.79 -2.13,-1.57 -3.2,-2.34zm-106.24 296.68c-0.6,2.29 -0.2,2.64 0.37,4.6l10.03 41.6c0.53,2.96 1.13,6.36 2.05,9.44 1.67,5.52 2.43,13.93 3.84,18.38l-71.02 36.23c-1.35,-1.87 -1.68,-9.1 -2.47,-11.97 -0.51,-1.83 -0.64,-2.43 -0.87,-4.18 -1.62,-12.35 -7.18,-35.21 -9.44,-49.29 -0.9,-5.62 -2.02,-10.56 -2.93,-16.07l-9.02 -49.21c3.09,-3.11 12.34,-2.74 19.74,-4.54l19.59 -2.16c4.04,-0.27 25.69,-5.02 31.8,-5.48l8.04 -0.95c1.51,-0.19 2.49,-0.5 3.85,-0.69 3.51,-0.48 4.91,-0.16 8.03,-1.03l31.81 -4.35c1.79,-0.04 2.52,0.56 4.24,-0.08 0.72,-3.61 -6.23,-21.31 -6.34,-23.11 2.01,-1.92 6,-1.68 10.5,-2.7l75.49 -21.75c1.71,3.22 6.48,23.25 8.07,29.35l2.14 8.73c0.94,3.17 2.42,6.32 2.09,9.16 -2.35,1.71 -5.48,1.5 -8.45,2.49l-8.74 3.29c-1.52,0.53 -2.65,0.89 -4.2,1.42 -7.15,2.43 -24.13,8.21 -30.75,9.22 -14.16,2.17 -14.37,4.23 -26.22,6.94l-17.47 4.83c-12.37,4.03 -22.88,6.61 -34.97,10.14 -1.72,0.5 -3.02,1.14 -4.2,1.43 -2.52,0.62 -1.89,-0.49 -4.59,0.31zm37.67 -64.82c0.45,1.58 0.47,2.87 1.23,5.1 0.62,1.83 1.31,3.64 1.82,5.26 0.69,2.19 3.1,8.98 2.9,10.7 -1.76,1.04 -5.45,1.1 -7.57,1.46l-31.44 4.44c-2.74,0.47 -5.2,0.99 -8.03,1.44l-16.09 2.27c-2.53,0.41 -4.96,0.72 -7.68,1.01l-15.74 2.56c-2.74,0.33 -5.12,0.58 -8.03,1.05 -1.44,0.23 -2.36,0.49 -3.85,0.66l-11.9 1.76c-3.22,0.4 -9.15,1.96 -11.88,1.96 -2.3,0 -2.05,-1.02 -4.22,-1.03 -1.35,1.73 -0.91,2.35 -0.44,4.22 1.87,7.32 2.59,14.66 4.13,22.01 0.31,1.49 0.58,2.79 0.86,4.2l1.18 6.63c1.79,5.56 2.58,14.95 4.21,21.69l9.02 50.33c0.34,1.51 0.92,3.06 1.27,4.55l1.71 12.93c0.26,1.62 0.86,2.8 1.33,4.53 0.47,1.72 0.37,2.69 0.77,4.56 0.34,1.59 0.32,3.33 0.82,4.53 3.63,1.85 5.88,-1.21 9.79,-2.97l19.56 -10.1c1.76,-1.01 3.1,-1.11 4.9,-1.96 1.62,-0.76 3.67,-2.11 5.24,-2.93l29.71 -15.24c3.19,-1.65 11.2,-3.44 8.52,-8.33 -0.71,-1.3 -0.6,-0.58 -1.03,-2.14l-6.31 -31.13c-0.25,-1.77 -0.28,-2.5 -0.79,-4.18 -0.5,-1.66 -0.98,-2.74 -1.5,-4.54 -0.96,-3.29 -0.27,-4.94 -1.93,-9.08 -1.09,-2.74 -1.29,-6.14 -2,-8.77 -2.87,-10.63 -4.16,-9.54 6.78,-11.63l8.76 -2.43c2.86,-0.84 5.84,-1.87 8.71,-2.53l17.84 -4.92c1.63,-0.51 2.85,-0.88 4.53,-1.51 1.78,-0.67 2.98,-0.86 4.56,-1.46 4.47,-1.67 8.7,-1.88 13.27,-3.76 7.95,-3.27 8.98,-3.35 17.48,-5.16 1.6,-0.34 2.79,-0.35 4.54,-0.58 3.05,-0.41 13.6,-4.12 17.83,-5.44l13.29 -4.02c1.62,-0.53 2.89,-0.96 4.53,-1.74 3.8,-1.83 5.21,-1.47 8.75,-2.5 10.07,-2.92 5.57,-6.16 1.01,-23.63 -0.42,-1.62 -0.83,-2.9 -1.04,-4.17l-5.45 -22.38c-2.18,-7.38 -1.08,-7.99 -13.74,-3.83l-53.13 16.22c-2.86,0.91 -5.9,2.04 -9.09,2.91 -3.73,1.03 -9.67,2.71 -13.28,3 -2.15,0.17 -2.82,0.01 -4.69,2.11zm159.15 61.61c-0.19,-6.3 1.33,-8.94 3.65,-10.94 0.6,-1.96 1.18,-3.93 1.74,-5.91l-7.93 6.82c-1.72,3.55 -0.32,11.58 0.16,15.39 0.04,0.29 0.07,0.55 0.09,0.8 0.79,-2.04 1.55,-4.1 2.29,-6.16zm14.66 -74.39c-1.8,1.76 -3.71,3.49 -5.92,5.14 -6.77,5.05 -12.14,11.66 -19.18,16.27 -1.6,1.05 -2.25,2.06 -3.72,3.26 -1.61,1.32 -2.49,1.4 -4.14,2.86 -1.7,1.52 -1.69,1.86 -3.69,3.04 -7.21,4.24 -11.27,9.99 -15.03,12.49 -0.63,-1.4 -0.06,-0.06 -0.48,-1.39l-7.8 -30.05c-3.5,-9.98 -5.12,-20.83 -8.2,-30.78 -3.92,-12.63 0.5,-9.82 -19.53,-4.36 -1.35,0.37 -1.79,0.29 -3.15,0.62l-12.92 3.75c-2.25,0.54 -4.03,1.08 -6.31,1.84 -6.63,2.21 -12.99,3.23 -19.54,5.16l-19.6 6.17c-1.41,0.49 -0.56,0.22 -1.73,0.54l-11.19 3.17c-2.5,0.83 -4.44,1.11 -6.64,1.73 -8.41,2.39 -6.68,2.88 -10.73,-11.62 -0.56,-2.01 -1.33,-4.16 -2.03,-6.3l-6.04 -19.22c-1.17,-4.03 -2.5,-8.47 -3.97,-12.59l-9.88 -31.8c-3.59,-10.75 -6.18,-21.29 -9.6,-31.81 -3.47,-10.66 -5.82,-21.32 -9.97,-31.79 -1.36,-3.42 -2.44,-8.9 -3.86,-12.95 -0.46,-1.32 -0.69,-2.02 -0.98,-3.16 -0.22,-0.87 -0.25,-1.02 -0.47,-1.74 -0.23,-0.8 -0.21,-0.63 -0.42,-1.4l-9.43 -31.44c-0.36,-1.11 -0.66,-1.86 -1.09,-3.16 -0.54,-1.64 -0.65,-1.78 -0.11,-3.34 6.22,2.54 12.05,3.86 18.59,5.04 1.71,0.31 2.93,0.52 4.55,1.03 6.09,1.9 32.17,5.08 41.24,6.97 3.56,0.74 5.64,0.61 9.09,1.1 6.22,0.87 12.48,0.95 18.51,0.59 5.93,-0.35 27.27,0.42 32.17,-0.75 7.23,-1.74 15.12,-1.97 22.72,-2.99 4.69,-0.63 9.23,-1.82 13.73,-3.14 -1.01,-0.98 -2.01,-1.96 -3.04,-2.93 -0.97,0.19 -1.96,0.38 -3,0.59 -8.19,1.67 -8.21,2.31 -18.52,3.81 -2.94,0.43 -6.81,1.34 -9.43,1.48l-18.54 0.75c-6.04,0.01 -30.91,0.85 -37.4,-0.36 -6.57,-1.23 -12.1,-1.57 -18.52,-2.79l-18.88 -3.39c-9.51,-1.94 -18.68,-4.04 -27.96,-7.06 -1.83,-0.59 -7.46,-2.47 -9.55,-2.06 -1.26,3.55 0.71,6.32 1.84,9.9l38.94 127.23c1.07,3.33 2.2,6.41 3.25,9.79 5.14,16.54 9.7,32.88 15.43,49.28 3.73,10.64 2.68,15.6 10.2,14.67 6.09,-0.74 34.09,-9.75 39.15,-11.47 1.99,-0.68 2.94,-0.94 4.9,-1.34 1.76,-0.37 3.28,-0.79 4.92,-1.31 0.82,-0.26 1.52,-0.56 2.42,-0.82l4.9 -1.35c0.76,-0.24 1.65,-0.5 2.44,-0.79 4.97,-1.84 9.54,-2.33 14.68,-3.94 1.71,-0.54 3.12,-1.1 4.9,-1.53 3.3,-0.79 6.5,-1.84 9.8,-2.75 3.7,-1 6.83,-2.12 10.11,-2.29 1.45,1.65 6.81,22.75 7.47,25.51l4.51 17.12c0.49,1.51 0.97,2.83 1.34,4.2l1.85 8.73c0.42,1.71 0.92,2.63 1.27,4.2l2.04 6.31c0.43,1.32 0.17,0.95 0.53,2.3 -1.51,1.12 -2.81,1.28 -4.32,1.7 -1.67,0.48 -2.85,0.87 -4.54,1.34l-21.68 6.9c-6.76,2.34 -13.59,4.96 -20.62,6.36 -3.89,0.78 -6.38,1.93 -10.14,2.38 -3.03,0.36 -5.74,1.16 -9.08,2.28 -1.6,0.54 -2.73,0.89 -4.19,1.35l-23.07 6.71c-0.01,0.01 -1.04,0.35 -1.05,0.35l-37.75 11.38c-2.38,0.63 -2.18,0.74 -4.48,-0.01 -2.41,3.54 1.08,11.34 1.76,15.31 0.88,5.11 2.72,9.91 3.59,15.03 1.56,9.02 4.39,17.55 6.3,26.56 0.34,1.6 0.08,2.44 1.88,3.81 1.94,-1.25 4.68,-4.22 9.47,-7.16l19.49 -14.89c2.05,-1.78 2.89,-2.29 5,-3.59 2.27,-1.4 3,-2.92 4.93,-4.41 3.48,-2.67 17.32,-11.94 19.66,-14.15 2.5,-2.36 2.44,-2 4.81,-3.66 2.81,-1.97 7.17,-6.16 9.74,-7.79 4.79,-3.03 5.39,-4.56 14.31,-9.97 5.57,-3.38 5.43,-3.84 9.87,-7.42l24.5 -19.06c6.74,-6.7 4.03,-3.17 9.69,-6.7 0.9,-0.56 3.17,-3.33 4.32,-4.47 5.04,-5 12.59,-9.73 14.72,-11.86 2.04,-2.03 2.4,-2.41 4.72,-3.93l13.75 -10.42c1.72,-1.45 3.06,-3.37 4.83,-4.73 1.88,-1.44 2.78,-1.48 4.98,-3.66 1,-0.99 1.96,-2.11 3.01,-3.1 0.11,-1.72 0.21,-3.44 0.29,-5.16z"/>
 </g>
</svg>
