<?xml version="1.0" encoding="UTF-8"?>
<!DOCTYPE svg PUBLIC "-//W3C//DTD SVG 1.1//EN" "http://www.w3.org/Graphics/SVG/1.1/DTD/svg11.dtd">
<!-- Creator: CorelDRAW 2020 (64 Bit) -->
<svg xmlns="http://www.w3.org/2000/svg" xml:space="preserve" width="512px" height="512px" version="1.1" style="shape-rendering:geometricPrecision; text-rendering:geometricPrecision; image-rendering:optimizeQuality; fill-rule:evenodd; clip-rule:evenodd"
viewBox="0 0 512 512"
 xmlns:xlink="http://www.w3.org/1999/xlink"
 xmlns:xodm="http://www.corel.com/coreldraw/odm/2003">
 <defs>
  <style type="text/css">
   <![CDATA[
    .fil0 {fill:black}
   ]]>
  </style>
 </defs>
 <g id="Camada_x0020_1">
  <metadata id="CorelCorpID_0Corel-Layer"/>
  <path id="separador" class="fil0" d="M85.13 256.61l36.74 -3.52 -2.01 21.05c-2.11,0.78 -36.99,-7.51 -42.06,-9.68 -3.97,-1.7 -8.1,-2.5 -10.83,-4.9l18.16 -2.95zm315.31 3.76c1.09,-17.95 3.19,-22.46 21.22,-16.44 6.14,2.05 10.54,1.81 17.09,4.2 5.19,1.89 13.67,-0.33 15.27,5.86 -0.97,0.91 0.73,0.43 -2.83,1.5l-9.88 0.94c-8.31,0.51 -25.06,6.14 -40.87,3.94zm-240.43 -8.15c-2.29,-22.55 40.59,-19.91 40.07,-0.71 -5.72,0.63 -8.65,-6.58 -19.72,-4.97 -19.95,2.9 -12.37,6.51 -20.35,5.68zm170.86 -7.46c-0.36,-11.6 14.22,-11.56 22.13,-10.25 8.17,1.36 15.86,7.02 14.37,17.15 -1.82,-0.06 -10.41,-8.54 -17.73,-8.95 -8.63,-0.48 -12.27,1.08 -18.77,2.05zm-99.99 33.83c0.07,-3.03 4.14,-9.16 5.62,-11.1 6.58,-8.64 6.25,-13.89 23.58,-27.53 7.01,-5.51 35.86,-24.94 46.21,-19.42 -1.9,3.49 -16.77,10.34 -20.85,13.22 -4.01,2.83 -1.82,2.14 -9.62,7.09 -7.04,4.46 -11.14,9.46 -18.34,15.12 -3.71,2.91 -21.95,22.59 -26.6,22.62zm-45.42 -52.48c-3.8,3.38 -12.47,-0.22 -20.48,5.16 -2.24,1.51 -12.46,10.67 -13.48,12.55 -2.72,5.03 -3.39,17 -1.95,22.41 2.33,8.73 4.31,10.75 8.45,16.53 5.83,8.13 5.68,6.24 14.47,11.52 4.65,2.79 11.61,6.47 17.99,7.28 10.4,1.3 39.53,2.33 47.83,-1.61 6.06,-2.88 12,-5.06 17.84,-8.17l15.33 -10.66c9.48,-8.38 9.56,-10.59 12.66,-13.4 7.93,-7.19 3.36,-5.18 11.12,-13.91 13.54,-15.23 1.29,-5.81 23.5,-27.63 9.61,-9.45 36.04,-6.48 39.03,0.92 -12.65,-0.39 -17.37,-2.73 -26.76,3.91 -14.23,10.07 -16.77,29.78 -10.8,43.68 1.92,4.46 10.17,13.54 13.26,16.54 9.78,9.51 25.06,6.82 37.27,6.12l38.68 -9.94 92.29 -23.18c2.94,-1.08 5.69,-5.4 3.5,-9.03 -2.65,-4.37 -18.43,-5.37 -23.79,-6.16l-35.15 -9.29c-10.43,-3.31 -30.08,-6.35 -36.07,-8.47 -5.45,-1.94 -5.61,-3.46 -12.57,-2.33 -1.14,2.74 -3.15,21.43 -6.65,31.48 -4.91,14.08 -7.17,15.37 -16.21,21.78 -7.7,5.47 -19.27,7.97 -30.05,4.29 -6.37,-2.18 -8.7,-3.82 -11.56,-7.98 -2.39,-3.47 -6.87,-6.98 -4.26,-10.19 2.71,1.5 5.68,9.04 16.27,11.18 8.28,1.67 15.32,-0.95 20.9,-5.06 5.87,-4.34 8.58,-7.88 9.79,-17.77 1.39,-11.3 -0.16,-14.18 -3.44,-23 -2.44,-6.54 -1.31,-4.6 -5.61,-8.3 -2.14,-1.85 -4.44,-5.1 -6.79,-7.16 -14,-12.19 -52.95,-9.87 -69.21,-5.05l-19.69 8.13c-14.52,9.11 -32.68,24.67 -41.03,40.7 -3.28,6.3 -6.53,7.92 -11.49,16.38 -2.33,3.98 -15.12,11.15 -15.6,11.32 -3.37,1.17 -9.72,0.46 -13.5,0.37 -7.59,-0.19 -5.45,-0.15 -11.02,-2.72 -3.76,-1.75 -11.32,-4.08 -14.47,-11.66 3.6,0 6.61,3.58 11.68,4.52 35.9,6.65 39.44,-27.89 31.01,-43.39 -5.12,-9.43 -5.92,-12.45 -14.36,-18.15 -15.48,-10.44 -28.24,-5.82 -40.56,-3.44 -7.35,1.42 -6.1,1.53 -12.04,3.8 -16.2,6.21 -34.91,8.87 -51.97,14.02l-69.15 13.84c-6.25,0.25 -10.55,-1.8 -12.35,4.07 -2.56,8.29 14.13,9.5 20.72,10.41 16.08,2.23 39.74,11.42 52.34,13.44 16.13,2.59 17.25,4.93 26.18,7.44 2.8,0.79 4.6,0.43 7.09,1.35 0.11,0.04 14.19,8.85 18.77,4.15 1.97,-3.96 -3.56,-19.42 0.47,-28.36 2.24,-4.96 1.71,-7.95 3.93,-12.73 1.72,-3.7 2.6,-8.1 4.96,-10.82 3.44,-3.98 13.16,-11.67 19.32,-13.19 6.96,-1.72 20.95,-1.19 25.41,3.46z"/>
 </g>
</svg>
