<?xml version="1.0" encoding="UTF-8"?>
<!DOCTYPE svg PUBLIC "-//W3C//DTD SVG 1.1//EN" "http://www.w3.org/Graphics/SVG/1.1/DTD/svg11.dtd">
<!-- Creator: CorelDRAW 2020 (64 Bit) -->
<svg xmlns="http://www.w3.org/2000/svg" xml:space="preserve" width="512px" height="512px" version="1.1" style="shape-rendering:geometricPrecision; text-rendering:geometricPrecision; image-rendering:optimizeQuality; fill-rule:evenodd; clip-rule:evenodd"
viewBox="0 0 512 512"
 xmlns:xlink="http://www.w3.org/1999/xlink"
 xmlns:xodm="http://www.corel.com/coreldraw/odm/2003">
 <defs>
  <style type="text/css">
   <![CDATA[
    .fil0 {fill:#1A1A1A}
    .fil1 {fill:#C8102E}
   ]]>
  </style>
 </defs>
 <g id="Camada_x0020_1">
  <metadata id="CorelCorpID_0Corel-Layer"/>
  <path class="fil0" d="M369.61 229.5c-1.19,8.15 -7.06,27.1 -13.51,29.57 -5.44,2.08 -14.42,-2.54 -8.1,-12.83 7.58,-12.33 5.84,-21.87 7.61,-26.82 1.45,-4.05 6.77,-6.81 11.24,-3.78 4.33,2.93 3.58,8.23 2.76,13.86zm-103.28 120.72c-3.09,0.3 -6.33,-1.2 -7.7,-4.65 -1.43,-3.63 -2.18,-14.82 -3.07,-19.6 -1.93,1.7 -13.67,23.67 -20.96,27.36 -6.59,3.34 -13.63,-3.8 -9.95,-10.43 1.39,-2.52 8.22,-8.22 10.6,-13.19 -4.24,2.13 -22.94,17.28 -28.56,21.19 -2.13,1.48 -3.04,1.27 -4.92,2.29 1.08,6.9 8.14,11.9 13.77,14.67 18.37,9.06 40.03,-0.32 57.28,-9.61 -2.38,-2.48 -4.56,-5.17 -6.49,-8.03zm-92.05 -260c-0.81,-4.57 2.33,-8.25 6.03,-8.85 4.33,-0.69 50.84,14.79 58.17,17.13 3.84,1.22 7.51,2.48 11.39,3.71 4.36,1.39 7.41,2.34 8.11,6.99 0.67,4.48 -2.65,8.08 -6.28,8.6 -3.06,0.43 -8.67,-1.94 -11.69,-2.89 -7.7,-2.42 -15.12,-4.91 -22.89,-7.33l-34.66 -10.66c-4.15,-1.24 -7.45,-2.49 -8.18,-6.7zm35.44 103.38c1.57,-0.49 10.7,-8.18 12.94,-9.92 10.13,-7.82 16.24,-11.9 26.89,-18.91l14.04 -8.73c-4.53,0.35 -34.98,7.97 -40.98,9.64 -16.53,4.6 -16.27,-10.35 -8.59,-13.3 3.49,-1.34 9.64,-2.62 13.43,-3.57 3.99,-0.99 25.58,-5.69 27.21,-6.65 -2.12,-1.18 -22.1,-3.73 -26.26,-4.3 -8.8,-1.21 -19.46,-2.46 -28.38,-1.32 -11.88,1.51 -13.03,-12.44 -3.77,-14.67 15.85,-3.83 66.22,5.78 81.84,9.23l18.7 3.97c3.4,0.84 3.79,2.22 5.15,2.84l23.06 -7.08c-1.28,-1.7 -64.84,-47.31 -67.69,-49.27 -5.86,-4.05 -11.15,-8.09 -17.17,-12.1 -15.67,-10.44 -27.6,-19.1 -43.98,-29.19 -2.92,-1.8 -6.13,-4.26 -10.7,-2.85 -13.05,3.99 -21.7,17.74 -25.07,33.46 -8.68,40.45 11.77,77.73 35.26,107.28l14.07 15.44zm140.44 35.9c-1.46,3.22 -18.14,24.45 -26.46,23.31 -4.51,-0.63 -7.98,-5.47 -5.68,-10.59 1,-2.22 10.39,-8.68 16.42,-16.63 2.14,-2.81 4.73,-7.1 9.94,-6.38 4.28,0.58 8.02,5.37 5.78,10.29zm20.87 -8.97c-2,-6.5 4.56,-11.64 10.34,-9.07 3.35,1.48 6.94,8.93 8.79,12.95 4.68,10.18 8.88,21.27 8.62,34.84 -0.07,3.36 -0.58,6.29 -2.34,8.04 -1.7,1.69 -5.52,2.87 -8.6,1.46 -6,-2.74 -3.62,-10.08 -4.5,-17.2 -2.03,-16.25 -11.32,-27.83 -12.31,-31.02zm-34.04 -45.33c-1.68,4.66 -9.31,6.97 -15.68,10.36 -5.78,3.08 -11.14,5.86 -16.85,9.08 -32.22,18.2 -63.57,40.61 -88.28,67.54 -8.48,9.25 -15.97,18.06 -23.51,28.43 -15.77,21.72 -26.33,41.36 -37.89,65.96 -1.92,4.11 -6.04,15.2 -8.24,17.72 -5.07,5.82 -15.14,0.69 -12.67,-7.46 1.38,-4.58 14.2,-31.43 16.33,-35.63 15.86,-31.32 40.18,-66.89 65.45,-90.31 12.39,-11.49 15.64,-14.09 27.81,-24.13 12.2,-10.06 32.51,-23.07 46.61,-31.29 12.48,-7.28 20.98,-11.56 33.85,-18.09 3.1,-1.58 5.85,-3.2 9.61,-1.09 2.28,1.28 4.92,4.83 3.46,8.91zm73.48 -24.77c9.43,-2.44 14.62,8.73 5.05,10.83 -9.33,2.04 -14.55,-8.37 -5.05,-10.83zm-10.44 60.18c5.3,-4.82 36.65,-6.05 52.22,-31.5 5.3,-8.68 9.52,-27.21 3.92,-32.99 -3.68,-3.8 -26.42,-6.61 -33.96,-7.49 -73.45,-8.6 -138.41,16.32 -190.67,57.25 -3.9,3.05 -8.19,6.36 -11.69,9.55 -1.84,1.67 -3.57,3.23 -5.49,4.87 -1.93,1.64 -3.53,3.3 -5.41,4.98 -6.72,6 -6.98,9.16 -11.95,8.29 -17.69,-3.1 -34.89,2.67 -42.8,18.65 -10,20.21 -0.27,47.55 -3.59,54.97 -2.23,4.99 -3.91,9.53 -5.91,14.85 -1.82,4.86 -3.55,10.52 -4.98,15.79 -4.6,17.06 -2.25,16.6 -7.65,17.02 -13.55,1.06 -28.23,4.62 -40.09,10.28 -17.83,8.51 -33.24,23.88 -37.88,43.35 -2.59,10.88 0.26,13.04 8.8,16.29 10.72,4.08 24.01,3.42 35.24,-0.1 2.12,-0.67 8.37,-3.14 9.55,-3.15 0.57,7.69 0.25,12.66 1.83,20.37 2.72,13.31 11.85,37.7 24.25,42.33 7.21,2.69 11.95,-2.04 13.87,-6.76 2.1,-5.17 2.11,-13.12 2.93,-19.25 2,-14.87 11.67,-71.27 15.29,-84.77 0.85,-3.18 14.97,-12.77 18.03,-15.05 4.39,-3.28 8.42,-5.89 13.04,-9.13 4.34,-3.03 8.21,-6.35 12.62,-9.58l38.63 -27.93c1.11,-0.78 2.29,-1.35 3.31,-2.36 1.21,-1.22 1.29,-2.24 2.22,-3.44 2.42,-3.16 3.92,-1.89 6.98,-2.93 9.14,-21.75 30.65,-37.03 55.73,-37.03 17.83,0 33.86,7.73 44.92,20.02 8.95,1.95 17.82,3.13 26.12,2.87 16.26,-0.52 41.31,-8.03 38.51,-27.53 -0.9,-6.32 -5.14,-10.62 -8.1,-14.05 -4.58,-5.27 -14.71,-20.37 -17.84,-26.69z"/>
  <path class="fil1" d="M316.42 255.99c33.37,0 60.42,27.06 60.42,60.43 0,33.37 -27.05,60.42 -60.42,60.42 -33.38,0 -60.43,-27.05 -60.43,-60.42 0,-33.37 27.05,-60.43 60.43,-60.43zm-20.15 111.22l47.84 0 0 -4.69 -5.43 -0.3c-1.91,-0.1 -3.45,-0.28 -4.61,-0.53 -1.15,-0.26 -2.03,-0.63 -2.64,-1.14 -0.6,-0.5 -1,-1.23 -1.2,-2.19 -0.21,-0.96 -0.31,-2.19 -0.31,-3.7l0 -56.71 -34.56 1.51 0 4.99c0.2,0 0.71,0.03 1.51,0.08 0.81,0.05 1.31,0.12 1.51,0.23l2.26 0.15c6.54,0.5 9.81,3.93 9.81,10.28l0 39.47c0,3.62 -0.95,5.89 -2.86,6.8 -0.2,0.1 -0.46,0.18 -0.76,0.23 -0.3,0.05 -0.83,0.12 -1.58,0.22 -0.76,0.1 -1.84,0.21 -3.25,0.31 -1.41,0.1 -3.32,0.2 -5.73,0.3l0 4.69zm23.24 -103.58c-3.02,0 -5.63,1.08 -7.85,3.25 -2.21,2.16 -3.32,4.71 -3.32,7.63 0,3.13 1.11,5.8 3.32,8.02 2.22,2.22 4.83,3.32 7.85,3.32 3.02,0 5.61,-1.1 7.77,-3.32 2.17,-2.22 3.25,-4.89 3.25,-8.02 0,-3.02 -1.08,-5.59 -3.25,-7.71 -2.16,-2.12 -4.75,-3.17 -7.77,-3.17z"/>
 </g>
</svg>
