<?xml version="1.0" encoding="UTF-8"?>
<!DOCTYPE svg PUBLIC "-//W3C//DTD SVG 1.1//EN" "http://www.w3.org/Graphics/SVG/1.1/DTD/svg11.dtd">
<!-- Creator: CorelDRAW 2020 (64 Bit) -->
<svg xmlns="http://www.w3.org/2000/svg" xml:space="preserve" width="512px" height="512px" version="1.1" style="shape-rendering:geometricPrecision; text-rendering:geometricPrecision; image-rendering:optimizeQuality; fill-rule:evenodd; clip-rule:evenodd"
viewBox="0 0 512 512"
 xmlns:xlink="http://www.w3.org/1999/xlink"
 xmlns:xodm="http://www.corel.com/coreldraw/odm/2003">
 <defs>
  <style type="text/css">
   <![CDATA[
    .fil1 {fill:#BDAE74}
    .fil0 {fill:#575036;fill-rule:nonzero}
   ]]>
  </style>
 </defs>
 <g id="Camada_x0020_1">
  <metadata id="CorelCorpID_0Corel-Layer"/>
  <path class="fil0" d="M256 -1.5c71.1,0 135.48,28.82 182.08,75.42 46.6,46.6 75.42,110.98 75.42,182.08 0,71.1 -28.82,135.48 -75.42,182.08 -46.6,46.6 -110.98,75.42 -182.08,75.42 -71.1,0 -135.48,-28.82 -182.08,-75.42 -46.6,-46.6 -75.42,-110.98 -75.42,-182.08 0,-71.1 28.82,-135.48 75.42,-182.08 46.6,-46.6 110.98,-75.42 182.08,-75.42zm179.96 77.54c-46.05,-46.05 -109.68,-74.54 -179.96,-74.54 -70.28,0 -133.91,28.49 -179.96,74.54 -46.05,46.05 -74.54,109.68 -74.54,179.96 0,70.28 28.49,133.91 74.54,179.96 46.05,46.05 109.68,74.54 179.96,74.54 70.28,0 133.91,-28.49 179.96,-74.54 46.05,-46.05 74.54,-109.68 74.54,-179.96 0,-70.28 -28.49,-133.91 -74.54,-179.96z"/>
  <path class="fil1" d="M192.01 255.97l19.99 0 0 120 -21 0 0.01 30 129.99 0.01 0 -30.01 -19.01 0 0.01 -150 -110 0 0 3 0.01 27zm63.26 -149.84c-12.2,1.25 -23.17,5.11 -31.01,14.09 -5.98,6.86 -13.27,18.33 -12.08,32.64 0.96,11.51 5.43,23.42 14.07,30.83 7,6 18.39,13.28 32.66,12.11 7.09,-0.59 12.63,-1.87 17.88,-4.56 14.16,-7.27 26.74,-23.05 25.05,-42.13 -0.99,-11.18 -5.4,-23.66 -14.12,-30.85 -4.54,-3.75 -7.61,-6.53 -13.65,-8.87 -4.86,-1.89 -12.85,-3.86 -18.8,-3.26z"/>
 </g>
</svg>
