<?xml version="1.0" encoding="UTF-8"?>
<!DOCTYPE svg PUBLIC "-//W3C//DTD SVG 1.1//EN" "http://www.w3.org/Graphics/SVG/1.1/DTD/svg11.dtd">
<!-- Creator: CorelDRAW 2020 (64 Bit) -->
<svg xmlns="http://www.w3.org/2000/svg" xml:space="preserve" width="512px" height="512px" version="1.1" style="shape-rendering:geometricPrecision; text-rendering:geometricPrecision; image-rendering:optimizeQuality; fill-rule:evenodd; clip-rule:evenodd"
viewBox="0 0 512 512"
 xmlns:xlink="http://www.w3.org/1999/xlink"
 xmlns:xodm="http://www.corel.com/coreldraw/odm/2003">
 <defs>
  <style type="text/css">
   <![CDATA[
    .fil1 {fill:#47412B}
    .fil0 {fill:#FEF6EE}
   ]]>
  </style>
 </defs>
 <g id="Camada_x0020_1">
  <metadata id="CorelCorpID_0Corel-Layer"/>
  <path class="fil0" d="M256 0c141.39,0 256,114.61 256,256 0,141.39 -114.61,256 -256,256 -141.39,0 -256,-114.61 -256,-256 0,-141.39 114.61,-256 256,-256zm-64.99 251l19.99 0 0 120 -21 0 0.01 30 129.99 0.01 0 -30.01 -19 0 0 -150 -110 0 0 3 0.01 27zm63.26 -149.83c-12.2,1.24 -23.17,5.11 -31.01,14.08 -5.98,6.86 -13.27,18.33 -12.08,32.64 0.96,11.51 5.43,23.43 14.07,30.83 7,6 18.39,13.28 32.66,12.11 7.09,-0.59 12.63,-1.87 17.88,-4.56 14.16,-7.27 26.74,-23.05 25.05,-42.13 -0.99,-11.18 -5.4,-23.66 -14.12,-30.85 -4.54,-3.75 -7.6,-6.52 -13.65,-8.87 -4.86,-1.88 -12.85,-3.86 -18.8,-3.25z"/>
  <path class="fil1" d="M256 0c141.39,0 256,114.61 256,256 0,141.39 -114.61,256 -256,256 -141.39,0 -256,-114.61 -256,-256 0,-141.39 114.61,-256 256,-256zm173.95 82.05c-44.51,-44.51 -106.02,-72.05 -173.95,-72.05 -67.93,0 -129.44,27.54 -173.95,72.05 -44.51,44.51 -72.05,106.02 -72.05,173.95 0,67.93 27.54,129.44 72.05,173.95 44.51,44.51 106.02,72.05 173.95,72.05 67.93,0 129.44,-27.54 173.95,-72.05 44.51,-44.51 72.05,-106.02 72.05,-173.95 0,-67.93 -27.54,-129.44 -72.05,-173.95z"/>
  <path class="fil1" d="M191.01 251l19.99 0 0 120 -21 0 0.01 30 129.99 0.01 0 -30.01 -19 0 0 -150 -110 0 0 3 0.01 27zm63.26 -149.83c-12.2,1.24 -23.17,5.11 -31.01,14.08 -5.98,6.86 -13.27,18.33 -12.08,32.64 0.96,11.51 5.43,23.43 14.07,30.83 7,6 18.39,13.28 32.66,12.11 7.09,-0.59 12.63,-1.87 17.88,-4.56 14.16,-7.27 26.74,-23.05 25.05,-42.13 -0.99,-11.18 -5.4,-23.66 -14.12,-30.85 -4.54,-3.75 -7.6,-6.52 -13.65,-8.87 -4.86,-1.88 -12.85,-3.86 -18.8,-3.25z"/>
 </g>
</svg>
