<?xml version="1.0" encoding="UTF-8"?>
<!DOCTYPE svg PUBLIC "-//W3C//DTD SVG 1.1//EN" "http://www.w3.org/Graphics/SVG/1.1/DTD/svg11.dtd">
<!-- Creator: CorelDRAW 2020 (64 Bit) -->
<svg xmlns="http://www.w3.org/2000/svg" xml:space="preserve" width="512px" height="512px" version="1.1" style="shape-rendering:geometricPrecision; text-rendering:geometricPrecision; image-rendering:optimizeQuality; fill-rule:evenodd; clip-rule:evenodd"
viewBox="0 0 512 512"
 xmlns:xlink="http://www.w3.org/1999/xlink"
 xmlns:xodm="http://www.corel.com/coreldraw/odm/2003">
 <defs>
  <style type="text/css">
   <![CDATA[
    .fil2 {fill:#1A1A1A}
    .fil1 {fill:#99CC66}
    .fil0 {fill:#FFEB9C}
    .fil3 {fill:#1A1A1A;fill-rule:nonzero}
   ]]>
  </style>
 </defs>
 <g id="Camada_x0020_1">
  <metadata id="CorelCorpID_0Corel-Layer"/>
  <path id="amarelos-2" class="fil0" d="M0.27 267.6c1.75,0.53 3.16,1.55 4.9,2.1 2.96,0.94 6.07,0.2 8.27,2.6 -0.22,3.63 -1.92,2.72 -2.52,5.25 -0.77,3.31 0.82,3.36 1.31,5.95 -1.45,1.53 -2.65,1 -3.65,2.48 -0.87,1.31 -0.58,2.95 -1.14,4.47 -0.71,1.94 -1.04,1.47 -1.6,3.98 -0.71,3.17 -1.45,4.41 -2.13,5.15 0.58,3.41 1.24,6.8 1.96,10.17 2.11,0.7 4.4,0.29 5.29,-1.54 0.31,-0.62 0.41,-1.17 0.48,-1.86 0.18,-1.72 -0.14,-3.13 0.54,-4.75 1.23,-2.94 1.74,-0.34 2.58,-7.44 0.48,-4.07 1.94,-4.2 2.93,-7.45 2.26,-7.46 3.66,-6.67 0.36,-9.76 -1.51,-1.41 -1.16,-0.47 -1.26,-3.33 5.51,-0.67 0.1,0.64 9.94,2.29 9.05,1.51 3.04,1.41 9.69,3.06 3.63,0.9 5.84,2.89 10.17,2.77 13.29,-0.35 4.87,-0.22 11.56,-1.45l21.49 -3.73c6.43,-0.68 17.7,-4.05 20.84,-4.33 9.64,-0.87 3.93,-2.54 16.83,-2.27 4.84,0.1 3.88,-0.77 4.82,-1.5 1.94,-1.49 12.2,-2.95 15.56,-3.05 2.63,-0.08 2.82,-1.07 5.12,-1.46 3.13,-0.53 9.64,0.77 11.79,-0.63 5.74,-3.72 3.1,-1.65 9.77,-3.01 2.18,-0.44 2.78,-1.28 4.91,-1.77 7.91,-1.83 6.15,1.47 13.49,-4.73 0.07,-5.98 -2.08,-3.95 -2.92,-8.43 -0.18,-0.97 -0.21,-1.41 -0.42,-2.13 -0.43,-1.42 0.21,0.07 -0.78,-1.82l-4.35 -10.97c-1.43,-3.93 -1.57,-3.76 -1.8,-8.57 -2.01,-1.8 -5,-3.09 -7.78,-4.67 -4.43,-2.53 -3.36,-2.07 -9.22,-3 -4.35,-0.69 -5.74,-2.32 -9.12,-3.07 -4.03,-0.89 -5.06,-2.98 -6.99,-5.12 -5.53,-0.23 -0.94,2.28 -7.54,-0.76 -6.49,-3 -11.26,-2.78 -14.41,-4.9 -2.5,-1.68 -4.6,-0.94 -7.67,-1.97l-7.56 -2.7c-3.15,-0.97 0.1,-1.17 -7,-2.75l-21.93 -7.51c-4.3,-2.65 -4.81,-0.52 -7.99,-1.72 -3.06,-1.16 -0.81,-3 -6.54,-2.96 -5.96,0.05 -4.17,-1.15 -7.64,-2.28 -1.55,-0.5 -2.81,-0.33 -4.36,-0.69 -1.14,-0.26 -2.19,-1.17 -3.38,-1.7 -3.68,-1.63 -6.5,0.4 -13.49,-5.79 -3.72,-3.3 -6,-0.4 -7.3,-0.34l-6.49 -1.78 -0.39 -0.1c-10.03,27.42 -15.5,57.03 -15.5,87.92 0,3.89 0.1,7.75 0.27,11.6zm123.42 175.73c-1.94,-3.04 -2.33,-5.84 -1.93,-10.68l3.86 -3.59c6.9,2.01 4.92,15.17 -1.93,14.27zm50.16 -26.28c2.2,-1.69 5.07,-2.3 5.08,2.91 0,2.65 0.23,5.71 -0.27,8.14 -3.08,1.19 -5.12,1.2 -5.25,-2.5 -0.07,-2.36 -0.11,-6.35 0.44,-8.55zm-0.11 -16.26l4.24 -0.14c0.84,2.29 1.81,1.92 1.5,5.76 -3.08,0.15 -3.45,-0.57 -5.75,-2.17l0.01 -3.45zm-15 1.87c4.24,-5.5 8.08,2.56 7.45,4.76 -0.04,0.14 -0.2,0.49 -0.28,0.62 -1.2,2.09 -2.37,1.78 -4.31,1.55 -1.86,-7.28 -2.42,-4 -2.86,-6.93zm-35.03 -2.42c0.11,-2.29 -0.62,-7.63 0.84,-9.02 1.83,-1.73 4.56,1 5.64,2.25 0.15,1.98 -0.16,3.99 0.03,5.65 0.16,1.49 0.75,2.2 0.91,3.82 -2.8,1.54 -7.59,0.85 -11.19,2.46 -0.28,-2.55 1,-3.5 3.77,-5.16zm15.97 1.69l-0.85 0.57c-0.82,0.4 -1.87,0.49 -3.17,0.45 0.08,-1.7 0.88,-3.05 2.3,-3.86 1.85,-1.08 2.66,-0.28 4.3,-1.82 2.31,-3.4 -1.85,-7.05 -0.19,-9.87 2.09,-3.53 5.8,2.12 6.79,3.03l-0.64 9.03c-0.91,2.87 -5.37,0.54 -8.54,2.47zm22.98 -5.64c-0.57,0.68 -0.59,0.62 -1.25,1.47 -2.57,0.08 -3.96,0.43 -5.93,-0.34 0.1,-1.94 1.34,-2.58 3.02,-3.7l-0.01 -9.34c6.8,-3.89 4.85,3.93 5.16,5.51 0.58,3.01 6.9,2.02 8.73,1.24l0.32 -3.24c-0.47,-0.67 -0.2,-0.4 -0.96,-1.17 -3.68,-3.78 1.22,-7.13 4.96,-6.15 0.57,2.05 0.9,4.46 1.7,6.23 1.54,3.38 4.61,2.39 0.32,7.6 -3.54,0.18 -5.86,-0.77 -8.52,0.71 -2.92,1.62 -3.68,1.01 -7.54,1.18zm10.08 -25.88c0.76,-6.59 -2.12,-5.95 1.3,-11.56 1.33,0.11 3.59,-0.04 4.38,1.27 1.86,3.05 -1.64,5.29 0.01,9.82 1.11,3.02 0.08,2.92 0.08,2.94 -1.03,3.15 -13.99,4.15 -14.15,4.23 -1.28,0.64 -1.1,1.68 -3.03,2.01 -1.3,0.23 -2.85,-0.14 -4.4,0.24 -2.91,0.71 -2.14,2.79 -6.22,2.79 -17.93,0.06 -8.61,1.24 -18.85,2.66 -6.6,0.92 -12.68,2.2 -11.12,-1.37 2.21,-5.06 0.94,-1.65 0.98,-7.29 0.02,-1.97 2.06,-5.78 4.55,-6.19 4.49,3.43 0.8,8.31 1.59,9.86 2.36,2.12 3.05,2.19 6.14,0.61 1.65,-0.83 4.97,-0.72 7.04,-1.23 0.31,-3.78 -1.86,-7.26 -0.74,-12.99 1.56,-3.09 7.05,0.01 8.69,1.31 0.39,5.15 -2.99,2.06 -2.39,7.72 1.5,1.06 2.45,1.73 5.05,1.44 1.66,-0.19 4.01,-0.49 5.15,-1.54 2.55,-2.35 0.94,-8.31 1.28,-12.2 1.06,-2.34 3.34,-1.81 5.38,-1.76 3.19,3.37 -0.68,4 0.61,11.33 5.26,2.58 5.47,-0.76 8.67,-2.1zm12.14 -44.72c-4.01,-3.4 -4.74,0.42 -10.58,1.26 -4.16,0.6 -4.92,2.12 -8.86,2.83 -1.55,0.28 -3.81,0.5 -5.22,0.86 -1.46,0.38 -2.56,1.19 -3.94,1.71 -3.02,1.13 -6.53,0.74 -9.35,1.81 -3.37,1.28 -5.79,1.57 -9.06,2.72 -1.34,0.47 -2.35,1.24 -3.86,1.71 -3.08,0.97 -6.98,0.7 -9.96,1.74 -2.92,1.02 -8.7,4.65 -8.78,7.69 3.51,2.26 3.69,-0.59 8.75,-1.52 3.67,-0.68 5.58,-2.18 8.84,-2.9 3.93,-0.88 5.77,-1.22 9.31,-2.38 3.36,-1.1 5.14,-2.01 9.46,-1.43l-0.19 2.49c-2.54,2.09 -8.22,-0.48 -7.35,3.36 0.03,0.14 0.11,0.28 0.16,0.4 0.05,0.12 0.15,0.24 0.21,0.34 2.75,4.85 1.01,2.49 1.71,8.36 1.82,-0.11 2.57,-0.76 3.81,-1.06 1.45,-0.35 2.66,-0.06 4.37,-0.29 1.29,-2.16 0.79,-3.66 1.78,-5.95l2.52 -4.57c3.26,0 2.88,0.35 4.67,1.33l0.36 7.28c-0.98,0.71 -1.26,1.19 -2.18,1.93 -2,1.59 -5.63,1.06 -7.74,2.23 -2.96,1.63 -11.95,3.88 -14.78,2.71 -2.24,-5.65 0,-7.55 0.65,-10.02 0.76,-2.88 -4.84,-2.5 -9.08,-0.52 -2.94,1.38 -4.31,1.96 -3.21,6.02 0.81,3 2.71,4.64 1.39,7.49 -1.21,2.6 -3.81,3.46 -7.36,2.45 -1.12,-2.79 0.01,-2.74 0.31,-5.39 0.4,-3.62 1.25,-8.01 -3.95,-6.76 -1,0.25 -1.84,0.78 -2.43,1.37 -7.23,7.31 0.93,6.27 -0.86,17.07 -0.42,2.51 0.02,12.01 0.05,15.28l-0.19 37.69c0.05,2.69 0.8,4.17 0.65,7.14l-0.31 22.41c-0.03,2.29 -1.06,3.77 -0.83,6.09 3.78,2.99 5.21,1.3 10.45,0.76 3.8,-0.39 1.61,-1.45 5.06,-1.73 3.72,-0.3 2.51,-0.19 5.55,-1.16 1.09,-0.34 1.55,-0.41 2.58,-0.87 4.42,-1.96 1.69,-2.1 8.17,-2.05 7.19,0.05 5.36,-2.18 9.74,-3.1 0.24,-2.36 0.69,-3.5 -1.64,-3.76 -2.67,-0.29 -3.4,3.34 -6.57,2.32 -4.96,-3.09 -1.5,-4.03 -2.42,-7.68 -0.45,-1.76 -1.78,-1.95 -1.03,-4.49 0.76,-2.6 1.59,-0.52 1.85,-3.7 -1.18,-1.4 -3.71,-2.77 -5.95,-0.98 -1.97,1.57 -0.25,11.57 -0.47,14.77 -0.16,2.42 -1.5,2.93 -3.68,2.65 -3.75,-0.48 -0.86,-6.4 -0.76,-8.27 0.16,-3.01 -0.42,-6.14 0.23,-9.08 1.05,-4.78 -1.05,-2.4 -1.05,-7.23 0,-3.68 -0.04,-4.87 -1.11,-8 -3,0.1 -4.01,1.18 -7.1,2.14 -2.41,0.75 -3.29,2.18 -6.22,1.46l-0.09 -2.23c1.44,-1.39 2.96,-1.76 4.67,-3.23 0.4,-3.03 -0.39,-5.75 3.71,-4.9 1.84,0.38 3.48,3.01 4.45,4.25 3.63,0.25 4.48,-0.07 6.82,-1.71 4.29,-2.99 4,-3.1 4.28,-8.04 1.99,-0.61 2.21,-0.46 4.69,-0.16l1.46 4.87c0.23,0.11 0.17,0.26 1.27,0.45 2.54,0.46 5.76,-1.04 7.11,1.85 -0.39,0.76 -0.58,1.12 -1.13,2.04 -2.26,-0.99 -17.51,2.4 -18.4,3.86 -1.14,3.82 3.04,6.06 6.74,4.21 13.46,-6.74 8.14,-0.84 11.47,2.41 1.4,1.36 4.31,1.21 5.38,-0.38 1.36,-2.02 0.12,-4.31 0.95,-6.76 0.64,-1.9 1.74,-3.04 3.2,-3.92l2.31 0.73c0.5,4.3 -2.64,8.7 0.02,13.83 1.49,2.87 1.16,2.37 1.11,6.39 -0.03,2.75 0.38,4.89 -0.09,7.63 -1.06,1.41 -2.49,2.59 -4.94,1.45l-0.34 -12.32c-1.11,-0.65 -0.7,-0.6 -2.15,-0.8 -1.57,3.03 -1.6,4.5 -1.6,9.13 0.01,2.8 -0.55,6.3 0.14,9.03l0.39 0.67c2.78,1.77 3.55,-0.54 4.96,-1.1 0.98,-0.39 2.08,-0.12 3.22,-0.24 2.64,-0.28 6.04,-2.09 7.97,-2.84 1.92,-0.76 4.58,-0.17 6.51,-0.87 3.7,-1.34 2.18,-8.48 2.19,-11.78 0.02,-4.3 -0.57,-9.83 0.86,-12.99 5.12,-0.04 3.34,1.36 5.43,2.9 3.06,2.24 3,-1.65 2.84,-3.56 -0.65,-7.84 2.03,-15.27 -2.38,-16.6 -6.12,5.21 -1.17,11.93 -5.6,14.67 -1.41,-0.66 -0.44,-0.04 -1.02,-0.62 -0.87,-0.86 -0.89,-1.98 -0.93,-3.12l0.18 -16.33c0.02,-7.27 -1.21,-25.63 -0.74,-32.08 0.12,-1.63 0.73,-3.17 0.89,-4.66 0.68,-6.03 -0.91,-11.47 -0.62,-15.19l-0.01 -8.11c-0.48,-4.5 -7.76,-2.87 -8.14,1.49 -0.44,5.01 1.62,6.08 1.42,10.69 -3.34,3.55 -3.82,1.89 -8.81,3.2l1 -1.63c1.22,-3.03 0.8,-6.42 1.74,-9.52 0.03,-0.11 0.08,-0.24 0.11,-0.36l0.29 -2.63c-2.7,-0.38 -3.83,-0.78 -5.91,0.63 -0.09,0.06 -0.19,0.16 -0.28,0.22 -1.69,1.11 -6.42,2.4 -8.08,2.05 -1.26,-0.27 -3,-1.07 -3.41,-2.14 2.18,-1.68 3.81,-1.26 6.73,-2.07 2.47,-0.69 3.88,-1.73 6.84,-2.23 4.71,-0.79 3.89,0.2 7.36,-1.95 1.96,-1.22 4.61,-1.37 7.32,-1.73l2.08 -4.83zm-121.91 89.98l-2.39 0.11c-3.96,-4.68 -2.02,-3.91 -1.49,-7.03 0.16,-0.94 0.14,-2.37 0.2,-3.38 1.78,-1.4 6.34,-3.81 6.32,1.85 -0.02,6.29 1.15,4.26 -2.64,8.45zm27.16 -3.52c-2.93,1.52 -1.97,0.89 -5.05,0.43l-0.18 -5.34c-0.1,-6.22 -0.5,-6.53 5.42,-5.18l-0.19 10.09zm-12.09 2.21c1.36,1.52 2.6,2.52 2.69,3.66 0.21,2.34 -1.8,1.91 -3.77,1.77 -1.19,-1.32 -1.46,-1.79 -2.66,-3.33 -1.46,-1.88 -1.59,-1.61 -1.79,-4.64 -0.33,-4.81 -1.86,-7.42 0.97,-10.91 2.07,-0.14 3.6,-0.08 5.13,0.73l-0.57 12.72zm-20.31 -16.65c-0.11,-4 3.08,-5.26 6.93,-5.54 3.12,-0.22 8.77,-1.57 11.14,-0.39l0.1 2.93 -13.36 2.29c-1.88,0.63 -3.05,0.3 -4.81,0.71zm22.07 -7.55c2.49,-1.12 8.44,-1 11.61,-0.85l-0.06 2.8c-2.67,1.04 -2.69,-0.01 -5.26,0.28 -2.7,0.31 0.94,0.59 -4.87,1.38 -0.84,-1.67 -1.47,-1.56 -1.42,-3.61zm-18.71 -2.39c-1.51,-1.31 -2.89,-3.43 -1.87,-6.4 1.25,-3.64 -0.44,-5.43 1.53,-8.53 1.65,-0.17 3.03,0.07 4.44,1.35 1.3,1.18 0.77,3.85 0.75,5.57 -0.06,3.55 -0.61,7.9 -4.85,8.01zm26.51 -10.07c0.76,2.4 1.43,1.51 2.52,3.57 -0.56,2.43 -1.98,3.07 -4.59,2.95 -1.25,-1.36 -2.78,-5.25 -2.33,-7.91 1.59,-9.51 1.16,-8.29 5.39,-8.28 0.45,1.66 1.78,1.89 1.75,5.09 -0.04,3.79 -1.46,2.2 -2.74,4.58zm-9.52 -5.15c-0.58,4.06 0.98,16.64 -6.03,12.09 -0.13,-2.24 0.03,-4.26 -0.02,-6.44 -0.08,-2.96 -1.32,-3.38 -0.96,-5.47 0.23,-1.31 1.46,-3.13 3.2,-2.99 0.95,0.07 1.25,0.51 1.87,1.08 0.67,0.61 1,1.02 1.94,1.73zm-10.88 -8.01c-2.35,2.18 -3.96,4.01 -8.31,1.63 -0.35,-2.08 -0.12,-2.14 0.53,-3.89l8.8 -0.98c-1.49,-1.85 15.2,-5.7 16.01,-2.76 1.09,3.99 -5.9,3.02 -7.9,3.13 -2.43,0.15 -2.6,0.52 -4.08,1.62 -1.72,1.28 -2.44,0.96 -5.05,1.25zm5.49 -12.84c-0.86,-4.59 -0.03,-5.41 -0.04,-10.15 -0.02,-5 -0.07,-5.34 5.4,-4.51l-0.13 12.65c-2.39,0.39 -0.37,2.35 -5.23,2.01zm12.84 -18.07c2.54,0.03 4.03,2.62 4.27,3.15 0.04,0.11 0.1,0.24 0.14,0.36 0.48,1.51 0.27,6.33 0.1,8.04 -0.62,0.64 -1.24,1.21 -1.9,2.03 -3.42,4.26 -3.67,-0.48 -3.86,-2.12 -0.26,-2.12 -1.03,-2.19 -1.27,-4.06 -0.31,-2.39 1.56,-5.68 2.52,-7.4zm-25.27 4.11l2.86 -0.2c2.35,2.13 2.76,2.8 2.68,7.07 -0.06,2.93 0.3,7.37 -0.33,10.02l-3.37 0.43c-3.46,-0.63 -0.84,-6.89 -1.67,-13.33 -0.26,-1.98 -0.51,-1.73 -0.17,-3.99zm-5.01 -5.54c-3,4.13 -0.46,30.23 -2.5,38.1 -0.04,0.14 0.79,10.31 0.9,12.01 -3.08,2.05 -2.01,3.65 -2.44,8.21 -0.3,3.11 -0.06,7.33 -0.13,10.61 -0.07,3.27 0.42,5.7 0.54,9.03 2.53,3.35 5.14,6.63 7.82,9.84 0.43,0.06 0.91,0.14 1.44,0.22 3.41,0.56 3.3,-2.19 7.93,-1.87 0.32,5.02 0.07,3.65 -7.21,3.81l-0.15 0.22c5.78,6.75 11.9,13.2 18.34,19.32 0.38,-0.14 0.79,-0.27 1.26,-0.37 6.01,-1.36 17.9,3.48 14.4,-20.94 -0.89,-6.15 2.31,-10.88 0.37,-19.39l-0.63 -15.62c0.1,-2.6 0.9,-2.19 1.12,-4.13 0.2,-1.77 -0.52,-2.97 -0.45,-5.07 0.1,-2.9 1.75,-11.24 -0.43,-14.51 -2.24,-3.36 -1.01,-5.16 -1.01,-9.43l-0.1 -26.5c-0.17,-5.72 -4.1,-3.72 -4.72,-1.36 -3.01,0.07 -7.57,-0.64 -8.66,2.83 -2.43,0.35 -6.1,-0.02 -7.96,0.45 -1.79,0.45 -3.17,2.34 -4.79,2.73 -2.44,0.58 -5.65,0.01 -7.03,0.6 -3.1,1.32 -1.82,1.07 -5.91,1.21zm114.7 -25.27c-1.2,2.5 -4.62,1.79 -7.35,2.66 -7.55,2.43 -9.91,1.43 -16.51,4.29 -3.8,1.64 -6.38,0.56 -9.44,1.53 -2.11,0.67 0.17,1.09 -7.19,2.86 -3.9,0.94 -0.16,0.76 -8.44,2.22 -4.11,0.73 -5.93,1.88 -8.48,-0.86 -1.15,-1.25 -5.03,-3.52 -2.59,-7.14 1.03,-1.55 5.41,-2.43 7.64,-2.67 1.6,-0.17 3.67,0.17 5.05,-0.08 2.82,-0.5 0.7,-2.69 7.8,-2.87l2.74 -0.16c0.12,-0.03 0.25,-0.08 0.37,-0.11l9.43 -2.82c3.47,-1.25 2.35,-1.78 7.48,-2.71 2.99,-0.55 5.78,-1.71 8.22,-2.36 7.88,-2.09 12.38,5.87 11.27,8.22zm-4.38 -40.82c-0.43,-0.89 -0.13,-0.38 -0.77,-1.3l-0.55 -0.71c-0.02,-0.11 -0.1,-0.14 -0.15,-0.21 -2.26,-0.29 -3.23,-0.09 -4.83,0.59 -0.27,3.37 0.96,5.03 1.15,8.84 0.26,4.96 0.18,3.76 1.92,7.22 1.44,2.85 1.27,5.04 1.28,8.56 0.02,4.65 0.22,5.21 -4.76,4.46 -0.99,-1.56 -0.86,-4.44 -1.62,-6.8 -0.66,-2.05 -1.24,-4.44 -1.8,-6.41 -1.95,-6.96 -1.79,-11.3 -5.12,-11.19 -3.34,0.12 -2.86,3.08 -2.45,6.05 0.33,2.41 0.53,4.5 1.25,6.74 1.45,4.49 3.06,8.36 2.02,14.26 -7.28,2.12 -7.94,-13.56 -9.7,-17.67 -1.15,-2.69 -0.9,-4.7 -1.57,-7.67 -1.47,-1.24 -2.08,-1.63 -4.84,-1.42 -2.7,3.11 -1.27,4.56 0.12,8.22l5.19 17.75c0.9,3.71 -4.48,6.99 -6.56,2.97 -5.37,-10.37 -2.14,-27.77 -12.01,-25.94 -1.65,4.12 0.1,3.55 1.19,7.22 0.81,2.71 0.65,5.24 1.28,7.83 0.61,2.48 1.83,4.43 2.42,7.32 0.6,2.9 1.36,4.58 1.96,6.89 -1.91,1.94 -5.27,3.31 -6.69,0.94l-3.85 -14.54c-0.75,-3.77 -0.39,-3.78 -1.89,-7.17 -0.75,-1.69 -0.41,-5.63 -1.35,-7.53l-5.01 -0.14c-3.53,4.7 0.25,6.72 2.38,16.11 1.14,5.03 4.91,12.46 4.05,16.38l-4.38 0.11c-5.79,-6.99 -2.17,-8.76 -4.45,-12.15 -2.58,-3.84 -0.42,-4.76 -2.7,-8.51 -2.54,-4.15 -0.43,-6.4 -2.79,-8.42l-1.86 -1.1c-0.96,-0.27 -1.17,-0.11 -2.11,-0.05 -4.44,1.77 0.79,9.56 1.34,15.51 0.37,4.04 2.48,1.93 3.01,7.13 0.47,4.55 2.13,4.97 2.32,8.14 -0.41,2.1 -4.19,3.62 -1.12,6.96 1.14,1.25 0.83,1.35 1.53,3.04 1.59,3.83 4.22,5.43 5.66,7.13 1.07,1.26 1.3,2.33 2.32,3.55 3.92,0.99 3,0.21 5.72,-1.16 1.43,-0.71 3.64,-0.48 5.88,-0.77 3.34,-0.43 5.65,-2 10.05,-3.13 5.37,-1.39 3.66,-2.5 10.95,-3.06 3.73,-0.28 1.36,-1.9 9.82,-3.09 3.14,-0.44 3.39,-0.32 5.61,-1.64 7.1,-4.22 10.42,0.35 15.42,-4.58 2.59,-2.56 -0.79,-7.81 -2.12,-9.07 -10.26,-9.71 -3.41,-6.38 -3.68,-13.01 -0.1,-2.47 -0.17,-5.1 -0.35,-7.52l-2.67 -2.7c-0.69,-1.64 1.75,-3.22 -2.09,-11.26zm62.71 82.29c-0.02,-0.16 -0.09,-0.52 -0.12,-0.67 -1.57,-7.16 0.47,-17.11 -1.56,-26.54 -1.22,-5.63 -0.48,-15.69 -0.8,-21.93 -0.15,-2.84 -1.4,-3.14 -2.79,-4.53l-3.2 0.41c-1.45,3.16 -0.3,19.69 0.63,24.05 1.48,6.98 0.4,17.97 0.99,25.42l0.66 25.99c-0.17,2.49 -0.76,3.21 -0.48,6.02 0.21,2.1 0.27,3.82 0.26,6.18 -0.03,10.7 0.19,6.6 2.87,10.18 -0.52,2.29 -0.21,1.1 -1.73,2.54l-0.74 0.76c-1.34,1.84 -1.01,14.96 -0.18,15.91 0.63,0.72 1.23,1.03 2.39,0.73 1.48,-0.39 2.56,-2.37 2.94,-2.86 1.42,-1.8 0.45,-0.67 0.95,-0.79 0.55,-11.76 0.14,-33.26 -0.06,-46.33 -0.06,-4.13 0.35,-10.82 -0.03,-14.54zm-112.25 -11.05c2.16,0.13 4.09,-0.03 6.21,-0.12 2.17,-0.08 2.79,-0.06 4.26,-0.93 4.61,-2.72 4.83,-0.99 8.69,-2.54 1.72,-0.69 2.27,-1.34 4.01,-2.2 2.47,-1.22 9.92,-2.81 12.98,-3.81 7.65,-2.47 6.05,-0.68 9.16,-2.52 6.13,-3.63 14.71,-2.24 17.97,-4.9 2.74,-2.23 4.51,-2.43 3.22,-7.56 -5.85,-1.42 -4.84,1.52 -8.08,2.58 -3.17,1.04 -7.25,-0.7 -10.05,1.14 -2.82,1.85 -20.3,6.7 -25.36,7.77 -3.35,0.71 -4.73,2.09 -7.85,2.87 -3.17,0.79 -6.83,0.08 -9.27,1.89 -3.9,2.9 -4.1,-0.07 -7.24,3.33 -0.16,2.98 -0.21,3.21 1.35,5zm-88.91 -39.7c-0.41,-3.03 0.34,-2.71 1.47,-4.4 1.07,-1.59 0.88,-2.83 1.37,-4.81 0.43,-1.79 0.2,-1 0.93,-2.16 1.99,-3.13 2,-2.16 1.72,-6.86 -4.86,-0.42 -8.03,0.94 -9.32,4.55 -1.28,3.56 -1.19,2.18 -2.57,4.51 -1.27,2.16 -0.03,2.99 -1.68,4.94 -1.71,2.02 -1.78,1.63 -1.89,5.36 -0.22,7.38 -5.89,8.72 -2.41,15.2 8.05,0.2 5.22,-5.4 6.88,-6.81 0.37,-0.31 3.16,-1.13 4.5,-2.09 3.26,-2.33 2.54,-0.12 4.59,-4.22 0.05,-0.11 0.12,-0.24 0.17,-0.34l1.69 -2.2c1.27,-1.23 2.58,-1.57 3.64,-3.04l4.53 -5.69c0.86,-0.93 0.55,-0.88 1.31,-1 0.15,-2.29 0,-2.53 -0.85,-4.15l-4.64 0.11c-1.6,2.03 -0.81,1.53 -1.77,4.25 -0.56,1.59 -1.42,1.94 -2.22,3.38 -1.59,2.91 -0.82,6.26 -5.45,5.47zm198.96 -9.3c3.26,-2.75 2.27,-3.14 1.31,-6.84 -4.96,-0.12 -6.45,0.34 -10.4,1.17 -3.98,0.83 -3.71,2.18 -8.76,2.23 -4.46,0.03 -4.1,1.68 -8.64,1.82 -3.09,0.1 -5.12,1.97 -6.32,3.85 -7.17,0.65 -9.95,-0.42 -14.35,3.62l0.05 2.54c1.49,3.57 8.33,1.04 8.41,1.03 1.06,-0.19 2.41,-0.16 3.57,-0.28 2.71,-2.82 1.26,-3.03 6.61,-2.84 9.28,0.33 8.2,-1.16 12.22,-2.6 1.56,-0.56 2.28,-0.46 4.1,-0.59 3.6,-0.26 4.27,-1.1 6.4,-2.95l5.8 -0.16zm-19.59 106.43c-0.12,-4.43 -0.19,-9.02 -0.2,-13.47 -0.03,-8.35 -2.97,-4.01 -3.45,-9.72 0.58,-2.75 2.69,1.11 3.2,-9.6 0.47,-9.93 0.22,-5.82 -1.35,-10.29 -3.48,-0.38 -5.06,-0.13 -7.46,1.56 -0.24,1.95 0.54,8.3 0.67,11.71 0.06,1.75 -0.22,4.53 0.31,6.06 0.88,2.6 1.78,0.6 1.79,4.64 -1.38,0.1 -0.94,0.37 -2.2,1.53 -0.19,3.4 -0.86,15.06 1.04,17.08 1.14,0.81 5.89,0.46 7.65,0.5zm-30.38 -176.46c-0.43,2.43 0.11,6.21 1.03,8.15 1.94,4.07 1.52,2.66 1.87,8.15 4.45,4.63 2.28,2.29 3.28,9.16 1.76,2.06 2.34,1.79 3.29,5.29 1.74,6.41 3.38,5.72 6.08,5.69 1.9,-6.22 -2.36,-4.34 -5.65,-16.63 -1.56,-5.8 1.04,-3.63 -2.85,-8.89 -1.58,-2.14 -3.18,-5.11 -3.29,-8.4 3,-2.77 5.8,-1.91 8.81,-3.15 5.25,-2.15 2.86,-1.82 9.9,-2.67l6.24 -4.69 -0.21 -3.95c-2.35,-0.6 -2.49,-0.89 -4.13,0.57 -5.25,4.69 -20.4,7.28 -24.37,11.37zm27.29 -2.06c0,2.95 1.31,3.21 2.37,7.06 0.96,3.47 2.08,4.38 2.99,7.22 1.4,4.33 5.86,17.94 8.14,22.42 2.84,5.55 -0.69,5.31 3.51,11.77 1.14,1.76 2.58,11.28 6.58,7.55 0.54,-0.62 1.1,-0.12 0.6,-2.29 -0.19,-0.82 -0.65,-1.36 -0.97,-2.29 -0.49,-1.42 -0.77,-3.41 -1.19,-4.95 -0.48,-1.72 -1.15,-2.58 -1.94,-4.15 -1.17,-2.34 -0.56,-2.73 -1.16,-5.02 -0.4,-1.52 -1.69,-1.94 -2.37,-3.66 -1.02,-2.62 0.66,-4.57 -1.66,-7.47 -3.64,-4.57 -1.35,-6.23 -2.18,-7.83 -0.63,-1.23 -1.75,0.9 -5.37,-9.59 -1.03,-3.01 -2.46,-9.03 -5.54,-10.21l-1.81 1.44zm-201.11 74.02c0.97,-3.79 2.86,-3.98 3.22,-7.3 0.6,-5.63 2.77,-4.03 2.4,-8.49 -1.44,-1.66 -4.24,-2.84 -7.03,-1.36l-0.28 0.19c0.38,5.71 0.94,11.36 1.69,16.96zm51.48 34.47c6.34,3.34 15.91,-2.44 22.09,-2.63 5.9,-0.18 4.75,-2.21 10.83,-2.86 4.9,-0.52 7.48,-1.45 6.98,-6.24 -2.83,-1.31 -9.5,-1.91 -11.81,-0.06 -1.75,1.4 -1.21,2.09 -4.45,2.25 -3.13,0.15 -3.28,-0.53 -5.57,0.91 -5.38,3.38 -7.64,1.06 -11.09,2.69 -5.08,2.38 -7.16,2.23 -6.98,5.94zm41.67 -18.06c0.38,-7.17 -3.48,-14.16 -3.69,-15.56 -0.59,-3.83 -0.81,-11.13 -2.85,-12.1 -2.7,-1.29 -7.44,0.98 -5.38,7.47 1.19,3.74 -0.32,4.71 1.85,7.82 4.02,5.76 -0.88,6.81 5.76,13.55 3.64,-0.15 2.71,0.23 4.31,-1.18zm-32.64 -0.26c0.47,3.29 -0.24,4.44 1.85,6.57 3.45,0.48 7.37,-0.18 6.97,-3.97 -0.18,-1.78 -1.05,-2.14 -1.82,-3.68l-3.68 -13.09c-0.92,-3.42 -1,-5.48 -3.19,-7.54l-2.62 0.2c-4.27,4.24 0.07,8.02 0.11,14.37 0.03,5.44 1.81,3.09 2.38,7.14zm139.82 112.37c2.48,-0.41 3.87,-1.71 5.4,-2.9 0.45,-3 -1.02,-5.11 -1.14,-8.65 -0.06,-1.77 0.24,-2.98 0.3,-4.61 0.21,-5.05 -2.2,-4.05 -8.69,-4.1 -1.97,4.49 -0.43,3.38 -0.4,7.68 0.06,8.6 -2.53,13.74 4.53,12.58zm-148.29 -103.15c7.1,0.89 3.7,-3.25 3.17,-6.09 -0.35,-1.88 0.11,-3.85 -0.25,-5.61 -0.25,-1.19 -1.05,-2.27 -1.53,-4.03 -0.81,-2.97 -2.17,-5.56 -2.92,-8.27 -0.84,-3.11 -0.06,-6.68 -4.44,-5.93 -2.84,3.43 -2.21,2.77 -1.2,7.07 0.46,2 -0.08,2.61 1.03,4.14 0.61,0.83 1.78,1.66 2.1,2.94 0.72,2.92 -0.49,6.61 0.68,9.58 0.59,1.48 2.6,5.01 3.36,6.2zm143.01 31.81c4.25,2.88 6.38,0.26 8.82,-2.24 0.88,-1.93 -0.92,-10.07 -0.93,-10.77 -0.28,-14.79 -4.81,-7.69 -8.06,-5.63l0.17 18.64zm-122.5 -65.39c-3.56,-0.11 -5.13,2.43 -4.16,6.11 2.27,8.67 -0.22,3.41 3.61,13.18 0.57,1.47 1.37,9.32 6.88,8.85 2.86,-5.95 -1.17,-8.66 -2.26,-14.35 -0.88,-4.57 -1.12,-11.3 -4.07,-13.79zm120.34 18.89c-0.77,6.32 1.15,9.65 0.39,15.19 -0.69,5.09 1.42,6.82 6.02,5.9 0.92,-0.19 0.66,-0.19 1.33,-0.6l1.39 -0.94c-2.22,-9.48 1.44,-12.31 -2.53,-18.96 -0.65,-1.07 -0.71,-0.6 -0.65,-1.43 -2.95,-0.2 -4,-0.2 -5.95,0.84zm-12.32 -13.39c0.36,-3.69 -0.22,-4.29 -1.63,-7.01 -1.43,-2.78 -0.3,-3.63 -0.71,-6.68 -0.2,-1.5 -3.55,-9.5 -4.43,-11.43 -3.03,-0.58 -3.04,0.07 -4.67,1.44 0.03,4.81 3.11,10.85 3.23,11.5 0.64,3.41 1.19,11.03 1.77,11.93 1.66,2.57 4.57,0.85 6.44,0.25zm25.22 24.25c1.05,4.16 -0.8,6.07 2.73,8.85l2.54 -0.15c0.5,-1.57 1.98,-0.5 2.26,-3.88 0.19,-2.2 -0.18,-3.75 -0.8,-5.53 -1.11,-3.19 -0.32,-8.75 -0.5,-12.48l-2.48 -1.59c-1.26,0.55 -1.47,0.93 -2.61,2.18 -0.91,1 -1.21,1.18 -2.3,2.1 -0.05,2.6 0.5,7.9 1.16,10.5zm-172.6 -1.71c2.36,0.64 1.19,1.17 5.45,2.78 1.83,0.69 6.22,2.94 6.04,-0.15l-1.17 -3.33c-0.74,-2.27 -0.62,-3.15 -0.62,-5.57 0,-3.68 -3.16,-6.4 -4.97,-6.92 -2.31,0.74 -3.35,3.85 -2,5.87 0.65,0.97 1.67,1.14 1.28,2.94 -0.3,1.41 -0.95,1.53 -2.44,1.81l-1.82 -4.28c-3.45,-0.55 -5.85,-0.57 -4.69,3.55 0.75,2.66 2.37,2.59 4.94,3.3zm175.28 39.96c-0.19,3.93 -0.49,7.63 -0.15,11.47 0.43,4.81 -1.35,8.61 5.29,7.48 0.09,-1.39 0.74,-2.66 0.7,-5.06l-0.19 -16.77 -2.55 -0.07c-1.14,1.09 -1.78,1.86 -3.1,2.95zm-184.37 -35.31c1.63,1.09 3.28,1.6 5.4,2.62 2.61,1.25 12.61,7.65 16.56,5.19l0.02 -3.42 -11.92 -4.91c-3.44,-2.43 -0.52,-1.4 -5.97,-2.76 -3.58,-0.88 -4.36,-0.51 -4.09,3.28zm162.89 -30.69c4.63,0.14 3.38,-0.54 1.66,-10.69 -0.64,-3.8 -1.17,-9.52 -2.38,-13.11l-4.68 -0.16c-0.13,1.48 1.33,12.01 1.75,12.86 4.71,9.4 0.8,5.86 3.65,11.1zm-0.44 44.23c-1.63,2.88 -0.83,8.87 -0.83,12.74 0.01,5.66 -1.46,9.01 4.77,8.42 2.06,-3.41 0.3,-6.23 0.18,-10.48 -0.12,-4.33 0.13,-8.6 -1.51,-10.8l-2.61 0.12zm21.05 2.07c0.98,3.38 -0.38,8.65 0.64,12.95 2.45,1.08 3.19,0.36 5.12,-0.7l0.02 -17.12c-2.29,-0.65 -2.49,-0.61 -4.86,-0.3 -1.43,1.7 -1.79,2.14 -0.92,5.17zm-20.35 47.03c-1.16,2.89 -1.07,7.41 -0.94,11.02l2.86 9.21 2.88 -0.24c0.89,-1.78 -0.12,-15.59 -0.38,-18.32 -1.46,-1.16 -1.72,-1.86 -4.42,-1.67zm12.72 -95.86c0.36,-3.61 -1.25,-11.18 -2.45,-14.99 -0.68,-2.14 -0.92,-2.35 -1.93,-3.65 -3.76,-0.04 -4.19,0.49 -3.01,3.9 0.85,2.45 -0.16,2.61 -0.04,5.71l2.18 1.77c0.31,5.05 -0.81,9.34 5.25,7.26zm-12.15 73.34c-3.77,1.01 -0.48,5.48 -1.63,10.74 -0.5,2.3 0.13,3.93 0.94,5.39 4.62,0.89 4.93,-0.81 4.59,-5.01 -0.35,-4.31 0.87,-5.55 0.61,-9.39 -1.17,-0.98 -2.01,-2.41 -4.51,-1.73zm-2.34 -51.11c-0.23,3.75 -0.53,17.66 0.44,20.55l3.64 -0.12c0.32,-3.84 0.12,-8.26 0.14,-12.18 0.05,-6.63 0.5,-8.5 -4.22,-8.25zm27.11 69.11c-1.67,0.42 -0.81,0.12 -1.84,1.44 -2.23,2.87 -3.13,2.91 -2,6.27 1,2.92 0.93,8.13 2.21,11l2.99 -0.29c0.65,-3.16 -0.25,-16.23 -1.36,-18.42zm-2.01 23.73c-3.43,6.97 -0.89,19.65 2.76,16.74 0.4,-0.33 2.06,-16.21 -0.33,-16.81l-2.43 0.07zm-105.9 -67.24c-0.18,-3.56 -1.63,-3.85 -3.94,-7.41 -1.15,-1.79 -3.27,-5 -6.2,-2.81 -0.39,2.05 0,2.13 1.17,3.34 4.62,4.74 3.23,1.56 5.77,6.97l3.2 -0.09zm100.21 -59.69c-0.97,2.45 -1.01,4.84 -0.76,8.43l1.31 0.75c1.32,0.69 3.19,0.93 4.07,0.14 1.74,-1.57 -0.05,-3.9 -0.05,-3.9 -1.44,-3.1 -0.87,-3.22 -1.82,-5.54l-2.75 0.12zm-51.83 153.81c-0.9,-0.38 -3.02,-0.82 -4.59,-0.54 -2.1,0.38 -1.74,0.94 -1.66,3.31l3.63 -0.23 2.62 -2.54zm-9.11 4.72c-0.92,-2.55 -1.62,-2.73 -4.69,-2.42 -0.89,0.94 -0.79,0.26 -1.26,1.82 1.81,1.08 3.74,0.47 5.95,0.6zm75.62 -149.64c0.89,-2.76 0.11,-3.65 -3.26,-3.6l0.07 2.28c1.34,1.24 0.9,0.93 3.19,1.32zm-212.74 45.34c1.29,1.18 2.42,2.67 4.1,3.29 2.52,-1.8 2.22,-4.13 6.58,-3.38 1.75,1.09 0.73,12.33 0.56,13.07 -1.33,5.52 1.36,6.72 -1.16,12.65 -0.3,0.72 -0.44,1.69 -0.47,2.71 -3.73,-9.19 -6.95,-18.65 -9.61,-28.34zm13.45 37.34c0.16,-8.17 0.52,-16.5 0.53,-21.74 0.01,-2.72 -0.16,-4.63 0.46,-6.97 0.77,-2.93 0.08,-4.21 0.32,-7.1 1.57,-2.07 3.33,-3.89 6.05,-2.65 2.32,1.07 4.64,1.95 6.64,3.01 3.98,2.13 4.4,0.94 7.57,2.15 1.11,0.43 5.31,3.15 6.08,3.93 0.04,2.62 -1.02,3.48 -1.1,6.61 -0.06,2.68 0.27,5.48 0.33,8.16 0.06,2.69 -0.58,4.51 -0.54,7.11 0.19,13.05 -0.71,26.22 -0.61,39.22l0.08 12.79c-5.47,-7.57 -10.54,-15.45 -15.17,-23.6 4.01,0.03 1.66,-1.9 2.62,-5.31 0.8,-2.81 0.98,-4.79 0.54,-8.09 -1.39,-0.99 -4.42,-1.52 -5.92,-0.38 -0.67,3.01 -0.07,3.03 0.19,5.75 0.09,0.88 -0.08,1.93 -0.21,2.99 -2.8,-5.19 -5.42,-10.48 -7.86,-15.88zm8.57 -3.89c1.26,-0.42 2.8,0.67 4.04,0.95 1.46,0.33 9.69,-0.61 5.96,5.48 -3.85,0.33 -2.95,-2.41 -6.57,-2.71 -1.31,-0.11 -3.06,0.4 -4.07,-0.68 -0.94,-1 -0.52,-2.66 0.64,-3.04zm3.62 -5.71c-4.35,0.36 -4.85,-1.34 -4.87,-5.51 -0.01,-2.91 0.04,-6.47 1.19,-8.56 4.06,-0.91 4.75,-0.28 6.99,1.87 0.37,4 -1.07,9.97 -3.31,12.2zm75.31 107.29c-0.08,-1.41 -0.15,-2.82 -0.14,-4.35 0.02,-3.03 0.43,-5.53 0.52,-8.15 0.08,-2.31 -0.57,-4.92 -0.6,-7.63 -0.03,-2.99 0.83,-5.72 0.62,-8.13 -1.16,-13.68 -1.13,-44.16 -0.75,-57.05l-0.18 -32.78c-2.31,-1.02 -2.86,-1.62 -4.2,-3.83 -1.81,-2.97 -1.72,-4.06 -2.5,-5.94l-3.32 0.27c-0.6,1.95 -0.29,16.42 -0.09,19.37 0.63,9.16 -0.12,49.21 -0.88,56.52 -0.72,0.07 -0.67,0.21 -1.52,0.74 -0.09,4.59 0.53,2.08 1.51,5.1 0.73,2.21 0.38,25.12 -0.02,27.71 -0.04,0.22 -0.08,0.42 -0.13,0.6 3.35,4.73 7.83,11.56 11.68,17.55z"/>
  <path id="amarelos-1" class="fil0" d="M476.17 170.91c0,0 2.13,-15.39 3.72,-15.39 1.59,0 9.28,1.6 9.28,1.6l0.44 -5.98c14.38,32.01 22.39,67.5 22.39,104.86 0,0.56 -0.02,1.11 -0.02,1.66l-29.31 39.13 -1.86 -9.28 -1.06 -94.44 -3.58 -22.16zm-34.06 1.39l35.55 -4.51 2.12 21.49 1.86 108.49 -6.9 9.82 -22.02 0.79 -11.94 -1.32 -2.12 -131.05 3.45 -3.71zm-97.72 -10.35c6.04,3.3 6.62,-4.87 6.6,-8.86l0.08 -12.93c-3.06,-0.18 -2.78,0.56 -3.7,2.91 -0.45,1.16 -0.57,1.4 -1.08,2.5 -0.94,2.01 -0.8,0.72 -1.67,2.39 -0.5,0.96 -0.49,12.41 -0.23,13.99zm43.38 -20.57l0.04 16.74c0.04,0.12 0.14,0.29 0.17,0.39 0.26,0.79 1.69,0.93 2.42,0.94 0.81,0.01 1.97,-0.23 2.49,-0.33 1.6,-2.45 1.06,-2.83 1.02,-8.57l-0.01 -10.19c0.01,-5.99 1.36,-9.75 -5.35,-9.46 -1.41,2.68 -0.77,7.07 -0.78,10.48zm-10.01 5.6l0.16 13.43c7.55,0.58 5.8,-6.66 5.82,-12.42 0.01,-2.03 1.91,-13.25 -0.7,-17.53 -5.24,-0.17 -5.28,0.03 -5.27,6.84 0,3.23 -0.03,6.46 -0.01,9.68zm32.28 -18.33l-0.07 23.91c-0.45,2.13 -0.78,1.88 -0.48,4.96 1.28,1.39 2.37,1.57 4.86,1.37 3.94,-1.92 1.36,-8.19 1.35,-13.95 0,-4.17 0.67,-15.73 -1.12,-18.51 -2.89,-0.02 -1.77,-0.51 -4.54,2.22zm10.73 -2.28l-0.16 26.72c0.62,0.17 -0.14,-0.53 0.64,0.35 1.05,1.18 2.85,5 6.07,2.2 0.02,-3.65 0.15,-26.97 -0.56,-28.52 -1.76,-1.68 -3.74,-2.62 -5.99,-0.75zm-20.69 32.67l3.35 0c3.41,-4.62 1.42,-6.96 1.7,-15.11 0.19,-5.32 0.38,-11.33 -0.75,-15.96 -3.53,-0.13 -6.24,0.08 -6.7,3.26 -1.2,8.35 0.61,5.4 1.37,8.69 2.11,9.15 -3.73,14.53 1.03,19.12zm-34.29 1.19l1.67 1.75 4.1 -0.02c1.97,-2.08 1.76,-6.05 1.89,-8.85 0.09,-1.79 -0.03,-21.54 -1.63,-22.53 -2.92,-0.51 -4.93,1.11 -5.33,3.22 -0.56,3.02 0.74,6.26 0.37,8.96 -0.76,5.58 -1.45,11.51 -1.07,17.47zm-6.45 1.93c1.33,-1.25 2.79,-2.31 2.89,-4.99 0.12,-2.8 0,-5.79 -0.3,-8.23 -0.92,-7.47 3.63,-18.92 -3.57,-17.67 -4.78,0.82 -2.62,8.11 -2.62,8.11 0.37,2.97 -1.58,14.36 -1.63,16.24 -0.18,6.07 -1.14,7.17 5.23,6.54zm71.61 -34.01c-0.32,5.07 1.16,1.51 0.04,7.24 -0.8,4.08 -0.52,8.11 0.64,11.77 0.56,1.79 0.2,2.47 0.24,4.43 0.14,6.35 7.69,6.1 7.97,-1.46 0.1,-2.83 -0.01,-7.92 -0.18,-10.8 -0.23,-3.81 -0.81,0.58 -1.02,-9.19 -0.09,-3.84 -2.17,-4.48 -5.96,-4.19l-1.73 2.2zm-98.92 42.77c3.01,3.05 14.51,1.79 18.68,1.27 6.42,-0.79 15.1,0.35 21.38,-0.24 0.75,-1.73 0.53,-1.84 0.19,-4.09 -1.27,-0.83 -3.2,-2.4 -4.47,-2.75 -1.64,-0.44 -3.59,-0.26 -4.98,0.68 -2.75,1.86 -2.77,-0.25 -5.86,0.34 -0.83,0.16 -1.41,0.62 -2.11,0.8l-13.36 0.39c-1.45,-0.23 -1.23,-0.51 -2.27,-1.17 -3.92,-2.51 -7.62,-0.49 -7.2,4.77zm88.43 -9.15l-18.65 0.27c-3.06,0.59 -3.09,2.86 -7.31,2.41 -8.09,-0.85 -3.5,-0.26 -8.17,0.36 -4.07,0.54 -5.81,-1 -8.39,1.53 -0.3,2.92 -0.72,4.4 2.31,4.84 2.57,0.37 4.41,-0.42 6.59,-0.76 4.21,-0.65 9.36,-0.64 13.76,-1 8.54,-0.69 18.17,-1.48 27.5,-1.52 7,-0.03 7.42,-1.77 7.49,-5.13 -4.3,-3.28 -10.32,-1 -10.53,-0.97 -1.29,0.14 -3.23,-0.04 -4.6,-0.03zm61.6 -25.98c-4.38,2.79 -0.85,1.09 -4.67,4.97 -2.59,2.62 -5.92,4.94 -9.28,2.92 -1.53,-1.18 -0.9,-2.16 -2.12,-4.05 -1.04,-1.63 -2.04,-1.96 -3.23,-3.37 -2.75,-3.27 -1.44,-5.84 -7.4,-6.19 -0.03,0.09 -0.1,0.13 -0.12,0.27l-0.29 0.6c-0.42,1.02 -0.36,0.44 -0.57,1.75 -0.15,0.88 -0.08,2.64 -0.07,3.6 0.04,2.55 0.2,5.07 0.23,7.64 0.06,4.88 3.69,10.42 -2.89,9.98 -2.93,-1.26 -1.27,-8.57 -2.23,-15.57 -0.62,-4.49 1.32,-11.61 -1.97,-13 -3.78,-0.28 -5.06,1.19 -4.05,4.97 1.4,5.3 -0.19,4.9 0.52,9.95 1.09,7.64 -0.06,14.05 2.52,18.38 2.34,0.28 6.89,0.78 9.05,0.03 0.78,-0.27 5.01,-2.85 5.68,-3.54 0.79,-5.14 -1.01,-6.57 -0.69,-10.48 4.3,-0.7 5.79,-0.46 5.77,3.85 -0.01,1.36 -0.1,3.31 0.04,4.62 0.38,3.68 2.35,2.05 5.47,3.03l0.66 2.45c-3.7,2.18 -4.9,0.67 -8.28,1.86 -3.82,1.34 -4.76,0.96 -9.07,1.29 -3.22,0.24 -3.95,1.76 -8.11,1.79 -5.78,0.03 -4.47,0.71 -7.33,3.31l-0.02 3.22c4.21,0.85 0.46,-1.03 7.83,-1.13 3.16,-0.05 5.96,-0.45 9.18,-0.51 5.43,-0.09 3.85,0.33 8.29,-1.44 4.51,-1.8 6.07,1.37 8.31,-0.37 1.24,-1.42 1.25,-3.36 1.53,-5.89l3.07 -2.55c0.34,-3.8 -0.44,-4.32 -0.45,-7.27 3.89,-3.23 4.12,-1.44 4.88,0.61 0.37,1.01 0.03,0.5 0.86,1.82 8.2,0.86 2.69,-2.6 2.65,-6.87 -0.01,-0.69 0.17,-1.57 0.46,-2.53 -1.34,-2.74 -2.73,-5.46 -4.16,-8.15zm-177.92 3.74c-0.89,-1.85 -1.72,-2.06 -2.46,-4.17 -0.97,-2.74 -1.1,-2.26 -2.34,-4.26 -1.8,-2.91 -1.92,-6.49 -5.2,-7.99 -3.72,2.57 -1.56,4.42 -0.13,6.01 -1.01,8.62 0.3,41.71 -0.18,54.05 -0.08,2.11 -0.65,2.96 -0.64,5.07 0.01,1.87 0.47,2.69 0.59,4.56 0.44,7.24 -0.67,13.2 1.21,20.03l8.47 24.15c2.22,4.44 5.19,15.68 5.35,16.01 4.97,9.97 3.96,11.72 5.62,15.89 1.51,3.82 2.15,2.35 2.39,8.32 1.52,1.21 1.87,0.94 2.68,2.85 0.56,1.34 0.67,2.38 1.13,3.85 1.16,3.65 2.07,3.68 2.35,8.75 2.22,2.21 1.75,1.16 2.66,4.88 0.57,2.33 1.47,3.09 3.83,1.98 0.57,-3.72 0.27,-9.58 0.18,-13.49 -0.06,-2.75 -0.71,-3.45 -0.81,-5.55 -0.1,-2.18 0.06,-4.37 -0.07,-6.67 -0.25,-4.37 0.1,-8.63 -0.19,-12.82 -1.49,-21.58 -1.68,-42.97 -1.8,-64.59 -0.02,-4.28 -0.28,-9.03 -0.1,-13.25 0.36,-8.38 -3.1,-8.79 -5.89,-13.85 -0.82,-1.48 -1.27,-2.6 -2.52,-4.09 -1.91,-2.28 -7.64,-12.73 -9.9,-16.64 -0.76,-1.32 -1.22,-2.88 -2.13,-4.51 -0.93,-1.66 -1.2,-2.66 -2.1,-4.52zm39.71 168.62c-2.3,0.06 -4.15,-1.71 -4.13,-3.78 0.02,-1.54 0.89,-1.91 1.26,-3.16 0.42,-1.42 0.3,-2.72 0.78,-3.75 3.23,-0.54 3.16,1.19 5.22,2.85 0.47,5.81 0.04,-0.27 -3.13,7.84zm15.03 -2.75l-4.44 0.35c-0.24,-1.64 0.22,-0.68 -0.98,-1.1 -0.03,-5.91 1.44,-8.89 7.5,-7.01 0.16,3.25 -0.88,5.93 -2.08,7.76zm-14.17 -29.05c0,1.93 2.32,7.52 3.37,8.1 0.09,0.06 6.82,2.06 7.31,-1.92 0.3,-2.49 -1.38,-11.5 2.42,-12.92 3.94,-1.49 4.26,4.79 2.84,8.62 -0.54,1.45 0.5,9.38 0.93,11.52 -4.08,0.05 -6.68,-0.97 -10.64,-0.28 -4.74,0.83 -7.57,0.69 -10.73,-0.52 -0.06,-4.09 1.35,-7.2 0.66,-11.49 -0.97,-5.98 -1.98,-1.27 0.64,-9.01l2.02 -0.57c4.09,2.54 3.81,5.28 1.18,8.47zm1.79 -17.18c1.72,0.91 4.2,0.65 6.51,0.43 0.05,-0.11 0.13,-0.26 0.16,-0.32l1.81 -3.01c0.62,-1.25 0.46,-3.12 0.45,-4.87 -0.02,-3.83 -0.55,-6.34 -0.48,-10 3.7,-2.11 7.56,0.35 7.19,4.37 -0.15,1.63 -1.58,3.03 -0.77,5.22 1.55,4.23 2.52,3.33 -0.88,7.03l0.54 5.27c-3.57,0.01 -7.33,0.12 -10.87,0.06 -3.13,-0.05 -5.76,-0.82 -9.31,-1.12 -0.19,-3.02 0.8,-2.96 0.85,-9.82 0.03,-3.75 -0.82,-6.74 -0.28,-9.91 3.77,-1.68 5.84,-1.79 5.87,1.71 0.04,4.6 0.87,5.21 0.71,7.15 -0.2,2.27 -3.6,5.98 -1.5,7.81zm-8.27 -24.58c-0.06,-2.14 0.22,-2.49 1.33,-3.56 3.24,-3.11 2.43,-1.42 2.27,-12.74 -0.04,-3.38 -0.83,-8.72 4.24,-6.76 3.27,1.27 -0.06,14.97 0.47,18.54 1.94,0.11 5.79,0.31 7.62,0.07 6.43,-0.86 -0.83,-13.27 3.65,-18.63 2.16,0.02 3.67,1.12 4.37,3.01 0.6,1.63 0.68,19.7 0.52,20.35 -2.74,0.7 -9.55,0.07 -13.06,0.45 -3.4,0.38 -8.18,1.02 -11.41,-0.73zm17.34 -49.63c1.06,-0.85 2.92,-1.56 4.99,-0.86 1.47,0.5 2.48,1.58 2.66,3.12 0.73,6.11 0.17,6.32 -1.04,8.38 -1.47,2.48 -0.19,3.45 2.51,5.28l-0.68 3.73c-6.06,0.46 -4.9,-1.76 -9.26,-1.77 -6.27,-0.01 -4.59,-1.85 -10.12,0.79 -2.23,1.06 -8.25,2.88 -8.49,-1.13 2.11,-1.98 2.88,-0.31 5.6,-3.06l0.16 -12.76c0.04,-0.17 0.08,-0.29 0.13,-0.45 0.05,-0.14 0.1,-0.26 0.16,-0.39 0.05,-0.1 -0.05,-1.04 1.86,-1.41 6.24,-1.2 2.04,9.45 2.31,12.97 1.07,2.37 4.66,2.24 6.77,1.89l3.08 -1.44c0.43,-3.97 -0.66,-2.94 -0.83,-6.03 -0.1,-1.87 0,-4.98 0.19,-6.86zm18.03 126.4c1.36,-2.54 1.88,-0.31 1.92,-5.46l-0.25 -23.95c0,-3 0.58,-4.43 0.54,-7.64 -0.03,-2.75 -0.45,-4.43 -0.49,-7.13 -0.06,-5.2 0.1,-10.56 0.1,-15.79 -0.01,-10.2 0.75,-3.57 -0.39,-15.69l-0.59 -31.19c0.18,-2.58 0.84,-4.2 0.43,-7.45 -0.66,-5.38 -1.77,-3.94 -2.23,-5.26 -1.16,-3.28 1.85,-14 -1.63,-14.67 -0.39,-0.07 -1.04,-0.06 -1.45,-0.07l-8.7 0.06c-19.18,0.11 -9.84,1.03 -15.24,1.69 -2.08,0.26 -3.23,-0.56 -5.13,-0.56 -13.12,0.01 -8.88,9.57 -9.51,24.24 -0.2,4.74 -0.37,17.8 0.32,22.01 0.75,4.49 1.1,47.02 0.91,55.42 -0.07,3.42 1.38,14.4 0.88,21.9 -0.9,13.49 0.46,10.89 5.38,10.91 1.72,0.01 3.98,0.49 5.57,0.27 1.73,-0.23 1.91,-1.22 4.06,-1.34 3.78,-0.22 6.52,0.57 9.32,-0.48 5.17,-1.95 11.56,0.83 16.18,0.18zm19.12 -45.52c2.81,10.29 -3.2,10.27 -4.64,8.78 -0.98,-1.01 -0.59,-5.3 -0.37,-6.95 0.47,-3.35 2.29,-2.51 5.01,-1.83zm10.76 0.13c0.92,-0.81 1.82,-1.77 2.5,-2.56 1.16,-0.01 3.86,-0.41 4.84,1.66 1.32,2.77 -1.89,13.18 -4.98,7.43 -2.45,-4.56 -2.56,-1.63 -2.36,-6.53zm17.67 -4.16l2.87 -0.17c1.74,2.16 3.86,1.47 3.07,6.5 -0.61,3.87 -7.21,6.29 -8.22,1 -0.26,-1.38 -0.15,-2.83 -0.13,-4.22 3.29,-2.86 1.14,-1.83 2.41,-3.11zm1.63 -10.68c1.39,-1.94 -0.47,-2.35 -1.14,-3.96 -0.65,-1.57 -0.2,-4.18 -0.21,-5.97 -0.01,-4.22 0.18,-7.68 5.01,-6.92 2.62,3.73 0.55,7.16 0.46,7.52 -0.21,0.89 -0.15,2.05 -0.14,2.97 0.08,12.86 1.63,4.01 1.46,11.3l-38.86 0.66c-2.17,-0.43 -1.72,-0.99 -1.8,-1.79 -0.08,-0.86 -0.11,-0.6 0.12,-1.43 0.2,-0.7 0.9,-1.41 1.28,-2.01 0.83,-1.27 0.85,-2.78 0.86,-4.69 0.01,-2.25 0.05,-3.72 -0.82,-5.14 -2.26,-3.66 -0.71,-5.75 2.94,-5.76 1.24,-0.01 1.38,-0.02 2.36,0.39 3.48,1.45 1.38,6.16 0.52,8.25 -3.58,8.75 2.48,12.1 10.84,6.35 0.67,-5.1 -4.4,-19.07 6.29,-14.79 0.44,5.46 0.05,11.17 1.47,16.71 1.86,0.16 3.73,0.26 5.6,0.09 4.16,-0.37 3.76,-1.78 3.76,-1.78zm-2.79 -44.05c1.28,-1.14 2.2,-1.35 4.54,-1.19 3.94,1.71 1.88,12.46 2.28,15.96 1.86,1.39 3.35,1.59 3.25,4.59 -2.64,1.54 -9.67,2.24 -13.17,2.29 -2.62,0.04 -4.99,0.11 -7.64,0.04 -2.99,-0.08 -4.45,0.46 -7.13,0.45l-16.95 -0.09c-0.39,-4.13 9.24,-5.55 2.99,-10.13l0.13 -7.92c4.52,-2.7 3.17,-2.81 6.89,-2.65 0.43,4.35 -1.22,4.39 -0.99,7.81 0.11,1.7 0.47,1.72 0.57,3.54 0.08,1.31 0,2.74 0.06,4.11 4.23,4.09 6.84,1.56 10.08,-1.02 0.25,-2.02 0.18,-4.09 0.21,-6.14 0,-0.27 0.03,-1.25 0,-1.48 -0.15,-1.16 0.08,-0.33 -0.33,-1.12 -0.32,-0.62 -0.99,-1.09 -1.48,-1.44l0.07 -3.06c1.23,-0.87 2.49,-1.29 4.37,-1.18 1.97,0.12 1.01,-0.02 2.23,0.63 1.74,0.93 0.1,-0.03 1.43,1.01l0.04 7.69c0.02,3.61 -0.59,5.62 0.73,6.8 1.44,1.37 7.28,-0.35 8.61,-1.2 0.37,-2.51 -1.77,-11.1 -0.79,-16.3zm-5.37 -8.38c2.75,-1.65 4.09,-0.78 4.08,-7.4 -0.02,-10.6 -1.36,-10.73 5.6,-10.31 0.12,1.23 0.54,2.99 0.6,4.72 0.15,4.77 -0.21,3.51 -0.61,4.26 -1.72,3.18 0.15,5.36 0.28,6.05 0.79,4.18 -2.8,1.17 -6.39,3.72 -1.68,1.2 -3.86,0.75 -5.96,0.93l2.4 -1.97zm-10.65 -17.44l4.26 -0.18c-0.04,3.43 1.9,3.4 0.46,8.99 -1.29,4.99 1.75,3.69 1.78,8.58 -5.27,2.42 -6.69,2.72 -14.46,2.71 -11.5,0 -8.93,1.68 -8.94,-11.6 0,-2.79 -1.19,-5.47 0.14,-7.24 1.68,-2.24 3.5,-1.25 5,0.37 2.44,2.64 0.31,11.53 0.97,15.02 2.13,1.11 5.54,0.79 8.08,0.53l3.64 -3.58c0.02,-2.95 -1.18,-2.62 -1.41,-6.09 -0.2,-2.92 -0.46,-5 0.48,-7.51zm-24.93 127.69c6.64,5.83 7.18,0.24 13.38,0.16l4.63 0.02c0.64,-0.09 1.76,-0.32 2.01,-1.32 0.13,-0.53 0.24,-0.8 0.24,-1.41 -0.03,-4.85 -2.76,2.81 -2.16,-18.34 3.83,-3.43 0.72,-3.3 9.15,-2.31 4.27,0.5 6.13,-2.59 10.89,-1.05 0.84,2.48 0.41,13.39 0.38,17.64 -0.02,2.97 -0.66,2.96 -0.85,5.08 1.63,1.36 1.21,1.32 4.23,1.31 2.21,-0.01 4.45,0 6.65,-0.04 14.86,-0.24 11.29,1.14 11.24,-9.41 -0.01,-2.87 0.39,-5.32 0.43,-8.16 0.17,-10.34 0.25,-15.58 -0.66,-25.45 -0.25,-2.62 0.19,-5.9 0.19,-8.67 -0.01,-7.12 -1.19,-16.77 -1.09,-25.49 0.03,-2.72 1.29,-5.54 0.83,-7.38 -1.98,-7.87 -2.12,-46.88 -1.56,-51.28 -4.1,-3.25 -6.54,-1.19 -13.44,-0.71 -2.42,0.16 -3.41,-0.55 -5.63,0.19 -2.35,0.78 -2.68,0.8 -5.59,0.76l-22.95 1.88c-5.37,0.7 -5.73,-0.7 -9.89,2.34 -2.56,1.87 -1.61,5.35 -1.69,10.93 -0.06,4.33 0.94,6.27 0.68,11.24 -0.85,16.09 0.46,33.47 0.68,49.38 0.03,2.04 -0.32,3.65 -0.27,5.59 0.06,2.12 0.55,3.8 0.53,6.11l-0.28 23.94c0.74,8.38 0.05,16.54 -0.08,24.45zm16.8 -267.4c-1.5,2.25 -2.41,3.67 -2.49,3.91 -0.87,2.74 -0.19,3.45 -1.87,5.35 -1.44,1.62 -2.18,1.52 -3.26,3.34l-5.89 7.83c-2.07,2.22 -0.87,2.71 -2.56,4.61 -2.24,2.52 -7.43,8.78 -8.78,11.49 -1.91,3.81 -3.22,5.17 -5.22,8.57 -1.86,3.18 -3.93,6.14 -8.06,5.94 -0.17,-5.68 3.34,-5.08 5.22,-8.15 1.7,-2.78 -1.02,-1.4 4.66,-8.64 2.99,-3.82 11.62,-18.14 13.28,-19.85 6.6,-6.83 2.64,-3.71 5.34,-7.96 0.42,-0.66 2.64,-3.99 5.87,-8.84 -13.65,-8.59 -28.16,-15.92 -43.38,-21.84 -6.93,10.85 -12.94,20.2 -13.58,21.34 -1.25,2.25 -1.61,2.72 -3.17,4.54l-6.14 8.72c-1.13,3.42 -3.09,3.57 -4.75,6.46l-4.23 7.35c-1.2,1.89 -6.13,7.57 -8.59,11.72 -3.33,5.61 -8.26,11.06 -11.44,16.69 -0.48,0.85 -0.81,1.81 -1.32,2.75 -1.05,1.93 -2.6,2.09 -2.58,5.28 2.26,3.61 3.18,0.18 5.89,5.52 2.59,5.1 10.14,16.06 11.75,19.83 0.51,1.17 0.28,1.36 0.71,2.39 0.52,1.26 1.57,1.88 2.34,3.24l4.01 7.19c0.84,1.72 0.83,3.36 1.44,4.79 0.71,1.66 1.88,1.32 2.86,2.62 0.85,1.13 0.78,2.77 1.54,4.04 1.77,2.92 4.73,3.5 2.01,7.12l-1.96 0.03c-4.15,-4.1 -12.35,-22.13 -13.27,-23.42 -3.09,-4.37 -7.31,-12.63 -8.58,-15.39 -0.89,-1.93 -1.93,-5.82 -4.17,-6.6 -2.83,-0.99 -2.45,1.63 -1.43,3.55 0.46,0.88 1.22,1.91 1.97,3.13 1.47,2.38 1.52,4.88 2.88,6.77 1.41,1.97 2.82,3.43 3.9,5.79l3.28 6.94c0.66,1.01 1.33,1.72 1.89,2.67 0.77,1.33 0.83,2.15 1.51,3.59 0.8,1.7 2.61,4.57 3.7,6.49 1.33,2.34 1.65,4.59 3.11,6.55 2.74,3.68 2.17,4.09 3.91,6.24l4.04 0.02c0.03,-2.24 3.98,-1.88 6.42,-6.76 3.36,-6.73 5.55,-3.26 9.01,-12.16 0.88,-2.28 1.59,-2.83 2.63,-4.77 3.58,-6.7 8.86,-8.28 4.85,-14.95 -1.17,-1.95 -1.43,-3.5 -2.41,-5.24 -0.97,-1.73 -2.06,-2.7 -3.32,-4.3 -1.43,-1.82 -1.89,-3.26 -3.04,-5.14 -1.06,-1.73 -1.73,-3.91 -2.57,-5.01 -3.52,-4.61 -1.92,-3.66 -4.82,-6.41 -2.12,-2.01 -4.48,-4.52 -3.05,-7.87l2.4 -0.34c4.63,2.91 3.24,5.48 6.12,8.33 2.1,2.07 1.34,1.99 2.33,4.73 0.75,2.12 1.85,2.27 3.06,4.12l3.03 4.11c2.13,2.68 2.52,6.21 5.66,8.61 1.89,1.44 1.77,1.83 3.39,3.65 4.25,0.18 6.53,-0.68 11.06,-0.63 4.23,0.05 8.47,-0.03 12.73,0.02 4.35,0.06 6.53,-1.04 10.73,-1.47 7.19,-0.76 17.67,-0.22 23.84,-1.23 5.11,-0.84 7.62,-0.21 12.29,-0.58 1.99,-0.16 2.67,-0.89 5.07,-0.98 2.11,-0.08 4.04,0.24 6.2,0 1.92,-0.22 3.1,-0.77 5.57,-0.63 8.42,0.49 5.53,1.43 12.06,-7.63l6.22 -8.55 0.22 -0.3c-18.13,-24.49 -40.52,-45.63 -66.07,-62.33z"/>
  <path id="gramado" class="fil1" d="M215.27 3.24l46.04 136.27 86.6 -122.5c-28.53,-10.98 -59.51,-17.01 -91.91,-17.01 -13.86,0 -27.46,1.11 -40.73,3.24zm-80.04 27l48.98 132.94 -142.52 -47.22c23.45,-35.82 55.64,-65.41 93.54,-85.72z"/>
  <path id="arestas-2" class="fil2" d="M140.29 427.61c0.47,-1.56 0.37,-0.88 1.26,-1.82 3.07,-0.31 3.77,-0.13 4.69,2.42 -2.21,-0.13 -4.14,0.48 -5.95,-0.6zm12.44 -1.58l-3.63 0.23c-0.08,-2.37 -0.44,-2.93 1.66,-3.31 1.57,-0.28 3.69,0.16 4.59,0.54l-2.62 2.54zm60.14 -29.42l2.43 -0.07c2.39,0.6 0.73,16.48 0.33,16.81 -3.65,2.91 -6.19,-9.77 -2.76,-16.74zm-14.38 1.93c6.49,0.05 8.9,-0.95 8.69,4.1 -0.06,1.63 -0.36,2.84 -0.3,4.61 0.12,3.54 1.59,5.65 1.14,8.65 -1.53,1.19 -2.92,2.49 -5.4,2.9 -7.06,1.16 -4.47,-3.98 -4.53,-12.58 -0.03,-4.3 -1.57,-3.19 0.4,-7.68zm-8.95 -21.14c2.7,-0.19 2.96,0.51 4.42,1.67 0.26,2.73 1.27,16.54 0.38,18.32l-2.88 0.24 -2.86 -9.21c-0.13,-3.61 -0.22,-8.13 0.94,-11.02zm25.34 -4.52c1.11,2.19 2.01,15.26 1.36,18.42l-2.99 0.29c-1.28,-2.87 -1.21,-8.08 -2.21,-11 -1.13,-3.36 -0.23,-3.4 2,-6.27 1.03,-1.32 0.17,-1.02 1.84,-1.44zm-159.63 -40.68c4.09,-0.14 2.81,0.11 5.91,-1.21 1.38,-0.59 4.59,-0.02 7.03,-0.6 1.62,-0.39 3,-2.28 4.79,-2.73 1.86,-0.47 5.53,-0.1 7.96,-0.45 1.09,-3.47 5.65,-2.76 8.66,-2.83 0.62,-2.36 4.55,-4.36 4.72,1.36l0.1 26.5c0,4.27 -1.23,6.07 1.01,9.43 2.18,3.27 0.53,11.61 0.43,14.51 -0.07,2.1 0.65,3.3 0.45,5.07 -0.22,1.94 -1.02,1.53 -1.12,4.13l0.63 15.62c1.94,8.51 -1.26,13.24 -0.37,19.39 3.5,24.42 -8.39,19.58 -14.4,20.94 -0.47,0.1 -0.88,0.23 -1.26,0.37 3.19,3.02 6.45,5.95 9.78,8.81 2.74,-0.63 5.39,-0.97 6.04,-1.63 1.39,-1.76 0.39,-2.05 1.1,-4.36 0.52,-1.68 1.52,-1.92 1.81,-3.73 0.4,-2.59 0.75,-25.5 0.02,-27.71 -0.98,-3.02 -1.6,-0.51 -1.51,-5.1 0.85,-0.53 0.8,-0.67 1.52,-0.74 0.76,-7.31 1.51,-47.36 0.88,-56.52 -0.2,-2.95 -0.51,-17.42 0.09,-19.37l3.32 -0.27c0.78,1.88 0.69,2.97 2.5,5.94 1.34,2.21 1.89,2.81 4.2,3.83l0.18 32.78c-0.38,12.89 -0.41,43.37 0.75,57.05 0.21,2.41 -0.65,5.14 -0.62,8.13 0.03,2.71 0.68,5.32 0.6,7.63 -0.09,2.62 -0.5,5.12 -0.52,8.15 -0.02,2.87 0.26,5.33 0.32,8.14 0.04,1.46 -0.07,2.58 -0.22,3.58 1.07,0.75 2.14,1.49 3.22,2.22 0.75,-0.95 1.43,-2.03 2.22,-2.84 1.69,-1.73 5.68,-1.82 8.42,-2.79 6.23,-2.21 14.31,-3.97 21.99,-6.62 1.47,-0.51 3.01,-0.65 4.56,-0.93 3.73,-0.68 5.57,-2.24 8.54,-2.64 3.26,-0.43 6.46,-0.89 9.17,-2.22 1.92,-0.93 21.17,-5.45 26.48,-7.48 4.8,-1.84 10.2,-5.68 14.88,-8.05l10.54 -6.26c1.26,-0.79 2.69,-1.23 4.1,-2.03 5.98,-3.39 1.27,5.16 11.46,-1.24 1.68,-1.06 1.77,-1.44 2.71,-3.33 7.4,0.05 6.78,-1.52 11.9,-3.89 2.05,-0.95 4.08,-1.37 6.01,-2.22 1.89,-0.83 12.74,-7.74 15.33,-8.58 13.12,-4.23 10.72,-4.13 12.92,-10.12 0.84,-2.26 1.94,-2.69 1.86,-5.28 -0.15,-5.27 -5.59,-15.28 -6.76,-20.93 -1.12,-5.35 -4.95,-14.96 -6.62,-20.9l-3.78 -9.99c-1.14,-1.83 -1.52,-1.73 -1.76,-4.65 -0.4,-4.79 -1.78,-4.31 -2.57,-11.25 -0.37,-3.31 -0.34,-3.19 -1.97,-5.25 -3.54,-0.24 -5.69,0.41 -8.25,0.36 -2.6,-0.04 -4.96,-1.28 -7.68,0.18 -2.81,1.52 -1.62,2.47 -6.08,2.4 -7.71,-0.11 -10.72,2.65 -10.2,-7.44 0.08,-1.74 0.58,-2.45 0.61,-4.05 0.04,-2.95 -1.87,-16.3 -0.2,-23.54l2.43 -16.44c-0.59,-1.95 -2.33,-4.19 -3.1,-6.61 -0.93,-2.9 -2.19,-4.07 -2.99,-6.68 -1.78,-5.79 -3.61,-8.7 -5.31,-13.54 -0.79,-2.28 -0.92,-5.04 -1.95,-7.72 -1.07,-2.8 -1.71,-4.03 -3.18,-6.53 -1.6,-2.71 -1.17,-4.49 -2.17,-7.45 -0.79,-2.31 -2.1,-4.53 -3,-6.75 -1.09,-2.67 -1.44,-4.21 -2.35,-7.28 -2.7,-9.15 -5.38,-4.57 -11.32,-2.69 -5.66,1.8 -9.53,4.62 -15.32,6.06 -4.1,1.03 -4.84,1.15 -7.51,3.54 -2.8,1.28 -12.89,-2.77 -16,-4.03 -1.65,-0.66 -2.75,-1.69 -5.06,-1.92 -5.94,-0.59 -5.03,-1.79 -9.94,-3.4 -2.23,-0.72 -0.32,0.14 -2.08,-1.08 -0.8,-0.55 -1.16,-0.9 -2.19,-1.33 -4.6,-1.9 -6.82,-1.28 -10.64,-2.98 -2.09,-0.93 -3.23,-0.57 -5.09,-1.68 -4.86,-2.9 -5.69,0.21 -10.41,-3.36 -2.18,-1.66 -7.31,-1.88 -10.46,-2.71 -3.86,-1.01 -2.06,-0.88 -4.3,-2.31 -1.79,-1.15 -3.4,0.12 -5.99,-1.17 -1.82,-0.91 -2.46,-2 -4.21,-2.35 -3.5,-0.72 -2.15,0.37 -5.37,-1.4 -1.78,-0.98 -2.83,-0.55 -4.64,-1.98 -3.45,-2.7 -5.55,-0.98 -9.94,-3.79 -0.09,-0.06 -12.75,-3.83 -14.95,-5.42 -4.28,-3.09 -6.24,0.64 -10.12,-3.13 -3.01,-2.94 -6.98,-1.11 -10.62,-3.08 -4.7,-2.54 -6,-0.73 -10.1,-3.67 -1.94,-1.39 -3.27,-0.6 -5.66,-0.97l-0.14 -0.02c-0.65,1.66 -1.29,3.32 -1.9,5l0.39 0.1 6.49 1.78c1.3,-0.06 3.58,-2.96 7.3,0.34 6.99,6.19 9.81,4.16 13.49,5.79 1.19,0.53 2.24,1.44 3.38,1.7 1.55,0.36 2.81,0.19 4.36,0.69 3.47,1.13 1.68,2.33 7.64,2.28 5.73,-0.04 3.48,1.8 6.54,2.96 3.18,1.2 3.69,-0.93 7.99,1.72l21.93 7.51c7.1,1.58 3.85,1.78 7,2.75l7.56 2.7c3.07,1.03 5.17,0.29 7.67,1.97 3.15,2.12 7.92,1.9 14.41,4.9 6.6,3.04 2.01,0.53 7.54,0.76 1.93,2.14 2.96,4.23 6.99,5.12 3.38,0.75 4.77,2.38 9.12,3.07 5.86,0.93 4.79,0.47 9.22,3 2.78,1.58 5.77,2.87 7.78,4.67 0.23,4.81 0.37,4.64 1.8,8.57l4.35 10.97c0.99,1.89 0.35,0.4 0.78,1.82 0.21,0.72 0.24,1.16 0.42,2.13 0.84,4.48 2.99,2.45 2.92,8.43 -7.34,6.2 -5.58,2.9 -13.49,4.73 -2.13,0.49 -2.73,1.33 -4.91,1.77 -6.67,1.36 -4.03,-0.71 -9.77,3.01 -2.15,1.4 -8.66,0.1 -11.79,0.63 -2.3,0.39 -2.49,1.38 -5.12,1.46 -3.36,0.1 -13.62,1.56 -15.56,3.05 -0.94,0.73 0.02,1.6 -4.82,1.5 -12.9,-0.27 -7.19,1.4 -16.83,2.27 -3.14,0.28 -14.41,3.65 -20.84,4.33l-21.49 3.73c-6.69,1.23 1.73,1.1 -11.56,1.45 -4.33,0.12 -6.54,-1.87 -10.17,-2.77 -6.65,-1.65 -0.64,-1.55 -9.69,-3.06 -9.84,-1.65 -4.43,-2.96 -9.94,-2.29 0.1,2.86 -0.25,1.92 1.26,3.33 3.3,3.09 1.9,2.3 -0.36,9.76 -0.99,3.25 -2.45,3.38 -2.93,7.45 -0.84,7.1 -1.35,4.5 -2.58,7.44 -0.68,1.62 -0.36,3.03 -0.54,4.75 -0.07,0.69 -0.17,1.24 -0.48,1.86 -0.89,1.83 -3.18,2.24 -5.29,1.54 1.02,4.77 2.17,9.49 3.45,14.16 1.29,1.18 2.42,2.67 4.1,3.29 2.52,-1.8 2.22,-4.13 6.58,-3.38 1.75,1.09 0.73,12.33 0.56,13.07 -1.33,5.52 1.36,6.72 -1.16,12.65 -0.3,0.72 -0.44,1.69 -0.47,2.71 1.23,3.03 2.5,6.04 3.84,9 0.16,-8.17 0.52,-16.5 0.53,-21.74 0.01,-2.72 -0.16,-4.63 0.46,-6.97 0.77,-2.93 0.08,-4.21 0.32,-7.1 1.57,-2.07 3.33,-3.89 6.05,-2.65 2.32,1.07 4.64,1.95 6.64,3.01 3.98,2.13 4.4,0.94 7.57,2.15 1.11,0.43 5.31,3.15 6.08,3.93 0.04,2.62 -1.02,3.48 -1.1,6.61 -0.06,2.68 0.27,5.48 0.33,8.16 0.06,2.69 -0.58,4.51 -0.54,7.11 0.19,13.05 -0.71,26.22 -0.61,39.22 0.02,2.05 -0.03,6.69 -0.08,12.57 1.11,1.55 2.25,3.08 3.4,4.61 -0.12,-3.33 -0.61,-5.76 -0.54,-9.03 0.07,-3.28 -0.17,-7.5 0.13,-10.61 0.43,-4.56 -0.64,-6.16 2.44,-8.21 -0.11,-1.7 -0.94,-11.87 -0.9,-12.01 2.04,-7.87 -0.5,-33.97 2.5,-38.1zm6.2 90.18l0.15 -0.22c7.28,-0.16 7.53,1.21 7.21,-3.81 -4.63,-0.32 -4.52,2.43 -7.93,1.87 -0.53,-0.08 -1.01,-0.16 -1.44,-0.22 0.67,0.8 1.33,1.59 2.01,2.38zm149.31 -72.31c1.32,-1.09 1.96,-1.86 3.1,-2.95l2.55 0.07 0.19 16.77c0.04,2.4 -0.61,3.67 -0.7,5.06 -6.64,1.13 -4.86,-2.67 -5.29,-7.48 -0.34,-3.84 -0.04,-7.54 0.15,-11.47zm-16.14 6.54c0.26,3.84 -0.96,5.08 -0.61,9.39 0.34,4.2 0.03,5.9 -4.59,5.01 -0.81,-1.46 -1.44,-3.09 -0.94,-5.39 1.15,-5.26 -2.14,-9.73 1.63,-10.74 2.5,-0.68 3.34,0.75 4.51,1.73zm2.61 -3.35c2.4,-1.69 3.98,-1.94 7.46,-1.56 1.57,4.47 1.82,0.36 1.35,10.29 -0.51,10.71 -2.62,6.85 -3.2,9.6 0.48,5.71 3.42,1.37 3.45,9.72 0.01,4.45 0.08,9.04 0.2,13.47 -1.76,-0.04 -6.51,0.31 -7.65,-0.5 -1.9,-2.02 -1.23,-13.68 -1.04,-17.08 1.26,-1.16 0.82,-1.43 2.2,-1.53 -0.01,-4.04 -0.91,-2.04 -1.79,-4.64 -0.53,-1.53 -0.25,-4.31 -0.31,-6.06 -0.13,-3.41 -0.91,-9.76 -0.67,-11.71zm-8.39 -24.96l2.61 -0.12c1.64,2.2 1.39,6.47 1.51,10.8 0.12,4.25 1.88,7.07 -0.18,10.48 -6.23,0.59 -4.76,-2.76 -4.77,-8.42 0,-3.87 -0.8,-9.86 0.83,-12.74zm8.5 19.16l-0.17 -18.64c3.25,-2.06 7.78,-9.16 8.06,5.63 0.01,0.7 1.81,8.84 0.93,10.77 -2.44,2.5 -4.57,5.12 -8.82,2.24zm13.47 -22.26c2.37,-0.31 2.57,-0.35 4.86,0.3l-0.02 17.12c-1.93,1.06 -2.67,1.78 -5.12,0.7 -1.02,-4.3 0.34,-9.57 -0.64,-12.95 -0.87,-3.03 -0.51,-3.47 0.92,-5.17zm-28.01 5.32c-2.71,0.36 -5.36,0.51 -7.32,1.73 -3.47,2.15 -2.65,1.16 -7.36,1.95 -2.96,0.5 -4.37,1.54 -6.84,2.23 -2.92,0.81 -4.55,0.39 -6.73,2.07 0.41,1.07 2.15,1.87 3.41,2.14 1.66,0.35 6.39,-0.94 8.08,-2.05 0.09,-0.06 0.19,-0.16 0.28,-0.22 2.08,-1.41 3.21,-1.01 5.91,-0.63l-0.29 2.63c-0.03,0.12 -0.08,0.25 -0.11,0.36 -0.94,3.1 -0.52,6.49 -1.74,9.52l-1 1.63c4.99,-1.31 5.47,0.35 8.81,-3.2 0.2,-4.61 -1.86,-5.68 -1.42,-10.69 0.38,-4.36 7.66,-5.99 8.14,-1.49l0.01 8.11c-0.29,3.72 1.3,9.16 0.62,15.19 -0.16,1.49 -0.77,3.03 -0.89,4.66 -0.47,6.45 0.76,24.81 0.74,32.08l-0.18 16.33c0.04,1.14 0.06,2.26 0.93,3.12 0.58,0.58 -0.39,-0.04 1.02,0.62 4.43,-2.74 -0.52,-9.46 5.6,-14.67 4.41,1.33 1.73,8.76 2.38,16.6 0.16,1.91 0.22,5.8 -2.84,3.56 -2.09,-1.54 -0.31,-2.94 -5.43,-2.9 -1.43,3.16 -0.84,8.69 -0.86,12.99 -0.01,3.3 1.51,10.44 -2.19,11.78 -1.93,0.7 -4.59,0.11 -6.51,0.87 -1.93,0.75 -5.33,2.56 -7.97,2.84 -1.14,0.12 -2.24,-0.15 -3.22,0.24 -1.41,0.56 -2.18,2.87 -4.96,1.1l-0.39 -0.67c-0.69,-2.73 -0.13,-6.23 -0.14,-9.03 0,-4.63 0.03,-6.1 1.6,-9.13 1.45,0.2 1.04,0.15 2.15,0.8l0.34 12.32c2.45,1.14 3.88,-0.04 4.94,-1.45 0.47,-2.74 0.06,-4.88 0.09,-7.63 0.05,-4.02 0.38,-3.52 -1.11,-6.39 -2.66,-5.13 0.48,-9.53 -0.02,-13.83l-2.31 -0.73c-1.46,0.88 -2.56,2.02 -3.2,3.92 -0.83,2.45 0.41,4.74 -0.95,6.76 -1.07,1.59 -3.98,1.74 -5.38,0.38 -3.33,-3.25 1.99,-9.15 -11.47,-2.41 -3.7,1.85 -7.88,-0.39 -6.74,-4.21 0.89,-1.46 16.14,-4.85 18.4,-3.86 0.55,-0.92 0.74,-1.28 1.13,-2.04 -1.35,-2.89 -4.57,-1.39 -7.11,-1.85 -1.1,-0.19 -1.04,-0.34 -1.27,-0.45l-1.46 -4.87c-2.48,-0.3 -2.7,-0.45 -4.69,0.16 -0.28,4.94 0.01,5.05 -4.28,8.04 -2.34,1.64 -3.19,1.96 -6.82,1.71 -0.97,-1.24 -2.61,-3.87 -4.45,-4.25 -4.1,-0.85 -3.31,1.87 -3.71,4.9 -1.71,1.47 -3.23,1.84 -4.67,3.23l0.09 2.23c2.93,0.72 3.81,-0.71 6.22,-1.46 3.09,-0.96 4.1,-2.04 7.1,-2.14 1.07,3.13 1.11,4.32 1.11,8 0,4.83 2.1,2.45 1.05,7.23 -0.65,2.94 -0.07,6.07 -0.23,9.08 -0.1,1.87 -2.99,7.79 0.76,8.27 2.18,0.28 3.52,-0.23 3.68,-2.65 0.22,-3.2 -1.5,-13.2 0.47,-14.77 2.24,-1.79 4.77,-0.42 5.95,0.98 -0.26,3.18 -1.09,1.1 -1.85,3.7 -0.75,2.54 0.58,2.73 1.03,4.49 0.92,3.65 -2.54,4.59 2.42,7.68 3.17,1.02 3.9,-2.61 6.57,-2.32 2.33,0.26 1.88,1.4 1.64,3.76 -4.38,0.92 -2.55,3.15 -9.74,3.1 -6.48,-0.05 -3.75,0.09 -8.17,2.05 -1.03,0.46 -1.49,0.53 -2.58,0.87 -3.04,0.97 -1.83,0.86 -5.55,1.16 -3.45,0.28 -1.26,1.34 -5.06,1.73 -5.24,0.54 -6.67,2.23 -10.45,-0.76 -0.23,-2.32 0.8,-3.8 0.83,-6.09l0.31 -22.41c0.15,-2.97 -0.6,-4.45 -0.65,-7.14l0.19 -37.69c-0.03,-3.27 -0.47,-12.77 -0.05,-15.28 1.79,-10.8 -6.37,-9.76 0.86,-17.07 0.59,-0.59 1.43,-1.12 2.43,-1.37 5.2,-1.25 4.35,3.14 3.95,6.76 -0.3,2.65 -1.43,2.6 -0.31,5.39 3.55,1.01 6.15,0.15 7.36,-2.45 1.32,-2.85 -0.58,-4.49 -1.39,-7.49 -1.1,-4.06 0.27,-4.64 3.21,-6.02 4.24,-1.98 9.84,-2.36 9.08,0.52 -0.65,2.47 -2.89,4.37 -0.65,10.02 2.83,1.17 11.82,-1.08 14.78,-2.71 2.11,-1.17 5.74,-0.64 7.74,-2.23 0.92,-0.74 1.2,-1.22 2.18,-1.93l-0.36 -7.28c-1.79,-0.98 -1.41,-1.33 -4.67,-1.33l-2.52 4.57c-0.99,2.29 -0.49,3.79 -1.78,5.95 -1.71,0.23 -2.92,-0.06 -4.37,0.29 -1.24,0.3 -1.99,0.95 -3.81,1.06 -0.7,-5.87 1.04,-3.51 -1.71,-8.36 -0.06,-0.1 -0.16,-0.22 -0.21,-0.34 -0.05,-0.12 -0.13,-0.26 -0.16,-0.4 -0.87,-3.84 4.81,-1.27 7.35,-3.36l0.19 -2.49c-4.32,-0.58 -6.1,0.33 -9.46,1.43 -3.54,1.16 -5.38,1.5 -9.31,2.38 -3.26,0.72 -5.17,2.22 -8.84,2.9 -5.06,0.93 -5.24,3.78 -8.75,1.52 0.08,-3.04 5.86,-6.67 8.78,-7.69 2.98,-1.04 6.88,-0.77 9.96,-1.74 1.51,-0.47 2.52,-1.24 3.86,-1.71 3.27,-1.15 5.69,-1.44 9.06,-2.72 2.82,-1.07 6.33,-0.68 9.35,-1.81 1.38,-0.52 2.48,-1.33 3.94,-1.71 1.41,-0.36 3.67,-0.58 5.22,-0.86 3.94,-0.71 4.7,-2.23 8.86,-2.83 5.84,-0.84 6.57,-4.66 10.58,-1.26l-2.08 4.83zm4.97 -26.75c4.72,-0.25 4.27,1.62 4.22,8.25 -0.02,3.92 0.18,8.34 -0.14,12.18l-3.64 0.12c-0.97,-2.89 -0.67,-16.8 -0.44,-20.55zm-90.94 15.38c2.93,-2.19 5.05,1.02 6.2,2.81 2.31,3.56 3.76,3.85 3.94,7.41l-3.2 0.09c-2.54,-5.41 -1.15,-2.23 -5.77,-6.97 -1.17,-1.21 -1.56,-1.29 -1.17,-3.34zm19.2 18.2c-1.56,-1.79 -1.51,-2.02 -1.35,-5 3.14,-3.4 3.34,-0.43 7.24,-3.33 2.44,-1.81 6.1,-1.1 9.27,-1.89 3.12,-0.78 4.5,-2.16 7.85,-2.87 5.06,-1.07 22.54,-5.92 25.36,-7.77 2.8,-1.84 6.88,-0.1 10.05,-1.14 3.24,-1.06 2.23,-4 8.08,-2.58 1.29,5.13 -0.48,5.33 -3.22,7.56 -3.26,2.66 -11.84,1.27 -17.97,4.9 -3.11,1.84 -1.51,0.05 -9.16,2.52 -3.06,1 -10.51,2.59 -12.98,3.81 -1.74,0.86 -2.29,1.51 -4.01,2.2 -3.86,1.55 -4.08,-0.18 -8.69,2.54 -1.47,0.87 -2.09,0.85 -4.26,0.93 -2.12,0.09 -4.05,0.25 -6.21,0.12zm-62.26 -12.6c-0.18,-3.71 1.9,-3.56 6.98,-5.94 3.45,-1.63 5.71,0.69 11.09,-2.69 2.29,-1.44 2.44,-0.76 5.57,-0.91 3.24,-0.16 2.7,-0.85 4.45,-2.25 2.31,-1.85 8.98,-1.25 11.81,0.06 0.5,4.79 -2.08,5.72 -6.98,6.24 -6.08,0.65 -4.93,2.68 -10.83,2.86 -6.18,0.19 -15.75,5.97 -22.09,2.63zm-5.4 -5.6l-0.02 3.42c-3.95,2.46 -13.95,-3.94 -16.56,-5.19 -2.12,-1.02 -3.77,-1.53 -5.4,-2.62 -0.27,-3.79 0.51,-4.16 4.09,-3.28 5.45,1.36 2.53,0.33 5.97,2.76l11.92 4.91zm146.81 -18.19c1.95,-1.04 3,-1.04 5.95,-0.84 -0.06,0.83 0,0.36 0.65,1.43 3.97,6.65 0.31,9.48 2.53,18.96l-1.39 0.94c-0.67,0.41 -0.41,0.41 -1.33,0.6 -4.6,0.92 -6.71,-0.81 -6.02,-5.9 0.76,-5.54 -1.16,-8.87 -0.39,-15.19zm11.74 0.36c1.09,-0.92 1.39,-1.1 2.3,-2.1 1.14,-1.25 1.35,-1.63 2.61,-2.18l2.48 1.59c0.18,3.73 -0.61,9.29 0.5,12.48 0.62,1.78 0.99,3.33 0.8,5.53 -0.28,3.38 -1.76,2.31 -2.26,3.88l-2.54 0.15c-3.53,-2.78 -1.68,-4.69 -2.73,-8.85 -0.66,-2.6 -1.21,-7.9 -1.16,-10.5zm-166.71 -4.4c1.81,0.52 4.97,3.24 4.97,6.92 0,2.42 -0.12,3.3 0.62,5.57l1.17 3.33c0.18,3.09 -4.21,0.84 -6.04,0.15 -4.26,-1.61 -3.09,-2.14 -5.45,-2.78 -2.57,-0.71 -4.19,-0.64 -4.94,-3.3 -1.16,-4.12 1.24,-4.1 4.69,-3.55l1.82 4.28c1.49,-0.28 2.14,-0.4 2.44,-1.81 0.39,-1.8 -0.63,-1.97 -1.28,-2.94 -1.35,-2.02 -0.31,-5.13 2,-5.87zm179.6 -1.78l3.2 -0.41c1.39,1.39 2.64,1.69 2.79,4.53 0.32,6.24 -0.42,16.3 0.8,21.93 2.03,9.43 -0.01,19.38 1.56,26.54 0.03,0.15 0.1,0.51 0.12,0.67 0.38,3.72 -0.03,10.41 0.03,14.54 0.2,13.07 0.61,34.57 0.06,46.33 -0.5,0.12 0.47,-1.01 -0.95,0.79 -0.38,0.49 -1.46,2.47 -2.94,2.86 -1.16,0.3 -1.76,-0.01 -2.39,-0.73 -0.83,-0.95 -1.16,-14.07 0.18,-15.91l0.74 -0.76c1.52,-1.44 1.21,-0.25 1.73,-2.54 -2.68,-3.58 -2.9,0.52 -2.87,-10.18 0.01,-2.36 -0.05,-4.08 -0.26,-6.18 -0.28,-2.81 0.31,-3.53 0.48,-6.02l-0.66 -25.99c-0.59,-7.45 0.49,-18.44 -0.99,-25.42 -0.93,-4.36 -2.08,-20.89 -0.63,-24.05zm-171.45 -9.42c4.38,-0.75 3.6,2.82 4.44,5.93 0.75,2.71 2.11,5.3 2.92,8.27 0.48,1.76 1.28,2.84 1.53,4.03 0.36,1.76 -0.1,3.73 0.25,5.61 0.53,2.84 3.93,6.98 -3.17,6.09 -0.76,-1.19 -2.77,-4.72 -3.36,-6.2 -1.17,-2.97 0.04,-6.66 -0.68,-9.58 -0.32,-1.28 -1.49,-2.11 -2.1,-2.94 -1.11,-1.53 -0.57,-2.14 -1.03,-4.14 -1.01,-4.3 -1.64,-3.64 1.2,-7.07zm11.95 -0.8l2.62 -0.2c2.19,2.06 2.27,4.12 3.19,7.54l3.68 13.09c0.77,1.54 1.64,1.9 1.82,3.68 0.4,3.79 -3.52,4.45 -6.97,3.97 -2.09,-2.13 -1.38,-3.28 -1.85,-6.57 -0.57,-4.05 -2.35,-1.7 -2.38,-7.14 -0.04,-6.35 -4.38,-10.13 -0.11,-14.37zm14.53 -2.85c2.95,2.49 3.19,9.22 4.07,13.79 1.09,5.69 5.12,8.4 2.26,14.35 -5.51,0.47 -6.31,-7.38 -6.88,-8.85 -3.83,-9.77 -1.34,-4.51 -3.61,-13.18 -0.97,-3.68 0.6,-6.22 4.16,-6.11zm151.24 6.28l-5.8 0.16c-2.13,1.85 -2.8,2.69 -6.4,2.95 -1.82,0.13 -2.54,0.03 -4.1,0.59 -4.02,1.44 -2.94,2.93 -12.22,2.6 -5.35,-0.19 -3.9,0.02 -6.61,2.84 -1.16,0.12 -2.51,0.09 -3.57,0.28 -0.08,0.01 -6.92,2.54 -8.41,-1.03l-0.05 -2.54c4.4,-4.04 7.18,-2.97 14.35,-3.62 1.2,-1.88 3.23,-3.75 6.32,-3.85 4.54,-0.14 4.18,-1.79 8.64,-1.82 5.05,-0.05 4.78,-1.4 8.76,-2.23 3.95,-0.83 5.44,-1.29 10.4,-1.17 0.96,3.7 1.95,4.09 -1.31,6.84zm-130.64 18.34c-1.6,1.41 -0.67,1.03 -4.31,1.18 -6.64,-6.74 -1.74,-7.79 -5.76,-13.55 -2.17,-3.11 -0.66,-4.08 -1.85,-7.82 -2.06,-6.49 2.68,-8.76 5.38,-7.47 2.04,0.97 2.26,8.27 2.85,12.1 0.21,1.4 4.07,8.39 3.69,15.56zm-68.32 -9.04c4.63,0.79 3.86,-2.56 5.45,-5.47 0.8,-1.44 1.66,-1.79 2.22,-3.38 0.96,-2.72 0.17,-2.22 1.77,-4.25l4.64 -0.11c0.85,1.62 1,1.86 0.85,4.15 -0.76,0.12 -0.45,0.07 -1.31,1l-4.53 5.69c-1.06,1.47 -2.37,1.81 -3.64,3.04l-1.69 2.2c-0.05,0.1 -0.12,0.23 -0.17,0.34 -2.05,4.1 -1.33,1.89 -4.59,4.22 -1.34,0.96 -4.13,1.78 -4.5,2.09 -1.66,1.41 1.17,7.01 -6.88,6.81 -3.48,-6.48 2.19,-7.82 2.41,-15.2 0.11,-3.73 0.18,-3.34 1.89,-5.36 1.65,-1.95 0.41,-2.78 1.68,-4.94 1.38,-2.33 1.29,-0.95 2.57,-4.51 1.29,-3.61 4.46,-4.97 9.32,-4.55 0.28,4.7 0.27,3.73 -1.72,6.86 -0.73,1.16 -0.5,0.37 -0.93,2.16 -0.49,1.98 -0.3,3.22 -1.37,4.81 -1.13,1.69 -1.88,1.37 -1.47,4.4zm180.06 -27.97l2.75 -0.12c0.95,2.32 0.38,2.44 1.82,5.54 0,0 1.79,2.33 0.05,3.9 -0.88,0.79 -2.75,0.55 -4.07,-0.14l-1.31 -0.75c-0.25,-3.59 -0.21,-5.98 0.76,-8.43zm11.42 5.29c3.37,-0.05 4.15,0.84 3.26,3.6 -2.29,-0.39 -1.85,-0.08 -3.19,-1.32l-0.07 -2.28zm-218 -1.65l0.28 -0.19c2.79,-1.48 5.59,-0.3 7.03,1.36 0.37,4.46 -1.8,2.86 -2.4,8.49 -0.36,3.32 -2.25,3.51 -3.22,7.3 0.42,3.12 0.89,6.22 1.42,9.3 0.68,-0.74 1.42,-1.98 2.13,-5.15 0.56,-2.51 0.89,-2.04 1.6,-3.98 0.56,-1.52 0.27,-3.16 1.14,-4.47 1,-1.48 2.2,-0.95 3.65,-2.48 -0.49,-2.59 -2.08,-2.64 -1.31,-5.95 0.6,-2.53 2.3,-1.62 2.52,-5.25 -2.2,-2.4 -5.31,-1.66 -8.27,-2.6 -1.74,-0.55 -3.15,-1.57 -4.9,-2.1 0.09,1.91 0.2,3.82 0.33,5.72zm158.67 -8.84c1.6,-0.68 2.57,-0.88 4.83,-0.59 0.05,0.07 0.13,0.1 0.15,0.21l0.55 0.71c0.64,0.92 0.34,0.41 0.77,1.3 3.84,8.04 1.4,9.62 2.09,11.26l2.67 2.7c0.18,2.42 0.25,5.05 0.35,7.52 0.27,6.63 -6.58,3.3 3.68,13.01 1.33,1.26 4.71,6.51 2.12,9.07 -5,4.93 -8.32,0.36 -15.42,4.58 -2.22,1.32 -2.47,1.2 -5.61,1.64 -8.46,1.19 -6.09,2.81 -9.82,3.09 -7.29,0.56 -5.58,1.67 -10.95,3.06 -4.4,1.13 -6.71,2.7 -10.05,3.13 -2.24,0.29 -4.45,0.06 -5.88,0.77 -2.72,1.37 -1.8,2.15 -5.72,1.16 -1.02,-1.22 -1.25,-2.29 -2.32,-3.55 -1.44,-1.7 -4.07,-3.3 -5.66,-7.13 -0.7,-1.69 -0.39,-1.79 -1.53,-3.04 -3.07,-3.34 0.71,-4.86 1.12,-6.96 -0.19,-3.17 -1.85,-3.59 -2.32,-8.14 -0.53,-5.2 -2.64,-3.09 -3.01,-7.13 -0.55,-5.95 -5.78,-13.74 -1.34,-15.51 0.94,-0.06 1.15,-0.22 2.11,0.05l1.86 1.1c2.36,2.02 0.25,4.27 2.79,8.42 2.28,3.75 0.12,4.67 2.7,8.51 2.28,3.39 -1.34,5.16 4.45,12.15l4.38 -0.11c0.86,-3.92 -2.91,-11.35 -4.05,-16.38 -2.13,-9.39 -5.91,-11.41 -2.38,-16.11l5.01 0.14c0.94,1.9 0.6,5.84 1.35,7.53 1.5,3.39 1.14,3.4 1.89,7.17l3.85 14.54c1.42,2.37 4.78,1 6.69,-0.94 -0.6,-2.31 -1.36,-3.99 -1.96,-6.89 -0.59,-2.89 -1.81,-4.84 -2.42,-7.32 -0.63,-2.59 -0.47,-5.12 -1.28,-7.83 -1.09,-3.67 -2.84,-3.1 -1.19,-7.22 9.87,-1.83 6.64,15.57 12.01,25.94 2.08,4.02 7.46,0.74 6.56,-2.97l-5.19 -17.75c-1.39,-3.66 -2.82,-5.11 -0.12,-8.22 2.76,-0.21 3.37,0.18 4.84,1.42 0.67,2.97 0.42,4.98 1.57,7.67 1.76,4.11 2.42,19.79 9.7,17.67 1.04,-5.9 -0.57,-9.77 -2.02,-14.26 -0.72,-2.24 -0.92,-4.33 -1.25,-6.74 -0.41,-2.97 -0.89,-5.93 2.45,-6.05 3.33,-0.11 3.17,4.23 5.12,11.19 0.56,1.97 1.14,4.36 1.8,6.41 0.76,2.36 0.63,5.24 1.62,6.8 4.98,0.75 4.78,0.19 4.76,-4.46 -0.01,-3.52 0.16,-5.71 -1.28,-8.56 -1.74,-3.46 -1.66,-2.26 -1.92,-7.22 -0.19,-3.81 -1.42,-5.47 -1.15,-8.84zm12.15 -0.59c1.63,-1.37 1.64,-2.02 4.67,-1.44 0.88,1.93 4.23,9.93 4.43,11.43 0.41,3.05 -0.72,3.9 0.71,6.68 1.41,2.72 1.99,3.32 1.63,7.01 -1.87,0.6 -4.78,2.32 -6.44,-0.25 -0.58,-0.9 -1.13,-8.52 -1.77,-11.93 -0.12,-0.65 -3.2,-6.69 -3.23,-11.5zm26.46 -0.99c1.01,1.3 1.25,1.51 1.93,3.65 1.2,3.81 2.81,11.38 2.45,14.99 -6.06,2.08 -4.94,-2.21 -5.25,-7.26l-2.18 -1.77c-0.12,-3.1 0.89,-3.26 0.04,-5.71 -1.18,-3.41 -0.75,-3.94 3.01,-3.9zm-14 -2.79l4.68 0.16c1.21,3.59 1.74,9.31 2.38,13.11 1.72,10.15 2.97,10.83 -1.66,10.69 -2.85,-5.24 1.06,-1.7 -3.65,-11.1 -0.42,-0.85 -1.88,-11.38 -1.75,-12.86zm33.02 -7.15c-2.28,-4.48 -6.74,-18.09 -8.14,-22.42 -0.91,-2.84 -2.03,-3.75 -2.99,-7.22 -1.06,-3.85 -2.37,-4.11 -2.37,-7.06l1.81 -1.44c3.08,1.18 4.51,7.2 5.54,10.21 3.62,10.49 4.74,8.36 5.37,9.59 0.83,1.6 -1.46,3.26 2.18,7.83 2.32,2.9 0.64,4.85 1.66,7.47 0.68,1.72 1.97,2.14 2.37,3.66 0.6,2.29 -0.01,2.68 1.16,5.02 0.79,1.57 1.46,2.43 1.94,4.15 0.42,1.54 0.7,3.53 1.19,4.95 0.32,0.93 0.78,1.47 0.97,2.29 0.5,2.17 -0.06,1.67 -0.6,2.29 -4,3.73 -5.44,-5.79 -6.58,-7.55 -4.2,-6.46 -0.67,-6.22 -3.51,-11.77zm-40.79 -34.64c3.97,-4.09 19.12,-6.68 24.37,-11.37 1.64,-1.46 1.78,-1.17 4.13,-0.57l0.21 3.95 -6.24 4.69c-7.04,0.85 -4.65,0.52 -9.9,2.67 -3.01,1.24 -5.81,0.38 -8.81,3.15 0.11,3.29 1.71,6.26 3.29,8.4 3.89,5.26 1.29,3.09 2.85,8.89 3.29,12.29 7.55,10.41 5.65,16.63 -2.7,0.03 -4.34,0.72 -6.08,-5.69 -0.95,-3.5 -1.53,-3.23 -3.29,-5.29 -1,-6.87 1.17,-4.53 -3.28,-9.16 -0.35,-5.49 0.07,-4.08 -1.87,-8.15 -0.92,-1.94 -1.46,-5.72 -1.03,-8.15zm-6.16 88.61c1.11,-2.35 -3.39,-10.31 -11.27,-8.22 -2.44,0.65 -5.23,1.81 -8.22,2.36 -5.13,0.93 -4.01,1.46 -7.48,2.71l-9.43 2.82c-0.12,0.03 -0.25,0.08 -0.37,0.11l-2.74 0.16c-7.1,0.18 -4.98,2.37 -7.8,2.87 -1.38,0.25 -3.45,-0.09 -5.05,0.08 -2.23,0.24 -6.61,1.12 -7.64,2.67 -2.44,3.62 1.44,5.89 2.59,7.14 2.55,2.74 4.37,1.59 8.48,0.86 8.28,-1.46 4.54,-1.28 8.44,-2.22 7.36,-1.77 5.08,-2.19 7.19,-2.86 3.06,-0.97 5.64,0.11 9.44,-1.53 6.6,-2.86 8.96,-1.86 16.51,-4.29 2.73,-0.87 6.15,-0.16 7.35,-2.66zm2.79 63.48c-3.2,1.34 -3.41,4.68 -8.67,2.1 -1.29,-7.33 2.58,-7.96 -0.61,-11.33 -2.04,-0.05 -4.32,-0.58 -5.38,1.76 -0.34,3.89 1.27,9.85 -1.28,12.2 -1.14,1.05 -3.49,1.35 -5.15,1.54 -2.6,0.29 -3.55,-0.38 -5.05,-1.44 -0.6,-5.66 2.78,-2.57 2.39,-7.72 -1.64,-1.3 -7.13,-4.4 -8.69,-1.31 -1.12,5.73 1.05,9.21 0.74,12.99 -2.07,0.51 -5.39,0.4 -7.04,1.23 -3.09,1.58 -3.78,1.51 -6.14,-0.61 -0.79,-1.55 2.9,-6.43 -1.59,-9.86 -2.49,0.41 -4.53,4.22 -4.55,6.19 -0.04,5.64 1.23,2.23 -0.98,7.29 -1.56,3.57 4.52,2.29 11.12,1.37 10.24,-1.42 0.92,-2.6 18.85,-2.66 4.08,0 3.31,-2.08 6.22,-2.79 1.55,-0.38 3.1,-0.01 4.4,-0.24 1.93,-0.33 1.75,-1.37 3.03,-2.01 0.16,-0.08 13.12,-1.08 14.15,-4.23 0,-0.02 1.03,0.08 -0.08,-2.94 -1.65,-4.53 1.85,-6.77 -0.01,-9.82 -0.79,-1.31 -3.05,-1.16 -4.38,-1.27 -3.42,5.61 -0.54,4.97 -1.3,11.56zm-0.04 17.48l-0.32 3.24c-1.83,0.78 -8.15,1.77 -8.73,-1.24 -0.31,-1.58 1.64,-9.4 -5.16,-5.51l0.01 9.34c-1.68,1.12 -2.92,1.76 -3.02,3.7 1.97,0.77 3.36,0.42 5.93,0.34 0.66,-0.85 0.68,-0.79 1.25,-1.47 3.86,-0.17 4.62,0.44 7.54,-1.18 2.66,-1.48 4.98,-0.53 8.52,-0.71 4.29,-5.21 1.22,-4.22 -0.32,-7.6 -0.8,-1.77 -1.13,-4.18 -1.7,-6.23 -3.74,-0.98 -8.64,2.37 -4.96,6.15 0.76,0.77 0.49,0.5 0.96,1.17zm-94.09 13.75c-1.53,-0.81 -3.06,-0.87 -5.13,-0.73 -2.83,3.49 -1.3,6.1 -0.97,10.91 0.2,3.03 0.33,2.76 1.79,4.64 1.2,1.54 1.47,2.01 2.66,3.33 1.97,0.14 3.98,0.57 3.77,-1.77 -0.09,-1.14 -1.33,-2.14 -2.69,-3.66l0.57 -12.72zm-11.41 -37.1c2.61,-0.29 3.33,0.03 5.05,-1.25 1.48,-1.1 1.65,-1.47 4.08,-1.62 2,-0.11 8.99,0.86 7.9,-3.13 -0.81,-2.94 -17.5,0.91 -16.01,2.76l-8.8 0.98c-0.65,1.75 -0.88,1.81 -0.53,3.89 4.35,2.38 5.96,0.55 8.31,-1.63zm75.06 32.73c-1.64,1.54 -2.45,0.74 -4.3,1.82 -1.42,0.81 -2.22,2.16 -2.3,3.86 1.3,0.04 2.35,-0.05 3.17,-0.45l0.85 -0.57c3.17,-1.93 7.63,0.4 8.54,-2.47l0.64 -9.03c-0.99,-0.91 -4.7,-6.56 -6.79,-3.03 -1.66,2.82 2.5,6.47 0.19,9.87zm-107.5 -45.62c2.24,-2.23 3.68,-8.2 3.31,-12.2 -2.24,-2.15 -2.93,-2.78 -6.99,-1.87 -1.15,2.09 -1.2,5.65 -1.19,8.56 0.02,4.17 0.52,5.87 4.87,5.51zm88.95 48.59c-2.77,1.66 -4.05,2.61 -3.77,5.16 3.6,-1.61 8.39,-0.92 11.19,-2.46 -0.16,-1.62 -0.75,-2.33 -0.91,-3.82 -0.19,-1.66 0.12,-3.67 -0.03,-5.65 -1.08,-1.25 -3.81,-3.98 -5.64,-2.25 -1.46,1.39 -0.73,6.73 -0.84,9.02zm-0.02 43.09c6.85,0.9 8.83,-12.26 1.93,-14.27l-3.86 3.59c-0.4,4.84 -0.01,7.64 1.93,10.68zm-58.22 -88.7c0.63,-2.65 0.27,-7.09 0.33,-10.02 0.08,-4.27 -0.33,-4.94 -2.68,-7.07l-2.86 0.2c-0.34,2.26 -0.09,2.01 0.17,3.99 0.83,6.44 -1.79,12.7 1.67,13.33l3.37 -0.43zm22.13 23.07c1.28,-2.38 2.7,-0.79 2.74,-4.58 0.03,-3.2 -1.3,-3.43 -1.75,-5.09 -4.23,-0.01 -3.8,-1.23 -5.39,8.28 -0.45,2.66 1.08,6.55 2.33,7.91 2.61,0.12 4.03,-0.52 4.59,-2.95 -1.09,-2.06 -1.76,-1.17 -2.52,-3.57zm-11.46 -6.88c-0.62,-0.57 -0.92,-1.01 -1.87,-1.08 -1.74,-0.14 -2.97,1.68 -3.2,2.99 -0.36,2.09 0.88,2.51 0.96,5.47 0.05,2.18 -0.11,4.2 0.02,6.44 7.01,4.55 5.45,-8.03 6.03,-12.09 -0.94,-0.71 -1.27,-1.12 -1.94,-1.73zm-15.05 16.95c4.24,-0.11 4.79,-4.46 4.85,-8.01 0.02,-1.72 0.55,-4.39 -0.75,-5.57 -1.41,-1.28 -2.79,-1.52 -4.44,-1.35 -1.97,3.1 -0.28,4.89 -1.53,8.53 -1.02,2.97 0.36,5.09 1.87,6.4zm24.44 -54.14c-0.96,1.72 -2.83,5.01 -2.52,7.4 0.24,1.87 1.01,1.94 1.27,4.06 0.19,1.64 0.44,6.38 3.86,2.12 0.66,-0.82 1.28,-1.39 1.9,-2.03 0.17,-1.71 0.38,-6.53 -0.1,-8.04 -0.04,-0.12 -0.1,-0.25 -0.14,-0.36 -0.24,-0.53 -1.73,-3.12 -4.27,-3.15zm-55.08 34.76c-0.67,3.01 -0.07,3.03 0.19,5.75 0.09,0.88 -0.08,1.93 -0.21,2.99 0.91,1.69 1.84,3.37 2.78,5.04 4.01,0.03 1.66,-1.9 2.62,-5.31 0.8,-2.81 0.98,-4.79 0.54,-8.09 -1.39,-0.99 -4.42,-1.52 -5.92,-0.38zm42.24 -16.69c4.86,0.34 2.84,-1.62 5.23,-2.01l0.13 -12.65c-5.47,-0.83 -5.42,-0.49 -5.4,4.51 0.01,4.74 -0.82,5.56 0.04,10.15zm-14.96 46.01c1.76,-0.41 2.93,-0.08 4.81,-0.71l13.36 -2.29 -0.1 -2.93c-2.37,-1.18 -8.02,0.17 -11.14,0.39 -3.85,0.28 -7.04,1.54 -6.93,5.54zm5.24 17.96c3.79,-4.19 2.62,-2.16 2.64,-8.45 0.02,-5.66 -4.54,-3.25 -6.32,-1.85 -0.06,1.01 -0.04,2.44 -0.2,3.38 -0.53,3.12 -2.47,2.35 1.49,7.03l2.39 -0.11zm110.88 1.38c-0.55,2.2 -0.51,6.19 -0.44,8.55 0.13,3.7 2.17,3.69 5.25,2.5 0.5,-2.43 0.27,-5.49 0.27,-8.14 -0.01,-5.21 -2.88,-4.6 -5.08,-2.91zm-83.53 -14.99c-5.92,-1.35 -5.52,-1.04 -5.42,5.18l0.18 5.34c3.08,0.46 2.12,1.09 5.05,-0.43l0.19 -10.09zm71.28 7.53c1.94,0.23 3.11,0.54 4.31,-1.55 0.08,-0.13 0.24,-0.48 0.28,-0.62 0.63,-2.2 -3.21,-10.26 -7.45,-4.76 0.44,2.93 1,-0.35 2.86,6.93zm-120.46 -45.8c3.73,-6.09 -4.5,-5.15 -5.96,-5.48 -1.24,-0.28 -2.78,-1.37 -4.04,-0.95 -1.16,0.38 -1.58,2.04 -0.64,3.04 1.01,1.08 2.76,0.57 4.07,0.68 3.62,0.3 2.72,3.04 6.57,2.71zm50.21 28.32l0.06 -2.8c-3.17,-0.15 -9.12,-0.27 -11.61,0.85 -0.05,2.05 0.58,1.94 1.42,3.61 5.81,-0.79 2.17,-1.07 4.87,-1.38 2.57,-0.29 2.59,0.76 5.26,-0.28zm82.38 12.13c2.3,1.6 2.67,2.32 5.75,2.17 0.31,-3.84 -0.66,-3.47 -1.5,-5.76l-4.24 0.14 -0.01 3.45z"/>
  <path id="arestas-1" class="fil2" d="M466.81 263.68l-3.33 0.08c-0.44,2.61 -0.08,4.01 -0.1,6.49 -0.02,2.56 -0.92,4.32 2.4,4.07 3.99,-0.29 1.23,-10.28 1.03,-10.64zm-2.04 33.27c2.52,-0.14 3.4,-1.57 4.72,-2.77 0.35,-3.8 -0.78,-5.95 -4.21,-6.2 -3.87,2.3 -3.56,6.63 -0.51,8.97zm-14.56 -24.85c1.24,1.08 2.34,1.73 4.56,1.38 0.58,-3.13 1.25,-6.89 -0.31,-9.65l-4 -0.38c-0.83,2.5 -0.56,5.82 -0.25,8.65zm-57.49 -6.26c-2.72,-0.68 -4.54,-1.52 -5.01,1.83 -0.22,1.65 -0.61,5.94 0.37,6.95 1.44,1.49 7.45,1.51 4.64,-8.78zm-33.84 39.56c1.2,-1.83 2.24,-4.51 2.08,-7.76 -6.06,-1.88 -7.53,1.1 -7.5,7.01 1.2,0.42 0.74,-0.54 0.98,1.1l4.44 -0.35zm-15.03 2.75c3.17,-8.11 3.6,-2.03 3.13,-7.84 -2.06,-1.66 -1.99,-3.39 -5.22,-2.85 -0.48,1.03 -0.36,2.33 -0.78,3.75 -0.37,1.25 -1.24,1.62 -1.26,3.16 -0.02,2.07 1.83,3.84 4.13,3.78zm59.63 -42.18c-0.2,4.9 -0.09,1.97 2.36,6.53 3.09,5.75 6.3,-4.66 4.98,-7.43 -0.98,-2.07 -3.68,-1.67 -4.84,-1.66 -0.68,0.79 -1.58,1.75 -2.5,2.56zm53.44 33.3c3.26,-7.38 -3.87,-11.66 -6.84,-6.06 -0.86,1.63 -1.33,3.87 -0.76,6.26 1.7,1.03 5.78,0.83 7.6,-0.2zm-29.83 -31.13c0.79,-5.03 -1.33,-4.34 -3.07,-6.5l-2.87 0.17c-1.27,1.28 0.88,0.25 -2.41,3.11 -0.02,1.39 -0.13,2.84 0.13,4.22 1.01,5.29 7.61,2.87 8.22,-1zm22.01 -89.01l-0.19 11.18c-0.19,2.59 -1.02,1.68 -0.99,5.1l6.46 0.25 -0.34 -16.51c-1.64,-0.96 -3.55,-1.28 -4.94,-0.02zm-36.88 21.54c2.1,-0.18 4.28,0.27 5.96,-0.93 3.59,-2.55 7.18,0.46 6.39,-3.72 -0.13,-0.69 -2,-2.87 -0.28,-6.05 0.4,-0.75 0.76,0.51 0.61,-4.26 -0.06,-1.73 -0.48,-3.49 -0.6,-4.72 -6.96,-0.42 -5.62,-0.29 -5.6,10.31 0.01,6.62 -1.33,5.75 -4.08,7.4l-2.4 1.97zm47.64 -5l10.11 -0.09c0.83,-3.55 -2.01,-2.45 -2.71,-4.29l-0.06 -12.09c-1.4,-1.38 -2.98,-2.6 -5.75,-1.98 -0.37,2.4 -0.37,7.98 -0.04,10.41 0.88,6.63 -1.79,3.28 -1.55,8.04zm-72.79 -5.91c0.01,13.28 -2.56,11.6 8.94,11.6 7.77,0.01 9.19,-0.29 14.46,-2.71 -0.03,-4.89 -3.07,-3.59 -1.78,-8.58 1.44,-5.59 -0.5,-5.56 -0.46,-8.99l-4.26 0.18c-0.94,2.51 -0.68,4.59 -0.48,7.51 0.23,3.47 1.43,3.14 1.41,6.09l-3.64 3.58c-2.54,0.26 -5.95,0.58 -8.08,-0.53 -0.66,-3.49 1.47,-12.38 -0.97,-15.02 -1.5,-1.62 -3.32,-2.61 -5,-0.37 -1.33,1.77 -0.14,4.45 -0.14,7.24zm-42.36 86.59c2.63,-3.19 2.91,-5.93 -1.18,-8.47l-2.02 0.57c-2.62,7.74 -1.61,3.03 -0.64,9.01 0.69,4.29 -0.72,7.4 -0.66,11.49 3.16,1.21 5.99,1.35 10.73,0.52 3.96,-0.69 6.56,0.33 10.64,0.28 -0.43,-2.14 -1.47,-10.07 -0.93,-11.52 1.42,-3.83 1.1,-10.11 -2.84,-8.62 -3.8,1.42 -2.12,10.43 -2.42,12.92 -0.49,3.98 -7.22,1.98 -7.31,1.92 -1.05,-0.58 -3.37,-6.17 -3.37,-8.1zm10.24 -34.95c-0.07,3.66 0.46,6.17 0.48,10 0.01,1.75 0.17,3.62 -0.45,4.87 -0.66,1.1 -1.35,2.2 -1.97,3.33 -2.31,0.22 -4.79,0.48 -6.51,-0.43 -2.1,-1.83 1.3,-5.54 1.5,-7.81 0.16,-1.94 -0.67,-2.55 -0.71,-7.15 -0.03,-3.5 -2.1,-3.39 -5.87,-1.71 -0.54,3.17 0.31,6.16 0.28,9.91 -0.05,6.86 -1.04,6.8 -0.85,9.82 3.55,0.3 6.18,1.07 9.31,1.12 3.54,0.06 7.3,-0.05 10.87,-0.06l-0.54 -5.27c3.4,-3.7 2.43,-2.8 0.88,-7.03 -0.81,-2.19 0.62,-3.59 0.77,-5.22 0.37,-4.02 -3.49,-6.48 -7.19,-4.37zm0.62 -56.44c-0.19,1.88 -0.29,4.99 -0.19,6.86 0.17,3.09 1.26,2.06 0.83,6.03l-3.08 1.44c-2.11,0.35 -5.7,0.48 -6.77,-1.89 -0.27,-3.52 3.93,-14.17 -2.31,-12.97 -1.52,0.29 -1.61,0.64 -2.02,1.8l-0.29 13.21c-2.72,2.75 -3.49,1.08 -5.6,3.06 0.24,4.01 6.26,2.19 8.49,1.13 5.53,-2.64 3.85,-0.8 10.12,-0.79 4.36,0.01 3.2,2.23 9.26,1.77l0.68 -3.73c-2.7,-1.83 -3.98,-2.8 -2.51,-5.28 1.21,-2.06 1.77,-2.27 1.04,-8.38 -0.43,-3.57 -5.13,-4.31 -7.65,-2.26zm-9.03 45.11c-0.53,-3.57 2.8,-17.27 -0.47,-18.54 -5.07,-1.96 -4.28,3.38 -4.24,6.76 0.16,11.32 0.97,9.63 -2.27,12.74 -1.11,1.07 -1.39,1.42 -1.33,3.56 3.23,1.75 8.01,1.11 11.41,0.73 3.51,-0.38 10.32,0.25 13.06,-0.45 0.16,-0.65 0.08,-18.72 -0.52,-20.35 -0.7,-1.89 -2.21,-2.99 -4.37,-3.01 -4.48,5.36 2.78,17.77 -3.65,18.63 -1.83,0.24 -5.68,0.04 -7.62,-0.07zm45.62 -190.88c-3.14,4.6 -5.44,7.99 -5.95,8.8 -2.7,4.25 1.26,1.13 -5.34,7.96 -1.66,1.71 -10.29,16.03 -13.28,19.85 -5.68,7.24 -2.96,5.86 -4.66,8.64 -1.88,3.07 -5.39,2.47 -5.22,8.15 4.13,0.2 6.2,-2.76 8.06,-5.94 2,-3.4 3.31,-4.76 5.22,-8.57 1.35,-2.71 6.54,-8.97 8.78,-11.49 1.69,-1.9 0.49,-2.39 2.56,-4.61l5.89 -7.83c1.08,-1.82 1.82,-1.72 3.26,-3.34 1.68,-1.9 1,-2.61 1.87,-5.35 0.1,-0.31 1.04,-1.72 2.53,-3.88 -1.23,-0.81 -2.47,-1.6 -3.72,-2.39zm30.62 211.94c0,0 0.4,1.41 -3.76,1.78 -1.87,0.17 -3.74,0.07 -5.6,-0.09 -1.42,-5.54 -1.03,-11.25 -1.47,-16.71 -10.69,-4.28 -5.62,9.69 -6.29,14.79 -8.36,5.75 -14.42,2.4 -10.84,-6.35 0.86,-2.09 2.96,-6.8 -0.52,-8.25 -0.98,-0.41 -1.12,-0.4 -2.36,-0.39 -3.65,0.01 -5.2,2.1 -2.94,5.76 0.87,1.42 0.83,2.89 0.82,5.14 -0.01,1.91 -0.03,3.42 -0.86,4.69 -0.89,1.39 -1.57,1.65 -1.4,3.44 0.08,0.8 -0.37,1.36 1.8,1.79l38.86 -0.66c0.17,-7.29 -1.38,1.56 -1.46,-11.3 -0.01,-0.92 -0.07,-2.08 0.14,-2.97 0.09,-0.36 2.16,-3.79 -0.46,-7.52 -4.83,-0.76 -5.02,2.7 -5.01,6.92 0.01,1.79 -0.44,4.4 0.21,5.97 0.67,1.61 2.53,2.02 1.14,3.96zm-2.79 -44.05c-0.98,5.2 1.16,13.79 0.79,16.3 -1.33,0.85 -7.17,2.57 -8.61,1.2 -1.32,-1.18 -0.71,-3.19 -0.73,-6.8l-0.04 -7.69c-1.33,-1.04 0.31,-0.08 -1.43,-1.01 -1.22,-0.65 -0.26,-0.51 -2.23,-0.63 -1.88,-0.11 -3.14,0.31 -4.37,1.18l-0.07 3.06c0.49,0.35 1.16,0.82 1.48,1.44 0.41,0.79 0.18,-0.04 0.33,1.12 0.03,0.23 0,1.21 0,1.48 -0.03,2.05 0.04,4.12 -0.21,6.14 -3.24,2.58 -5.85,5.11 -10.08,1.02 -0.06,-1.37 0.02,-2.8 -0.06,-4.11 -0.1,-1.82 -0.46,-1.84 -0.57,-3.54 -0.23,-3.42 1.42,-3.46 0.99,-7.81 -3.72,-0.16 -2.37,-0.05 -6.89,2.65l-0.13 7.92c6.25,4.58 -3.38,6 -2.99,10.13l16.95 0.09c2.68,0.01 4.14,-0.53 7.13,-0.45 5.27,0.14 16.73,0.05 20.81,-2.33 0.1,-3 -1.39,-3.2 -3.25,-4.59 -0.4,-3.5 1.66,-14.25 -2.28,-15.96 -2.34,-0.16 -3.26,0.05 -4.54,1.19zm66.23 -63.14c-0.29,0.96 -0.47,1.84 -0.46,2.53 0.04,4.27 5.55,7.73 -2.65,6.87 -0.83,-1.32 -0.49,-0.81 -0.86,-1.82 -0.76,-2.05 -0.99,-3.84 -4.88,-0.61 0.01,2.95 0.79,3.47 0.45,7.27l-3.07 2.55c-0.28,2.53 -0.29,4.47 -1.53,5.89 -2.24,1.74 -3.8,-1.43 -8.31,0.37 -4.44,1.77 -2.86,1.35 -8.29,1.44 -3.22,0.06 -6.02,0.46 -9.18,0.51 -7.37,0.1 -3.62,1.98 -7.83,1.13l0.02 -3.22c2.86,-2.6 1.55,-3.28 7.33,-3.31 4.16,-0.03 4.89,-1.55 8.11,-1.79 4.31,-0.33 5.25,0.05 9.07,-1.29 3.38,-1.19 4.58,0.32 8.28,-1.86l-0.66 -2.45c-3.12,-0.98 -5.09,0.65 -5.47,-3.03 -0.14,-1.31 -0.05,-3.26 -0.04,-4.62 0.02,-4.31 -1.47,-4.55 -5.77,-3.85 -0.32,3.91 1.48,5.34 0.69,10.48 -0.67,0.69 -4.9,3.27 -5.68,3.54 -2.16,0.75 -6.71,0.25 -9.05,-0.03 -2.58,-4.33 -1.43,-10.74 -2.52,-18.38 -0.71,-5.05 0.88,-4.65 -0.52,-9.95 -1.01,-3.78 0.27,-5.25 4.05,-4.97 3.29,1.39 1.35,8.51 1.97,13 0.96,7 -0.7,14.31 2.23,15.57 6.58,0.44 2.95,-5.1 2.89,-9.98 -0.03,-2.57 -0.19,-5.09 -0.23,-7.64 -0.01,-0.96 -0.08,-2.72 0.07,-3.6 0.17,-1.04 0.42,-1.44 0.86,-2.35 0.02,-0.14 0.09,-0.18 0.12,-0.27 5.96,0.35 4.65,2.92 7.4,6.19 1.19,1.41 2.19,1.74 3.23,3.37 1.22,1.89 0.59,2.87 2.12,4.05 3.36,2.02 6.69,-0.3 9.28,-2.92 3.82,-3.88 0.29,-2.18 4.67,-4.97 -5.94,-11.15 -12.68,-21.82 -20.15,-31.91l-0.22 0.3 -6.22 8.55c-6.53,9.06 -3.64,8.12 -12.06,7.63 -2.47,-0.14 -3.65,0.41 -5.57,0.63 -2.16,0.24 -4.09,-0.08 -6.2,0 -2.4,0.09 -3.08,0.82 -5.07,0.98 -4.67,0.37 -7.18,-0.26 -12.29,0.58 -6.17,1.01 -16.65,0.47 -23.84,1.23 -4.2,0.43 -6.38,1.53 -10.73,1.47 -4.26,-0.05 -8.5,0.03 -12.73,-0.02 -4.53,-0.05 -6.81,0.81 -11.06,0.63 -1.62,-1.82 -1.5,-2.21 -3.39,-3.65 -3.14,-2.4 -3.53,-5.93 -5.66,-8.61l-3.03 -4.11c-1.21,-1.85 -2.31,-2 -3.06,-4.12 -0.99,-2.74 -0.23,-2.66 -2.33,-4.73 -2.88,-2.85 -1.49,-5.42 -6.12,-8.33l-2.4 0.34c-1.43,3.35 0.93,5.86 3.05,7.87 2.9,2.75 1.3,1.8 4.82,6.41 0.84,1.1 1.51,3.28 2.57,5.01 1.15,1.88 1.61,3.32 3.04,5.14 1.26,1.6 2.35,2.57 3.32,4.3 0.98,1.74 1.24,3.29 2.41,5.24 4.01,6.67 -1.27,8.25 -4.85,14.95 -1.04,1.94 -1.75,2.49 -2.63,4.77 -3.46,8.9 -5.65,5.43 -9.01,12.16 -2.44,4.88 -6.39,4.52 -6.42,6.76l-4.04 -0.02c-1.74,-2.15 -1.17,-2.56 -3.91,-6.24 -1.46,-1.96 -1.78,-4.21 -3.11,-6.55 -1.09,-1.92 -2.9,-4.79 -3.7,-6.49 -0.68,-1.44 -0.74,-2.26 -1.51,-3.59 -0.56,-0.95 -1.23,-1.66 -1.89,-2.67l-3.28 -6.94c-1.08,-2.36 -2.49,-3.82 -3.9,-5.79 -1.36,-1.89 -1.41,-4.39 -2.88,-6.77 -0.75,-1.22 -1.51,-2.25 -1.97,-3.13 -1.02,-1.92 -1.4,-4.54 1.43,-3.55 2.24,0.78 3.28,4.67 4.17,6.6 1.27,2.76 5.49,11.02 8.58,15.39 0.92,1.29 9.12,19.32 13.27,23.42l1.96 -0.03c2.72,-3.62 -0.24,-4.2 -2.01,-7.12 -0.76,-1.27 -0.69,-2.91 -1.54,-4.04 -0.98,-1.3 -2.15,-0.96 -2.86,-2.62 -0.61,-1.43 -0.6,-3.07 -1.44,-4.79l-4.01 -7.19c-0.77,-1.36 -1.82,-1.98 -2.34,-3.24 -0.43,-1.03 -0.2,-1.22 -0.71,-2.39 -1.61,-3.77 -9.16,-14.73 -11.75,-19.83 -2.71,-5.34 -3.63,-1.91 -5.89,-5.52 -0.02,-3.19 1.53,-3.35 2.58,-5.28 0.51,-0.94 0.84,-1.9 1.32,-2.75 3.18,-5.63 8.11,-11.08 11.44,-16.69 2.46,-4.15 7.39,-9.83 8.59,-11.72l4.23 -7.35c1.66,-2.89 3.62,-3.04 4.75,-6.46l6.14 -8.72c1.56,-1.82 1.92,-2.29 3.17,-4.54 1.55,-2.78 4.35,-6.62 5.13,-9.83l-4.01 0c-0.8,2.4 -6.55,10.08 -8.3,12.96 -2.81,4.61 -5.87,7.61 -8.81,11.98l-6.78 9.66c-3.13,5.61 -1.78,2.57 -4.44,6.1 -0.9,1.2 -1.23,1.82 -2.04,3.12 -5.45,8.76 -7.69,9.81 -9,11.88 -2.22,3.5 -1.06,3.46 -4.22,6.48 -2.12,2.03 -3.02,3.41 -4.3,6.38 -1.52,3.54 -2.07,3.33 -3.26,4.46l2.9 4.63c0.27,0.44 0.5,0.87 0.71,1.3 1.52,0.9 1.54,2.45 1.3,4.32 0.14,1.48 -0.04,2.86 -0.48,4.09 0,0.42 0.01,0.84 0.05,1.26l0.39 37.69c0.05,11.89 -1.07,49.5 0.68,57.86 0.59,2.81 0.99,2.51 1.93,4.72 0.86,2.03 0.46,3.71 1.38,5.31 1.3,2.28 1.89,0.93 2.14,4.43 0.26,3.55 -0.01,2.61 1.72,5.04 1.37,1.94 0.95,2.35 1.37,5.25 0.33,2.27 1.48,2.98 2.29,4.3 1.31,2.11 -0.18,3.63 3.17,9.74 1.01,1.84 0.61,3.18 1.47,5 1.59,3.39 2.35,7.24 3.59,9.74 1.9,3.84 4.22,13.41 7.03,19.35 0.76,1.59 0.95,2.98 1.5,4.61l3.92 9.02c1.97,2.61 0.82,1 1.42,4.35l4.98 7.82c0.92,1.51 1.34,3.08 2.5,4.2 2.37,2.27 7.62,2.97 10.31,1.05 1.94,-1.4 1.69,-1.76 4.71,-1.97 4.29,-0.29 8.82,-0.08 13.13,-0.15 16.42,-0.28 33.52,-0.8 50.11,-2.14 2.41,-0.19 2.23,-1.01 5.53,-1.04 2.2,-0.01 4.42,0.08 6.64,0.05 4.32,-0.05 9.02,0.04 13.3,-0.21 3.88,-0.23 7.53,-2.27 10.37,-1.67 4.16,0.89 7.77,-0.67 11.96,-0.88 4.37,-0.24 8.89,-0.28 13.27,-0.3 2.56,-0.01 3.6,0.42 5.06,-1.23 1.32,-1.5 2.25,-2.08 2.45,-3.8 -7.62,-0.26 -3.81,2.03 -17.7,2 -3.53,0 -6.49,0.24 -9.66,0.4 -1.46,0.08 -3.71,0.15 -5.14,0.05 -6.3,-0.42 -1.95,-7.89 -1.17,-11.62 1.37,-6.48 0.22,-6.82 2.25,-10.33 4.39,-0.18 17.02,0.6 20.01,-0.43 0.78,-1.89 0.59,-2.28 0.17,-4.54 -4.06,-0.76 -3.49,0.51 -6,0.81 -1.73,0.21 -4.04,-0.71 -6.08,-0.82 -8.23,-0.46 -5.75,2.94 -11.16,2.83 -2.28,-5.32 0.14,-7.81 -0.88,-13.3 -0.49,-2.6 -0.63,-12.05 1.6,-13.4 2.44,-0.38 4.65,-0.25 7.02,-0.61 3.29,-0.51 4.32,0.47 7.52,0.37 2.74,-0.09 4.64,-0.88 7.66,-0.74 3.08,0.15 4.05,1.19 7.13,0.22l0.29 -2.76c-2.42,-0.55 -4.07,-0.48 -4.52,-2.33 -0.35,-1.47 0.15,-5.26 0.36,-6.8 -5.21,-3.54 0.86,-6.9 -1.53,-9.23 -2.15,-2.1 -5.53,-0.14 -5.7,5.29 -0.15,4.57 1.12,7.38 0.79,10.72 -2.71,1.85 -4.18,2.55 -8.3,1.27 -1.36,-2.93 0.27,-6.55 0.08,-10.95 -0.17,-4 0.25,-9.27 -5.56,-6.23 -2.15,4.86 2.23,13.65 -2.09,17.7 -3.08,0.27 -5,0.92 -5.26,-2.28 -0.43,-5.28 0.02,-11.01 -0.01,-16.32 -0.01,-4.04 -0.37,-4.23 1.88,-6.39 3.99,-0.35 12.57,0.39 15.57,-0.46 5.8,-1.63 4.44,1.19 14.06,-1.22 -0.12,-3.05 -0.4,-1.47 -1.11,-3.58 -2.39,-0.24 -3.86,0.14 -5.6,-0.77 -1.26,-3.87 1.6,-4.4 0.59,-8.93 -0.64,-2.83 -0.97,-2.85 -0.12,-5.84 0.45,-1.61 0.02,-2.03 -0.24,-2.55 -8.18,-2.51 -5.76,5.97 -5.59,13.95 0.07,3.15 -0.02,4.08 -2.28,5.24 -8.84,-1.27 -2.3,-16.67 -6.57,-18.5 -1.8,-0.78 -3.09,0.46 -3.77,1.35 -1.38,1.79 -0.6,2.68 -0.12,4.63 0.66,2.72 0.54,8.88 0.01,12.37 -0.82,0.72 -2.57,0.99 -4.83,0.79 -2.74,-2.58 -1.83,-4.2 -1.82,-8.94 0.01,-3.73 -0.09,-7.48 -0.04,-11.22 0.06,-3.77 1.32,-5.22 0.25,-9.59 -0.74,-3.02 -0.5,-7.44 -0.53,-10.76 -0.11,-12.64 5.75,-8.24 9.26,-8.11 3.47,0.12 2.98,-1.96 6.86,-1.35 2.91,0.46 2.03,-0.43 4,-1.16 2.31,-0.86 8.65,-0.76 10.67,0.23 1.63,0.93 1.83,3.71 2.84,5.44 1.62,2.79 0.74,4.48 0.83,8.02l0.57 16.3c0.06,3.01 0.98,3.75 1.02,7.1 0.03,2.67 -0.57,5.85 0.23,8.31 0.63,1.95 0.27,-0.25 0.51,1.44 0.07,0.48 0,1.44 -0.03,1.96 -0.1,1.64 -0.26,2.93 -0.18,4.62 0.16,3.27 -0.09,5.53 -0.04,8.64 0.05,3.13 0.96,4.32 1,7.1l0.01 42.81c-0.01,3.11 0.42,5.01 0.43,8.15 0.01,3.11 -0.64,5.17 -0.32,8.3 3.37,0.17 2.48,-0.16 3.74,-1.65 3.09,-3.66 1.06,0.98 7.46,-8.81 0.92,-1.4 1.07,-1.6 2.17,-2.95 1.33,-1.64 0.86,-2.28 1.59,-3.99 1.05,-2.47 3.19,-3.68 5.36,-5.3 1.15,-3.66 0.24,-2.57 2.48,-5.25 1.05,-1.25 2.66,-3.41 3.18,-4.29 -1.34,-3.03 -2.3,-1.2 -2.29,-6.1l-0.03 -72.78c-1.31,-4.85 -2.76,-9.64 -4.34,-14.37l-0.09 19.4c0,0.05 0.63,73.93 0.05,75.28 -0.97,0.96 -1.3,1.57 -3.36,1.49 -2.61,-2.52 -1.67,-6.77 -1.67,-11.07l-0.05 -50.93c-0.1,-9.35 0.96,-39.18 -0.81,-49.46 -0.05,-0.27 -0.08,-0.53 -0.09,-0.79 -2.02,-4.88 -4.18,-9.69 -6.49,-14.42zm23.43 77.33c-0.03,1.09 -0.05,2.14 -0.06,3.13 -0.02,3.96 -0.58,7.57 -0.28,11.71l1.16 10.83c0.51,5.33 -3.23,5.25 -2.9,8.98 1.3,3.97 1.81,5.42 2.73,5.25l1.66 -2.2c0.01,-0.99 0.04,-1.98 0.04,-2.97 0,-11.78 -0.81,-23.37 -2.35,-34.73zm-136.05 90.09c-4.62,0.65 -11.01,-2.13 -16.18,-0.18 -2.8,1.05 -5.54,0.26 -9.32,0.48 -2.15,0.12 -2.33,1.11 -4.06,1.34 -1.59,0.22 -3.85,-0.26 -5.57,-0.27 -4.92,-0.02 -6.28,2.58 -5.38,-10.91 0.5,-7.5 -0.95,-18.48 -0.88,-21.9 0.19,-8.4 -0.16,-50.93 -0.91,-55.42 -0.69,-4.21 -0.52,-17.27 -0.32,-22.01 0.63,-14.67 -3.61,-24.23 9.51,-24.24 1.9,0 3.05,0.82 5.13,0.56 5.4,-0.66 -3.94,-1.58 15.24,-1.69l8.7 -0.06c0.41,0.01 1.06,0 1.45,0.07 3.48,0.67 0.47,11.39 1.63,14.67 0.46,1.32 1.57,-0.12 2.23,5.26 0.41,3.25 -0.25,4.87 -0.43,7.45l0.59 31.19c1.14,12.12 0.38,5.49 0.39,15.69 0,5.23 -0.16,10.59 -0.1,15.79 0.04,2.7 0.46,4.38 0.49,7.13 0.04,3.21 -0.54,4.64 -0.54,7.64l0.25 23.95c-0.04,5.15 -0.56,2.92 -1.92,5.46zm5.44 -2.41c0.13,-7.91 0.82,-16.07 0.08,-24.45l0.28 -23.94c0.02,-2.31 -0.47,-3.99 -0.53,-6.11 -0.05,-1.94 0.3,-3.55 0.27,-5.59 -0.22,-15.91 -1.53,-33.29 -0.68,-49.38 0.26,-4.97 -0.74,-6.91 -0.68,-11.24 0.08,-5.58 -0.87,-9.06 1.69,-10.93 4.16,-3.04 4.52,-1.64 9.89,-2.34l22.95 -1.88c2.91,0.04 3.24,0.02 5.59,-0.76 2.22,-0.74 3.21,-0.03 5.63,-0.19 6.9,-0.48 9.34,-2.54 13.44,0.71 -0.56,4.4 -0.42,43.41 1.56,51.28 0.46,1.84 -0.8,4.66 -0.83,7.38 -0.1,8.72 1.08,18.37 1.09,25.49 0,2.77 -0.44,6.05 -0.19,8.67 0.91,9.87 0.83,15.11 0.66,25.45 -0.04,2.84 -0.44,5.29 -0.43,8.16 0.05,10.55 3.62,9.17 -11.24,9.41 -2.2,0.04 -4.44,0.03 -6.65,0.04 -3.02,0.01 -2.6,0.05 -4.23,-1.31 0.19,-2.12 0.83,-2.11 0.85,-5.08 0.03,-4.25 0.46,-15.16 -0.38,-17.64 -4.76,-1.54 -6.62,1.55 -10.89,1.05 -8.43,-0.99 -5.32,-1.12 -9.15,2.31 -0.6,21.15 2.13,13.49 2.16,18.34 0,0.61 -0.11,0.88 -0.24,1.41 -0.25,1 -1.37,1.23 -2.01,1.32l-4.63 -0.02c-6.2,0.08 -6.74,5.67 -13.38,-0.16zm-22.07 -142.82c3.09,-0.59 3.11,1.52 5.86,-0.34 1.39,-0.94 3.34,-1.12 4.98,-0.68 1.27,0.35 3.2,1.92 4.47,2.75 0.34,2.25 0.56,2.36 -0.19,4.09 -6.28,0.59 -14.96,-0.55 -21.38,0.24 -4.17,0.52 -15.67,1.78 -18.68,-1.27 -0.42,-5.26 3.28,-7.28 7.2,-4.77 1.04,0.66 0.82,0.94 2.27,1.17l13.36 -0.39c0.7,-0.18 1.28,-0.64 2.11,-0.8zm129.61 -7.22l1.96 1.78c1.11,2.34 -0.65,81.1 0.44,92.68 0.18,1.83 0.67,4.96 0.91,6.71 0.47,3.31 -0.86,3.53 -0.98,6.58 -0.33,8.34 3.37,6.31 3.33,12.24 -0.01,0.02 -5.74,10.52 -7.1,11.33 -4.44,-2.1 -2.13,-10.54 -2.48,-15.41 -0.4,-5.55 -0.07,-12.16 -0.07,-17.82 0,-9.22 -1.23,-47.05 -0.59,-52.97 0.5,-4.61 -0.15,-12.15 -0.25,-17.32 -0.1,-5.23 0.97,-12.96 -0.82,-17.05 -1.94,-4.42 0.39,-3 0.78,-6.88 0.38,-3.71 0.86,-4.23 4.87,-3.87zm-66.12 2.86c1.37,-0.01 3.31,0.17 4.6,0.03 0.21,-0.03 6.23,-2.31 10.53,0.97 -0.07,3.36 -0.49,5.1 -7.49,5.13 -9.33,0.04 -18.96,0.83 -27.5,1.52 -4.4,0.36 -9.55,0.35 -13.76,1 -2.18,0.34 -4.02,1.13 -6.59,0.76 -3.03,-0.44 -2.61,-1.92 -2.31,-4.84 2.58,-2.53 4.32,-0.99 8.39,-1.53 4.67,-0.62 0.08,-1.21 8.17,-0.36 4.22,0.45 4.25,-1.82 7.31,-2.41l18.65 -0.27zm-76.07 0.18c-0.26,-1.58 -0.27,-13.03 0.23,-13.99 0.87,-1.67 0.73,-0.38 1.67,-2.39 0.51,-1.1 0.63,-1.34 1.08,-2.5 0.92,-2.35 0.64,-3.09 3.7,-2.91l-0.08 12.93c0.02,3.99 -0.56,12.16 -6.6,8.86zm43.38 -20.57c0.01,-3.41 -0.63,-7.8 0.78,-10.48 6.71,-0.29 5.36,3.47 5.35,9.46l0.01 10.19c0.04,5.74 0.58,6.12 -1.02,8.57 -1.42,0.29 -4.57,0.92 -5.08,-1l-0.04 -16.74zm22.27 -12.73c2.77,-2.73 1.65,-2.24 4.54,-2.22 1.79,2.78 1.12,14.34 1.12,18.51 0.01,5.76 2.59,12.03 -1.35,13.95 -2.49,0.2 -3.58,0.02 -4.86,-1.37 -0.3,-3.08 0.03,-2.83 0.48,-4.96l0.07 -23.91zm10.73 -2.28c2.25,-1.87 4.23,-0.93 5.99,0.75 0.71,1.55 0.58,24.87 0.56,28.52 -3.22,2.8 -5.02,-1.02 -6.07,-2.2 -0.78,-0.88 -0.02,-0.18 -0.64,-0.35l0.16 -26.72zm-43.01 20.61c-0.02,-3.22 0.01,-6.45 0.01,-9.68 -0.01,-6.81 0.03,-7.01 5.27,-6.84 2.61,4.28 0.71,15.5 0.7,17.53 -0.02,5.76 1.73,13 -5.82,12.42l-0.16 -13.43zm-11.97 13.25c-0.38,-5.96 0.31,-11.89 1.07,-17.47 0.37,-2.7 -0.93,-5.94 -0.37,-8.96 0.4,-2.11 2.41,-3.73 5.33,-3.22 1.6,0.99 1.72,20.74 1.63,22.53 -0.13,2.8 0.08,6.77 -1.89,8.85l-4.1 0.02 -1.67 -1.75zm-6.45 1.93c-6.37,0.63 -5.41,-0.47 -5.23,-6.54 0.05,-1.88 2,-13.27 1.63,-16.24 0,0 -2.16,-7.29 2.62,-8.11 7.2,-1.25 2.65,10.2 3.57,17.67 0.3,2.44 0.42,5.43 0.3,8.23 -0.1,2.68 -1.56,3.74 -2.89,4.99zm40.74 -3.12c-4.76,-4.59 1.08,-9.97 -1.03,-19.12 -0.76,-3.29 -2.57,-0.34 -1.37,-8.69 0.46,-3.18 3.17,-3.39 6.7,-3.26 1.13,4.63 0.94,10.64 0.75,15.96 -0.28,8.15 1.71,10.49 -1.7,15.11l-3.35 0zm39.58 -19.71c0.17,2.88 0.28,7.97 0.18,10.8 -0.28,7.56 -7.83,7.81 -7.97,1.46 -0.04,-1.96 0.32,-2.64 -0.24,-4.43 -1.16,-3.66 -1.44,-7.69 -0.64,-11.77 1.12,-5.73 -0.36,-2.17 -0.04,-7.24l1.73 -2.2c3.79,-0.29 5.87,0.35 5.96,4.19 0.21,9.77 0.79,5.38 1.02,9.19zm-145.52 -16.22c3.28,1.5 3.4,5.08 5.2,7.99 1.24,2 1.37,1.52 2.34,4.26 0.74,2.11 1.57,2.32 2.46,4.17 0.9,1.86 1.17,2.86 2.1,4.52 0.91,1.63 1.37,3.19 2.13,4.51 2.26,3.91 7.99,14.36 9.9,16.64 1.25,1.49 1.7,2.61 2.52,4.09 2.79,5.06 6.25,5.47 5.89,13.85 -0.18,4.22 0.08,8.97 0.1,13.25 0.12,21.62 0.31,43.01 1.8,64.59 0.29,4.19 -0.06,8.45 0.19,12.82 0.13,2.3 -0.03,4.49 0.07,6.67 0.1,2.1 0.75,2.8 0.81,5.55 0.09,3.91 0.39,9.77 -0.18,13.49 -2.36,1.11 -3.26,0.35 -3.83,-1.98 -0.91,-3.72 -0.44,-2.67 -2.66,-4.88 -0.28,-5.07 -1.19,-5.1 -2.35,-8.75 -0.46,-1.47 -0.57,-2.51 -1.13,-3.85 -0.81,-1.91 -1.16,-1.64 -2.68,-2.85 -0.24,-5.97 -0.88,-4.5 -2.39,-8.32 -1.66,-4.17 -0.65,-5.92 -5.62,-15.89 -0.16,-0.33 -3.13,-11.57 -5.35,-16.01l-8.47 -24.15c-1.88,-6.83 -0.77,-12.79 -1.21,-20.03 -0.12,-1.87 -0.58,-2.69 -0.59,-4.56 -0.01,-2.11 0.56,-2.96 0.64,-5.07 0.48,-12.34 -0.83,-45.43 0.18,-54.05 -1.43,-1.59 -3.59,-3.44 0.13,-6.01z"/>
  <path id="ruas" class="fil3" d="M281.65 105.69c0.82,-1.13 2.41,-1.39 3.54,-0.57 1.14,0.81 1.4,2.4 0.58,3.54l-22.22 30.83c-0.82,1.14 -2.4,1.4 -3.54,0.58 -0.44,-0.32 -0.75,-0.76 -0.92,-1.25l-45.69 -135.27c1.69,-0.29 3.38,-0.56 5.08,-0.81l43.83 129.8 19.34 -26.85zm-144.91 -76.25l48.62 132.11c0.47,1.32 -0.21,2.77 -1.52,3.25 -0.56,0.21 -1.14,0.2 -1.66,0.03l-141.78 -46.92c0.95,-1.48 1.92,-2.94 2.9,-4.4l135.5 44.84 -46.57 -126.48c1.5,-0.83 3,-1.64 4.51,-2.43z"/>
 </g>
</svg>
