<?xml version="1.0" encoding="UTF-8"?>
<!DOCTYPE svg PUBLIC "-//W3C//DTD SVG 1.1//EN" "http://www.w3.org/Graphics/SVG/1.1/DTD/svg11.dtd">
<!-- Creator: CorelDRAW 2020 (64 Bit) -->
<svg xmlns="http://www.w3.org/2000/svg" xml:space="preserve" width="512px" height="512px" version="1.1" style="shape-rendering:geometricPrecision; text-rendering:geometricPrecision; image-rendering:optimizeQuality; fill-rule:evenodd; clip-rule:evenodd"
viewBox="0 0 512 512"
 xmlns:xlink="http://www.w3.org/1999/xlink"
 xmlns:xodm="http://www.corel.com/coreldraw/odm/2003">
 <defs>
  <style type="text/css">
   <![CDATA[
    .fil2 {fill:#333333}
    .fil1 {fill:#C0CC66}
    .fil0 {fill:#FFEB9C}
    .fil3 {fill:#333333;fill-rule:nonzero}
   ]]>
  </style>
 </defs>
 <g id="Camada_x0020_1">
  <metadata id="CorelCorpID_0Corel-Layer"/>
  <path id="amarelos-2" class="fil0" d="M19.98 256.68c-3.1,0.23 -3.63,-2.13 -2.81,-4.68l4.43 -12.08c1.46,-2.53 0.75,-3.68 1.95,-6.37 3.06,-6.83 1.98,-6.9 3.21,-9.92 2.14,-5.24 1.26,-4.94 3.33,-8.84 1.42,-2.69 -0.37,-4.69 3.71,-4.65 0,1.99 -2.62,9.82 -3.36,12 -1.66,4.9 -2.04,3.69 -2.45,5.08 -0.65,2.18 -0.11,3.5 -1.34,6.08 -1.09,2.3 -6.51,19.85 -6.67,23.38zm-18.57 -3.89c4.25,0.31 2.16,2.73 12.67,4.69 -0.06,1.36 2.12,2.9 3.25,3.77 0.28,2.76 0.3,4.18 -1.3,6.21l-3.71 8.12c-0.75,2.81 -1.96,5.84 -3.92,8.1 -5.13,0.14 0.55,-7.51 0.96,-9.13 1.43,-5.75 1.18,-2.27 2.25,-5.25 0.88,-2.44 0.47,-3.25 2.48,-4.56l0.09 -3.95c-1.69,-0.48 -2.1,-0.71 -4.02,-0.62 -5.54,0.26 -1.52,3.91 -5.36,7.96 -2.25,2.36 0.47,4.72 -3.39,5.63l0 9.21c0.18,1.7 0.37,3.4 0.58,5.09 1.57,-0.61 1.27,-1.73 2.93,-1.67 2.09,0.08 1.46,2.01 1.57,4.12 1.88,1.6 3.84,1.3 6.99,1.09 2.64,-2.13 0.49,-3.05 2.24,-5.97 1.55,-2.59 1.44,-2.76 1.86,-6.04 0.35,-2.69 1.96,-3.07 2.44,-5.82 0.71,-3.97 0.99,-3.19 2.12,-5.97 0,-3.01 -0.82,-2.11 -1.35,-4.37 0.31,-3.58 4.91,-0.8 6.35,-0.03 0.59,3.63 -0.21,3.67 -1.82,5.13 -0.47,5.57 0.71,5.09 -2.95,7.94 -0.42,6.4 -0.52,4.2 -2.22,8.83 -0.57,1.58 -0.44,3.79 -0.89,4.72 -0.88,1.81 -2.05,0.54 -1.67,3.55 1.05,0.73 3.8,1.13 5.29,1.1l1.16 -0.23c0.07,-0.15 0.24,-0.1 0.36,-0.16 1.55,-1.75 0.73,-1.28 1,-3.76 0.22,-2.02 0.86,-1.71 1.69,-3.22 0.56,-1.03 0.69,-2.45 1.08,-3.69 0.47,-1.5 0.89,-1.56 1.53,-2.89 0.81,-1.68 1.1,-4.74 2.31,-7.23 1.74,-3.62 0.78,-3.78 1.47,-7.7 3.27,-0.59 4.94,1.21 7.33,1.96 2.54,0.81 5.21,0.17 7.1,2.23 -0.19,3.12 -1.65,2.34 -2.16,4.51 -0.66,2.83 0.7,2.88 1.12,5.1 -1.24,1.32 -2.27,0.86 -3.13,2.13 -0.75,1.12 -0.49,2.53 -0.97,3.83 -0.62,1.67 -0.9,1.27 -1.38,3.41 -1.28,5.72 -2.67,4.13 -3.48,6.57 -2.01,6.02 6.12,8.87 7.88,5.26 0.26,-0.53 0.34,-1.01 0.41,-1.59 0.15,-1.48 -0.12,-2.69 0.46,-4.08 1.06,-2.52 1.49,-0.29 2.21,-6.38 0.41,-3.5 1.66,-3.6 2.51,-6.4 1.94,-6.39 3.14,-5.71 0.31,-8.37 -1.29,-1.2 -0.99,-0.4 -1.07,-2.85 4.72,-0.58 0.08,0.55 8.52,1.96 7.77,1.29 2.61,1.21 8.31,2.62 3.11,0.77 5.02,2.48 8.72,2.38 11.41,-0.3 4.19,-0.19 9.92,-1.24l18.44 -3.2c5.52,-0.58 15.18,-3.47 17.88,-3.72 8.27,-0.74 3.38,-2.18 14.44,-1.94 4.15,0.08 3.32,-0.67 4.13,-1.29 1.67,-1.28 10.47,-2.54 13.35,-2.62 2.26,-0.07 2.42,-0.92 4.39,-1.25 2.69,-0.45 8.27,0.66 10.12,-0.54 4.92,-3.19 2.65,-1.41 8.38,-2.58 1.87,-0.38 2.38,-1.1 4.21,-1.52 6.79,-1.57 5.28,1.26 11.58,-4.06 0.05,-5.13 -1.79,-3.39 -2.51,-7.23 -0.16,-0.84 -0.18,-1.21 -0.36,-1.83 -0.37,-1.21 0.18,0.06 -0.67,-1.56l-3.73 -9.41c-1.23,-3.37 -1.35,-3.23 -1.54,-7.35 -1.73,-1.54 -4.3,-2.66 -6.68,-4.01 -3.8,-2.17 -2.88,-1.77 -7.91,-2.57 -3.74,-0.59 -4.92,-1.99 -7.82,-2.63 -3.46,-0.77 -4.35,-2.57 -6,-4.4 -4.74,-0.19 -0.81,1.96 -6.47,-0.65 -5.57,-2.57 -9.66,-2.39 -12.36,-4.2 -2.15,-1.45 -3.95,-0.81 -6.58,-1.69l-6.49 -2.32c-2.7,-0.83 0.09,-1 -6,-2.36l-18.82 -6.44c-3.69,-2.27 -4.12,-0.45 -6.85,-1.48 -2.63,-0.99 -0.69,-2.57 -5.61,-2.53 -5.12,0.04 -3.58,-0.99 -6.55,-1.96 -1.33,-0.43 -2.41,-0.28 -3.75,-0.59 -0.97,-0.23 -1.88,-1.01 -2.89,-1.46 -3.16,-1.4 -5.58,0.34 -11.58,-4.97 -3.19,-2.83 -5.14,-0.34 -6.26,-0.29l-5.57 -1.53c-1.94,-0.45 -1.9,-1.4 -4.92,-1.73 -2.4,-0.27 -3.32,-0.73 -4.95,-1.86 -2.96,-2.04 -3.96,-0.67 -6.11,-2.09 -4.44,-2.94 -5.32,-1.02 -8.8,-3.11 -2.95,-1.79 -2.36,-0.89 -5.75,-1.37 -1.63,-0.24 -2.66,-1.76 -3.65,-2.56l-0.28 -0.01c-7.1,19.37 -11.91,39.85 -14.14,61.1l0 23.76zm141.09 163.91c-1.67,-2.6 -2.01,-5.01 -1.67,-9.16l3.32 -3.07c5.92,1.72 4.22,13.01 -1.65,12.23zm43.02 -22.54c1.89,-1.45 4.35,-1.97 4.36,2.5 0,2.27 0.2,4.89 -0.23,6.99 -2.64,1.01 -4.39,1.02 -4.5,-2.15 -0.07,-2.03 -0.1,-5.45 0.37,-7.34zm-0.09 -13.95l3.64 -0.12c0.72,1.97 1.55,1.65 1.28,4.94 -2.64,0.13 -2.95,-0.49 -4.93,-1.86l0.01 -2.96zm-12.87 1.6c3.64,-4.72 6.93,2.2 6.4,4.09 -0.04,0.12 -0.18,0.42 -0.24,0.53 -1.04,1.79 -2.04,1.53 -3.71,1.33 -1.59,-6.24 -2.07,-3.43 -2.45,-5.95zm-30.05 -2.07c0.09,-1.96 -0.53,-6.55 0.72,-7.74 1.57,-1.48 3.91,0.86 4.84,1.93 0.13,1.7 -0.14,3.43 0.02,4.85 0.14,1.28 0.65,1.89 0.79,3.28 -2.4,1.32 -6.52,0.73 -9.61,2.11 -0.23,-2.19 0.87,-3 3.24,-4.43zm13.7 1.45l-0.73 0.49c-0.71,0.34 -1.61,0.42 -2.72,0.39 0.07,-1.47 0.76,-2.62 1.97,-3.32 1.6,-0.92 2.29,-0.23 3.69,-1.56 1.98,-2.92 -1.59,-6.05 -0.16,-8.47 1.79,-3.02 4.97,1.82 5.83,2.61l-0.56 7.74c-0.77,2.47 -4.6,0.47 -7.32,2.12zm19.71 -4.83c-0.48,0.58 -0.5,0.52 -1.07,1.25 -2.21,0.08 -3.4,0.37 -5.08,-0.29 0.08,-1.66 1.14,-2.21 2.58,-3.17l0 -8.02c5.83,-3.33 4.16,3.38 4.42,4.73 0.5,2.58 5.92,1.73 7.49,1.07l0.28 -2.78c-0.41,-0.58 -0.17,-0.34 -0.82,-1.01 -3.16,-3.24 1.04,-6.11 4.25,-5.27 0.49,1.76 0.77,3.82 1.46,5.34 1.32,2.9 3.96,2.05 0.27,6.52 -3.03,0.16 -5.02,-0.66 -7.3,0.61 -2.51,1.39 -3.16,0.86 -6.48,1.02zm8.65 -22.21c0.65,-5.65 -1.82,-5.11 1.12,-9.92 1.13,0.1 3.07,-0.03 3.76,1.09 1.59,2.62 -1.42,4.54 0.01,8.43 0.94,2.59 0.06,2.5 0.06,2.52 -0.88,2.7 -12,3.56 -12.14,3.63 -1.09,0.55 -0.94,1.44 -2.59,1.73 -1.12,0.19 -2.45,-0.13 -3.79,0.2 -2.49,0.61 -1.82,2.39 -5.32,2.39 -15.39,0.06 -7.4,1.06 -16.18,2.29 -5.66,0.79 -10.88,1.88 -9.54,-1.18 1.9,-4.34 0.81,-1.42 0.84,-6.26 0.02,-1.69 1.77,-4.95 3.91,-5.31 3.84,2.95 0.69,7.13 1.36,8.46 2.02,1.82 2.62,1.88 5.27,0.53 1.41,-0.72 4.26,-0.62 6.04,-1.06 0.26,-3.25 -1.6,-6.23 -0.64,-11.14 1.34,-2.66 6.05,0.01 7.46,1.12 0.33,4.42 -2.57,1.77 -2.06,6.62 1.29,0.91 2.11,1.49 4.34,1.24 1.42,-0.16 3.44,-0.42 4.41,-1.32 2.2,-2.02 0.81,-7.13 1.1,-10.47 0.91,-2.01 2.87,-1.55 4.62,-1.51 2.73,2.89 -0.59,3.43 0.52,9.72 4.52,2.21 4.69,-0.65 7.44,-1.8zm10.41 -38.36c-3.43,-2.92 -4.06,0.36 -9.07,1.08 -3.57,0.51 -4.22,1.81 -7.6,2.42 -1.33,0.24 -3.27,0.43 -4.48,0.75 -1.25,0.32 -2.2,1.02 -3.38,1.46 -2.59,0.97 -5.6,0.63 -8.02,1.55 -2.89,1.1 -4.97,1.35 -7.77,2.34 -1.15,0.4 -2.02,1.06 -3.31,1.46 -2.65,0.83 -5.99,0.6 -8.55,1.49 -2.51,0.88 -7.46,3.99 -7.54,6.6 3.02,1.94 3.18,-0.5 7.52,-1.31 3.14,-0.58 4.78,-1.86 7.58,-2.48 3.37,-0.75 4.95,-1.04 7.99,-2.04 2.88,-0.94 4.41,-1.72 8.11,-1.23l-0.17 2.14c-2.17,1.79 -7.05,-0.42 -6.3,2.88 0.03,0.12 0.1,0.24 0.14,0.35 0.04,0.1 0.13,0.2 0.19,0.29 2.35,4.15 0.85,2.13 1.46,7.17 1.56,-0.1 2.21,-0.66 3.26,-0.91 1.25,-0.3 2.28,-0.06 3.75,-0.25 1.11,-1.85 0.68,-3.14 1.53,-5.1l2.16 -3.92c2.8,0 2.47,0.3 4.01,1.14l0.31 6.24c-0.84,0.61 -1.08,1.02 -1.87,1.66 -1.71,1.36 -4.83,0.91 -6.64,1.91 -2.54,1.4 -10.25,3.33 -12.68,2.33 -1.92,-4.86 0,-6.48 0.56,-8.6 0.65,-2.47 -4.16,-2.14 -7.79,-0.45 -2.53,1.18 -3.7,1.68 -2.76,5.16 0.7,2.58 2.33,3.98 1.19,6.43 -1.03,2.23 -3.26,2.97 -6.31,2.1 -0.96,-2.38 0.01,-2.35 0.27,-4.62 0.34,-3.1 1.07,-6.87 -3.39,-5.8 -0.86,0.21 -1.58,0.67 -2.08,1.18 -6.21,6.26 0.79,5.38 -0.74,14.64 -0.36,2.15 0.02,10.3 0.04,13.11l-0.16 32.34c0.04,2.3 0.68,3.57 0.56,6.11l-0.27 19.24c-0.03,1.96 -0.92,3.23 -0.71,5.22 3.24,2.56 4.47,1.11 8.96,0.65 3.26,-0.34 1.38,-1.24 4.34,-1.48 3.2,-0.26 2.16,-0.17 4.77,-1 0.93,-0.3 1.32,-0.36 2.21,-0.75 3.79,-1.68 1.45,-1.8 7.01,-1.76 6.16,0.05 4.6,-1.86 8.35,-2.66 0.2,-2.02 0.59,-3 -1.4,-3.22 -2.29,-0.25 -2.92,2.86 -5.64,1.99 -4.25,-2.65 -1.29,-3.46 -2.08,-6.59 -0.38,-1.5 -1.53,-1.67 -0.89,-3.85 0.66,-2.23 1.37,-0.45 1.6,-3.18 -1.01,-1.2 -3.18,-2.37 -5.11,-0.83 -1.69,1.34 -0.22,9.92 -0.4,12.66 -0.14,2.08 -1.29,2.52 -3.16,2.28 -3.22,-0.42 -0.74,-5.49 -0.65,-7.1 0.14,-2.58 -0.36,-5.27 0.19,-7.79 0.9,-4.1 -0.89,-2.05 -0.89,-6.2 -0.01,-3.16 -0.04,-4.18 -0.96,-6.86 -2.57,0.08 -3.44,1.01 -6.09,1.83 -2.07,0.65 -2.82,1.88 -5.34,1.26l-0.07 -1.91c1.23,-1.2 2.54,-1.51 4.01,-2.77 0.34,-2.6 -0.34,-4.94 3.18,-4.21 1.57,0.33 2.98,2.58 3.82,3.65 3.11,0.21 3.84,-0.06 5.85,-1.47 3.67,-2.57 3.42,-2.66 3.67,-6.9 1.71,-0.52 1.9,-0.39 4.02,-0.14l1.25 4.18c0.2,0.09 0.15,0.22 1.1,0.39 2.18,0.39 4.94,-0.89 6.09,1.59 -0.33,0.65 -0.49,0.96 -0.97,1.74 -1.93,-0.84 -15.02,2.06 -15.78,3.32 -0.98,3.27 2.61,5.2 5.78,3.61 11.55,-5.78 6.98,-0.73 9.84,2.06 1.2,1.17 3.7,1.04 4.61,-0.32 1.17,-1.73 0.11,-3.7 0.82,-5.8 0.55,-1.63 1.49,-2.61 2.75,-3.36l1.98 0.62c0.42,3.69 -2.27,7.47 0.02,11.87 1.28,2.46 0.99,2.03 0.95,5.48 -0.03,2.36 0.33,4.19 -0.08,6.55 -0.91,1.2 -2.13,2.22 -4.24,1.24l-0.29 -10.57c-0.95,-0.56 -0.6,-0.51 -1.85,-0.68 -1.34,2.59 -1.37,3.86 -1.36,7.83 0,2.4 -0.48,5.4 0.12,7.74l0.33 0.58c2.38,1.52 3.05,-0.47 4.25,-0.95 0.84,-0.33 1.79,-0.1 2.77,-0.2 2.26,-0.24 5.18,-1.79 6.83,-2.44 1.65,-0.65 3.93,-0.15 5.59,-0.74 3.17,-1.15 1.87,-7.28 1.88,-10.11 0.02,-3.69 -0.49,-8.43 0.74,-11.14 4.39,-0.04 2.86,1.17 4.65,2.48 2.63,1.93 2.58,-1.41 2.44,-3.05 -0.56,-6.72 1.74,-13.1 -2.04,-14.24 -5.25,4.47 -1.01,10.23 -4.81,12.59 -1.21,-0.57 -0.38,-0.04 -0.87,-0.54 -0.75,-0.73 -0.76,-1.69 -0.8,-2.67l0.16 -14.01c0.01,-6.24 -1.04,-21.99 -0.64,-27.53 0.11,-1.39 0.62,-2.71 0.77,-3.99 0.58,-5.17 -0.79,-9.84 -0.53,-13.04l-0.01 -6.95c-0.42,-3.86 -6.66,-2.46 -6.99,1.28 -0.38,4.29 1.39,5.22 1.21,9.17 -2.85,3.04 -3.27,1.62 -7.55,2.74l0.86 -1.39c1.04,-2.6 0.68,-5.51 1.49,-8.17 0.03,-0.1 0.07,-0.21 0.1,-0.31l0.24 -2.25c-2.32,-0.33 -3.28,-0.68 -5.07,0.53 -0.07,0.05 -0.16,0.14 -0.23,0.19 -1.45,0.96 -5.52,2.06 -6.94,1.76 -1.07,-0.23 -2.58,-0.92 -2.92,-1.84 1.87,-1.44 3.27,-1.08 5.77,-1.77 2.12,-0.59 3.33,-1.48 5.87,-1.91 4.04,-0.68 3.34,0.17 6.31,-1.68 1.68,-1.04 3.96,-1.17 6.28,-1.48l1.78 -4.14zm-104.58 77.19l-2.05 0.09c-3.4,-4.01 -1.73,-3.35 -1.27,-6.03 0.13,-0.81 0.12,-2.03 0.16,-2.9 1.53,-1.19 5.44,-3.27 5.43,1.59 -0.02,5.39 0.98,3.65 -2.27,7.25zm23.3 -3.02c-2.51,1.3 -1.69,0.76 -4.33,0.37l-0.16 -4.58c-0.08,-5.34 -0.43,-5.61 4.65,-4.44l-0.16 8.65zm-10.37 1.89c1.16,1.31 2.23,2.17 2.31,3.14 0.18,2.01 -1.55,1.64 -3.24,1.52 -1.02,-1.13 -1.25,-1.53 -2.28,-2.85 -1.25,-1.62 -1.36,-1.39 -1.54,-3.98 -0.27,-4.13 -1.59,-6.37 0.84,-9.37 1.77,-0.12 3.08,-0.06 4.4,0.63l-0.49 10.91zm-17.42 -14.28c-0.1,-3.43 2.64,-4.51 5.94,-4.75 2.68,-0.19 7.52,-1.35 9.55,-0.33l0.09 2.51 -11.45 1.96c-1.62,0.54 -2.63,0.26 -4.13,0.61zm18.93 -6.47c2.14,-0.97 7.24,-0.86 9.96,-0.73l-0.05 2.4c-2.29,0.89 -2.31,-0.02 -4.52,0.24 -2.31,0.26 0.81,0.51 -4.18,1.18 -0.71,-1.43 -1.25,-1.33 -1.21,-3.09zm-16.05 -2.06c-1.3,-1.12 -2.48,-2.94 -1.6,-5.49 1.07,-3.12 -0.39,-4.65 1.31,-7.32 1.42,-0.14 2.6,0.06 3.8,1.16 1.12,1.01 0.67,3.3 0.65,4.78 -0.05,3.05 -0.52,6.78 -4.16,6.87zm22.74 -8.63c0.65,2.05 1.23,1.29 2.16,3.06 -0.48,2.09 -1.7,2.63 -3.93,2.53 -1.07,-1.17 -2.39,-4.51 -2.01,-6.79 1.37,-8.15 1,-7.11 4.63,-7.1 0.38,1.43 1.52,1.62 1.5,4.37 -0.03,3.25 -1.25,1.88 -2.35,3.93zm-8.16 -4.42c-0.5,3.48 0.83,14.27 -5.18,10.37 -0.11,-1.92 0.03,-3.66 -0.02,-5.53 -0.06,-2.54 -1.13,-2.9 -0.82,-4.69 0.2,-1.13 1.26,-2.68 2.74,-2.57 0.82,0.07 1.08,0.44 1.61,0.93 0.58,0.53 0.86,0.88 1.67,1.49zm-9.34 -6.87c-2.01,1.86 -3.39,3.44 -7.13,1.39 -0.3,-1.78 -0.1,-1.83 0.46,-3.33l7.55 -0.84c-1.29,-1.59 13.04,-4.89 13.73,-2.37 0.93,3.42 -5.06,2.59 -6.78,2.69 -2.08,0.12 -2.23,0.44 -3.5,1.38 -1.47,1.1 -2.09,0.82 -4.33,1.08zm4.71 -11.02c-0.74,-3.94 -0.03,-4.64 -0.04,-8.71 -0.01,-4.28 -0.05,-4.58 4.64,-3.86l-0.11 10.85c-2.05,0.33 -0.32,2.01 -4.49,1.72zm11.02 -15.5c2.18,0.02 3.46,2.25 3.66,2.7 0.04,0.09 0.08,0.21 0.11,0.31 0.42,1.29 0.24,5.43 0.09,6.89 -0.53,0.55 -1.06,1.04 -1.63,1.75 -2.93,3.65 -3.14,-0.42 -3.31,-1.82 -0.22,-1.82 -0.88,-1.88 -1.09,-3.49 -0.26,-2.04 1.34,-4.87 2.17,-6.34zm-21.68 3.52l2.45 -0.17c2.02,1.83 2.37,2.4 2.3,6.06 -0.05,2.52 0.26,6.33 -0.28,8.6l-2.89 0.37c-2.97,-0.54 -0.73,-5.91 -1.44,-11.44 -0.22,-1.69 -0.43,-1.48 -0.14,-3.42zm-4.3 -4.75c-2.57,3.55 -0.4,25.93 -2.15,32.68 -0.03,0.12 0.68,8.85 0.78,10.31 -2.65,1.76 -1.73,3.13 -2.1,7.04 -0.25,2.67 -0.04,6.29 -0.11,9.11 -0.07,3.11 0.46,5.34 0.48,8.73 0.02,3 -0.85,6.04 -0.02,8.14 4.03,0.28 0.68,-1.69 7.95,-0.5 2.92,0.49 2.83,-1.88 6.8,-1.6 0.28,4.3 0.06,3.13 -6.19,3.27 -0.68,1.02 -1.85,2.28 -3.05,2.45l-2.8 -0.01c-0.9,2.19 -1.48,2.44 0.06,4.58 5.77,8.02 2.79,4.55 2.22,8.55 -0.18,1.26 0.04,2.71 0.24,3.83 16.1,0.29 8.56,-0.99 16.38,-1.88 1.4,-0.16 2.2,-0.76 3.64,-1.08 5.16,-1.16 15.36,2.99 12.35,-17.96 -0.76,-5.28 1.98,-9.34 0.33,-16.64l-0.55 -13.4c0.09,-2.23 0.77,-1.87 0.96,-3.54 0.18,-1.52 -0.44,-2.55 -0.38,-4.35 0.08,-2.49 1.49,-9.64 -0.37,-12.45 -1.92,-2.88 -0.87,-4.42 -0.87,-8.08l-0.09 -22.74c-0.14,-4.91 -3.51,-3.2 -4.04,-1.17 -2.59,0.06 -6.49,-0.55 -7.43,2.43 -2.09,0.3 -5.24,-0.01 -6.83,0.38 -1.54,0.39 -2.72,2.02 -4.11,2.35 -2.09,0.5 -4.84,0.01 -6.03,0.52 -2.66,1.13 -1.56,0.91 -5.07,1.03zm98.39 -21.68c-1.02,2.15 -3.96,1.53 -6.29,2.29 -6.49,2.08 -8.51,1.22 -14.17,3.67 -3.26,1.42 -5.47,0.48 -8.1,1.32 -1.81,0.57 0.14,0.93 -6.17,2.45 -3.34,0.81 -0.13,0.66 -7.23,1.91 -3.53,0.62 -5.09,1.61 -7.28,-0.74 -0.99,-1.07 -4.32,-3.02 -2.23,-6.13 0.89,-1.32 4.65,-2.09 6.56,-2.29 1.37,-0.14 3.15,0.14 4.33,-0.07 2.42,-0.43 0.6,-2.3 6.69,-2.46l2.35 -0.14c0.1,-0.02 0.22,-0.06 0.32,-0.09l8.09 -2.42c2.98,-1.07 2.02,-1.53 6.42,-2.33 2.56,-0.47 4.96,-1.46 7.05,-2.02 6.76,-1.8 10.62,5.04 9.66,7.05zm-3.75 -35.02c-0.37,-0.76 -0.11,-0.32 -0.66,-1.11l-0.48 -0.61c-0.01,-0.1 -0.08,-0.12 -0.12,-0.18 -1.94,-0.25 -2.77,-0.08 -4.15,0.51 -0.22,2.88 0.83,4.31 1,7.58 0.21,4.25 0.15,3.22 1.64,6.19 1.24,2.45 1.09,4.32 1.1,7.35 0.02,3.98 0.19,4.46 -4.08,3.82 -0.86,-1.33 -0.74,-3.81 -1.39,-5.83 -0.57,-1.76 -1.07,-3.81 -1.55,-5.5 -1.67,-5.97 -1.53,-9.7 -4.39,-9.6 -2.87,0.1 -2.45,2.64 -2.11,5.19 0.29,2.07 0.46,3.86 1.08,5.78 1.24,3.85 2.63,7.17 1.73,12.23 -6.24,1.82 -6.81,-11.63 -8.32,-15.15 -0.99,-2.31 -0.77,-4.03 -1.35,-6.58 -1.25,-1.07 -1.78,-1.4 -4.15,-1.22 -2.31,2.66 -1.09,3.91 0.1,7.05l4.46 15.22c0.77,3.19 -3.85,6.01 -5.63,2.56 -4.61,-8.9 -1.83,-23.83 -10.31,-22.26 -1.41,3.54 0.09,3.05 1.03,6.19 0.69,2.33 0.56,4.5 1.1,6.72 0.52,2.13 1.56,3.8 2.07,6.28 0.51,2.49 1.17,3.93 1.68,5.92 -1.64,1.66 -4.52,2.83 -5.74,0.8l-3.3 -12.47c-0.64,-3.24 -0.34,-3.25 -1.62,-6.15 -0.65,-1.46 -0.35,-4.83 -1.16,-6.46l-4.3 -0.13c-3.03,4.04 0.22,5.77 2.04,13.83 0.98,4.31 4.21,10.68 3.48,14.05l-3.76 0.1c-4.97,-6 -1.86,-7.52 -3.82,-10.43 -2.21,-3.29 -0.36,-4.08 -2.32,-7.3 -2.17,-3.57 -0.36,-5.49 -2.38,-7.22l-1.6 -0.95c-0.83,-0.23 -1,-0.09 -1.81,-0.04 -3.81,1.52 0.68,8.2 1.15,13.31 0.31,3.46 2.12,1.65 2.58,6.11 0.41,3.91 1.83,4.27 1.99,6.98 -0.36,1.81 -3.59,3.11 -0.96,5.98 0.98,1.07 0.71,1.16 1.31,2.6 1.36,3.29 3.62,4.67 4.85,6.12 0.92,1.09 1.12,2 2,3.05 3.36,0.85 2.57,0.17 4.91,-1 1.22,-0.61 3.11,-0.41 5.04,-0.66 2.86,-0.37 4.84,-1.71 8.62,-2.69 4.61,-1.19 3.14,-2.14 9.4,-2.62 3.19,-0.24 1.16,-1.63 8.42,-2.65 2.69,-0.38 2.91,-0.27 4.81,-1.41 6.09,-3.62 8.94,0.3 13.23,-3.93 2.22,-2.19 -0.68,-6.7 -1.82,-7.78 -8.8,-8.33 -2.93,-5.47 -3.16,-11.16 -0.08,-2.12 -0.14,-4.37 -0.3,-6.45l-2.29 -2.32c-0.59,-1.41 1.5,-2.76 -1.79,-9.66zm53.8 70.59c-0.02,-0.13 -0.08,-0.44 -0.11,-0.57 -1.34,-6.14 0.41,-14.68 -1.34,-22.77 -1.04,-4.83 -0.4,-13.45 -0.68,-18.81 -0.13,-2.44 -1.2,-2.69 -2.39,-3.89l-2.75 0.35c-1.24,2.72 -0.25,16.9 0.54,20.64 1.27,5.99 0.35,15.41 0.85,21.8l0.57 22.3c-0.15,2.14 -0.65,2.75 -0.42,5.17 0.18,1.8 0.24,3.27 0.23,5.3 -0.02,9.18 0.16,5.66 2.46,8.73 -0.44,1.97 -0.18,0.95 -1.48,2.18l-0.64 0.66c-1.15,1.57 -0.87,12.83 -0.15,13.64 0.54,0.62 1.05,0.89 2.05,0.63 1.26,-0.33 2.19,-2.03 2.52,-2.45 1.22,-1.54 0.38,-0.58 0.81,-0.68 0.48,-10.09 0.12,-28.53 -0.05,-39.75 -0.05,-3.54 0.3,-9.28 -0.02,-12.48zm-96.3 -9.47c1.85,0.11 3.51,-0.03 5.33,-0.1 1.86,-0.07 2.4,-0.06 3.66,-0.8 3.95,-2.33 4.14,-0.85 7.45,-2.18 1.48,-0.6 1.95,-1.15 3.43,-1.88 2.13,-1.06 8.52,-2.42 11.15,-3.27 6.55,-2.13 5.19,-0.59 7.85,-2.17 5.26,-3.11 12.62,-1.92 15.42,-4.2 2.35,-1.92 3.87,-2.09 2.76,-6.49 -5.01,-1.22 -4.15,1.3 -6.93,2.21 -2.72,0.9 -6.22,-0.6 -8.62,0.98 -2.42,1.59 -17.42,5.75 -21.76,6.67 -2.87,0.61 -4.06,1.79 -6.74,2.46 -2.72,0.68 -5.85,0.07 -7.95,1.62 -3.35,2.49 -3.52,-0.05 -6.21,2.86 -0.14,2.56 -0.18,2.75 1.16,4.29zm-76.27 -34.06c-0.36,-2.6 0.29,-2.33 1.26,-3.77 0.92,-1.37 0.76,-2.44 1.17,-4.13 0.38,-1.53 0.17,-0.85 0.8,-1.85 1.71,-2.69 1.72,-1.86 1.48,-5.89 -4.17,-0.36 -6.9,0.81 -8,3.9 -1.1,3.06 -1.02,1.88 -2.2,3.87 -1.1,1.86 -0.03,2.57 -1.44,4.24 -1.47,1.73 -1.53,1.4 -1.63,4.6 -0.18,6.33 -5.05,7.48 -2.06,13.04 6.91,0.17 4.47,-4.63 5.9,-5.84 0.31,-0.27 2.71,-0.97 3.86,-1.79 2.8,-2 2.18,-0.11 3.93,-3.63 0.05,-0.09 0.11,-0.2 0.15,-0.29l1.45 -1.88c1.09,-1.06 2.21,-1.35 3.13,-2.61l3.88 -4.88c0.74,-0.8 0.47,-0.75 1.12,-0.86 0.13,-1.97 0.01,-2.17 -0.73,-3.56l-3.97 0.09c-1.38,1.75 -0.7,1.31 -1.52,3.65 -0.48,1.37 -1.22,1.66 -1.91,2.9 -1.36,2.49 -0.7,5.37 -4.67,4.69zm170.68 -7.98c2.8,-2.36 1.95,-2.69 1.13,-5.86 -4.26,-0.1 -5.54,0.29 -8.93,1 -3.42,0.71 -3.18,1.87 -7.51,1.91 -3.83,0.03 -3.52,1.44 -7.41,1.56 -2.66,0.08 -4.4,1.69 -5.42,3.3 -6.16,0.56 -8.54,-0.36 -12.32,3.11l0.05 2.18c1.27,3.07 7.14,0.89 7.21,0.88 0.91,-0.16 2.06,-0.13 3.06,-0.24 2.33,-2.42 1.08,-2.6 5.68,-2.43 7.95,0.28 7.03,-1 10.48,-2.23 1.33,-0.48 1.96,-0.4 3.51,-0.51 3.1,-0.22 3.67,-0.94 5.49,-2.53l4.98 -0.14zm-16.8 91.31c-0.11,-3.8 -0.16,-7.74 -0.18,-11.56 -0.02,-7.16 -2.54,-3.44 -2.96,-8.33 0.5,-2.37 2.31,0.94 2.75,-8.24 0.41,-8.52 0.19,-5 -1.16,-8.83 -2.98,-0.32 -4.34,-0.11 -6.4,1.34 -0.21,1.67 0.47,7.12 0.57,10.05 0.06,1.5 -0.18,3.88 0.27,5.19 0.76,2.23 1.53,0.51 1.54,3.98 -1.18,0.09 -0.81,0.32 -1.89,1.31 -0.16,2.92 -0.74,12.92 0.89,14.66 0.98,0.69 5.05,0.4 6.57,0.43zm-26.06 -151.38c-0.37,2.08 0.09,5.32 0.88,6.98 1.66,3.5 1.3,2.29 1.6,7 3.82,3.97 1.95,1.96 2.81,7.86 1.51,1.77 2.02,1.53 2.83,4.54 1.49,5.5 2.9,4.91 5.21,4.88 1.63,-5.34 -2.02,-3.73 -4.85,-14.27 -1.33,-4.97 0.89,-3.12 -2.44,-7.63 -1.35,-1.83 -2.73,-4.38 -2.82,-7.21 2.57,-2.37 4.97,-1.63 7.56,-2.69 4.5,-1.85 2.45,-1.56 8.49,-2.3l5.36 -4.02 -0.19 -3.39c-2.01,-0.51 -2.14,-0.76 -3.54,0.49 -4.51,4.02 -17.5,6.25 -20.9,9.76zm23.41 -1.78c0,2.54 1.12,2.76 2.03,6.07 0.82,2.97 1.78,3.75 2.56,6.19 1.21,3.71 5.03,15.39 6.99,19.23 2.43,4.77 -0.6,4.56 3,10.1 0.99,1.51 2.22,9.68 5.66,6.48 0.45,-0.53 0.93,-0.11 0.51,-1.97 -0.17,-0.7 -0.57,-1.16 -0.84,-1.96 -0.42,-1.22 -0.65,-2.93 -1.02,-4.25 -0.41,-1.48 -0.99,-2.22 -1.66,-3.56 -1.01,-2.01 -0.48,-2.34 -1,-4.31 -0.34,-1.3 -1.45,-1.66 -2.03,-3.14 -0.88,-2.24 0.57,-3.91 -1.42,-6.4 -3.13,-3.92 -1.17,-5.35 -1.87,-6.72 -0.54,-1.06 -1.5,0.77 -4.61,-8.23 -0.89,-2.58 -2.11,-7.75 -4.76,-8.76l-1.54 1.23zm-176.66 74.33c1.66,-3.67 3.11,-6.28 4.04,-10.44 0.8,-3.63 2.53,-3.69 2.84,-6.65 0.52,-4.83 2.39,-3.45 2.06,-7.28 -1.23,-1.42 -3.63,-2.43 -6.02,-1.16 -1.71,1.06 -1.28,1.74 -1.84,3.92 -0.42,1.66 -1.15,2.43 -1.69,3.56 -1.47,3.08 -0.36,4.47 -2.56,7.9 -1.11,1.74 -0.95,2.1 -1.12,4.45 -0.22,3.05 -0.82,1.9 -1.82,3.6 -0.63,1.06 -0.71,5.21 4.49,4.95l1.62 -2.85zm48.29 18.75c5.44,2.87 13.65,-2.1 18.95,-2.26 5.06,-0.16 4.08,-1.89 9.29,-2.45 4.21,-0.45 6.42,-1.24 5.99,-5.35 -2.43,-1.13 -8.15,-1.65 -10.13,-0.06 -1.5,1.2 -1.04,1.79 -3.82,1.93 -2.68,0.13 -2.81,-0.45 -4.78,0.79 -4.61,2.9 -6.55,0.91 -9.52,2.3 -4.35,2.04 -6.14,1.92 -5.98,5.1zm35.74 -15.5c0.33,-6.14 -2.98,-12.14 -3.16,-13.35 -0.5,-3.28 -0.69,-9.54 -2.44,-10.37 -2.32,-1.11 -6.38,0.84 -4.62,6.4 1.02,3.22 -0.27,4.04 1.59,6.71 3.45,4.94 -0.76,5.85 4.94,11.63 3.12,-0.13 2.33,0.19 3.69,-1.02zm-27.99 -0.22c0.4,2.82 -0.21,3.81 1.59,5.64 2.95,0.41 6.32,-0.16 5.98,-3.4 -0.16,-1.53 -0.91,-1.84 -1.57,-3.16l-3.15 -11.23c-0.8,-2.93 -0.87,-4.71 -2.75,-6.48l-2.24 0.18c-3.66,3.63 0.06,6.88 0.09,12.33 0.03,4.66 1.56,2.65 2.05,6.12zm119.94 96.4c2.13,-0.34 3.33,-1.47 4.63,-2.49 0.39,-2.57 -0.87,-4.37 -0.97,-7.42 -0.05,-1.51 0.2,-2.55 0.26,-3.95 0.18,-4.33 -1.89,-3.48 -7.46,-3.52 -1.68,3.85 -0.37,2.9 -0.34,6.59 0.05,7.38 -2.17,11.79 3.88,10.79zm-127.21 -88.49c6.09,0.76 3.18,-2.79 2.72,-5.22 -0.3,-1.62 0.09,-3.3 -0.22,-4.81 -0.21,-1.03 -0.9,-1.95 -1.31,-3.46 -0.69,-2.55 -1.86,-4.77 -2.5,-7.1 -0.72,-2.66 -0.06,-5.72 -3.82,-5.09 -2.43,2.95 -1.89,2.38 -1.02,6.07 0.39,1.72 -0.07,2.24 0.88,3.56 0.52,0.7 1.53,1.41 1.8,2.51 0.62,2.51 -0.42,5.68 0.59,8.22 0.5,1.28 2.23,4.3 2.88,5.32zm122.68 27.29c3.66,2.47 5.48,0.23 7.57,-1.92 0.76,-1.66 -0.79,-8.64 -0.8,-9.24 -0.24,-12.68 -4.12,-6.59 -6.91,-4.83l0.14 15.99zm-178.32 -34.97c-4.92,-2.68 -1.88,-2.35 -4.1,-3.31l-0.29 2.22c-3.18,-0.26 -11.61,-4.97 -14.66,-3.6 -2.39,4.78 10.12,5.08 15.22,7.7 2.27,1.17 1.85,0.98 4.53,1.5 5.85,1.14 7.37,4.1 13.55,3.99 0.67,-3.48 -2.42,-3.61 -9.12,-5.72 -4.24,-1.34 -2.39,-1.28 -5.13,-2.78zm73.23 -21.12c-3.05,-0.1 -4.4,2.08 -3.57,5.24 1.95,7.43 -0.18,2.92 3.1,11.3 0.49,1.27 1.18,8 5.9,7.59 2.46,-5.1 -1,-7.42 -1.94,-12.3 -0.75,-3.93 -0.96,-9.7 -3.49,-11.83zm103.25 16.2c-0.67,5.42 0.98,8.28 0.33,13.03 -0.6,4.37 1.22,5.85 5.16,5.06 0.8,-0.16 0.57,-0.16 1.14,-0.51l1.2 -0.81c-1.91,-8.13 1.23,-10.56 -2.18,-16.26 -0.55,-0.93 -0.61,-0.52 -0.55,-1.23 -2.54,-0.17 -3.44,-0.17 -5.1,0.72zm-10.58 -11.48c0.32,-3.17 -0.18,-3.69 -1.39,-6.02 -1.23,-2.38 -0.27,-3.12 -0.62,-5.73 -0.17,-1.29 -3.04,-8.16 -3.79,-9.81 -2.6,-0.5 -2.61,0.06 -4.01,1.24 0.03,4.13 2.66,9.31 2.77,9.86 0.55,2.93 1.02,9.47 1.52,10.24 1.42,2.2 3.92,0.73 5.52,0.22zm21.64 20.8c0.9,3.56 -0.69,5.21 2.34,7.59l2.18 -0.13c0.43,-1.35 1.7,-0.43 1.94,-3.33 0.16,-1.88 -0.15,-3.22 -0.69,-4.74 -0.95,-2.73 -0.27,-7.51 -0.43,-10.71l-2.13 -1.36c-1.08,0.47 -1.25,0.8 -2.23,1.87 -0.78,0.86 -1.04,1.01 -1.97,1.8 -0.05,2.23 0.42,6.78 0.99,9.01zm-148.07 -1.47c2.02,0.55 1.02,1 4.68,2.38 1.57,0.6 5.33,2.53 5.18,-0.13l-1.01 -2.85c-0.64,-1.95 -0.53,-2.7 -0.53,-4.78 0,-3.16 -2.71,-5.49 -4.27,-5.94 -1.97,0.64 -2.87,3.31 -1.71,5.04 0.56,0.83 1.43,0.98 1.1,2.52 -0.26,1.21 -0.81,1.32 -2.09,1.56l-1.57 -3.68c-2.95,-0.47 -5.02,-0.49 -4.02,3.05 0.65,2.29 2.03,2.22 4.24,2.83zm150.37 34.28c-0.17,3.37 -0.42,6.55 -0.13,9.84 0.37,4.13 -1.16,7.38 4.54,6.42 0.08,-1.2 0.63,-2.29 0.6,-4.34l-0.16 -14.39 -2.19 -0.06c-0.98,0.93 -1.53,1.6 -2.66,2.53zm-158.17 -30.29c1.39,0.94 2.81,1.37 4.63,2.24 2.24,1.08 10.82,6.57 14.21,4.46l0.02 -2.94 -10.23 -4.21c-2.95,-2.08 -0.44,-1.2 -5.12,-2.36 -3.07,-0.76 -3.75,-0.44 -3.51,2.81zm139.74 -26.32c3.98,0.11 2.9,-0.47 1.43,-9.18 -0.55,-3.26 -1,-8.17 -2.05,-11.25l-4.01 -0.14c-0.11,1.28 1.14,10.31 1.5,11.03 4.04,8.07 0.69,5.03 3.13,9.54zm-0.38 37.93c-1.39,2.48 -0.71,7.62 -0.71,10.94 0.01,4.85 -1.25,7.72 4.09,7.22 1.77,-2.93 0.26,-5.35 0.16,-8.99 -0.1,-3.71 0.11,-7.38 -1.29,-9.27l-2.25 0.1zm18.06 1.78c0.84,2.9 -0.32,7.42 0.55,11.11 2.1,0.93 2.74,0.31 4.39,-0.6l0.02 -14.68c-1.96,-0.57 -2.14,-0.53 -4.17,-0.26 -1.23,1.46 -1.54,1.83 -0.79,4.43zm-17.46 40.34c-0.99,2.48 -0.91,6.36 -0.81,9.46l2.46 7.9 2.47 -0.2c0.76,-1.53 -0.1,-13.38 -0.32,-15.72 -1.26,-1 -1.48,-1.59 -3.8,-1.44zm10.92 -82.23c0.31,-3.09 -1.07,-9.59 -2.11,-12.86 -0.58,-1.83 -0.78,-2.02 -1.65,-3.14 -3.23,-0.03 -3.59,0.43 -2.58,3.36 0.72,2.1 -0.14,2.24 -0.04,4.9l1.87 1.51c0.27,4.34 -0.7,8.01 4.51,6.23zm-10.42 62.91c-3.24,0.88 -0.42,4.71 -1.41,9.22 -0.43,1.97 0.12,3.37 0.81,4.62 3.96,0.77 4.23,-0.69 3.94,-4.3 -0.3,-3.69 0.74,-4.75 0.52,-8.05 -1,-0.84 -1.72,-2.06 -3.86,-1.49zm-2.01 -43.84c-0.21,3.21 -0.46,15.15 0.37,17.63l3.13 -0.1c0.27,-3.3 0.1,-7.09 0.12,-10.45 0.04,-5.69 0.42,-7.3 -3.62,-7.08zm23.25 59.29c-1.43,0.36 -0.69,0.1 -1.57,1.23 -1.92,2.47 -2.69,2.5 -1.72,5.38 0.85,2.51 0.8,6.98 1.89,9.44l2.57 -0.25c0.56,-2.71 -0.21,-13.92 -1.17,-15.8zm-1.72 20.36c-2.95,5.97 -0.76,16.86 2.37,14.36 0.34,-0.28 1.76,-13.91 -0.29,-14.42l-2.08 0.06zm-90.85 -57.69c-0.15,-3.05 -1.4,-3.3 -3.38,-6.36 -0.99,-1.53 -2.8,-4.28 -5.32,-2.41 -0.33,1.76 0,1.83 1.01,2.87 3.96,4.06 2.76,1.34 4.94,5.98l2.75 -0.08zm85.97 -51.21c-0.84,2.11 -0.87,4.15 -0.66,7.24l1.13 0.64c1.13,0.59 2.74,0.8 3.49,0.12 1.49,-1.35 -0.04,-3.34 -0.04,-3.35 -1.24,-2.66 -0.75,-2.75 -1.56,-4.75l-2.36 0.1zm-212.71 -3.07c0.73,-0.62 1.42,-1.67 2.15,-2.57 1.16,-1.4 0.97,-1.85 0.67,-3.9 -0.98,-0.83 -1.4,-1.53 -2.82,-1.97l0 8.44zm168.24 135.03c-0.77,-0.33 -2.58,-0.71 -3.94,-0.47 -1.79,0.33 -1.49,0.81 -1.42,2.84l3.12 -0.19 2.24 -2.18zm-7.82 4.05c-0.78,-2.19 -1.38,-2.35 -4.02,-2.08 -0.76,0.81 -0.68,0.22 -1.08,1.56 1.56,0.93 3.21,0.41 5.1,0.52zm64.88 -128.38c0.76,-2.36 0.09,-3.13 -2.79,-3.08l0.06 1.95c1.14,1.07 0.77,0.8 2.73,1.13zm-221.71 31.19c0.28,-0.51 0.64,-1.07 1.1,-1.69 2.39,-3.23 11.07,1.35 15.35,1.98 3.46,0.51 6.78,3.74 10.48,2.41 2.3,-0.83 0.09,-1.27 3.24,-1.37 2.53,3.54 0.37,5.05 6.87,5.07 2.29,0.58 3.41,3.29 5.68,4.13 2.16,-1.54 1.9,-3.55 5.64,-2.9 1.51,0.94 0.64,10.58 0.48,11.22 -1.14,4.73 1.17,5.76 -0.98,10.85 -0.62,1.45 -0.43,4.05 -0.17,5.75 0.48,3.18 1.45,1.18 -0.21,4.82 -0.97,2.13 -0.98,42 -1.15,48.54 -0.04,1.82 -1.48,10.77 0.44,11.26 3.22,0.84 2.05,-7.74 2.1,-10.4 0.07,-3.21 1.31,-2.05 0.59,-4.98 -1.01,-4.09 0.75,-2.93 0.85,-5.5 0.08,-2.19 -1.68,-2.39 -1.45,-4.76 0.16,-1.63 1.49,-2.26 1.68,-4.84 0.18,-2.5 1.31,-9.8 1,-11.13 -1.69,-7.19 -0.37,-28.01 -0.34,-37.37 0,-2.33 -0.14,-3.97 0.39,-5.98 0.67,-2.51 0.07,-3.61 0.28,-6.09 1.35,-1.77 2.85,-3.33 5.19,-2.27 1.99,0.91 3.98,1.67 5.7,2.58 3.41,1.82 3.77,0.81 6.49,1.85 0.95,0.36 4.56,2.69 5.21,3.36 0.04,2.25 -0.87,2.99 -0.94,5.68 -0.05,2.3 0.23,4.69 0.29,6.99 0.05,2.31 -0.51,3.88 -0.47,6.11 0.16,11.19 -0.61,22.49 -0.52,33.64l0.32 53.87 -20.6 -9.68c-8.8,-10.78 -16.74,-22.29 -23.71,-34.42 0.74,0.17 1.66,0.5 2.9,1.19 1.77,0.97 3.81,1.18 5.01,1.99 1.53,1.03 2.11,3.64 3.84,1.03 -0.45,-1.73 -0.11,-0.94 -1.65,-1.88 -1.26,-0.77 -0.78,-0.54 -1.88,-1.57 -1.51,-1.42 -2.96,-1.63 -3.45,-4.01 -0.92,-4.36 0.82,-3.85 1.56,-5.78 0.77,-1.99 0.12,-5.15 -0.81,-6.28 -2.31,-0.51 -2.94,-0.27 -3.42,1.13 -2.16,6.36 -0.71,5.02 -0.18,7.62 0.37,1.77 -0.44,2.77 -0.7,3.8 -1.03,0.12 -1.88,0.19 -2.66,0.18 -2.13,-3.82 -4.17,-7.69 -6.11,-11.62 0.07,-0.26 0.16,-0.55 0.29,-0.9 1.14,-3.13 -0.39,-6.19 -3.27,-5.36 -1.37,-2.97 -2.68,-5.98 -3.93,-9.01 0.7,0.12 1.26,0.43 2.33,1.2 1.87,1.36 2.63,1.79 5.1,1.07 0.45,-1.32 0.33,-2.67 0.48,-4.33 0.18,-1.99 0.89,-2.19 1.33,-4.01 -0.34,-1.44 -0.7,-1.32 -0.84,-2.65 -0.17,-1.48 0.15,-1.6 -0.29,-3.31 -4.37,-0.87 -3.61,8.15 -3.85,9.42 -1.23,0.55 -2.8,1.06 -4.35,0.63 -0.34,-0.2 -0.67,-0.41 -0.98,-0.64 -1,-2.47 -1.96,-4.96 -2.88,-7.48 0.79,-2.94 1.81,-6.18 -0.43,-7.2 -0.89,-0.11 -1.56,-0.1 -2.06,0 -3.22,-9.74 -5.88,-19.74 -7.93,-29.96zm57.57 98.15l3.5 -0.11c1.47,2.1 2.69,8 -0.81,10.5 -1.63,1.17 -1.05,1.44 -2.89,1.41 -1.75,-7.12 -1.85,-2.98 -2.61,-6 -0.36,-1.46 0.07,-2.32 0.82,-3.15 0.85,-0.96 1.22,-1.58 1.99,-2.65zm4.58 -25.94c0.42,2.72 0.22,6.73 0.26,9.63 0.02,1.44 -0.1,3.2 -1.99,2.46 -1.05,-0.4 -4.4,-6.56 -3.77,-10.79 0.46,-3.11 3.54,-2.78 5.5,-1.3zm-4.9 -10.78c3.15,-0.59 5.04,-0.68 4.49,2.75l-0.77 0.96 -2.53 -0.01c-1.21,-1.11 -1.85,-1.48 -1.19,-3.7zm-26.39 -11.5c0.75,-4.17 -1.21,-12.61 3.82,-11.63 1.78,2.69 0.56,9.79 0.71,13.37 1.52,2.32 2.74,1.13 2.77,5.07 -2.42,0.35 -4.25,-2.16 -5.82,-2.99 -2.51,-1.32 -5.32,0.42 -6.48,-2.38 1.64,-0.97 3.05,-0.3 5,-1.44zm31.73 -3.73c0.37,2.83 0.21,4.52 -0.47,6.93 -0.89,3.17 1.55,4.85 -3.22,4.52 -2.65,-1.22 -1.02,-4.65 -1.23,-6.85 -0.23,-2.34 -0.74,-2.35 -0.17,-4.93 1.29,-0.98 3.89,-0.52 5.09,0.33zm-4.5 -9.79c1.09,-0.36 2.41,0.57 3.47,0.81 1.26,0.28 8.31,-0.52 5.12,4.7 -3.31,0.29 -2.53,-2.06 -5.64,-2.33 -1.13,-0.09 -2.63,0.35 -3.5,-0.58 -0.8,-0.86 -0.44,-2.28 0.55,-2.6zm3.11 -4.91c-3.73,0.31 -4.16,-1.14 -4.17,-4.72 -0.01,-2.49 0.03,-5.55 1.01,-7.35 3.49,-0.78 4.08,-0.23 6,1.61 0.32,3.43 -0.92,8.55 -2.84,10.46zm-41.42 -8.66c0.45,-1.46 0.78,-0.6 0.91,-3.03 0.23,-4.28 -0.87,-6.67 0.94,-10.2l2.71 0.18c1.27,3.89 0.19,8.73 0.6,13.03 0.18,0.44 7.26,6.98 8.81,2.84 0.24,-0.64 0.21,-1.24 0.17,-1.92 -0.13,-2.44 -0.99,-5.78 1.47,-9.47 5.33,-0.67 2.27,4.28 2.98,7.6 0.7,3.26 -0.24,2.43 -0.41,4.95 -0.16,2.44 0.8,2.31 0.71,4.64 -2.81,0.6 -3.5,0.33 -5.13,-1.21 -2.58,-2.45 -2.66,-0.24 -5.38,-1.6 -0.86,-0.43 -1.3,-1.01 -2.43,-1.51 -2.1,-0.92 -4.37,-0.77 -5.95,-4.3zm-8.93 -1.51c-2.8,-0.49 -4.22,0.87 -5.74,-1.11 0.22,-1.78 1.59,-2.49 3.11,-2.81 0.15,-2.84 -1.08,-4.14 -0.31,-5.81 1.52,-3.3 -0.05,-2 0.29,-5.51l2.68 -1.12 1.44 1.45c0.81,1.77 -1.62,8.29 1.78,13.99 0.84,1.41 1.52,1.53 2.23,2.64 -3.49,0.23 -2.85,-1.26 -5.48,-1.72zm114.96 102.22c-0.07,-1.21 -0.13,-2.42 -0.12,-3.73 0.01,-2.6 0.36,-4.75 0.44,-6.99 0.07,-1.99 -0.48,-4.22 -0.51,-6.55 -0.02,-2.57 0.71,-4.91 0.53,-6.97 -0.99,-11.74 -0.97,-37.89 -0.65,-48.95l-0.15 -28.12c-1.98,-0.88 -2.45,-1.39 -3.6,-3.28 -1.56,-2.55 -1.47,-3.49 -2.14,-5.1l-2.85 0.24c-0.52,1.66 -0.25,14.08 -0.08,16.61 0.54,7.86 -0.1,42.21 -0.75,48.48 -0.62,0.07 -0.58,0.18 -1.31,0.64 -0.08,3.94 0.45,1.78 1.3,4.38 0.62,1.9 0.33,21.55 -0.02,23.77 -0.03,0.19 -0.07,0.36 -0.12,0.51 2.88,4.06 6.72,9.92 10.03,15.06z"/>
  <path id="amarelos-1" class="fil0" d="M444.88 183c0,0 1.82,-13.2 3.19,-13.2 1.36,0 7.96,1.37 7.96,1.37l1.14 -15.7 7.51 -5.24 12.98 -22.38c12.2,21.07 21.48,44.04 27.3,68.35l-0.17 19.97 -4.72 8.59 -49.62 66.23 -1.59 -7.96 -0.91 -81.02 -3.07 -19.01zm-29.22 1.19l30.49 -3.86 1.83 18.43 1.59 93.08 -5.92 8.42 -18.89 0.68 -10.24 -1.14 -1.82 -112.42 2.96 -3.19zm-83.84 -8.88c5.19,2.84 5.69,-4.17 5.67,-7.59l0.07 -11.09c-2.63,-0.17 -2.39,0.47 -3.18,2.49 -0.38,1 -0.48,1.2 -0.92,2.14 -0.81,1.73 -0.69,0.62 -1.44,2.05 -0.42,0.82 -0.42,10.65 -0.2,12zm37.22 -17.64l0.04 14.36c0.03,0.11 0.11,0.25 0.14,0.34 0.22,0.67 1.45,0.79 2.08,0.8 0.69,0.01 1.69,-0.19 2.13,-0.29 1.38,-2.09 0.91,-2.42 0.88,-7.35l-0.01 -8.73c0.01,-5.15 1.16,-8.37 -4.59,-8.12 -1.21,2.3 -0.66,6.06 -0.67,8.99zm-8.59 4.81l0.14 11.52c6.48,0.49 4.98,-5.72 4.99,-10.66 0.01,-1.74 1.65,-11.37 -0.6,-15.04 -4.49,-0.15 -4.52,0.03 -4.52,5.87 0,2.77 -0.02,5.54 -0.01,8.31zm27.69 -15.73l-0.05 20.51c-0.38,1.83 -0.68,1.62 -0.42,4.26 1.1,1.18 2.04,1.34 4.17,1.17 3.38,-1.65 1.17,-7.03 1.16,-11.96 0,-3.58 0.58,-13.5 -0.96,-15.89 -2.48,-0.02 -1.52,-0.44 -3.9,1.91zm9.21 -1.96l-0.13 22.93c0.52,0.14 -0.13,-0.46 0.54,0.29 0.91,1.02 2.44,4.3 5.21,1.89 0.02,-3.12 0.13,-23.13 -0.48,-24.47 -1.51,-1.44 -3.2,-2.24 -5.14,-0.64zm-17.74 28.03l2.87 0c2.92,-3.97 1.22,-5.97 1.46,-12.97 0.15,-4.56 0.32,-9.71 -0.65,-13.68 -3.02,-0.12 -5.35,0.06 -5.74,2.79 -1.04,7.16 0.51,4.63 1.17,7.46 1.81,7.85 -3.2,12.47 0.89,16.4zm-29.42 1.02l1.43 1.5 3.52 -0.02c1.69,-1.78 1.51,-5.19 1.62,-7.59 0.07,-1.53 -0.03,-18.48 -1.4,-19.33 -2.51,-0.43 -4.23,0.95 -4.57,2.77 -0.49,2.59 0.63,5.37 0.32,7.68 -0.66,4.79 -1.25,9.87 -0.92,14.99zm-5.54 1.66c1.14,-1.07 2.39,-1.99 2.49,-4.28 0.09,-2.4 -0.01,-4.97 -0.27,-7.06 -0.79,-6.41 3.12,-16.23 -3.06,-15.17 -4.1,0.71 -2.25,6.96 -2.25,6.97 0.32,2.54 -1.35,12.31 -1.4,13.93 -0.15,5.2 -0.97,6.15 4.49,5.61zm61.44 -29.18c-0.28,4.35 0.99,1.3 0.03,6.21 -0.69,3.5 -0.45,6.95 0.55,10.1 0.48,1.54 0.17,2.12 0.2,3.8 0.12,5.45 6.6,5.23 6.84,-1.26 0.09,-2.42 -0.01,-6.79 -0.15,-9.26 -0.2,-3.27 -0.7,0.5 -0.88,-7.88 -0.07,-3.3 -1.86,-3.85 -5.11,-3.6l-1.48 1.89zm-84.87 36.69c2.58,2.62 12.45,1.54 16.03,1.09 5.51,-0.67 12.95,0.3 18.34,-0.21 0.64,-1.48 0.45,-1.57 0.16,-3.5 -1.08,-0.72 -2.74,-2.06 -3.83,-2.36 -1.41,-0.38 -3.08,-0.23 -4.27,0.58 -2.36,1.6 -2.38,-0.21 -5.03,0.29 -0.71,0.14 -1.21,0.53 -1.81,0.69l-11.46 0.33c-1.25,-0.19 -1.06,-0.44 -1.95,-1 -3.36,-2.15 -6.53,-0.42 -6.18,4.09zm75.86 -7.85l-15.99 0.23c-2.63,0.51 -2.66,2.45 -6.28,2.07 -6.93,-0.73 -3,-0.23 -7,0.31 -3.49,0.46 -4.99,-0.86 -7.2,1.31 -0.26,2.51 -0.62,3.78 1.98,4.15 2.2,0.32 3.78,-0.36 5.66,-0.65 3.6,-0.55 8.02,-0.54 11.8,-0.85 7.33,-0.6 15.59,-1.28 23.59,-1.31 6.01,-0.03 6.36,-1.52 6.42,-4.4 -3.68,-2.82 -8.85,-0.86 -9.03,-0.83 -1.1,0.12 -2.77,-0.03 -3.95,-0.03zm76.22 -54.52l-2.49 3.72c-4.51,6.25 -7.67,11.55 -13.19,18.25 -4.1,4.98 -2.58,7.1 -6.34,9.42 -5.78,3.57 -1.75,1.45 -5.35,5.11 -2.22,2.25 -5.09,4.24 -7.97,2.5 -1.31,-1.01 -0.77,-1.85 -1.81,-3.47 -0.9,-1.4 -1.75,-1.68 -2.78,-2.9 -2.35,-2.79 -1.23,-5.01 -6.35,-5.3 -0.02,0.08 -0.08,0.11 -0.09,0.22l-0.25 0.52c-0.36,0.88 -0.31,0.38 -0.5,1.5 -0.12,0.76 -0.07,2.27 -0.05,3.09 0.03,2.19 0.17,4.35 0.19,6.56 0.05,4.18 3.17,8.93 -2.48,8.56 -2.51,-1.08 -1.09,-7.35 -1.91,-13.36 -0.53,-3.85 1.13,-9.96 -1.69,-11.15 -3.24,-0.24 -4.34,1.02 -3.48,4.26 1.21,4.55 -0.16,4.21 0.46,8.54 0.92,6.55 -0.06,12.05 2.16,15.76 2,0.24 5.9,0.67 7.75,0.03 0.67,-0.23 4.31,-2.44 4.88,-3.03 0.68,-4.42 -0.86,-5.64 -0.59,-8.99 3.69,-0.61 4.96,-0.4 4.95,3.3 -0.01,1.17 -0.08,2.84 0.03,3.96 0.33,3.16 2.02,1.76 4.69,2.6l0.57 2.1c-3.17,1.87 -4.2,0.58 -7.1,1.59 -3.28,1.16 -4.08,0.83 -7.78,1.11 -2.76,0.21 -3.39,1.52 -6.96,1.54 -4.96,0.03 -3.83,0.61 -6.29,2.84l-0.02 2.77c3.62,0.72 0.4,-0.89 6.72,-0.98 2.71,-0.04 5.12,-0.38 7.88,-0.43 4.65,-0.08 3.3,0.27 7.11,-1.24 3.87,-1.55 5.2,1.18 7.13,-0.31 1.06,-1.23 1.07,-2.89 1.31,-5.06l2.63 -2.18c0.29,-3.26 -0.37,-3.71 -0.38,-6.24 3.34,-2.77 3.53,-1.24 4.18,0.52 0.32,0.86 0.03,0.43 0.74,1.56 7.04,0.74 2.31,-2.23 2.27,-5.89 -0.02,-2.22 2.2,-6.69 3.37,-8.3 1.19,-1.66 3.12,-1.65 4.78,-3.06 -0.17,-7.32 -0.26,-4.01 4.79,-10.98 3.22,-4.44 6.43,-9.92 9.81,-14.89 -0.83,-1.4 -1.68,-2.79 -2.55,-4.17zm-176 35.44c-0.77,-1.58 -1.48,-1.76 -2.12,-3.58 -0.82,-2.35 -0.94,-1.93 -2,-3.65 -1.54,-2.5 -1.65,-5.57 -4.46,-6.86 -3.19,2.21 -1.34,3.8 -0.12,5.16 -0.86,7.4 0.26,35.78 -0.14,46.37 -0.07,1.81 -0.56,2.54 -0.55,4.35 0,1.61 0.4,2.31 0.5,3.91 0.38,6.21 -0.58,11.32 1.03,17.19l7.27 20.71c1.91,3.82 4.46,13.45 4.6,13.74 4.26,8.55 3.39,10.05 4.81,13.63 1.3,3.28 1.85,2.01 2.05,7.14 1.31,1.03 1.61,0.81 2.3,2.44 0.48,1.15 0.58,2.04 0.98,3.3 0.99,3.14 1.77,3.16 2.01,7.51 1.91,1.9 1.5,1 2.29,4.18 0.48,2.01 1.26,2.65 3.27,1.71 0.49,-3.2 0.24,-8.22 0.16,-11.58 -0.05,-2.35 -0.61,-2.96 -0.69,-4.76 -0.09,-1.87 0.04,-3.75 -0.07,-5.72 -0.21,-3.75 0.09,-7.4 -0.16,-11 -1.27,-18.51 -1.44,-36.86 -1.54,-55.41 -0.02,-3.67 -0.24,-7.75 -0.09,-11.36 0.31,-7.19 -2.66,-7.55 -5.05,-11.89 -0.7,-1.27 -1.09,-2.23 -2.16,-3.51 -1.64,-1.95 -6.56,-10.92 -8.49,-14.27 -0.65,-1.13 -1.05,-2.47 -1.83,-3.87 -0.8,-1.42 -1.03,-2.28 -1.8,-3.88zm34.06 144.66c-1.97,0.05 -3.55,-1.47 -3.54,-3.24 0.02,-1.32 0.76,-1.65 1.08,-2.72 0.36,-1.22 0.26,-2.33 0.67,-3.22 2.77,-0.45 2.71,1.03 4.48,2.45 0.41,4.99 0.03,-0.23 -2.69,6.73zm12.9 -2.36l-3.81 0.3c-0.2,-1.4 0.19,-0.58 -0.84,-0.94 -0.03,-5.07 1.23,-7.63 6.44,-6.02 0.13,2.79 -0.76,5.09 -1.79,6.66zm-12.16 -24.92c0,1.66 2,6.45 2.89,6.95 0.08,0.04 5.86,1.76 6.27,-1.65 0.26,-2.13 -1.18,-9.86 2.08,-11.09 3.38,-1.27 3.66,4.11 2.43,7.4 -0.46,1.25 0.43,8.05 0.8,9.88 -3.5,0.04 -5.73,-0.83 -9.12,-0.24 -4.07,0.72 -6.5,0.6 -9.21,-0.44 -0.05,-3.51 1.16,-6.18 0.57,-9.86 -0.83,-5.13 -1.7,-1.09 0.55,-7.73l1.73 -0.49c3.51,2.18 3.27,4.53 1.01,7.27zm1.54 -14.74c1.47,0.78 3.6,0.56 5.58,0.37 0.05,-0.09 0.11,-0.22 0.14,-0.28l1.55 -2.58c0.53,-1.07 0.4,-2.68 0.39,-4.18 -0.01,-3.28 -0.47,-5.44 -0.42,-8.58 3.18,-1.8 6.49,0.3 6.17,3.76 -0.13,1.39 -1.35,2.59 -0.66,4.47 1.33,3.63 2.17,2.86 -0.75,6.03l0.46 4.52c-3.06,0.01 -6.28,0.11 -9.32,0.06 -2.69,-0.04 -4.94,-0.71 -7.99,-0.97 -0.16,-2.58 0.68,-2.53 0.73,-8.42 0.02,-3.22 -0.71,-5.78 -0.24,-8.5 3.24,-1.44 5.01,-1.53 5.04,1.47 0.03,3.94 0.74,4.46 0.6,6.13 -0.17,1.95 -3.09,5.13 -1.28,6.7zm-7.1 -21.09c-0.05,-1.83 0.19,-2.14 1.15,-3.05 2.77,-2.67 2.07,-1.22 1.94,-10.93 -0.03,-2.9 -0.71,-7.48 3.64,-5.8 2.8,1.09 -0.05,12.84 0.4,15.9 1.67,0.1 4.96,0.27 6.54,0.06 5.51,-0.73 -0.71,-11.38 3.13,-15.97 1.86,0.01 3.15,0.96 3.75,2.57 0.51,1.4 0.58,16.91 0.45,17.47 -2.35,0.6 -8.2,0.05 -11.21,0.38 -2.92,0.32 -7.02,0.87 -9.79,-0.63zm14.88 -42.57c0.9,-0.74 2.5,-1.34 4.28,-0.74 1.26,0.43 2.12,1.35 2.28,2.68 0.62,5.24 0.15,5.42 -0.89,7.18 -1.26,2.13 -0.16,2.96 2.15,4.53l-0.59 3.21c-5.19,0.39 -4.19,-1.51 -7.93,-1.52 -5.39,-0.02 -3.94,-1.59 -8.69,0.67 -1.91,0.91 -7.07,2.47 -7.28,-0.97 1.81,-1.7 2.47,-0.27 4.8,-2.62l0.14 -10.95c0.04,-0.14 0.07,-0.25 0.11,-0.38 0.05,-0.12 0.09,-0.23 0.14,-0.34 0.04,-0.09 -0.05,-0.89 1.6,-1.21 5.34,-1.02 1.74,8.1 1.98,11.13 0.92,2.03 3.99,1.92 5.81,1.62l2.64 -1.23c0.37,-3.41 -0.57,-2.53 -0.71,-5.18 -0.09,-1.61 0,-4.27 0.16,-5.88zm15.46 108.43c1.17,-2.18 1.62,-0.26 1.65,-4.68l-0.21 -20.55c0,-2.57 0.5,-3.8 0.46,-6.55 -0.03,-2.36 -0.38,-3.8 -0.41,-6.12 -0.06,-4.46 0.08,-9.05 0.08,-13.54 -0.02,-8.75 0.64,-3.07 -0.34,-13.47l-0.5 -26.75c0.15,-2.21 0.71,-3.61 0.37,-6.39 -0.57,-4.62 -1.52,-3.39 -1.92,-4.51 -1,-2.82 1.59,-12.02 -1.39,-12.59 -0.34,-0.06 -0.9,-0.06 -1.25,-0.06l-7.46 0.05c-16.46,0.09 -8.45,0.88 -13.08,1.45 -1.79,0.22 -2.77,-0.48 -4.4,-0.48 -11.26,0.01 -7.62,8.21 -8.16,20.8 -0.17,4.06 -0.32,15.27 0.28,18.88 0.64,3.85 0.94,40.33 0.78,47.54 -0.07,2.93 1.18,12.35 0.75,18.79 -0.77,11.57 0.4,9.34 4.62,9.36 1.48,0.01 3.41,0.42 4.78,0.23 1.48,-0.2 1.64,-1.04 3.48,-1.15 3.24,-0.19 5.59,0.49 7.99,-0.41 4.44,-1.67 9.93,0.71 13.88,0.15zm16.41 -39.05c2.41,8.83 -2.75,8.81 -3.98,7.53 -0.84,-0.86 -0.51,-4.54 -0.32,-5.96 0.4,-2.88 1.97,-2.15 4.3,-1.57zm9.23 0.11c0.79,-0.69 1.56,-1.52 2.14,-2.19 1,-0.01 3.32,-0.36 4.16,1.42 1.13,2.38 -1.62,11.31 -4.27,6.38 -2.11,-3.91 -2.2,-1.4 -2.03,-5.61zm15.16 -3.57l2.46 -0.14c1.49,1.85 3.31,1.26 2.63,5.57 -0.52,3.32 -6.18,5.4 -7.04,0.86 -0.23,-1.18 -0.14,-2.42 -0.12,-3.62 2.82,-2.45 0.98,-1.57 2.07,-2.67zm1.4 -9.16c1.19,-1.66 -0.4,-2.01 -0.98,-3.4 -0.56,-1.34 -0.17,-3.58 -0.18,-5.12 -0.01,-3.61 0.15,-6.59 4.29,-5.93 2.26,3.2 0.48,6.14 0.4,6.45 -0.18,0.76 -0.13,1.75 -0.12,2.54 0.07,11.04 1.4,3.45 1.25,9.7l-33.34 0.57c-1.85,-0.37 -1.47,-0.85 -1.54,-1.54 -0.07,-0.74 -0.1,-0.52 0.1,-1.22 0.17,-0.6 0.78,-1.22 1.11,-1.73 0.71,-1.09 0.72,-2.39 0.73,-4.02 0.01,-1.93 0.04,-3.19 -0.71,-4.41 -1.93,-3.14 -0.6,-4.94 2.53,-4.95 1.06,0 1.18,-0.01 2.02,0.34 2.99,1.24 1.18,5.28 0.45,7.08 -3.07,7.51 2.13,10.38 9.3,5.45 0.58,-4.38 -3.78,-16.36 5.4,-12.69 0.37,4.68 0.04,9.58 1.26,14.33 1.6,0.14 3.2,0.22 4.8,0.08 3.57,-0.32 3.23,-1.53 3.23,-1.53zm-2.39 -37.79c1.09,-0.98 1.88,-1.15 3.89,-1.02 3.38,1.47 1.61,10.69 1.95,13.7 1.6,1.18 2.87,1.35 2.79,3.93 -2.26,1.32 -8.29,1.92 -11.29,1.97 -2.26,0.03 -4.29,0.09 -6.56,0.03 -2.57,-0.06 -3.82,0.39 -6.12,0.39l-14.54 -0.08c-0.34,-3.55 7.93,-4.77 2.57,-8.69l0.11 -6.8c3.88,-2.31 2.72,-2.4 5.91,-2.27 0.37,3.74 -1.05,3.77 -0.85,6.7 0.1,1.46 0.4,1.48 0.49,3.04 0.07,1.13 -0.01,2.34 0.05,3.52 3.63,3.52 5.87,1.34 8.65,-0.87 0.22,-1.74 0.15,-3.51 0.17,-5.27 0.01,-0.23 0.03,-1.07 0.01,-1.26 -0.13,-1.01 0.06,-0.29 -0.29,-0.97 -0.27,-0.53 -0.85,-0.93 -1.26,-1.24l0.05 -2.62c1.06,-0.75 2.14,-1.11 3.75,-1.01 1.69,0.1 0.87,-0.02 1.91,0.54 1.5,0.79 0.1,-0.03 1.23,0.86l0.04 6.6c0.01,3.1 -0.51,4.82 0.63,5.84 1.23,1.17 6.24,-0.3 7.38,-1.03 0.32,-2.16 -1.52,-9.53 -0.67,-13.99zm-4.61 -7.19c2.36,-1.41 3.5,-0.67 3.5,-6.34 -0.02,-9.1 -1.17,-9.21 4.8,-8.85 0.1,1.05 0.47,2.57 0.51,4.05 0.13,4.09 -0.17,3.01 -0.52,3.65 -1.48,2.73 0.13,4.6 0.24,5.19 0.68,3.59 -2.4,1 -5.48,3.2 -1.44,1.03 -3.31,0.64 -5.12,0.8l2.07 -1.7zm-9.14 -14.96l3.65 -0.15c-0.03,2.94 1.63,2.91 0.4,7.71 -1.1,4.28 1.5,3.16 1.52,7.36 -4.51,2.08 -5.73,2.33 -12.4,2.33 -9.87,-0.01 -7.66,1.44 -7.67,-9.95 0,-2.4 -1.02,-4.7 0.12,-6.21 1.45,-1.92 3.01,-1.08 4.29,0.31 2.1,2.27 0.27,9.89 0.83,12.89 1.83,0.95 4.76,0.67 6.94,0.45l3.12 -3.07c0.01,-2.53 -1.01,-2.25 -1.22,-5.22 -0.17,-2.51 -0.38,-4.29 0.42,-6.45zm-21.38 109.54c5.69,5.01 6.16,0.21 11.47,0.14l3.98 0.02c0.55,-0.08 1.5,-0.28 1.72,-1.13 0.11,-0.46 0.21,-0.69 0.2,-1.21 -0.03,-4.17 -2.37,2.41 -1.85,-15.73 3.29,-2.95 0.62,-2.84 7.85,-1.99 3.66,0.43 5.26,-2.22 9.34,-0.9 0.72,2.13 0.35,11.48 0.33,15.14 -0.02,2.54 -0.57,2.53 -0.73,4.35 1.4,1.17 1.03,1.13 3.63,1.12 1.89,-0.01 3.81,0 5.7,-0.03 12.75,-0.2 9.69,0.98 9.65,-8.07 -0.01,-2.46 0.33,-4.56 0.37,-7 0.14,-8.87 0.21,-13.37 -0.58,-21.83 -0.2,-2.25 0.17,-5.06 0.17,-7.44 -0.01,-6.11 -1.02,-14.39 -0.93,-21.87 0.02,-2.34 1.1,-4.75 0.7,-6.33 -1.69,-6.75 -1.81,-40.22 -1.33,-43.99 -3.52,-2.8 -5.61,-1.02 -11.53,-0.61 -2.08,0.14 -2.93,-0.47 -4.83,0.16 -2.02,0.67 -2.3,0.68 -4.8,0.65l-19.69 1.61c-4.6,0.61 -4.91,-0.59 -8.48,2.01 -2.2,1.61 -1.38,4.59 -1.45,9.38 -0.05,3.72 0.81,5.38 0.58,9.65 -0.72,13.8 0.4,28.7 0.59,42.36 0.02,1.74 -0.28,3.12 -0.23,4.79 0.05,1.82 0.47,3.26 0.45,5.24l-0.24 20.54c0.64,7.19 0.05,14.19 -0.06,20.97zm34.66 -259.61c-10.02,15.25 -22.12,32.72 -22.39,33.57 -0.75,2.35 -0.16,2.96 -1.61,4.59 -1.23,1.39 -1.87,1.31 -2.79,2.86l-5.05 6.73c-1.78,1.89 -0.75,2.32 -2.2,3.95 -1.92,2.16 -6.38,7.53 -7.54,9.85 -1.64,3.27 -2.76,4.44 -4.47,7.36 -1.6,2.72 -3.37,5.26 -6.92,5.09 -0.14,-4.87 2.87,-4.35 4.48,-6.99 1.46,-2.38 -0.87,-1.2 4,-7.41 2.56,-3.28 9.97,-15.56 11.39,-17.03 5.66,-5.86 2.27,-3.18 4.58,-6.83 1.03,-1.62 14.62,-21.89 25.23,-37.88 -11.74,-7.44 -24.12,-13.97 -37.05,-19.45l-1.3 0c-0.67,2.75 -29.37,46.94 -30.7,49.32 -1.08,1.93 -1.38,2.33 -2.72,3.9l-5.27 7.48c-0.97,2.93 -2.65,3.06 -4.08,5.54l-3.63 6.3c-1.03,1.62 -5.25,6.5 -7.37,10.06 -2.85,4.81 -7.08,9.49 -9.81,14.32 -0.41,0.72 -0.69,1.55 -1.13,2.35 -0.91,1.66 -2.23,1.8 -2.22,4.53 1.94,3.1 2.74,0.16 5.06,4.74 2.22,4.37 8.7,13.77 10.08,17.01 0.43,1.01 0.24,1.16 0.6,2.05 0.45,1.08 1.35,1.61 2.01,2.78l3.45 6.17c0.71,1.47 0.71,2.88 1.23,4.11 0.61,1.42 1.61,1.13 2.46,2.25 0.73,0.96 0.66,2.37 1.32,3.46 1.52,2.51 4.05,3.01 1.72,6.11l-1.68 0.02c-3.56,-3.51 -10.6,-18.98 -11.39,-20.09 -2.65,-3.75 -6.27,-10.83 -7.36,-13.2 -0.76,-1.65 -1.65,-4.99 -3.58,-5.66 -2.42,-0.85 -2.09,1.4 -1.22,3.04 0.4,0.76 1.05,1.64 1.69,2.69 1.26,2.04 1.3,4.19 2.47,5.81 1.21,1.69 2.42,2.94 3.35,4.96l2.81 5.95c0.56,0.87 1.14,1.48 1.62,2.3 0.66,1.14 0.71,1.84 1.29,3.08 0.69,1.46 2.25,3.92 3.18,5.56 1.14,2.01 1.41,3.94 2.66,5.63 2.36,3.15 1.87,3.51 3.37,5.35l3.46 0.02c0.02,-1.93 3.42,-1.61 5.5,-5.8 2.88,-5.78 4.77,-2.8 7.73,-10.44 0.76,-1.95 1.37,-2.43 2.26,-4.08 3.07,-5.76 7.6,-7.11 4.16,-12.83 -1,-1.67 -1.23,-3 -2.06,-4.49 -0.84,-1.49 -1.77,-2.32 -2.85,-3.7 -1.23,-1.56 -1.62,-2.79 -2.61,-4.4 -0.91,-1.49 -1.48,-3.36 -2.21,-4.31 -3.01,-3.95 -1.64,-3.14 -4.13,-5.49 -1.82,-1.73 -3.84,-3.88 -2.62,-6.76l2.07 -0.29c3.96,2.5 2.77,4.7 5.24,7.15 1.8,1.78 1.15,1.7 2,4.06 0.65,1.82 1.58,1.94 2.62,3.53l2.61 3.53c1.82,2.29 2.16,5.33 4.85,7.38 1.62,1.24 1.52,1.58 2.91,3.14 3.65,0.15 5.6,-0.59 9.49,-0.55 3.63,0.05 7.26,-0.02 10.92,0.03 3.73,0.04 5.6,-0.9 9.2,-1.27 6.17,-0.65 15.16,-0.19 20.45,-1.05 4.39,-0.73 6.54,-0.19 10.55,-0.5 1.7,-0.14 2.29,-0.77 4.35,-0.84 1.81,-0.07 3.47,0.21 5.31,0 1.66,-0.19 2.66,-0.67 4.78,-0.54 7.23,0.42 4.75,1.22 10.35,-6.55l5.34 -7.34c1.28,-1.74 2.21,-3.52 3.55,-5.18l18.28 -26.49c-16.55,-20.24 -36.14,-37.89 -58.07,-52.27z"/>
  <path id="gramado" class="fil1" d="M209.27 4.27l51.29 151.79 95.86 -135.6c-25.22,-10.77 -52.52,-17.61 -81.14,-19.74l-47.49 0.83c-6.24,0.69 -12.42,1.59 -18.52,2.72zm-69.57 23.61l54.71 148.49 -157.83 -52.3c24.65,-40.91 60.41,-74.37 103.12,-96.19z"/>
  <path id="arestas-2" class="fil2" d="M156.73 403.22c0.4,-1.34 0.32,-0.75 1.08,-1.56 2.64,-0.27 3.24,-0.11 4.02,2.08 -1.89,-0.11 -3.54,0.41 -5.1,-0.52zm10.68 -1.35l-3.12 0.19c-0.07,-2.03 -0.37,-2.51 1.42,-2.84 1.36,-0.24 3.17,0.14 3.94,0.47l-2.24 2.18zm51.59 -25.24l2.08 -0.06c2.05,0.51 0.63,14.14 0.29,14.42 -3.13,2.5 -5.32,-8.39 -2.37,-14.36zm-12.34 1.65c5.57,0.04 7.64,-0.81 7.46,3.52 -0.06,1.4 -0.31,2.44 -0.26,3.95 0.1,3.05 1.36,4.85 0.97,7.42 -1.3,1.02 -2.5,2.15 -4.63,2.49 -6.05,1 -3.83,-3.41 -3.88,-10.79 -0.03,-3.69 -1.34,-2.74 0.34,-6.59zm-7.68 -18.14c2.32,-0.15 2.54,0.44 3.8,1.44 0.22,2.34 1.08,14.19 0.32,15.72l-2.47 0.2 -2.46 -7.9c-0.1,-3.1 -0.18,-6.98 0.81,-9.46zm21.74 -3.87c0.96,1.88 1.73,13.09 1.17,15.8l-2.57 0.25c-1.09,-2.46 -1.04,-6.93 -1.89,-9.44 -0.97,-2.88 -0.2,-2.91 1.72,-5.38 0.88,-1.13 0.14,-0.87 1.57,-1.23zm-136.94 -34.9c3.51,-0.12 2.41,0.1 5.07,-1.03 1.19,-0.51 3.94,-0.02 6.03,-0.52 1.39,-0.33 2.57,-1.96 4.11,-2.35 1.59,-0.39 4.74,-0.08 6.83,-0.38 0.94,-2.98 4.84,-2.37 7.43,-2.43 0.53,-2.03 3.9,-3.74 4.04,1.17l0.09 22.74c0,3.66 -1.05,5.2 0.87,8.08 1.86,2.81 0.45,9.96 0.37,12.45 -0.06,1.8 0.56,2.83 0.38,4.35 -0.19,1.67 -0.87,1.31 -0.96,3.54l0.55 13.4c1.65,7.3 -1.09,11.36 -0.33,16.64 3.01,20.95 -7.19,16.8 -12.35,17.96 -1.44,0.32 -2.24,0.92 -3.64,1.08 -7.82,0.89 -0.28,2.17 -16.38,1.88 -0.2,-1.12 -0.42,-2.57 -0.24,-3.83 0.57,-4 3.55,-0.53 -2.22,-8.55 -1.54,-2.14 -0.96,-2.39 -0.06,-4.58l2.8 0.01c1.2,-0.17 2.37,-1.43 3.05,-2.45 6.25,-0.14 6.47,1.03 6.19,-3.27 -3.97,-0.28 -3.88,2.09 -6.8,1.6 -7.27,-1.19 -3.92,0.78 -7.95,0.5 -0.83,-2.1 0.04,-5.14 0.02,-8.14 -0.02,-3.39 -0.55,-5.62 -0.48,-8.73 0.07,-2.82 -0.14,-6.44 0.11,-9.11 0.37,-3.91 -0.55,-5.28 2.1,-7.04 -0.1,-1.46 -0.81,-10.19 -0.78,-10.31 1.75,-6.75 -0.42,-29.13 2.15,-32.68zm133.41 15.33c1.13,-0.93 1.68,-1.6 2.66,-2.53l2.19 0.06 0.16 14.39c0.03,2.05 -0.52,3.14 -0.6,4.34 -5.7,0.96 -4.17,-2.29 -4.54,-6.42 -0.29,-3.29 -0.04,-6.47 0.13,-9.84zm-13.85 5.61c0.22,3.3 -0.82,4.36 -0.52,8.05 0.29,3.61 0.02,5.07 -3.94,4.3 -0.69,-1.25 -1.24,-2.65 -0.81,-4.62 0.99,-4.51 -1.83,-8.34 1.41,-9.22 2.14,-0.57 2.86,0.65 3.86,1.49zm2.24 -2.87c2.06,-1.45 3.42,-1.66 6.4,-1.34 1.35,3.83 1.57,0.31 1.16,8.83 -0.44,9.18 -2.25,5.87 -2.75,8.24 0.42,4.89 2.94,1.17 2.96,8.33 0.02,3.82 0.07,7.76 0.18,11.56 -1.52,-0.03 -5.59,0.26 -6.57,-0.43 -1.63,-1.74 -1.05,-11.74 -0.89,-14.66 1.08,-0.99 0.71,-1.22 1.89,-1.31 -0.01,-3.47 -0.78,-1.75 -1.54,-3.98 -0.45,-1.31 -0.21,-3.69 -0.27,-5.19 -0.1,-2.93 -0.78,-8.38 -0.57,-10.05zm-7.2 -21.42l2.25 -0.1c1.4,1.89 1.19,5.56 1.29,9.27 0.1,3.64 1.61,6.06 -0.16,8.99 -5.34,0.5 -4.08,-2.37 -4.09,-7.22 0,-3.32 -0.68,-8.46 0.71,-10.94zm7.29 16.44l-0.14 -15.99c2.79,-1.76 6.67,-7.85 6.91,4.83 0.01,0.6 1.56,7.58 0.8,9.24 -2.09,2.15 -3.91,4.39 -7.57,1.92zm11.56 -19.09c2.03,-0.27 2.21,-0.31 4.17,0.26l-0.02 14.68c-1.65,0.91 -2.29,1.53 -4.39,0.6 -0.87,-3.69 0.29,-8.21 -0.55,-11.11 -0.75,-2.6 -0.44,-2.97 0.79,-4.43zm-24.03 4.56c-2.32,0.31 -4.6,0.44 -6.28,1.48 -2.97,1.85 -2.27,1 -6.31,1.68 -2.54,0.43 -3.75,1.32 -5.87,1.91 -2.5,0.69 -3.9,0.33 -5.77,1.77 0.34,0.92 1.85,1.61 2.92,1.84 1.42,0.3 5.49,-0.8 6.94,-1.76 0.07,-0.05 0.16,-0.14 0.23,-0.19 1.79,-1.21 2.75,-0.86 5.07,-0.53l-0.24 2.25c-0.03,0.1 -0.07,0.21 -0.1,0.31 -0.81,2.66 -0.45,5.57 -1.49,8.17l-0.86 1.39c4.28,-1.12 4.7,0.3 7.55,-2.74 0.18,-3.95 -1.59,-4.88 -1.21,-9.17 0.33,-3.74 6.57,-5.14 6.99,-1.28l0.01 6.95c-0.26,3.2 1.11,7.87 0.53,13.04 -0.15,1.28 -0.66,2.6 -0.77,3.99 -0.4,5.54 0.65,21.29 0.64,27.53l-0.16 14.01c0.04,0.98 0.05,1.94 0.8,2.67 0.49,0.5 -0.34,-0.03 0.87,0.54 3.8,-2.36 -0.44,-8.12 4.81,-12.59 3.78,1.14 1.48,7.52 2.04,14.24 0.14,1.64 0.19,4.98 -2.44,3.05 -1.79,-1.31 -0.26,-2.52 -4.65,-2.48 -1.23,2.71 -0.72,7.45 -0.74,11.14 -0.01,2.83 1.29,8.96 -1.88,10.11 -1.66,0.59 -3.94,0.09 -5.59,0.74 -1.65,0.65 -4.57,2.2 -6.83,2.44 -0.98,0.1 -1.93,-0.13 -2.77,0.2 -1.2,0.48 -1.87,2.47 -4.25,0.95l-0.33 -0.58c-0.6,-2.34 -0.12,-5.34 -0.12,-7.74 -0.01,-3.97 0.02,-5.24 1.36,-7.83 1.25,0.17 0.9,0.12 1.85,0.68l0.29 10.57c2.11,0.98 3.33,-0.04 4.24,-1.24 0.41,-2.36 0.05,-4.19 0.08,-6.55 0.04,-3.45 0.33,-3.02 -0.95,-5.48 -2.29,-4.4 0.4,-8.18 -0.02,-11.87l-1.98 -0.62c-1.26,0.75 -2.2,1.73 -2.75,3.36 -0.71,2.1 0.35,4.07 -0.82,5.8 -0.91,1.36 -3.41,1.49 -4.61,0.32 -2.86,-2.79 1.71,-7.84 -9.84,-2.06 -3.17,1.59 -6.76,-0.34 -5.78,-3.61 0.76,-1.26 13.85,-4.16 15.78,-3.32 0.48,-0.78 0.64,-1.09 0.97,-1.74 -1.15,-2.48 -3.91,-1.2 -6.09,-1.59 -0.95,-0.17 -0.9,-0.3 -1.1,-0.39l-1.25 -4.18c-2.12,-0.25 -2.31,-0.38 -4.02,0.14 -0.25,4.24 0,4.33 -3.67,6.9 -2.01,1.41 -2.74,1.68 -5.85,1.47 -0.84,-1.07 -2.25,-3.32 -3.82,-3.65 -3.52,-0.73 -2.84,1.61 -3.18,4.21 -1.47,1.26 -2.78,1.57 -4.01,2.77l0.07 1.91c2.52,0.62 3.27,-0.61 5.34,-1.26 2.65,-0.82 3.52,-1.75 6.09,-1.83 0.92,2.68 0.95,3.7 0.96,6.86 0,4.15 1.79,2.1 0.89,6.2 -0.55,2.52 -0.05,5.21 -0.19,7.79 -0.09,1.61 -2.57,6.68 0.65,7.1 1.87,0.24 3.02,-0.2 3.16,-2.28 0.18,-2.74 -1.29,-11.32 0.4,-12.66 1.93,-1.54 4.1,-0.37 5.11,0.83 -0.23,2.73 -0.94,0.95 -1.6,3.18 -0.64,2.18 0.51,2.35 0.89,3.85 0.79,3.13 -2.17,3.94 2.08,6.59 2.72,0.87 3.35,-2.24 5.64,-1.99 1.99,0.22 1.6,1.2 1.4,3.22 -3.75,0.8 -2.19,2.71 -8.35,2.66 -5.56,-0.04 -3.22,0.08 -7.01,1.76 -0.89,0.39 -1.28,0.45 -2.21,0.75 -2.61,0.83 -1.57,0.74 -4.77,1 -2.96,0.24 -1.08,1.14 -4.34,1.48 -4.49,0.46 -5.72,1.91 -8.96,-0.65 -0.21,-1.99 0.68,-3.26 0.71,-5.22l0.27 -19.24c0.12,-2.54 -0.52,-3.81 -0.56,-6.11l0.16 -32.34c-0.02,-2.81 -0.4,-10.96 -0.04,-13.11 1.53,-9.26 -5.47,-8.38 0.74,-14.64 0.5,-0.51 1.22,-0.97 2.08,-1.18 4.46,-1.07 3.73,2.7 3.39,5.8 -0.26,2.27 -1.23,2.24 -0.27,4.62 3.05,0.87 5.28,0.13 6.31,-2.1 1.14,-2.45 -0.49,-3.85 -1.19,-6.43 -0.94,-3.48 0.23,-3.98 2.76,-5.16 3.63,-1.69 8.44,-2.02 7.79,0.45 -0.56,2.12 -2.48,3.74 -0.56,8.6 2.43,1 10.14,-0.93 12.68,-2.33 1.81,-1 4.93,-0.55 6.64,-1.91 0.79,-0.64 1.03,-1.05 1.87,-1.66l-0.31 -6.24c-1.54,-0.84 -1.21,-1.14 -4.01,-1.14l-2.16 3.92c-0.85,1.96 -0.42,3.25 -1.53,5.1 -1.47,0.19 -2.5,-0.05 -3.75,0.25 -1.05,0.25 -1.7,0.81 -3.26,0.91 -0.61,-5.04 0.89,-3.02 -1.46,-7.17 -0.06,-0.09 -0.15,-0.19 -0.19,-0.29 -0.04,-0.11 -0.11,-0.23 -0.14,-0.35 -0.75,-3.3 4.13,-1.09 6.3,-2.88l0.17 -2.14c-3.7,-0.49 -5.23,0.29 -8.11,1.23 -3.04,1 -4.62,1.29 -7.99,2.04 -2.8,0.62 -4.44,1.9 -7.58,2.48 -4.34,0.81 -4.5,3.25 -7.52,1.31 0.08,-2.61 5.03,-5.72 7.54,-6.6 2.56,-0.89 5.9,-0.66 8.55,-1.49 1.29,-0.4 2.16,-1.06 3.31,-1.46 2.8,-0.99 4.88,-1.24 7.77,-2.34 2.42,-0.92 5.43,-0.58 8.02,-1.55 1.18,-0.44 2.13,-1.14 3.38,-1.46 1.21,-0.32 3.15,-0.51 4.48,-0.75 3.38,-0.61 4.03,-1.91 7.6,-2.42 5.01,-0.72 5.64,-4 9.07,-1.08l-1.78 4.14zm4.27 -22.95c4.04,-0.22 3.66,1.39 3.62,7.08 -0.02,3.36 0.15,7.15 -0.12,10.45l-3.13 0.1c-0.83,-2.48 -0.58,-14.42 -0.37,-17.63zm-78.02 13.19c2.52,-1.87 4.33,0.88 5.32,2.41 1.98,3.06 3.23,3.31 3.38,6.36l-2.75 0.08c-2.18,-4.64 -0.98,-1.92 -4.94,-5.98 -1.01,-1.04 -1.34,-1.11 -1.01,-2.87zm16.47 15.62c-1.34,-1.54 -1.3,-1.73 -1.16,-4.29 2.69,-2.91 2.86,-0.37 6.21,-2.86 2.1,-1.55 5.23,-0.94 7.95,-1.62 2.68,-0.67 3.87,-1.85 6.74,-2.46 4.34,-0.92 19.34,-5.08 21.76,-6.67 2.4,-1.58 5.9,-0.08 8.62,-0.98 2.78,-0.91 1.92,-3.43 6.93,-2.21 1.11,4.4 -0.41,4.57 -2.76,6.49 -2.8,2.28 -10.16,1.09 -15.42,4.2 -2.66,1.58 -1.3,0.04 -7.85,2.17 -2.63,0.85 -9.02,2.21 -11.15,3.27 -1.48,0.73 -1.95,1.28 -3.43,1.88 -3.31,1.33 -3.5,-0.15 -7.45,2.18 -1.26,0.74 -1.8,0.73 -3.66,0.8 -1.82,0.07 -3.48,0.21 -5.33,0.1zm-53.41 -10.81c-0.16,-3.18 1.63,-3.06 5.98,-5.1 2.97,-1.39 4.91,0.6 9.52,-2.3 1.97,-1.24 2.1,-0.66 4.78,-0.79 2.78,-0.14 2.32,-0.73 3.82,-1.93 1.98,-1.59 7.7,-1.07 10.13,0.06 0.43,4.11 -1.78,4.9 -5.99,5.35 -5.21,0.56 -4.23,2.29 -9.29,2.45 -5.3,0.16 -13.51,5.13 -18.95,2.26zm-4.63 -4.81l-0.02 2.94c-3.39,2.11 -11.97,-3.38 -14.21,-4.46 -1.82,-0.87 -3.24,-1.3 -4.63,-2.24 -0.24,-3.25 0.44,-3.57 3.51,-2.81 4.68,1.16 2.17,0.28 5.12,2.36l10.23 4.21zm125.95 -15.6c1.66,-0.89 2.56,-0.89 5.1,-0.72 -0.06,0.71 0,0.3 0.55,1.23 3.41,5.7 0.27,8.13 2.18,16.26l-1.2 0.81c-0.57,0.35 -0.34,0.35 -1.14,0.51 -3.94,0.79 -5.76,-0.69 -5.16,-5.06 0.65,-4.75 -1,-7.61 -0.33,-13.03zm-195.53 0.23c3.05,-1.37 11.48,3.34 14.66,3.6l0.29 -2.22c2.22,0.96 -0.82,0.63 4.1,3.31 2.74,1.5 0.89,1.44 5.13,2.78 6.7,2.11 9.79,2.24 9.12,5.72 -6.18,0.11 -7.7,-2.85 -13.55,-3.99 -2.68,-0.52 -2.26,-0.33 -4.53,-1.5 -5.1,-2.62 -17.61,-2.92 -15.22,-7.7zm205.6 0.08c0.93,-0.79 1.19,-0.94 1.97,-1.8 0.98,-1.07 1.15,-1.4 2.23,-1.87l2.13 1.36c0.16,3.2 -0.52,7.98 0.43,10.71 0.54,1.52 0.85,2.86 0.69,4.74 -0.24,2.9 -1.51,1.98 -1.94,3.33l-2.18 0.13c-3.03,-2.38 -1.44,-4.03 -2.34,-7.59 -0.57,-2.23 -1.04,-6.78 -0.99,-9.01zm-143.03 -3.78c1.56,0.45 4.27,2.78 4.27,5.94 0,2.08 -0.11,2.83 0.53,4.78l1.01 2.85c0.15,2.66 -3.61,0.73 -5.18,0.13 -3.66,-1.38 -2.66,-1.83 -4.68,-2.38 -2.21,-0.61 -3.59,-0.54 -4.24,-2.83 -1,-3.54 1.07,-3.52 4.02,-3.05l1.57 3.68c1.28,-0.24 1.83,-0.35 2.09,-1.56 0.33,-1.54 -0.54,-1.69 -1.1,-2.52 -1.16,-1.73 -0.26,-4.4 1.71,-5.04zm154.08 -1.53l2.75 -0.35c1.19,1.2 2.26,1.45 2.39,3.89 0.28,5.36 -0.36,13.98 0.68,18.81 1.75,8.09 0,16.63 1.34,22.77 0.03,0.13 0.09,0.44 0.11,0.57 0.32,3.2 -0.03,8.94 0.02,12.48 0.17,11.22 0.53,29.66 0.05,39.75 -0.43,0.1 0.41,-0.86 -0.81,0.68 -0.33,0.42 -1.26,2.12 -2.52,2.45 -1,0.26 -1.51,-0.01 -2.05,-0.63 -0.72,-0.81 -1,-12.07 0.15,-13.64l0.64 -0.66c1.3,-1.23 1.04,-0.21 1.48,-2.18 -2.3,-3.07 -2.48,0.45 -2.46,-8.73 0.01,-2.03 -0.05,-3.5 -0.23,-5.3 -0.23,-2.42 0.27,-3.03 0.42,-5.17l-0.57 -22.3c-0.5,-6.39 0.42,-15.81 -0.85,-21.8 -0.79,-3.74 -1.78,-17.92 -0.54,-20.64zm-147.09 -8.08c3.76,-0.63 3.1,2.43 3.82,5.09 0.64,2.33 1.81,4.55 2.5,7.1 0.41,1.51 1.1,2.43 1.31,3.46 0.31,1.51 -0.08,3.19 0.22,4.81 0.46,2.43 3.37,5.98 -2.72,5.22 -0.65,-1.02 -2.38,-4.04 -2.88,-5.32 -1.01,-2.54 0.03,-5.71 -0.59,-8.22 -0.27,-1.1 -1.28,-1.81 -1.8,-2.51 -0.95,-1.32 -0.49,-1.84 -0.88,-3.56 -0.87,-3.69 -1.41,-3.12 1.02,-6.07zm10.26 -0.68l2.24 -0.18c1.88,1.77 1.95,3.55 2.75,6.48l3.15 11.23c0.66,1.32 1.41,1.63 1.57,3.16 0.34,3.24 -3.03,3.81 -5.98,3.4 -1.8,-1.83 -1.19,-2.82 -1.59,-5.64 -0.49,-3.47 -2.02,-1.46 -2.05,-6.12 -0.03,-5.45 -3.75,-8.7 -0.09,-12.33zm12.46 -2.44c2.53,2.13 2.74,7.9 3.49,11.83 0.94,4.88 4.4,7.2 1.94,12.3 -4.72,0.41 -5.41,-6.32 -5.9,-7.59 -3.28,-8.38 -1.15,-3.87 -3.1,-11.3 -0.83,-3.16 0.52,-5.34 3.57,-5.24zm129.75 5.38l-4.98 0.14c-1.82,1.59 -2.39,2.31 -5.49,2.53 -1.55,0.11 -2.18,0.03 -3.51,0.51 -3.45,1.23 -2.53,2.51 -10.48,2.23 -4.6,-0.17 -3.35,0.01 -5.68,2.43 -1,0.11 -2.15,0.08 -3.06,0.24 -0.07,0.01 -5.94,2.19 -7.21,-0.88l-0.05 -2.18c3.78,-3.47 6.16,-2.55 12.32,-3.11 1.02,-1.61 2.76,-3.22 5.42,-3.3 3.89,-0.12 3.58,-1.53 7.41,-1.56 4.33,-0.04 4.09,-1.2 7.51,-1.91 3.39,-0.71 4.67,-1.1 8.93,-1 0.82,3.17 1.67,3.5 -1.13,5.86zm-112.08 15.73c-1.36,1.21 -0.57,0.89 -3.69,1.02 -5.7,-5.78 -1.49,-6.69 -4.94,-11.63 -1.86,-2.67 -0.57,-3.49 -1.59,-6.71 -1.76,-5.56 2.3,-7.51 4.62,-6.4 1.75,0.83 1.94,7.09 2.44,10.37 0.18,1.21 3.49,7.21 3.16,13.35zm-58.6 -7.75c3.97,0.68 3.31,-2.2 4.67,-4.69 0.69,-1.24 1.43,-1.53 1.91,-2.9 0.82,-2.34 0.14,-1.9 1.52,-3.65l3.97 -0.09c0.74,1.39 0.86,1.59 0.73,3.56 -0.65,0.11 -0.38,0.06 -1.12,0.86l-3.88 4.88c-0.92,1.26 -2.04,1.55 -3.13,2.61l-1.45 1.88c-0.04,0.09 -0.1,0.2 -0.15,0.29 -1.75,3.52 -1.13,1.63 -3.93,3.63 -1.15,0.82 -3.55,1.52 -3.86,1.79 -1.43,1.21 1.01,6.01 -5.9,5.84 -2.99,-5.56 1.88,-6.71 2.06,-13.04 0.1,-3.2 0.16,-2.87 1.63,-4.6 1.41,-1.67 0.34,-2.38 1.44,-4.24 1.18,-1.99 1.1,-0.81 2.2,-3.87 1.1,-3.09 3.83,-4.26 8,-3.9 0.24,4.03 0.23,3.2 -1.48,5.89 -0.63,1 -0.42,0.32 -0.8,1.85 -0.41,1.69 -0.25,2.76 -1.17,4.13 -0.97,1.44 -1.62,1.17 -1.26,3.77zm154.47 -24l2.36 -0.1c0.81,2 0.32,2.09 1.56,4.75 0,0.01 1.53,2 0.04,3.35 -0.75,0.68 -2.36,0.47 -3.49,-0.12l-1.13 -0.64c-0.21,-3.09 -0.18,-5.13 0.66,-7.24zm9.8 4.55c2.88,-0.05 3.55,0.72 2.79,3.08 -1.96,-0.33 -1.59,-0.06 -2.73,-1.13l-0.06 -1.95zm-191.32 26.8c-5.2,0.26 -5.12,-3.89 -4.49,-4.95 1,-1.7 1.6,-0.55 1.82,-3.6 0.17,-2.35 0.01,-2.71 1.12,-4.45 2.2,-3.43 1.09,-4.82 2.56,-7.9 0.54,-1.13 1.27,-1.9 1.69,-3.56 0.56,-2.18 0.13,-2.86 1.84,-3.92 2.39,-1.27 4.79,-0.26 6.02,1.16 0.33,3.83 -1.54,2.45 -2.06,7.28 -0.31,2.96 -2.04,3.02 -2.84,6.65 -0.93,4.16 -2.38,6.77 -4.04,10.44l-1.62 2.85zm140.41 -35.8c1.38,-0.59 2.21,-0.76 4.15,-0.51 0.04,0.06 0.11,0.08 0.12,0.18l0.48 0.61c0.55,0.79 0.29,0.35 0.66,1.11 3.29,6.9 1.2,8.25 1.79,9.66l2.29 2.32c0.16,2.08 0.22,4.33 0.3,6.45 0.23,5.69 -5.64,2.83 3.16,11.16 1.14,1.08 4.04,5.59 1.82,7.78 -4.29,4.23 -7.14,0.31 -13.23,3.93 -1.9,1.14 -2.12,1.03 -4.81,1.41 -7.26,1.02 -5.23,2.41 -8.42,2.65 -6.26,0.48 -4.79,1.43 -9.4,2.62 -3.78,0.98 -5.76,2.32 -8.62,2.69 -1.93,0.25 -3.82,0.05 -5.04,0.66 -2.34,1.17 -1.55,1.85 -4.91,1 -0.88,-1.05 -1.08,-1.96 -2,-3.05 -1.23,-1.45 -3.49,-2.83 -4.85,-6.12 -0.6,-1.44 -0.33,-1.53 -1.31,-2.6 -2.63,-2.87 0.6,-4.17 0.96,-5.98 -0.16,-2.71 -1.58,-3.07 -1.99,-6.98 -0.46,-4.46 -2.27,-2.65 -2.58,-6.11 -0.47,-5.11 -4.96,-11.79 -1.15,-13.31 0.81,-0.05 0.98,-0.19 1.81,0.04l1.6 0.95c2.02,1.73 0.21,3.65 2.38,7.22 1.96,3.22 0.11,4.01 2.32,7.3 1.96,2.91 -1.15,4.43 3.82,10.43l3.76 -0.1c0.73,-3.37 -2.5,-9.74 -3.48,-14.05 -1.82,-8.06 -5.07,-9.79 -2.04,-13.83l4.3 0.13c0.81,1.63 0.51,5 1.16,6.46 1.28,2.9 0.98,2.91 1.62,6.15l3.3 12.47c1.22,2.03 4.1,0.86 5.74,-0.8 -0.51,-1.99 -1.17,-3.43 -1.68,-5.92 -0.51,-2.48 -1.55,-4.15 -2.07,-6.28 -0.54,-2.22 -0.41,-4.39 -1.1,-6.72 -0.94,-3.14 -2.44,-2.65 -1.03,-6.19 8.48,-1.57 5.7,13.36 10.31,22.26 1.78,3.45 6.4,0.63 5.63,-2.56l-4.46 -15.22c-1.19,-3.14 -2.41,-4.39 -0.1,-7.05 2.37,-0.18 2.9,0.15 4.15,1.22 0.58,2.55 0.36,4.27 1.35,6.58 1.51,3.52 2.08,16.97 8.32,15.15 0.9,-5.06 -0.49,-8.38 -1.73,-12.23 -0.62,-1.92 -0.79,-3.71 -1.08,-5.78 -0.34,-2.55 -0.76,-5.09 2.11,-5.19 2.86,-0.1 2.72,3.63 4.39,9.6 0.48,1.69 0.98,3.74 1.55,5.5 0.65,2.02 0.53,4.5 1.39,5.83 4.27,0.64 4.1,0.16 4.08,-3.82 -0.01,-3.03 0.14,-4.9 -1.1,-7.35 -1.49,-2.97 -1.43,-1.94 -1.64,-6.19 -0.17,-3.27 -1.22,-4.7 -1,-7.58zm10.43 -0.51c1.4,-1.18 1.41,-1.74 4.01,-1.24 0.75,1.65 3.62,8.52 3.79,9.81 0.35,2.61 -0.61,3.35 0.62,5.73 1.21,2.33 1.71,2.85 1.39,6.02 -1.6,0.51 -4.1,1.98 -5.52,-0.22 -0.5,-0.77 -0.97,-7.31 -1.52,-10.24 -0.11,-0.55 -2.74,-5.73 -2.77,-9.86zm22.7 -0.86c0.87,1.12 1.07,1.31 1.65,3.14 1.04,3.27 2.42,9.77 2.11,12.86 -5.21,1.78 -4.24,-1.89 -4.51,-6.23l-1.87 -1.51c-0.1,-2.66 0.76,-2.8 0.04,-4.9 -1.01,-2.93 -0.65,-3.39 2.58,-3.36zm-12.01 -2.39l4.01 0.14c1.05,3.08 1.5,7.99 2.05,11.25 1.47,8.71 2.55,9.29 -1.43,9.18 -2.44,-4.51 0.91,-1.47 -3.13,-9.54 -0.36,-0.72 -1.61,-9.75 -1.5,-11.03zm28.33 -6.13c-1.96,-3.84 -5.78,-15.52 -6.99,-19.23 -0.78,-2.44 -1.74,-3.22 -2.56,-6.19 -0.91,-3.31 -2.03,-3.53 -2.03,-6.07l1.54 -1.23c2.65,1.01 3.87,6.18 4.76,8.76 3.11,9 4.07,7.17 4.61,8.23 0.7,1.37 -1.26,2.8 1.87,6.72 1.99,2.49 0.54,4.16 1.42,6.4 0.58,1.48 1.69,1.84 2.03,3.14 0.52,1.97 -0.01,2.3 1,4.31 0.67,1.34 1.25,2.08 1.66,3.56 0.37,1.32 0.6,3.03 1.02,4.25 0.27,0.8 0.67,1.26 0.84,1.96 0.42,1.86 -0.06,1.44 -0.51,1.97 -3.44,3.2 -4.67,-4.97 -5.66,-6.48 -3.6,-5.54 -0.57,-5.33 -3,-10.1zm-34.99 -29.71c3.4,-3.51 16.39,-5.74 20.9,-9.76 1.4,-1.25 1.53,-1 3.54,-0.49l0.19 3.39 -5.36 4.02c-6.04,0.74 -3.99,0.45 -8.49,2.3 -2.59,1.06 -4.99,0.32 -7.56,2.69 0.09,2.83 1.47,5.38 2.82,7.21 3.33,4.51 1.11,2.66 2.44,7.63 2.83,10.54 6.48,8.93 4.85,14.27 -2.31,0.03 -3.72,0.62 -5.21,-4.88 -0.81,-3.01 -1.32,-2.77 -2.83,-4.54 -0.86,-5.9 1.01,-3.89 -2.81,-7.86 -0.3,-4.71 0.06,-3.5 -1.6,-7 -0.79,-1.66 -1.25,-4.9 -0.88,-6.98zm-171.92 -55.75l0.28 0.01c0.99,0.8 2.02,2.32 3.65,2.56 3.39,0.48 2.8,-0.42 5.75,1.37 3.48,2.09 4.36,0.17 8.8,3.11 2.15,1.42 3.15,0.05 6.11,2.09 1.63,1.13 2.55,1.59 4.95,1.86 3.02,0.33 2.98,1.28 4.92,1.73l5.57 1.53c1.12,-0.05 3.07,-2.54 6.26,0.29 6,5.31 8.42,3.57 11.58,4.97 1.01,0.45 1.92,1.23 2.89,1.46 1.34,0.31 2.42,0.16 3.75,0.59 2.97,0.97 1.43,2 6.55,1.96 4.92,-0.04 2.98,1.54 5.61,2.53 2.73,1.03 3.16,-0.79 6.85,1.48l18.82 6.44c6.09,1.36 3.3,1.53 6,2.36l6.49 2.32c2.63,0.88 4.43,0.24 6.58,1.69 2.7,1.81 6.79,1.63 12.36,4.2 5.66,2.61 1.73,0.46 6.47,0.65 1.65,1.83 2.54,3.63 6,4.4 2.9,0.64 4.08,2.04 7.82,2.63 5.03,0.8 4.11,0.4 7.91,2.57 2.38,1.35 4.95,2.47 6.68,4.01 0.19,4.12 0.31,3.98 1.54,7.35l3.73 9.41c0.85,1.62 0.3,0.35 0.67,1.56 0.18,0.62 0.2,0.99 0.36,1.83 0.72,3.84 2.56,2.1 2.51,7.23 -6.3,5.32 -4.79,2.49 -11.58,4.06 -1.83,0.42 -2.34,1.14 -4.21,1.52 -5.73,1.17 -3.46,-0.61 -8.38,2.58 -1.85,1.2 -7.43,0.09 -10.12,0.54 -1.97,0.33 -2.13,1.18 -4.39,1.25 -2.88,0.08 -11.68,1.34 -13.35,2.62 -0.81,0.62 0.02,1.37 -4.13,1.29 -11.06,-0.24 -6.17,1.2 -14.44,1.94 -2.7,0.25 -12.36,3.14 -17.88,3.72l-18.44 3.2c-5.73,1.05 1.49,0.94 -9.92,1.24 -3.7,0.1 -5.61,-1.61 -8.72,-2.38 -5.7,-1.41 -0.54,-1.33 -8.31,-2.62 -8.44,-1.41 -3.8,-2.54 -8.52,-1.96 0.08,2.45 -0.22,1.65 1.07,2.85 2.83,2.66 1.63,1.98 -0.31,8.37 -0.85,2.8 -2.1,2.9 -2.51,6.4 -0.72,6.09 -1.15,3.86 -2.21,6.38 -0.58,1.39 -0.31,2.6 -0.46,4.08 -0.07,0.58 -0.15,1.06 -0.41,1.59 -1.76,3.61 -9.89,0.76 -7.88,-5.26 0.81,-2.44 2.2,-0.85 3.48,-6.57 0.48,-2.14 0.76,-1.74 1.38,-3.41 0.48,-1.3 0.22,-2.71 0.97,-3.83 0.86,-1.27 1.89,-0.81 3.13,-2.13 -0.42,-2.22 -1.78,-2.27 -1.12,-5.1 0.51,-2.17 1.97,-1.39 2.16,-4.51 -1.89,-2.06 -4.56,-1.42 -7.1,-2.23 -2.39,-0.75 -4.06,-2.55 -7.33,-1.96 -0.69,3.92 0.27,4.08 -1.47,7.7 -1.21,2.49 -1.5,5.55 -2.31,7.23 -0.64,1.33 -1.06,1.39 -1.53,2.89 -0.39,1.24 -0.52,2.66 -1.08,3.69 -0.83,1.51 -1.47,1.2 -1.69,3.22 -0.27,2.48 0.55,2.01 -1,3.76 -0.12,0.06 -0.29,0.01 -0.36,0.16l-1.16 0.23c-1.49,0.03 -4.24,-0.37 -5.29,-1.1 -0.38,-3.01 0.79,-1.74 1.67,-3.55 0.45,-0.93 0.32,-3.14 0.89,-4.72 1.7,-4.63 1.8,-2.43 2.22,-8.83 3.66,-2.85 2.48,-2.37 2.95,-7.94 1.61,-1.46 2.41,-1.5 1.82,-5.13 -1.44,-0.77 -6.04,-3.55 -6.35,0.03 0.53,2.26 1.35,1.36 1.35,4.37 -1.13,2.78 -1.41,2 -2.12,5.97 -0.48,2.75 -2.09,3.13 -2.44,5.82 -0.42,3.28 -0.31,3.45 -1.86,6.04 -1.75,2.92 0.4,3.84 -2.24,5.97 -3.15,0.21 -5.11,0.51 -6.99,-1.09 -0.11,-2.11 0.52,-4.04 -1.57,-4.12 -1.66,-0.06 -1.36,1.06 -2.93,1.67 0.78,6.24 1.79,12.4 3.01,18.49 0.28,-0.51 0.64,-1.07 1.1,-1.69 2.39,-3.23 11.07,1.35 15.35,1.98 3.46,0.51 6.78,3.74 10.48,2.41 2.3,-0.83 0.09,-1.27 3.24,-1.37 2.53,3.54 0.37,5.05 6.87,5.07 2.29,0.58 3.41,3.29 5.68,4.13 2.16,-1.54 1.9,-3.55 5.64,-2.9 1.51,0.94 0.64,10.58 0.48,11.22 -1.14,4.73 1.17,5.76 -0.98,10.85 -0.62,1.45 -0.43,4.05 -0.17,5.75 0.48,3.18 1.45,1.18 -0.21,4.82 -0.97,2.13 -0.98,42 -1.15,48.54 -0.04,1.82 -1.48,10.77 0.44,11.26 3.22,0.84 2.05,-7.74 2.1,-10.4 0.07,-3.21 1.31,-2.05 0.59,-4.98 -1.01,-4.09 0.75,-2.93 0.85,-5.5 0.08,-2.19 -1.68,-2.39 -1.45,-4.76 0.16,-1.63 1.49,-2.26 1.68,-4.84 0.18,-2.5 1.31,-9.8 1,-11.13 -1.69,-7.19 -0.37,-28.01 -0.34,-37.37 0,-2.33 -0.14,-3.97 0.39,-5.98 0.67,-2.51 0.07,-3.61 0.28,-6.09 1.35,-1.77 2.85,-3.33 5.19,-2.27 1.99,0.91 3.98,1.67 5.7,2.58 3.41,1.82 3.77,0.81 6.49,1.85 0.95,0.36 4.56,2.69 5.21,3.36 0.04,2.25 -0.87,2.99 -0.94,5.68 -0.05,2.3 0.23,4.69 0.29,6.99 0.05,2.31 -0.51,3.88 -0.47,6.11 0.16,11.19 -0.61,22.49 -0.52,33.64 0.05,7.13 -0.73,50.88 0.32,53.87 1.83,0.69 4.57,-0.13 6.36,1.07 1.8,1.2 3.26,-0.22 4.45,-0.62 1.03,-0.34 3.5,-0.41 4.67,-0.55 1.86,-0.22 6.69,-1.19 8.28,-1.76 3.07,-1.1 5.57,-0.6 8.36,-1.76 3.02,-1.24 7.35,-1.47 8.14,-2.3 1.2,-1.5 0.34,-1.75 0.95,-3.73 0.45,-1.44 1.3,-1.65 1.55,-3.2 0.35,-2.22 0.64,-21.87 0.02,-23.77 -0.85,-2.6 -1.38,-0.44 -1.3,-4.38 0.73,-0.46 0.69,-0.57 1.31,-0.64 0.65,-6.27 1.29,-40.62 0.75,-48.48 -0.17,-2.53 -0.44,-14.95 0.08,-16.61l2.85 -0.24c0.67,1.61 0.58,2.55 2.14,5.1 1.15,1.89 1.62,2.4 3.6,3.28l0.15 28.12c-0.32,11.06 -0.34,37.21 0.65,48.95 0.18,2.06 -0.55,4.4 -0.53,6.97 0.03,2.33 0.58,4.56 0.51,6.55 -0.08,2.24 -0.43,4.39 -0.44,6.99 -0.02,2.46 0.22,4.57 0.28,6.98 0.07,3.09 -0.64,4.39 -0.54,6.86 2.43,0 3.49,-2.76 5.01,-4.32 1.45,-1.48 4.88,-1.56 7.22,-2.4 5.35,-1.89 12.28,-3.4 18.87,-5.67 1.26,-0.44 2.58,-0.56 3.91,-0.8 3.2,-0.59 4.78,-1.93 7.33,-2.26 2.79,-0.37 5.54,-0.77 7.87,-1.91 1.64,-0.8 18.16,-4.67 22.71,-6.42 4.12,-1.58 8.75,-4.87 12.76,-6.9l9.05 -5.37c1.08,-0.68 2.31,-1.06 3.52,-1.75 5.13,-2.9 1.08,4.43 9.83,-1.06 1.44,-0.91 1.51,-1.23 2.32,-2.86 6.35,0.05 5.82,-1.3 10.21,-3.33 1.76,-0.82 3.5,-1.18 5.15,-1.9 1.63,-0.72 10.94,-6.65 13.16,-7.37 11.26,-3.63 9.19,-3.54 11.08,-8.68 0.72,-1.94 1.66,-2.3 1.6,-4.53 -0.13,-4.52 -4.8,-13.1 -5.81,-17.95 -0.95,-4.59 -4.24,-12.84 -5.67,-17.94l-3.24 -8.57c-0.98,-1.56 -1.31,-1.48 -1.52,-3.98 -0.34,-4.12 -1.52,-3.7 -2.2,-9.66 -0.32,-2.83 -0.29,-2.73 -1.69,-4.5 -3.04,-0.21 -4.88,0.35 -7.08,0.31 -2.22,-0.04 -4.25,-1.09 -6.58,0.16 -2.41,1.3 -1.39,2.11 -5.22,2.05 -6.62,-0.09 -9.2,2.27 -8.76,-6.38 0.08,-1.5 0.51,-2.1 0.53,-3.47 0.04,-2.53 -1.6,-13.99 -0.17,-20.2l2.09 -14.1c-0.51,-1.67 -2,-3.6 -2.66,-5.67 -0.8,-2.49 -1.89,-3.49 -2.57,-5.73 -1.53,-4.97 -3.1,-7.47 -4.55,-11.62 -0.69,-1.96 -0.8,-4.32 -1.68,-6.62 -0.92,-2.4 -1.47,-3.46 -2.73,-5.6 -1.37,-2.33 -1,-3.85 -1.86,-6.4 -0.67,-1.98 -1.8,-3.88 -2.57,-5.78 -0.93,-2.3 -1.23,-3.62 -2.01,-6.26 -2.33,-7.84 -4.62,-3.91 -9.72,-2.29 -4.85,1.53 -8.17,3.95 -13.14,5.19 -3.52,0.88 -4.16,0.98 -6.45,3.04 -2.4,1.1 -11.05,-2.38 -13.72,-3.46 -1.41,-0.57 -2.36,-1.45 -4.34,-1.65 -5.1,-0.5 -4.32,-1.53 -8.53,-2.91 -1.91,-0.63 -0.28,0.11 -1.78,-0.93 -0.69,-0.47 -1,-0.77 -1.88,-1.14 -3.95,-1.64 -5.85,-1.1 -9.13,-2.56 -1.79,-0.8 -2.77,-0.49 -4.37,-1.44 -4.16,-2.48 -4.88,0.18 -8.93,-2.89 -1.87,-1.42 -6.27,-1.6 -8.97,-2.31 -3.31,-0.88 -1.77,-0.76 -3.69,-1.99 -1.54,-0.98 -2.92,0.11 -5.14,-1 -1.56,-0.78 -2.11,-1.72 -3.61,-2.02 -3,-0.62 -1.85,0.32 -4.6,-1.2 -1.53,-0.84 -2.43,-0.47 -3.99,-1.7 -2.95,-2.32 -4.75,-0.84 -8.53,-3.25 -0.07,-0.05 -10.93,-3.29 -12.82,-4.65 -3.67,-2.65 -5.36,0.55 -8.68,-2.68 -2.58,-2.52 -5.99,-0.96 -9.11,-2.65 -4.03,-2.18 -5.15,-0.63 -8.67,-3.15 -1.66,-1.19 -2.8,-0.51 -4.86,-0.82 -2.2,-0.34 -2.48,-1.36 -3.7,-2.35 -2.43,-0.42 -4.97,0.3 -6.48,-1.02 -2.79,-2.45 -2.2,-1.05 -5.28,-2.14 -2.37,-0.83 -2.17,-2.1 -5.22,-2.28 -9.06,-0.54 -3.77,0.72 -8.8,-2.1 -1.66,-0.93 -1.64,-0.25 -3.37,-0.65 -0.95,-0.22 -1.33,-0.69 -1.75,-1.17 -0.43,1.11 -0.86,2.21 -1.27,3.33zm166.62 131.76c0.96,-2.01 -2.9,-8.85 -9.66,-7.05 -2.09,0.56 -4.49,1.55 -7.05,2.02 -4.4,0.8 -3.44,1.26 -6.42,2.33l-8.09 2.42c-0.1,0.03 -0.22,0.07 -0.32,0.09l-2.35 0.14c-6.09,0.16 -4.27,2.03 -6.69,2.46 -1.18,0.21 -2.96,-0.07 -4.33,0.07 -1.91,0.2 -5.67,0.97 -6.56,2.29 -2.09,3.11 1.24,5.06 2.23,6.13 2.19,2.35 3.75,1.36 7.28,0.74 7.1,-1.25 3.89,-1.1 7.23,-1.91 6.31,-1.52 4.36,-1.88 6.17,-2.45 2.63,-0.84 4.84,0.1 8.1,-1.32 5.66,-2.45 7.68,-1.59 14.17,-3.67 2.33,-0.76 5.27,-0.14 6.29,-2.29zm2.4 54.46c-2.75,1.15 -2.92,4.01 -7.44,1.8 -1.11,-6.29 2.21,-6.83 -0.52,-9.72 -1.75,-0.04 -3.71,-0.5 -4.62,1.51 -0.29,3.34 1.1,8.45 -1.1,10.47 -0.97,0.9 -2.99,1.16 -4.41,1.32 -2.23,0.25 -3.05,-0.33 -4.34,-1.24 -0.51,-4.85 2.39,-2.2 2.06,-6.62 -1.41,-1.11 -6.12,-3.78 -7.46,-1.12 -0.96,4.91 0.9,7.89 0.64,11.14 -1.78,0.44 -4.63,0.34 -6.04,1.06 -2.65,1.35 -3.25,1.29 -5.27,-0.53 -0.67,-1.33 2.48,-5.51 -1.36,-8.46 -2.14,0.36 -3.89,3.62 -3.91,5.31 -0.03,4.84 1.06,1.92 -0.84,6.26 -1.34,3.06 3.88,1.97 9.54,1.18 8.78,-1.23 0.79,-2.23 16.18,-2.29 3.5,0 2.83,-1.78 5.32,-2.39 1.34,-0.33 2.67,-0.01 3.79,-0.2 1.65,-0.29 1.5,-1.18 2.59,-1.73 0.14,-0.07 11.26,-0.93 12.14,-3.63 0,-0.02 0.88,0.07 -0.06,-2.52 -1.43,-3.89 1.58,-5.81 -0.01,-8.43 -0.69,-1.12 -2.63,-0.99 -3.76,-1.09 -2.94,4.81 -0.47,4.27 -1.12,9.92zm-150.74 29.13c0.74,0.17 1.66,0.5 2.9,1.19 1.77,0.97 3.81,1.18 5.01,1.99 1.53,1.03 2.11,3.64 3.84,1.03 -0.45,-1.73 -0.11,-0.94 -1.65,-1.88 -1.26,-0.77 -0.78,-0.54 -1.88,-1.57 -1.51,-1.42 -2.96,-1.63 -3.45,-4.01 -0.92,-4.36 0.82,-3.85 1.56,-5.78 0.77,-1.99 0.12,-5.15 -0.81,-6.28 -2.31,-0.51 -2.94,-0.27 -3.42,1.13 -2.16,6.36 -0.71,5.02 -0.18,7.62 0.37,1.77 -0.44,2.77 -0.7,3.8 -1.03,0.12 -1.88,0.19 -2.66,0.18 0.48,0.86 0.95,1.72 1.44,2.58zm-7.55 -14.2c0.07,-0.26 0.16,-0.55 0.29,-0.9 1.14,-3.13 -0.39,-6.19 -3.27,-5.36 0.97,2.11 1.96,4.19 2.98,6.26zm-24.87 -112.86c1.42,0.44 1.84,1.14 2.82,1.97 0.3,2.05 0.49,2.5 -0.67,3.9 -0.73,0.9 -1.42,1.95 -2.15,2.57l0 9.1c3.86,-0.91 1.14,-3.27 3.39,-5.63 3.84,-4.05 -0.18,-7.7 5.36,-7.96 1.92,-0.09 2.33,0.14 4.02,0.62l-0.09 3.95c-2.01,1.31 -1.6,2.12 -2.48,4.56 -1.07,2.98 -0.82,-0.5 -2.25,5.25 -0.41,1.62 -6.09,9.27 -0.96,9.13 1.96,-2.26 3.17,-5.29 3.92,-8.1l3.71 -8.12c1.6,-2.03 1.58,-3.45 1.3,-6.21 -1.13,-0.87 -3.31,-2.41 -3.25,-3.77 -10.51,-1.96 -8.42,-4.38 -12.67,-4.69l0 3.43zm23.37 73.17c1.58,3.53 3.85,3.38 5.95,4.3 1.13,0.5 1.57,1.08 2.43,1.51 2.72,1.36 2.8,-0.85 5.38,1.6 1.63,1.54 2.32,1.81 5.13,1.21 0.09,-2.33 -0.87,-2.2 -0.71,-4.64 0.17,-2.52 1.11,-1.69 0.41,-4.95 -0.71,-3.32 2.35,-8.27 -2.98,-7.6 -2.46,3.69 -1.6,7.03 -1.47,9.47 0.04,0.68 0.07,1.28 -0.17,1.92 -1.55,4.14 -8.63,-2.4 -8.81,-2.84 -0.41,-4.3 0.67,-9.14 -0.6,-13.03l-2.71 -0.18c-1.81,3.53 -0.71,5.92 -0.94,10.2 -0.13,2.43 -0.46,1.57 -0.91,3.03zm159.76 39.76l-0.28 2.78c-1.57,0.66 -6.99,1.51 -7.49,-1.07 -0.26,-1.35 1.41,-8.06 -4.42,-4.73l0 8.02c-1.44,0.96 -2.5,1.51 -2.58,3.17 1.68,0.66 2.87,0.37 5.08,0.29 0.57,-0.73 0.59,-0.67 1.07,-1.25 3.32,-0.16 3.97,0.37 6.48,-1.02 2.28,-1.27 4.27,-0.45 7.3,-0.61 3.69,-4.47 1.05,-3.62 -0.27,-6.52 -0.69,-1.52 -0.97,-3.58 -1.46,-5.34 -3.21,-0.84 -7.41,2.03 -4.25,5.27 0.65,0.67 0.41,0.43 0.82,1.01zm-165.17 -15.34c0.7,0.12 1.26,0.43 2.33,1.2 1.87,1.36 2.63,1.79 5.1,1.07 0.45,-1.32 0.33,-2.67 0.48,-4.33 0.18,-1.99 0.89,-2.19 1.33,-4.01 -0.34,-1.44 -0.7,-1.32 -0.84,-2.65 -0.17,-1.48 0.15,-1.6 -0.29,-3.31 -4.37,-0.87 -3.61,8.15 -3.85,9.42 -1.23,0.55 -2.8,1.06 -4.35,0.63 -0.34,-0.2 -0.67,-0.41 -0.98,-0.64 0.35,0.88 0.71,1.75 1.07,2.62zm-3.95 -10.1c0.79,-2.94 1.81,-6.18 -0.43,-7.2 -0.89,-0.11 -1.56,-0.1 -2.06,0 0.8,2.42 1.62,4.82 2.49,7.2zm4.56 -87.03c0.16,-3.53 5.58,-21.08 6.67,-23.38 1.23,-2.58 0.69,-3.9 1.34,-6.08 0.41,-1.39 0.79,-0.18 2.45,-5.08 0.74,-2.18 3.36,-10.01 3.36,-12 -4.08,-0.04 -2.29,1.96 -3.71,4.65 -2.07,3.9 -1.19,3.6 -3.33,8.84 -1.23,3.02 -0.15,3.09 -3.21,9.92 -1.2,2.69 -0.49,3.84 -1.95,6.37l-4.43 12.08c-0.82,2.55 -0.29,4.91 2.81,4.68zm15.88 99.8c-1.95,1.14 -3.36,0.47 -5,1.44 1.16,2.8 3.97,1.06 6.48,2.38 1.57,0.83 3.4,3.34 5.82,2.99 -0.03,-3.94 -1.25,-2.75 -2.77,-5.07 -0.15,-3.58 1.07,-10.68 -0.71,-13.37 -5.03,-0.98 -3.07,7.46 -3.82,11.63zm-22.66 -43.84c-0.34,3.51 1.23,2.21 -0.29,5.51 -0.77,1.67 0.46,2.97 0.31,5.81 -1.52,0.32 -2.89,1.03 -3.11,2.81 1.52,1.98 2.94,0.62 5.74,1.11 2.63,0.46 1.99,1.95 5.48,1.72 -0.71,-1.11 -1.39,-1.23 -2.23,-2.64 -3.4,-5.7 -0.97,-12.22 -1.78,-13.99l-1.44 -1.45 -2.68 1.12zm90.62 68.3c-1.32,-0.69 -2.63,-0.75 -4.4,-0.63 -2.43,3 -1.11,5.24 -0.84,9.37 0.18,2.59 0.29,2.36 1.54,3.98 1.03,1.32 1.26,1.72 2.28,2.85 1.69,0.12 3.42,0.49 3.24,-1.52 -0.08,-0.97 -1.15,-1.83 -2.31,-3.14l0.49 -10.91zm-9.79 -31.82c2.24,-0.26 2.86,0.02 4.33,-1.08 1.27,-0.94 1.42,-1.26 3.5,-1.38 1.72,-0.1 7.71,0.73 6.78,-2.69 -0.69,-2.52 -15.02,0.78 -13.73,2.37l-7.55 0.84c-0.56,1.5 -0.76,1.55 -0.46,3.33 3.74,2.05 5.12,0.47 7.13,-1.39zm64.39 28.07c-1.4,1.33 -2.09,0.64 -3.69,1.56 -1.21,0.7 -1.9,1.85 -1.97,3.32 1.11,0.03 2.01,-0.05 2.72,-0.39l0.73 -0.49c2.72,-1.65 6.55,0.35 7.32,-2.12l0.56 -7.74c-0.86,-0.79 -4.04,-5.63 -5.83,-2.61 -1.43,2.42 2.14,5.55 0.16,8.47zm-92.22 -39.14c1.92,-1.91 3.16,-7.03 2.84,-10.46 -1.92,-1.84 -2.51,-2.39 -6,-1.61 -0.98,1.8 -1.02,4.86 -1.01,7.35 0.01,3.58 0.44,5.03 4.17,4.72zm76.31 41.69c-2.37,1.43 -3.47,2.24 -3.24,4.43 3.09,-1.38 7.21,-0.79 9.61,-2.11 -0.14,-1.39 -0.65,-2 -0.79,-3.28 -0.16,-1.42 0.11,-3.15 -0.02,-4.85 -0.93,-1.07 -3.27,-3.41 -4.84,-1.93 -1.25,1.19 -0.63,5.78 -0.72,7.74zm-79.94 24.96c-0.77,1.07 -1.14,1.69 -1.99,2.65 -0.75,0.83 -1.18,1.69 -0.82,3.15 0.76,3.02 0.86,-1.12 2.61,6 1.84,0.03 1.26,-0.24 2.89,-1.41 3.5,-2.5 2.28,-8.4 0.81,-10.5l-3.5 0.11zm79.93 12c5.87,0.78 7.57,-10.51 1.65,-12.23l-3.32 3.07c-0.34,4.15 0,6.56 1.67,9.16zm-49.95 -76.09c0.54,-2.27 0.23,-6.08 0.28,-8.6 0.07,-3.66 -0.28,-4.23 -2.3,-6.06l-2.45 0.17c-0.29,1.94 -0.08,1.73 0.14,3.42 0.71,5.53 -1.53,10.9 1.44,11.44l2.89 -0.37zm18.98 19.8c1.1,-2.05 2.32,-0.68 2.35,-3.93 0.02,-2.75 -1.12,-2.94 -1.5,-4.37 -3.63,-0.01 -3.26,-1.05 -4.63,7.1 -0.38,2.28 0.94,5.62 2.01,6.79 2.23,0.1 3.45,-0.44 3.93,-2.53 -0.93,-1.77 -1.51,-1.01 -2.16,-3.06zm-9.83 -5.91c-0.53,-0.49 -0.79,-0.86 -1.61,-0.93 -1.48,-0.11 -2.54,1.44 -2.74,2.57 -0.31,1.79 0.76,2.15 0.82,4.69 0.05,1.87 -0.09,3.61 0.02,5.53 6.01,3.9 4.68,-6.89 5.18,-10.37 -0.81,-0.61 -1.09,-0.96 -1.67,-1.49zm-12.91 14.54c3.64,-0.09 4.11,-3.82 4.16,-6.87 0.02,-1.48 0.47,-3.77 -0.65,-4.78 -1.2,-1.1 -2.38,-1.3 -3.8,-1.16 -1.7,2.67 -0.24,4.2 -1.31,7.32 -0.88,2.55 0.3,4.37 1.6,5.49zm-21.64 9.72c-1.96,-1.48 -5.04,-1.81 -5.5,1.3 -0.63,4.23 2.72,10.39 3.77,10.79 1.89,0.74 2.01,-1.02 1.99,-2.46 -0.04,-2.9 0.16,-6.91 -0.26,-9.63zm42.61 -56.16c-0.83,1.47 -2.43,4.3 -2.17,6.34 0.21,1.61 0.87,1.67 1.09,3.49 0.17,1.4 0.38,5.47 3.31,1.82 0.57,-0.71 1.1,-1.2 1.63,-1.75 0.15,-1.46 0.33,-5.6 -0.09,-6.89 -0.03,-0.1 -0.07,-0.22 -0.11,-0.31 -0.2,-0.45 -1.48,-2.68 -3.66,-2.7zm-47.26 29.82c-0.57,2.58 -0.06,2.59 0.17,4.93 0.21,2.2 -1.42,5.63 1.23,6.85 4.77,0.33 2.33,-1.35 3.22,-4.52 0.68,-2.41 0.84,-4.1 0.47,-6.93 -1.2,-0.85 -3.8,-1.31 -5.09,-0.33zm36.24 -14.32c4.17,0.29 2.44,-1.39 4.49,-1.72l0.11 -10.85c-4.69,-0.72 -4.65,-0.42 -4.64,3.86 0.01,4.07 -0.7,4.77 0.04,8.71zm-12.83 39.47c1.5,-0.35 2.51,-0.07 4.13,-0.61l11.45 -1.96 -0.09 -2.51c-2.03,-1.02 -6.87,0.14 -9.55,0.33 -3.3,0.24 -6.04,1.32 -5.94,4.75zm4.49 15.41c3.25,-3.6 2.25,-1.86 2.27,-7.25 0.01,-4.86 -3.9,-2.78 -5.43,-1.59 -0.04,0.87 -0.03,2.09 -0.16,2.9 -0.46,2.68 -2.13,2.02 1.27,6.03l2.05 -0.09zm95.12 1.18c-0.47,1.89 -0.44,5.31 -0.37,7.34 0.11,3.17 1.86,3.16 4.5,2.15 0.43,-2.1 0.23,-4.72 0.23,-6.99 -0.01,-4.47 -2.47,-3.95 -4.36,-2.5zm-71.66 -12.85c-5.08,-1.17 -4.73,-0.9 -4.65,4.44l0.16 4.58c2.64,0.39 1.82,0.93 4.33,-0.37l0.16 -8.65zm61.15 6.45c1.67,0.2 2.67,0.46 3.71,-1.33 0.06,-0.11 0.2,-0.41 0.24,-0.53 0.53,-1.89 -2.76,-8.81 -6.4,-4.09 0.38,2.52 0.86,-0.29 2.45,5.95zm-103.33 -39.29c3.19,-5.22 -3.86,-4.42 -5.12,-4.7 -1.06,-0.24 -2.38,-1.17 -3.47,-0.81 -0.99,0.32 -1.35,1.74 -0.55,2.6 0.87,0.93 2.37,0.49 3.5,0.58 3.11,0.27 2.33,2.62 5.64,2.33zm43.07 24.3l0.05 -2.4c-2.72,-0.13 -7.82,-0.24 -9.96,0.73 -0.04,1.76 0.5,1.66 1.21,3.09 4.99,-0.67 1.87,-0.92 4.18,-1.18 2.21,-0.26 2.23,0.65 4.52,-0.24zm70.67 10.4c1.98,1.37 2.29,1.99 4.93,1.86 0.27,-3.29 -0.56,-2.97 -1.28,-4.94l-3.64 0.12 -0.01 2.96zm-121.98 -11.49l2.53 0.01 0.77 -0.96c0.55,-3.43 -1.34,-3.34 -4.49,-2.75 -0.66,2.22 -0.02,2.59 1.19,3.7z"/>
  <path id="arestas-1" class="fil2" d="M436.85 262.59l-2.85 0.07c-0.39,2.23 -0.08,3.44 -0.09,5.56 -0.02,2.2 -0.79,3.71 2.06,3.5 3.42,-0.26 1.05,-8.82 0.88,-9.13zm-1.75 28.54c2.16,-0.12 2.92,-1.35 4.05,-2.38 0.3,-3.26 -0.67,-5.1 -3.61,-5.31 -3.32,1.97 -3.05,5.68 -0.44,7.69zm-12.49 -21.32c1.06,0.93 2.01,1.48 3.91,1.18 0.49,-2.68 1.07,-5.91 -0.27,-8.27l-3.43 -0.33c-0.71,2.14 -0.48,4.99 -0.21,7.42zm-49.32 -5.37c-2.33,-0.58 -3.9,-1.31 -4.3,1.57 -0.19,1.42 -0.52,5.1 0.32,5.96 1.23,1.28 6.39,1.3 3.98,-7.53zm-29.03 33.94c1.03,-1.57 1.92,-3.87 1.79,-6.66 -5.21,-1.61 -6.47,0.95 -6.44,6.02 1.03,0.36 0.64,-0.46 0.84,0.94l3.81 -0.3zm-12.9 2.36c2.72,-6.96 3.1,-1.74 2.69,-6.73 -1.77,-1.42 -1.71,-2.9 -4.48,-2.45 -0.41,0.89 -0.31,2 -0.67,3.22 -0.32,1.07 -1.06,1.4 -1.08,2.72 -0.01,1.77 1.57,3.29 3.54,3.24zm51.16 -36.19c-0.17,4.21 -0.08,1.7 2.03,5.61 2.65,4.93 5.4,-4 4.27,-6.38 -0.84,-1.78 -3.16,-1.43 -4.16,-1.42 -0.58,0.67 -1.35,1.5 -2.14,2.19zm45.84 28.57c2.8,-6.33 -3.32,-10 -5.86,-5.2 -0.74,1.4 -1.14,3.32 -0.66,5.37 1.46,0.88 4.96,0.72 6.52,-0.17zm-25.59 -26.71c0.68,-4.31 -1.14,-3.72 -2.63,-5.57l-2.46 0.14c-1.09,1.1 0.75,0.22 -2.07,2.67 -0.02,1.2 -0.11,2.44 0.12,3.62 0.86,4.54 6.52,2.46 7.04,-0.86zm18.88 -76.35l-0.16 9.58c-0.16,2.22 -0.87,1.44 -0.85,4.38l5.54 0.22 -0.28 -14.17c-1.41,-0.82 -3.05,-1.1 -4.25,-0.01zm-31.64 18.48c1.81,-0.16 3.68,0.23 5.12,-0.8 3.08,-2.2 6.16,0.39 5.48,-3.2 -0.11,-0.59 -1.72,-2.46 -0.24,-5.19 0.35,-0.64 0.65,0.44 0.52,-3.65 -0.04,-1.48 -0.41,-3 -0.51,-4.05 -5.97,-0.36 -4.82,-0.25 -4.8,8.85 0,5.67 -1.14,4.93 -3.5,6.34l-2.07 1.7zm40.88 -4.3l8.67 -0.07c0.71,-3.05 -1.73,-2.11 -2.33,-3.68l-0.05 -10.37c-1.2,-1.19 -2.55,-2.23 -4.93,-1.71 -0.32,2.06 -0.31,6.85 -0.04,8.94 0.76,5.69 -1.53,2.81 -1.32,6.89zm-62.45 -5.06c0.01,11.39 -2.2,9.94 7.67,9.95 6.67,0 7.89,-0.25 12.4,-2.33 -0.02,-4.2 -2.62,-3.08 -1.52,-7.36 1.23,-4.8 -0.43,-4.77 -0.4,-7.71l-3.65 0.15c-0.8,2.16 -0.59,3.94 -0.42,6.45 0.21,2.97 1.23,2.69 1.22,5.22l-3.12 3.07c-2.18,0.22 -5.11,0.5 -6.94,-0.45 -0.56,-3 1.27,-10.62 -0.83,-12.89 -1.28,-1.39 -2.84,-2.23 -4.29,-0.31 -1.14,1.51 -0.12,3.81 -0.12,6.21zm-36.34 74.28c2.26,-2.74 2.5,-5.09 -1.01,-7.27l-1.73 0.49c-2.25,6.64 -1.38,2.6 -0.55,7.73 0.59,3.68 -0.62,6.35 -0.57,9.86 2.71,1.04 5.14,1.16 9.21,0.44 3.39,-0.59 5.62,0.28 9.12,0.24 -0.37,-1.83 -1.26,-8.63 -0.8,-9.88 1.23,-3.29 0.95,-8.67 -2.43,-7.4 -3.26,1.23 -1.82,8.96 -2.08,11.09 -0.41,3.41 -6.19,1.69 -6.27,1.65 -0.89,-0.5 -2.89,-5.29 -2.89,-6.95zm8.78 -29.99c-0.05,3.14 0.41,5.3 0.42,8.58 0.01,1.5 0.14,3.11 -0.39,4.18 -0.57,0.95 -1.15,1.89 -1.69,2.86 -1.98,0.19 -4.11,0.41 -5.58,-0.37 -1.81,-1.57 1.11,-4.75 1.28,-6.7 0.14,-1.67 -0.57,-2.19 -0.6,-6.13 -0.03,-3 -1.8,-2.91 -5.04,-1.47 -0.47,2.72 0.26,5.28 0.24,8.5 -0.05,5.89 -0.89,5.84 -0.73,8.42 3.05,0.26 5.3,0.93 7.99,0.97 3.04,0.05 6.26,-0.05 9.32,-0.06l-0.46 -4.52c2.92,-3.17 2.08,-2.4 0.75,-6.03 -0.69,-1.88 0.53,-3.08 0.66,-4.47 0.32,-3.46 -2.99,-5.56 -6.17,-3.76zm0.54 -48.41c-0.16,1.61 -0.25,4.27 -0.16,5.88 0.14,2.65 1.08,1.77 0.71,5.18l-2.64 1.23c-1.82,0.3 -4.89,0.41 -5.81,-1.62 -0.24,-3.03 3.36,-12.15 -1.98,-11.13 -1.31,0.25 -1.38,0.55 -1.74,1.55l-0.25 11.33c-2.33,2.35 -2.99,0.92 -4.8,2.62 0.21,3.44 5.37,1.88 7.28,0.97 4.75,-2.26 3.3,-0.69 8.69,-0.67 3.74,0.01 2.74,1.91 7.93,1.52l0.59 -3.21c-2.31,-1.57 -3.41,-2.4 -2.15,-4.53 1.04,-1.76 1.51,-1.94 0.89,-7.18 -0.37,-3.06 -4.4,-3.7 -6.56,-1.94zm-7.75 38.69c-0.45,-3.06 2.4,-14.81 -0.4,-15.9 -4.35,-1.68 -3.67,2.9 -3.64,5.8 0.13,9.71 0.83,8.26 -1.94,10.93 -0.96,0.91 -1.2,1.22 -1.15,3.05 2.77,1.5 6.87,0.95 9.79,0.63 3.01,-0.33 8.86,0.22 11.21,-0.38 0.13,-0.56 0.06,-16.07 -0.45,-17.47 -0.6,-1.61 -1.89,-2.56 -3.75,-2.57 -3.84,4.59 2.38,15.24 -3.13,15.97 -1.58,0.21 -4.87,0.04 -6.54,-0.06zm59.48 -193.94c-4.54,7.19 -23.95,35.37 -25.45,37.74 -2.31,3.65 1.08,0.97 -4.58,6.83 -1.42,1.47 -8.83,13.75 -11.39,17.03 -4.87,6.21 -2.54,5.03 -4,7.41 -1.61,2.64 -4.62,2.12 -4.48,6.99 3.55,0.17 5.32,-2.37 6.92,-5.09 1.71,-2.92 2.83,-4.09 4.47,-7.36 1.16,-2.32 5.62,-7.69 7.54,-9.85 1.45,-1.63 0.42,-2.06 2.2,-3.95l5.05 -6.73c0.92,-1.55 1.56,-1.47 2.79,-2.86 1.45,-1.63 0.86,-2.24 1.61,-4.59 0.39,-1.23 16.52,-23.11 22.27,-33.66 -0.98,-0.64 -1.96,-1.28 -2.95,-1.91zm5.93 212.01c0,0 0.34,1.21 -3.23,1.53 -1.6,0.14 -3.2,0.06 -4.8,-0.08 -1.22,-4.75 -0.89,-9.65 -1.26,-14.33 -9.18,-3.67 -4.82,8.31 -5.4,12.69 -7.17,4.93 -12.37,2.06 -9.3,-5.45 0.73,-1.8 2.54,-5.84 -0.45,-7.08 -0.84,-0.35 -0.96,-0.34 -2.02,-0.34 -3.13,0.01 -4.46,1.81 -2.53,4.95 0.75,1.22 0.72,2.48 0.71,4.41 -0.01,1.63 -0.02,2.93 -0.73,4.02 -0.77,1.19 -1.36,1.41 -1.21,2.95 0.07,0.69 -0.31,1.17 1.54,1.54l33.34 -0.57c0.15,-6.25 -1.18,1.34 -1.25,-9.7 -0.01,-0.79 -0.06,-1.78 0.12,-2.54 0.08,-0.31 1.86,-3.25 -0.4,-6.45 -4.14,-0.66 -4.3,2.32 -4.29,5.93 0.01,1.54 -0.38,3.78 0.18,5.12 0.58,1.39 2.17,1.74 0.98,3.4zm-2.39 -37.79c-0.85,4.46 0.99,11.83 0.67,13.99 -1.14,0.73 -6.15,2.2 -7.38,1.03 -1.14,-1.02 -0.62,-2.74 -0.63,-5.84l-0.04 -6.6c-1.13,-0.89 0.27,-0.07 -1.23,-0.86 -1.04,-0.56 -0.22,-0.44 -1.91,-0.54 -1.61,-0.1 -2.69,0.26 -3.75,1.01l-0.05 2.62c0.41,0.31 0.99,0.71 1.26,1.24 0.35,0.68 0.16,-0.04 0.29,0.97 0.02,0.19 0,1.03 -0.01,1.26 -0.02,1.76 0.05,3.53 -0.17,5.27 -2.78,2.21 -5.02,4.39 -8.65,0.87 -0.06,-1.18 0.02,-2.39 -0.05,-3.52 -0.09,-1.56 -0.39,-1.58 -0.49,-3.04 -0.2,-2.93 1.22,-2.96 0.85,-6.7 -3.19,-0.13 -2.03,-0.04 -5.91,2.27l-0.11 6.8c5.36,3.92 -2.91,5.14 -2.57,8.69l14.54 0.08c2.3,0 3.55,-0.45 6.12,-0.39 4.52,0.12 14.35,0.04 17.85,-2 0.08,-2.58 -1.19,-2.75 -2.79,-3.93 -0.34,-3.01 1.43,-12.23 -1.95,-13.7 -2.01,-0.13 -2.8,0.04 -3.89,1.02zm95.67 -56.5c-0.04,9.88 -0.1,18.46 -0.1,20.68 -0.02,9.62 0.01,19.2 0.09,28.83 0.02,2.48 -0.01,4.96 -0.04,7.43 -0.05,3.44 1.5,16.31 0.09,19.3 -0.32,0.69 -1.1,1.53 -1.49,2.03 -1.37,1.71 -2.59,0.29 -3.04,-0.77l-1.07 -89.93c-1.52,-3.14 -3.1,-6.24 -4.74,-9.31 0.09,1.83 0.4,3.42 0.4,5.71 -0.03,13.27 -1.09,22.04 0.12,36.27 0.2,2.32 -0.39,4.25 -0.22,6.99 0.16,2.62 0.37,4.62 0.57,6.97 0.2,2.44 -0.36,5.06 -0.09,7.46 1.36,12.15 -0.15,6.7 -0.12,13.1 0.03,6 2.37,24.78 0.62,30.18 -0.83,2.53 -1.17,2.84 -4.73,2.44 -1.72,-1.95 -1.32,-29.92 -1.21,-33.5 0.32,-10.92 -0.7,-19.96 -0.69,-30.15 0,-1.18 0.07,-2.18 -0.24,-3.32 -0.91,-3.34 -0.54,-15.85 -0.53,-19.83 0,-2.14 -0.27,-4.59 0.31,-6.58l0.46 -3.04c0.01,-3.53 -1.23,-3.6 -0.8,-9.62 0.14,-1.9 1.37,-2.66 2.52,-3.71l0.61 -4.32 0.29 -0.03c-1.13,-2.02 -2.29,-4.02 -3.48,-6 -3.38,4.97 -6.59,10.45 -9.81,14.89 -5.05,6.97 -4.96,3.66 -4.79,10.98 -1.66,1.41 -3.59,1.4 -4.78,3.06 -1.17,1.61 -3.39,6.08 -3.37,8.3 0.04,3.66 4.77,6.63 -2.27,5.89 -0.71,-1.13 -0.42,-0.7 -0.74,-1.56 -0.65,-1.76 -0.84,-3.29 -4.18,-0.52 0.01,2.53 0.67,2.98 0.38,6.24l-2.63 2.18c-0.24,2.17 -0.25,3.83 -1.31,5.06 -1.93,1.49 -3.26,-1.24 -7.13,0.31 -3.81,1.51 -2.46,1.16 -7.11,1.24 -2.76,0.05 -5.17,0.39 -7.88,0.43 -6.32,0.09 -3.1,1.7 -6.72,0.98l0.02 -2.77c2.46,-2.23 1.33,-2.81 6.29,-2.84 3.57,-0.02 4.2,-1.33 6.96,-1.54 3.7,-0.28 4.5,0.05 7.78,-1.11 2.9,-1.01 3.93,0.28 7.1,-1.59l-0.57 -2.1c-2.67,-0.84 -4.36,0.56 -4.69,-2.6 -0.11,-1.12 -0.04,-2.79 -0.03,-3.96 0.01,-3.7 -1.26,-3.91 -4.95,-3.3 -0.27,3.35 1.27,4.57 0.59,8.99 -0.57,0.59 -4.21,2.8 -4.88,3.03 -1.85,0.64 -5.75,0.21 -7.75,-0.03 -2.22,-3.71 -1.24,-9.21 -2.16,-15.76 -0.62,-4.33 0.75,-3.99 -0.46,-8.54 -0.86,-3.24 0.24,-4.5 3.48,-4.26 2.82,1.19 1.16,7.3 1.69,11.15 0.82,6.01 -0.6,12.28 1.91,13.36 5.65,0.37 2.53,-4.38 2.48,-8.56 -0.02,-2.21 -0.16,-4.37 -0.19,-6.56 -0.02,-0.82 -0.07,-2.33 0.05,-3.09 0.15,-0.89 0.37,-1.23 0.75,-2.02 0.01,-0.11 0.07,-0.14 0.09,-0.22 5.12,0.29 4,2.51 6.35,5.3 1.03,1.22 1.88,1.5 2.78,2.9 1.04,1.62 0.5,2.46 1.81,3.47 2.88,1.74 5.75,-0.25 7.97,-2.5 3.6,-3.66 -0.43,-1.54 5.35,-5.11 3.76,-2.32 2.24,-4.44 6.34,-9.42 5.52,-6.7 8.68,-12 13.19,-18.25l2.49 -3.72c-5.78,-9.26 -12.13,-18.14 -19.01,-26.56l-18.28 26.49c-1.34,1.66 -2.27,3.44 -3.55,5.18l-5.34 7.34c-5.6,7.77 -3.12,6.97 -10.35,6.55 -2.12,-0.13 -3.12,0.35 -4.78,0.54 -1.84,0.21 -3.5,-0.07 -5.31,0 -2.06,0.07 -2.65,0.7 -4.35,0.84 -4.01,0.31 -6.16,-0.23 -10.55,0.5 -5.29,0.86 -14.28,0.4 -20.45,1.05 -3.6,0.37 -5.47,1.31 -9.2,1.27 -3.66,-0.05 -7.29,0.02 -10.92,-0.03 -3.89,-0.04 -5.84,0.7 -9.49,0.55 -1.39,-1.56 -1.29,-1.9 -2.91,-3.14 -2.69,-2.05 -3.03,-5.09 -4.85,-7.38l-2.61 -3.53c-1.04,-1.59 -1.97,-1.71 -2.62,-3.53 -0.85,-2.36 -0.2,-2.28 -2,-4.06 -2.47,-2.45 -1.28,-4.65 -5.24,-7.15l-2.07 0.29c-1.22,2.88 0.8,5.03 2.62,6.76 2.49,2.35 1.12,1.54 4.13,5.49 0.73,0.95 1.3,2.82 2.21,4.31 0.99,1.61 1.38,2.84 2.61,4.4 1.08,1.38 2.01,2.21 2.85,3.7 0.83,1.49 1.06,2.82 2.06,4.49 3.44,5.72 -1.09,7.07 -4.16,12.83 -0.89,1.65 -1.5,2.13 -2.26,4.08 -2.96,7.64 -4.85,4.66 -7.73,10.44 -2.08,4.19 -5.48,3.87 -5.5,5.8l-3.46 -0.02c-1.5,-1.84 -1.01,-2.2 -3.37,-5.35 -1.25,-1.69 -1.52,-3.62 -2.66,-5.63 -0.93,-1.64 -2.49,-4.1 -3.18,-5.56 -0.58,-1.24 -0.63,-1.94 -1.29,-3.08 -0.48,-0.82 -1.06,-1.43 -1.62,-2.3l-2.81 -5.95c-0.93,-2.02 -2.14,-3.27 -3.35,-4.96 -1.17,-1.62 -1.21,-3.77 -2.47,-5.81 -0.64,-1.05 -1.29,-1.93 -1.69,-2.69 -0.87,-1.64 -1.2,-3.89 1.22,-3.04 1.93,0.67 2.82,4.01 3.58,5.66 1.09,2.37 4.71,9.45 7.36,13.2 0.79,1.11 7.83,16.58 11.39,20.09l1.68 -0.02c2.33,-3.1 -0.2,-3.6 -1.72,-6.11 -0.66,-1.09 -0.59,-2.5 -1.32,-3.46 -0.85,-1.12 -1.85,-0.83 -2.46,-2.25 -0.52,-1.23 -0.52,-2.64 -1.23,-4.11l-3.45 -6.17c-0.66,-1.17 -1.56,-1.7 -2.01,-2.78 -0.36,-0.89 -0.17,-1.04 -0.6,-2.05 -1.38,-3.24 -7.86,-12.64 -10.08,-17.01 -2.32,-4.58 -3.12,-1.64 -5.06,-4.74 -0.01,-2.73 1.31,-2.87 2.22,-4.53 0.44,-0.8 0.72,-1.63 1.13,-2.35 2.73,-4.83 6.96,-9.51 9.81,-14.32 2.12,-3.56 6.34,-8.44 7.37,-10.06l3.63 -6.3c1.43,-2.48 3.11,-2.61 4.08,-5.54l5.27 -7.48c1.34,-1.57 1.64,-1.97 2.72,-3.9 1.33,-2.38 3.73,-5.68 4.4,-8.44l-3.44 0c-0.69,2.07 -5.63,8.65 -7.13,11.13 -2.4,3.95 -5.03,6.53 -7.56,10.27l-5.81 8.29c-2.69,4.81 -1.53,2.2 -3.81,5.23 -0.77,1.03 -1.05,1.56 -1.75,2.68 -4.68,7.52 -6.59,8.42 -7.72,10.19 -1.91,3 -0.91,2.97 -3.62,5.56 -1.82,1.74 -2.59,2.92 -3.69,5.47 -1.3,3.04 -1.77,2.86 -2.8,3.83l2.49 3.97c0.23,0.38 0.44,0.75 0.62,1.12 1.3,0.77 1.31,2.1 1.1,3.7 0.13,1.27 -0.03,2.45 -0.4,3.51 -0.01,0.36 0,0.72 0.04,1.08l0.33 32.34c0.04,10.2 -0.92,42.46 0.59,49.63 0.5,2.41 0.85,2.16 1.65,4.06 0.74,1.73 0.4,3.17 1.18,4.55 1.12,1.96 1.62,0.8 1.84,3.8 0.22,3.04 0,2.23 1.48,4.32 1.17,1.66 0.81,2.02 1.17,4.51 0.29,1.94 1.27,2.55 1.97,3.68 1.12,1.81 -0.16,3.11 2.72,8.36 0.86,1.58 0.52,2.73 1.26,4.29 1.36,2.91 2.01,6.21 3.07,8.36 1.63,3.29 3.62,11.5 6.04,16.59 0.65,1.37 0.81,2.56 1.29,3.96l3.36 7.74c1.69,2.24 0.7,0.86 1.22,3.73l4.26 6.71c0.8,1.29 1.16,2.64 2.16,3.6 2.03,1.95 6.53,2.55 8.84,0.9 1.67,-1.19 1.45,-1.51 4.04,-1.69 3.68,-0.25 7.56,-0.07 11.26,-0.13 14.09,-0.24 28.76,-0.68 42.99,-1.83 2.06,-0.17 1.91,-0.87 4.75,-0.89 1.89,-0.02 3.79,0.06 5.69,0.04 3.71,-0.04 7.74,0.03 11.41,-0.18 3.33,-0.2 6.46,-1.95 8.9,-1.43 3.57,0.76 6.66,-0.57 10.26,-0.76 3.75,-0.2 7.62,-0.24 11.38,-0.26 2.2,0 3.09,0.36 4.34,-1.05 1.14,-1.28 1.93,-1.79 2.1,-3.27 -6.53,-0.22 -3.27,1.75 -15.18,1.73 -3.03,-0.01 -5.57,0.2 -8.29,0.34 -1.25,0.06 -3.18,0.13 -4.4,0.04 -5.41,-0.36 -1.68,-6.77 -1.01,-9.97 1.18,-5.56 0.19,-5.85 1.93,-8.86 3.77,-0.16 14.6,0.51 17.17,-0.37 0.67,-1.62 0.5,-1.96 0.14,-3.9 -3.48,-0.64 -3,0.44 -5.14,0.7 -1.49,0.18 -3.47,-0.61 -5.22,-0.71 -7.06,-0.39 -4.93,2.53 -9.58,2.44 -1.95,-4.57 0.13,-6.71 -0.75,-11.41 -0.42,-2.24 -0.54,-10.34 1.37,-11.5 2.1,-0.32 3.99,-0.21 6.03,-0.53 2.81,-0.43 3.7,0.41 6.45,0.32 2.35,-0.07 3.98,-0.75 6.57,-0.63 2.64,0.13 3.47,1.02 6.11,0.19l0.25 -2.37c-2.08,-0.47 -3.49,-0.41 -3.87,-2 -0.31,-1.26 0.13,-4.51 0.3,-5.83 -4.46,-3.04 0.74,-5.92 -1.31,-7.92 -1.84,-1.8 -4.74,-0.12 -4.89,4.54 -0.12,3.92 0.97,6.33 0.68,9.19 -2.32,1.59 -3.59,2.19 -7.12,1.1 -1.17,-2.52 0.23,-5.63 0.07,-9.4 -0.15,-3.43 0.21,-7.96 -4.77,-5.35 -1.85,4.17 1.91,11.72 -1.8,15.19 -2.64,0.23 -4.29,0.79 -4.51,-1.96 -0.37,-4.52 0.02,-9.44 0,-14 -0.02,-3.47 -0.32,-3.62 1.6,-5.48 3.43,-0.3 10.79,0.33 13.36,-0.39 4.98,-1.4 3.81,1.01 12.06,-1.05 -0.1,-2.62 -0.34,-1.26 -0.95,-3.07 -2.05,-0.2 -3.31,0.11 -4.8,-0.66 -1.08,-3.32 1.37,-3.77 0.5,-7.66 -0.54,-2.43 -0.83,-2.45 -0.1,-5.01 0.39,-1.38 0.02,-1.74 -0.21,-2.19 -7.01,-2.16 -4.94,5.12 -4.79,11.97 0.06,2.69 -0.02,3.5 -1.96,4.49 -7.58,-1.09 -1.97,-14.3 -5.63,-15.87 -1.55,-0.67 -2.66,0.4 -3.24,1.16 -1.18,1.54 -0.51,2.3 -0.1,3.97 0.57,2.34 0.47,7.62 0.01,10.62 -0.7,0.61 -2.21,0.84 -4.15,0.67 -2.35,-2.21 -1.56,-3.61 -1.55,-7.66 0.01,-3.21 -0.09,-6.43 -0.04,-9.64 0.06,-3.23 1.14,-4.47 0.21,-8.22 -0.63,-2.6 -0.42,-6.38 -0.45,-9.24 -0.1,-10.84 4.93,-7.06 7.95,-6.95 2.97,0.1 2.55,-1.68 5.88,-1.15 2.49,0.39 1.74,-0.37 3.43,-1 1.98,-0.74 7.43,-0.65 9.15,0.19 1.4,0.8 1.58,3.19 2.44,4.67 1.39,2.4 0.63,3.85 0.71,6.89l0.49 13.98c0.06,2.58 0.84,3.21 0.87,6.09 0.03,2.28 -0.48,5.01 0.2,7.13 0.54,1.67 0.23,-0.22 0.44,1.23 0.06,0.41 0.01,1.24 -0.02,1.68 -0.09,1.41 -0.23,2.52 -0.16,3.96 0.14,2.81 -0.07,4.75 -0.03,7.42 0.04,2.68 0.82,3.7 0.85,6.09l0.02 36.73c-0.01,2.67 0.35,4.3 0.36,6.99 0.01,2.67 -0.54,4.43 -0.27,7.12 2.89,0.14 2.13,-0.14 3.21,-1.42 2.65,-3.14 0.91,0.84 6.4,-7.55 0.79,-1.2 0.92,-1.38 1.86,-2.53 1.14,-1.42 0.73,-1.96 1.36,-3.43 0.9,-2.12 2.74,-3.16 4.6,-4.55 0.99,-3.14 0.21,-2.2 2.13,-4.5 0.9,-1.07 2.28,-2.93 2.72,-3.68 -1.14,-2.6 -1.97,-1.03 -1.96,-5.23l-0.03 -83.91c0,-6.83 -1.14,-23.7 0.15,-29.45 1.71,-0.6 2.17,-0.58 4.01,-0.13 1.15,4.7 -0.18,15.13 0.35,20.81 0.28,3.09 1.21,5.44 0.47,9.51 -0.41,2.26 0.42,28.36 0.65,30.31 0.72,5.91 0.01,14.75 -0.03,20.95 -0.02,3.39 -0.5,6.49 -0.24,10.05l1 9.29c0.43,4.57 -2.78,4.5 -2.5,7.7 1.12,3.41 1.56,4.65 2.35,4.51l8.28 -11 22.96 -31.37c0.11,-1.13 0.66,-2.89 1.1,-3.93l0 -11.08c-1.13,-5.37 -2.42,-10.69 -3.88,-15.93l0 23.41c-0.04,5.08 1.66,11.42 -4.16,11.59 -2.23,-1.41 -1.7,-2.52 -1.69,-5.91 -0.01,-11.95 -0.05,-23.89 -0.01,-35.83 0.02,-2.31 -0.45,-5.21 -0.33,-6.93 0.06,-0.92 0.12,-2.71 0.18,-5.06 -1.33,-3.67 -2.75,-7.29 -4.25,-10.87zm-135.48 145.96c-3.95,0.56 -9.44,-1.82 -13.88,-0.15 -2.4,0.9 -4.75,0.22 -7.99,0.41 -1.84,0.11 -2,0.95 -3.48,1.15 -1.37,0.19 -3.3,-0.22 -4.78,-0.23 -4.22,-0.02 -5.39,2.21 -4.62,-9.36 0.43,-6.44 -0.82,-15.86 -0.75,-18.79 0.16,-7.21 -0.14,-43.69 -0.78,-47.54 -0.6,-3.61 -0.45,-14.82 -0.28,-18.88 0.54,-12.59 -3.1,-20.79 8.16,-20.8 1.63,0 2.61,0.7 4.4,0.48 4.63,-0.57 -3.38,-1.36 13.08,-1.45l7.46 -0.05c0.35,0 0.91,0 1.25,0.06 2.98,0.57 0.39,9.77 1.39,12.59 0.4,1.12 1.35,-0.11 1.92,4.51 0.34,2.78 -0.22,4.18 -0.37,6.39l0.5 26.75c0.98,10.4 0.32,4.72 0.34,13.47 0,4.49 -0.14,9.08 -0.08,13.54 0.03,2.32 0.38,3.76 0.41,6.12 0.04,2.75 -0.46,3.98 -0.46,6.55l0.21 20.55c-0.03,4.42 -0.48,2.5 -1.65,4.68zm4.68 -2.07c0.11,-6.78 0.7,-13.78 0.06,-20.97l0.24 -20.54c0.02,-1.98 -0.4,-3.42 -0.45,-5.24 -0.05,-1.67 0.25,-3.05 0.23,-4.79 -0.19,-13.66 -1.31,-28.56 -0.59,-42.36 0.23,-4.27 -0.63,-5.93 -0.58,-9.65 0.07,-4.79 -0.75,-7.77 1.45,-9.38 3.57,-2.6 3.88,-1.4 8.48,-2.01l19.69 -1.61c2.5,0.03 2.78,0.02 4.8,-0.65 1.9,-0.63 2.75,-0.02 4.83,-0.16 5.92,-0.41 8.01,-2.19 11.53,0.61 -0.48,3.77 -0.36,37.24 1.33,43.99 0.4,1.58 -0.68,3.99 -0.7,6.33 -0.09,7.48 0.92,15.76 0.93,21.87 0,2.38 -0.37,5.19 -0.17,7.44 0.79,8.46 0.72,12.96 0.58,21.83 -0.04,2.44 -0.38,4.54 -0.37,7 0.04,9.05 3.1,7.87 -9.65,8.07 -1.89,0.03 -3.81,0.02 -5.7,0.03 -2.6,0.01 -2.23,0.05 -3.63,-1.12 0.16,-1.82 0.71,-1.81 0.73,-4.35 0.02,-3.66 0.39,-13.01 -0.33,-15.14 -4.08,-1.32 -5.68,1.33 -9.34,0.9 -7.23,-0.85 -4.56,-0.96 -7.85,1.99 -0.52,18.14 1.82,11.56 1.85,15.73 0.01,0.52 -0.09,0.75 -0.2,1.21 -0.22,0.85 -1.17,1.05 -1.72,1.13l-3.98 -0.02c-5.31,0.07 -5.78,4.87 -11.47,-0.14zm-18.94 -122.52c2.65,-0.5 2.67,1.31 5.03,-0.29 1.19,-0.81 2.86,-0.96 4.27,-0.58 1.09,0.3 2.75,1.64 3.83,2.36 0.29,1.93 0.48,2.02 -0.16,3.5 -5.39,0.51 -12.83,-0.46 -18.34,0.21 -3.58,0.45 -13.45,1.53 -16.03,-1.09 -0.35,-4.51 2.82,-6.24 6.18,-4.09 0.89,0.56 0.7,0.81 1.95,1l11.46 -0.33c0.6,-0.16 1.1,-0.55 1.81,-0.69zm111.19 -6.19l1.68 1.53c0.95,2.01 -0.56,69.57 0.38,79.5 0.15,1.58 0.57,4.26 0.78,5.76 0.4,2.84 -0.73,3.03 -0.84,5.64 -0.29,7.16 2.89,5.42 2.85,10.5 0,0.02 -4.92,9.03 -6.08,9.72 -3.81,-1.79 -1.83,-9.04 -2.13,-13.21 -0.35,-4.76 -0.06,-10.43 -0.06,-15.29 0,-7.91 -1.06,-40.37 -0.51,-45.45 0.43,-3.95 -0.13,-10.42 -0.21,-14.85 -0.09,-4.49 0.83,-11.13 -0.71,-14.63 -1.66,-3.79 0.33,-2.57 0.67,-5.9 0.32,-3.18 0.74,-3.63 4.18,-3.32zm-56.73 2.45c1.18,0 2.85,0.15 3.95,0.03 0.18,-0.03 5.35,-1.99 9.03,0.83 -0.06,2.88 -0.41,4.37 -6.42,4.4 -8,0.03 -16.26,0.71 -23.59,1.31 -3.78,0.31 -8.2,0.3 -11.8,0.85 -1.88,0.29 -3.46,0.97 -5.66,0.65 -2.6,-0.37 -2.24,-1.64 -1.98,-4.15 2.21,-2.17 3.71,-0.85 7.2,-1.31 4,-0.54 0.07,-1.04 7,-0.31 3.62,0.38 3.65,-1.56 6.28,-2.07l15.99 -0.23zm62.61 -19.68c2.44,-2.72 4.67,-1.22 4.66,2.61l-0.19 44.58c0,0.05 0.54,63.43 0.04,64.58 -0.84,0.83 -1.12,1.35 -2.89,1.28 -2.23,-2.16 -1.42,-5.8 -1.43,-9.49l-0.04 -43.69c-0.08,-8.03 0.82,-33.61 -0.7,-42.44 -0.37,-2.17 0.59,-3.56 0.6,-5.61 0,-3.38 -0.42,-8.63 -0.05,-11.82zm-127.87 19.83c-0.22,-1.35 -0.22,-11.18 0.2,-12 0.75,-1.43 0.63,-0.32 1.44,-2.05 0.44,-0.94 0.54,-1.14 0.92,-2.14 0.79,-2.02 0.55,-2.66 3.18,-2.49l-0.07 11.09c0.02,3.42 -0.48,10.43 -5.67,7.59zm37.22 -17.64c0.01,-2.93 -0.54,-6.69 0.67,-8.99 5.75,-0.25 4.6,2.97 4.59,8.12l0.01 8.73c0.03,4.93 0.5,5.26 -0.88,7.35 -1.22,0.26 -3.92,0.8 -4.35,-0.85l-0.04 -14.36zm19.1 -10.92c2.38,-2.35 1.42,-1.93 3.9,-1.91 1.54,2.39 0.96,12.31 0.96,15.89 0.01,4.93 2.22,10.31 -1.16,11.96 -2.13,0.17 -3.07,0.01 -4.17,-1.17 -0.26,-2.64 0.04,-2.43 0.42,-4.26l0.05 -20.51zm9.21 -1.96c1.94,-1.6 3.63,-0.8 5.14,0.64 0.61,1.34 0.5,21.35 0.48,24.47 -2.77,2.41 -4.3,-0.87 -5.21,-1.89 -0.67,-0.75 -0.02,-0.15 -0.54,-0.29l0.13 -22.93zm-36.9 17.69c-0.01,-2.77 0.01,-5.54 0.01,-8.31 0,-5.84 0.03,-6.02 4.52,-5.87 2.25,3.67 0.61,13.3 0.6,15.04 -0.01,4.94 1.49,11.15 -4.99,10.66l-0.14 -11.52zm-10.26 11.36c-0.33,-5.12 0.26,-10.2 0.92,-14.99 0.31,-2.31 -0.81,-5.09 -0.32,-7.68 0.34,-1.82 2.06,-3.2 4.57,-2.77 1.37,0.85 1.47,17.8 1.4,19.33 -0.11,2.4 0.07,5.81 -1.62,7.59l-3.52 0.02 -1.43 -1.5zm-5.54 1.66c-5.46,0.54 -4.64,-0.41 -4.49,-5.61 0.05,-1.62 1.72,-11.39 1.4,-13.93 0,-0.01 -1.85,-6.26 2.25,-6.97 6.18,-1.06 2.27,8.76 3.06,15.17 0.26,2.09 0.36,4.66 0.27,7.06 -0.1,2.29 -1.35,3.21 -2.49,4.28zm34.96 -2.68c-4.09,-3.93 0.92,-8.55 -0.89,-16.4 -0.66,-2.83 -2.21,-0.3 -1.17,-7.46 0.39,-2.73 2.72,-2.91 5.74,-2.79 0.97,3.97 0.8,9.12 0.65,13.68 -0.24,7 1.46,9 -1.46,12.97l-2.87 0zm33.95 -16.91c0.14,2.47 0.24,6.84 0.15,9.26 -0.24,6.49 -6.72,6.71 -6.84,1.26 -0.03,-1.68 0.28,-2.26 -0.2,-3.8 -1,-3.15 -1.24,-6.6 -0.55,-10.1 0.96,-4.91 -0.31,-1.86 -0.03,-6.21l1.48 -1.89c3.25,-0.25 5.04,0.3 5.11,3.6 0.18,8.38 0.68,4.61 0.88,7.88zm-124.84 -13.92c2.81,1.29 2.92,4.36 4.46,6.86 1.06,1.72 1.18,1.3 2,3.65 0.64,1.82 1.35,2 2.12,3.58 0.77,1.6 1,2.46 1.8,3.88 0.78,1.4 1.18,2.74 1.83,3.87 1.93,3.35 6.85,12.32 8.49,14.27 1.07,1.28 1.46,2.24 2.16,3.51 2.39,4.34 5.36,4.7 5.05,11.89 -0.15,3.61 0.07,7.69 0.09,11.36 0.1,18.55 0.27,36.9 1.54,55.41 0.25,3.6 -0.05,7.25 0.16,11 0.11,1.97 -0.02,3.85 0.07,5.72 0.08,1.8 0.64,2.41 0.69,4.76 0.08,3.36 0.33,8.38 -0.16,11.58 -2.01,0.94 -2.79,0.3 -3.27,-1.71 -0.79,-3.18 -0.38,-2.28 -2.29,-4.18 -0.24,-4.35 -1.02,-4.37 -2.01,-7.51 -0.4,-1.26 -0.5,-2.15 -0.98,-3.3 -0.69,-1.63 -0.99,-1.41 -2.3,-2.44 -0.2,-5.13 -0.75,-3.86 -2.05,-7.14 -1.42,-3.58 -0.55,-5.08 -4.81,-13.63 -0.14,-0.29 -2.69,-9.92 -4.6,-13.74l-7.27 -20.71c-1.61,-5.87 -0.65,-10.98 -1.03,-17.19 -0.1,-1.6 -0.5,-2.3 -0.5,-3.91 -0.01,-1.81 0.48,-2.54 0.55,-4.35 0.4,-10.59 -0.72,-38.97 0.14,-46.37 -1.22,-1.36 -3.07,-2.95 0.12,-5.16z"/>
  <path id="ruas" class="fil3" d="M278.01 127.05c0.7,-0.97 2.06,-1.19 3.03,-0.49 0.98,0.7 1.2,2.06 0.5,3.04l-19.06 26.45c-0.7,0.98 -2.07,1.2 -3.04,0.49 -0.38,-0.27 -0.65,-0.65 -0.79,-1.06l-50.97 -150.91c1.44,-0.27 2.88,-0.54 4.33,-0.79l49.4 146.3 16.6 -23.03zm-140.63 -97.13c-0.09,-0.25 -0.13,-0.5 -0.13,-0.75 1.14,-0.6 2.28,-1.19 3.43,-1.77 0.35,0.24 0.64,0.6 0.8,1.04l53.92 146.53c0.4,1.13 -0.18,2.38 -1.31,2.79 -0.48,0.18 -0.98,0.17 -1.42,0.02l-157.11 -51.99c0.76,-1.28 1.53,-2.56 2.31,-3.83l151.9 50.27 -52.39 -142.31z"/>
 </g>
</svg>
