<?xml version="1.0" encoding="UTF-8"?>
<!DOCTYPE svg PUBLIC "-//W3C//DTD SVG 1.1//EN" "http://www.w3.org/Graphics/SVG/1.1/DTD/svg11.dtd">
<!-- Creator: CorelDRAW 2020 (64 Bit) -->
<svg xmlns="http://www.w3.org/2000/svg" xml:space="preserve" width="480px" height="330px" version="1.1" style="shape-rendering:geometricPrecision; text-rendering:geometricPrecision; image-rendering:optimizeQuality; fill-rule:evenodd; clip-rule:evenodd"
viewBox="0 0 480 330"
 xmlns:xlink="http://www.w3.org/1999/xlink"
 xmlns:xodm="http://www.corel.com/coreldraw/odm/2003">
 <defs>
  <style type="text/css">
   <![CDATA[
    .fil1 {fill:black}
    .fil0 {fill:white}
   ]]>
  </style>
 </defs>
 <g id="Camada_x0020_1">
  <metadata id="CorelCorpID_0Corel-Layer"/>
  <path class="fil0" d="M90.91 126.81l-14.67 2c1.35,4.25 -2.15,6.76 -6.17,7.26 -2.18,0.27 -4.5,0.47 -6.67,0.7l-6.39 1.19c5,4.59 11.61,8.47 17.08,12.79 5.67,4.49 10.97,8.69 16.7,13.28 5.72,4.59 10.8,9.07 16.4,13.64 8.2,6.68 15.9,14.03 23.47,21.51 22.93,22.65 42.11,49.05 57.29,77.71 4.13,7.8 7.1,12.42 13.05,16.98 14.89,11.43 29.34,5.72 45.64,-0.35 29.67,-11.05 57.17,-23.47 84.88,-35.64 27.87,-12.24 54.68,-25.04 82.6,-37.37 14.25,-6.29 25.52,-13.92 33.29,-26.72 12.49,-20.59 12.77,-48.22 -2.8,-69.04 -24.31,-32.5 -51.27,-44.49 -82.79,-67.24l-25.22 -19.77c-2.93,-2.52 -5.23,-4.77 -8.01,-7.34 -2.14,0.18 -22.89,10.28 -27.03,12.02 -73.03,30.7 -152.08,43.55 -232.65,37.79 1.91,7.57 17.83,25.68 23.91,32.32 14.88,16.23 32.81,30.39 51.56,42.41 30.01,19.23 60.53,39.8 85.09,65.44 10.59,11.07 22.23,29.17 23.88,50.96 0.66,8.79 -3.98,11.25 -8.18,8.83 -5.53,-3.19 0.37,-18.58 -15.11,-41.41 -14.86,-21.91 -57.86,-53.31 -82.07,-68.41 -7.72,-4.81 -15.37,-9.62 -22.69,-14.82 -11.67,-8.29 -23.51,-17.96 -34.39,-28.72zm-66.04 36.95l-5.25 14.62 0.24 0.08c7.67,2.77 74.05,42 83.92,48.11 15.21,9.41 31.21,19.39 45.72,29.27 3.8,2.59 19.67,14.15 22.31,15.35 -2.27,-6.88 -19.7,-30.28 -23.89,-35.76 -3.99,-5.22 -9.45,-11.81 -13.72,-16.3 -19.46,-20.47 -40.7,-39.58 -63.28,-56.71 -4.33,-3.28 -6.52,-1.78 -11.8,-0.93 -2.7,0.44 -10.84,1.26 -12.52,2.29 5.23,4.02 17.6,11.51 24.04,15.91 4.1,2.79 7.86,5.44 11.8,8.22l23.5 17c2.58,1.94 9.88,6.34 10.5,9.55 1.05,5.38 -4.22,9.23 -10.5,4.43 -3.89,-2.98 -7.79,-5.73 -11.74,-8.74 -18.47,-14.06 -44.87,-32.6 -66.32,-44.18 -1.16,-0.63 -2.26,-1.24 -3.01,-2.21zm321.55 -62.58c-3.68,1.02 -7.14,2.07 -7.26,6.19 -0.11,3.63 3,6.38 6.92,5.59 12.36,-2.5 7.39,-13.72 0.34,-11.78zm-178.66 17.62c-4.75,0.88 -9.74,0.95 -9.9,6.06 -0.18,5.24 4.08,6.24 9,5.34 4.73,-0.86 9.32,-1.07 9.74,-5.87 0.21,-2.39 -0.76,-4.08 -2.38,-5.2 -2.24,-1.54 -3.88,-0.81 -6.46,-0.33zm88.84 75.97c-3.55,1.11 -9.74,2.63 -11.2,5.5 -2.35,4.6 1.89,9.24 7.2,7.71 3.3,-0.95 9.63,-3.13 10.82,-5.69 2.07,-4.46 -1.99,-9.03 -6.82,-7.52zm-65.1 -59.07c-7.26,1.74 -13.43,4.07 -21.66,5.56 -4.06,0.74 -7.53,1.42 -8.08,5.34 -0.59,4.14 2.81,6.75 7.12,6.2 6.89,-0.87 15.39,-3.26 21.79,-5.25 3.79,-1.18 7.12,-1.96 7.64,-5.84 0.53,-3.97 -2.9,-6.94 -6.81,-6.01zm-35.87 -34.47c-7.58,1.32 -15.33,1.95 -23.15,2.43 -3.87,0.24 -7.57,1.43 -7.22,6.19 0.32,4.35 3.92,5.2 8.23,4.98 7.59,-0.38 15.72,-1.13 23.01,-2.47 2,-0.37 3.57,-0.67 4.74,-1.74 3.37,-3.1 2.25,-10.75 -5.61,-9.39zm186.79 62l-54.66 19.91c-9.27,3.4 -4.86,13.26 2.86,10.86l36.22 -13.28c5.99,-2.3 12.05,-4.32 18.28,-6.71 9.77,-3.75 4.36,-13.4 -2.7,-10.78zm-20.26 -23.91c-15.05,4.93 -30.04,10.34 -44.87,15.85 -7.37,2.73 -14.71,5.18 -22.12,7.88 -3.74,1.36 -8.3,2.06 -9.02,5.98 -0.89,4.84 3.51,7.55 7.76,6.28 7.99,-2.37 35.31,-12.48 44.63,-15.9 7.43,-2.73 14.67,-5.15 22.1,-7.89 3.75,-1.39 8.3,-2.16 9.18,-5.85 1.15,-4.88 -2.89,-7.91 -7.66,-6.35zm32.25 53.37c-9.32,3.11 -39.9,16.26 -49.81,20.28 -8.25,3.34 -16.68,6.8 -24.86,10.14 -2.67,1.08 -10.27,3.59 -11.71,5.81 -3.02,4.68 1.28,9.75 6.72,8.23 1.82,-0.5 4.19,-1.72 6.07,-2.45 2.28,-0.89 4.23,-1.73 6.39,-2.62l62.12 -25.37c3.68,-1.52 9.69,-3.24 11.66,-5.83 2.96,-3.91 -0.61,-10.18 -6.58,-8.19zm11.92 -59.33l20.64 -9.02c2.01,-0.86 5,-2.81 6.91,-1.93 6.1,2.82 17.13,13.02 21.76,18.26 5.71,6.48 13.32,16.01 7.76,29.08 -2.02,4.75 -5.04,8.1 -9.37,10.67 -2.5,1.49 -11.41,5.09 -14.05,5.69 -1.01,-1.53 -5.84,-25.09 -22.26,-42l-11.39 -10.75zm25.76 -23.14l-38.77 16.47c-2.58,1.08 -4.99,2.61 -4.77,6.11 0.47,7.33 15.9,5.71 32.16,34.82 2.46,4.4 4.8,9.92 6.54,15.47 5.76,18.32 0.14,19.93 23.08,11.11 6.49,-2.5 9.67,-3.95 14.28,-7.71 12.84,-10.44 16.51,-29.83 4.32,-47.09l-10.43 -12.05c-2.82,-2.61 -20.89,-18.43 -26.41,-17.13zm-152.64 27.55c-4.69,-5.41 -20.57,-20.06 -26.62,-25.77 -2.12,-2 -7.89,-6.7 -9.27,-8.64 0.54,-0.39 38.62,-9.6 43.42,-10.99 14.39,-4.17 27.95,-8.57 41.9,-13.12l30.03 -10.95c6.03,-2.35 4.41,-2.52 8.89,1.21 13.25,11.03 24.65,19.93 38.49,30.04 2.38,1.73 5.83,5.14 9.67,2.29 7.69,-5.71 -4.4,-12.25 -7.73,-14.72l-30.89 -24.13c-2.71,-2.17 -4.59,-4.08 -7.2,-6.28 -3.83,-3.23 -5.24,-2.9 -10.15,-0.84 -34.47,14.47 -89.87,31.03 -127.21,37.78 -4.01,0.72 -7.5,1.56 -7.36,6.2 0.09,3.3 4.22,6.07 6.18,7.89 9.65,8.96 19.34,17.33 28.51,26.49l13.75 13.76c3.28,2.97 5.92,1.44 9.89,0.13l72.03 -24.47c3.33,-1.13 7.41,-2.07 9.2,-4.28 2.65,-3.25 0.22,-7.96 -3.3,-8.71 -3.12,-0.66 -54.01,17.77 -61.7,20.2 -6.93,2.19 -13.76,4.93 -20.53,6.91z"/>
  <path class="fil1" d="M68.91 80.21c80.57,5.76 159.62,-7.09 232.65,-37.79 4.14,-1.74 24.89,-11.84 27.03,-12.02 2.78,2.57 5.08,4.82 8.01,7.34l25.22 19.77c31.52,22.75 58.48,34.74 82.79,67.24 15.57,20.82 15.29,48.45 2.8,69.04 -7.77,12.8 -19.04,20.43 -33.29,26.72 -27.92,12.33 -54.73,25.13 -82.6,37.37 -27.71,12.17 -55.21,24.59 -84.88,35.64 -16.3,6.07 -30.75,11.78 -45.64,0.35 -5.95,-4.56 -8.92,-9.18 -13.05,-16.98 -15.18,-28.66 -34.36,-55.06 -57.29,-77.71 -7.57,-7.48 -15.27,-14.83 -23.47,-21.51 -5.6,-4.57 -10.68,-9.05 -16.4,-13.64 -5.73,-4.59 -11.03,-8.79 -16.7,-13.28 -5.47,-4.32 -12.08,-8.2 -17.08,-12.79l6.39 -1.19c2.17,-0.23 4.49,-0.43 6.67,-0.7 4.29,-0.53 7.99,-3.35 5.84,-8.13 -1.86,-4.12 -6.71,-3.02 -11.42,-2.52 -5.07,0.54 -22.74,1.58 -26.17,3.3 -3.63,1.81 -3.34,6.79 -0.46,9.27 5.16,4.46 11.69,8.02 17.1,12.37 -2.1,1.67 -14.88,2.81 -17.35,3.2 -5.63,0.88 -13.26,0.6 -13.71,6.32 -0.29,3.7 1.75,4.88 3.98,6.09 21.45,11.58 47.85,30.12 66.32,44.18 3.95,3.01 7.85,5.76 11.74,8.74 6.28,4.8 11.55,0.95 10.5,-4.43 -0.62,-3.21 -7.92,-7.61 -10.5,-9.55l-23.5 -17c-3.94,-2.78 -7.7,-5.43 -11.8,-8.22 -6.44,-4.4 -18.81,-11.89 -24.04,-15.91 1.68,-1.03 9.82,-1.85 12.52,-2.29 5.28,-0.85 7.47,-2.35 11.8,0.93 22.58,17.13 43.82,36.24 63.28,56.71 4.27,4.49 9.73,11.08 13.72,16.3 4.19,5.48 21.62,28.88 23.89,35.76 -2.64,-1.2 -18.51,-12.76 -22.31,-15.35 -14.51,-9.88 -30.51,-19.86 -45.72,-29.27 -9.87,-6.11 -76.25,-45.34 -83.92,-48.11 -5.69,-2.04 -9.81,3.94 -6.75,8.25 1.35,1.91 9.14,5.7 11.85,7.17 20.14,10.9 40.32,22.6 59.77,34.22 35.11,20.97 68.78,42.97 101.26,67.75 10.55,8.05 19.31,18.43 39.6,15.66 8.83,-1.21 21.05,-6.11 29.02,-9.02 19.09,-6.98 60.92,-24.63 79.14,-33.37 17.03,-8.18 34.75,-15.13 51.45,-23.53 16.59,-8.34 36.56,-14.48 50.77,-24.23 13.01,-8.93 26.09,-23.89 30.34,-45.18 6.99,-35.09 -9.56,-57.73 -30.8,-78.35 -12.96,-12.59 -26.94,-22.9 -42.3,-32.7 -11.57,-7.39 -22.61,-14.92 -33.44,-23.06 -35.92,-26.99 -22.15,-28.56 -44.96,-17.88 -51.61,24.18 -101.51,38.19 -162.28,44.32 -28.62,2.89 -61.61,3.66 -90.43,-0.35 -5.96,-0.83 -11.04,1.81 -7.95,8.51 14.55,31.47 43.32,59.09 71.15,78.86 7.32,5.2 14.97,10.01 22.69,14.82 24.21,15.1 67.21,46.5 82.07,68.41 15.48,22.83 9.58,38.22 15.11,41.41 4.2,2.42 8.84,-0.04 8.18,-8.83 -1.65,-21.79 -13.29,-39.89 -23.88,-50.96 -24.56,-25.64 -55.08,-46.21 -85.09,-65.44 -18.75,-12.02 -36.68,-26.18 -51.56,-42.41 -6.08,-6.64 -22,-24.75 -23.91,-32.32zm277.51 20.97c-3.68,1.02 -7.14,2.07 -7.26,6.19 -0.11,3.63 3,6.38 6.92,5.59 12.36,-2.5 7.39,-13.72 0.34,-11.78zm-178.66 17.62c-4.75,0.88 -9.74,0.95 -9.9,6.06 -0.18,5.24 4.08,6.24 9,5.34 4.73,-0.86 9.32,-1.07 9.74,-5.87 0.21,-2.39 -0.76,-4.08 -2.38,-5.2 -2.24,-1.54 -3.88,-0.81 -6.46,-0.33zm88.84 75.97c-3.55,1.11 -9.74,2.63 -11.2,5.5 -2.35,4.6 1.89,9.24 7.2,7.71 3.3,-0.95 9.63,-3.13 10.82,-5.69 2.07,-4.46 -1.99,-9.03 -6.82,-7.52zm-65.1 -59.07c-7.26,1.74 -13.43,4.07 -21.66,5.56 -4.06,0.74 -7.53,1.42 -8.08,5.34 -0.59,4.14 2.81,6.75 7.12,6.2 6.89,-0.87 15.39,-3.26 21.79,-5.25 3.79,-1.18 7.12,-1.96 7.64,-5.84 0.53,-3.97 -2.9,-6.94 -6.81,-6.01zm-35.87 -34.47c-7.58,1.32 -15.33,1.95 -23.15,2.43 -3.87,0.24 -7.57,1.43 -7.22,6.19 0.32,4.35 3.92,5.2 8.23,4.98 7.59,-0.38 15.72,-1.13 23.01,-2.47 2,-0.37 3.57,-0.67 4.74,-1.74 3.37,-3.1 2.25,-10.75 -5.61,-9.39zm186.79 62l-54.66 19.91c-9.27,3.4 -4.86,13.26 2.86,10.86l36.22 -13.28c5.99,-2.3 12.05,-4.32 18.28,-6.71 9.77,-3.75 4.36,-13.4 -2.7,-10.78zm-20.26 -23.91c-15.05,4.93 -30.04,10.34 -44.87,15.85 -7.37,2.73 -14.71,5.18 -22.12,7.88 -3.74,1.36 -8.3,2.06 -9.02,5.98 -0.89,4.84 3.51,7.55 7.76,6.28 7.99,-2.37 35.31,-12.48 44.63,-15.9 7.43,-2.73 14.67,-5.15 22.1,-7.89 3.75,-1.39 8.3,-2.16 9.18,-5.85 1.15,-4.88 -2.89,-7.91 -7.66,-6.35zm32.25 53.37c-9.32,3.11 -39.9,16.26 -49.81,20.28 -8.25,3.34 -16.68,6.8 -24.86,10.14 -2.67,1.08 -10.27,3.59 -11.71,5.81 -3.02,4.68 1.28,9.75 6.72,8.23 1.82,-0.5 4.19,-1.72 6.07,-2.45 2.28,-0.89 4.23,-1.73 6.39,-2.62l62.12 -25.37c3.68,-1.52 9.69,-3.24 11.66,-5.83 2.96,-3.91 -0.61,-10.18 -6.58,-8.19zm11.92 -59.33l20.64 -9.02c2.01,-0.86 5,-2.81 6.91,-1.93 6.1,2.82 17.13,13.02 21.76,18.26 5.71,6.48 13.32,16.01 7.76,29.08 -2.02,4.75 -5.04,8.1 -9.37,10.67 -2.5,1.49 -11.41,5.09 -14.05,5.69 -1.01,-1.53 -5.84,-25.09 -22.26,-42l-11.39 -10.75zm25.76 -23.14l-38.77 16.47c-2.58,1.08 -4.99,2.61 -4.77,6.11 0.47,7.33 15.9,5.71 32.16,34.82 2.46,4.4 4.8,9.92 6.54,15.47 5.76,18.32 0.14,19.93 23.08,11.11 6.49,-2.5 9.67,-3.95 14.28,-7.71 12.84,-10.44 16.51,-29.83 4.32,-47.09l-10.43 -12.05c-2.82,-2.61 -20.89,-18.43 -26.41,-17.13zm-152.64 27.55c-4.69,-5.41 -20.57,-20.06 -26.62,-25.77 -2.12,-2 -7.89,-6.7 -9.27,-8.64 0.54,-0.39 38.62,-9.6 43.42,-10.99 14.39,-4.17 27.95,-8.57 41.9,-13.12l30.03 -10.95c6.03,-2.35 4.41,-2.52 8.89,1.21 13.25,11.03 24.65,19.93 38.49,30.04 2.38,1.73 5.83,5.14 9.67,2.29 7.69,-5.71 -4.4,-12.25 -7.73,-14.72l-30.89 -24.13c-2.71,-2.17 -4.59,-4.08 -7.2,-6.28 -3.83,-3.23 -5.24,-2.9 -10.15,-0.84 -34.47,14.47 -89.87,31.03 -127.21,37.78 -4.01,0.72 -7.5,1.56 -7.36,6.2 0.09,3.3 4.22,6.07 6.18,7.89 9.65,8.96 19.34,17.33 28.51,26.49l13.75 13.76c3.28,2.97 5.92,1.44 9.89,0.13l72.03 -24.47c3.33,-1.13 7.41,-2.07 9.2,-4.28 2.65,-3.25 0.22,-7.96 -3.3,-8.71 -3.12,-0.66 -54.01,17.77 -61.7,20.2 -6.93,2.19 -13.76,4.93 -20.53,6.91z"/>
 </g>
</svg>
