<?xml version="1.0" encoding="UTF-8"?>
<!DOCTYPE svg PUBLIC "-//W3C//DTD SVG 1.1//EN" "http://www.w3.org/Graphics/SVG/1.1/DTD/svg11.dtd">
<!-- Creator: CorelDRAW 2020 (64 Bit) -->
<svg xmlns="http://www.w3.org/2000/svg" xml:space="preserve" width="512px" height="512px" version="1.1" style="shape-rendering:geometricPrecision; text-rendering:geometricPrecision; image-rendering:optimizeQuality; fill-rule:evenodd; clip-rule:evenodd"
viewBox="0 0 512 512"
 xmlns:xlink="http://www.w3.org/1999/xlink"
 xmlns:xodm="http://www.corel.com/coreldraw/odm/2003">
 <defs>
  <style type="text/css">
   <![CDATA[
    .fil1 {fill:black}
    .fil0 {fill:white}
   ]]>
  </style>
 </defs>
 <g id="Camada_x0020_1">
  <metadata id="CorelCorpID_0Corel-Layer"/>
  <path class="fil0" d="M116.35 64.78l-17.96 1.4c0.32,0.5 0.59,1.05 0.81,1.64 2.23,5.94 0.88,303.14 0.87,359.05 -0.01,5.39 0.69,21.08 -0.69,25.23 -2.75,8.31 -13.9,6.53 -15.67,0.36 -1.52,-5.28 -0.41,-295.84 -0.33,-353.97l-19.11 1.18c4.32,7.35 2.13,24.38 2.13,30.96l-0.04 315.16c0.21,25.3 23.9,38.43 42.79,21.62 12.14,-10.8 7.76,-54.94 7.76,-71.51l-0.01 -315.11 -0.55 -16.01zm51.72 166.8l-0.7 82.84 83.47 0.39c1.56,-5.9 1.55,-76.51 0.21,-83.88 -9.93,-1.09 -77.4,-1.68 -82.98,0.65zm-17.06 195.29c-3.9,-14.28 17.25,-11.12 25.29,-11.11l219.49 0c8.1,0 29.86,-2.99 32.05,6.2 3.29,13.8 -17.65,10.66 -25.31,10.65l-219.5 0c-7.09,0 -29.64,2.96 -32.02,-5.74zm6.24 -61.16c5.57,-1.56 227.05,-0.59 257.48,-0.55 17.7,0.01 16.07,14.05 7.35,16.47 -5.59,1.56 -227.59,0.62 -257.99,0.55 -16.8,-0.05 -17.37,-13.52 -6.84,-16.47zm268.66 -48.33c3.58,3.64 2.9,10.13 -1.62,12.76 -4.99,2.91 -99.77,1.24 -118.72,1.42 -5.52,0.05 -13.81,1.68 -17.98,-2.59 -4.47,-4.57 -2.63,-9.41 1.96,-12.51 6.49,-4.4 65.35,-1.65 77.96,-1.65 7.86,0 53.67,-2.25 58.4,2.57zm-271.19 -102.03c5.74,-3.44 48.27,-1.57 57.94,-1.57 8.83,0 50.92,-2.81 54.46,3.8 2.43,4.52 1.26,49.86 1.26,58.48 -0.01,9.27 3.04,50.43 -4.14,54.26 -4.64,2.49 -73.22,1.18 -87.94,1.22 -34.05,0.07 -25.45,6.94 -25.59,-91.84 -0.01,-7.17 -3.01,-20.13 4.01,-24.35zm136.36 49.66c3.53,-1.7 101.69,-0.68 119.55,-0.8 26.8,-0.18 16.96,14.47 12.38,16.15 -4.66,1.72 -101.3,0.61 -120.16,0.79 -25.93,0.24 -18.21,-13.02 -11.77,-16.14zm134.81 -48.61c3.63,3.65 2.8,10.12 -1.62,12.73 -5.33,3.14 -67.23,1.49 -78.3,1.49 -8.03,0 -53.37,2.29 -58.3,-2.69 -4.65,-4.71 -2.58,-9.73 2.18,-12.59 6.19,-3.73 65.64,-1.56 77.66,-1.56 7.89,0 53.56,-2.22 58.38,2.62zm-95.91 -91.15c-5.4,7.01 -12.49,27.89 -23.71,23.77 -8.23,-3.01 -5.11,-34.83 -5.1,-43.98 0.01,-9.27 -5.32,-41.42 10.7,-37.52 9.98,2.42 5.08,24.1 6.34,42.43 4.84,-2.11 4.25,-9.77 11.73,-10.05 6.26,-0.24 8.09,6.47 12.02,10.02 1.69,-12.28 -4.57,-33.7 5.36,-42.32 10.3,-1.13 12.07,3.53 12.09,13.11 0.01,8.1 -0.07,16.23 -0.07,24.33 0,11.28 3.83,37.28 -5.39,44.12 -13.56,1.62 -15,-15.78 -23.97,-23.91zm-158.33 -18.29c-0.22,9.22 5.26,51.84 -12.87,41.38 -6.66,-3.84 -4.01,-17.28 -4.01,-24.44 0.01,-8.13 -1.8,-50.04 2.32,-54.24 14.29,-14.6 26.67,32.08 38.83,40.61 0.89,-10.5 -1.08,-25.13 0.27,-34.88 1.6,-11.52 15.7,-11.51 16.69,1.29 0.83,10.78 1.02,59.26 -0.75,68.21 -16.8,19.28 -29.87,-34.5 -40.48,-37.93zm243.92 10.51c-13.42,-3.03 -35.69,5.49 -40.44,-11.85 -3.1,-11.3 -3.46,-35.15 11.36,-38.25 6.04,-1.27 18.7,-0.51 25.46,-0.54 6.61,-0.03 18.38,-2.26 20.1,6.24 3.37,16.57 -30.59,10.05 -40.73,10.8l0.22 15.76c13.1,1.2 37.09,-4.68 40.47,12.31 2.61,13.11 3.29,35.26 -13.36,37.64 -6.76,0.96 -18.26,0.22 -25.56,0.26 -6.63,0.04 -17.38,1.59 -18.56,-7.39 -2.03,-15.44 29.93,-7.52 40.97,-10.07l0.07 -14.91zm-170.13 15.28c7.75,0.67 32.12,-1.53 37.26,1.9 5.09,3.41 4.31,11.25 -0.95,13.92 -4.15,2.1 -13.05,1.28 -17.92,1.27 -42.51,-0.17 -35.91,-0.58 -35.9,-42.1 0,-42.21 -5.53,-40.73 37.25,-40.91 5.5,-0.02 14.17,-1.66 18.3,2.48 3.69,3.7 3.52,10.93 -1.66,13.3 -5.06,2.32 -28.75,0.6 -36.92,1.34l0.26 15.53c11.23,1.6 41.73,-4.92 40.66,9.53 -0.92,12.51 -29.97,6.8 -41.12,8.22l0.74 15.52zm-118.37 341.02c11.53,3.65 163.57,0.89 189.28,0.89 16.19,0 83.63,1.01 94.08,-0.75 32.69,-5.5 34.65,-32.71 34.66,-59.17 0,-37.05 3.11,-368.73 -1.85,-374.64 -4.58,-5.45 -80.9,-3.04 -93.23,-3.04l-188.52 0.01c-22.03,0.11 -27.95,-4.8 -27.78,19.48l0 377.06c0,41.57 -5.67,27.32 -6.64,40.16z"/>
  <path class="fil1" d="M127.07 473.77c0.97,-12.84 6.64,1.41 6.64,-40.16l0 -377.06c-0.17,-24.28 5.75,-19.37 27.78,-19.48l188.52 -0.01c12.33,0 88.65,-2.41 93.23,3.04 4.96,5.91 1.85,337.59 1.85,374.64 -0.01,26.46 -1.97,53.67 -34.66,59.17 -10.45,1.76 -77.89,0.75 -94.08,0.75 -25.71,0 -177.75,2.76 -189.28,-0.89zm8.01 -452.45c-24.22,5.88 -18.17,40.4 -18.18,59.47l0.01 315.11c0,16.57 4.38,60.71 -7.76,71.51 -18.89,16.81 -42.58,3.68 -42.79,-21.62l0.04 -315.16c0,-7.91 3.16,-30.92 -5.61,-34.05 -14.71,-5.25 -11.21,19.99 -11.21,27.32 0,105.47 0.18,210.96 -0.01,316.44 -0.11,63.44 48.6,51.17 106.54,51.17l235.7 0.03c23.97,0.18 41.27,-2.67 57.11,-22.31 16.16,-20.04 12.95,-41.2 13,-65.24l0 -315.1c0.01,-19.24 5.97,-56.48 -13.64,-65.95 -10.72,-5.17 -197.1,-2.72 -234.27,-2.72 -16.84,0 -65.7,-2.12 -78.93,1.1zm32.99 210.26c5.58,-2.33 73.05,-1.74 82.98,-0.65 1.34,7.37 1.35,77.98 -0.21,83.88l-83.47 -0.39 0.7 -82.84zm-13.35 -16.23c-7.02,4.22 -4.02,17.18 -4.01,24.35 0.14,98.78 -8.46,91.91 25.59,91.84 14.72,-0.04 83.3,1.27 87.94,-1.22 7.18,-3.83 4.13,-44.99 4.14,-54.26 0,-8.62 1.17,-53.96 -1.26,-58.48 -3.54,-6.61 -45.63,-3.8 -54.46,-3.8 -9.67,0 -52.2,-1.87 -57.94,1.57zm-71.01 237.11c1.77,6.17 12.92,7.95 15.67,-0.36 1.38,-4.15 0.68,-19.84 0.69,-25.23 0.01,-55.91 1.36,-353.11 -0.87,-359.05 -2.7,-7.19 -12.88,-7.45 -15.3,-0.01 -1.2,3.67 -0.52,20.07 -0.52,25.11 0,41.33 -1.24,354.06 0.33,359.54zm73.54 -86.75c-10.53,2.95 -9.96,16.42 6.84,16.47 30.4,0.07 252.4,1.01 257.99,-0.55 8.72,-2.42 10.35,-16.46 -7.35,-16.47 -30.43,-0.04 -251.91,-1.01 -257.48,0.55zm245.28 66.9c7.66,0.01 28.6,3.15 25.31,-10.65 -2.19,-9.19 -23.95,-6.2 -32.05,-6.2l-219.49 0c-8.04,-0.01 -29.19,-3.17 -25.29,11.11 2.38,8.7 24.93,5.74 32.02,5.74l219.5 0zm-230.88 -325.65c10.61,3.43 23.68,57.21 40.48,37.93 1.77,-8.95 1.58,-57.43 0.75,-68.21 -0.99,-12.8 -15.09,-12.81 -16.69,-1.29 -1.35,9.75 0.62,24.38 -0.27,34.88 -12.16,-8.53 -24.54,-55.21 -38.83,-40.61 -4.12,4.2 -2.31,46.11 -2.32,54.24 0,7.16 -2.65,20.6 4.01,24.44 18.13,10.46 12.65,-32.16 12.87,-41.38zm158.33 18.29c8.97,8.13 10.41,25.53 23.97,23.91 9.22,-6.84 5.39,-32.84 5.39,-44.12 0,-8.1 0.08,-16.23 0.07,-24.33 -0.02,-9.58 -1.79,-14.24 -12.09,-13.11 -9.93,8.62 -3.67,30.04 -5.36,42.32 -3.93,-3.55 -5.76,-10.26 -12.02,-10.02 -7.48,0.28 -6.89,7.94 -11.73,10.05 -1.26,-18.33 3.64,-40.01 -6.34,-42.43 -16.02,-3.9 -10.69,28.25 -10.7,37.52 -0.01,9.15 -3.13,40.97 5.1,43.98 11.22,4.12 18.31,-16.76 23.71,-23.77zm-84.54 7.5l-0.74 -15.52c11.15,-1.42 40.2,4.29 41.12,-8.22 1.07,-14.45 -29.43,-7.93 -40.66,-9.53l-0.26 -15.53c8.17,-0.74 31.86,0.98 36.92,-1.34 5.18,-2.37 5.35,-9.6 1.66,-13.3 -4.13,-4.14 -12.8,-2.5 -18.3,-2.48 -42.78,0.18 -37.25,-1.3 -37.25,40.91 -0.01,41.52 -6.61,41.93 35.9,42.1 4.87,0.01 13.77,0.83 17.92,-1.27 5.26,-2.67 6.04,-10.51 0.95,-13.92 -5.14,-3.43 -29.51,-1.23 -37.26,-1.9zm170.13 -15.28l-0.07 14.91c-11.04,2.55 -43,-5.37 -40.97,10.07 1.18,8.98 11.93,7.43 18.56,7.39 7.3,-0.04 18.8,0.7 25.56,-0.26 16.65,-2.38 15.97,-24.53 13.36,-37.64 -3.38,-16.99 -27.37,-11.11 -40.47,-12.31l-0.22 -15.76c10.14,-0.75 44.1,5.77 40.73,-10.8 -1.72,-8.5 -13.49,-6.27 -20.1,-6.24 -6.76,0.03 -19.42,-0.73 -25.46,0.54 -14.82,3.1 -14.46,26.95 -11.36,38.25 4.75,17.34 27.02,8.82 40.44,11.85zm-125.72 97.87c-4.76,2.86 -6.83,7.88 -2.18,12.59 4.93,4.98 50.27,2.69 58.3,2.69 11.07,0 72.97,1.65 78.3,-1.49 4.42,-2.61 5.25,-9.08 1.62,-12.73 -4.82,-4.84 -50.49,-2.62 -58.38,-2.62 -12.02,0 -71.47,-2.17 -77.66,1.56zm-0.3 101.12c-4.59,3.1 -6.43,7.94 -1.96,12.51 4.17,4.27 12.46,2.64 17.98,2.59 18.95,-0.18 113.73,1.49 118.72,-1.42 4.52,-2.63 5.2,-9.12 1.62,-12.76 -4.73,-4.82 -50.54,-2.57 -58.4,-2.57 -12.61,0 -71.47,-2.75 -77.96,1.65zm1.53 -51.45c-6.44,3.12 -14.16,16.38 11.77,16.14 18.86,-0.18 115.5,0.93 120.16,-0.79 4.58,-1.68 14.42,-16.33 -12.38,-16.15 -17.86,0.12 -116.02,-0.9 -119.55,0.8z"/>
 </g>
</svg>
